<svg width="24" height="26" viewBox="0 0 24 26" fill="none" xmlns="http://www.w3.org/2000/svg">
<path d="M6.8722 13.8161C6.8722 12.1465 7.06484 10.509 7.64277 9.28897C8.2207 8.13312 9.1518 7.36255 10.6929 7.36255C12.2662 7.36255 13.1652 8.13312 13.7431 9.28897C14.3531 10.509 14.5458 12.1465 14.5458 13.8161C14.5458 15.4856 14.3531 17.1231 13.7431 18.3432C13.1652 19.499 12.2662 20.2696 10.6929 20.2696C9.1518 20.2696 8.2207 19.499 7.64277 18.3432C7.06484 17.1231 6.8722 15.4856 6.8722 13.8161ZM1.79929 13.8161C1.79929 16.3846 2.18457 18.9853 3.62939 21.1686C5.00999 23.2234 7.3217 24.7325 10.6929 24.7325C14.0963 24.7325 16.408 23.2234 17.7886 21.1686C19.2334 18.9853 19.6187 16.3846 19.6187 13.8161C19.6187 11.2475 19.2334 8.64683 17.7886 6.46355C16.408 4.37659 14.0963 2.89967 10.6929 2.89967C7.3217 2.89967 5.00999 4.37659 3.62939 6.46355C2.18457 8.64683 1.79929 11.2475 1.79929 13.8161Z" fill="white"/>
<mask id="path-2-outside-1_601_9915" maskUnits="userSpaceOnUse" x="14.4551" y="0.707031" width="9" height="11" fill="black">
<rect fill="white" x="14.4551" y="0.707031" width="9" height="11"/>
<path d="M18.0373 5.39229C17.9827 5.21468 17.9553 5.0234 17.9553 4.84579C17.9553 4.10801 18.3652 3.53418 19.1986 3.53418C19.9911 3.53418 20.3873 4.02603 20.3873 4.5862C20.3873 5.17369 20.114 5.54258 19.4172 5.95245L17.969 6.79953C16.3431 7.74225 15.8786 9.08118 15.8786 10.707H22.6143V8.90357H18.5155C18.6385 8.64398 18.8571 8.46637 19.1166 8.30242L20.7971 7.30505C21.9311 6.63558 22.546 5.69287 22.546 4.54521C22.546 2.96035 21.289 1.63508 19.2533 1.63508C17.1219 1.63508 15.9333 3.05599 15.9333 4.64085C15.9333 4.9141 15.9743 5.26933 16.0152 5.37863L18.0373 5.39229Z"/>
</mask>
<path d="M18.0373 5.39229C17.9827 5.21468 17.9553 5.0234 17.9553 4.84579C17.9553 4.10801 18.3652 3.53418 19.1986 3.53418C19.9911 3.53418 20.3873 4.02603 20.3873 4.5862C20.3873 5.17369 20.114 5.54258 19.4172 5.95245L17.969 6.79953C16.3431 7.74225 15.8786 9.08118 15.8786 10.707H22.6143V8.90357H18.5155C18.6385 8.64398 18.8571 8.46637 19.1166 8.30242L20.7971 7.30505C21.9311 6.63558 22.546 5.69287 22.546 4.54521C22.546 2.96035 21.289 1.63508 19.2533 1.63508C17.1219 1.63508 15.9333 3.05599 15.9333 4.64085C15.9333 4.9141 15.9743 5.26933 16.0152 5.37863L18.0373 5.39229Z" fill="white"/>
<path d="M18.0373 5.39229L18.0322 6.14678C18.2725 6.1484 18.4993 6.03543 18.6427 5.84259C18.7861 5.64975 18.8291 5.40011 18.7584 5.1704L18.0373 5.39229ZM19.4172 5.95246L19.7982 6.60374L19.7998 6.60279L19.4172 5.95246ZM17.969 6.79953L18.3475 7.45226L18.3499 7.45082L17.969 6.79953ZM15.8786 10.707H15.1241C15.1241 11.1237 15.4619 11.4615 15.8786 11.4615V10.707ZM22.6143 10.707V11.4615C23.031 11.4615 23.3688 11.1237 23.3688 10.707H22.6143ZM22.6143 8.90357H23.3688C23.3688 8.48687 23.031 8.14906 22.6143 8.14906V8.90357ZM18.5155 8.90357L17.8336 8.58058C17.7229 8.81432 17.7396 9.08849 17.8779 9.30704C18.0162 9.5256 18.2569 9.65808 18.5155 9.65808V8.90357ZM19.1166 8.30242L18.7316 7.65358C18.7256 7.65713 18.7196 7.66077 18.7137 7.66449L19.1166 8.30242ZM20.7971 7.30505L20.4136 6.65532L20.4121 6.65621L20.7971 7.30505ZM16.0152 5.37863L15.3088 5.64355C15.4186 5.93629 15.6975 6.13101 16.0101 6.13312L16.0152 5.37863ZM18.7584 5.1704C18.7266 5.06677 18.7098 4.95041 18.7098 4.84579H17.2008C17.2008 5.09639 17.2387 5.36258 17.3162 5.61418L18.7584 5.1704ZM18.7098 4.84579C18.7098 4.60953 18.7753 4.47513 18.8318 4.41074C18.8754 4.36103 18.9673 4.28869 19.1986 4.28869V2.77967C18.5966 2.77967 18.0668 2.99424 17.6971 3.41589C17.3403 3.82286 17.2008 4.34426 17.2008 4.84579H18.7098ZM19.1986 4.28869C19.4348 4.28869 19.5306 4.35844 19.5636 4.39059C19.5994 4.42545 19.6328 4.48536 19.6328 4.5862H21.1418C21.1418 4.12687 20.977 3.66077 20.6166 3.30966C20.2534 2.95585 19.7549 2.77967 19.1986 2.77967V4.28869ZM19.6328 4.5862C19.6328 4.74826 19.5998 4.82732 19.5502 4.89647C19.4841 4.98878 19.3455 5.11929 19.0347 5.30212L19.7998 6.60279C20.1858 6.37575 20.5322 6.11687 20.7769 5.77539C21.0381 5.41076 21.1418 5.01162 21.1418 4.5862H19.6328ZM19.0363 5.30117L17.5881 6.14825L18.3499 7.45082L19.7982 6.60374L19.0363 5.30117ZM17.5905 6.14681C16.6625 6.68489 16.0279 7.36154 15.6358 8.16677C15.2491 8.96075 15.1241 9.8267 15.1241 10.707H16.6331C16.6331 9.96152 16.7404 9.34507 16.9925 8.82745C17.2391 8.32107 17.6496 7.8569 18.3475 7.45226L17.5905 6.14681ZM15.8786 11.4615H22.6143V9.95252H15.8786V11.4615ZM23.3688 10.707V8.90357H21.8598V10.707H23.3688ZM22.6143 8.14906H18.5155V9.65808H22.6143V8.14906ZM19.1974 9.22657C19.2262 9.16562 19.2935 9.08314 19.5196 8.94035L18.7137 7.66449C18.4207 7.8496 18.0507 8.12235 17.8336 8.58058L19.1974 9.22657ZM19.5017 8.95126L21.1822 7.95389L20.4121 6.65621L18.7316 7.65358L19.5017 8.95126ZM21.1807 7.95478C22.4932 7.17995 23.3005 6.01455 23.3005 4.54521H21.7914C21.7914 5.37118 21.3691 6.09121 20.4136 6.65532L21.1807 7.95478ZM23.3005 4.54521C23.3005 2.4937 21.6539 0.880573 19.2533 0.880573V2.38959C20.9241 2.38959 21.7914 3.427 21.7914 4.54521H23.3005ZM19.2533 0.880573C18.0136 0.880573 16.9861 1.29762 16.2654 2.00525C15.5487 2.70892 15.1788 3.6583 15.1788 4.64085H16.6878C16.6878 4.03853 16.9121 3.48504 17.3226 3.08203C17.729 2.683 18.3616 2.38959 19.2533 2.38959V0.880573ZM15.1788 4.64085C15.1788 4.81043 15.1912 4.99612 15.2091 5.15557C15.2237 5.28497 15.2511 5.48965 15.3088 5.64355L16.7217 5.1137C16.7362 5.1524 16.7354 5.1646 16.7275 5.12096C16.7217 5.08885 16.715 5.04309 16.7087 4.98687C16.6959 4.87307 16.6878 4.74452 16.6878 4.64085H15.1788ZM16.0101 6.13312L18.0322 6.14678L18.0424 4.6378L16.0203 4.62414L16.0101 6.13312Z" fill="#2C68BF" mask="url(#path-2-outside-1_601_9915)"/>
</svg>
