<svg width="42" height="30" viewBox="0 0 42 30" fill="none" xmlns="http://www.w3.org/2000/svg">
<path d="M37.8001 0H17.7372C16.8132 0 15.4882 0.505714 14.7931 1.125L0.521838 13.8707C0.358655 14.0078 0.227237 14.1801 0.137013 14.3751C0.0467904 14.5702 0 14.7832 0 14.9989C0 15.2146 0.0467904 15.4276 0.137013 15.6227C0.227237 15.8178 0.358655 15.99 0.521838 16.1271L14.7931 28.8707C15.4882 29.49 16.8132 30 17.7372 30H37.8001C40.11 30 42 28.0714 42 25.7143V4.28571C42 1.92857 40.11 0 37.8001 0ZM31.9014 23.5714L26.5318 18.0921L21.1643 23.5714L18.1341 20.4793L23.5016 15L18.1341 9.52071L21.1643 6.42857L26.5339 11.9036L31.8993 6.42857L34.9316 9.52071L29.5641 15L34.9337 20.475L31.9014 23.5714Z" fill="#3C8AFF"/>
</svg>
