<svg width="16" height="18" viewBox="0 0 16 18" fill="none" xmlns="http://www.w3.org/2000/svg">
<path d="M8.98052 0.551544C8.3717 0.209079 7.6283 0.209079 7.01948 0.551544L0.361837 4.29647C0.138322 4.42219 0 4.6587 0 4.91515C0 5.30719 0.31781 5.625 0.709848 5.625H15.2902C15.6822 5.625 16 5.30719 16 4.91515C16 4.6587 15.8617 4.42219 15.6382 4.29647L8.98052 0.551544ZM3.43686 6.75C2.79577 6.75 2.27092 7.25984 2.25232 7.90066L2.09829 13.2074C2.07576 13.9836 2.69884 14.625 3.47536 14.625C4.25972 14.625 4.88582 13.9711 4.8517 13.1874L4.62078 7.8835C4.59318 7.24966 4.07129 6.75 3.43686 6.75ZM8.00829 6.75C7.3672 6.75 6.84235 7.25984 6.82375 7.90066L6.66972 13.2074C6.64719 13.9836 7.27027 14.625 8.04678 14.625C8.83115 14.625 9.45724 13.9711 9.42313 13.1874L9.19221 7.8835C9.16461 7.24966 8.64272 6.75 8.00829 6.75ZM12.5797 6.75C11.9386 6.75 11.4138 7.25984 11.3952 7.90066L11.2411 13.2074C11.2186 13.9836 11.8417 14.625 12.6182 14.625C13.4026 14.625 14.0287 13.9711 13.9946 13.1874L13.7636 7.8835C13.736 7.24966 13.2142 6.75 12.5797 6.75ZM0 16.875C0 17.4963 0.50368 18 1.125 18H14.875C15.4963 18 16 17.4963 16 16.875C16 16.2537 15.4963 15.75 14.875 15.75H1.125C0.50368 15.75 0 16.2537 0 16.875Z" fill="#3C8AFF"/>
</svg>
