<svg width="55" height="27" viewBox="0 0 55 27" fill="none" xmlns="http://www.w3.org/2000/svg">
<path opacity="0.35" d="M1.01629 5.42023C1.01629 2.988 2.988 1.01629 5.42023 1.01629H45.3944C47.8267 1.01629 49.7984 2.988 49.7984 5.42023V21.0034C49.7984 23.4356 47.8267 25.4073 45.3944 25.4073H5.42023C2.988 25.4073 1.01629 23.4356 1.01629 21.0034V5.42023Z" stroke="#090A0A" stroke-width="2.03259"/>
<path opacity="0.4" d="M52.1367 9.16309V17.2934C53.7724 16.6048 54.8361 15.003 54.8361 13.2283C54.8361 11.4535 53.7724 9.85168 52.1367 9.16309Z" fill="#090A0A"/>
<path d="M4 6.71012C4 5.21336 5.21336 4 6.71012 4H33.2899C34.7866 4 36 5.21336 36 6.71012V19.2899C36 20.7866 34.7866 22 33.2899 22H6.71012C5.21336 22 4 20.7866 4 19.2899V6.71012Z" fill="#01D50A"/>
</svg>
