<svg width="152" height="151" viewBox="0 0 152 151" fill="none" xmlns="http://www.w3.org/2000/svg">
<ellipse cx="97.3309" cy="74.8696" rx="63.3704" ry="63.9979" transform="rotate(-7.6552 97.3309 74.8696)" fill="#E2EDFF"/>
<path d="M31.5979 134.407L40.465 128.458C40.9397 125.326 41.4209 122.185 41.9468 118.745L54.021 122.41L56.2097 109.685L68.2671 113.225L70.3174 100.447C73.8107 101.563 76.795 102.684 79.8433 103.305C81.5063 103.645 83.2282 103.413 84.7426 102.647C88.6173 100.397 92.2559 97.7123 96.0846 95.1205C96.8321 96.2014 97.2948 96.8289 97.7151 97.486C100.228 101.421 100.373 101.465 104.28 98.9345C108.442 96.2423 112.615 93.5647 116.712 90.7862C118.452 89.601 119.899 89.5651 121.943 90.4161C137.552 96.825 152.182 95.3263 164.874 83.7102C176.891 72.7003 180.905 58.6195 176.769 42.6691C172.633 26.7186 162.185 16.7699 146.626 13.0894C122.097 7.29277 98.8497 26.1944 98.3653 52.0021C98.3197 54.133 97.7262 55.3465 95.9748 56.3906C92.4016 58.5278 88.9249 60.8662 85.4235 63.1365C79.5417 66.9397 79.5493 66.9387 82.464 73.5158C81.2982 74.3781 80.3698 75.1688 79.3165 75.8336C65.6959 84.6173 29.3498 107.571 17.4177 115.073L15.076 131.141L31.5979 134.407ZM167.296 45.6072C166.549 48.8631 164.875 51.8115 162.487 54.0791C160.098 56.3467 157.103 57.8313 153.879 58.3451C150.656 58.8588 147.349 58.3785 144.379 56.965C141.408 55.5515 138.908 53.2683 137.193 50.4048C135.479 47.5412 134.628 44.2259 134.748 40.879C134.868 37.532 135.954 34.3039 137.868 31.6034C139.783 28.903 142.439 26.8517 145.501 25.7094C148.564 24.567 151.894 24.3851 155.07 25.1865C157.181 25.7043 159.175 26.6456 160.935 27.9561C162.695 29.2665 164.187 30.9202 165.324 32.8213C166.461 34.7224 167.221 36.8334 167.56 39.032C167.899 41.2307 167.811 43.4734 167.299 45.6305L167.296 45.6072Z" fill="#2E2E42"/>
<path opacity="0.3" d="M85.6568 84.4625L24.0019 122.472C23.5054 122.777 22.9097 122.867 22.3456 122.721C21.7816 122.576 21.2956 122.206 20.9944 121.695C20.6932 121.184 20.6017 120.572 20.7398 119.994C20.8779 119.417 21.2344 118.92 21.7308 118.615L83.3792 80.6144C83.6242 80.4619 83.8966 80.3609 84.1806 80.3171C84.4645 80.2733 84.7545 80.2875 85.0339 80.359C85.3133 80.4305 85.5765 80.5578 85.8085 80.7336C86.0405 80.9095 86.2366 81.1304 86.3857 81.3836C86.536 81.6361 86.6363 81.9162 86.681 82.2078C86.7257 82.4994 86.7139 82.7969 86.6462 83.083C86.5784 83.3691 86.4561 83.6382 86.2864 83.875C86.1166 84.1118 85.9026 84.3114 85.6568 84.4625Z" fill="black"/>
<path d="M89.2838 84.2136C89.2838 84.2136 89.2294 84.2684 89.1099 84.3558L88.5646 84.7225L86.4349 86.1107L78.6158 91.1258C72.0282 95.3648 62.9246 101.163 52.8318 107.586C42.7389 114.008 33.5427 119.692 26.8295 123.686C23.482 125.722 20.7471 127.318 18.8559 128.413L16.7063 129.653L16.132 129.976L15.9356 130.066C15.9356 130.066 15.9911 130.019 16.1116 129.939L16.6665 129.587L18.8057 128.269L26.7192 123.439C33.3915 119.371 42.5545 113.613 52.6578 107.268L78.501 90.9033L86.3326 85.9818L88.4728 84.6714L89.0374 84.3339L89.2838 84.2136Z" fill="#263238"/>
<path d="M98.4861 98.0396C98.3937 98.0996 94.5746 92.318 89.9477 85.1227C85.3208 77.9275 81.658 72.0456 81.7386 71.9555C81.8191 71.8654 85.6566 77.6683 90.2769 84.8724C94.8973 92.0764 98.5847 98.0264 98.4861 98.0396Z" fill="#263238"/>
<path d="M175.619 48.1744C175.619 48.1744 175.591 47.9642 175.491 47.5653C175.391 47.1665 175.293 46.5533 175.135 45.7817C175.082 45.382 174.999 44.9411 174.888 44.4592C174.77 43.9836 174.6 43.4673 174.444 42.9334C174.287 42.3994 174.102 41.7663 173.915 41.1255C173.696 40.4434 173.441 39.7737 173.151 39.1192C171.817 35.6843 169.983 32.4742 167.71 29.5995C164.735 25.7631 161.067 22.5488 156.91 20.1341L155.162 19.1323C154.549 18.8262 153.912 18.563 153.286 18.2745C152.661 17.9859 152.021 17.6517 151.345 17.4492L149.307 16.7638L148.273 16.4193L147.205 16.1743L145 15.6779C144.262 15.5313 143.506 15.4744 142.75 15.3698C141.991 15.2489 141.226 15.177 140.459 15.1545C138.884 15.0652 137.306 15.0892 135.736 15.2264C134.939 15.3335 134.128 15.3315 133.326 15.4473L130.909 15.9069C130.499 15.962 130.09 16.017 129.691 16.1499L128.488 16.5098C127.688 16.76 126.875 16.9724 126.071 17.2548C124.46 17.8603 122.89 18.5746 121.371 19.3929L120.212 20.0165C120.017 20.1219 119.822 20.2195 119.636 20.3317L119.084 20.6993L116.869 22.2021C116.168 22.7323 115.478 23.3404 114.782 23.9096C114.435 24.202 114.085 24.471 113.743 24.7945L112.778 25.7725C111.46 27.0848 110.229 28.487 109.096 29.9699L107.515 32.3389L107.116 32.9316L106.767 33.5572L106.081 34.8307L105.368 36.0683L104.776 37.4084L104.186 38.7641L103.898 39.437C103.813 39.6704 103.745 39.9095 103.668 40.1418L102.782 42.9723C102.573 43.9438 102.364 44.9154 102.157 45.9025C100.669 53.9655 101.792 62.325 105.357 69.7087C105.816 70.5983 106.276 71.488 106.726 72.3709C107.177 73.2537 107.799 74.0343 108.335 74.866L108.735 75.4861L109.191 76.0591L110.118 77.211L111.043 78.3472L112.048 79.3934L113.046 80.4406L113.539 80.953L114.082 81.4271C114.805 82.0434 115.522 82.6685 116.239 83.2857C117.721 84.4169 119.275 85.4449 120.891 86.3629L122.087 87.0503C122.482 87.2828 122.912 87.439 123.33 87.6762C124.151 88.0415 124.976 88.438 125.793 88.7721L128.325 89.629L128.955 89.8376L129.595 89.9974L130.877 90.2928C132.558 90.6786 134.261 90.9503 135.975 91.1061C136.825 91.1741 137.672 91.1554 138.502 91.1865L139.757 91.2161C140.174 91.2155 140.584 91.1605 140.996 91.1288L143.449 90.934C144.252 90.8259 145.039 90.6488 145.833 90.5184C147.382 90.2328 148.911 89.8393 150.407 89.3406C151.14 89.1101 151.858 88.8361 152.559 88.5202C153.29 88.2158 153.975 87.9652 154.649 87.6368L156.614 86.5798L157.587 86.0606L158.494 85.4551L160.271 84.2569C160.868 83.8754 161.38 83.3784 161.926 82.9563C162.471 82.5341 162.998 82.0828 163.508 81.6336L164.937 80.1969C168.326 76.7732 171.032 72.7051 172.908 68.2164C174.328 64.8254 175.232 61.2282 175.59 57.5494C175.696 56.8443 175.765 56.1336 175.798 55.4205C175.807 54.7453 175.816 54.1179 175.829 53.5294C175.843 52.9409 175.864 52.4069 175.855 51.9403C175.846 51.4737 175.776 51.0075 175.745 50.6072C175.694 49.8214 175.643 49.2099 175.617 48.7931C175.592 48.3762 175.58 48.1717 175.58 48.1717C175.58 48.1717 175.607 48.3742 175.663 48.7869C175.718 49.1997 175.762 49.8122 175.836 50.595C175.891 51 175.913 51.4489 175.962 51.9338C176.012 52.4186 175.955 52.9733 175.952 53.5208C175.948 54.0684 175.945 54.7347 175.935 55.4099C175.912 56.1269 175.851 56.8417 175.752 57.5514C175.392 61.2297 174.487 64.8264 173.071 68.2183C171.222 72.7583 168.53 76.8814 165.144 80.3594L163.709 81.8049C163.199 82.2619 162.655 82.6918 162.121 83.1441C161.587 83.5964 161.058 84.0798 160.46 84.4614L158.663 85.6781L157.748 86.2847L156.777 86.8117L154.796 87.8707C154.117 88.2158 153.402 88.4704 152.693 88.7717C151.977 89.0975 151.241 89.3765 150.489 89.6071C148.979 90.113 147.436 90.5137 145.871 90.8066C145.113 90.9085 144.287 91.1384 143.473 91.2319L140.999 91.4376C140.582 91.4937 140.173 91.5487 139.745 91.5269L138.483 91.4984C137.637 91.4693 136.783 91.489 135.932 91.421C134.2 91.2661 132.479 90.9942 130.781 90.6071L129.482 90.306C129.266 90.2556 129.045 90.2141 128.836 90.1549L128.197 89.9395L125.641 89.0779C124.824 88.7438 123.998 88.3395 123.138 87.9715C122.718 87.7743 122.318 87.614 121.886 87.3867L120.68 86.6924C119.044 85.7665 117.47 84.7278 115.97 83.5835L113.796 81.7114L113.246 81.2382L112.742 80.7113L111.736 79.6573L110.722 78.6044L109.795 77.4526L108.866 76.2852L108.402 75.7053L107.993 75.0784L106.373 72.561C105.914 71.6713 105.446 70.7749 104.985 69.8697C101.377 62.4076 100.241 53.9564 101.75 45.8065C101.965 44.8184 102.172 43.8313 102.38 42.8519C102.588 41.8726 102.98 40.9399 103.285 39.9872C103.361 39.7549 103.43 39.5158 103.514 39.2825L103.8 38.594L104.389 37.2305L104.979 35.8748L105.679 34.5915L106.371 33.3092L106.725 32.667L107.123 32.0665C107.665 31.2722 108.198 30.4711 108.725 29.6867C109.875 28.1904 111.118 26.7733 112.448 25.4442L113.427 24.4564C113.754 24.1271 114.12 23.8639 114.475 23.5227C115.17 22.9458 115.86 22.3376 116.598 21.7945L118.835 20.2887L119.395 19.9123C119.58 19.8001 119.783 19.7015 119.978 19.5961L121.152 18.9704C122.685 18.1464 124.27 17.4275 125.897 16.8184C126.708 16.535 127.536 16.3206 128.344 16.0693L129.555 15.7162C129.957 15.6067 130.375 15.5506 130.788 15.4634L133.22 15.0096C134.032 14.9005 134.853 14.8615 135.653 14.7856C137.24 14.6554 138.834 14.6345 140.424 14.7231C141.21 14.751 141.993 14.8257 142.771 14.9469C143.557 15.0552 144.291 15.1151 145.036 15.2607L147.227 15.7591L148.303 16.0109L149.345 16.3544L151.4 17.0534C152.078 17.2714 152.703 17.6155 153.351 17.8932C153.998 18.1709 154.622 18.4516 155.235 18.7578L157.002 19.7809C161.176 22.2271 164.854 25.478 167.831 29.3533C170.098 32.2483 171.923 35.4787 173.242 38.9326C173.523 39.5916 173.771 40.2648 173.984 40.9497C174.172 41.5984 174.339 42.2101 174.5 42.7752C174.661 43.3403 174.822 43.8498 174.929 44.3031C175.036 44.7565 175.093 45.2325 175.161 45.6276C175.266 46.4064 175.4 47.0067 175.472 47.4252C175.544 47.8436 175.619 48.1744 175.619 48.1744Z" fill="#263238"/>
<path d="M169.233 39.2193C169.196 39.1231 169.169 39.0229 169.154 38.9207L168.973 38.0332C168.948 37.8412 168.903 37.6252 168.84 37.3852C168.808 37.1438 168.697 36.897 168.614 36.6228C168.445 35.9807 168.229 35.3525 167.968 34.7435C167.303 33.0465 166.392 31.4609 165.266 30.0405C162.295 26.2757 158.045 23.8046 153.381 23.1308C148.717 22.457 143.99 23.6311 140.164 26.4139C139.447 26.9516 138.771 27.5434 138.14 28.1844C137.49 28.831 136.884 29.5216 136.325 30.2518C135.776 31.0135 135.28 31.814 134.841 32.6474C133.919 34.354 133.276 36.2051 132.937 38.128C132.205 42.1055 132.759 46.2282 134.515 49.8714C135.35 51.6322 136.456 53.2451 137.79 54.648C138.439 55.3359 139.132 55.9791 139.863 56.5733C140.595 57.13 141.362 57.6361 142.159 58.0882C142.938 58.5369 143.747 58.929 144.579 59.2613C145.397 59.5734 146.236 59.8237 147.089 60.0102C150.289 60.7396 153.616 60.5799 156.724 59.5475C159.193 58.7199 161.459 57.3641 163.374 55.5695C165.288 53.7749 166.808 51.5821 167.833 49.1353C168.544 47.4681 169.003 45.6982 169.196 43.8859C169.288 43.2295 169.33 42.5665 169.324 41.9027C169.33 41.6084 169.349 41.3443 169.34 41.1076L169.298 40.4474L169.238 39.5437C169.225 39.4411 169.225 39.3375 169.235 39.2348C169.259 39.3345 169.273 39.4362 169.276 39.5386C169.306 39.7644 169.346 40.0603 169.396 40.4341C169.424 40.6366 169.453 40.8546 169.485 41.096C169.518 41.3375 169.493 41.6104 169.492 41.888C169.51 42.5574 169.479 43.2269 169.398 43.8906C169.231 45.7257 168.787 47.521 168.083 49.2127C167.061 51.7056 165.534 53.9439 163.602 55.7794C161.669 57.615 159.376 59.0059 156.874 59.8603C153.711 60.9302 150.321 61.1122 147.055 60.3874C146.187 60.1948 145.332 59.9414 144.497 59.6291C143.645 59.2945 142.818 58.897 142.021 58.4397C141.207 57.9767 140.423 57.4597 139.674 56.892C138.927 56.2913 138.221 55.6393 137.559 54.9406C136.182 53.5014 135.039 51.8453 134.174 50.0362C132.377 46.3142 131.811 42.1001 132.561 38.0357C132.914 36.0764 133.57 34.1897 134.505 32.4468C134.96 31.5971 135.469 30.7792 136.029 29.9983C136.602 29.2556 137.222 28.5525 137.885 27.8937C138.532 27.2423 139.225 26.6404 139.959 26.0927C140.682 25.571 141.439 25.101 142.225 24.6861C145.184 23.1245 148.502 22.4048 151.836 22.6015C154.47 22.761 157.046 23.4933 159.392 24.75C161.737 26.0067 163.798 27.7589 165.439 29.8904C166.565 31.3361 167.467 32.9506 168.113 34.6764C168.367 35.2951 168.574 35.9325 168.732 36.5831C168.771 36.8713 168.89 37.1248 168.935 37.3486C168.981 37.5724 168.997 37.8081 169.024 38.0105C169.075 38.3843 169.114 38.6803 169.145 38.9061C169.185 39.007 169.215 39.112 169.233 39.2193Z" fill="#263238"/>
<path opacity="0.2" d="M116.452 18.5951L126.32 92.015C129.787 93.1712 133.379 93.879 137.011 94.1219L125.484 14.1067C122.286 15.1743 119.247 16.6843 116.452 18.5951Z" fill="white"/>
<path d="M120.769 90.0185C120.655 90.0337 118.545 74.9685 116.045 56.3721C113.546 37.7757 111.603 22.688 111.717 22.6727C111.83 22.6574 113.94 37.7227 116.44 56.3191C118.939 74.9155 120.875 90.0042 120.769 90.0185Z" fill="white"/>
<path d="M104.963 31.6273C104.846 31.9754 104.697 32.3113 104.518 32.6304C104.201 33.2597 103.771 34.1897 103.287 35.3568C102.712 36.7171 102.209 38.108 101.777 39.5237C101.252 41.2558 100.824 43.0181 100.495 44.8018C100.189 46.5917 99.9812 48.3983 99.871 50.2133C99.795 51.8884 99.7891 53.3956 99.8515 54.6636C99.9138 55.9317 99.9827 56.961 100.063 57.6717C100.123 58.0353 100.147 58.4041 100.133 58.7721C100.028 58.4168 99.9531 58.0527 99.91 57.6843C99.8158 56.9834 99.6777 55.9555 99.5677 54.678C99.4674 53.1841 99.4465 51.6862 99.5051 50.1911C99.6647 46.5199 100.309 42.8914 101.422 39.405C101.881 37.9829 102.416 36.5879 103.022 35.2258C103.553 34.0682 104.018 33.1575 104.376 32.5465C104.544 32.2222 104.74 31.9145 104.963 31.6273Z" fill="white"/>
<path d="M97.255 58.6847C95.245 60.2729 93.1554 61.7525 90.9945 63.1176C88.9056 64.5994 86.7416 65.9673 84.5115 67.2158C86.5195 65.6229 88.6089 64.1406 90.7709 62.7751C92.8614 61.2975 95.0256 59.9322 97.255 58.6847Z" fill="white"/>
<path d="M79.8538 77.8C79.8538 77.8 79.8136 77.845 79.7158 77.9216L79.2932 78.2242L77.6258 79.3759C76.1758 80.3636 74.0892 81.7857 71.4425 83.5209C66.2108 86.991 58.9236 91.7126 50.8357 96.7954C42.7478 101.878 35.2896 106.361 29.8816 109.554C27.1782 111.154 24.9873 112.431 23.437 113.306L21.6784 114.295L21.2181 114.547L21.0576 114.617C21.0576 114.617 21.0978 114.572 21.1977 114.511L21.6376 114.222L23.3682 113.196L29.7213 109.337C35.0906 106.087 42.4894 101.564 50.6087 96.485C58.728 91.4059 66.0269 86.7145 71.306 83.3094L77.5536 79.2984L79.2608 78.2127L79.7103 77.9382L79.8538 77.8Z" fill="white"/>
<path d="M148.729 21.1011C148.74 21.179 147.391 21.0828 145.293 21.4441C142.557 21.9064 139.967 23.0123 137.725 24.6752C135.482 26.3382 133.649 28.5132 132.367 31.0303C131.375 32.9553 131.053 34.291 130.98 34.2612C131.009 33.9426 131.079 33.6295 131.186 33.3296C131.427 32.4921 131.739 31.6782 132.118 30.8973C133.361 28.2973 135.208 26.0538 137.498 24.3626C139.787 22.6714 142.45 21.5842 145.252 21.1959C146.097 21.0752 146.95 21.0242 147.803 21.0433C148.113 21.0233 148.424 21.0427 148.729 21.1011Z" fill="white"/>
<path d="M154.006 16.284C153.664 16.2151 153.329 16.1113 153.006 15.9743C152.381 15.7413 151.461 15.4448 150.311 15.1077C149.162 14.7707 147.784 14.4564 146.24 14.1724C144.557 13.8942 142.86 13.7173 141.158 13.6425C139.456 13.5851 137.753 13.634 136.058 13.7888C134.676 13.9255 133.303 14.1366 131.943 14.4212C130.779 14.6648 129.837 14.8945 129.198 15.0756C128.871 15.1934 128.532 15.2735 128.187 15.3145C128.496 15.1512 128.82 15.02 129.154 14.9229C129.787 14.6951 130.715 14.4197 131.874 14.1371C133.241 13.8106 134.627 13.5688 136.023 13.4129C137.733 13.241 139.453 13.1794 141.172 13.2283C142.89 13.3067 144.602 13.4976 146.298 13.7999C147.681 14.0596 149.048 14.4054 150.39 14.8355C151.536 15.2047 152.448 15.55 153.063 15.8239C153.391 15.946 153.706 16.1001 154.006 16.284Z" fill="white"/>
</svg>
