<svg width="193" height="171" viewBox="0 0 193 171" fill="none" xmlns="http://www.w3.org/2000/svg">
<path d="M121.079 54.9102C121.079 54.9102 129.84 56.3875 130.546 56.5776C131.252 56.7677 134.027 58.0821 134.169 58.9294C134.242 60.0417 134.242 61.1575 134.169 62.2697C134.169 62.2697 133.664 62.6771 133.354 61.8624C133.146 61.0706 133.057 60.2525 133.088 59.4345L131.534 58.8371L132.382 60.3416L132.523 63.8666C132.523 63.8666 131.437 63.7688 131.225 62.927C131.092 62.3405 131.022 61.7414 131.018 61.14L129.889 60.1841L130.736 61.3301L131.018 63.8666C131.018 63.8666 130.193 64.1382 129.932 63.5733C129.741 62.8409 129.646 62.0869 129.65 61.3301L126.456 60.2112L124.343 61.3899L120.395 59.1847L121.079 54.9102Z" fill="#FFBE9D"/>
<path d="M90.4009 33.2559C90.4444 33.4297 100.96 47.9207 100.96 47.9207L122.088 54.4928L121.127 62.4281L95.2349 57.2139L86.0449 46.6661L90.4009 33.2559Z" fill="#3C8AFF"/>
<g opacity="0.2">
<path d="M90.4009 33.2559C90.4444 33.4297 100.96 47.9207 100.96 47.9207L122.088 54.4928L121.127 62.4281L95.2349 57.2139L86.0449 46.6661L90.4009 33.2559Z" fill="black"/>
</g>
<path d="M53.5971 53.1816H10.4281C9.51316 53.1816 8.77148 53.9233 8.77148 54.8382V59.9384C8.77148 60.8533 9.51316 61.5949 10.4281 61.5949H53.5971C54.512 61.5949 55.2537 60.8533 55.2537 59.9384V54.8382C55.2537 53.9233 54.512 53.1816 53.5971 53.1816Z" fill="#F5F5F5"/>
<path d="M53.6025 61.5956C53.6025 61.5956 53.6948 61.5956 53.874 61.5576C54.2193 61.4941 54.5349 61.3207 54.7737 61.0633C55.0125 60.8059 55.1618 60.4782 55.1993 60.1291C55.1993 59.6186 55.1993 59.0102 55.1993 58.3367C55.1993 57.6632 55.1993 56.9083 55.1993 56.0881C55.1993 55.6753 55.1993 55.2463 55.1993 54.8009C55.1921 54.5805 55.1403 54.3638 55.0469 54.164C54.9536 53.9642 54.8206 53.7854 54.6562 53.6385C54.4778 53.4877 54.2682 53.3782 54.0424 53.3181C53.8018 53.2657 53.5547 53.2492 53.3092 53.2692H51.7232H48.2742L10.466 53.3127C10.2545 53.3124 10.0453 53.3561 9.85171 53.4412C9.65813 53.5264 9.48441 53.6509 9.34167 53.8069C9.2006 53.9648 9.09318 54.1498 9.02594 54.3506C8.95871 54.5513 8.93307 54.7637 8.95061 54.9747C8.95061 55.8872 8.95061 56.7942 8.95061 57.6904V59.7272C8.94024 59.9351 8.95852 60.1435 9.00492 60.3464C9.08604 60.64 9.25287 60.9028 9.4841 61.1011C9.71534 61.2995 10.0005 61.4244 10.303 61.4598C10.4931 61.4598 10.7267 61.4598 10.944 61.4598H20.9812L37.9762 61.4924L49.4365 61.5359L52.5542 61.563H53.3635H53.6405H53.3635H52.5542L49.4365 61.5902L37.9762 61.6336L20.9812 61.6662H10.9059C10.6832 61.6662 10.4768 61.6662 10.2324 61.6662C9.99606 61.6378 9.76737 61.564 9.55893 61.449C9.35119 61.3336 9.1684 61.1782 9.0211 60.9917C8.8738 60.8053 8.76492 60.5915 8.70077 60.3627C8.64225 60.1359 8.62026 59.9012 8.63559 59.6675V57.6524C8.63559 56.7562 8.63559 55.8491 8.63559 54.9367C8.62108 54.6904 8.65536 54.4436 8.73645 54.2106C8.81754 53.9776 8.94385 53.7629 9.10812 53.5788C9.2762 53.3929 9.48159 53.2446 9.71089 53.1435C9.94019 53.0425 10.1882 52.9909 10.4388 52.9922L48.2471 53.0357H53.282C53.5426 53.0249 53.8035 53.0468 54.0587 53.1008C54.3073 53.1683 54.5374 53.2908 54.7322 53.4593C54.9159 53.6185 55.0643 53.8142 55.1681 54.034C55.2719 54.2537 55.3288 54.4927 55.3351 54.7357C55.3351 55.1811 55.3351 55.6156 55.3351 56.0284C55.3351 56.8485 55.3351 57.5981 55.3351 58.277C55.3351 58.9559 55.3351 59.548 55.3079 60.0802C55.2478 60.5307 55.0115 60.9389 54.6507 61.2154C54.431 61.3801 54.1731 61.4866 53.9012 61.525C53.806 61.5643 53.7052 61.5881 53.6025 61.5956Z" fill="#263238"/>
<path d="M170.817 169.102C183.068 168.514 192.523 158.105 191.935 145.853C191.346 133.602 180.937 124.147 168.686 124.735C156.434 125.324 146.979 135.733 147.568 147.984C148.156 160.236 158.565 169.691 170.817 169.102Z" fill="#263238"/>
<path d="M147.552 146.545C147.552 146.545 147.552 146.583 147.552 146.605C147.502 152.472 149.776 158.119 153.877 162.315C157.978 166.511 163.573 168.913 169.439 168.998C175.306 169.083 180.967 166.843 185.188 162.767C189.408 158.691 191.844 153.111 191.964 147.246C191.964 147.246 191.964 147.208 191.964 147.186L147.552 146.545Z" fill="#263238"/>
<path d="M154.162 146.695C154.117 149.779 154.988 152.807 156.664 155.396C158.34 157.985 160.746 160.019 163.578 161.24C166.41 162.462 169.541 162.816 172.574 162.258C175.608 161.7 178.407 160.256 180.62 158.106C182.832 155.957 184.357 153.2 185.002 150.184C185.648 147.168 185.384 144.029 184.245 141.163C183.106 138.297 181.143 135.833 178.603 134.082C176.064 132.332 173.062 131.374 169.978 131.33C165.843 131.27 161.854 132.856 158.888 135.737C155.922 138.619 154.222 142.56 154.162 146.695Z" fill="#FAFAFA"/>
<path d="M169.977 131.33C165.842 131.27 161.852 132.856 158.886 135.737C155.92 138.619 154.22 142.56 154.16 146.695L185.342 147.146C185.402 143.011 183.816 139.022 180.935 136.056C178.053 133.09 174.111 131.39 169.977 131.33Z" fill="#E0E0E0"/>
<path d="M160.255 146.783C160.227 148.662 160.757 150.507 161.778 152.084C162.799 153.662 164.265 154.901 165.99 155.646C167.715 156.39 169.622 156.606 171.47 156.267C173.318 155.927 175.024 155.047 176.372 153.738C177.72 152.429 178.649 150.749 179.043 148.912C179.436 147.075 179.276 145.162 178.582 143.416C177.888 141.669 176.692 140.168 175.145 139.102C173.598 138.036 171.769 137.452 169.89 137.425C167.372 137.389 164.942 138.354 163.135 140.109C161.328 141.864 160.292 144.265 160.255 146.783Z" fill="#263238"/>
<path d="M159.211 114.356C159.211 114.356 181.947 107.48 191.349 132.182L143.77 146.923L159.211 114.356Z" fill="#3C8AFF"/>
<path d="M33.7932 169.104C46.0449 168.516 55.4997 158.107 54.9112 145.855C54.3227 133.604 43.9137 124.149 31.6621 124.737C19.4104 125.326 9.95558 135.735 10.5441 147.986C11.1326 160.238 21.5416 169.693 33.7932 169.104Z" fill="#263238"/>
<path d="M10.5223 146.545C10.5223 146.545 10.5223 146.583 10.5223 146.605C10.473 152.472 12.7472 158.119 16.8482 162.315C20.9491 166.511 26.5437 168.913 32.4102 168.998C38.2766 169.083 43.9382 166.843 48.1585 162.767C52.3789 158.691 54.8151 153.111 54.9351 147.246V147.175L10.5223 146.545Z" fill="#263238"/>
<path d="M17.152 146.695C17.1072 149.779 17.9779 152.807 19.6541 155.396C21.3302 157.985 23.7364 160.019 26.5685 161.24C29.4005 162.462 32.5312 162.816 35.5645 162.258C38.5979 161.7 41.3977 160.256 43.6099 158.106C45.822 155.957 47.3472 153.2 47.9926 150.184C48.6379 147.168 48.3743 144.029 47.2353 141.163C46.0962 138.297 44.1328 135.833 41.5933 134.082C39.0538 132.332 36.0523 131.374 32.9684 131.33C28.8335 131.27 24.8443 132.856 21.8782 135.737C18.9121 138.619 17.2121 142.56 17.152 146.695Z" fill="#FAFAFA"/>
<path d="M32.945 131.329C28.8139 131.276 24.8302 132.864 21.8689 135.745C18.9075 138.626 17.2105 142.564 17.1504 146.695L48.3323 147.146C48.3617 145.097 47.9869 143.062 47.2294 141.157C46.4718 139.253 45.3463 137.517 43.9172 136.048C42.4881 134.579 40.7835 133.406 38.9008 132.597C37.0181 131.787 34.9942 131.356 32.945 131.329Z" fill="#E0E0E0"/>
<path d="M23.2237 146.783C23.196 148.662 23.726 150.507 24.7468 152.084C25.7676 153.662 27.2333 154.901 28.9585 155.646C30.6837 156.39 32.591 156.606 34.439 156.267C36.2871 155.927 37.9929 155.047 39.3408 153.738C40.6887 152.429 41.618 150.749 42.0114 148.912C42.4047 147.075 42.2443 145.162 41.5505 143.416C40.8567 141.669 39.6606 140.168 38.1135 139.102C36.5664 138.036 34.7379 137.452 32.8591 137.425C30.3405 137.389 27.9106 138.354 26.1037 140.109C24.2968 141.864 23.2609 144.265 23.2237 146.783Z" fill="#263238"/>
<path d="M64.3147 138.006C64.1897 138.071 52.6262 136.219 52.6262 136.219C52.001 137.035 51.2051 137.705 50.2942 138.181C49.3833 138.658 48.3792 138.93 47.3523 138.978C42.3554 139.217 37.4725 139.44 33.2306 139.63C31.3353 139.714 29.5508 140.547 28.2681 141.945C26.9853 143.342 26.3089 145.192 26.3869 147.087C26.4632 148.886 27.2132 150.591 28.488 151.863C29.7628 153.134 31.4693 153.88 33.2686 153.952L57.8893 154.925C61.9357 155.082 67.3128 152.627 69.8384 149.461L64.3147 138.006Z" fill="#455A64"/>
<path d="M3.88819 128.164C3.88819 128.164 2.8345 106.52 23.1752 102.012V99.2366H94.4248V105.896C94.4248 105.896 83.9693 118.491 87.364 128.947C90.7586 139.402 91.8449 140.472 91.8449 140.472H132.396C135.596 135.975 137.38 130.624 137.518 125.107C137.735 115.927 133.922 100.236 131.071 90.2041C128.496 81.0522 126.867 73.4264 126.867 73.4264L139.033 69.3691C139.033 69.3691 161.547 98.8347 162.464 100.464C163.382 102.094 166.511 105.982 165.778 114.445C165.044 122.907 144.791 149.01 139.479 151.954C134.167 154.898 129.365 155.083 124.58 155.816C120.431 156.457 89.7321 156.033 81.699 155.908C78.9074 155.891 76.1707 155.132 73.7691 153.709C71.3684 152.253 69.5651 149.841 67.5718 145.887L63.319 137.61L3.88819 128.164Z" fill="#3C8AFF"/>
<path d="M9.34199 126.676L0.369265 140.732C0.102922 141.122 -0.0293119 141.588 -0.00742783 142.059C0.0144562 142.531 0.189256 142.982 0.490548 143.345C0.79184 143.709 1.20324 143.964 1.66251 144.073C2.12178 144.181 2.60395 144.137 3.0361 143.948C4.15269 143.449 5.17298 142.757 6.05054 141.906C10.1513 138 17.4566 127.713 17.4566 127.713L9.34199 126.676Z" fill="#455A64"/>
<path d="M73.6993 129.207C73.6993 129.207 73.6993 129.136 73.7536 129L73.9329 128.408C74.1488 127.648 74.3068 126.873 74.4054 126.089C74.7061 123.188 74.226 120.259 73.015 117.605C72.2005 115.774 71.0822 114.094 69.7072 112.635C68.1282 110.97 66.295 109.566 64.2758 108.475C62.0381 107.267 59.6435 106.375 57.1606 105.824C54.4838 105.247 51.7518 104.965 49.0135 104.982C46.2874 105.002 43.5656 105.204 40.8663 105.585C38.2375 105.938 35.7173 106.373 33.3383 106.916C29.1148 107.813 25.044 109.319 21.2534 111.386C18.7078 112.799 16.3822 114.575 14.35 116.66C13.6331 117.399 13.1171 118.013 12.7749 118.431L12.3893 118.914C12.3481 118.972 12.3007 119.024 12.248 119.072C12.8473 118.185 13.5234 117.352 14.2685 116.584C16.2833 114.46 18.6047 112.649 21.1556 111.212C24.9529 109.108 29.0396 107.574 33.284 106.661C35.663 106.118 38.1723 105.667 40.8283 105.308C43.5491 104.923 46.2927 104.72 49.0406 104.7C51.7939 104.682 54.5408 104.968 57.2312 105.553C59.7387 106.122 62.1551 107.036 64.4116 108.269C66.459 109.375 68.3165 110.801 69.9136 112.494C71.2985 113.977 72.4207 115.686 73.2322 117.545C74.4384 120.234 74.8927 123.2 74.5466 126.127C74.4325 126.914 74.2508 127.69 74.0035 128.446C73.9166 128.696 73.8514 128.886 73.7971 129.033C73.7696 129.094 73.7369 129.152 73.6993 129.207Z" fill="#263238"/>
<path d="M69.599 124.361C69.5664 124.361 69.713 124.019 69.8651 123.399C70.0687 122.508 70.0963 121.586 69.9466 120.684C69.7352 119.358 69.2862 118.081 68.6213 116.914C68.245 116.216 67.805 115.554 67.3069 114.937C66.7855 114.266 66.1937 113.652 65.5417 113.107C64.2708 112.06 62.8405 111.224 61.3052 110.63C60.049 110.137 58.746 109.773 57.4163 109.544C56.5172 109.392 55.6107 109.289 54.7006 109.234C54.3662 109.23 54.0324 109.204 53.7012 109.158C53.7876 109.145 53.8755 109.145 53.9619 109.158C54.1302 109.158 54.3801 109.158 54.706 109.158C55.6152 109.172 56.5225 109.246 57.4217 109.381C58.7727 109.575 60.0986 109.915 61.3758 110.397C62.9506 110.99 64.4182 111.835 65.7209 112.9C66.3858 113.46 66.9902 114.088 67.5242 114.774C68.0235 115.409 68.4652 116.087 68.844 116.8C69.5164 117.996 69.955 119.308 70.1367 120.667C70.2717 121.585 70.2144 122.521 69.9683 123.416C69.904 123.657 69.8167 123.892 69.7076 124.116C69.683 124.203 69.6465 124.285 69.599 124.361Z" fill="#F5F5F5"/>
<g opacity="0.4">
<path d="M55.6445 105.385C59.4795 106.085 63.1303 107.564 66.3716 109.73C69.6307 111.894 72.1406 115.013 73.5574 118.659C74.9805 122.32 74.7686 127.171 73.2696 130.201L78.3045 130.619C79.9991 124.965 78.1578 118.029 74.0843 113.603C71.7534 111.022 68.9093 108.956 65.7341 107.537C62.5588 106.118 59.1223 105.378 55.6445 105.363" fill="black"/>
</g>
<path d="M54.0377 61.1738H9.99417C7.42042 61.1738 5.33398 63.2603 5.33398 65.834V94.5935C5.33398 97.1672 7.42042 99.2536 9.99417 99.2536H54.0377C56.6114 99.2536 58.6979 97.1672 58.6979 94.5935V65.834C58.6979 63.2603 56.6114 61.1738 54.0377 61.1738Z" fill="#455A64"/>
<path d="M58.6975 69.6666C58.6975 69.7481 46.6994 69.8078 31.9042 69.8078C17.1089 69.8078 5.10547 69.7481 5.10547 69.6666C5.10547 69.5851 17.0981 69.5254 31.9042 69.5254C46.7103 69.5254 58.6975 69.5906 58.6975 69.6666Z" fill="#263238"/>
<path d="M94.3934 101.772C94.3934 101.848 78.376 101.913 58.6273 101.913C38.8786 101.913 22.8613 101.848 22.8613 101.772C22.8613 101.696 38.8732 101.631 58.6273 101.631C78.3815 101.631 94.3934 101.696 94.3934 101.772Z" fill="#263238"/>
<path d="M94.4261 99.2516C95.152 98.3317 95.6005 97.2238 95.7188 96.0579C95.8274 94.271 95.0127 92.0332 93.0845 92.0332H68.4801C66.5657 92.0332 64.7296 92.7937 63.3759 94.1474C62.0222 95.5011 61.2617 97.3371 61.2617 99.2516H94.4261Z" fill="#455A64"/>
<path d="M126.867 73.4255L122.587 64.5017C122.016 63.2766 121.922 61.8825 122.324 60.5918C122.725 59.3011 123.594 58.2067 124.76 57.5223L137.556 49.8911C138.224 49.4897 138.988 49.2775 139.767 49.2773H142.531L143.618 67.3152L139.359 68.9609L142.075 73.3495L126.867 73.4255Z" fill="#3C8AFF"/>
<path d="M142.57 49.9512C142.57 49.9512 146.948 50.956 147.497 57.7018C148.045 64.4477 143.635 66.5551 143.635 66.5551L142.57 49.9512Z" fill="#EBEBEB"/>
<path d="M128.362 61.0036C128.362 61.0036 119.514 65.1967 118.433 65.8919C117.683 66.3699 117.043 67.2064 117.629 68.6783C118.629 71.1822 122.767 68.8249 122.767 68.8249L131.007 64.7079C131.007 64.7079 134.173 63.2142 133 61.3404C131.691 59.2439 128.362 61.0036 128.362 61.0036Z" fill="#263238"/>
<path d="M115.833 59.4785C115.833 59.4785 124.149 60.9016 124.855 61.1079C125.561 61.3143 128.331 62.6124 128.472 63.4598C128.545 64.572 128.545 65.6878 128.472 66.8001C128.472 66.8001 127.973 67.2074 127.657 66.3927C127.453 65.5986 127.363 64.7791 127.391 63.9595L125.838 63.362L126.685 64.8665L126.826 68.3969C126.826 68.3969 125.74 68.2992 125.534 67.4519C125.4 66.8673 125.331 66.2699 125.327 65.6704L124.192 64.709L125.04 65.855L125.327 68.3969C125.327 68.3969 124.502 68.6631 124.241 68.0982C124.05 67.3659 123.955 66.6118 123.959 65.855L120.765 64.7416L118.652 65.9202L115.328 64.0735L115.833 59.4785Z" fill="#FFBE9D"/>
<path d="M128.786 47.8968C128.786 51.2643 127.238 53.9909 125.331 53.9909C123.425 53.9909 121.877 51.2752 121.877 47.8968C121.877 44.5185 123.419 41.8027 125.331 41.8027C127.243 41.8027 128.786 44.5185 128.786 47.8968Z" fill="#263238"/>
<path d="M125.893 52.0849L127.794 58.6678C128.141 58.493 128.417 58.2049 128.578 57.8513C128.739 57.4978 128.775 57.0998 128.679 56.7233C128.201 54.4693 127.929 52.867 127.408 50.8899C127.343 50.6944 125.893 52.0849 125.893 52.0849Z" fill="#263238"/>
<g opacity="0.4">
<path d="M88.3029 131.732C88.1183 131.189 87.9227 130.646 87.7598 130.065C87.5969 129.484 87.3905 128.979 87.2492 128.435C87.0303 127.621 86.8705 126.791 86.7713 125.953C83.5667 138.989 88.4605 148.184 96.8575 148.831C109.133 149.776 124.096 150.46 130.147 148.874C141.178 145.979 145.224 136.778 146.191 135.263C147.158 133.747 155.93 117.708 150.536 102.267C145.143 86.8252 135.79 70.4277 135.79 70.4277L126.866 73.4259C126.866 73.4259 128.496 81.0299 131.086 90.1764C133.938 100.208 137.751 115.9 137.534 125.079C137.395 130.597 135.612 135.947 132.412 140.444H91.866C91.866 140.444 90.9969 139.575 88.3192 131.754" fill="black"/>
</g>
<path d="M2.2713 124.785L2.55916 121.689L76.5788 130.217C77.5681 130.333 78.5231 130.651 79.3853 131.149C80.2475 131.648 80.9987 132.318 81.5927 133.117C82.1868 133.917 82.6112 134.829 82.8399 135.799C83.0686 136.768 83.0968 137.774 82.9227 138.755L82.5914 140.629L6.00813 129.5C4.89736 129.348 3.88831 128.772 3.19191 127.894C2.49551 127.015 2.16566 125.902 2.2713 124.785Z" fill="#3C8AFF"/>
<g opacity="0.6">
<path d="M2.26934 124.785L2.55721 121.689L76.5768 130.217C77.5661 130.333 78.5211 130.651 79.3833 131.149C80.2455 131.648 80.9967 132.318 81.5908 133.117C82.1848 133.917 82.6092 134.829 82.838 135.799C83.0667 136.768 83.0948 137.774 82.9208 138.755L82.5895 140.629L6.00618 129.5C4.8954 129.348 3.88636 128.772 3.18996 127.894C2.49356 127.015 2.1637 125.902 2.26934 124.785Z" fill="black"/>
</g>
<g opacity="0.3">
<path d="M146.191 145.49C146.191 145.49 162.486 127.566 165.848 113.477C167.537 113.467 169.224 113.593 170.894 113.852C170.894 113.852 161.258 140.048 146.191 145.49Z" fill="black"/>
</g>
<path d="M165.611 107.166C165.653 107.313 165.682 107.464 165.698 107.617C165.741 107.916 165.828 108.355 165.882 108.926C166.041 110.554 165.999 112.196 165.757 113.814C165.375 116.204 164.643 118.524 163.585 120.701C162.294 123.351 160.854 125.926 159.272 128.414C156.433 132.953 153.244 137.264 149.735 141.308C148.409 142.878 147.312 144.127 146.552 144.985L145.672 145.968C145.572 146.085 145.465 146.196 145.352 146.3C145.432 146.17 145.525 146.048 145.629 145.936L146.47 144.915L149.583 141.183C153.037 137.109 156.195 132.792 159.033 128.267C160.617 125.788 162.068 123.226 163.378 120.593C164.423 118.437 165.154 116.144 165.551 113.782C165.801 112.187 165.872 110.569 165.763 108.958C165.725 108.388 165.654 107.948 165.633 107.644C165.609 107.486 165.602 107.326 165.611 107.166Z" fill="#263238"/>
<path d="M137.444 145.359C136.511 144.645 135.637 143.857 134.831 143.002C133.962 142.213 133.155 141.358 132.42 140.443C134.224 141.944 135.905 143.588 137.444 145.359Z" fill="#263238"/>
<path d="M89.082 144.81C89.3443 143.973 89.7505 143.189 90.2824 142.491C90.7354 141.741 91.3141 141.074 91.9933 140.52C92.053 140.579 91.3089 141.47 90.5159 142.649C89.7229 143.827 89.1581 144.843 89.082 144.81Z" fill="#263238"/>
<path d="M57.7737 155.158C58.6648 154.346 59.4154 153.392 59.9951 152.334C60.6033 151.179 60.9727 149.914 61.0814 148.614C61.2461 147.028 60.969 145.428 60.2807 143.99C59.5925 142.552 58.5199 141.333 57.1816 140.466C56.1028 139.733 54.8873 139.225 53.6078 138.973C52.4219 138.759 51.2088 138.742 50.0176 138.924C50.0941 138.891 50.1744 138.867 50.2566 138.853C50.4924 138.792 50.7318 138.744 50.9735 138.712C51.8621 138.593 52.764 138.615 53.6458 138.777C54.9614 139.01 56.215 139.511 57.3283 140.249C58.7199 141.133 59.8345 142.391 60.5444 143.879C61.2543 145.367 61.5307 147.025 61.3421 148.662C61.2175 149.997 60.8181 151.292 60.1689 152.464C59.742 153.253 59.192 153.968 58.5395 154.583C58.3688 154.752 58.1874 154.91 57.9964 155.055C57.9266 155.099 57.8518 155.133 57.7737 155.158Z" fill="#263238"/>
<path d="M30.7309 149.482C30.5446 148.626 30.4553 147.751 30.4648 146.875C30.3711 146.001 30.3711 145.12 30.4648 144.246C30.736 145.977 30.8198 147.733 30.7146 149.482H30.7309Z" fill="#263238"/>
<path d="M32.7071 149.487C32.3006 147.766 32.0767 146.008 32.0391 144.24C32.2865 145.091 32.4449 145.964 32.5116 146.847C32.6689 147.718 32.7345 148.603 32.7071 149.487Z" fill="#263238"/>
<path d="M63.2376 99.2506C63.2376 99.3266 54.2377 99.3918 43.1412 99.3918C32.0448 99.3918 23.0449 99.3266 23.0449 99.2506C23.0449 99.1745 32.0448 99.1094 43.1412 99.1094C54.2377 99.1094 63.2376 99.1691 63.2376 99.2506Z" fill="#263238"/>
<path d="M34.0924 99.2241C34.0109 99.2241 33.9512 88.9044 33.9512 76.2057C33.9512 63.507 33.9892 53.209 34.0924 53.209C34.1956 53.209 34.2336 63.5287 34.2336 76.2329C34.2336 88.937 34.1684 99.2241 34.0924 99.2241Z" fill="#263238"/>
<path d="M28.5603 99.1859C28.4843 99.1859 28.8699 88.8662 29.4239 76.1784C29.9779 63.4905 30.5102 53.1762 30.5645 53.1816C30.6189 53.1871 30.2604 63.5014 29.7064 76.1892C29.1524 88.8771 28.6635 99.1913 28.5603 99.1859Z" fill="#263238"/>
<path d="M16.1155 162.002C16.0281 161.928 15.9481 161.846 15.8765 161.757C15.7353 161.594 15.5017 161.361 15.2465 161.03C14.4956 160.107 13.8251 159.122 13.2423 158.086C11.2762 154.654 10.2496 150.764 10.2658 146.809C10.282 142.853 11.3405 138.972 13.3346 135.556C13.9235 134.523 14.6014 133.544 15.3605 132.629C15.6212 132.297 15.8548 132.085 16.0014 131.901C16.1481 131.716 16.235 131.656 16.2404 131.667C16.1866 131.765 16.1209 131.857 16.0449 131.939C15.9145 132.118 15.6918 132.357 15.4474 132.699C12.6613 136.248 10.9827 140.54 10.6214 145.038C10.2601 149.535 11.2322 154.04 13.4161 157.988C13.9784 159.026 14.6194 160.019 15.3334 160.959C15.5724 161.301 15.7896 161.546 15.92 161.725C16.0503 161.904 16.1264 161.991 16.1155 162.002Z" fill="#455A64"/>
<path d="M93.9257 120.619L93.7573 120.934L90.4767 127.077L85.8926 131.487L95.0554 143.686L102.687 142.421C102.687 142.421 101.834 140.677 97.9992 140.341L96.5491 133.052L101.932 124.709" fill="#455A64"/>
<path d="M85.9043 131.504L95.0671 143.703L102.698 142.438L101.65 141.433L95.3876 142.117L86.882 130.564L85.9043 131.504Z" fill="#E0E0E0"/>
<path d="M97.401 137.007C97.3576 137.094 96.8579 136.915 96.3147 137.035C95.7716 137.154 95.3316 137.464 95.261 137.398C95.1904 137.333 95.5326 136.823 96.2496 136.698C96.9665 136.573 97.4608 136.937 97.401 137.007Z" fill="#263238"/>
<path d="M96.9926 135.224C96.9275 135.289 96.5092 134.898 95.9063 134.876C95.3035 134.855 94.8201 135.219 94.7712 135.148C94.7223 135.077 94.8092 134.98 95.0047 134.822C95.269 134.629 95.5901 134.53 95.9172 134.54C96.2446 134.548 96.559 134.669 96.808 134.882C96.9546 135.034 96.9926 135.181 96.9926 135.224Z" fill="#263238"/>
<path d="M96.6396 132.862C96.5636 132.922 96.2268 132.525 95.6674 132.428C95.108 132.33 94.6571 132.585 94.5811 132.504C94.5051 132.422 94.63 132.346 94.8309 132.232C95.0962 132.092 95.4009 132.044 95.6963 132.097C95.9917 132.151 96.2607 132.301 96.4604 132.525C96.645 132.699 96.6776 132.84 96.6396 132.862Z" fill="#263238"/>
<path d="M98.3784 130.715C98.2969 130.759 98.0091 130.362 97.4822 130.134C96.9554 129.906 96.4774 129.939 96.4557 129.846C96.434 129.754 96.9988 129.531 97.6234 129.846C98.248 130.161 98.4707 130.688 98.3784 130.715Z" fill="#263238"/>
<path d="M99.1176 128.984C99.0795 129.011 98.7808 128.751 98.3192 128.294L97.537 127.485C97.3599 127.327 97.2063 127.144 97.0808 126.942C97.0443 126.869 97.0227 126.79 97.0171 126.709C97.0115 126.628 97.0221 126.546 97.0482 126.469C97.0791 126.381 97.1353 126.305 97.2097 126.249C97.2841 126.193 97.3734 126.16 97.4664 126.154C97.7445 126.158 98.015 126.245 98.2431 126.404C98.4421 126.531 98.6245 126.683 98.7863 126.855C99.0562 127.152 99.2549 127.507 99.3674 127.892C99.5105 128.24 99.5105 128.631 99.3674 128.979C99.3122 128.643 99.236 128.311 99.1393 127.985C99.0068 127.65 98.8093 127.346 98.5581 127.089C98.41 126.942 98.2439 126.814 98.0639 126.708C97.8912 126.595 97.6936 126.526 97.4882 126.507C97.4596 126.508 97.4319 126.517 97.4087 126.533C97.3854 126.55 97.3677 126.573 97.3578 126.6C97.3285 126.671 97.3285 126.751 97.3578 126.822C97.4637 126.997 97.5914 127.158 97.738 127.3L98.4821 128.164C98.7364 128.402 98.9509 128.679 99.1176 128.984Z" fill="#263238"/>
<path d="M99.4283 129.162C99.3902 129.162 99.3522 128.76 99.689 128.233C99.9181 127.885 100.253 127.621 100.645 127.479C101.036 127.337 101.463 127.325 101.862 127.446C101.905 127.474 101.942 127.512 101.97 127.556C101.998 127.6 102.017 127.649 102.025 127.701C102.032 127.789 102.013 127.878 101.97 127.956C101.909 128.065 101.83 128.162 101.737 128.244C101.585 128.39 101.422 128.523 101.248 128.64C100.954 128.838 100.632 128.988 100.292 129.086C99.9885 129.209 99.6541 129.233 99.3359 129.156C99.3359 129.102 99.689 129.07 100.216 128.858C100.519 128.737 100.806 128.579 101.069 128.385C101.224 128.271 101.369 128.144 101.503 128.005C101.569 127.947 101.626 127.879 101.671 127.804C101.699 127.728 101.671 127.75 101.671 127.733C101.598 127.702 101.518 127.685 101.438 127.685C101.342 127.676 101.246 127.676 101.15 127.685C100.964 127.701 100.781 127.745 100.607 127.815C100.313 127.929 100.054 128.116 99.8519 128.358C99.6928 128.616 99.5512 128.885 99.4283 129.162Z" fill="#263238"/>
<path d="M91.9542 130.26C91.9841 130.44 91.9601 130.624 91.8853 130.789C91.8105 130.955 91.6883 131.094 91.5341 131.19C91.3799 131.286 91.2007 131.335 91.0191 131.329C90.8376 131.323 90.6618 131.263 90.5142 131.157C90.3665 131.052 90.2535 130.904 90.1896 130.734C90.1257 130.564 90.1136 130.379 90.155 130.202C90.1963 130.025 90.2893 129.865 90.422 129.741C90.5547 129.617 90.7212 129.535 90.9005 129.505C91.1401 129.468 91.3849 129.526 91.5821 129.667C91.7793 129.808 91.9129 130.021 91.9542 130.26Z" fill="#E0E0E0"/>
<path d="M121.734 126.486L124.184 142.389L143.992 139.445C143.591 137.571 132.782 135.296 132.782 135.296L131.63 125.041L121.734 126.486Z" fill="#455A64"/>
<path d="M126.529 135.349C126.347 135.435 126.203 135.585 126.125 135.77C126.046 135.956 126.04 136.164 126.106 136.354C126.186 136.538 126.333 136.685 126.518 136.765C126.702 136.844 126.91 136.851 127.1 136.783C127.296 136.691 127.45 136.527 127.532 136.326C127.614 136.125 127.616 135.9 127.54 135.697C127.437 135.511 127.266 135.373 127.064 135.311C126.861 135.249 126.642 135.269 126.453 135.366" fill="#E0E0E0"/>
<path d="M124.185 142.388L124 140.759L143.059 138.537C143.059 138.537 143.999 138.792 143.993 139.428L124.185 142.388Z" fill="#E0E0E0"/>
<path d="M133.085 135.148C133.085 135.245 132.623 135.36 132.189 135.74C131.754 136.12 131.569 136.565 131.472 136.544C131.374 136.522 131.439 135.935 131.966 135.484C132.493 135.034 133.096 135.055 133.085 135.148Z" fill="#263238"/>
<path d="M135.291 135.697C135.329 135.789 134.933 136.012 134.666 136.474C134.4 136.935 134.368 137.375 134.27 137.386C134.172 137.397 134.031 136.843 134.373 136.3C134.715 135.757 135.275 135.605 135.291 135.697Z" fill="#263238"/>
<path d="M136.845 138.004C136.758 138.042 136.552 137.575 136.72 137.01C136.889 136.445 137.312 136.163 137.367 136.239C137.421 136.315 137.182 136.641 137.046 137.108C136.911 137.575 136.938 137.982 136.845 138.004Z" fill="#263238"/>
<path d="M132.564 132.84C132.564 132.932 132.075 132.867 131.532 132.981C130.989 133.095 130.592 133.34 130.527 133.264C130.462 133.188 130.826 132.78 131.461 132.65C132.097 132.52 132.602 132.753 132.564 132.84Z" fill="#263238"/>
<path d="M131.756 130.56C131.444 130.696 131.1 130.745 130.762 130.701C130.395 130.691 130.03 130.636 129.676 130.538C129.459 130.487 129.247 130.419 129.04 130.337C128.92 130.294 128.807 130.23 128.709 130.147C128.634 130.089 128.582 130.008 128.56 129.916C128.538 129.824 128.549 129.727 128.589 129.642C128.628 129.567 128.683 129.502 128.751 129.452C128.819 129.402 128.898 129.369 128.981 129.354C129.105 129.335 129.231 129.335 129.355 129.354C129.576 129.37 129.795 129.411 130.007 129.474C130.364 129.575 130.703 129.731 131.012 129.935C131.555 130.294 131.745 130.631 131.713 130.658C131.68 130.685 131.403 130.424 130.887 130.142C130.584 129.978 130.261 129.856 129.926 129.778C129.73 129.727 129.53 129.696 129.328 129.685C129.111 129.685 128.932 129.685 128.894 129.789C128.856 129.892 128.894 129.838 128.932 129.897C129.006 129.954 129.089 129.999 129.176 130.033C129.362 130.117 129.553 130.192 129.746 130.256C130.077 130.361 130.417 130.436 130.762 130.478C131.095 130.482 131.427 130.509 131.756 130.56Z" fill="#263238"/>
<path d="M131.643 130.716C131.61 130.716 131.366 130.417 131.236 129.798C131.177 129.438 131.177 129.071 131.236 128.711C131.271 128.493 131.325 128.279 131.399 128.07C131.431 127.934 131.498 127.807 131.593 127.704C131.688 127.6 131.808 127.523 131.942 127.478C132.03 127.467 132.12 127.481 132.2 127.519C132.281 127.556 132.35 127.616 132.398 127.69C132.466 127.8 132.519 127.919 132.555 128.043C132.622 128.26 132.655 128.485 132.653 128.711C132.653 129.09 132.56 129.463 132.382 129.798C132.072 130.341 131.686 130.542 131.676 130.509C131.665 130.477 131.942 130.232 132.164 129.694C132.294 129.385 132.353 129.051 132.338 128.717C132.333 128.523 132.298 128.33 132.235 128.146C132.175 127.94 132.072 127.783 131.996 127.815C131.92 127.848 131.752 128.011 131.697 128.19C131.624 128.376 131.567 128.569 131.529 128.766C131.467 129.101 131.453 129.442 131.485 129.781C131.534 130.335 131.692 130.694 131.643 130.716Z" fill="#263238"/>
<path d="M106.15 89.1274L89.166 126.137L100.382 132.872L123.867 88.3398" fill="#263238"/>
<path d="M134.163 133.713L121.98 135.669L114.686 92.1412L78.6482 94.7537C77.6949 94.8199 76.7372 94.73 75.813 94.4876C65.6942 91.7121 67.0629 78.807 68.0406 76.7376L117.907 75.3092C120.519 75.2332 123.068 76.124 125.064 77.8108C127.061 79.4976 128.365 81.8617 128.726 84.4503L134.163 133.713Z" fill="#263238"/>
<path d="M67.5363 78.7808L67.7156 60.3791C67.7156 60.3791 65.342 48.4299 64.6359 43.71C63.5497 36.4101 62.0506 32.9395 74.0106 27.7524L76.6285 26.7422L80.675 26.7965C85.4981 27.1604 90.5819 31.5218 90.7014 34.4005L95.367 75.8804L67.5363 78.7808Z" fill="#3C8AFF"/>
<path d="M68.2862 32.0273C68.2862 32.0273 64.9079 39.2946 65.5705 45.9155L78.1551 57.995C80.9741 61.1344 84.5045 62.4705 89.018 62.7421L115.056 65.5882L115.779 58.7772L91.0222 51.7598C90.0337 51.5751 89.5394 50.5485 88.7845 49.8859L68.2862 32.0273Z" fill="#3C8AFF"/>
<path d="M66.25 34.1231C66.3962 33.9833 66.5652 33.8694 66.7497 33.7864C67.2858 33.5502 67.8527 33.3911 68.4334 33.3138C69.365 33.161 70.3153 33.161 71.2469 33.3138C71.5347 33.366 71.813 33.4613 72.0725 33.5963C72.3378 33.7627 72.5935 33.9441 72.8383 34.1394C73.338 34.5305 73.8431 34.9813 74.3591 35.4701C75.402 36.4423 76.3905 37.6753 77.5474 38.9245C78.7043 40.1737 79.9698 41.5153 81.3494 42.922C82.729 44.3288 84.2118 45.8007 85.7977 47.3215C86.5962 48.0819 87.4272 48.8532 88.2908 49.6081C88.7307 49.9666 89.1652 50.3903 89.5835 50.7868C89.9776 51.1944 90.4751 51.4873 91.0228 51.6341L115.828 58.6406L115.942 58.6732V58.7927C115.893 59.2761 115.834 59.7921 115.779 60.3189C115.589 62.1276 115.399 63.92 115.236 65.6037V65.7449H115.095L104.058 64.5174L98.8441 63.9471L93.8526 63.442C92.2231 63.2628 90.6534 63.0781 89.1272 62.8554C87.6362 62.6724 86.1688 62.3319 84.7495 61.8398C83.4411 61.3416 82.2032 60.6752 81.067 59.8573C79.9807 59.0914 78.9596 58.293 78.0199 57.5055C74.2994 54.3335 71.5674 51.4929 69.6718 49.5593C68.7322 48.587 68.0098 47.8212 67.5264 47.2998L66.9832 46.7023L66.804 46.4905C66.804 46.4905 66.8746 46.5502 67.005 46.6806C67.1353 46.811 67.3254 47.0119 67.5481 47.2618L69.7207 49.4887C71.638 51.3951 74.3917 54.214 78.1177 57.3588C79.0573 58.1355 80.0621 58.9285 81.1538 59.6835C82.2827 60.4845 83.5092 61.138 84.8038 61.6279C86.2135 62.1088 87.6699 62.4401 89.1489 62.6164C90.6752 62.8337 92.2503 63.0184 93.8688 63.1922L98.8603 63.681L104.075 64.2513L115.1 65.4517L114.943 65.5766C115.122 63.8928 115.312 62.1005 115.486 60.2864C115.546 59.7432 115.6 59.2435 115.649 58.7601L115.752 58.9122L90.9848 51.8785C90.3801 51.7283 89.8303 51.41 89.3988 50.9606C88.9588 50.5424 88.5623 50.1513 88.1115 49.7765C87.2371 49.0161 86.4169 48.2394 85.6185 47.479C84.0325 45.9528 82.5552 44.47 81.181 43.0578C79.8069 41.6457 78.5468 40.2987 77.379 39.0331C76.2113 37.7676 75.2553 36.5401 74.2233 35.5679C73.7486 35.097 73.2482 34.6527 72.7243 34.2372C72.4878 34.0384 72.2373 33.8569 71.9747 33.694C71.7287 33.5603 71.4628 33.4667 71.1872 33.417C70.2708 33.2492 69.3329 33.2345 68.4117 33.3736C67.8351 33.4383 67.2703 33.5827 66.7334 33.8027C66.5643 33.897 66.4027 34.0041 66.25 34.1231Z" fill="#263238"/>
<path d="M72.7508 10.7798L74.0109 28.7035C74.1112 30.1127 74.742 31.4315 75.7761 32.394C76.8102 33.3566 78.1708 33.8913 79.5835 33.8905C80.3475 33.8907 81.1034 33.734 81.8044 33.4303C82.5054 33.1265 83.1366 32.6822 83.659 32.1247C84.1813 31.5672 84.5837 30.9084 84.8413 30.1892C85.0988 29.4699 85.206 28.7054 85.1562 27.9431C85.0421 26.2376 84.9444 24.8417 84.9444 24.8417C84.9444 24.8417 89.2895 24.1682 89.333 19.8285C89.3656 17.3246 88.931 11.6434 88.5617 7.28734C88.4403 5.86442 87.788 4.53926 86.7344 3.57522C85.6808 2.61119 84.3031 2.07885 82.875 2.08402H80.2516C79.1833 2.1489 78.1387 2.42705 77.1796 2.90206C76.2204 3.37708 75.3661 4.03934 74.6671 4.8498C73.968 5.66026 73.4382 6.6025 73.1091 7.62095C72.78 8.63941 72.6582 9.71346 72.7508 10.7798Z" fill="#FFBE9D"/>
<path d="M84.9451 24.7702C82.9433 24.8079 80.9754 24.2503 79.291 23.168C79.291 23.168 80.6271 26.2856 84.956 25.8837L84.9451 24.7702Z" fill="#EB996E"/>
<path d="M87.588 12.853C87.5895 13.0145 87.5279 13.1702 87.4163 13.2868C87.3047 13.4035 87.1519 13.472 86.9905 13.4776C86.9126 13.4851 86.834 13.4768 86.7593 13.4534C86.6846 13.43 86.6153 13.3918 86.5556 13.3412C86.4958 13.2906 86.4468 13.2285 86.4115 13.1587C86.3761 13.0888 86.3551 13.0126 86.3496 12.9345C86.3481 12.7725 86.4095 12.6162 86.521 12.4987C86.6325 12.3811 86.7852 12.3115 86.9471 12.3045C87.1048 12.2925 87.2608 12.3435 87.3809 12.4463C87.501 12.5491 87.5755 12.6954 87.588 12.853Z" fill="#263238"/>
<path d="M87.8148 11.6323C87.7333 11.7138 87.2716 11.3662 86.5981 11.3662C85.9246 11.3662 85.4467 11.7029 85.3706 11.6214C85.2946 11.54 85.4141 11.4368 85.6313 11.2847C85.9174 11.0836 86.2593 10.9773 86.609 10.9805C86.9566 10.9797 87.2954 11.0901 87.5758 11.2956C87.7604 11.4476 87.8473 11.5943 87.8148 11.6323Z" fill="#263238"/>
<path d="M81.3302 12.853C81.3331 13.0149 81.272 13.1714 81.1601 13.2883C81.0482 13.4053 80.8946 13.4734 80.7327 13.4776C80.6548 13.4851 80.5762 13.4768 80.5015 13.4534C80.4267 13.43 80.3575 13.3918 80.2978 13.3412C80.238 13.2906 80.189 13.2285 80.1537 13.1587C80.1183 13.0888 80.0973 13.0126 80.0918 12.9345C80.0903 12.7725 80.1517 12.6162 80.2632 12.4987C80.3746 12.3811 80.5274 12.3115 80.6893 12.3045C80.847 12.2925 81.003 12.3435 81.1231 12.4463C81.2432 12.5491 81.3177 12.6954 81.3302 12.853Z" fill="#263238"/>
<path d="M81.2433 11.7573C81.1673 11.8388 80.7002 11.4912 80.0267 11.4912C79.3532 11.4912 78.8752 11.8279 78.8046 11.7465C78.734 11.665 78.8427 11.5618 79.0599 11.4097C79.346 11.2086 79.6879 11.1023 80.0376 11.1055C80.3846 11.1032 80.7233 11.2116 81.0044 11.4151C81.2433 11.5727 81.3031 11.7193 81.2433 11.7573Z" fill="#263238"/>
<path d="M83.6807 16.6994C84.0332 16.5893 84.3981 16.5236 84.767 16.5038C84.9353 16.5038 85.0983 16.4495 85.1254 16.3355C85.1434 16.1592 85.1033 15.9818 85.0114 15.8303L84.5008 14.5377C84.0325 13.4406 83.6546 12.3071 83.3711 11.1484C83.9225 12.2059 84.391 13.3045 84.7724 14.4345L85.2504 15.738C85.359 15.9428 85.3917 16.1795 85.3427 16.4061C85.3177 16.4665 85.2793 16.5204 85.2304 16.5637C85.1814 16.607 85.1233 16.6385 85.0603 16.6559C84.9662 16.6802 84.8695 16.693 84.7724 16.6939C84.4102 16.7416 84.0434 16.7435 83.6807 16.6994Z" fill="#263238"/>
<path d="M81.7235 17.1622C81.8321 17.1622 81.8321 17.8792 82.4513 18.3897C83.0705 18.9003 83.8418 18.8242 83.8472 18.9329C83.8526 19.0415 83.6734 19.0686 83.3475 19.0795C82.9242 19.0843 82.5128 18.9401 82.1852 18.6722C81.8779 18.411 81.6833 18.0413 81.642 17.6402C81.5931 17.3632 81.6746 17.1568 81.7235 17.1622Z" fill="#263238"/>
<path d="M81.4346 9.14373C81.3694 9.32297 80.7068 9.2415 79.9247 9.33384C79.1426 9.42617 78.5071 9.64343 78.4039 9.48049C78.3007 9.31755 78.469 9.23064 78.7243 9.05684C79.0638 8.84034 79.4486 8.70472 79.8488 8.66046C80.249 8.6162 80.6541 8.66447 81.0327 8.80156C81.3205 8.91562 81.4672 9.05683 81.4346 9.14373Z" fill="#263238"/>
<path d="M87.5659 9.7042C87.4518 9.85628 86.9901 9.7042 86.4416 9.7042C85.893 9.7042 85.4205 9.80197 85.3118 9.64446C85.2032 9.48694 85.339 9.41634 85.5454 9.27512C85.8172 9.09687 86.1386 9.00939 86.4633 9.02527C86.7862 9.03205 87.0992 9.13827 87.3595 9.32944C87.555 9.47609 87.6202 9.62816 87.5659 9.7042Z" fill="#263238"/>
<path d="M74.2088 14.0385C74.1327 14.0059 71.2269 13.1531 71.3247 16.1187C71.4224 19.0843 74.3717 18.3782 74.3771 18.2913C74.3826 18.2044 74.2088 14.0385 74.2088 14.0385Z" fill="#FFBE9D"/>
<path d="M73.4327 17.1981C73.4327 17.1981 73.3838 17.2361 73.2969 17.2795C73.1727 17.3267 73.0355 17.3267 72.9113 17.2795C72.717 17.1642 72.5567 16.9993 72.447 16.8018C72.3373 16.6043 72.2819 16.3812 72.2867 16.1552C72.2709 15.9014 72.3117 15.6473 72.4062 15.4111C72.4308 15.3172 72.4777 15.2307 72.543 15.1588C72.6082 15.0869 72.6898 15.0319 72.7809 14.9983C72.8403 14.9816 72.9036 14.986 72.96 15.0108C73.0165 15.0355 73.0626 15.0791 73.0905 15.1341C73.134 15.2156 73.1177 15.2753 73.134 15.2808C73.1503 15.2862 73.1937 15.2265 73.1666 15.107C73.1484 15.0324 73.104 14.9669 73.0416 14.9223C73.0003 14.8931 72.9536 14.8723 72.9042 14.8611C72.8548 14.8499 72.8037 14.8486 72.7538 14.8571C72.629 14.8815 72.5129 14.9386 72.4175 15.0226C72.322 15.1066 72.2506 15.2144 72.2106 15.3351C72.0917 15.5952 72.0394 15.8808 72.0585 16.1661C72.0511 16.4303 72.1226 16.6908 72.2639 16.9143C72.4051 17.1377 72.6097 17.314 72.8515 17.4208C72.9313 17.4419 73.0148 17.4445 73.0957 17.4285C73.1767 17.4125 73.2529 17.3783 73.3186 17.3284C73.4327 17.2687 73.4436 17.2035 73.4327 17.1981Z" fill="#EB996E"/>
<path d="M72.5533 13.9351C72.8354 13.9168 73.1173 13.9753 73.3688 14.1044C73.6203 14.2335 73.8322 14.4284 73.9818 14.6683C74.1719 15.092 74.2153 15.5699 74.4054 15.9936C74.4876 16.2113 74.6374 16.3969 74.833 16.5231C75.0286 16.6492 75.2595 16.7092 75.4917 16.6942C75.6458 16.646 75.7842 16.5577 75.893 16.4384C76.0018 16.3191 76.077 16.1731 76.1109 16.0153C76.1734 15.6997 76.1734 15.375 76.1109 15.0594C75.9371 13.6744 75.6492 12.3056 75.5949 10.9098C75.4789 9.50929 75.7833 8.10606 76.4694 6.87963C76.8172 6.27211 77.323 5.77007 77.9331 5.42678C78.5432 5.08348 79.2348 4.91173 79.9346 4.92975C80.858 5.00579 81.6998 5.47289 82.6178 5.6141C83.1627 5.68544 83.7167 5.63205 84.2379 5.45799C84.7592 5.28392 85.2341 4.99373 85.6268 4.60929C85.8 4.46342 85.9814 4.32742 86.1699 4.20193C86.1581 3.87405 86.0505 3.55681 85.8603 3.28945C84.0408 1.6057 80.7711 1.11688 78.3704 1.74149C77.1511 2.04197 76.0118 2.60425 75.0316 3.3893C74.0515 4.17435 73.254 5.16335 72.6945 6.2876C71.6626 8.53622 71.9667 11.6593 72.537 13.9351" fill="#263238"/>
<path d="M88.6092 6.61349C88.6092 6.61349 77.2357 2.9527 72.3148 12.7945C71.9352 11.5567 71.6876 10.2823 71.5762 8.99246C71.5762 8.11256 72.1193 2.86036 77.5073 1.20921C77.5073 1.23093 85.649 -1.87584 88.6092 6.61349Z" fill="#3C8AFF"/>
<path d="M78.8308 6.85837C79.0328 7.18497 79.308 7.46013 79.6347 7.66209C79.9613 7.86405 80.3304 7.98728 80.7129 8.02205C81.0954 8.05682 81.4807 8.00217 81.8384 7.86243C82.1961 7.72268 82.5164 7.50167 82.774 7.21685C82.8863 7.49969 83.0844 7.74023 83.3404 7.90466C83.5965 8.06909 83.8976 8.14914 84.2015 8.13356C84.5054 8.11797 84.7968 8.00753 85.0347 7.81777C85.2726 7.62801 85.445 7.36846 85.5278 7.07562C85.8314 7.41607 86.2009 7.69138 86.614 7.88491C86.8269 7.97541 87.0623 7.99842 87.2886 7.95082C87.515 7.90323 87.7212 7.78733 87.8796 7.61877C88.0092 7.42204 88.0713 7.18851 88.0566 6.95339C88.0419 6.71826 87.9512 6.49428 87.7981 6.31522C87.4901 5.95858 87.0927 5.69047 86.6466 5.53852C85.299 4.94627 83.8185 4.7214 82.3558 4.88675C80.8856 5.06338 79.5388 5.79606 78.5918 6.93441" fill="#263238"/>
<g opacity="0.4">
<path d="M88.6092 6.61139C87.6607 5.61908 86.3634 5.03472 84.9918 4.98196C81.6352 4.83531 75.3564 6.72001 72.3148 12.8032C71.9352 11.5655 71.6876 10.2911 71.5762 9.00122C71.5762 8.12133 72.1193 2.86913 77.5073 1.21797C77.5073 1.22883 85.649 -1.87795 88.6092 6.61139Z" fill="black"/>
</g>
<path d="M72.7871 11.6416C74.5118 9.0732 76.7724 6.90892 79.4135 5.29772C82.0314 3.66828 86.3549 2.03886 89.3313 1.25673C90.2143 0.964894 91.1498 0.866712 92.0742 0.968867C92.5347 1.02716 92.9694 1.21398 93.3287 1.50792C93.688 1.80186 93.9572 2.19104 94.1055 2.63089C94.3879 3.75519 92.3946 5.48782 91.455 6.16675C90.538 6.77992 89.5878 7.34202 88.6089 7.8505C88.6089 7.8505 88.636 5.76482 85.3011 5.33574C80.7659 4.75458 72.7871 11.6416 72.7871 11.6416Z" fill="#3C8AFF"/>
<g opacity="0.3">
<path d="M68.7832 48.6035C69.9564 51.4333 71.1404 54.9257 72.8405 57.4731C74.5405 60.0204 76.8109 62.2853 79.6352 63.4476C83.1874 64.9358 87.3859 65.1748 90.9163 63.654C91.2042 63.5291 91.7691 63.3716 91.7147 63.062C91.7147 63.062 90.547 62.9262 90.1831 62.8665C83.0516 61.6824 82.2749 60.8134 78.8585 58.0977C76.7294 56.4194 72.0095 51.3301 68.7832 48.6035Z" fill="black"/>
</g>
<path d="M91.4634 69.209C91.3912 69.4412 91.2908 69.6638 91.1646 69.8716C90.8479 70.4592 90.4612 71.0063 90.0132 71.5011C88.5019 73.0855 86.6008 74.2449 84.5002 74.8631C82.407 75.4591 80.2455 75.7823 78.0694 75.8245C77.2384 75.8571 76.5649 75.8625 76.1032 75.8625C75.862 75.8724 75.6203 75.8615 75.3809 75.8299C75.616 75.7757 75.8565 75.7483 76.0978 75.7484L78.0586 75.6235C80.2112 75.5242 82.3452 75.1779 84.4188 74.5915C86.4832 73.9774 88.3614 72.8572 89.8828 71.3327C90.4759 70.6766 91.0051 69.9655 91.4634 69.209Z" fill="#263238"/>
<path d="M122.189 136.967C122.166 136.914 122.151 136.857 122.146 136.799C122.146 136.674 122.092 136.506 122.048 136.299C121.967 135.843 121.847 135.213 121.701 134.377C121.402 132.682 120.984 130.265 120.462 127.283C119.447 121.276 118.045 113.004 116.497 103.868C115.807 99.7294 115.15 95.7753 114.547 92.1634L114.689 92.2774L99.0949 93.4017L94.6194 93.7059L93.4245 93.7765H93.1203H93.0117H93.1149L93.4245 93.7385L94.614 93.6299L99.084 93.2497L114.667 92.0059H114.786V92.1254C115.395 95.7373 116.063 99.6913 116.758 103.825C118.273 112.966 119.642 121.243 120.641 127.256C121.119 130.243 121.51 132.687 121.787 134.36L122.081 136.299C122.113 136.506 122.135 136.674 122.151 136.799C122.171 136.853 122.184 136.91 122.189 136.967Z" fill="#455A64"/>
<path d="M118.339 88.2637C118.388 88.3288 117.438 89.1436 116.362 90.2407C115.287 91.3379 114.483 92.2992 114.418 92.2449C115.419 90.648 116.758 89.2892 118.339 88.2637Z" fill="#455A64"/>
<path d="M85.0449 28.3172C85.0449 28.3172 85.0775 28.3769 85.1101 28.4964C85.1641 28.6732 85.1987 28.8553 85.2133 29.0396C85.2767 29.7098 85.1876 30.3857 84.9526 31.0166C84.6015 31.9595 83.9775 32.7764 83.1602 33.363C82.1399 34.0616 80.9117 34.3912 79.6786 34.2972C78.4506 34.2138 77.2741 33.7719 76.2949 33.0262C75.5055 32.4198 74.8507 31.6559 74.3721 30.7831C74.0477 30.2017 73.7994 29.5811 73.6334 28.9364C73.5791 28.7082 73.5411 28.529 73.5248 28.3932C73.5085 28.2574 73.5248 28.2031 73.5248 28.2031C73.7767 29.0598 74.1208 29.8867 74.5514 30.669C75.0428 31.4971 75.6903 32.222 76.4578 32.8035C77.4069 33.5063 78.5382 33.9211 79.7167 33.9985C80.8882 34.0883 82.0561 33.7844 83.0353 33.1349C83.8171 32.5821 84.424 31.8168 84.7842 30.9297C85.0304 30.329 85.147 29.683 85.1264 29.0341C85.0883 28.5779 85.0449 28.328 85.0449 28.3172Z" fill="#263238"/>
<path d="M92.7084 52.0373C92.6465 51.8618 92.6064 51.6794 92.5889 51.4942C92.5292 51.0651 92.4586 50.5437 92.3717 49.9408C92.1924 48.5558 91.9589 46.7743 91.7036 44.8027C91.4483 42.831 91.2637 41.0006 91.1605 39.6537C91.1007 38.9964 91.0627 38.4587 91.041 38.0894C91.015 37.8984 91.015 37.7047 91.041 37.5137C91.0977 37.6903 91.1359 37.8723 91.155 38.0568C91.2148 38.4859 91.2854 39.0019 91.3669 39.6102C91.5407 40.9952 91.7634 42.7767 92.0078 44.7483C92.2522 46.72 92.464 48.5504 92.5944 49.8919C92.6541 50.5546 92.6976 51.0868 92.7247 51.4616C92.7418 51.6535 92.7363 51.8467 92.7084 52.0373Z" fill="#263238"/>
</svg>
