<svg width="375" height="812" viewBox="0 0 375 812" fill="none" xmlns="http://www.w3.org/2000/svg">
<path fill-rule="evenodd" clip-rule="evenodd" d="M148.66 -21.617C189.814 -10.947 225.255 15.0822 247.168 51.4628C269.943 89.2723 282.28 135.172 268.281 176.976C254.685 217.576 214.456 239.417 177.156 260.534C139.153 282.05 98.6575 308.248 56.4315 296.914C13.742 285.456 -10.5762 243.46 -31.4313 204.546C-51.9339 166.29 -70.9001 123.904 -58.5658 82.3397C-46.2867 40.9615 -7.97144 14.7047 30.6546 -4.6724C67.5553 -23.184 108.656 -31.9887 148.66 -21.617Z" fill="#E2EDFF"/>
<path fill-rule="evenodd" clip-rule="evenodd" d="M311.66 593.383C352.814 604.053 388.255 630.082 410.168 666.463C432.943 704.272 445.28 750.172 431.281 791.976C417.685 832.576 377.456 854.417 340.156 875.534C302.153 897.05 261.658 923.248 219.431 911.914C176.742 900.456 152.424 858.46 131.569 819.546C111.066 781.29 92.0999 738.904 104.434 697.34C116.713 655.961 155.029 629.705 193.655 610.328C230.555 591.816 271.656 583.011 311.66 593.383Z" fill="#E2EDFF"/>
<path fill-rule="evenodd" clip-rule="evenodd" d="M39.9501 428.232C59.2586 433.238 75.8867 445.45 86.1682 462.519C96.8534 480.258 102.642 501.793 96.0738 521.407C89.6947 540.456 70.8204 550.703 53.3197 560.611C35.4897 570.705 16.4902 582.997 -3.32138 577.679C-23.3504 572.303 -34.7599 552.6 -44.5446 534.342C-54.164 516.393 -63.0626 496.507 -57.2755 477.006C-51.5145 457.592 -33.5378 445.273 -15.4153 436.182C1.89767 427.496 21.1812 423.365 39.9501 428.232Z" fill="#E2EDFF"/>
</svg>
