<svg width="22" height="25" viewBox="0 0 22 25" fill="none" xmlns="http://www.w3.org/2000/svg">
<path d="M9.93557 1.13569C10.0195 1.05553 10.1193 0.991934 10.2291 0.948541C10.3389 0.905148 10.4566 0.882813 10.5755 0.882812C10.6944 0.882812 10.8121 0.905148 10.9219 0.948541C11.0317 0.991934 11.1314 1.05553 11.2154 1.13569C11.6872 1.58672 13.7606 3.63184 15.7219 6.30531C17.6562 8.94091 19.6139 12.3581 19.6139 15.517C19.6139 18.5812 18.5708 20.9655 16.8734 22.5837C15.1833 24.1967 12.9092 24.9852 10.5755 24.9852C8.24178 24.9852 5.96772 24.1967 4.27755 22.5837C2.58014 20.9655 1.53711 18.583 1.53711 15.517C1.53711 12.3581 3.49482 8.94091 5.42904 6.30703C6.78334 4.47108 8.29037 2.74173 9.93557 1.13569Z" fill="white"/>
<path d="M0.783203 14.2407H6.62379L8.34162 9.91797L11.4337 18.2032L13.1515 14.2407H20.3664" stroke="#A74FFE" stroke-width="1.5064" stroke-linecap="round" stroke-linejoin="round"/>
</svg>
