<svg width="375" height="439" viewBox="0 0 375 439" fill="none" xmlns="http://www.w3.org/2000/svg">
<path d="M311.226 114.97C341.903 112.613 381.191 76.6747 397 59V380.091C269.852 480.247 135.641 431.151 90.2306 389.91C44.8207 348.669 21.6111 242.621 96.2853 163.084C170.959 83.5482 272.879 117.916 311.226 114.97Z" fill="#E2EDFF"/>
<path d="M84.0221 29.866C50.6363 -10.6207 3.50846 -1.34251 -15.8823 8.35744C-90.7473 108.562 -35.273 141.204 1.82232 145C-4.24782 120.708 22.8992 101.139 37.2315 94.3916C66.7391 89.7525 117.408 70.3527 84.0221 29.866Z" fill="#E2EDFF"/>
<path d="M267.304 277.188H253.071C251.903 277.188 250.782 276.724 249.956 275.898C249.13 275.072 248.666 273.951 248.666 272.783V265.099C248.667 263.931 249.132 262.811 249.958 261.985C250.784 261.159 251.903 260.695 253.071 260.693H267.322C268.49 260.695 269.61 261.159 270.436 261.985C271.262 262.811 271.726 263.931 271.728 265.099V272.783C271.728 273.363 271.613 273.937 271.391 274.473C271.168 275.009 270.842 275.495 270.431 275.904C270.02 276.314 269.532 276.638 268.996 276.858C268.459 277.078 267.884 277.191 267.304 277.188ZM253.071 263.024C252.521 263.024 251.994 263.243 251.605 263.632C251.215 264.021 250.997 264.549 250.997 265.099V272.783C250.997 273.333 251.215 273.861 251.605 274.25C251.994 274.639 252.521 274.857 253.071 274.857H267.322C267.873 274.857 268.4 274.639 268.789 274.25C269.178 273.861 269.397 273.333 269.397 272.783V265.099C269.397 264.549 269.178 264.021 268.789 263.632C268.4 263.243 267.873 263.024 267.322 263.024H253.071Z" fill="#E0E0E0"/>
<path d="M285.235 269.486H235.119C231.355 269.486 228.305 272.537 228.305 276.3V309.721C228.305 313.484 231.355 316.535 235.119 316.535H285.235C288.999 316.535 292.049 313.484 292.049 309.721V276.3C292.049 272.537 288.999 269.486 285.235 269.486Z" fill="#218130"/>
<path d="M285.236 316.535L285.776 316.493C286.304 316.448 286.825 316.341 287.328 316.177C288.146 315.911 288.904 315.489 289.563 314.936C290.462 314.178 291.151 313.202 291.564 312.102C291.816 311.456 291.961 310.774 291.995 310.082C292.027 309.354 291.995 308.576 291.995 307.77C291.995 306.152 291.995 304.399 291.995 302.513C291.995 298.739 291.995 294.444 291.995 289.69C291.995 287.312 291.995 284.827 291.995 282.235C291.995 280.939 291.995 279.62 291.995 278.274C291.995 277.601 291.995 276.9 291.995 276.236C291.981 275.554 291.87 274.877 291.665 274.226C291.334 273.217 290.769 272.301 290.016 271.552C289.263 270.803 288.344 270.243 287.333 269.917C286.637 269.702 285.913 269.594 285.185 269.596H275.967H235.124C234.242 269.595 233.369 269.768 232.554 270.105C231.74 270.443 231 270.938 230.377 271.562C229.754 272.187 229.261 272.928 228.926 273.743C228.591 274.559 228.42 275.432 228.424 276.314C228.424 279.846 228.424 283.321 228.424 286.737C228.424 293.569 228.424 300.159 228.424 306.428V308.768C228.391 309.534 228.436 310.301 228.557 311.058C228.866 312.523 229.648 313.845 230.782 314.822C231.89 315.766 233.277 316.321 234.73 316.402C236.159 316.443 237.587 316.402 238.979 316.425H254.513L276.997 316.461L283.115 316.484H284.704H285.245H284.704H283.115L276.997 316.507L254.513 316.544H238.979C237.606 316.544 236.168 316.567 234.716 316.544C233.219 316.459 231.791 315.886 230.65 314.914C229.479 313.909 228.674 312.545 228.36 311.035C228.235 310.268 228.187 309.49 228.218 308.713V306.373C228.218 300.095 228.218 293.505 228.218 286.682V276.323C228.215 275.41 228.392 274.506 228.74 273.662C229.087 272.818 229.598 272.051 230.242 271.404C230.887 270.758 231.653 270.245 232.496 269.896C233.339 269.546 234.243 269.367 235.156 269.367H275.999H285.158C285.908 269.368 286.653 269.48 287.37 269.701C288.409 270.039 289.355 270.617 290.129 271.389C290.903 272.161 291.485 273.105 291.825 274.143C292.038 274.813 292.151 275.511 292.16 276.213C292.16 276.9 292.16 277.587 292.16 278.256C292.16 279.602 292.16 280.921 292.16 282.217C292.16 284.809 292.16 287.294 292.16 289.672C292.16 294.416 292.16 298.712 292.16 302.494C292.16 304.381 292.16 306.133 292.16 307.751C292.16 308.557 292.16 309.327 292.137 310.069C292.109 310.776 291.964 311.474 291.706 312.134C291.284 313.246 290.58 314.229 289.664 314.987C288.988 315.542 288.21 315.96 287.374 316.219C286.866 316.376 286.343 316.476 285.813 316.516C285.419 316.535 285.236 316.535 285.236 316.535Z" fill="#263238"/>
<path d="M270.526 288.994H264.188V282.656H256.156V288.994H249.818V297.026H256.156V303.364H264.188V297.026H270.526V288.994Z" fill="white"/>
<path d="M231.291 308.072C231.227 308.072 231.172 301.597 231.172 293.611C231.172 285.624 231.227 279.145 231.291 279.145C231.355 279.145 231.41 285.62 231.41 293.611C231.41 301.602 231.36 308.072 231.291 308.072Z" fill="white"/>
<path d="M234.812 272.403C234.812 272.44 234.464 272.518 233.951 272.774C233.281 273.101 232.702 273.591 232.27 274.199C231.837 274.807 231.563 275.514 231.474 276.255C231.396 276.822 231.437 277.17 231.4 277.17C231.293 276.865 231.26 276.539 231.304 276.218C231.352 275.435 231.619 274.68 232.075 274.041C232.531 273.403 233.157 272.905 233.883 272.605C234.171 272.462 234.49 272.393 234.812 272.403Z" fill="white"/>
<path d="M289.051 277.189C289.115 277.189 289.17 283.665 289.17 291.656C289.17 299.647 289.115 306.117 289.051 306.117C288.987 306.117 288.932 299.642 288.932 291.656C288.932 283.669 288.987 277.189 289.051 277.189Z" fill="white"/>
<path d="M285.535 312.862C285.535 312.82 285.879 312.742 286.396 312.486C287.067 312.159 287.645 311.669 288.078 311.061C288.51 310.453 288.784 309.747 288.874 309.006C288.947 308.438 288.906 308.09 288.947 308.09C289.051 308.396 289.084 308.722 289.043 309.042C288.993 309.825 288.725 310.578 288.27 311.217C287.814 311.855 287.189 312.354 286.465 312.655C286.175 312.795 285.857 312.865 285.535 312.862Z" fill="white"/>
<path d="M282.114 272.303C282.114 272.371 271.916 272.422 259.345 272.422C246.775 272.422 236.586 272.371 236.586 272.303C236.586 272.234 246.78 272.184 259.359 272.184C271.939 272.184 282.114 272.239 282.114 272.303Z" fill="white"/>
<path d="M247.374 314.973H241.517C240.814 314.973 240.244 315.543 240.244 316.246V316.351C240.244 317.054 240.814 317.624 241.517 317.624H247.374C248.077 317.624 248.647 317.054 248.647 316.351V316.246C248.647 315.543 248.077 314.973 247.374 314.973Z" fill="#E0E0E0"/>
<path d="M279.718 314.973H273.861C273.158 314.973 272.588 315.543 272.588 316.246V316.351C272.588 317.054 273.158 317.624 273.861 317.624H279.718C280.421 317.624 280.991 317.054 280.991 316.351V316.246C280.991 315.543 280.421 314.973 279.718 314.973Z" fill="#E0E0E0"/>
<path d="M233.753 143.943H105.494C105.133 143.944 104.775 144.017 104.442 144.159C104.108 144.3 103.807 144.507 103.555 144.766C103.303 145.026 103.105 145.333 102.974 145.671C102.843 146.008 102.78 146.368 102.79 146.729L107.991 323.37C108.012 324.075 108.307 324.744 108.813 325.235C109.32 325.726 109.997 326 110.703 326H238.924C239.287 326 239.647 325.927 239.981 325.786C240.315 325.645 240.618 325.438 240.871 325.177C241.124 324.917 241.322 324.608 241.453 324.269C241.585 323.931 241.647 323.569 241.636 323.206L236.435 146.573C236.416 145.873 236.125 145.207 235.625 144.717C235.125 144.226 234.454 143.949 233.753 143.943Z" fill="#407BFF"/>
<path opacity="0.2" d="M233.753 143.943H105.494C105.133 143.944 104.775 144.017 104.442 144.159C104.108 144.3 103.807 144.507 103.555 144.766C103.303 145.026 103.105 145.333 102.974 145.671C102.843 146.008 102.78 146.368 102.79 146.729L107.991 323.37C108.012 324.075 108.307 324.744 108.813 325.235C109.32 325.726 109.997 326 110.703 326H238.924C239.287 326 239.647 325.927 239.981 325.786C240.315 325.645 240.618 325.438 240.871 325.177C241.124 324.917 241.322 324.608 241.453 324.269C241.585 323.931 241.647 323.569 241.636 323.206L236.435 146.573C236.416 145.873 236.125 145.207 235.625 144.717C235.125 144.226 234.454 143.949 233.753 143.943Z" fill="black"/>
<path d="M133.661 139.83H121.625V140.573H133.661V139.83Z" fill="#407BFF"/>
<path d="M117.331 139.83H114.277V140.573H117.331V139.83Z" fill="#407BFF"/>
<path d="M234.987 143.943H106.736C106.374 143.943 106.015 144.016 105.681 144.157C105.347 144.298 105.045 144.504 104.792 144.764C104.539 145.023 104.341 145.331 104.209 145.669C104.077 146.007 104.015 146.367 104.024 146.729L109.225 323.37C109.248 324.074 109.544 324.742 110.05 325.233C110.556 325.723 111.232 325.999 111.937 326H240.166C240.528 325.999 240.887 325.926 241.22 325.784C241.554 325.642 241.856 325.435 242.108 325.174C242.36 324.914 242.557 324.606 242.688 324.268C242.819 323.93 242.881 323.569 242.87 323.206L237.669 146.573C237.648 145.874 237.357 145.209 236.857 144.719C236.358 144.229 235.687 143.951 234.987 143.943Z" fill="#407BFF"/>
<path opacity="0.2" d="M109.521 153.534L114.336 318.049C114.361 318.757 114.658 319.429 115.166 319.923C115.674 320.417 116.354 320.696 117.062 320.701H233.203C233.548 320.703 233.889 320.634 234.206 320.5C234.524 320.366 234.811 320.169 235.05 319.922C235.29 319.674 235.477 319.38 235.6 319.058C235.723 318.737 235.779 318.393 235.766 318.049L230.952 153.534C230.927 152.826 230.629 152.155 230.121 151.662C229.613 151.169 228.933 150.892 228.225 150.889H112.085C111.74 150.886 111.399 150.954 111.082 151.087C110.765 151.22 110.477 151.416 110.238 151.664C109.998 151.911 109.811 152.204 109.688 152.525C109.565 152.847 109.508 153.19 109.521 153.534Z" fill="black"/>
<path d="M110.322 151.198L115.137 315.713C115.162 316.421 115.459 317.091 115.968 317.584C116.476 318.077 117.155 318.355 117.863 318.358H234.004C234.348 318.36 234.689 318.293 235.007 318.16C235.324 318.026 235.611 317.83 235.851 317.583C236.09 317.336 236.277 317.043 236.4 316.721C236.523 316.4 236.58 316.057 236.567 315.713L231.753 151.198C231.728 150.49 231.43 149.82 230.922 149.326C230.413 148.833 229.734 148.556 229.026 148.553H112.885C112.541 148.551 112.2 148.618 111.883 148.751C111.565 148.884 111.278 149.08 111.039 149.328C110.799 149.575 110.612 149.868 110.489 150.189C110.366 150.511 110.309 150.854 110.322 151.198Z" fill="white"/>
<path d="M146.031 204.186H123.712L123.059 181.859H145.377L146.031 204.186Z" fill="#F5F5F5"/>
<path d="M218.693 190.723H155.586L155.467 186.562H218.574L218.693 190.723Z" fill="#E0E0E0"/>
<path d="M205.223 199.483H155.845L155.719 195.322H205.104L205.223 199.483Z" fill="#E0E0E0"/>
<path d="M147.203 244.223H124.884L124.23 221.904H146.549L147.203 244.223Z" fill="#F5F5F5"/>
<path d="M179.946 230.77H156.758L156.639 226.602H179.819L179.946 230.77Z" fill="#E0E0E0"/>
<path d="M201.902 230.77H184.851L184.725 226.602H201.783L201.902 230.77Z" fill="#E0E0E0"/>
<path d="M212.236 239.527H157.011L156.893 235.359H212.117L212.236 239.527Z" fill="#E0E0E0"/>
<path d="M148.379 284.27H126.06L125.406 261.943H147.725L148.379 284.27Z" fill="#F5F5F5"/>
<path d="M221.174 275.398H158.066L158.185 279.566H221.293L221.174 275.398Z" fill="#E0E0E0"/>
<path d="M207.192 266.646H157.807L157.933 270.807H207.311L207.192 266.646Z" fill="#E0E0E0"/>
<path d="M135.976 198.382C135.882 198.515 135.756 198.622 135.61 198.693C135.463 198.764 135.302 198.798 135.139 198.79C134.976 198.783 134.818 198.735 134.679 198.651C134.54 198.566 134.424 198.448 134.342 198.308C132.856 195.93 130.122 193.761 128.532 192.683C128.325 192.546 128.178 192.337 128.118 192.096C128.059 191.855 128.093 191.6 128.212 191.383C128.279 191.269 128.368 191.169 128.475 191.091C128.583 191.014 128.705 190.959 128.834 190.931C128.963 190.903 129.097 190.902 129.227 190.929C129.356 190.956 129.479 191.009 129.587 191.086C131.347 192.268 132.961 193.654 134.394 195.217C134.484 195.327 134.597 195.416 134.726 195.477C134.854 195.538 134.995 195.57 135.137 195.57C135.279 195.57 135.42 195.538 135.548 195.477C135.677 195.416 135.79 195.327 135.88 195.217C139.214 191.26 143.019 187.725 147.21 184.689C147.419 184.536 147.68 184.472 147.937 184.511C148.193 184.55 148.423 184.689 148.577 184.897C148.656 184.997 148.713 185.112 148.747 185.235C148.781 185.358 148.79 185.486 148.775 185.612C148.759 185.739 148.718 185.861 148.655 185.971C148.592 186.082 148.507 186.179 148.406 186.257C142.7 190.573 138.644 194.548 136.014 198.382H135.976Z" fill="#407BFF"/>
<path d="M137.152 238.428C137.056 238.559 136.929 238.664 136.783 238.733C136.636 238.803 136.475 238.835 136.313 238.827C136.151 238.819 135.994 238.771 135.855 238.687C135.716 238.603 135.6 238.486 135.518 238.347C134.069 235.969 131.298 233.8 129.7 232.73C129.495 232.592 129.349 232.381 129.291 232.14C129.233 231.9 129.268 231.646 129.388 231.43C129.457 231.316 129.548 231.218 129.656 231.142C129.764 231.065 129.887 231.012 130.016 230.984C130.146 230.957 130.28 230.957 130.409 230.984C130.539 231.01 130.662 231.064 130.77 231.14C132.53 232.317 134.141 233.701 135.57 235.263C135.66 235.372 135.774 235.46 135.902 235.52C136.031 235.581 136.171 235.612 136.313 235.612C136.455 235.612 136.595 235.581 136.723 235.52C136.851 235.46 136.965 235.372 137.056 235.263C140.381 231.311 144.176 227.778 148.356 224.743C148.459 224.666 148.577 224.611 148.702 224.58C148.826 224.549 148.956 224.543 149.083 224.562C149.21 224.581 149.332 224.626 149.442 224.692C149.552 224.759 149.648 224.847 149.723 224.951C149.879 225.153 149.949 225.409 149.917 225.662C149.885 225.916 149.754 226.146 149.552 226.303C143.846 230.627 139.79 234.602 137.16 238.436L137.152 238.428Z" fill="#407BFF"/>
<path d="M138.296 278.557C138.2 278.687 138.073 278.792 137.927 278.862C137.78 278.931 137.619 278.964 137.457 278.956C137.295 278.947 137.138 278.899 136.999 278.815C136.86 278.732 136.744 278.615 136.662 278.475C135.176 276.098 132.442 273.928 130.852 272.858C130.646 272.72 130.5 272.51 130.441 272.27C130.382 272.029 130.414 271.776 130.532 271.558C130.599 271.444 130.688 271.344 130.795 271.266C130.902 271.188 131.025 271.134 131.154 271.106C131.283 271.078 131.417 271.077 131.547 271.104C131.676 271.131 131.799 271.184 131.907 271.261C133.666 272.442 135.279 273.826 136.714 275.384C136.804 275.493 136.918 275.581 137.046 275.642C137.175 275.702 137.315 275.733 137.457 275.733C137.599 275.733 137.739 275.702 137.867 275.642C137.996 275.581 138.109 275.493 138.2 275.384C141.521 271.43 145.313 267.897 149.493 264.864C149.596 264.787 149.713 264.732 149.838 264.701C149.963 264.67 150.093 264.664 150.22 264.683C150.347 264.702 150.469 264.747 150.579 264.813C150.689 264.88 150.784 264.968 150.86 265.072C150.939 265.171 150.998 265.285 151.032 265.408C151.066 265.53 151.076 265.658 151.06 265.784C151.044 265.91 151.003 266.032 150.939 266.142C150.876 266.252 150.79 266.348 150.689 266.424C144.99 270.748 140.926 274.723 138.296 278.557Z" fill="#407BFF"/>
<path d="M189.866 308.364C187.374 308.386 184.951 307.546 183.008 305.986C181.463 304.916 180.036 303.913 177.116 303.913C175.003 303.874 172.949 304.612 171.343 305.986C169.471 307.553 167.098 308.396 164.657 308.364C162.162 308.388 159.737 307.548 157.792 305.986C156.246 304.916 154.82 303.913 151.9 303.913C149.789 303.873 147.736 304.611 146.135 305.986C144.261 307.551 141.889 308.394 139.448 308.364C136.956 308.386 134.533 307.546 132.59 305.986C131.045 304.916 129.618 303.913 126.698 303.913L126.646 302.242C129.141 302.218 131.566 303.058 133.511 304.619C135.169 305.985 137.256 306.719 139.403 306.692C141.514 306.733 143.567 305.995 145.169 304.619C147.052 303.045 149.438 302.201 151.893 302.242C154.384 302.219 156.807 303.059 158.75 304.619C160.295 305.689 161.722 306.692 164.642 306.692C166.753 306.733 168.805 305.995 170.407 304.619C172.291 303.047 174.677 302.203 177.131 302.242C179.625 302.218 182.051 303.058 183.996 304.619C185.542 305.689 186.968 306.692 189.888 306.692L189.866 308.364Z" fill="#EBEBEB"/>
<path d="M200.922 147.519H200.781C199.064 142.073 194.948 138.462 190.453 138.462H181.3C180.591 138.436 179.909 138.19 179.346 137.759C178.783 137.328 178.368 136.732 178.157 136.055C176.931 132.585 173.922 130.111 170.468 130.111C167.013 130.111 164.138 132.585 163.09 136.055C162.915 136.729 162.527 137.327 161.983 137.761C161.439 138.195 160.769 138.441 160.073 138.462H150.928C146.433 138.462 142.502 142.073 141.076 147.519H140.942C140.681 147.537 140.426 147.607 140.192 147.724C139.958 147.842 139.75 148.006 139.581 148.205C139.411 148.404 139.283 148.636 139.204 148.886C139.125 149.135 139.097 149.398 139.122 149.659C139.109 150.194 139.302 150.714 139.662 151.111C140.021 151.508 140.52 151.751 141.054 151.791H201.048C201.309 151.774 201.564 151.705 201.799 151.588C202.033 151.472 202.241 151.309 202.411 151.11C202.582 150.912 202.711 150.681 202.79 150.431C202.87 150.182 202.899 149.919 202.876 149.659C202.89 149.119 202.695 148.594 202.331 148.195C201.966 147.796 201.461 147.553 200.922 147.519Z" fill="#263238"/>
<path d="M271.704 161.242L257.549 156.735C254.989 155.92 252.253 157.335 251.438 159.895L235.984 208.436C235.169 210.996 236.584 213.732 239.143 214.547L253.299 219.053C255.858 219.868 258.594 218.454 259.409 215.894L274.863 167.353C275.678 164.793 274.264 162.057 271.704 161.242Z" fill="black"/>
<path opacity="0.8" d="M275.085 166.048C275.076 166.5 275.001 166.948 274.862 167.378L259.41 215.94C259.357 216.105 259.296 216.267 259.226 216.425C258.744 217.524 257.872 218.406 256.778 218.9C255.685 219.393 254.447 219.465 253.303 219.1L239.141 214.594C237.934 214.207 236.925 213.364 236.33 212.244C235.735 211.124 235.601 209.817 235.957 208.6L244.873 180.601L251.409 159.894C251.6 159.284 251.91 158.717 252.32 158.227C252.731 157.736 253.234 157.331 253.801 157.036C254.368 156.74 254.988 156.559 255.626 156.503C256.263 156.447 256.905 156.517 257.515 156.71L271.709 161.272C272.019 161.371 272.318 161.501 272.601 161.662C273.378 162.094 274.021 162.732 274.459 163.506C274.897 164.28 275.114 165.159 275.085 166.048Z" fill="white"/>
<g opacity="0.6">
<path opacity="0.5" d="M240.836 193.204L247.26 173.038L265.451 159.25L272.616 161.638C273.394 162.071 274.038 162.711 274.476 163.486C274.914 164.261 275.13 165.143 275.1 166.033L240.836 193.204Z" fill="white"/>
</g>
<path opacity="0.5" d="M249.816 164.934L251.409 159.894C251.6 159.284 251.91 158.717 252.32 158.227C252.731 157.736 253.234 157.331 253.801 157.036C254.368 156.74 254.988 156.559 255.625 156.503C256.263 156.447 256.905 156.517 257.515 156.71L259.64 157.387L249.816 164.934Z" fill="white"/>
<path d="M259.585 164.735C259.473 165.086 259.26 165.396 258.972 165.626C258.684 165.855 258.334 165.995 257.967 166.026C257.6 166.057 257.232 165.978 256.909 165.8C256.587 165.622 256.325 165.352 256.155 165.025C255.986 164.698 255.918 164.328 255.959 163.962C256 163.595 256.149 163.25 256.386 162.968C256.624 162.687 256.94 162.482 257.294 162.38C257.648 162.278 258.024 162.283 258.375 162.394C258.609 162.468 258.826 162.587 259.013 162.744C259.201 162.902 259.355 163.095 259.468 163.312C259.58 163.53 259.649 163.768 259.669 164.012C259.689 164.256 259.66 164.502 259.585 164.735Z" fill="#2C68BF"/>
<path d="M256.034 175.864C255.922 176.213 255.709 176.522 255.422 176.75C255.135 176.978 254.786 177.116 254.421 177.147C254.055 177.177 253.689 177.099 253.368 176.921C253.047 176.743 252.786 176.474 252.618 176.148C252.45 175.822 252.383 175.453 252.424 175.089C252.465 174.724 252.614 174.38 252.851 174.1C253.088 173.82 253.402 173.617 253.755 173.515C254.107 173.414 254.482 173.42 254.831 173.531C255.064 173.605 255.279 173.725 255.465 173.882C255.651 174.039 255.804 174.232 255.916 174.449C256.027 174.665 256.095 174.902 256.116 175.144C256.136 175.387 256.108 175.632 256.034 175.864Z" fill="#2C68BF"/>
<path d="M252.492 187.001C252.381 187.353 252.169 187.664 251.881 187.895C251.594 188.126 251.244 188.267 250.877 188.299C250.509 188.331 250.14 188.253 249.817 188.075C249.494 187.898 249.231 187.628 249.061 187.301C248.891 186.973 248.822 186.603 248.863 186.236C248.904 185.87 249.053 185.524 249.291 185.242C249.528 184.96 249.845 184.755 250.199 184.653C250.554 184.551 250.93 184.556 251.282 184.669C251.514 184.742 251.731 184.86 251.918 185.017C252.104 185.175 252.259 185.367 252.371 185.584C252.483 185.8 252.552 186.037 252.573 186.28C252.593 186.524 252.566 186.769 252.492 187.001Z" fill="#2C68BF"/>
<path d="M248.948 198.139C248.837 198.49 248.623 198.8 248.335 199.03C248.047 199.26 247.698 199.399 247.33 199.43C246.963 199.461 246.595 199.383 246.273 199.204C245.95 199.026 245.688 198.757 245.519 198.429C245.349 198.102 245.281 197.732 245.322 197.366C245.363 197 245.512 196.654 245.75 196.372C245.987 196.091 246.303 195.886 246.657 195.784C247.011 195.682 247.387 195.687 247.738 195.799C247.972 195.872 248.189 195.991 248.377 196.148C248.564 196.306 248.719 196.499 248.831 196.717C248.944 196.934 249.012 197.172 249.032 197.416C249.052 197.66 249.024 197.906 248.948 198.139Z" fill="#2C68BF"/>
<path d="M245.406 209.269C245.295 209.621 245.083 209.932 244.795 210.163C244.508 210.394 244.158 210.534 243.791 210.566C243.423 210.598 243.054 210.521 242.731 210.343C242.408 210.165 242.145 209.896 241.975 209.568C241.805 209.241 241.736 208.87 241.777 208.504C241.818 208.137 241.967 207.791 242.205 207.509C242.443 207.227 242.759 207.022 243.113 206.92C243.468 206.818 243.844 206.824 244.196 206.936C244.664 207.088 245.053 207.418 245.279 207.854C245.506 208.291 245.551 208.799 245.406 209.269Z" fill="#2C68BF"/>
<path d="M268.533 167.585C268.361 168.026 268.027 168.386 267.599 168.591C267.172 168.795 266.682 168.829 266.23 168.684C265.778 168.54 265.399 168.229 265.168 167.815C264.938 167.401 264.874 166.914 264.99 166.454C265.052 166.207 265.164 165.976 265.319 165.775C265.474 165.573 265.669 165.405 265.891 165.282C266.114 165.158 266.359 165.081 266.612 165.056C266.865 165.031 267.12 165.058 267.363 165.135C267.605 165.212 267.829 165.338 268.021 165.506C268.212 165.673 268.368 165.877 268.477 166.107C268.587 166.336 268.648 166.586 268.658 166.84C268.668 167.094 268.625 167.347 268.533 167.585Z" fill="#2C68BF"/>
<path d="M264.989 178.715C264.878 179.064 264.666 179.373 264.379 179.602C264.093 179.83 263.745 179.969 263.38 180C263.014 180.031 262.648 179.953 262.327 179.776C262.006 179.599 261.744 179.331 261.576 179.006C261.407 178.681 261.338 178.312 261.378 177.948C261.419 177.584 261.566 177.239 261.802 176.959C262.038 176.678 262.351 176.473 262.703 176.371C263.055 176.268 263.43 176.272 263.779 176.383C264.248 176.532 264.639 176.862 264.866 177.299C265.092 177.736 265.137 178.245 264.989 178.715Z" fill="#2C68BF"/>
<path d="M261.449 189.853C261.338 190.205 261.126 190.516 260.838 190.747C260.551 190.978 260.201 191.118 259.834 191.15C259.466 191.182 259.097 191.105 258.774 190.927C258.451 190.749 258.188 190.48 258.018 190.152C257.848 189.825 257.779 189.454 257.82 189.088C257.861 188.721 258.01 188.375 258.248 188.093C258.485 187.811 258.802 187.606 259.156 187.504C259.511 187.402 259.887 187.408 260.239 187.52C260.706 187.672 261.096 188.002 261.322 188.438C261.549 188.875 261.594 189.383 261.449 189.853Z" fill="#2C68BF"/>
<path d="M257.898 200.989C257.726 201.431 257.392 201.791 256.965 201.995C256.537 202.199 256.047 202.233 255.595 202.089C255.144 201.945 254.764 201.634 254.534 201.219C254.303 200.805 254.239 200.318 254.355 199.858C254.418 199.612 254.53 199.381 254.685 199.179C254.84 198.977 255.034 198.809 255.257 198.686C255.479 198.562 255.724 198.486 255.977 198.46C256.23 198.435 256.486 198.462 256.728 198.539C256.97 198.617 257.194 198.743 257.386 198.91C257.578 199.077 257.733 199.282 257.843 199.511C257.952 199.741 258.014 199.99 258.023 200.244C258.033 200.498 257.99 200.752 257.898 200.989Z" fill="#2C68BF"/>
<path d="M254.355 212.119C254.243 212.469 254.031 212.777 253.744 213.006C253.458 213.235 253.11 213.373 252.745 213.404C252.38 213.435 252.013 213.358 251.692 213.181C251.371 213.004 251.11 212.736 250.941 212.41C250.772 212.085 250.703 211.717 250.744 211.352C250.784 210.988 250.931 210.644 251.167 210.363C251.403 210.082 251.717 209.878 252.068 209.775C252.42 209.673 252.795 209.677 253.145 209.787C253.614 209.937 254.004 210.266 254.231 210.703C254.458 211.141 254.502 211.65 254.355 212.119Z" fill="#2C68BF"/>
<g opacity="0.4">
<path d="M259.585 164.735C259.473 165.086 259.26 165.396 258.972 165.626C258.684 165.855 258.334 165.995 257.967 166.026C257.6 166.057 257.232 165.978 256.909 165.8C256.587 165.622 256.325 165.352 256.155 165.025C255.986 164.698 255.918 164.328 255.959 163.962C256 163.595 256.149 163.25 256.386 162.968C256.624 162.687 256.94 162.482 257.294 162.38C257.648 162.278 258.024 162.283 258.375 162.394C258.609 162.468 258.826 162.587 259.013 162.744C259.201 162.902 259.355 163.095 259.468 163.312C259.58 163.53 259.649 163.768 259.669 164.012C259.689 164.256 259.66 164.502 259.585 164.735Z" fill="white"/>
<path d="M256.034 175.864C255.922 176.213 255.709 176.522 255.422 176.75C255.135 176.978 254.786 177.116 254.421 177.147C254.055 177.177 253.689 177.099 253.368 176.921C253.047 176.743 252.786 176.474 252.618 176.148C252.45 175.822 252.383 175.453 252.424 175.089C252.465 174.724 252.614 174.38 252.851 174.1C253.088 173.82 253.402 173.617 253.755 173.515C254.107 173.414 254.482 173.42 254.831 173.531C255.064 173.605 255.279 173.725 255.465 173.882C255.651 174.039 255.804 174.232 255.916 174.449C256.027 174.665 256.095 174.902 256.116 175.144C256.136 175.387 256.108 175.632 256.034 175.864Z" fill="white"/>
<path d="M252.492 187.001C252.381 187.353 252.169 187.664 251.881 187.895C251.594 188.126 251.244 188.267 250.877 188.299C250.509 188.331 250.14 188.253 249.817 188.075C249.494 187.898 249.231 187.628 249.061 187.301C248.891 186.973 248.822 186.603 248.863 186.236C248.904 185.87 249.053 185.524 249.291 185.242C249.528 184.96 249.845 184.755 250.199 184.653C250.554 184.551 250.93 184.556 251.282 184.669C251.514 184.742 251.731 184.86 251.918 185.017C252.104 185.175 252.259 185.367 252.371 185.584C252.483 185.8 252.552 186.037 252.573 186.28C252.593 186.524 252.566 186.769 252.492 187.001Z" fill="white"/>
<path d="M248.948 198.139C248.837 198.49 248.623 198.8 248.335 199.03C248.047 199.26 247.698 199.399 247.33 199.43C246.963 199.461 246.595 199.383 246.273 199.204C245.95 199.026 245.688 198.757 245.519 198.429C245.349 198.102 245.281 197.732 245.322 197.366C245.363 197 245.512 196.654 245.75 196.372C245.987 196.091 246.303 195.886 246.657 195.784C247.011 195.682 247.387 195.687 247.738 195.799C247.972 195.872 248.189 195.991 248.377 196.148C248.564 196.306 248.719 196.499 248.831 196.717C248.944 196.934 249.012 197.172 249.032 197.416C249.052 197.66 249.024 197.906 248.948 198.139Z" fill="white"/>
<path d="M245.406 209.269C245.295 209.621 245.083 209.932 244.795 210.163C244.508 210.394 244.158 210.534 243.791 210.566C243.423 210.598 243.054 210.521 242.731 210.343C242.408 210.165 242.145 209.896 241.975 209.568C241.805 209.241 241.736 208.87 241.777 208.504C241.818 208.137 241.967 207.791 242.205 207.509C242.443 207.227 242.759 207.022 243.113 206.92C243.468 206.818 243.844 206.824 244.196 206.936C244.664 207.088 245.053 207.418 245.279 207.854C245.506 208.291 245.551 208.799 245.406 209.269Z" fill="white"/>
</g>
<g opacity="0.4">
<path d="M268.533 167.585C268.361 168.026 268.027 168.386 267.599 168.591C267.172 168.795 266.682 168.829 266.23 168.684C265.778 168.54 265.399 168.229 265.168 167.815C264.938 167.401 264.874 166.914 264.99 166.454C265.052 166.207 265.164 165.976 265.319 165.775C265.474 165.573 265.669 165.405 265.891 165.282C266.114 165.158 266.359 165.081 266.612 165.056C266.865 165.031 267.12 165.058 267.363 165.135C267.605 165.212 267.829 165.338 268.021 165.506C268.212 165.673 268.368 165.877 268.477 166.107C268.587 166.336 268.648 166.586 268.658 166.84C268.668 167.094 268.625 167.347 268.533 167.585Z" fill="white"/>
<path d="M264.989 178.715C264.878 179.064 264.666 179.373 264.379 179.602C264.093 179.83 263.745 179.969 263.38 180C263.014 180.031 262.648 179.953 262.327 179.776C262.006 179.599 261.744 179.331 261.576 179.006C261.407 178.681 261.338 178.312 261.378 177.948C261.419 177.584 261.566 177.239 261.802 176.959C262.038 176.678 262.351 176.473 262.703 176.371C263.055 176.268 263.43 176.272 263.779 176.383C264.248 176.532 264.639 176.862 264.866 177.299C265.092 177.736 265.137 178.245 264.989 178.715Z" fill="white"/>
<path d="M261.449 189.851C261.338 190.203 261.126 190.514 260.838 190.745C260.551 190.976 260.201 191.116 259.834 191.148C259.466 191.18 259.097 191.103 258.774 190.925C258.451 190.747 258.188 190.478 258.018 190.15C257.848 189.823 257.779 189.453 257.82 189.086C257.861 188.719 258.01 188.373 258.248 188.091C258.485 187.809 258.802 187.604 259.156 187.502C259.511 187.4 259.887 187.406 260.239 187.518C260.706 187.67 261.096 188 261.322 188.436C261.549 188.873 261.594 189.381 261.449 189.851Z" fill="white"/>
<path d="M257.898 200.989C257.726 201.431 257.392 201.791 256.965 201.995C256.537 202.199 256.047 202.233 255.595 202.089C255.144 201.945 254.764 201.634 254.534 201.219C254.303 200.805 254.239 200.318 254.355 199.858C254.418 199.612 254.53 199.381 254.685 199.179C254.84 198.977 255.034 198.809 255.257 198.686C255.479 198.562 255.724 198.486 255.977 198.46C256.23 198.435 256.486 198.462 256.728 198.539C256.97 198.617 257.194 198.743 257.386 198.91C257.578 199.077 257.733 199.282 257.843 199.511C257.952 199.741 258.014 199.99 258.023 200.244C258.033 200.498 257.99 200.752 257.898 200.989Z" fill="white"/>
<path d="M254.355 212.119C254.243 212.469 254.031 212.777 253.744 213.006C253.458 213.235 253.11 213.373 252.745 213.404C252.38 213.435 252.013 213.358 251.692 213.181C251.371 213.004 251.11 212.736 250.941 212.41C250.772 212.085 250.703 211.717 250.744 211.352C250.784 210.988 250.931 210.644 251.167 210.363C251.403 210.082 251.717 209.878 252.068 209.775C252.42 209.673 252.795 209.677 253.145 209.787C253.614 209.937 254.004 210.266 254.231 210.703C254.458 211.141 254.502 211.65 254.355 212.119Z" fill="white"/>
</g>
<path d="M244.912 216.999L220.456 222.046C219.331 222.277 218.16 222.052 217.201 221.42C216.241 220.789 215.571 219.803 215.337 218.679L208.3 184.558C207.842 182.359 208.111 180.071 209.067 178.039C210.024 176.007 211.615 174.341 213.602 173.293C214.466 172.835 215.39 172.502 216.348 172.306L228.982 169.703C230.315 169.426 231.69 169.415 233.027 169.67C234.365 169.925 235.639 170.442 236.776 171.19C237.914 171.938 238.892 172.904 239.656 174.031C240.419 175.158 240.953 176.425 241.226 177.759L248.272 211.88C248.388 212.437 248.394 213.011 248.288 213.57C248.182 214.129 247.967 214.661 247.654 215.137C247.342 215.612 246.94 216.021 246.469 216.341C245.998 216.661 245.469 216.884 244.912 216.999Z" fill="#8CB0FF"/>
<path d="M241.546 179.323L208.613 186.119L213.839 211.443L246.772 204.647L241.546 179.323Z" fill="#2C68BF"/>
<path opacity="0.4" d="M241.546 179.323L208.613 186.119L213.839 211.443L246.772 204.647L241.546 179.323Z" fill="#626262"/>
<path d="M212.456 164.947L230.389 161.246C230.679 161.186 230.977 161.184 231.268 161.24C231.558 161.295 231.835 161.408 232.082 161.57C232.33 161.733 232.542 161.943 232.708 162.188C232.875 162.432 232.991 162.707 233.051 162.997L233.751 166.389L211.374 171.006L210.668 167.584C210.612 167.293 210.614 166.994 210.674 166.705C210.733 166.415 210.85 166.14 211.016 165.895C211.182 165.65 211.395 165.44 211.642 165.277C211.889 165.115 212.166 165.002 212.456 164.947Z" fill="#2C68BF"/>
<path opacity="0.7" d="M232.837 169.631C231.559 169.417 230.253 169.441 228.984 169.703L216.382 172.306C215.424 172.503 214.499 172.835 213.635 173.293L213.094 170.658L232.264 166.678L232.837 169.631Z" fill="white"/>
<path opacity="0.3" d="M213.275 175.173C213.265 175.043 213.213 174.92 213.128 174.822C213.043 174.723 212.929 174.654 212.802 174.625C212.675 174.596 212.542 174.608 212.423 174.659C212.303 174.71 212.203 174.798 212.137 174.91C211.247 176.336 210.84 178.011 210.974 179.687C211.404 182.553 217.518 213.799 218.458 218.584C218.539 218.978 218.752 219.332 219.063 219.587C219.269 219.752 219.511 219.867 219.769 219.923C220.027 219.98 220.295 219.976 220.551 219.913L221.483 219.682L213.522 178.835C213.522 178.835 213.379 176.876 213.275 175.173Z" fill="white"/>
<path d="M112.25 186.762C110.488 182.726 96.5488 185.409 96.5488 185.409C96.5488 185.409 82.7246 188.594 82.7422 192.995C82.7422 192.995 83.1035 215.846 90.0552 234.406C91.286 237.696 93.048 240.762 95.2712 243.481C98.148 247.006 102.646 252.772 105.435 257.676C107.626 261.441 109.576 265.342 111.272 269.354L121.691 318.651C121.85 319.394 122.298 320.043 122.935 320.456C123.573 320.869 124.348 321.012 125.092 320.854L125.202 320.832C125.943 320.672 126.592 320.225 127.005 319.588C127.417 318.952 127.561 318.178 127.404 317.435L117.069 268.535C117.03 267.601 116.875 262.887 117.668 255.068C118.232 249.455 120.012 242.358 121.219 237.975C122.151 234.588 122.521 231.071 122.316 227.565C121.162 207.802 112.25 186.762 112.25 186.762Z" fill="#218130"/>
<path d="M103.477 198.629L95.5809 200.299C90.7868 201.313 87.7222 206.021 88.736 210.815L91.7875 225.246C92.8012 230.04 97.5095 233.104 102.304 232.091L110.2 230.421C114.994 229.407 118.058 224.699 117.045 219.905L113.993 205.474C112.979 200.68 108.271 197.616 103.477 198.629Z" fill="#263238"/>
<path d="M125.092 320.881C124.349 321.039 123.573 320.896 122.935 320.483C122.298 320.07 121.85 319.421 121.691 318.678L119.457 308.105L125.07 306.92L127.303 317.493C127.457 318.235 127.311 319.008 126.896 319.643C126.482 320.278 125.833 320.723 125.092 320.881Z" fill="#E0E0E0"/>
<path d="M101.976 216.243C102.347 216.5 102.6 216.895 102.681 217.34C102.757 217.684 102.733 218.044 102.61 218.375C102.478 218.729 102.243 219.035 101.936 219.256C101.552 219.532 101.111 219.719 100.645 219.802C100.211 219.895 99.7658 219.922 99.3238 219.882C98.9238 219.851 98.5328 219.748 98.1696 219.578L98.4735 218.582C98.7576 218.73 99.067 218.822 99.3854 218.855C99.7277 218.898 100.075 218.883 100.412 218.811C100.751 218.76 101.066 218.607 101.315 218.37C101.409 218.271 101.477 218.15 101.512 218.017C101.548 217.885 101.55 217.746 101.518 217.613C101.494 217.481 101.439 217.356 101.356 217.251C101.273 217.146 101.165 217.063 101.042 217.009C100.701 216.891 100.332 216.88 99.9846 216.978L99.4207 217.097L99.2533 216.313L100.302 214.353L97.5308 214.925L97.3281 213.965L101.531 213.084L101.694 213.851L100.575 215.948C101.062 215.88 101.557 215.984 101.976 216.243Z" fill="white"/>
<path d="M106.959 214.635C107.294 214.717 107.6 214.893 107.84 215.141C108.088 215.399 108.256 215.724 108.324 216.075C108.41 216.448 108.382 216.838 108.245 217.194C108.109 217.543 107.88 217.847 107.584 218.075C107.26 218.317 106.887 218.484 106.492 218.564C106.129 218.663 105.75 218.679 105.381 218.614C105.011 218.548 104.661 218.402 104.355 218.186C103.711 217.649 103.289 216.892 103.17 216.062C103.022 215.453 103.022 214.817 103.17 214.207C103.308 213.694 103.597 213.234 103.998 212.886C104.425 212.519 104.942 212.271 105.496 212.168C105.796 212.1 106.104 212.071 106.412 212.08C106.681 212.082 106.948 212.13 107.201 212.221L106.963 213.172C106.564 213.036 106.134 213.018 105.725 213.119C105.465 213.161 105.216 213.258 104.996 213.403C104.776 213.548 104.589 213.738 104.447 213.961C104.181 214.48 104.121 215.082 104.28 215.644C104.423 215.389 104.628 215.174 104.875 215.018C105.155 214.841 105.466 214.717 105.791 214.652C106.174 214.557 106.573 214.55 106.959 214.635ZM107.069 217.199C107.158 217.082 107.22 216.946 107.249 216.802C107.279 216.658 107.276 216.509 107.24 216.366C107.217 216.219 107.16 216.08 107.074 215.959C106.987 215.838 106.874 215.739 106.743 215.67C106.439 215.54 106.103 215.508 105.78 215.579C105.458 215.65 105.166 215.821 104.945 216.067C104.854 216.183 104.789 216.318 104.757 216.462C104.724 216.606 104.724 216.755 104.756 216.899C104.784 217.041 104.843 217.176 104.929 217.292C105.015 217.409 105.126 217.505 105.254 217.573C105.565 217.727 105.923 217.762 106.258 217.67C106.577 217.617 106.865 217.45 107.069 217.199Z" fill="white"/>
<path d="M109.074 213.843C108.812 213.782 108.574 213.646 108.388 213.452C108.202 213.258 108.076 213.014 108.026 212.75C107.968 212.491 107.985 212.221 108.074 211.97C108.169 211.718 108.332 211.497 108.545 211.332C108.776 211.151 109.046 211.027 109.334 210.97C109.624 210.9 109.926 210.9 110.215 210.97C110.475 211.037 110.711 211.175 110.898 211.367C111.081 211.559 111.206 211.799 111.259 212.059C111.319 212.32 111.302 212.594 111.211 212.846C111.12 213.098 110.957 213.319 110.744 213.481C110.512 213.664 110.24 213.788 109.951 213.843C109.663 213.913 109.362 213.913 109.074 213.843ZM110.396 212.869C110.458 212.776 110.5 212.67 110.519 212.559C110.538 212.448 110.534 212.335 110.506 212.226C110.486 212.117 110.444 212.013 110.382 211.921C110.32 211.829 110.239 211.752 110.145 211.693C109.944 211.574 109.705 211.539 109.479 211.596C109.25 211.635 109.046 211.764 108.911 211.953C108.847 212.044 108.804 212.148 108.784 212.257C108.765 212.367 108.769 212.479 108.797 212.587C108.815 212.698 108.856 212.804 108.918 212.898C108.979 212.992 109.059 213.072 109.153 213.133C109.359 213.242 109.595 213.275 109.822 213.226C110.049 213.178 110.252 213.052 110.396 212.869Z" fill="white"/>
<path d="M95.2784 204.896L92.6621 205.449L92.9244 206.691L95.5407 206.138L95.2784 204.896Z" fill="white"/>
</svg>
