<svg width="25" height="5" viewBox="0 0 25 5" fill="none" xmlns="http://www.w3.org/2000/svg">
<path d="M12.5 0C13.8807 -6.03528e-08 15 1.11929 15 2.5C15 3.88071 13.8807 5 12.5 5C11.1193 5 10 3.88071 10 2.5C10 1.11929 11.1193 6.03528e-08 12.5 0Z" fill="#3C8AFF"/>
<path d="M2.5 0C3.88071 -6.03528e-08 5 1.11929 5 2.5C5 3.88071 3.88071 5 2.5 5C1.11929 5 6.0353e-08 3.88071 0 2.5C-6.03527e-08 1.11929 1.11929 6.03528e-08 2.5 0Z" fill="#3C8AFF"/>
<path d="M22.5 0C23.8807 -6.03528e-08 25 1.11929 25 2.5C25 3.88071 23.8807 5 22.5 5C21.1193 5 20 3.88071 20 2.5C20 1.11929 21.1193 6.03528e-08 22.5 0Z" fill="#3C8AFF"/>
</svg>
