<svg width="85" height="103" viewBox="0 0 85 103" fill="none" xmlns="http://www.w3.org/2000/svg">
<path d="M82.0619 82.7702L47.3611 102.807L8.28516 80.1921L42.9859 60.1602L82.0619 82.7702Z" fill="#E6E6E6"/>
<path opacity="0.5" d="M82.0619 82.7702L47.3611 102.807L8.28516 80.1921L42.9859 60.1602L82.0619 82.7702Z" fill="black"/>
<path d="M42.9859 33V60.1594L8.28516 80.1913V53.0367L42.9859 33Z" fill="#E6E6E6"/>
<path opacity="0.23" d="M42.9859 33V60.1594L8.28516 80.1913V53.0367L42.9859 33Z" fill="black"/>
<path d="M47.3611 75.6491V102.808L8.28516 80.1937V53.0391L47.3611 75.6491Z" fill="#E6E6E6"/>
<path opacity="0.38" d="M47.3611 75.6491V102.808L8.28516 80.1937V53.0391L47.3611 75.6491Z" fill="black"/>
<path d="M82.0603 55.6101V82.7694L42.9844 60.1594V33L82.0603 55.6101Z" fill="#E6E6E6"/>
<path opacity="0.4" d="M82.0603 55.6101V82.7694L42.9844 60.1594V33L82.0603 55.6101Z" fill="black"/>
<path d="M82.0601 82.7687V55.6094L47.3594 75.646V102.805L82.0601 82.7687Z" fill="#E6E6E6"/>
<path opacity="0.23" d="M82.0601 82.7687V55.6094L47.3594 75.646V102.805L82.0601 82.7687Z" fill="black"/>
<path d="M42.9844 33.0006L43.0314 17.9648L82.0133 40.6031L82.0603 55.6106L42.9844 33.0006Z" fill="#E6E6E6"/>
<path opacity="0.2" d="M42.9844 33.0006L43.0314 17.9648L82.0133 40.6031L82.0603 55.6106L42.9844 33.0006Z" fill="black"/>
<path d="M47.3594 75.6477L50.6149 62.4938L85.0005 42.6406L82.0601 55.6111L47.3594 75.6477Z" fill="#E6E6E6"/>
<path opacity="0.3" d="M47.3594 75.6477L50.6149 62.4938L85.0005 42.6406L82.0601 55.6111L47.3594 75.6477Z" fill="black"/>
<path d="M8.28453 53.0384L4.14453 39.3952L38.8453 19.3633L42.9853 33.0018L8.28453 53.0384Z" fill="#E6E6E6"/>
<path opacity="0.1" d="M8.28453 53.0384L4.14453 39.3952L38.8453 19.3633L42.9853 33.0018L8.28453 53.0384Z" fill="black"/>
<path d="M8.28428 53.0385L0.117188 41.7617L39.1979 64.3718L47.3603 75.6486L8.28428 53.0385Z" fill="#E6E6E6"/>
<path opacity="0.45" d="M8.28428 53.0385L0.117188 41.7617L39.1979 64.3718L47.3603 75.6486L8.28428 53.0385Z" fill="black"/>
<g opacity="0.7">
<path d="M57.5797 94.7275C57.5231 94.7275 57.4688 94.7053 57.4283 94.6657C57.3879 94.6262 57.3645 94.5723 57.3633 94.5158V89.7359C57.3645 89.6789 57.3877 89.6246 57.428 89.5842C57.4683 89.5439 57.5227 89.5207 57.5797 89.5195C57.6363 89.5208 57.6901 89.5441 57.7297 89.5846C57.7693 89.625 57.7914 89.6793 57.7914 89.7359V94.5158C57.7914 94.5719 57.7691 94.6258 57.7294 94.6655C57.6897 94.7052 57.6358 94.7275 57.5797 94.7275Z" fill="white"/>
<path d="M56.9514 91.3925C56.9234 91.3969 56.8948 91.3969 56.8668 91.3925C56.8154 91.3688 56.7751 91.3264 56.7541 91.2739C56.7331 91.2214 56.733 91.1628 56.7539 91.1103L57.516 89.3555L58.3628 90.334C58.3931 90.3778 58.4062 90.4313 58.3996 90.4841C58.3929 90.5369 58.367 90.5855 58.3268 90.6204C58.2866 90.6554 58.235 90.6743 58.1817 90.6735C58.1285 90.6728 58.0774 90.6524 58.0382 90.6163L57.6383 90.1458L57.1678 91.2749C57.1475 91.3138 57.1161 91.3457 57.0775 91.3666C57.039 91.3876 56.9951 91.3966 56.9514 91.3925Z" fill="white"/>
<path d="M59.5515 93.6017C59.495 93.6004 59.4411 93.5771 59.4016 93.5366C59.362 93.4962 59.3398 93.4419 59.3398 93.3853V88.6101C59.3398 88.554 59.3621 88.5001 59.4019 88.4604C59.4416 88.4207 59.4954 88.3984 59.5515 88.3984C59.6077 88.3984 59.6615 88.4207 59.7012 88.4604C59.741 88.5001 59.7633 88.554 59.7633 88.6101V93.3806C59.7639 93.409 59.7589 93.4372 59.7486 93.4637C59.7383 93.4902 59.7229 93.5144 59.7032 93.535C59.6835 93.5555 59.66 93.572 59.634 93.5834C59.608 93.5948 59.58 93.6011 59.5515 93.6017Z" fill="white"/>
<path d="M58.9269 90.2676C58.8989 90.272 58.8703 90.272 58.8422 90.2676C58.8164 90.2564 58.7931 90.2402 58.7736 90.2198C58.7542 90.1995 58.7389 90.1755 58.7289 90.1492C58.7188 90.1229 58.7141 90.0949 58.7149 90.0668C58.7158 90.0386 58.7223 90.0109 58.734 89.9853L59.4915 88.207L60.3383 89.1809C60.3774 89.2212 60.3992 89.2752 60.3992 89.3314C60.3992 89.3876 60.3774 89.4416 60.3383 89.482C60.3186 89.5019 60.2952 89.5177 60.2693 89.5285C60.2435 89.5393 60.2157 89.5448 60.1877 89.5448C60.1597 89.5448 60.132 89.5393 60.1062 89.5285C60.0803 89.5177 60.0569 89.5019 60.0372 89.482L59.6373 89.0115L59.1669 90.1406C59.1474 90.186 59.1129 90.2233 59.0693 90.2464C59.0256 90.2695 58.9754 90.277 58.9269 90.2676Z" fill="white"/>
</g>
<g opacity="0.7">
<path d="M51.8929 97.9711C51.8125 97.9723 51.7331 97.9528 51.6623 97.9146C51.5773 97.8601 51.5084 97.7838 51.4629 97.6936C51.4174 97.6034 51.3969 97.5026 51.4036 97.4018V96.8138C51.4048 96.7572 51.4282 96.7033 51.4686 96.6638C51.5091 96.6242 51.5634 96.602 51.62 96.602C51.6761 96.602 51.73 96.6243 51.7697 96.664C51.8094 96.7038 51.8317 96.7576 51.8317 96.8138V97.4018C51.8317 97.4865 51.8317 97.5335 51.874 97.543C51.9164 97.5524 51.9399 97.543 52.0105 97.5053C52.1429 97.383 52.2472 97.2335 52.3162 97.067C52.3853 96.9005 52.4174 96.721 52.4104 96.5409V94.0945C52.4104 94.0384 52.4327 93.9845 52.4724 93.9448C52.5121 93.9051 52.5659 93.8828 52.6221 93.8828C52.6782 93.8828 52.7321 93.9051 52.7718 93.9448C52.8115 93.9845 52.8338 94.0384 52.8338 94.0945V96.5409C52.8443 96.7949 52.7948 97.0478 52.6894 97.2791C52.5839 97.5104 52.4255 97.7136 52.2269 97.8723C52.1263 97.9344 52.011 97.9685 51.8929 97.9711Z" fill="white"/>
<path d="M49.6484 96.0005V95.6335C49.7044 94.6913 49.9798 93.7752 50.4527 92.9583C50.9257 92.1415 51.5831 91.4465 52.3724 90.9289C53.1439 90.4867 53.8778 90.4209 54.4424 90.7502C54.7435 90.9566 54.9836 91.2402 55.1375 91.5713C55.2914 91.9024 55.3536 92.2687 55.3174 92.632V92.7543L49.6484 96.0005ZM53.652 90.9478C53.2753 90.9651 52.9093 91.0784 52.5888 91.2771C51.9124 91.7221 51.3397 92.3075 50.9095 92.9934C50.4792 93.6793 50.2016 94.4498 50.0954 95.2524L54.8799 92.4862C54.9003 92.2137 54.85 91.9406 54.7338 91.6933C54.6175 91.446 54.4394 91.2329 54.2165 91.0748C54.0427 90.9837 53.8481 90.9399 53.652 90.9478Z" fill="white"/>
</g>
<path opacity="0.7" d="M0.117188 41.7617L39.1979 64.3718L47.3603 75.6486L38.765 64.7717L0.117188 41.7617Z" fill="white"/>
<path opacity="0.7" d="M82.0601 55.6094L47.3594 75.646V102.805L48.0086 76.1918L82.0601 55.6094Z" fill="white"/>
<path d="M31.1356 44.7481C34.7158 44.2306 37.9855 41.9253 40.0743 39.0273C41.0484 37.6733 41.7659 36.1521 42.1913 34.5392C42.6431 33.0309 42.7174 31.4348 42.4077 29.8911C41.7632 27.3083 39.3733 25.7793 36.847 25.4594C35.565 25.2907 34.2615 25.4179 33.0363 25.8311C31.7659 26.267 30.6637 27.0896 29.8842 28.1833C29.3955 28.7661 29.088 29.4791 28.9998 30.2345C28.9923 30.5304 29.0966 30.8182 29.2919 31.0406C29.4872 31.2629 29.7592 31.4035 30.0536 31.4342C30.8111 31.498 31.5682 31.3058 32.2036 30.8885C32.9784 30.454 33.6608 29.8722 34.2124 29.176C35.3957 27.7156 36.2812 26.0374 36.8187 24.2362C37.1959 22.6907 37.1959 21.0772 36.8187 19.5317C36.5322 17.915 35.7933 16.4126 34.6876 15.1988C33.42 14.0461 31.8115 13.3376 30.1053 13.1805C28.4073 12.9473 26.6784 13.1082 25.0527 13.651C24.3386 13.8675 23.677 14.2295 23.1097 14.7142C22.7051 15.0906 22.244 15.7116 22.4087 16.3232C22.5734 16.9348 23.4672 17.2076 24.0741 17.1277C24.9723 16.9593 25.795 16.5134 26.4264 15.8527C27.13 15.1601 27.7276 14.3674 28.2 13.5004C28.551 12.8774 28.7341 12.1738 28.7316 11.4587C28.6705 8.47599 25.3726 6.54712 22.7898 6.0014C22.0925 5.85574 21.3784 5.80824 20.668 5.86027C20.4281 5.86027 20.5739 6.25545 20.7668 6.24133C22.1567 6.17817 23.5379 6.49017 24.7657 7.1446C25.977 7.70134 26.9943 8.60729 27.6872 9.74622C27.996 10.3077 28.1484 10.9418 28.1285 11.5823C28.1087 12.2228 27.9173 12.8462 27.5743 13.3875C27.1136 14.1899 26.5401 14.9218 25.8712 15.561C25.3114 16.0691 24.4599 16.6572 23.6742 16.6007C23.5445 16.6004 23.4175 16.5637 23.3077 16.4946C23.1979 16.4256 23.1097 16.327 23.0532 16.2103C23.0295 16.0558 23.0423 15.8979 23.0905 15.7492C23.1387 15.6006 23.221 15.4652 23.3308 15.354C23.7462 14.9066 24.26 14.562 24.8315 14.3473C26.2429 13.7606 27.7712 13.5093 29.2962 13.6134C30.8677 13.6418 32.396 14.1327 33.6902 15.0247C34.8176 15.9608 35.6183 17.231 35.9766 18.6519C36.4305 20.0954 36.5716 21.619 36.3906 23.1212C36.1112 24.6329 35.5304 26.0729 34.6829 27.3553C33.8125 28.7949 32.7211 30.1781 31.0839 30.7426C30.6793 30.8885 29.8325 31.1002 29.6725 30.5121C29.5126 29.924 29.9736 29.1995 30.27 28.7432C30.9254 27.7117 31.8809 26.9056 33.008 26.4333C34.0957 25.9973 35.2698 25.8201 36.4377 25.9157C38.6535 26.0804 40.9023 27.2377 41.6738 29.4395C42.0609 30.7553 42.103 32.1486 41.7961 33.4854C41.5194 34.9507 40.9926 36.3575 40.2389 37.6442C38.6177 40.3781 36.1625 42.5201 33.2339 43.7554C32.5376 44.0565 31.8225 44.3105 31.0933 44.5458C31.018 44.574 31.051 44.7622 31.1356 44.7481Z" fill="#E0E0E0"/>
<path d="M16.1818 3.90218C14.3 3.76575 11.7078 5.24768 12.6298 6.32973C13.5519 7.41177 15.9983 5.66168 15.9983 5.66168C15.9983 5.66168 15.7678 7.84929 16.5675 8.09864C17.3673 8.34798 18.4494 6.25916 17.6496 4.92307C18.0353 5.07512 18.4532 5.12725 18.8644 5.07461C19.2756 5.02197 19.6669 4.86628 20.0019 4.62198C21.1404 3.78457 19.936 2.9942 18.3318 3.13534C18.3318 3.13534 19.4797 -0.628303 17.1603 0.091493C15.9983 0.444334 15.589 1.80395 16.1818 3.90218Z" fill="#E6E6E6"/>
<path opacity="0.65" d="M16.1818 3.90218C14.3 3.76575 11.7078 5.24768 12.6298 6.32973C13.5519 7.41177 15.9983 5.66168 15.9983 5.66168C15.9983 5.66168 15.7678 7.84929 16.5675 8.09864C17.3673 8.34798 18.4494 6.25916 17.6496 4.92307C18.0353 5.07512 18.4532 5.12725 18.8644 5.07461C19.2756 5.02197 19.6669 4.86628 20.0019 4.62198C21.1404 3.78457 19.936 2.9942 18.3318 3.13534C18.3318 3.13534 19.4797 -0.628303 17.1603 0.091493C15.9983 0.444334 15.589 1.80395 16.1818 3.90218Z" fill="white"/>
<path d="M17.9277 4.70212C17.8235 4.60017 17.7136 4.50435 17.5983 4.41515C17.4337 4.28812 17.2596 4.16581 17.095 4.04349C16.9346 3.92692 16.7664 3.82159 16.5916 3.72828C16.4909 3.67242 16.3873 3.62217 16.2811 3.57774C16.1345 3.50889 15.9714 3.4828 15.8106 3.50246C15.7685 3.50365 15.7274 3.51614 15.6918 3.53862C15.6561 3.5611 15.6272 3.59276 15.6079 3.63026C15.5887 3.66777 15.5799 3.70975 15.5825 3.75182C15.585 3.7939 15.5988 3.83451 15.6224 3.86942C15.7518 4.00952 15.9132 4.11608 16.0929 4.17992L16.3469 4.31635C16.521 4.41985 16.6763 4.53746 16.8174 4.65507C16.9585 4.77269 17.1467 4.8856 17.2878 5.00321C17.5305 5.20003 17.8018 5.35867 18.0923 5.47367C18.1053 5.48067 18.1199 5.48434 18.1347 5.48434C18.1494 5.48434 18.164 5.48067 18.177 5.47367C18.4169 5.28549 18.0641 4.83855 17.9277 4.70212Z" fill="#455A64"/>
</svg>
