<svg width="20" height="26" viewBox="0 0 20 26" fill="none" xmlns="http://www.w3.org/2000/svg">
<path d="M9.43479 0.992516C9.52107 0.910147 9.62356 0.844797 9.73639 0.800207C9.84923 0.755618 9.97019 0.732666 10.0924 0.732666C10.2145 0.732666 10.3355 0.755618 10.4483 0.800207C10.5612 0.844797 10.6637 0.910147 10.7499 0.992516C11.2347 1.45599 13.3653 3.55752 15.3808 6.30473C17.3683 9.01301 19.38 12.5244 19.38 15.7705C19.38 18.9192 18.3082 21.3692 16.564 23.0321C14.8272 24.6896 12.4904 25.4998 10.0924 25.4998C7.69428 25.4998 5.3575 24.6896 3.62071 23.0321C1.87648 21.3692 0.804688 18.921 0.804688 15.7705C0.804688 12.5244 2.8164 9.01301 4.80396 6.30649C6.19561 4.4199 7.74421 2.64286 9.43479 0.992516Z" fill="white"/>
</svg>
