<svg width="18" height="23" viewBox="0 0 18 23" fill="none" xmlns="http://www.w3.org/2000/svg">
<path fill-rule="evenodd" clip-rule="evenodd" d="M8.67962 0.361379C8.57757 0.401707 8.48487 0.460812 8.40684 0.535308C6.87784 2.02792 5.47725 3.63512 4.2186 5.3414C2.78067 7.29948 1.32876 9.72335 0.805324 12.1176H4.92223L6.36834 8.47861C6.45998 8.24801 6.68412 8.09762 6.93225 8.10023C7.18038 8.10284 7.4013 8.25793 7.48806 8.49041L9.84124 14.7957L10.8456 12.4789C10.9407 12.2596 11.157 12.1176 11.3961 12.1176H17.1978C16.6744 9.7233 15.2225 7.29916 13.7845 5.3398C11.9617 2.85516 10.0348 0.954481 9.59628 0.535308C9.51825 0.460812 9.42556 0.401707 9.32351 0.361379C9.22145 0.321051 9.11205 0.300293 9.00156 0.300293C8.89107 0.300293 8.78167 0.321051 8.67962 0.361379ZM17.3784 13.3176H11.7899L10.3501 16.6388C10.2528 16.8634 10.0287 17.0063 9.78405 17C9.53937 16.9936 9.32307 16.8393 9.23748 16.61L6.90835 10.3691L5.88702 12.9392C5.79624 13.1676 5.57527 13.3176 5.32944 13.3176H0.624741C0.609464 13.5129 0.601562 13.7074 0.601562 13.9009C0.601562 16.7503 1.57092 18.9645 3.14844 20.4684C4.71924 21.9675 6.83268 22.7003 9.00156 22.7003C11.1704 22.7003 13.2839 21.9675 14.8547 20.4684C16.4322 18.9645 17.4016 16.7487 17.4016 13.9009C17.4016 13.7074 17.3937 13.5129 17.3784 13.3176Z" fill="white"/>
</svg>
