<svg width="36" height="47" viewBox="0 0 36 47" fill="none" xmlns="http://www.w3.org/2000/svg">
<rect width="36" height="47" fill="#1E1E1E"/>
<rect width="375" height="1407" transform="translate(-282 -437)" fill="white"/>
<circle cx="18.2299" cy="23.2299" r="43.2299" fill="#FF8E3C"/>
<path d="M17.0052 0.659575C17.1658 0.506219 17.3566 0.384548 17.5667 0.301531C17.7768 0.218514 18.002 0.175781 18.2295 0.175781C18.4569 0.175781 18.6821 0.218514 18.8922 0.301531C19.1023 0.384548 19.2931 0.506219 19.4537 0.659575C20.3564 1.52247 24.3231 5.43514 28.0755 10.5499C31.776 15.5923 35.5214 22.1299 35.5214 28.1734C35.5214 34.0358 33.5259 38.5973 30.2785 41.6932C27.0449 44.7792 22.6942 46.2876 18.2295 46.2876C13.7647 46.2876 9.41401 44.7792 6.18042 41.6932C2.93299 38.5973 0.9375 34.0391 0.9375 28.1734C0.9375 22.1299 4.68294 15.5923 8.38341 10.5532C10.9744 7.04074 13.8576 3.73221 17.0052 0.659575Z" fill="white"/>
<path d="M26.6658 22.5307C26.6658 22.5222 26.6658 22.5222 26.6578 22.5137C26.5127 22.2523 26.3057 22.0357 26.0574 21.8853L19.0125 17.6815C18.7727 17.5394 18.5027 17.4648 18.228 17.4648C17.9533 17.4648 17.6833 17.5394 17.4435 17.6815L10.3986 21.8853C10.1481 22.0364 9.94063 22.2564 9.79818 22.5222H9.79018C9.78967 22.5287 9.7868 22.5348 9.78217 22.5392C9.65067 22.7913 9.58179 23.0748 9.58203 23.3629V31.7365C9.58275 32.0386 9.65864 32.3351 9.80202 32.596C9.9454 32.857 10.1512 33.0732 10.3986 33.2227L17.4435 37.4265C17.6651 37.5548 17.9116 37.6275 18.164 37.6388H18.3C18.5494 37.6245 18.7927 37.552 19.0125 37.4265L26.0574 33.2227C26.3048 33.0732 26.5106 32.857 26.654 32.596C26.7974 32.3351 26.8732 32.0386 26.874 31.7365V23.3629C26.8754 23.0709 26.8035 22.7836 26.6658 22.5307ZM18.228 19.5498L23.96 22.9723L18.3 26.3778L12.5121 22.9553L18.228 19.5498ZM11.5034 24.6963L17.3394 28.1442L17.2833 34.9891L11.5034 31.5412V24.6963ZM19.2047 34.9722L19.2607 28.1442L24.9526 24.7132V31.5412L19.2047 34.9722Z" fill="#FF8E3C"/>
</svg>
