<svg width="105" height="124" viewBox="0 0 105 124" fill="none" xmlns="http://www.w3.org/2000/svg">
<path d="M14.6469 73.7411C-4.88331 85.0164 -4.88126 103.289 14.6469 114.574C34.175 125.86 65.8402 125.86 85.3704 114.574C104.901 103.289 104.899 85.0266 85.3704 73.7411C65.8423 62.4555 34.177 62.4658 14.6469 73.7411Z" fill="#FAFAFA"/>
<path d="M46.9571 111.274C57.7752 111.274 66.5451 106.21 66.5451 99.9647C66.5451 93.7189 57.7752 88.6558 46.9571 88.6558C36.139 88.6558 27.3691 93.7189 27.3691 99.9647C27.3691 106.21 36.139 111.274 46.9571 111.274Z" fill="#E0E0E0"/>
<path opacity="0.5" d="M18.1437 81.0196L2.54492 72.0132L10.3457 86.3405L18.1437 81.0196Z" fill="#407BFF"/>
<path opacity="0.3" d="M18.1437 74.4674L2.54492 65.4609L10.3457 79.7911L18.1437 74.4674Z" fill="#407BFF"/>
<path opacity="0.1" d="M18.1437 67.9181L2.54492 58.9116L10.3457 73.2418L18.1437 67.9181Z" fill="#407BFF"/>
<path d="M58.3618 53.5833L49.9883 58.4172L59.0205 49.9921L67.3941 45.1553L58.3618 53.5833Z" fill="#407BFF"/>
<path opacity="0.3" d="M67.3941 45.1553L58.3618 53.5833L49.9883 58.4172L59.0205 49.9921L67.3941 45.1553Z" fill="black"/>
<path d="M57.3748 51.5272L49.9892 58.4174L35.4844 28.2651L43.8608 23.4282L57.3748 51.5272Z" fill="#407BFF"/>
<path d="M81.897 75.3104L73.5234 80.1444L82.5557 71.7192L90.9321 66.8853L81.897 75.3104Z" fill="#407BFF"/>
<path opacity="0.3" d="M90.9321 66.8853L81.897 75.3104L73.5234 80.1444L82.5557 71.7192L90.9321 66.8853Z" fill="black"/>
<path d="M82.5566 71.7197L90.9302 66.8828L102.102 90.417L104.358 89.1856L103.932 104.117L91.3798 96.2733L93.6307 95.0448L82.5566 71.7197Z" fill="#407BFF"/>
<path d="M80.909 73.2543L73.5234 80.1444L59.0215 49.9921L67.3951 45.1553L80.909 73.2543Z" fill="#407BFF"/>
<path d="M47.0062 100.591C50.6797 100.527 53.6276 98.7559 53.5906 96.6353C53.5536 94.5147 50.5456 92.8476 46.8721 92.9117C43.1987 92.9759 40.2507 94.7469 40.2877 96.8675C40.3247 98.9881 43.3327 100.655 47.0062 100.591Z" fill="#263238"/>
<path d="M40.6699 98.1201L41.7496 98.103C42.052 97.5115 42.5261 97.0254 43.1098 96.7083C45.2004 95.4511 48.6254 95.391 50.7589 96.5737C51.3517 96.8726 51.8422 97.3412 52.1678 97.9197L53.2446 97.9025L52.0418 99.8842C51.7334 100.341 51.3225 100.72 50.8419 100.99C48.7514 102.247 45.3264 102.307 43.1929 101.124C42.7027 100.87 42.2783 100.505 41.9529 100.059L40.6699 98.1201Z" fill="#263238"/>
<path d="M53.9093 97.5961C57.7037 95.3051 57.6322 91.7082 53.7489 89.5776C49.8657 87.447 43.6371 87.573 39.8398 89.864C36.0424 92.155 36.1169 95.7518 40.0001 97.8824C43.8834 100.013 50.112 99.8928 53.9093 97.5961Z" fill="#455A64"/>
<path d="M54.14 96.2906C58.0777 93.9108 58.0032 90.1822 53.9739 87.9628C49.9446 85.7435 43.484 85.8723 39.5464 88.2492C35.6088 90.6261 35.6861 94.3576 39.7154 96.577C43.7446 98.7964 50.2024 98.6704 54.14 96.2906Z" fill="#37474F"/>
<path d="M54.2922 94.8383C58.33 92.3984 58.2527 88.5753 54.1232 86.2986C49.9937 84.022 43.3699 84.1537 39.332 86.585C35.2941 89.0163 35.3772 92.8709 39.5038 95.1333C43.6305 97.3956 50.2686 97.2782 54.2922 94.8383Z" fill="#455A64"/>
<path d="M54.4473 93.3838C58.5854 90.8838 58.5052 86.9662 54.2726 84.6351C50.04 82.304 43.253 82.4386 39.1177 84.9358C34.9825 87.433 35.0598 91.3535 39.2924 93.6874C43.525 96.0213 50.3121 95.8839 54.4473 93.3838Z" fill="#37474F"/>
<path d="M54.6025 91.9288C58.8379 89.3686 58.7578 85.3565 54.4221 82.9682C50.0864 80.5798 43.1389 80.7201 38.9035 83.2803C34.668 85.8405 34.7453 89.8526 39.081 92.2409C43.4167 94.6293 50.3641 94.489 54.6025 91.9288Z" fill="#455A64"/>
<path d="M54.7532 90.4741C59.0889 87.8538 59.0087 83.7501 54.57 81.3102C50.1312 78.8703 43.0205 79.0192 38.6848 81.628C34.3491 84.2369 34.4322 88.355 38.8681 90.792C43.304 93.229 50.4175 93.0945 54.7532 90.4741Z" fill="#37474F"/>
<path d="M34.8503 80.4795C34.8188 78.7441 35.9328 76.9857 38.2008 75.6111C42.737 72.8677 50.1798 72.7187 54.8248 75.2761C57.1473 76.5562 58.3272 78.2687 58.3615 80.007C58.3759 80.6799 58.4274 83.326 58.4417 84.0019C58.4761 85.7373 57.3592 87.4985 55.0912 88.8702C50.555 91.6137 43.1093 91.7626 38.4643 89.2053C36.1447 87.9281 34.9619 86.2127 34.9304 84.4744C34.919 83.8043 34.8646 81.1553 34.8503 80.4795Z" fill="#407BFF"/>
<path d="M78.8848 49.1045C73.2375 65.0298 58.6009 70.1158 58.7813 79.1423C58.8186 80.9407 57.6616 82.7677 55.3076 84.1882C50.6025 87.0376 42.879 87.1922 38.0593 84.5347C35.6538 83.2088 34.4252 81.4275 34.3909 79.6291C34.2763 73.9704 28.4085 70.0928 22.4949 64.1248C16.5813 58.1568 10.6333 50.0925 10.3527 36.0602C10.2209 29.421 11.9614 22.8789 15.3749 17.1828C18.7884 11.4868 23.7369 6.86719 29.6538 3.85284C35.5708 0.838486 42.217 -0.448727 48.8315 0.138578C55.446 0.725883 61.7614 3.16397 67.0547 7.17368L70.8921 16.6011L57.9508 12.4659L66.4762 18.053L47.4724 26.1288L70.474 28.9037L66.4476 43.9641L76.2902 36.3867L78.8848 49.1045Z" fill="#407BFF"/>
<path opacity="0.6" d="M78.8848 49.1045C73.2375 65.0298 58.6009 70.1158 58.7813 79.1423C58.8186 80.9407 57.6616 82.7677 55.3076 84.1882C50.6025 87.0376 42.879 87.1922 38.0593 84.5347C35.6538 83.2088 34.4252 81.4275 34.3909 79.6291C34.2763 73.9704 28.4085 70.0928 22.4949 64.1248C16.5813 58.1568 10.6333 50.0925 10.3527 36.0602C10.2209 29.421 11.9614 22.8789 15.3749 17.1828C18.7884 11.4868 23.7369 6.86719 29.6538 3.85284C35.5708 0.838486 42.217 -0.448727 48.8315 0.138578C55.446 0.725883 61.7614 3.16397 67.0547 7.17368L70.8921 16.6011L57.9508 12.4659L66.4762 18.053L47.4724 26.1288L70.474 28.9037L66.4476 43.9641L76.2902 36.3867L78.8848 49.1045Z" fill="white"/>
<path d="M53.8807 83.4664C57.8184 81.0867 57.7439 77.3581 53.7146 75.1387C49.6854 72.9193 43.2276 73.0453 39.29 75.425C35.3524 77.8048 35.4268 81.5334 39.4561 83.7557C43.4854 85.9779 49.9431 85.8462 53.8807 83.4664Z" fill="#407BFF"/>
<path opacity="0.4" d="M53.8807 83.4664C57.8184 81.0867 57.7439 77.3581 53.7146 75.1387C49.6854 72.9193 43.2276 73.0453 39.29 75.425C35.3524 77.8048 35.4268 81.5334 39.4561 83.7557C43.4854 85.9779 49.9431 85.8462 53.8807 83.4664Z" fill="white"/>
<path opacity="0.25" d="M37.7109 82.4726C38.2297 82.9806 38.8179 83.4125 39.4578 83.7555C43.49 85.9749 49.9477 85.8461 53.8825 83.4692C54.5072 83.1002 55.077 82.6452 55.5749 82.1175C55.0586 81.607 54.4712 81.1739 53.8309 80.8316C49.7988 78.6094 43.341 78.7411 39.4034 81.118C38.7766 81.4852 38.2065 81.9415 37.7109 82.4726Z" fill="#407BFF"/>
<path d="M37.7109 82.4726C38.2297 82.9806 38.8179 83.4125 39.4578 83.7555C43.49 85.9749 49.9477 85.8461 53.8825 83.4692C54.5072 83.1002 55.077 82.6452 55.5749 82.1175C55.0586 81.607 54.4712 81.1739 53.8309 80.8316C49.7988 78.6094 43.341 78.7411 39.4034 81.118C38.7766 81.4852 38.2065 81.9415 37.7109 82.4726Z" fill="#407BFF"/>
<path opacity="0.5" d="M27.2936 14.6282C27.7411 14.81 28.1628 15.0497 28.5479 15.3412C29.9797 16.4151 30.5869 18.351 30.3635 20.1237C29.9339 23.5688 26.6807 25.7509 24.8279 28.4371C22.7926 31.3965 21.2976 34.693 20.412 38.1738C20.1514 39.2105 19.8192 40.9259 19.3066 41.8623C18.5047 43.3371 16.7665 43.6006 15.8128 43.1166C14.4239 42.415 13.6794 40.7082 13.4588 39.368C12.153 31.3896 13.6679 25.3729 17.5769 19.1386C19.7075 15.745 23.1182 12.9357 27.2936 14.6282Z" fill="white"/>
<path opacity="0.5" d="M20.328 47.3377C20.5046 47.858 20.5689 48.4099 20.5166 48.9568C20.4642 49.5037 20.2965 50.0334 20.0245 50.5108C19.4517 51.5847 17.9425 51.8939 16.9345 51.2811C16.4143 50.9617 15.9824 50.5171 15.6783 49.9878C15.3741 49.4586 15.2074 48.8615 15.1934 48.2513C15.1934 46.9569 15.9981 45.5565 17.4328 45.3875C18.7673 45.2329 19.9472 46.2638 20.328 47.3377Z" fill="white"/>
<path d="M39.5677 56.8568C39.106 55.3446 38.4939 53.8825 37.7406 52.4924C37.3567 52.6095 36.9667 52.7051 36.5722 52.7788C32.4742 53.5491 30.0572 52.4094 29.158 51.0892C28.8516 50.6406 28.6889 50.1095 28.6914 49.5663C28.694 49.0231 28.8617 48.4935 29.1723 48.0479C29.745 47.1544 30.7502 46.7306 31.9587 46.8881C33.7486 47.1201 36.0224 48.6264 37.9468 52.0027C40.826 50.9981 43.4553 49.3856 45.656 47.2747C45.2108 46.8571 44.808 46.3967 44.4532 45.9001C42.4686 43.0135 42.5316 40.4819 43.2533 39.073C43.4806 38.6015 43.8341 38.2023 44.2745 37.9195C44.7149 37.6368 45.2251 37.4816 45.7483 37.4713C46.2716 37.4609 46.7875 37.5957 47.2388 37.8607C47.6901 38.1258 48.0591 38.5107 48.3049 38.9727C49.0839 40.3502 49.25 42.876 47.38 45.8457C47.0466 46.3598 46.6628 46.8395 46.2345 47.2776C48.5179 49.2988 51.2097 50.8049 54.1269 51.6934C55.9139 48.2426 58.1361 46.6475 59.9059 46.344C61.103 46.1378 62.1368 46.5215 62.7382 47.3921C63.0655 47.8249 63.2537 48.3469 63.2778 48.8889C63.3018 49.431 63.1606 49.9676 62.8728 50.4277C62.028 51.7851 59.6539 53.0194 55.5301 52.4151C55.133 52.3553 54.7392 52.275 54.3503 52.1746C53.6542 53.5976 53.1016 55.0864 52.7008 56.6191C51.1114 62.5098 50.5386 70.365 50.7907 82.9168H50.3811C50.1291 70.3335 50.7047 62.4353 52.3056 56.5045C52.7062 54.9723 53.2528 53.4821 53.9379 52.0543C50.9873 51.138 48.2649 49.6055 45.9509 47.5582C43.7197 49.6956 41.0611 51.3363 38.1501 52.3722C38.8903 53.7649 39.4954 55.2254 39.9571 56.7336C41.7928 62.5957 42.6834 70.4652 42.9354 83.0485H42.5259C42.2796 70.5139 41.389 62.6787 39.5677 56.8568ZM31.9072 47.2833C30.8648 47.1487 29.9942 47.5009 29.5188 48.257C29.2519 48.6327 29.1067 49.0812 29.1026 49.542C29.0985 50.0029 29.2357 50.4539 29.4959 50.8343C30.3235 52.0485 32.5916 53.0852 36.4977 52.355C36.8357 52.2891 37.1822 52.2061 37.5344 52.1058C35.6615 48.9185 33.508 47.4923 31.9072 47.2833ZM59.9718 46.7105C58.3796 46.9969 56.2719 48.4947 54.5307 51.765C54.8858 51.851 55.238 51.9225 55.5788 51.9712C59.505 52.544 61.7359 51.4214 62.5119 50.1757C62.7573 49.785 62.8771 49.3285 62.8551 48.8676C62.8331 48.4068 62.6703 47.9638 62.3888 47.5983C62.1709 47.292 61.8785 47.0464 61.5393 46.8845C61.2001 46.7227 60.8252 46.65 60.45 46.6733C60.2906 46.6777 60.1317 46.694 59.9747 46.722L59.9718 46.7105ZM43.617 39.2391C42.7779 40.8742 43.2361 43.3886 44.7883 45.6424C45.1263 46.1186 45.51 46.5607 45.9338 46.9626C46.3419 46.5449 46.7083 46.0883 47.0277 45.5994C48.4882 43.2826 48.849 40.7511 47.9441 39.1531C47.7347 38.7556 47.4188 38.4241 47.0318 38.1958C46.6448 37.9675 46.2019 37.8513 45.7526 37.8602C45.3033 37.8691 44.8654 38.0028 44.4878 38.2463C44.1101 38.4898 43.8076 38.8335 43.6141 39.2391H43.617Z" fill="#455A64"/>
<path d="M89.8648 7.86663C88.5245 7.10488 86.6774 7.22229 84.6356 8.39069C80.5347 10.759 77.207 16.5208 77.207 21.2575C77.207 23.6229 78.0375 25.2839 79.3806 26.06L81.9179 27.5205C83.261 28.2937 85.1167 28.182 87.1642 26.9993C91.268 24.6309 94.5928 18.872 94.5928 14.1354C94.5928 11.7728 93.7652 10.1261 92.4278 9.33573C91.8694 9.01785 90.4346 8.19023 89.8648 7.86663Z" fill="#407BFF"/>
<path opacity="0.5" d="M89.8648 7.86663C88.5245 7.10488 86.6774 7.22229 84.6356 8.39069C80.5347 10.759 77.207 16.5208 77.207 21.2575C77.207 23.6229 78.0375 25.2839 79.3806 26.06L81.9179 27.5205C83.261 28.2937 85.1167 28.182 87.1642 26.9993C91.268 24.6309 94.5928 18.872 94.5928 14.1354C94.5928 11.7728 93.7652 10.1261 92.4278 9.33573C91.8694 9.01785 90.4346 8.19023 89.8648 7.86663Z" fill="white"/>
<path d="M83.0404 27.6326C82.5765 28.3857 81.9393 29.0171 81.1819 29.474C80.3383 29.9672 79.372 30.2105 78.3954 30.1756C78.3505 30.1764 78.3061 30.1655 78.2666 30.1441L75.7379 28.6893C75.6999 28.6667 75.6685 28.6347 75.6466 28.5962C75.6248 28.5578 75.6133 28.5144 75.6133 28.4702C75.6133 28.426 75.6248 28.3826 75.6466 28.3442C75.6685 28.3058 75.6999 28.2737 75.7379 28.2512C76.3795 27.9018 76.9263 27.4013 77.331 26.793C77.7357 26.1847 77.986 25.487 78.0604 24.7603L83.0404 27.6326Z" fill="#407BFF"/>
<path opacity="0.35" d="M83.0404 27.6326C82.5765 28.3857 81.9393 29.0171 81.1819 29.474C80.3383 29.9672 79.372 30.2105 78.3954 30.1756C78.3505 30.1764 78.3061 30.1655 78.2666 30.1441L75.7379 28.6893C75.6999 28.6667 75.6685 28.6347 75.6466 28.5962C75.6248 28.5578 75.6133 28.5144 75.6133 28.4702C75.6133 28.426 75.6248 28.3826 75.6466 28.3442C75.6685 28.3058 75.6999 28.2737 75.7379 28.2512C76.3795 27.9018 76.9263 27.4013 77.331 26.793C77.7357 26.1847 77.986 25.487 78.0604 24.7603L83.0404 27.6326Z" fill="white"/>
<path d="M92.4217 21.4646C95.3224 16.4405 95.3221 11.0099 92.421 9.33501C89.52 7.66009 84.8168 10.3751 81.9162 15.3992C79.0155 20.4233 79.0158 25.8539 81.9168 27.5288C84.8179 29.2037 89.5211 26.4887 92.4217 21.4646Z" fill="#407BFF"/>
<path opacity="0.25" d="M92.4217 21.4646C95.3224 16.4405 95.3221 11.0099 92.421 9.33501C89.52 7.66009 84.8168 10.3751 81.9162 15.3992C79.0155 20.4233 79.0158 25.8539 81.9168 27.5288C84.8179 29.2037 89.5211 26.4887 92.4217 21.4646Z" fill="white"/>
<path d="M80.5655 25.1035C80.6999 26.0128 80.5523 26.9414 80.1426 27.7643C79.733 28.5871 79.081 29.2646 78.2745 29.7055C78.2256 29.7326 78.187 29.7753 78.1649 29.8267C78.1429 29.8781 78.1386 29.9354 78.1527 29.9896C78.1668 30.0438 78.1985 30.0917 78.2429 30.1258C78.2873 30.1599 78.3417 30.1783 78.3977 30.1781C79.3761 30.2103 80.3438 29.9661 81.1898 29.4736C83.1629 28.2221 83.4092 26.7416 83.4092 26.7416L80.5655 25.1035Z" fill="#407BFF"/>
<path opacity="0.25" d="M80.5655 25.1035C80.6999 26.0128 80.5523 26.9414 80.1426 27.7643C79.733 28.5871 79.081 29.2646 78.2745 29.7055C78.2256 29.7326 78.187 29.7753 78.1649 29.8267C78.1429 29.8781 78.1386 29.9354 78.1527 29.9896C78.1668 30.0438 78.1985 30.0917 78.2429 30.1258C78.2873 30.1599 78.3417 30.1783 78.3977 30.1781C79.3761 30.2103 80.3438 29.9661 81.1898 29.4736C83.1629 28.2221 83.4092 26.7416 83.4092 26.7416L80.5655 25.1035Z" fill="white"/>
<path d="M86.4447 13.1363L82.6073 24.2104C82.2064 25.3559 82.7448 25.8083 83.8044 25.1984L90.537 21.3094C90.7896 21.1638 91.0111 20.9698 91.1887 20.7385C91.3663 20.5072 91.4966 20.2432 91.5721 19.9616C91.6476 19.68 91.6669 19.3862 91.6289 19.0971C91.5908 18.808 91.4962 18.5292 91.3503 18.2767L88.2804 12.9731C87.6704 11.902 86.8428 11.9822 86.4447 13.1363Z" fill="#FAFAFA"/>
<path d="M87.5867 19.7542L86.9996 20.0921C86.9806 20.109 86.9569 20.1195 86.9316 20.1224C86.9064 20.1252 86.8808 20.1202 86.8586 20.1079C86.8363 20.0957 86.8184 20.0769 86.8072 20.0541C86.7961 20.0312 86.7922 20.0055 86.7963 19.9804L86.5586 15.5989C86.5585 15.5329 86.575 15.4679 86.6065 15.4098C86.638 15.3518 86.6836 15.3026 86.739 15.2667L87.8473 14.6281C87.9532 14.5651 88.0334 14.6281 88.0277 14.7369L87.7843 19.422C87.7781 19.4886 87.7572 19.5529 87.723 19.6104C87.6888 19.6679 87.6422 19.717 87.5867 19.7542Z" fill="#455A64"/>
<path d="M87.2929 22.1113C86.9206 22.3261 86.6973 22.0483 86.6973 21.6617C86.6999 21.4375 86.7552 21.217 86.8587 21.018C86.9621 20.819 87.1109 20.6471 87.2929 20.5162C87.6681 20.3014 87.8914 20.5792 87.8914 20.9687C87.8894 21.1929 87.8341 21.4135 87.73 21.6122C87.6259 21.8108 87.4761 21.9819 87.2929 22.1113Z" fill="#455A64"/>
<path d="M79.0183 106.256C78.8109 106.157 78.5838 106.107 78.354 106.107C77.9686 106.122 77.5941 106.239 77.2686 106.445C76.8527 106.69 76.4809 107.002 76.1689 107.37C75.8291 107.764 75.5351 108.196 75.2926 108.656C75.0454 109.133 74.8532 109.636 74.7199 110.157C74.5836 110.665 74.5133 111.189 74.5108 111.715C74.4992 112.167 74.5701 112.617 74.7199 113.043C74.8296 113.367 75.0281 113.652 75.2926 113.868L75.3785 113.928C75.0521 113.745 72.7267 112.425 72.4976 112.253C72.2339 112.037 72.0356 111.751 71.9249 111.428C71.7764 111.001 71.7056 110.551 71.7158 110.099C71.7196 109.573 71.7898 109.05 71.9249 108.542C72.0583 108.021 72.2504 107.518 72.4976 107.041C72.7374 106.579 73.0316 106.147 73.3739 105.755C73.6858 105.388 74.0564 105.076 74.4707 104.83C74.7963 104.624 75.1708 104.507 75.5561 104.492C75.8265 104.489 76.0927 104.56 76.3264 104.696C76.3579 104.716 78.354 105.864 79.0183 106.256Z" fill="#263238"/>
<path d="M80.0251 84.807C79.703 84.6362 79.3328 84.5787 78.9741 84.6438C78.6826 84.6876 78.399 84.7734 78.1321 84.8987C78.1498 85.0699 78.1584 85.242 78.1579 85.4141C78.1625 86.2989 78.0173 87.1781 77.7284 88.0144C77.4412 88.8424 77.0839 89.6443 76.6602 90.4114C76.2335 91.1817 75.7782 91.9349 75.2913 92.6623C74.8045 93.3896 74.3635 94.1084 73.9654 94.8158C73.5845 95.4953 73.2672 96.2085 73.0175 96.9464C72.7825 97.6374 72.6975 98.3706 72.7684 99.0971L73.0805 102.894L75.8755 104.512L75.5691 100.718C75.4963 99.9919 75.5793 99.2587 75.8125 98.5673C76.0607 97.8279 76.3801 97.1143 76.7661 96.4367C77.1594 95.7284 77.6004 95.0105 78.0892 94.2831C78.5732 93.5557 79.0314 92.8026 79.4552 92.0322C79.8803 91.2655 80.2386 90.4635 80.5262 89.6353C80.814 88.7998 80.9582 87.9216 80.9529 87.0379C80.9727 86.5488 80.8898 86.061 80.7095 85.606C80.5773 85.2705 80.3363 84.9892 80.0251 84.807Z" fill="#263238"/>
<path d="M80.1319 77.6045C79.5083 77.3352 78.8205 77.2507 78.1502 77.3611C77.1236 77.5307 76.1401 77.8994 75.255 78.4464C74.485 78.8906 73.7575 79.4044 73.0814 79.9814C72.4166 80.5508 71.7936 81.1671 71.2171 81.8257C70.6443 82.4829 70.1107 83.1733 69.6191 83.8933C69.1266 84.6149 68.6741 85.3395 68.2617 86.0668L69.4473 87.891C69.5004 88.0125 69.592 88.1131 69.7079 88.1774C69.8826 88.2691 72.2509 89.6522 72.4972 89.7897C72.3853 89.7222 72.2964 89.6223 72.2423 89.5033L71.0567 87.6791C71.4691 86.9517 71.9225 86.2272 72.417 85.5056C72.9067 84.7842 73.4404 84.0937 74.015 83.4379C74.5905 82.7794 75.2126 82.1631 75.8764 81.5937C76.5528 81.0171 77.2803 80.5033 78.05 80.0587C78.9355 79.5103 79.9202 79.1415 80.9481 78.9734C81.6467 78.8614 82.3628 78.9611 83.0042 79.2597C82.2053 78.7872 80.2064 77.636 80.1319 77.6045Z" fill="#37474F"/>
<path d="M69.7079 88.1745C69.8826 88.2661 72.2509 89.6493 72.4972 89.7868C72.3853 89.7192 72.2964 89.6194 72.2423 89.5004L71.0567 87.6762L68.2617 86.061L69.4473 87.8852C69.4999 88.0078 69.5915 88.1095 69.7079 88.1745Z" fill="#263238"/>
<path d="M71.0566 87.6821C71.469 86.9547 71.9224 86.2302 72.4169 85.5085C72.9074 84.7877 73.441 84.0972 74.0149 83.4409C74.5907 82.7817 75.2137 82.1653 75.8792 81.5967C76.554 81.0181 77.2818 80.5042 78.0527 80.0617C78.9372 79.5134 79.921 79.1446 80.948 78.9763C81.7145 78.8447 82.503 78.977 83.1846 79.3515C83.8463 79.7712 84.35 80.3987 84.6164 81.1356C84.9894 82.1426 85.1635 83.2124 85.1291 84.2857C85.1382 85.4436 85.0025 86.598 84.7253 87.7222C84.4766 88.7259 84.1413 89.7061 83.723 90.6518C83.3396 91.5131 82.8965 92.3466 82.397 93.1461L81.0368 95.3082C80.6091 95.9841 80.2406 96.6189 79.9314 97.2126C79.6414 97.7463 79.4521 98.3287 79.3729 98.9309L78.9548 102.731L75.8677 104.512L75.5556 100.721C75.4852 99.9945 75.5691 99.2616 75.8019 98.57C76.0513 97.8316 76.3696 97.1183 76.7526 96.4394C77.1478 95.7311 77.5898 95.0133 78.0785 94.2859C78.5673 93.5585 79.0236 92.8072 79.4474 92.0321C79.8704 91.2657 80.2277 90.4648 80.5156 89.638C80.804 88.8026 80.9492 87.9244 80.9451 87.0406C80.9627 86.5515 80.8788 86.064 80.6988 85.6088C80.5727 85.2673 80.328 84.9826 80.0095 84.8065C79.6909 84.6304 79.3197 84.5746 78.9634 84.6494C78.4936 84.7291 78.0435 84.8983 77.6375 85.1477C76.9961 85.5102 76.4042 85.9539 75.8763 86.4679C75.4363 86.9022 75.0268 87.3662 74.6506 87.8568C74.3184 88.3035 74.0349 88.693 73.7915 89.0309C73.632 89.2918 73.4205 89.517 73.1701 89.6924C72.7319 89.9473 72.4141 89.8843 72.2193 89.512L71.0566 87.6821ZM74.5074 111.715C74.511 111.188 74.5822 110.665 74.7194 110.157C74.8502 109.636 75.0425 109.132 75.2921 108.656C75.5326 108.195 75.8268 107.763 76.1684 107.37C76.479 107.002 76.8498 106.689 77.2652 106.445C77.5903 106.238 77.9653 106.122 78.3506 106.11C78.6644 106.104 78.9718 106.199 79.2269 106.382C79.5002 106.595 79.7061 106.883 79.8197 107.21C79.976 107.628 80.0508 108.072 80.0402 108.519C80.0395 109.051 79.9653 109.581 79.8197 110.094C79.6785 110.614 79.4797 111.118 79.2269 111.594C78.9857 112.052 78.6916 112.48 78.3506 112.869C78.0405 113.228 77.6739 113.535 77.2652 113.776C76.9336 113.981 76.5572 114.102 76.1684 114.129C75.8548 114.147 75.5445 114.055 75.2921 113.868C75.0255 113.654 74.8265 113.368 74.7194 113.043C74.5686 112.617 74.4968 112.167 74.5074 111.715Z" fill="#455A64"/>
</svg>
