<svg width="22" height="22" viewBox="0 0 22 22" fill="none" xmlns="http://www.w3.org/2000/svg">
<path d="M11 0C4.95 0 0 4.95 0 11C0 17.05 4.95 22 11 22C17.05 22 22 17.05 22 11C22 4.95 17.05 0 11 0ZM7.513 5.555C8.591 5.555 9.46 6.424 9.46 7.513C9.46 8.591 8.591 9.46 7.513 9.46C6.424 9.46 5.555 8.591 5.555 7.513C5.555 6.424 6.424 5.555 7.513 5.555ZM14.542 16.5C13.464 16.5 12.595 15.62 12.595 14.542C12.595 13.464 13.464 12.595 14.542 12.595C15.62 12.595 16.5 13.464 16.5 14.542C16.5 15.62 15.62 16.5 14.542 16.5ZM7.15 16.533L5.5 14.883L14.883 5.5L16.533 7.15L7.15 16.533Z" fill="#3C8AFF"/>
</svg>
