<svg width="181" height="146" viewBox="0 0 181 146" fill="none" xmlns="http://www.w3.org/2000/svg">
<path d="M92.0312 145.976C136.542 145.976 172.625 138.345 172.625 128.931C172.625 119.518 136.542 111.887 92.0312 111.887C47.5205 111.887 11.4375 119.518 11.4375 128.931C11.4375 138.345 47.5205 145.976 92.0312 145.976Z" fill="#E2EDFF"/>
<path opacity="0.3" d="M92.0312 145.976C136.542 145.976 172.625 138.345 172.625 128.931C172.625 119.518 136.542 111.887 92.0312 111.887C47.5205 111.887 11.4375 119.518 11.4375 128.931C11.4375 138.345 47.5205 145.976 92.0312 145.976Z" fill="white"/>
<path d="M0.0949774 14.7283C-0.00320711 14.3732 -0.0255784 14.0014 0.0293152 13.6371C0.0842088 13.2728 0.215139 12.9241 0.4136 12.6137C0.61206 12.3033 0.873609 12.0382 1.18125 11.8355C1.48889 11.6328 1.83574 11.4971 2.19925 11.4372C4.40032 11.1384 7.10221 14.0928 7.96075 15.8814C8.0323 16.0371 8.91189 18.5875 8.8698 18.5875C8.82771 18.5875 4.96848 18.6759 3.39869 17.9773C2.02249 17.3838 0.461121 16.2517 0.0949774 14.7283ZM56.6242 7.93566C56.3001 9.46757 54.7682 10.6418 53.4299 11.273C52.0916 11.9043 48.9141 12.0137 48.1355 12.0264C47.7147 12.5272 47.2644 13.0701 46.7804 13.6761C45.9387 14.7535 45.0044 15.9782 44.0785 17.3754C43.8302 17.75 43.5777 18.1582 43.3252 18.5538C43.8891 17.9773 44.6677 17.1987 44.7519 17.1313C46.3048 15.8982 50.0252 14.421 51.8727 15.6499C52.1742 15.862 52.4277 16.1351 52.6167 16.4516C52.8056 16.7681 52.9259 17.1208 52.9695 17.4868C53.0132 17.8528 52.9793 18.2239 52.8701 18.576C52.7609 18.928 52.5788 19.2532 52.3357 19.5302C51.3382 20.7423 49.4402 21.0789 47.9588 21.02C46.4774 20.9611 43.5188 19.5512 42.8875 19.2356C42.3446 20.1152 41.8059 21.0327 41.3009 22.0217C40.3606 23.8045 39.5817 25.6679 38.9735 27.5896L39.0872 27.6443C39.5375 27.0509 40.5181 25.8262 40.6107 25.7378C42.0163 24.3364 45.5557 22.4636 47.5295 23.4778C47.8488 23.6567 48.1272 23.9003 48.347 24.193C48.5667 24.4856 48.723 24.8209 48.8058 25.1774C48.8886 25.5339 48.896 25.9038 48.8277 26.2633C48.7594 26.6229 48.6169 26.9642 48.4091 27.2655C47.5674 28.5828 45.703 29.1257 44.2258 29.2267C42.5424 29.3487 39.003 28.0188 38.8683 27.9641C38.3221 29.8892 37.9004 31.8474 37.6058 33.8266C37.3785 35.2912 37.2059 36.7726 37.046 38.2835C37.3532 37.8626 38.6411 36.2508 38.7294 36.1455C40.1351 34.7483 43.6745 32.8713 45.6441 33.8898C45.9673 34.0676 46.2493 34.3116 46.4719 34.6057C46.6945 34.8998 46.8527 35.2376 46.9361 35.5969C47.0194 35.9562 47.0262 36.3291 46.9559 36.6912C46.8855 37.0533 46.7397 37.3965 46.5279 37.6985C45.6862 39.0116 43.8218 39.5545 42.3446 39.6555C40.6822 39.7733 37.2943 38.515 37.0166 38.3929C36.945 39.0747 36.8735 39.7523 36.8061 40.4383C36.5873 42.6646 36.3853 44.9035 36.1075 47.1046C36.0107 47.8664 35.8929 48.6155 35.775 49.3646C36.2548 48.7417 37.147 47.6265 37.2354 47.5381C38.6411 46.1409 42.1805 44.2638 44.1543 45.2823C44.474 45.4608 44.7529 45.7041 44.973 45.9967C45.1932 46.2893 45.3497 46.6248 45.4325 46.9814C45.5153 47.3381 45.5227 47.7082 45.454 48.0679C45.3854 48.4276 45.2422 48.7689 45.0338 49.07C44.1921 50.3831 42.3278 50.926 40.8505 51.0312C39.3733 51.1364 36.5031 50.139 35.6993 49.8444C35.4931 51.1069 35.2784 52.3232 34.9754 53.5226C34.8407 54.0403 34.7397 54.5748 34.5798 55.063L34.159 56.5318C33.8223 57.525 33.5151 58.4466 33.1784 59.3641C33.01 59.827 32.8459 60.2605 32.6776 60.7108C33.0689 60.0038 33.7086 58.9012 33.776 58.8044C34.9544 57.2093 38.1655 54.8231 40.2698 55.5301C40.6163 55.6563 40.9323 55.8542 41.1971 56.1108C41.4619 56.3675 41.6696 56.6771 41.8066 57.0195C41.9437 57.3618 42.0069 57.7293 41.9923 58.0977C41.9777 58.4662 41.8855 58.8275 41.7217 59.1579C41.0736 60.5888 39.3271 61.4053 37.8793 61.7293C36.2885 62.0912 32.8711 61.3968 32.4545 61.3085C32.0336 62.4069 31.6128 63.4674 31.2172 64.4565C29.9546 67.5834 28.7552 70.1422 27.9009 71.9224L27.762 72.2086H33.9864L31.8358 114.126C31.777 115.675 31.1188 117.142 30.0001 118.216C28.8814 119.29 27.3894 119.887 25.8387 119.883C24.3029 119.884 22.8255 119.295 21.7117 118.237C20.5979 117.18 19.9329 115.735 19.8541 114.201L17.7035 72.2843H24.3867C24.353 71.9939 24.3194 71.6867 24.2815 71.3416C24.0584 69.4057 23.6965 66.6365 23.1157 63.3454C22.9516 62.3943 22.7622 61.3884 22.5518 60.3573C22.1309 60.412 18.6715 60.8497 17.1101 60.3573C15.6961 59.9365 14.0126 58.9769 13.4739 57.5039C13.3359 57.1622 13.2713 56.7953 13.2844 56.4269C13.2974 56.0586 13.3879 55.6972 13.5499 55.3661C13.7118 55.035 13.9417 54.7418 14.2244 54.5054C14.5072 54.269 14.8365 54.0947 15.191 53.994C17.3416 53.4427 20.3676 56.0688 21.4239 57.7438C21.4912 57.8532 22.1436 59.2126 22.4634 59.9154C22.3372 59.2926 22.2151 58.6739 22.072 58.0258C21.87 57.0957 21.6512 56.1193 21.4029 55.1682C21.2682 54.68 21.1293 54.1876 20.982 53.691C20.8347 53.1944 20.6664 52.723 20.5106 52.2264C20.2665 51.511 19.9762 50.7829 19.6689 50.0548C18.7346 50.3157 15.9738 51.027 14.5555 50.8208C13.1373 50.6145 11.2813 49.9285 10.528 48.5566C10.3391 48.2396 10.2192 47.8863 10.1761 47.5199C10.1329 47.1534 10.1674 46.782 10.2774 46.4298C10.3874 46.0776 10.5704 45.7525 10.8144 45.4758C11.0585 45.199 11.3581 44.9768 11.6937 44.8236C13.7349 43.9524 17.1228 46.0861 18.4274 47.5886C18.4695 47.6349 18.7136 47.98 18.9956 48.3924C18.6925 47.6938 18.3937 46.991 18.0655 46.2882C17.1312 44.3017 16.1169 42.3027 15.1195 40.2994C14.9091 39.8785 14.6986 39.4577 14.4966 39.0368C13.7096 39.2599 10.7089 40.0595 9.24015 39.8449C7.77137 39.6302 5.9659 38.9526 5.21257 37.5765C5.02689 37.2596 4.90975 36.9073 4.8687 36.5423C4.82766 36.1773 4.86363 35.8078 4.97428 35.4576C5.08494 35.1074 5.26782 34.7843 5.51112 34.5091C5.75441 34.234 6.05272 34.013 6.38676 33.8603C8.4279 32.9934 11.8158 35.1229 13.1204 36.6295C13.1667 36.68 13.4571 37.0925 13.7728 37.5596C13.2425 36.4612 12.7248 35.3628 12.2451 34.2517C11.4165 32.3556 10.7136 30.407 10.1408 28.4187C9.86722 28.4986 6.38676 29.5087 4.7328 29.2604C3.26822 29.0499 1.46275 28.3682 0.709425 26.9962C0.520467 26.6794 0.400345 26.3264 0.356883 25.9602C0.313421 25.5939 0.347594 25.2226 0.457174 24.8705C0.566755 24.5183 0.749286 24.1932 0.992882 23.9162C1.23648 23.6393 1.53567 23.4168 1.87099 23.2632C3.91634 22.3962 7.30422 24.5258 8.60466 26.0282C8.69725 26.1376 9.72413 27.6359 10.0734 28.1872C10.0716 28.1634 10.0716 28.1395 10.0734 28.1156C9.5587 26.1478 9.22068 24.138 9.06339 22.11C8.90867 20.3006 8.85808 18.4837 8.91188 16.6684C8.95397 14.985 9.09285 13.4446 9.22753 12.0853C9.30749 11.3488 9.39166 10.6754 9.48004 10.0483L9.44216 10.0736C9.40428 10.0989 8.66358 7.50639 8.63412 7.33804C8.30585 5.38107 8.82771 1.41241 10.7973 0.389731C11.1297 0.229536 11.4921 0.141069 11.8609 0.130074C12.2297 0.11908 12.5967 0.185804 12.9381 0.325915C13.2794 0.466026 13.5875 0.676387 13.8422 0.943329C14.0969 1.21027 14.2927 1.52782 14.4167 1.87535C14.989 3.33571 14.3577 5.15802 13.575 6.42479C12.7922 7.69156 10.2081 9.53069 9.57684 9.97259C9.50108 10.6249 9.42533 11.3235 9.35799 12.0769C9.25278 13.4362 9.14756 14.9723 9.14335 16.6516C9.14335 17.1019 9.14335 17.5816 9.1644 18.0488C9.3159 17.2576 9.53896 16.1802 9.58525 16.075C10.1955 14.1896 12.4849 10.9069 14.7071 10.9111C15.0756 10.9218 15.4378 11.01 15.7701 11.17C16.1023 11.33 16.3971 11.5582 16.6353 11.8397C16.8735 12.1211 17.0498 12.4496 17.1526 12.8038C17.2555 13.1579 17.2826 13.5297 17.2322 13.895C17.0723 15.4563 15.6708 16.782 14.404 17.5522C13.1373 18.3224 9.87564 18.7979 9.17702 18.8779C9.21069 19.9132 9.2654 20.9822 9.39166 22.0764C9.59128 24.0811 9.96873 26.0641 10.5195 28.002H10.6458C10.6963 27.2571 10.8394 25.6957 10.8647 25.5653C11.2855 23.6251 13.1794 20.0942 15.3888 19.8711C15.7564 19.8414 16.126 19.8895 16.4737 20.0121C16.8215 20.1347 17.1395 20.3292 17.4071 20.5829C17.6746 20.8366 17.8858 21.1438 18.0268 21.4845C18.1678 21.8252 18.2355 22.1918 18.2254 22.5604C18.2254 24.1259 16.9923 25.6031 15.8181 26.5038C14.463 27.5433 10.7931 28.3766 10.6542 28.406C11.2537 30.3171 11.9777 32.1869 12.8216 34.0034C13.4403 35.3501 14.1179 36.6927 14.8123 38.031C14.8375 37.5049 15.0227 35.4553 15.0522 35.308C15.473 33.3679 17.3669 29.8369 19.5763 29.6097C19.9437 29.5807 20.3131 29.6292 20.6605 29.7521C21.008 29.8749 21.3257 30.0695 21.5931 30.323C21.8606 30.5766 22.0717 30.8835 22.213 31.2239C22.3542 31.5643 22.4223 31.9305 22.4129 32.2989C22.4129 33.8687 21.1756 35.3417 20.0014 36.2423C18.6799 37.2566 15.17 38.0731 14.8712 38.1404C15.1868 38.7464 15.5025 39.3567 15.8223 39.9627C16.8702 41.9449 17.9266 43.9229 18.9198 45.9094C19.2607 46.5996 19.5721 47.2898 19.8878 47.98C19.9425 47.193 20.0772 45.7705 20.0982 45.6485C20.5191 43.7083 22.4171 40.1773 24.6224 39.9501C24.9899 39.9204 25.3596 39.9684 25.7073 40.0911C26.055 40.2137 26.373 40.4082 26.6406 40.6619C26.9082 40.9156 27.1194 41.2228 27.2603 41.5635C27.4013 41.9042 27.469 42.2708 27.459 42.6393C27.459 44.2091 26.2258 45.6821 25.0517 46.5827C23.8775 47.4834 20.9315 48.2367 20.1024 48.4387C20.6201 49.6003 21.1167 50.7366 21.5375 51.8981C21.7101 52.4032 21.9163 52.904 22.0552 53.3964L22.5013 54.8652C22.7664 55.8794 23.0189 56.8179 23.2462 57.7691C23.364 58.2488 23.4608 58.7034 23.5703 59.1663C23.5071 58.3667 23.4314 57.0915 23.4356 56.9737C23.5408 54.9956 24.9002 51.229 27.0465 50.6608C27.4054 50.5758 27.7783 50.5674 28.1407 50.6361C28.5031 50.7048 28.8469 50.849 29.1499 51.0594C29.4528 51.2699 29.708 51.5418 29.8989 51.8574C30.0898 52.173 30.212 52.5253 30.2576 52.8914C30.2873 53.0835 30.3 53.2778 30.2955 53.4721C31.1597 54.9857 31.6219 56.6954 31.638 58.4382C31.638 58.5645 31.4318 60.0585 31.3098 60.8203C31.5497 60.2311 31.7853 59.6461 32.021 59.0316C32.3703 58.1436 32.707 57.1967 33.0437 56.2792L33.5151 54.8189C33.6834 54.3265 33.7844 53.8383 33.9359 53.3375C34.1295 52.6052 34.2894 51.835 34.4493 51.0733C33.5277 50.7703 30.83 49.8444 29.761 48.889C28.6921 47.9337 27.5263 46.3386 27.6568 44.7773C27.6748 44.4091 27.7701 44.0488 27.9363 43.7198C28.1026 43.3908 28.3361 43.1004 28.6219 42.8675C28.9076 42.6346 29.239 42.4643 29.5948 42.3677C29.9505 42.2711 30.3226 42.2504 30.6869 42.3069C32.8711 42.7277 34.5209 46.3597 34.7734 48.3251C34.7734 48.3882 34.7944 48.8091 34.8029 49.3099C34.9375 48.5608 35.0764 47.8074 35.1858 47.0415C35.5057 44.8699 35.7582 42.6435 36.0276 40.4172C36.0823 39.9501 36.1454 39.4871 36.2001 39.0242C35.4215 38.7759 32.4924 37.7995 31.3729 36.7979C30.2534 35.7962 29.1382 34.2475 29.2686 32.6861C29.2854 32.3175 29.3798 31.9565 29.5456 31.6269C29.7115 31.2972 29.9451 31.0063 30.2311 30.7731C30.5171 30.5399 30.8491 30.3697 31.2054 30.2737C31.5617 30.1776 31.9343 30.1579 32.2988 30.2157C34.483 30.6366 36.1286 34.2685 36.3853 36.2339C36.3853 36.3013 36.3853 36.8063 36.4147 37.3702C36.5747 36.1582 36.7514 34.9587 36.9661 33.7677C37.3152 31.7197 37.8032 29.6977 38.4264 27.7158C38.1487 27.6317 34.6934 26.5543 33.4477 25.4432C32.3409 24.4542 31.2088 22.8928 31.3434 21.3315C31.3602 20.9628 31.4546 20.6019 31.6205 20.2722C31.7863 19.9425 32.0199 19.6516 32.3059 19.4184C32.5919 19.1852 32.9239 19.0151 33.2802 18.919C33.6366 18.823 34.0091 18.8032 34.3736 18.861C36.5536 19.2819 38.2034 22.9139 38.4601 24.8793C38.4601 25.0181 38.5064 26.8362 38.4938 27.4886C38.4938 27.4633 38.4938 27.4381 38.5148 27.417C39.1724 25.4918 39.9991 23.6286 40.9852 21.8491C41.8609 20.2518 42.8276 18.7061 43.8807 17.2197C44.8445 15.8351 45.8082 14.6315 46.6752 13.5709C47.1465 12.9985 47.5884 12.4851 48.0051 12.0095H47.9588C47.9167 12.0095 48.729 9.4339 48.8005 9.27818C49.6085 7.46851 52.2305 4.44256 54.4357 4.67824C54.803 4.7283 55.1556 4.85554 55.4702 5.05161C55.7848 5.24767 56.0543 5.50812 56.261 5.81582C56.4677 6.12351 56.607 6.47148 56.6696 6.83685C56.7322 7.20221 56.7167 7.57669 56.6242 7.93566ZM31.1667 61.2159C30.7879 61.0349 27.8798 59.5956 26.7435 58.3625C25.76 58.8982 24.7453 59.3746 23.7049 59.7892C23.9617 60.9339 24.2057 62.0492 24.412 63.0971C25.0685 66.4134 25.4936 69.1995 25.7629 71.1565C25.8176 71.5773 25.8681 71.9435 25.9102 72.2843H26.0575L26.5457 71.3374C27.4253 69.5993 28.65 67.091 29.9883 64.0188C30.3755 63.135 30.7711 62.1922 31.1667 61.2159ZM42.7991 18.8358C42.8328 18.8358 43.5061 16.2475 43.5314 16.075C43.8049 14.1138 43.1779 10.1578 41.1788 9.18981C40.842 9.03883 40.4772 8.96042 40.1081 8.95969C39.739 8.95897 39.3739 9.03593 39.0365 9.18558C38.6991 9.33523 38.3969 9.55421 38.1497 9.8283C37.9025 10.1024 37.7157 10.4254 37.6016 10.7764C37.0671 12.2494 37.7488 14.0549 38.5527 15.2964C39.4954 16.7736 42.7949 18.8358 42.7991 18.8358Z" fill="#3C8AFF"/>
<path opacity="0.3" d="M0.0949774 14.7283C-0.00320711 14.3732 -0.0255784 14.0014 0.0293152 13.6371C0.0842088 13.2728 0.215139 12.9241 0.4136 12.6137C0.61206 12.3033 0.873609 12.0382 1.18125 11.8355C1.48889 11.6328 1.83574 11.4971 2.19925 11.4372C4.40032 11.1384 7.10221 14.0928 7.96075 15.8814C8.0323 16.0371 8.91189 18.5875 8.8698 18.5875C8.82771 18.5875 4.96848 18.6759 3.39869 17.9773C2.02249 17.3838 0.461121 16.2517 0.0949774 14.7283ZM56.6242 7.93566C56.3001 9.46757 54.7682 10.6418 53.4299 11.273C52.0916 11.9043 48.9141 12.0137 48.1355 12.0264C47.7147 12.5272 47.2644 13.0701 46.7804 13.6761C45.9387 14.7535 45.0044 15.9782 44.0785 17.3754C43.8302 17.75 43.5777 18.1582 43.3252 18.5538C43.8891 17.9773 44.6677 17.1987 44.7519 17.1313C46.3048 15.8982 50.0252 14.421 51.8727 15.6499C52.1742 15.862 52.4277 16.1351 52.6167 16.4516C52.8056 16.7681 52.9259 17.1208 52.9695 17.4868C53.0132 17.8528 52.9793 18.2239 52.8701 18.576C52.7609 18.928 52.5788 19.2532 52.3357 19.5302C51.3382 20.7423 49.4402 21.0789 47.9588 21.02C46.4774 20.9611 43.5188 19.5512 42.8875 19.2356C42.3446 20.1152 41.8059 21.0327 41.3009 22.0217C40.3606 23.8045 39.5817 25.6679 38.9735 27.5896L39.0872 27.6443C39.5375 27.0509 40.5181 25.8262 40.6107 25.7378C42.0163 24.3364 45.5557 22.4636 47.5295 23.4778C47.8488 23.6567 48.1272 23.9003 48.347 24.193C48.5667 24.4856 48.723 24.8209 48.8058 25.1774C48.8886 25.5339 48.896 25.9038 48.8277 26.2633C48.7594 26.6229 48.6169 26.9642 48.4091 27.2655C47.5674 28.5828 45.703 29.1257 44.2258 29.2267C42.5424 29.3487 39.003 28.0188 38.8683 27.9641C38.3221 29.8892 37.9004 31.8474 37.6058 33.8266C37.3785 35.2912 37.2059 36.7726 37.046 38.2835C37.3532 37.8626 38.6411 36.2508 38.7294 36.1455C40.1351 34.7483 43.6745 32.8713 45.6441 33.8898C45.9673 34.0676 46.2493 34.3116 46.4719 34.6057C46.6945 34.8998 46.8527 35.2376 46.9361 35.5969C47.0194 35.9562 47.0262 36.3291 46.9559 36.6912C46.8855 37.0533 46.7397 37.3965 46.5279 37.6985C45.6862 39.0116 43.8218 39.5545 42.3446 39.6555C40.6822 39.7733 37.2943 38.515 37.0166 38.3929C36.945 39.0747 36.8735 39.7523 36.8061 40.4383C36.5873 42.6646 36.3853 44.9035 36.1075 47.1046C36.0107 47.8664 35.8929 48.6155 35.775 49.3646C36.2548 48.7417 37.147 47.6265 37.2354 47.5381C38.6411 46.1409 42.1805 44.2638 44.1543 45.2823C44.474 45.4608 44.7529 45.7041 44.973 45.9967C45.1932 46.2893 45.3497 46.6248 45.4325 46.9814C45.5153 47.3381 45.5227 47.7082 45.454 48.0679C45.3854 48.4276 45.2422 48.7689 45.0338 49.07C44.1921 50.3831 42.3278 50.926 40.8505 51.0312C39.3733 51.1364 36.5031 50.139 35.6993 49.8444C35.4931 51.1069 35.2784 52.3232 34.9754 53.5226C34.8407 54.0403 34.7397 54.5748 34.5798 55.063L34.159 56.5318C33.8223 57.525 33.5151 58.4466 33.1784 59.3641C33.01 59.827 32.8459 60.2605 32.6776 60.7108C33.0689 60.0038 33.7086 58.9012 33.776 58.8044C34.9544 57.2093 38.1655 54.8231 40.2698 55.5301C40.6163 55.6563 40.9323 55.8542 41.1971 56.1108C41.4619 56.3675 41.6696 56.6771 41.8066 57.0195C41.9437 57.3618 42.0069 57.7293 41.9923 58.0977C41.9777 58.4662 41.8855 58.8275 41.7217 59.1579C41.0736 60.5888 39.3271 61.4053 37.8793 61.7293C36.2885 62.0912 32.8711 61.3968 32.4545 61.3085C32.0336 62.4069 31.6128 63.4674 31.2172 64.4565C29.9546 67.5834 28.7552 70.1422 27.9009 71.9224L27.762 72.2086H33.9864L31.8358 114.126C31.777 115.675 31.1188 117.142 30.0001 118.216C28.8814 119.29 27.3894 119.887 25.8387 119.883C24.3029 119.884 22.8255 119.295 21.7117 118.237C20.5979 117.18 19.9329 115.735 19.8541 114.201L17.7035 72.2843H24.3867C24.353 71.9939 24.3194 71.6867 24.2815 71.3416C24.0584 69.4057 23.6965 66.6365 23.1157 63.3454C22.9516 62.3943 22.7622 61.3884 22.5518 60.3573C22.1309 60.412 18.6715 60.8497 17.1101 60.3573C15.6961 59.9365 14.0126 58.9769 13.4739 57.5039C13.3359 57.1622 13.2713 56.7953 13.2844 56.4269C13.2974 56.0586 13.3879 55.6972 13.5499 55.3661C13.7118 55.035 13.9417 54.7418 14.2244 54.5054C14.5072 54.269 14.8365 54.0947 15.191 53.994C17.3416 53.4427 20.3676 56.0688 21.4239 57.7438C21.4912 57.8532 22.1436 59.2126 22.4634 59.9154C22.3372 59.2926 22.2151 58.6739 22.072 58.0258C21.87 57.0957 21.6512 56.1193 21.4029 55.1682C21.2682 54.68 21.1293 54.1876 20.982 53.691C20.8347 53.1944 20.6664 52.723 20.5106 52.2264C20.2665 51.511 19.9762 50.7829 19.6689 50.0548C18.7346 50.3157 15.9738 51.027 14.5555 50.8208C13.1373 50.6145 11.2813 49.9285 10.528 48.5566C10.3391 48.2396 10.2192 47.8863 10.1761 47.5199C10.1329 47.1534 10.1674 46.782 10.2774 46.4298C10.3874 46.0776 10.5704 45.7525 10.8144 45.4758C11.0585 45.199 11.3581 44.9768 11.6937 44.8236C13.7349 43.9524 17.1228 46.0861 18.4274 47.5886C18.4695 47.6349 18.7136 47.98 18.9956 48.3924C18.6925 47.6938 18.3937 46.991 18.0655 46.2882C17.1312 44.3017 16.1169 42.3027 15.1195 40.2994C14.9091 39.8785 14.6986 39.4577 14.4966 39.0368C13.7096 39.2599 10.7089 40.0595 9.24015 39.8449C7.77137 39.6302 5.9659 38.9526 5.21257 37.5765C5.02689 37.2596 4.90975 36.9073 4.8687 36.5423C4.82766 36.1773 4.86363 35.8078 4.97428 35.4576C5.08494 35.1074 5.26782 34.7843 5.51112 34.5091C5.75441 34.234 6.05272 34.013 6.38676 33.8603C8.4279 32.9934 11.8158 35.1229 13.1204 36.6295C13.1667 36.68 13.4571 37.0925 13.7728 37.5596C13.2425 36.4612 12.7248 35.3628 12.2451 34.2517C11.4165 32.3556 10.7136 30.407 10.1408 28.4187C9.86722 28.4986 6.38676 29.5087 4.7328 29.2604C3.26822 29.0499 1.46275 28.3682 0.709425 26.9962C0.520467 26.6794 0.400345 26.3264 0.356883 25.9602C0.313421 25.5939 0.347594 25.2226 0.457174 24.8705C0.566755 24.5183 0.749286 24.1932 0.992882 23.9162C1.23648 23.6393 1.53567 23.4168 1.87099 23.2632C3.91634 22.3962 7.30422 24.5258 8.60466 26.0282C8.69725 26.1376 9.72413 27.6359 10.0734 28.1872C10.0716 28.1634 10.0716 28.1395 10.0734 28.1156C9.5587 26.1478 9.22068 24.138 9.06339 22.11C8.90867 20.3006 8.85808 18.4837 8.91188 16.6684C8.95397 14.985 9.09285 13.4446 9.22753 12.0853C9.30749 11.3488 9.39166 10.6754 9.48004 10.0483L9.44216 10.0736C9.40428 10.0989 8.66358 7.50639 8.63412 7.33804C8.30585 5.38107 8.82771 1.41241 10.7973 0.389731C11.1297 0.229536 11.4921 0.141069 11.8609 0.130074C12.2297 0.11908 12.5967 0.185804 12.9381 0.325915C13.2794 0.466026 13.5875 0.676387 13.8422 0.943329C14.0969 1.21027 14.2927 1.52782 14.4167 1.87535C14.989 3.33571 14.3577 5.15802 13.575 6.42479C12.7922 7.69156 10.2081 9.53069 9.57684 9.97259C9.50108 10.6249 9.42533 11.3235 9.35799 12.0769C9.25278 13.4362 9.14756 14.9723 9.14335 16.6516C9.14335 17.1019 9.14335 17.5816 9.1644 18.0488C9.3159 17.2576 9.53896 16.1802 9.58525 16.075C10.1955 14.1896 12.4849 10.9069 14.7071 10.9111C15.0756 10.9218 15.4378 11.01 15.7701 11.17C16.1023 11.33 16.3971 11.5582 16.6353 11.8397C16.8735 12.1211 17.0498 12.4496 17.1526 12.8038C17.2555 13.1579 17.2826 13.5297 17.2322 13.895C17.0723 15.4563 15.6708 16.782 14.404 17.5522C13.1373 18.3224 9.87564 18.7979 9.17702 18.8779C9.21069 19.9132 9.2654 20.9822 9.39166 22.0764C9.59128 24.0811 9.96873 26.0641 10.5195 28.002H10.6458C10.6963 27.2571 10.8394 25.6957 10.8647 25.5653C11.2855 23.6251 13.1794 20.0942 15.3888 19.8711C15.7564 19.8414 16.126 19.8895 16.4737 20.0121C16.8215 20.1347 17.1395 20.3292 17.4071 20.5829C17.6746 20.8366 17.8858 21.1438 18.0268 21.4845C18.1678 21.8252 18.2355 22.1918 18.2254 22.5604C18.2254 24.1259 16.9923 25.6031 15.8181 26.5038C14.463 27.5433 10.7931 28.3766 10.6542 28.406C11.2537 30.3171 11.9777 32.1869 12.8216 34.0034C13.4403 35.3501 14.1179 36.6927 14.8123 38.031C14.8375 37.5049 15.0227 35.4553 15.0522 35.308C15.473 33.3679 17.3669 29.8369 19.5763 29.6097C19.9437 29.5807 20.3131 29.6292 20.6605 29.7521C21.008 29.8749 21.3257 30.0695 21.5931 30.323C21.8606 30.5766 22.0717 30.8835 22.213 31.2239C22.3542 31.5643 22.4223 31.9305 22.4129 32.2989C22.4129 33.8687 21.1756 35.3417 20.0014 36.2423C18.6799 37.2566 15.17 38.0731 14.8712 38.1404C15.1868 38.7464 15.5025 39.3567 15.8223 39.9627C16.8702 41.9449 17.9266 43.9229 18.9198 45.9094C19.2607 46.5996 19.5721 47.2898 19.8878 47.98C19.9425 47.193 20.0772 45.7705 20.0982 45.6485C20.5191 43.7083 22.4171 40.1773 24.6224 39.9501C24.9899 39.9204 25.3596 39.9684 25.7073 40.0911C26.055 40.2137 26.373 40.4082 26.6406 40.6619C26.9082 40.9156 27.1194 41.2228 27.2603 41.5635C27.4013 41.9042 27.469 42.2708 27.459 42.6393C27.459 44.2091 26.2258 45.6821 25.0517 46.5827C23.8775 47.4834 20.9315 48.2367 20.1024 48.4387C20.6201 49.6003 21.1167 50.7366 21.5375 51.8981C21.7101 52.4032 21.9163 52.904 22.0552 53.3964L22.5013 54.8652C22.7664 55.8794 23.0189 56.8179 23.2462 57.7691C23.364 58.2488 23.4608 58.7034 23.5703 59.1663C23.5071 58.3667 23.4314 57.0915 23.4356 56.9737C23.5408 54.9956 24.9002 51.229 27.0465 50.6608C27.4054 50.5758 27.7783 50.5674 28.1407 50.6361C28.5031 50.7048 28.8469 50.849 29.1499 51.0594C29.4528 51.2699 29.708 51.5418 29.8989 51.8574C30.0898 52.173 30.212 52.5253 30.2576 52.8914C30.2873 53.0835 30.3 53.2778 30.2955 53.4721C31.1597 54.9857 31.6219 56.6954 31.638 58.4382C31.638 58.5645 31.4318 60.0585 31.3098 60.8203C31.5497 60.2311 31.7853 59.6461 32.021 59.0316C32.3703 58.1436 32.707 57.1967 33.0437 56.2792L33.5151 54.8189C33.6834 54.3265 33.7844 53.8383 33.9359 53.3375C34.1295 52.6052 34.2894 51.835 34.4493 51.0733C33.5277 50.7703 30.83 49.8444 29.761 48.889C28.6921 47.9337 27.5263 46.3386 27.6568 44.7773C27.6748 44.4091 27.7701 44.0488 27.9363 43.7198C28.1026 43.3908 28.3361 43.1004 28.6219 42.8675C28.9076 42.6346 29.239 42.4643 29.5948 42.3677C29.9505 42.2711 30.3226 42.2504 30.6869 42.3069C32.8711 42.7277 34.5209 46.3597 34.7734 48.3251C34.7734 48.3882 34.7944 48.8091 34.8029 49.3099C34.9375 48.5608 35.0764 47.8074 35.1858 47.0415C35.5057 44.8699 35.7582 42.6435 36.0276 40.4172C36.0823 39.9501 36.1454 39.4871 36.2001 39.0242C35.4215 38.7759 32.4924 37.7995 31.3729 36.7979C30.2534 35.7962 29.1382 34.2475 29.2686 32.6861C29.2854 32.3175 29.3798 31.9565 29.5456 31.6269C29.7115 31.2972 29.9451 31.0063 30.2311 30.7731C30.5171 30.5399 30.8491 30.3697 31.2054 30.2737C31.5617 30.1776 31.9343 30.1579 32.2988 30.2157C34.483 30.6366 36.1286 34.2685 36.3853 36.2339C36.3853 36.3013 36.3853 36.8063 36.4147 37.3702C36.5747 36.1582 36.7514 34.9587 36.9661 33.7677C37.3152 31.7197 37.8032 29.6977 38.4264 27.7158C38.1487 27.6317 34.6934 26.5543 33.4477 25.4432C32.3409 24.4542 31.2088 22.8928 31.3434 21.3315C31.3602 20.9628 31.4546 20.6019 31.6205 20.2722C31.7863 19.9425 32.0199 19.6516 32.3059 19.4184C32.5919 19.1852 32.9239 19.0151 33.2802 18.919C33.6366 18.823 34.0091 18.8032 34.3736 18.861C36.5536 19.2819 38.2034 22.9139 38.4601 24.8793C38.4601 25.0181 38.5064 26.8362 38.4938 27.4886C38.4938 27.4633 38.4938 27.4381 38.5148 27.417C39.1724 25.4918 39.9991 23.6286 40.9852 21.8491C41.8609 20.2518 42.8276 18.7061 43.8807 17.2197C44.8445 15.8351 45.8082 14.6315 46.6752 13.5709C47.1465 12.9985 47.5884 12.4851 48.0051 12.0095H47.9588C47.9167 12.0095 48.729 9.4339 48.8005 9.27818C49.6085 7.46851 52.2305 4.44256 54.4357 4.67824C54.803 4.7283 55.1556 4.85554 55.4702 5.05161C55.7848 5.24767 56.0543 5.50812 56.261 5.81582C56.4677 6.12351 56.607 6.47148 56.6696 6.83685C56.7322 7.20221 56.7167 7.57669 56.6242 7.93566ZM31.1667 61.2159C30.7879 61.0349 27.8798 59.5956 26.7435 58.3625C25.76 58.8982 24.7453 59.3746 23.7049 59.7892C23.9617 60.9339 24.2057 62.0492 24.412 63.0971C25.0685 66.4134 25.4936 69.1995 25.7629 71.1565C25.8176 71.5773 25.8681 71.9435 25.9102 72.2843H26.0575L26.5457 71.3374C27.4253 69.5993 28.65 67.091 29.9883 64.0188C30.3755 63.135 30.7711 62.1922 31.1667 61.2159ZM42.7991 18.8358C42.8328 18.8358 43.5061 16.2475 43.5314 16.075C43.8049 14.1138 43.1779 10.1578 41.1788 9.18981C40.842 9.03883 40.4772 8.96042 40.1081 8.95969C39.739 8.95897 39.3739 9.03593 39.0365 9.18558C38.6991 9.33523 38.3969 9.55421 38.1497 9.8283C37.9025 10.1024 37.7157 10.4254 37.6016 10.7764C37.0671 12.2494 37.7488 14.0549 38.5527 15.2964C39.4954 16.7736 42.7949 18.8358 42.7991 18.8358Z" fill="white"/>
<path d="M161.939 33.7181C161.939 33.7181 157.823 36.8661 157.254 39.2902C156.686 41.7143 157.419 44.2942 157.903 45.8303C158.387 47.3664 158.467 54.7945 153.947 58.1024C149.427 61.4103 147.406 64.7225 147.89 68.8426C148.374 72.9628 154.511 77.4828 159.599 78.5223C164.687 79.5618 171.871 77.2303 174.695 71.1742C177.519 65.1181 173.727 58.4391 171.627 54.6514C169.527 50.8637 169.691 47.3033 172.048 47.1434C174.404 46.9834 175.6 47.5642 175.684 44.2352C175.768 40.9063 174.956 35.7592 170.676 33.1752C166.395 30.5911 161.939 33.7181 161.939 33.7181Z" fill="#2E353A" stroke="#2E353A" stroke-width="0.130107" stroke-linecap="round" stroke-linejoin="round"/>
<path d="M151.805 74.3315C152.226 74.6135 156.013 76.158 158.816 71.8064C161.619 67.4547 157.802 63.444 158.538 59.6016" stroke="white" stroke-width="0.0650536" stroke-miterlimit="10"/>
<path d="M166.543 38.7267C166.543 38.7267 165.23 34.4844 168.075 35.8606C171.126 37.3336 173.546 44.2777 172.494 45.8559" stroke="white" stroke-width="0.0650536" stroke-miterlimit="10"/>
<path d="M165.761 38.1762C165.761 38.1762 164.183 35.125 165.235 33.7572C166.287 32.3894 168.707 33.9677 169.969 34.9146" stroke="white" stroke-width="0.0650536" stroke-miterlimit="10"/>
<path d="M169.338 46.4883C169.338 46.4883 169.759 48.3821 168.496 52.1698C167.233 55.9575 164.919 60.2713 167.233 64.2694C169.548 68.2675 171.337 71.0031 168.706 75.0012" stroke="white" stroke-width="0.0650536" stroke-miterlimit="10"/>
<path d="M169.339 48.6992C169.43 51.166 169.254 53.6354 168.813 56.0642C168.076 60.2727 170.391 63.0083 172.811 65.6386C175.231 68.269 174.6 70.4785 173.758 72.8984" stroke="white" stroke-width="0.0650536" stroke-miterlimit="10"/>
<path d="M165.657 38.8092C165.657 38.8092 160.711 39.23 159.238 38.5988C157.766 37.9675 158.081 37.4414 158.081 37.4414" stroke="white" stroke-width="0.0650536" stroke-miterlimit="10"/>
<path d="M166.312 55.6172C166.312 55.6172 166.956 62.1573 167.781 65.9408C168.605 69.7242 169.919 74.5009 169.59 75.8182C169.262 77.1355 162.015 88.326 162.015 88.326L159.877 86.8446L164.321 73.5119L160.58 61.0125C160.58 61.0125 164.006 55.9917 166.312 55.6172Z" fill="white" stroke="#2E353A" stroke-width="0.130107" stroke-linecap="round" stroke-linejoin="round"/>
<path d="M165.737 54.5525C164.684 53.3405 162.424 50.1925 162.424 50.1925L158.872 45.9839L153.948 39.204C153.3 38.316 151.12 38.6358 144.824 38.72C138.528 38.8042 119.417 35.168 119.417 35.168L118.773 39.3765C118.773 39.3765 136.264 43.1642 140.704 43.5851C145.144 44.0059 149.264 44.553 149.264 44.553C148.658 45.7611 148.118 47.0017 147.648 48.2692C147.164 49.7211 141.512 57.4733 141.512 57.4733C141.512 57.4733 141.373 57.5574 141.133 57.7174C141.07 59.123 141.205 62.1069 143.305 63.6809C144.93 64.8971 147.307 65.4106 149.024 65.6252C149.054 65.5284 149.079 65.4443 149.1 65.3853C149.344 64.7372 151.12 63.7693 152.088 63.7019C153.056 63.6346 156.044 63.7819 157.825 63.622C159.605 63.462 160.569 61.0379 160.569 61.0379C160.569 61.0379 164.491 57.2081 166.296 55.6426C166.184 55.2455 165.994 54.8749 165.737 54.5525Z" fill="white" stroke="#2E353A" stroke-width="0.130107" stroke-linecap="round" stroke-linejoin="round"/>
<path d="M151.496 45.5281L149.262 44.5391L150.886 47.1231" stroke="#2E353A" stroke-width="0.0975805" stroke-linecap="round" stroke-linejoin="round"/>
<path d="M145.863 60.2344C147.545 61.2779 149.535 61.7103 151.499 61.4591" stroke="#2E353A" stroke-width="0.0975805" stroke-linecap="round" stroke-linejoin="round"/>
<path d="M144.006 57.293C144.006 57.293 144.372 58.766 146.704 59.7466" stroke="#2E353A" stroke-width="0.0975805" stroke-linecap="round" stroke-linejoin="round"/>
<path d="M164.309 73.51C164.309 73.51 165.836 72.8535 167.061 74.5706" stroke="#2E353A" stroke-width="0.0975805" stroke-linecap="round" stroke-linejoin="round"/>
<path d="M164.733 62.0723L160.566 61.0117L164.24 63.9114" stroke="#2E353A" stroke-width="0.0975805" stroke-linecap="round" stroke-linejoin="round"/>
<path d="M153.337 40.764C153.337 40.764 151.254 44.438 148.804 44.316C145.475 44.1476 136.057 41.37 136.057 40.3936C136.057 39.4172 138.632 39.0469 138.632 39.0469" stroke="#2E353A" stroke-width="0.0975805" stroke-linecap="round" stroke-linejoin="round"/>
<path d="M160.567 43.8138C160.567 43.8138 158.883 43.3929 157.659 44.1378C156.434 44.8827 153.219 51.89 153.219 51.89C153.219 51.89 153.459 52.214 154.431 52.214C155.403 52.214 155.643 53.506 155.643 54.7139C155.643 55.9217 155.559 56.4899 155.963 56.3973C156.367 56.3047 158.791 55.4293 159.275 55.7534C159.759 56.0775 158.627 57.6893 158.854 57.8577C159.081 58.026 161.114 55.9975 161.762 53.8175C162.41 51.6374 163.054 48.4095 162.89 47.1175C162.726 45.8254 161.682 44.1336 160.567 43.8138Z" fill="#3C8AFF" stroke="#2E353A" stroke-width="0.130107" stroke-linecap="round" stroke-linejoin="round"/>
<path d="M161.94 50.5155C161.051 51.5075 160.108 52.4503 159.116 53.3394C157.256 55.0229 155.724 56.2476 155.804 55.4437C155.884 54.6399 157.74 50.2756 158.224 47.8683C158.708 45.461 159.6 43.8281 160.568 43.8281C161.536 43.8281 163.636 48.7605 161.94 50.5155Z" fill="white" stroke="#2E353A" stroke-width="0.130107" stroke-linecap="round" stroke-linejoin="round"/>
<path d="M160.973 40.0985C161.037 40.2951 161.142 40.4759 161.282 40.6289C161.421 40.7819 161.591 40.9038 161.781 40.9866C162.345 41.1465 166.545 38.7266 166.545 38.7266C166.545 38.7266 169.533 45.1025 169.045 46.0705C168.556 47.0384 167.109 48.2547 165.493 49.3826C163.876 50.5105 160.893 51.4027 159.761 50.7546C158.628 50.1065 159.436 43.4906 159.436 43.4906C159.436 43.4906 158.548 42.4385 159.516 40.7425C160.484 39.0464 160.973 40.0985 160.973 40.0985Z" fill="white" stroke="#2E353A" stroke-width="0.130107" stroke-linecap="round" stroke-linejoin="round"/>
<path d="M167.733 46.6844C167.733 46.6844 167.805 46.1836 166.871 46.1836C165.936 46.1836 164.295 47.9007 164.295 47.9007" stroke="#2E353A" stroke-width="0.0975805" stroke-linecap="round" stroke-linejoin="round"/>
<path d="M163.651 48.0438L163.15 47.543" stroke="#2E353A" stroke-width="0.0975805" stroke-linecap="round" stroke-linejoin="round"/>
<path d="M162.946 48.9816C162.946 48.9816 161.658 48.7669 161.443 47.1172" stroke="#2E353A" stroke-width="0.0975805" stroke-linecap="round" stroke-linejoin="round"/>
<path d="M165.926 44.0837C165.926 44.0837 165.606 42.514 164.242 42.2109" stroke="#2E353A" stroke-width="0.0975805" stroke-linecap="round" stroke-linejoin="round"/>
<path d="M164.304 44.9287C163.976 45.1854 163.614 45.2696 163.492 45.1138C163.369 44.9581 163.534 44.6257 163.858 44.3689C164.182 44.1122 164.548 44.028 164.67 44.1838C164.792 44.3395 164.628 44.6719 164.304 44.9287Z" fill="#2E353A"/>
<path d="M166.334 47.5779C166.064 47.7883 165.765 47.8599 165.664 47.7294C165.563 47.5989 165.698 47.3085 165.967 47.1107C166.237 46.9129 166.536 46.833 166.637 46.9592C166.738 47.0855 166.603 47.3633 166.334 47.5779Z" fill="#2E353A"/>
<path d="M158.475 116.297L162.603 122.033C162.603 122.033 162.603 123.086 161.13 123.086C159.657 123.086 158.816 123.086 157.974 122.033C157.132 120.981 157.132 120.35 156.291 119.929C155.449 119.508 154.607 119.508 155.028 117.194C155.449 114.879 158.475 116.297 158.475 116.297Z" fill="white" stroke="#2E353A" stroke-width="0.130107" stroke-linecap="round" stroke-linejoin="round"/>
<path d="M162.587 122.161C161.933 122.475 161.2 122.584 160.483 122.473C158.993 122.203 158.088 120.714 157.537 120.074C156.986 119.434 156.312 119.438 155.677 118.904C155.374 118.646 155.111 118.345 154.894 118.012C154.806 119.51 155.534 119.56 156.258 119.927C157.099 120.347 157.099 120.979 157.941 122.031C158.783 123.083 159.624 123.083 161.097 123.083C162.28 123.083 162.524 122.443 162.587 122.161Z" fill="white" stroke="#2E353A" stroke-width="0.130107" stroke-linecap="round" stroke-linejoin="round"/>
<path d="M158.24 115.566C157.399 113.041 156.199 97.9242 155.576 93.1391C154.314 83.4089 148.7 70.7791 148.7 70.7791L149.024 65.611C147.306 65.3963 144.929 64.8829 143.304 63.6666C141.2 62.0926 141.069 59.1088 141.133 57.7031C140.068 58.3891 136.924 60.4555 134.243 62.6271C130.935 65.2911 128.671 74.7393 128.027 77.7232C127.383 80.707 126.655 89.5071 126.655 89.5071C126.655 89.5071 120.839 91.7671 118.499 94.9782C116.159 98.1894 109.051 105.474 109.051 105.474L109.699 107.898C109.699 107.898 111.879 106.367 113.735 104.91C115.591 103.454 130.047 95.3823 131.015 94.8099C131.983 94.2375 133.119 93.1265 134.407 89.8859C134.879 88.7033 135.544 86.7674 136.2 84.7851L138.443 77.7989L140.602 75.9598C142.732 81.7171 147.681 92.815 148.384 94.4017C149.226 96.3039 149.865 104.763 152.193 110.053C154.52 115.343 155.139 117.881 155.139 117.881C155.139 117.881 159.086 118.104 158.24 115.566Z" fill="#2E353A" stroke="#2E353A" stroke-width="0.130107" stroke-linecap="round" stroke-linejoin="round"/>
<path d="M148.885 66.6094L149.689 71.3019" stroke="white" stroke-width="0.0650536" stroke-miterlimit="10"/>
<path d="M35.081 30.3672L22.9267 133.603C22.9103 133.752 22.9358 133.902 23.0005 134.037C23.0652 134.172 23.1664 134.286 23.2927 134.366C23.4189 134.446 23.5651 134.489 23.7147 134.491C23.8643 134.492 24.0112 134.451 24.1388 134.373L31.9499 129.567C32.4135 129.28 32.9706 129.183 33.5037 129.299C34.0368 129.414 34.5042 129.732 34.8075 130.186L44.6218 144.777L48.7167 83.3991L35.081 30.3672Z" fill="#3C8AFF" stroke="#2E353A" stroke-width="0.130107" stroke-linecap="round" stroke-linejoin="round"/>
<path d="M35.0048 32.9608L24.0205 131.02C23.9968 131.232 24.0353 131.446 24.1314 131.636C24.2275 131.826 24.377 131.984 24.5616 132.09C24.7461 132.196 24.9576 132.246 25.1703 132.234C25.3829 132.222 25.5874 132.148 25.7586 132.022L31.4696 127.813C31.7666 127.593 32.1053 127.437 32.465 127.352C32.8247 127.268 33.1978 127.258 33.5615 127.323C33.9251 127.388 34.2717 127.527 34.5799 127.73C34.8882 127.934 35.1516 128.198 35.3541 128.507L42.0373 138.709C42.1097 138.822 42.218 138.908 42.3449 138.953C42.4718 138.997 42.6099 138.998 42.7373 138.955C42.8647 138.912 42.974 138.827 43.0478 138.715C43.1215 138.602 43.1554 138.468 43.1441 138.334L35.3415 32.965C35.3334 32.9266 35.3124 32.8922 35.2822 32.8673C35.2519 32.8424 35.214 32.8286 35.1748 32.8281C35.1356 32.8276 35.0974 32.8405 35.0665 32.8646C35.0356 32.8887 35.0139 32.9226 35.0048 32.9608Z" fill="#3C8AFF" stroke="#2E353A" stroke-width="0.130107" stroke-linecap="round" stroke-linejoin="round"/>
<path opacity="0.6" d="M35.1569 31.5407L24.0127 131.014C23.9889 131.226 24.0275 131.44 24.1236 131.63C24.2197 131.82 24.3692 131.978 24.5537 132.084C24.7383 132.19 24.9498 132.24 25.1625 132.228C25.3751 132.216 25.5796 132.142 25.7508 132.016L31.4618 127.807C31.7588 127.587 32.0975 127.431 32.4572 127.346C32.8169 127.262 33.19 127.252 33.5537 127.317C33.9173 127.382 34.2639 127.521 34.5721 127.724C34.8804 127.928 35.1438 128.192 35.3463 128.501L42.0295 138.703C42.1019 138.816 42.2102 138.902 42.3371 138.947C42.464 138.991 42.6021 138.992 42.7295 138.949C42.8569 138.906 42.9662 138.821 43.04 138.709C43.1137 138.596 43.1476 138.462 43.1363 138.328L35.2369 31.5407C35.2341 31.5322 35.2287 31.5249 35.2216 31.5197C35.2144 31.5145 35.2058 31.5117 35.1969 31.5117C35.188 31.5117 35.1794 31.5145 35.1722 31.5197C35.165 31.5249 35.1597 31.5322 35.1569 31.5407Z" fill="black"/>
<path d="M33.1236 127.269C33.5657 127.277 33.9992 127.392 34.3865 127.606C34.7738 127.819 35.103 128.124 35.3457 128.494L42.0288 138.695C42.1013 138.809 42.2095 138.894 42.3364 138.939C42.4633 138.984 42.6015 138.984 42.7289 138.941C42.8563 138.898 42.9656 138.814 43.0393 138.701C43.1131 138.589 43.147 138.455 43.1357 138.321L42.1804 125.426L32.9805 127.227C33.0294 127.237 33.0773 127.251 33.1236 127.269Z" fill="#3C8AFF" stroke="#2E353A" stroke-width="0.130107" stroke-linecap="round" stroke-linejoin="round"/>
<path opacity="0.3" d="M33.1236 127.269C33.5657 127.277 33.9992 127.392 34.3865 127.606C34.7738 127.819 35.103 128.124 35.3457 128.494L42.0288 138.695C42.1013 138.809 42.2095 138.894 42.3364 138.939C42.4633 138.984 42.6015 138.984 42.7289 138.941C42.8563 138.898 42.9656 138.814 43.0393 138.701C43.1131 138.589 43.147 138.455 43.1357 138.321L42.1804 125.426L32.9805 127.227C33.0294 127.237 33.0773 127.251 33.1236 127.269Z" fill="black"/>
<path d="M35.3281 30.3008L44.6164 144.773L152.923 124.135L127.47 34.8586L35.3281 30.3008Z" fill="#2E353A" stroke="#2E353A" stroke-width="0.130107" stroke-linecap="round" stroke-linejoin="round"/>
<path d="M40.3496 32.7734L46.7298 138.724L148.577 120.206L127.109 37.891L40.3496 32.7734Z" fill="#3C8AFF" stroke="#2E353A" stroke-width="0.130107" stroke-linecap="round" stroke-linejoin="round"/>
<path d="M46.5742 84.9102L51.4183 135.131L143.956 118.305L135.358 80.5586L46.5742 84.9102Z" fill="white" stroke="#2E353A" stroke-width="0.130107" stroke-linecap="round" stroke-linejoin="round"/>
<path d="M64.4365 132.635L62.9004 116.504" stroke="#2E353A" stroke-width="0.130107" stroke-linecap="round" stroke-linejoin="round"/>
<path d="M78.5966 130.138L77.1152 116.691" stroke="#2E353A" stroke-width="0.130107" stroke-linecap="round" stroke-linejoin="round"/>
<path d="M92.4817 127.448L90.752 116.691" stroke="#2E353A" stroke-width="0.130107" stroke-linecap="round" stroke-linejoin="round"/>
<path d="M106.786 124.995L104.729 112.172" stroke="#2E353A" stroke-width="0.130107" stroke-linecap="round" stroke-linejoin="round"/>
<path d="M119.388 122.723L117.633 110.207" stroke="#2E353A" stroke-width="0.130107" stroke-linecap="round" stroke-linejoin="round"/>
<path d="M131.469 120.487L128.855 105.438" stroke="#2E353A" stroke-width="0.130107" stroke-linecap="round" stroke-linejoin="round"/>
<path d="M159.866 86.8438C159.866 86.8438 158.578 88.14 158.494 88.8134C158.409 89.4867 159.083 91.5152 159.083 91.5152L161.111 91.8519L162.004 88.3252L159.866 86.8438Z" fill="white" stroke="#2E353A" stroke-width="0.130107" stroke-linecap="round" stroke-linejoin="round"/>
<g style="mix-blend-mode:multiply" opacity="0.49">
<path d="M40.8633 62.043C40.8633 62.043 43.0012 92.8117 44.9666 104.032C46.932 115.252 50.5766 132.044 50.5766 132.044C50.5766 132.044 113.705 122.271 144.848 109.082L142.323 97.0202L40.8633 62.043Z" fill="#3C8AFF"/>
</g>
<path d="M38.0098 31.6211L126.671 36.3978C126.671 36.3978 135.303 62.2593 143.893 76.863C152.482 91.4666 166.648 90.5155 166.648 90.5155C166.648 90.5155 134.158 108.28 108.852 117.736C82.5152 127.572 59.6754 129.339 59.6754 129.339C59.6754 129.339 38.8725 100.923 38.0098 31.6211Z" fill="#3C8AFF" stroke="#2E353A" stroke-width="0.130107" stroke-linecap="round" stroke-linejoin="round"/>
<path d="M48.1623 27.0156C46.5167 27.0156 45.3257 28.476 44.9512 30.7654L46.6346 30.858C46.8955 29.5365 47.4132 28.699 48.1581 28.699C49.025 28.699 49.9888 30.0921 49.9888 32.0953C49.9888 34.0986 49.025 35.4958 48.1581 35.4958C47.9348 35.4958 47.7208 35.5845 47.5629 35.7424C47.4051 35.9002 47.3164 36.1143 47.3164 36.3376C47.3164 36.5608 47.4051 36.7749 47.5629 36.9327C47.7208 37.0906 47.9348 37.1793 48.1581 37.1793C50.1277 37.1793 51.6722 34.9445 51.6722 32.0953C51.6722 29.2462 50.1319 27.0156 48.1623 27.0156Z" fill="white" stroke="#2E353A" stroke-width="0.130107" stroke-miterlimit="10"/>
<path d="M50.5771 33.457C50.4965 33.7538 50.3923 34.0437 50.2656 34.324" stroke="#2E353A" stroke-width="0.0975805" stroke-linecap="round" stroke-linejoin="round"/>
<path d="M45.7832 30.0075C45.7832 30.0075 46.4145 27.7265 48.2789 27.8527C49.7434 27.9537 50.9513 30.1295 50.7493 32.4569" stroke="#2E353A" stroke-width="0.0975805" stroke-linecap="round" stroke-linejoin="round"/>
<path d="M62.7814 27.75C61.1359 27.75 59.9449 29.2104 59.5703 31.4998L61.2537 31.5924C61.5147 30.2709 62.0323 29.4334 62.7772 29.4334C63.6442 29.4334 64.6079 30.8264 64.6079 32.8297C64.6079 34.833 63.6442 36.2302 62.7772 36.2302C62.554 36.2302 62.3399 36.3189 62.1821 36.4768C62.0242 36.6346 61.9355 36.8487 61.9355 37.0719C61.9355 37.2952 62.0242 37.5093 62.1821 37.6671C62.3399 37.825 62.554 37.9136 62.7772 37.9136C64.7468 37.9136 66.2914 35.6789 66.2914 32.8297C66.2914 29.9805 64.7552 27.75 62.7814 27.75Z" fill="white" stroke="#2E353A" stroke-width="0.130107" stroke-miterlimit="10"/>
<path d="M65.2021 34.1953C65.1215 34.4921 65.0173 34.782 64.8906 35.0623" stroke="#2E353A" stroke-width="0.0975805" stroke-linecap="round" stroke-linejoin="round"/>
<path d="M60.4082 30.7458C60.4082 30.7458 61.0395 28.4647 62.9039 28.591C64.3684 28.692 65.5763 30.8678 65.3743 33.1951" stroke="#2E353A" stroke-width="0.0975805" stroke-linecap="round" stroke-linejoin="round"/>
<path d="M77.4103 28.4883C75.7648 28.4883 74.5738 29.9486 74.1992 32.2381L75.8826 32.3307C76.1436 31.0092 76.6612 30.1717 77.4061 30.1717C78.2731 30.1717 79.2369 31.5647 79.2369 33.568C79.2369 35.5713 78.2731 36.9685 77.4061 36.9685C77.1829 36.9685 76.9688 37.0572 76.811 37.215C76.6531 37.3729 76.5644 37.587 76.5644 37.8102C76.5644 38.0334 76.6531 38.2475 76.811 38.4054C76.9688 38.5632 77.1829 38.6519 77.4061 38.6519C79.3757 38.6519 80.9203 36.4172 80.9203 33.568C80.9203 30.7188 79.3799 28.4883 77.4103 28.4883Z" fill="white" stroke="#2E353A" stroke-width="0.130107" stroke-miterlimit="10"/>
<path d="M79.8271 34.9336C79.7465 35.2304 79.6423 35.5203 79.5156 35.8006" stroke="#2E353A" stroke-width="0.0975805" stroke-linecap="round" stroke-linejoin="round"/>
<path d="M75.0332 31.4801C75.0332 31.4801 75.6645 29.1991 77.5289 29.3254C78.9934 29.4264 80.2013 31.6022 79.9993 33.9295" stroke="#2E353A" stroke-width="0.0975805" stroke-linecap="round" stroke-linejoin="round"/>
<path d="M92.0353 29.2266C90.3898 29.2266 89.1988 30.6869 88.8242 32.9764L90.5076 33.069C90.7686 31.7475 91.2862 30.91 92.0311 30.91C92.8981 30.91 93.8619 32.303 93.8619 34.3063C93.8619 36.3095 92.8981 37.7068 92.0311 37.7068C91.8079 37.7068 91.5938 37.7955 91.436 37.9533C91.2781 38.1112 91.1894 38.3253 91.1894 38.5485C91.1894 38.7717 91.2781 38.9858 91.436 39.1437C91.5938 39.3015 91.8079 39.3902 92.0311 39.3902C94.0007 39.3902 95.5453 37.1555 95.5453 34.3063C95.5453 31.4571 94.0049 29.2266 92.0353 29.2266Z" fill="white" stroke="#2E353A" stroke-width="0.130107" stroke-miterlimit="10"/>
<path d="M94.4501 35.668C94.3695 35.9648 94.2654 36.2547 94.1387 36.5349" stroke="#2E353A" stroke-width="0.0975805" stroke-linecap="round" stroke-linejoin="round"/>
<path d="M89.6582 32.2184C89.6582 32.2184 90.2895 29.9374 92.1539 30.0636C93.6184 30.1647 94.8263 32.3405 94.6243 34.6678" stroke="#2E353A" stroke-width="0.0975805" stroke-linecap="round" stroke-linejoin="round"/>
<path d="M106.926 29.8789C105.28 29.8789 104.089 31.3393 103.719 33.6329L105.402 33.7255C105.667 32.404 106.185 31.5623 106.926 31.5623C107.793 31.5623 108.761 32.9596 108.761 34.9628C108.761 36.9661 107.793 38.3591 106.926 38.3591C106.702 38.3591 106.488 38.4478 106.33 38.6057C106.173 38.7635 106.084 38.9776 106.084 39.2008C106.084 39.4241 106.173 39.6382 106.33 39.796C106.488 39.9539 106.702 40.0425 106.926 40.0425C108.899 40.0425 110.444 37.812 110.444 34.9628C110.444 32.1136 108.899 29.8789 106.926 29.8789Z" fill="white" stroke="#2E353A" stroke-width="0.130107" stroke-miterlimit="10"/>
<path d="M109.341 36.3242C109.261 36.6199 109.157 36.9084 109.029 37.187" stroke="#2E353A" stroke-width="0.0975805" stroke-linecap="round" stroke-linejoin="round"/>
<path d="M104.549 32.875C104.549 32.875 105.184 30.5897 107.045 30.716C108.513 30.817 109.717 32.997 109.519 35.3243" stroke="#2E353A" stroke-width="0.0975805" stroke-linecap="round" stroke-linejoin="round"/>
<path d="M121.23 30.6641C119.585 30.6641 118.394 32.1244 118.023 34.4139L119.707 34.5107C119.972 33.1892 120.49 32.3475 121.23 32.3475C122.097 32.3475 123.065 33.7447 123.065 35.7438C123.065 37.7428 122.097 39.1443 121.23 39.1443C121.007 39.1443 120.793 39.233 120.635 39.3908C120.477 39.5487 120.389 39.7628 120.389 39.986C120.389 40.2092 120.477 40.4233 120.635 40.5812C120.793 40.739 121.007 40.8277 121.23 40.8277C123.204 40.8277 124.749 38.593 124.749 35.7438C124.749 32.8946 123.204 30.6641 121.23 30.6641Z" fill="white" stroke="#2E353A" stroke-width="0.130107" stroke-miterlimit="10"/>
<path d="M123.645 37.0859C123.566 37.3832 123.462 37.6732 123.334 37.9529" stroke="#2E353A" stroke-width="0.0975805" stroke-linecap="round" stroke-linejoin="round"/>
<path d="M118.852 33.6406C118.852 33.6406 119.487 31.3554 121.347 31.4816C122.816 31.5826 124.02 33.7584 123.822 36.0858" stroke="#2E353A" stroke-width="0.0975805" stroke-linecap="round" stroke-linejoin="round"/>
<path d="M162.003 88.3215C162.003 88.3215 162.844 89.4747 162.844 89.9671C162.844 90.4595 161.691 91.2843 161.691 92.4333C161.691 93.5822 160.21 93.275 160.046 92.4333C159.881 91.5916 160.374 90.4595 160.374 90.4595C160.374 90.4595 159.688 90.0386 159.532 88.5572C159.376 87.0758 160.711 87.4967 160.711 87.4967L162.003 88.3215Z" fill="white" stroke="#2E353A" stroke-width="0.130107" stroke-linecap="round" stroke-linejoin="round"/>
<path d="M140.96 76.9284C134.862 66.5585 128.457 50.1831 126.18 44.1564L46.9454 40.9453C46.8949 99.5072 64.6213 123.702 64.6213 123.702C64.6213 123.702 84.8013 122.141 108.075 113.446C130.439 105.092 157.113 91.0691 157.113 91.0691C157.113 91.0691 148.548 89.836 140.96 76.9284Z" fill="white" stroke="#2E353A" stroke-width="0.130107" stroke-linecap="round" stroke-linejoin="round"/>
<path d="M126.18 44.1564L46.9453 40.9453C46.9453 46.7068 47.1094 52.1274 47.4125 57.2324L131.087 56.4496C128.919 51.2857 127.173 46.7615 126.18 44.1564Z" fill="#2E353A" stroke="#2E353A" stroke-width="0.130107" stroke-linecap="round" stroke-linejoin="round"/>
<path d="M127.58 61.6148L131.326 61.4844" stroke="#2E353A" stroke-width="0.390322" stroke-linecap="round" stroke-linejoin="round"/>
<path d="M116.572 61.989L124.775 61.707" stroke="#2E353A" stroke-width="0.390322" stroke-linecap="round" stroke-linejoin="round"/>
<path d="M103.242 62.4398L113.785 62.082" stroke="#2E353A" stroke-width="0.390322" stroke-linecap="round" stroke-linejoin="round"/>
<path d="M89.6816 62.8983L100.914 62.5195" stroke="#2E353A" stroke-width="0.390322" stroke-linecap="round" stroke-linejoin="round"/>
<path d="M76.5742 63.3454L86.8725 62.9961" stroke="#2E353A" stroke-width="0.390322" stroke-linecap="round" stroke-linejoin="round"/>
<path d="M62.7598 63.8145L73.0665 63.4609" stroke="#2E353A" stroke-width="0.390322" stroke-linecap="round" stroke-linejoin="round"/>
<path d="M50.6016 64.2267L60.1928 63.8984" stroke="#2E353A" stroke-width="0.390322" stroke-linecap="round" stroke-linejoin="round"/>
<path d="M49.041 73.2565L136.213 67.9453" stroke="#2E353A" stroke-width="0.130107" stroke-linecap="round" stroke-linejoin="round"/>
<path d="M62.8164 72.5039C62.8164 72.5039 64.2473 95.6846 79.5285 121.416" stroke="#2E353A" stroke-width="0.130107" stroke-linecap="round" stroke-linejoin="round"/>
<path d="M76.8809 71.5742C76.8809 71.5742 78.4927 98.0881 95.247 117.502" stroke="#2E353A" stroke-width="0.130107" stroke-linecap="round" stroke-linejoin="round"/>
<path d="M89.6152 70.793C89.6152 70.793 90.457 95.2025 109.29 112.744" stroke="#2E353A" stroke-width="0.130107" stroke-linecap="round" stroke-linejoin="round"/>
<path d="M102.818 70.2266C102.818 70.2266 104.897 97.3633 123.125 106.921" stroke="#2E353A" stroke-width="0.130107" stroke-linecap="round" stroke-linejoin="round"/>
<path d="M116.65 69.1328C116.65 69.1328 118.115 89.6579 136.759 100.899" stroke="#2E353A" stroke-width="0.130107" stroke-linecap="round" stroke-linejoin="round"/>
<path d="M127.543 68.4688C127.543 68.4688 132.56 89.5115 146.595 96.3251" stroke="#2E353A" stroke-width="0.130107" stroke-linecap="round" stroke-linejoin="round"/>
<path d="M50.9512 85.2113L139.987 75.418" stroke="#2E353A" stroke-width="0.130107" stroke-linecap="round" stroke-linejoin="round"/>
<path d="M53.2754 95.6881C53.2754 95.6881 72.2854 94.9432 144.13 81.7031" stroke="#2E353A" stroke-width="0.130107" stroke-linecap="round" stroke-linejoin="round"/>
<path d="M56.6289 106.778C56.6289 106.778 75.1465 108.882 147.693 85.7812" stroke="#2E353A" stroke-width="0.130107" stroke-linecap="round" stroke-linejoin="round"/>
<path d="M60.6348 116.453C60.6348 116.453 76.0717 121.567 151.901 89.0977" stroke="#2E353A" stroke-width="0.130107" stroke-linecap="round" stroke-linejoin="round"/>
<path d="M81.1696 52.4029L52.6272 52.0199C52.396 52.0165 52.1738 51.9293 52.002 51.7745C51.8302 51.6197 51.7204 51.4078 51.6929 51.1782L51.4488 48.8719C51.4345 48.7392 51.4485 48.605 51.49 48.4781C51.5314 48.3512 51.5994 48.2345 51.6893 48.1359C51.7792 48.0372 51.8891 47.9587 52.0116 47.9057C52.1341 47.8527 52.2664 47.8263 52.3999 47.8282L80.5972 48.3164C80.8056 48.3201 81.007 48.3921 81.1705 48.5213C81.3339 48.6506 81.4504 48.83 81.502 49.0319L82.0744 51.2245C82.1102 51.3632 82.1139 51.5082 82.0854 51.6485C82.0567 51.7888 81.9966 51.9208 81.9093 52.0344C81.8221 52.148 81.7102 52.2402 81.582 52.304C81.4538 52.3679 81.3128 52.4017 81.1696 52.4029Z" fill="white"/>
</svg>
