<svg width="37" height="21" viewBox="0 0 37 21" fill="none" xmlns="http://www.w3.org/2000/svg">
<path d="M18.5137 2.69582C19.8088 3.64803 20.8557 4.86373 21.5751 6.2509C22.2946 7.63806 22.6677 9.16035 22.6662 10.7025C22.6672 12.2442 22.2939 13.7659 21.5744 15.1525C20.855 16.5391 19.8084 17.7543 18.5137 18.7062C17.2187 17.7542 16.172 16.5387 15.4525 15.1518C14.7331 13.7649 14.3599 12.243 14.3611 10.701C14.3599 9.1591 14.7331 7.63711 15.4525 6.25022C16.172 4.86333 17.2187 3.64787 18.5137 2.69582ZM17.122 1.82383C15.7511 2.91991 14.6506 4.28176 13.8967 5.81524C13.1427 7.34871 12.7532 9.01725 12.7551 10.7055C12.7533 12.3931 13.1425 14.0609 13.8959 15.5938C14.6493 17.1267 15.7489 18.4882 17.1188 19.5842C15.4639 20.4544 13.5946 20.9037 11.6968 20.8875C9.79894 20.8713 7.9387 20.3901 6.30095 19.4918C4.66321 18.5935 3.305 17.3094 2.36133 15.767C1.41766 14.2247 0.921395 12.4779 0.921875 10.7002C0.922356 8.92252 1.41956 7.17592 2.36406 5.63402C3.30857 4.09212 4.66747 2.80861 6.30571 1.91108C7.94394 1.01355 9.80443 0.533263 11.7023 0.517956C13.6001 0.502649 15.4691 0.952857 17.1236 1.82383H17.122ZM19.9085 19.5842C21.2784 18.4882 22.3781 17.1267 23.1315 15.5938C23.8849 14.0609 24.2741 12.3931 24.2722 10.7055C24.2741 9.01725 23.8847 7.34871 23.1307 5.81524C22.3767 4.28176 21.2762 2.91991 19.9053 1.82383C21.5598 0.952857 23.4289 0.502649 25.3267 0.517956C27.2245 0.533263 29.085 1.01355 30.7232 1.91108C32.3615 2.80861 33.7204 4.09212 34.6649 5.63402C35.6094 7.17592 36.1066 8.92252 36.1071 10.7002C36.1075 12.4779 35.6113 14.2247 34.6676 15.767C33.7239 17.3094 32.3657 18.5935 30.728 19.4918C29.0902 20.3901 27.23 20.8713 25.3322 20.8875C23.4344 20.9037 21.5651 20.4544 19.9101 19.5842H19.9085Z" fill="white"/>
</svg>
