<svg width="20" height="24" viewBox="0 0 20 24" fill="none" xmlns="http://www.w3.org/2000/svg">
<path d="M17.1873 14.4C17.5567 14.4 17.9224 14.4698 18.2637 14.6055C18.6049 14.7412 18.915 14.9401 19.1762 15.1908C19.4374 15.4415 19.6445 15.7392 19.7859 16.0668C19.9272 16.3943 20 16.7454 20 17.1V18.1848C20.0002 18.8335 19.8543 19.4745 19.5722 20.064C19.2902 20.6534 18.8788 21.1774 18.3661 21.6C16.4098 23.2128 13.6083 24 9.99562 24C6.3829 24 3.58522 23.2128 1.6326 21.6C1.12065 21.1777 0.709736 20.6543 0.427965 20.0654C0.146195 19.4766 0.00021256 18.8364 0 18.1884V17.0988C0.000331445 16.3829 0.296812 15.6965 0.824255 15.1904C1.3517 14.6843 2.06692 14.4 2.81268 14.4H17.1886H17.1873ZM9.87062 0.00720005L9.99562 0C10.2222 9.17148e-06 10.4411 0.0787712 10.6118 0.22172C10.7826 0.36467 10.8936 0.562136 10.9244 0.7776L10.9332 0.9L10.9319 1.7988H15.3072C16.0532 1.7988 16.7686 2.08326 17.2961 2.58961C17.8235 3.09596 18.1199 3.78272 18.1199 4.4988V9.9048C18.1199 10.6209 17.8235 11.3076 17.2961 11.814C16.7686 12.3203 16.0532 12.6048 15.3072 12.6048H4.68154C3.93557 12.6048 3.22016 12.3203 2.69268 11.814C2.1652 11.3076 1.86887 10.6209 1.86887 9.9048V4.5C1.86887 4.14533 1.94166 3.79414 2.08309 3.46648C2.22452 3.13882 2.43181 2.84112 2.69312 2.59039C2.95444 2.33965 3.26465 2.1408 3.60604 2.00518C3.94744 1.86956 4.31332 1.79984 4.68279 1.8L9.05807 1.7988V0.9C9.05812 0.682335 9.14034 0.472062 9.28951 0.308129C9.43868 0.144196 9.64468 0.0377122 9.86937 0.00839996L9.99562 0L9.86812 0.00839996L9.87062 0.00720005ZM7.1817 5.4C6.9714 5.39192 6.76157 5.4247 6.5648 5.49639C6.36803 5.56807 6.18837 5.67717 6.0366 5.81714C5.88484 5.95711 5.76409 6.12507 5.68161 6.31095C5.59912 6.49682 5.55661 6.69677 5.55661 6.8988C5.55661 7.10083 5.59912 7.30078 5.68161 7.48666C5.76409 7.67253 5.88484 7.84049 6.0366 7.98046C6.18837 8.12043 6.36803 8.22953 6.5648 8.30122C6.76157 8.3729 6.9714 8.40568 7.1817 8.3976C7.58498 8.38211 7.96638 8.21742 8.24601 7.93804C8.52564 7.65865 8.6818 7.28624 8.6818 6.8988C8.6818 6.51136 8.52564 6.13895 8.24601 5.85957C7.96638 5.58018 7.58498 5.41549 7.1817 5.4ZM12.7983 5.4C12.588 5.39192 12.3782 5.4247 12.1814 5.49639C11.9846 5.56807 11.805 5.67717 11.6532 5.81714C11.5014 5.95711 11.3807 6.12507 11.2982 6.31095C11.2157 6.49682 11.1732 6.69677 11.1732 6.8988C11.1732 7.10083 11.2157 7.30078 11.2982 7.48666C11.3807 7.67253 11.5014 7.84049 11.6532 7.98046C11.805 8.12043 11.9846 8.22953 12.1814 8.30122C12.3782 8.3729 12.588 8.40568 12.7983 8.3976C13.2016 8.38211 13.583 8.21742 13.8626 7.93804C14.1422 7.65865 14.2984 7.28624 14.2984 6.8988C14.2984 6.51136 14.1422 6.13895 13.8626 5.85957C13.583 5.58018 13.2016 5.41549 12.7983 5.4Z" fill="#3C8AFF"/>
</svg>
