<svg width="26" height="25" viewBox="0 0 26 25" fill="none" xmlns="http://www.w3.org/2000/svg">
<path fill-rule="evenodd" clip-rule="evenodd" d="M0.5 2.50167C0.5 1.11741 1.61833 0 3 0H23C24.3817 0 25.5 1.11741 25.5 2.50167V17.5C25.5 18.8843 24.3817 20.0017 23 20.0017H13.2783L6.83333 24.8332C6.70953 24.9261 6.56231 24.9827 6.40817 24.9966C6.25404 25.0105 6.09908 24.9812 5.96066 24.912C5.82223 24.8427 5.70582 24.7362 5.62446 24.6045C5.5431 24.4728 5.5 24.321 5.5 24.1661V20H3C1.61833 20 0.5 18.8826 0.5 17.4983V2.50167ZM7.16667 6.66611H18.8333V8.33389H7.16667V6.66611ZM7.16667 11.6661H15.5V13.3339H7.16667V11.6661Z" fill="#3C8AFF"/>
</svg>
