<svg width="116" height="114" viewBox="0 0 116 114" fill="none" xmlns="http://www.w3.org/2000/svg">
<path d="M18.4624 75.1631C16.4496 75.1631 14.4819 74.5663 12.8082 73.448C11.1346 72.3297 9.83015 70.7402 9.05986 68.8805C8.28957 67.0209 8.08802 64.9746 8.48071 63.0004C8.87341 61.0262 9.8427 59.2128 11.266 57.7895C12.6893 56.3661 14.5027 55.3968 16.4769 55.0042C18.4511 54.6115 20.4975 54.813 22.3571 55.5833C24.2168 56.3536 25.8062 57.658 26.9245 59.3317C28.0428 61.0053 28.6397 62.973 28.6397 64.9859C28.6397 67.6851 27.5675 70.2737 25.6589 72.1823C23.7502 74.0909 21.1616 75.1631 18.4624 75.1631ZM18.4624 55.2817C16.5408 55.2812 14.6622 55.8505 13.0642 56.9177C11.4662 57.9849 10.2206 59.502 9.48483 61.2771C8.74909 63.0523 8.5563 65.0058 8.93085 66.8905C9.3054 68.7753 10.2305 70.5066 11.589 71.8656C12.9476 73.2245 14.6787 74.1501 16.5633 74.5252C18.448 74.9003 20.4015 74.708 22.1769 73.9728C23.9523 73.2375 25.4697 71.9923 26.5374 70.3946C27.605 68.7969 28.1749 66.9185 28.1749 64.9969C28.1719 62.4216 27.1478 59.9526 25.3271 58.1314C23.5064 56.3102 21.0377 55.2853 18.4624 55.2817Z" fill="#EBEBEB"/>
<path d="M17.9517 76.5996C17.7977 76.5996 17.6437 76.5831 17.4896 76.5721L17.5281 76.121C17.6739 76.121 17.8224 76.143 17.971 76.1485L17.9517 76.5996ZM19.5691 76.5583L19.5251 76.11C19.6736 76.0962 19.8194 76.077 19.9679 76.0577L20.0284 76.5061C19.8772 76.5281 19.7259 76.5446 19.5691 76.5583ZM15.8888 76.3245C15.7375 76.2915 15.5889 76.253 15.4377 76.2145L15.5559 75.7772C15.699 75.8157 15.8448 75.8514 15.9878 75.8844L15.8888 76.3245ZM21.6183 76.1787L21.4945 75.7414C21.6375 75.7029 21.7696 75.6589 21.9209 75.6121L22.0611 76.044L21.6183 76.1787ZM13.9166 75.6836C13.7735 75.6231 13.6415 75.5599 13.493 75.4938L13.6855 75.084C13.8203 75.15 13.9606 75.2105 14.0926 75.2683L13.9166 75.6836ZM23.5685 75.4361L23.3704 75.029C23.5052 74.963 23.6455 74.897 23.7665 74.8254L23.9811 75.2243C23.838 75.2958 23.7005 75.3673 23.5602 75.4361H23.5685ZM12.0819 74.6989C11.9526 74.6137 11.8234 74.5256 11.6996 74.4239L11.9746 74.0553C12.0929 74.1433 12.2167 74.2286 12.3405 74.3083L12.0819 74.6989ZM25.3481 74.3578L25.0731 73.992L25.4251 73.7169L25.7002 74.069C25.5764 74.1708 25.4637 74.2671 25.3399 74.3578H25.3481ZM10.448 73.4006C10.3353 73.2934 10.2252 73.1861 10.118 73.0733L10.448 72.7597C10.5526 72.867 10.6571 72.9715 10.7644 73.0733L10.448 73.4006ZM26.9022 72.9798L26.5749 72.669C26.6767 72.5617 26.7757 72.4517 26.8747 72.3389L27.213 72.636C27.1085 72.7542 27.0067 72.867 26.8995 72.9798H26.9022ZM9.07274 71.8355C8.98197 71.7118 8.89395 71.5852 8.79768 71.4559L9.17451 71.2056C9.25703 71.3267 9.3423 71.4504 9.43032 71.5687L9.07274 71.8355ZM28.1895 71.3514L27.8127 71.1039C27.8924 70.9801 27.9722 70.8536 28.0492 70.727L28.4371 70.9581C28.3573 71.0764 28.2748 71.2166 28.1895 71.3514ZM8.00275 70.0586C7.93399 69.9183 7.87072 69.7836 7.80746 69.6378L8.2228 69.4562C8.28332 69.5938 8.34383 69.7313 8.40709 69.8606L8.00275 70.0586ZM29.1825 69.5085L28.7671 69.3325C28.8249 69.1949 28.8799 69.0574 28.9322 68.9171L29.3558 69.0767C29.287 69.2224 29.2292 69.3655 29.1687 69.5085H29.1825ZM7.27934 68.1057C7.23808 67.9572 7.20232 67.8086 7.16656 67.6573L7.60666 67.5528C7.63967 67.6986 7.67543 67.8416 7.71669 67.9847L7.27934 68.1057ZM29.8151 67.5226L29.375 67.4235C29.408 67.2805 29.4355 67.1347 29.463 66.9889L29.9086 67.0687C29.8674 67.2255 29.8371 67.3713 29.8014 67.5226H29.8151ZM6.90801 66.0592C6.89334 65.9052 6.88233 65.7512 6.875 65.5971L7.31235 65.5751C7.31235 65.7237 7.32335 65.8722 7.34535 66.0207L6.90801 66.0592ZM30.0819 65.4569L29.6308 65.4404C29.6308 65.2918 29.6308 65.1433 29.6308 64.9948V64.948H30.0847V64.992C30.0792 65.1515 30.0764 65.3001 30.0682 65.4569H30.0819ZM7.33985 64.0155L6.88875 63.977C6.88875 63.823 6.91901 63.669 6.93826 63.5177L7.38661 63.5727C7.37011 63.7212 7.35361 63.867 7.33985 64.0155ZM29.5126 63.3966C29.4906 63.2509 29.4685 63.1023 29.441 62.9593L29.8866 62.8768C29.9141 63.0281 29.9389 63.1793 29.9609 63.3334L29.5126 63.3966ZM7.69743 62.0461L7.26009 61.9278C7.30226 61.7793 7.34627 61.6307 7.39211 61.4822L7.82396 61.6197C7.7717 61.76 7.73044 61.9031 7.69743 62.0461ZM29.0532 61.4492C29.0037 61.3062 28.9542 61.1741 28.9019 61.0284L29.3255 60.8688C29.3805 61.0119 29.4328 61.1576 29.4823 61.3034L29.0532 61.4492ZM8.39059 60.1702L7.97249 59.9776C8.03851 59.8373 8.10728 59.7026 8.18154 59.5623L8.58038 59.7741C8.52262 59.9061 8.45385 60.0381 8.39059 60.1729V60.1702ZM28.25 59.6201C28.1785 59.4908 28.1042 59.3615 28.0272 59.235L28.4151 59.0012C28.4948 59.1332 28.5718 59.2762 28.6461 59.4028L28.25 59.6201ZM9.41382 58.4538L9.04799 58.1787C9.13876 58.0549 9.23228 57.9312 9.32305 57.8101L9.67787 58.0852C9.59261 58.2145 9.50184 58.3328 9.41382 58.4538ZM27.1333 57.9614C27.0398 57.8459 26.9481 57.7331 26.8582 57.6231L27.1993 57.3233C27.3011 57.4388 27.4001 57.5571 27.4964 57.6754L27.1333 57.9614ZM10.7231 56.9437L10.4095 56.6164C10.5223 56.5091 10.6351 56.4046 10.7506 56.3028L11.0504 56.6411C10.9459 56.7402 10.8359 56.8392 10.7231 56.9437ZM25.7332 56.5284C25.6204 56.4293 25.5049 56.3358 25.3894 56.2533L25.6644 55.8985C25.7855 55.9947 25.9037 56.091 26.022 56.1928L25.7332 56.5284ZM12.2827 55.7032L12.0324 55.3263L12.423 55.076L12.6595 55.4639C12.5385 55.5299 12.412 55.6097 12.2882 55.6922L12.2827 55.7032ZM24.1103 55.3731L23.7225 55.1558L23.9343 54.757C24.0718 54.8312 24.2094 54.9055 24.3387 54.9853L24.1103 55.3731ZM14.0459 54.7377L13.8671 54.3224C14.0073 54.2619 14.1421 54.2041 14.2934 54.1491L14.4584 54.5699C14.3182 54.6249 14.1806 54.6799 14.0459 54.7377ZM22.2977 54.5094C22.1574 54.4571 22.0226 54.4104 21.8741 54.3636L22.0144 53.9318C22.1602 53.9813 22.3087 54.0308 22.4517 54.0831L22.2977 54.5094ZM15.9493 54.1161L15.8475 53.676C15.996 53.6402 16.1473 53.61 16.3014 53.5797L16.3839 54.0253C16.2243 54.0528 16.0896 54.0831 15.9493 54.1161ZM20.3695 53.9923C20.2237 53.9675 20.0779 53.9455 19.9294 53.9263L19.9872 53.4779C20.1412 53.4972 20.2952 53.5219 20.4465 53.5467L20.3695 53.9923ZM17.9297 53.8438L17.9077 53.3927C18.0617 53.3927 18.2158 53.3927 18.3726 53.3789V53.8328C18.224 53.8328 18.0755 53.8355 17.927 53.8438H17.9297Z" fill="#EBEBEB"/>
<path d="M16.9013 71.2833H20.0343V66.5577H24.7598V63.4248H20.0343V58.6992H16.9013V63.4248H12.1758V66.5577H16.9013V71.2833Z" fill="#EBEBEB"/>
<path d="M103.92 23.323C102.225 25.5901 100.061 27.4662 97.5773 28.8242C95.0989 27.4646 92.9414 25.5886 91.2509 23.323C89.0174 20.3688 89.1274 15.7423 92.3208 14.7411C95.8526 13.6408 97.5883 18.9523 97.5883 18.9523C97.5883 18.9523 99.3487 13.6023 102.858 14.7411C106.03 15.7891 106.151 20.3688 103.92 23.323Z" fill="#EBEBEB"/>
<path d="M95.0886 26.4912L94.1259 22.4835L93.496 23.8973H89.6094V23.4435H93.2044L94.2524 21.0807L95.0033 24.2054L96.0651 17.7305L97.003 22.8521L97.7429 20.7149L98.9092 24.2164L99.1678 23.4435H105.555V23.8946H99.4951L98.9092 25.644L97.7347 22.1204L96.8655 24.629L96.0898 20.3793L95.0886 26.4912Z" fill="white"/>
<path d="M97.5874 30.7256C95.5746 30.7256 93.6069 30.1288 91.9332 29.0105C90.2596 27.8922 88.9552 26.3027 88.1849 24.443C87.4146 22.5834 87.213 20.5371 87.6057 18.5629C87.9984 16.5887 88.9677 14.7753 90.391 13.352C91.8143 11.9286 93.6277 10.9593 95.6019 10.5667C97.5761 10.174 99.6225 10.3755 101.482 11.1458C103.342 11.9161 104.931 13.2205 106.05 14.8942C107.168 16.5678 107.765 18.5355 107.765 20.5484C107.765 23.2476 106.692 25.8362 104.784 27.7448C102.875 29.6534 100.287 30.7256 97.5874 30.7256ZM97.5874 10.8442C95.666 10.8442 93.7876 11.414 92.19 12.4815C90.5923 13.549 89.3471 15.0663 88.6118 16.8415C87.8765 18.6168 87.6841 20.5702 88.0589 22.4547C88.4338 24.3393 89.3591 26.0703 90.7178 27.429C92.0765 28.7877 93.8075 29.713 95.6921 30.0879C97.5767 30.4627 99.5301 30.2703 101.305 29.535C103.08 28.7997 104.598 27.5545 105.665 25.9568C106.733 24.3592 107.303 22.4809 107.303 20.5594C107.302 17.9825 106.278 15.5112 104.457 13.6886C102.635 11.8659 100.164 10.8409 97.5874 10.8387V10.8442Z" fill="#EBEBEB"/>
<path d="M97.0918 32.1635C96.9378 32.1635 96.7837 32.147 96.6297 32.1333L96.6682 31.6822C96.814 31.6959 96.9625 31.7042 97.1138 31.7124L97.0918 32.1635ZM98.7119 32.1223L98.6679 31.6712C98.8164 31.6574 98.965 31.6409 99.1107 31.6217L99.1713 32.07C99.0172 32.0893 98.8522 32.1085 98.6982 32.1223H98.7119ZM95.0288 31.8885C94.8776 31.8555 94.729 31.8169 94.5805 31.7784L94.696 31.3411C94.839 31.3796 94.9848 31.4154 95.1306 31.4484L95.0288 31.8885ZM100.758 31.7399L100.635 31.3053C100.778 31.2641 100.91 31.2228 101.061 31.1761L101.201 31.6079C101.042 31.6547 100.893 31.6987 100.745 31.7427L100.758 31.7399ZM93.0566 31.2476C92.9136 31.1871 92.7816 31.1238 92.6331 31.0578L92.8256 30.6479L93.2327 30.8322L93.0566 31.2476ZM102.711 30.9973L102.513 30.5902C102.645 30.5269 102.788 30.4581 102.907 30.3894L103.121 30.7855C102.964 30.8597 102.827 30.9312 102.689 30.9973H102.711ZM91.222 30.2601C91.0927 30.1748 90.9662 30.0868 90.8396 29.985L91.1147 29.6165C91.2357 29.7045 91.3568 29.787 91.4805 29.8695L91.222 30.2601ZM104.488 29.919L104.213 29.5559C104.334 29.4679 104.45 29.3772 104.565 29.2809L104.84 29.6357C104.714 29.7347 104.593 29.8172 104.466 29.919H104.488ZM89.5936 28.9646C89.4808 28.8573 89.3708 28.7473 89.2636 28.6372L89.5909 28.3237C89.6936 28.4282 89.7981 28.5327 89.9044 28.6372L89.5936 28.9646ZM106.048 28.5437L105.72 28.2301C105.822 28.1229 105.921 28.0128 106.02 27.9028L106.361 28.1999C106.238 28.3154 106.133 28.4419 106.026 28.5437H106.048ZM88.2211 27.3995C88.1303 27.2729 88.0423 27.1492 87.946 27.0199L88.3201 26.7668C88.4026 26.8906 88.4879 27.0116 88.5759 27.1327L88.2211 27.3995ZM107.341 26.9098L106.961 26.6623C107.041 26.5358 107.121 26.412 107.198 26.2827L107.585 26.5165C107.484 26.6485 107.401 26.7916 107.319 26.9098H107.341ZM87.1511 25.6143C87.0823 25.4768 87.019 25.3392 86.9585 25.1962L87.3711 25.0147C87.4316 25.1495 87.4922 25.2897 87.5582 25.419L87.1511 25.6143ZM108.331 25.0642L107.915 24.8881C107.973 24.7534 108.028 24.6131 108.081 24.4756L108.504 24.6351C108.413 24.7836 108.369 24.9294 108.295 25.0697L108.331 25.0642ZM86.4304 23.6641C86.3892 23.5156 86.3506 23.3643 86.3149 23.2158L86.755 23.1113C86.788 23.257 86.8265 23.4001 86.865 23.5431L86.4304 23.6641ZM108.919 23.0865L108.477 22.9875C108.51 22.8417 108.54 22.6959 108.565 22.5501L109.01 22.6299C108.994 22.7839 108.963 22.9407 108.919 23.0865ZM86.0096 21.6204C85.9949 21.4682 85.9839 21.3142 85.9766 21.1583L86.4277 21.1363C86.4277 21.2848 86.4469 21.4334 86.4607 21.5792L86.0096 21.6204ZM109.195 21.0153L108.741 20.9988C108.741 20.8502 108.741 20.7017 108.741 20.5532V20.5064H109.195V20.5504C109.195 20.7127 109.195 20.8668 109.195 21.0153ZM86.4634 19.574L86.0151 19.5355C86.0151 19.3814 86.0426 19.2274 86.0618 19.0734L86.5129 19.1311C86.4964 19.2824 86.4799 19.4309 86.4662 19.5795L86.4634 19.574ZM108.644 18.9606C108.625 18.812 108.6 18.6663 108.573 18.5205L109.018 18.438C109.046 18.5892 109.071 18.7433 109.093 18.8946L108.644 18.9606ZM86.8238 17.61L86.3864 17.4917C86.4277 17.3405 86.4717 17.1947 86.5184 17.0461L86.9503 17.1837C86.9145 17.324 86.8568 17.467 86.8182 17.61H86.8238ZM108.185 17.0131C108.138 16.8729 108.086 16.7381 108.034 16.595L108.457 16.4328C108.512 16.5795 108.565 16.7252 108.614 16.8701L108.185 17.0131ZM87.5224 15.7341L87.1153 15.5388C87.1813 15.3985 87.2528 15.2637 87.3244 15.1262L87.7232 15.338C87.6489 15.4673 87.5829 15.6021 87.5169 15.7341H87.5224ZM107.382 15.184C107.31 15.052 107.236 14.9254 107.159 14.7989L107.547 14.5651C107.627 14.6944 107.704 14.8402 107.778 14.9639L107.382 15.184ZM88.5484 14.015L88.1798 13.7399C88.2715 13.6134 88.3632 13.4896 88.4549 13.3686L88.8097 13.6436C88.7189 13.7757 88.6282 13.8967 88.5429 14.015H88.5484ZM106.265 13.5254C106.172 13.4098 106.075 13.2971 105.976 13.1843L106.317 12.8872C106.419 13.0027 106.518 13.1183 106.614 13.2393L106.265 13.5254ZM89.8604 12.5049L89.5469 12.1803C89.6596 12.073 89.7724 11.9685 89.8879 11.8667L90.1823 12.2133C90.0722 12.3041 89.9622 12.4031 89.8549 12.5049H89.8604ZM104.871 12.0895C104.758 11.9933 104.642 11.8997 104.527 11.8145L104.802 11.4597C104.923 11.5559 105.041 11.6549 105.159 11.7567L104.871 12.0895ZM91.4228 11.2644L91.1697 10.8903C91.299 10.8023 91.4283 10.7197 91.5603 10.64L91.7969 11.0278C91.6648 11.0938 91.5383 11.1736 91.4173 11.2534L91.4228 11.2644ZM103.25 10.937C103.124 10.8628 102.995 10.7885 102.863 10.7197L103.074 10.3209C103.212 10.3924 103.349 10.4694 103.479 10.5464L103.25 10.937ZM93.1859 10.3126L93.0071 9.8973C93.1465 9.83679 93.2895 9.77902 93.4362 9.72401L93.5985 10.1449C93.4445 10.1861 93.3097 10.2439 93.1722 10.3016L93.1859 10.3126ZM101.438 10.0816C101.297 10.0321 101.163 9.98257 101.017 9.93856L101.154 9.50672C101.303 9.55348 101.449 9.60299 101.595 9.658L101.438 10.0816ZM95.0839 9.69101L94.9821 9.24816C95.1306 9.21515 95.2819 9.18214 95.4359 9.15463L95.5184 9.59748C95.3617 9.61399 95.2159 9.647 95.0728 9.68L95.0839 9.69101ZM99.5041 9.56723C99.3583 9.54247 99.2125 9.52047 99.064 9.50121L99.1218 9.05286C99.2758 9.07212 99.4298 9.09412 99.5811 9.12163L99.5041 9.56723ZM97.0643 9.41869L97.045 8.96484C97.1963 8.96484 97.3504 8.96484 97.5071 8.96484V9.41594C97.3504 9.39669 97.2018 9.39944 97.0533 9.40769L97.0643 9.41869Z" fill="#EBEBEB"/>
<path d="M29.8134 19.1251C31.6862 12.3077 27.6777 5.26288 20.8602 3.39016C14.0427 1.51744 6.99796 5.52594 5.12524 12.3434C3.25252 19.1609 7.26102 26.2056 14.0785 28.0784C20.8959 29.9511 27.9407 25.9426 29.8134 19.1251Z" fill="#EBEBEB"/>
<path d="M22.6675 27.3358C28.9147 24.7889 31.9144 17.6599 29.3675 11.4127C26.8206 5.16546 19.6916 2.16577 13.4444 4.71266C7.19717 7.25955 4.19748 14.3886 6.74437 20.6358C9.29126 26.883 16.4203 29.8827 22.6675 27.3358Z" fill="#DBDBDB"/>
<path d="M18.0558 27.4632C24.3754 27.4632 29.4984 22.3402 29.4984 16.0207C29.4984 9.70113 24.3754 4.57812 18.0558 4.57812C11.7363 4.57812 6.61328 9.70113 6.61328 16.0207C6.61328 22.3402 11.7363 27.4632 18.0558 27.4632Z" fill="white"/>
<path opacity="0.5" d="M29.2421 13.5884C24.016 16.7461 15.4643 21.9256 10.6782 24.7642C9.32533 23.6234 8.2549 22.1848 7.55078 20.5612L23.3723 5.88672C24.8537 6.66403 26.1469 7.75635 27.161 9.08691C28.175 10.4175 28.8854 11.954 29.2421 13.5884Z" fill="#EBEBEB"/>
<path opacity="0.5" d="M29.4951 16.4219C29.4537 17.6952 29.1979 18.9524 28.7387 20.1407L14.4657 26.8907C13.8436 26.6865 13.2407 26.4279 12.6641 26.1178C16.9743 23.6257 24.852 19.0927 29.4951 16.4219Z" fill="#EBEBEB"/>
<path d="M18.1654 5.41016H17.9453V7.14579H18.1654V5.41016Z" fill="#C7C7C7"/>
<path d="M12.8468 6.77279L12.6562 6.88281L13.5241 8.38592L13.7146 8.27589L12.8468 6.77279Z" fill="#C7C7C7"/>
<path d="M8.91862 10.618L8.80859 10.8086L10.3117 11.6764L10.4217 11.4858L8.91862 10.618Z" fill="#C7C7C7"/>
<path d="M9.18095 15.9102H7.44531V16.1302H9.18095V15.9102Z" fill="#C7C7C7"/>
<path d="M10.3117 20.3626L8.80859 21.2305L8.91862 21.421L10.4217 20.5532L10.3117 20.3626Z" fill="#C7C7C7"/>
<path d="M13.523 23.6525L12.6562 25.1562L12.8469 25.2661L13.7137 23.7624L13.523 23.6525Z" fill="#C7C7C7"/>
<path d="M18.1654 24.8984H17.9453V26.6341H18.1654V24.8984Z" fill="#C7C7C7"/>
<path d="M22.589 23.6556L22.3984 23.7656L23.2663 25.2687L23.4568 25.1587L22.589 23.6556Z" fill="#C7C7C7"/>
<path d="M25.9303 20.2148L25.8203 20.4062L27.3303 21.2741L27.4403 21.0826L25.9303 20.2148Z" fill="#C7C7C7"/>
<path d="M28.6692 15.9102H26.9336V16.1302H28.6692V15.9102Z" fill="#C7C7C7"/>
<path d="M27.1945 10.6205L25.6914 11.4883L25.8014 11.6788L27.3045 10.811L27.1945 10.6205Z" fill="#C7C7C7"/>
<path d="M23.2657 6.77393L22.3984 8.27734L22.589 8.3873L23.4563 6.88389L23.2657 6.77393Z" fill="#C7C7C7"/>
<path d="M18.2253 6.19416L18.6021 16.795L17.5156 16.7813L17.931 6.19141L18.2253 6.19416Z" fill="#C7C7C7"/>
<path d="M24.8291 12.325L17.6996 16.8772L17.1797 15.9228L24.6889 12.0664L24.8291 12.325Z" fill="#A6A6A6"/>
<path d="M18.4224 16.0198C18.4224 16.0932 18.4006 16.165 18.3598 16.2261C18.319 16.2871 18.261 16.3347 18.1931 16.3628C18.1253 16.3909 18.0506 16.3983 17.9786 16.384C17.9065 16.3696 17.8404 16.3343 17.7884 16.2823C17.7365 16.2304 17.7012 16.1642 17.6868 16.0922C17.6725 16.0202 17.6798 15.9455 17.708 15.8777C17.7361 15.8098 17.7837 15.7518 17.8447 15.711C17.9058 15.6702 17.9776 15.6484 18.051 15.6484C18.1495 15.6484 18.244 15.6876 18.3136 15.7572C18.3832 15.8268 18.4224 15.9213 18.4224 16.0198Z" fill="#C7C7C7"/>
<path d="M11.9837 77.6948L8.37485 77.769L6.54294 77.8021C5.92956 77.8021 5.31342 77.8021 4.70003 77.8158H4.579V77.6948L4.5625 74.6168V74.4766H4.70003L8.34184 74.4931C9.55762 74.4931 10.7706 74.5233 11.9837 74.5371H12.0607V74.6113C12.0607 75.1312 12.0359 75.6511 12.0249 76.1654L11.9837 77.6948ZM11.9837 77.6948L11.9451 76.1379C11.9451 75.6263 11.9149 75.1202 11.9094 74.6168L11.9837 74.6911C10.7706 74.7049 9.55762 74.7351 8.34184 74.7351L4.70003 74.7544L4.83756 74.6168V77.6948L4.71378 77.571C5.31342 77.571 5.91305 77.571 6.51544 77.5848L8.32534 77.6178L11.9837 77.6948Z" fill="#EBEBEB"/>
<path d="M7.92116 81.576L4.31235 81.6503L2.48044 81.6833C1.86706 81.6833 1.25092 81.6833 0.637531 81.697H0.516504V81.576L0.5 78.5036V78.3633H0.637531L4.27934 78.3798C5.49237 78.3798 6.70814 78.41 7.92116 78.4238H7.99817V78.5036C7.99817 79.0234 7.97617 79.5433 7.96242 80.0577L7.92116 81.576ZM7.92116 81.576L7.88265 80.0192C7.8689 79.5075 7.85239 79.0014 7.84689 78.4981L7.92116 78.5723C6.70814 78.5861 5.49237 78.6163 4.27934 78.6163L0.637531 78.6328L0.775061 78.4981L0.761309 81.576L0.637531 81.4522C1.23716 81.4522 1.8368 81.4522 2.43918 81.4522L4.24909 81.4852L7.92116 81.576Z" fill="#EBEBEB"/>
<path d="M82.4028 43.4303L78.7912 43.5073L76.9593 43.5376C76.3487 43.5513 75.7325 43.5376 75.1192 43.5541H74.9981V43.4303L74.9844 40.3524V40.2148H75.1219L78.7637 40.2341C79.9767 40.2341 81.1925 40.2644 82.4055 40.2781H82.4826V40.3524C82.4826 40.875 82.4605 41.3949 82.4468 41.9092L82.4028 43.4303ZM82.4028 43.4303L82.3643 41.8762C82.3643 41.3646 82.334 40.8557 82.3285 40.3524L82.4028 40.4294C81.1898 40.4294 79.974 40.4707 78.761 40.4734L75.1192 40.4899L75.2567 40.3524L75.2402 43.4303L75.1192 43.3093C75.7188 43.3093 76.3184 43.3093 76.9181 43.3093L78.728 43.3395L82.4028 43.4303Z" fill="#EBEBEB"/>
<path d="M78.3403 47.3104L74.7287 47.3874L72.8858 47.4204C72.2752 47.4204 71.659 47.4204 71.0457 47.4369H70.9219V47.3131V44.2352V44.0977H71.0594L74.7012 44.1169C75.9142 44.1169 77.1273 44.1472 78.343 44.1609H78.4173V44.2352C78.4173 44.7578 78.3926 45.2777 78.3815 45.792L78.3403 47.3104ZM78.3403 47.3104L78.3018 45.7563C78.288 45.2447 78.2688 44.7358 78.2633 44.2324L78.3403 44.3095C77.1245 44.3232 75.9115 44.3507 74.6985 44.3535L71.0567 44.37L71.1942 44.2324L71.1777 47.3104L71.0567 47.1893C71.6563 47.1893 72.2559 47.1893 72.8556 47.2031L74.6655 47.2334L78.3403 47.3104Z" fill="#EBEBEB"/>
<path d="M74.2922 43.4303L70.6834 43.5073L68.8515 43.5376C68.2381 43.5513 67.6248 43.5376 67.0086 43.5541H66.8876V43.4303L66.8711 40.3524V40.2148H67.0086L70.6504 40.2341C71.8662 40.2341 73.0792 40.2644 74.2922 40.2781H74.3693V40.3524C74.3693 40.875 74.3445 41.3949 74.3335 41.9092L74.2922 43.4303ZM74.2922 43.4303L74.2537 41.8762C74.2537 41.3646 74.2235 40.8557 74.218 40.3524L74.2922 40.4294C73.0792 40.4294 71.8662 40.4707 70.6504 40.4734L67.0086 40.4899L67.1462 40.3524L67.1324 43.4303L67.0086 43.3093C67.611 43.3093 68.2079 43.3093 68.8103 43.3093L70.6202 43.3395L74.2922 43.4303Z" fill="#EBEBEB"/>
<path d="M115.425 81.576L111.814 81.6503L109.982 81.6833C109.371 81.6833 108.755 81.6833 108.141 81.697H108.018V81.576L108.004 78.5036V78.3633H108.141L111.783 78.3798C112.996 78.3798 114.212 78.41 115.425 78.4238H115.499V78.5036C115.499 79.0234 115.477 79.5433 115.464 80.0577L115.425 81.576ZM115.425 81.576L115.387 80.0192C115.387 79.5075 115.354 79.0014 115.351 78.4981L115.425 78.5723C114.212 78.5861 112.996 78.6163 111.783 78.6163L108.141 78.6328L108.279 78.4981L108.262 81.576L108.141 81.4522C108.741 81.4522 109.341 81.4522 109.94 81.4522L111.75 81.4852L115.425 81.576Z" fill="#EBEBEB"/>
<path d="M111.361 6.29909L107.75 6.37336L105.918 6.40637C105.307 6.40637 104.691 6.40637 104.078 6.42012H103.965V6.29635V3.21841V3.07812H104.105L107.747 3.09463C108.96 3.09463 110.173 3.12489 111.389 3.13864H111.463V3.21291C111.463 3.73552 111.438 4.25264 111.427 4.767L111.361 6.29909ZM111.361 6.29909L111.323 4.74225C111.309 4.23063 111.29 3.72452 111.284 3.22116L111.361 3.29542C110.145 3.29542 108.932 3.33943 107.719 3.33943L104.078 3.35869L104.215 3.22116L104.199 6.29909L104.078 6.17532C104.677 6.17532 105.274 6.17532 105.877 6.19182L107.686 6.22208L111.361 6.29909Z" fill="#EBEBEB"/>
<path d="M115.425 10.1792L111.814 10.2534L109.982 10.2864C109.371 10.2864 108.755 10.2864 108.141 10.3002H108.018V10.1792L108.004 7.10122V6.96094H108.141L111.783 6.97744C112.996 6.97744 114.212 7.0077 115.425 7.02145H115.499V7.09572C115.499 7.61558 115.477 8.13545 115.464 8.64981L115.425 10.1792ZM115.425 10.1792L115.387 8.62231C115.387 8.11069 115.354 7.60458 115.351 7.10122L115.425 7.17549C114.212 7.17549 112.996 7.21949 111.783 7.21949L108.141 7.23875L108.279 7.10122L108.262 10.1792L108.141 10.0554C108.741 10.0554 109.341 10.0554 109.94 10.0719L111.75 10.1021L115.425 10.1792Z" fill="#EBEBEB"/>
<path d="M11.9837 6.29634L8.37485 6.37061L6.54294 6.40362C5.92956 6.40362 5.31342 6.40362 4.70003 6.41737H4.579V6.29359L4.5625 3.21841V3.07812H4.70003L8.34184 3.09463C9.55762 3.09463 10.7706 3.12488 11.9837 3.13864H12.0607V3.2129C12.0607 3.73552 12.0359 4.25264 12.0249 4.767L11.9837 6.29634ZM11.9837 6.29634L11.9451 4.7395C11.9451 4.22788 11.9149 3.72177 11.9094 3.21841L11.9837 3.29267C10.7706 3.29267 9.55762 3.33668 8.34184 3.33668L4.70003 3.35594L4.83756 3.21841V6.29634L4.70003 6.16156C5.29966 6.16156 5.8993 6.16156 6.50168 6.17807L8.31159 6.20832L11.9837 6.29634Z" fill="#EBEBEB"/>
<path d="M58.0313 113.722C88.1115 113.722 112.496 110.9 112.496 107.418C112.496 103.936 88.1115 101.113 58.0313 101.113C27.9512 101.113 3.56641 103.936 3.56641 107.418C3.56641 110.9 27.9512 113.722 58.0313 113.722Z" fill="#EBEBEB"/>
<path d="M19.4183 48.3071H15.947V44.5745H12.2227V41.1142H15.947V37.3789H19.4073V41.1142H23.1398V44.5745H19.4183V48.3071ZM16.4504 47.8147H18.9259V44.0822H22.6585V41.6066H18.9259V37.8713H16.4504V41.6066H12.715V44.0822H16.4504V47.8147Z" fill="#3C8AFF"/>
<path d="M103.321 72.979H99.8576V69.2464H96.125V65.7861H99.8576V62.0508H103.321V65.7861H107.053V69.2464H103.321V72.979ZM100.353 72.4866H102.828V68.754H106.561V66.2785H102.828V62.5486H100.353V66.284H96.6174V68.7595H100.353V72.4866Z" fill="#3C8AFF"/>
<path d="M85.1352 9.34977V12.81H81.4026V16.5454H77.9424V12.81H74.207V9.34977H77.9424V5.61719H81.4026V9.34977H85.1352Z" fill="#3C8AFF"/>
<path d="M51.739 10.0637C52.457 10.0417 55.4634 9.19727 57.9499 11.6536C60.3045 13.9778 62.2656 21.8831 62.9561 23.5637C63.6465 25.2443 65.9817 25.1426 66.8372 27.068C67.5798 28.7376 66.4136 29.5821 66.4851 30.8804C66.5429 31.8898 67.7806 33.2184 67.1095 34.8302C66.5016 36.2963 65.008 36.2468 64.1993 36.8052C63.3906 37.3636 63.1706 39.4733 61.6385 40.2792C60.1064 41.0851 58.4423 39.8364 57.5841 39.9821C56.7259 40.1279 56.129 42.9253 53.2904 43.1426C50.4518 43.3599 49.2635 41.1181 48.0312 40.8348C46.7989 40.5515 44.0236 41.8251 42.4667 40.59C40.9099 39.355 40.3735 37.4626 39.6611 36.8492C38.9487 36.2358 37.7192 36.5466 36.7152 35.02C35.7112 33.4934 37.07 32.2062 37.059 30.7456C37.059 29.7278 36.022 28.9549 36.3989 27.3376C36.9187 25.1151 39.5428 25.1536 40.1755 22.8541C40.6706 21.0524 41.0804 13.502 45.2091 10.9852C48.0697 9.26603 51.739 10.0637 51.739 10.0637Z" fill="#263238"/>
<path d="M62.8047 23.1562C63.0326 23.5007 63.3414 23.784 63.7041 23.9814L64.7411 24.6223C65.4423 25.0035 66.079 25.4927 66.628 26.0719C66.8836 26.3483 67.0716 26.6802 67.1776 27.0414C67.2835 27.4026 67.3044 27.7835 67.2387 28.1541C67.1505 28.53 67.0048 28.8899 66.8068 29.2214C66.5768 29.5852 66.4017 29.981 66.287 30.3959C66.2485 30.8526 66.3627 31.3092 66.6115 31.6942C66.8013 32.0627 67.0049 32.4093 67.1754 32.7669C67.5192 33.4711 67.7035 34.2495 67.4505 34.9674C67.3394 35.324 67.1118 35.633 66.8041 35.8448C66.4751 36.0532 66.109 36.1961 65.7258 36.2657C65.3353 36.3565 64.9337 36.4087 64.5293 36.4775C64.1172 36.5123 63.7252 36.6704 63.4043 36.9313C63.7464 36.7166 64.1419 36.6022 64.5458 36.6013C64.9502 36.5655 65.3573 36.549 65.7671 36.4885C66.188 36.4358 66.5944 36.3012 66.9636 36.0924C67.3426 35.8588 67.633 35.5055 67.7888 35.0884C68.1381 34.2632 67.9016 33.3225 67.555 32.5826C67.3845 32.203 67.1809 31.8427 67.0049 31.4824C66.8066 31.1813 66.7102 30.8246 66.7298 30.4646C66.8673 29.788 67.4972 29.0893 67.6403 28.2256C67.7156 27.7932 67.6857 27.349 67.553 26.9305C67.4204 26.5121 67.189 26.1317 66.8783 25.8216C66.2778 25.2479 65.5898 24.7734 64.8401 24.416L63.7399 23.8659C63.3804 23.6999 63.0613 23.4578 62.8047 23.1562Z" fill="#263238"/>
<path d="M41.8073 15.7695C41.2407 17.1201 40.9821 18.5697 40.5915 19.9615C40.3935 20.6574 40.2202 21.3615 39.9726 22.0327C39.8616 22.3613 39.7149 22.6767 39.5353 22.9734C39.499 23.0421 39.4516 23.1044 39.395 23.1577C39.345 23.2179 39.2866 23.2707 39.2217 23.3145C39.0842 23.419 38.9467 23.5153 38.7844 23.6088C38.1553 23.9887 37.5457 24.4 36.958 24.8411C36.3364 25.3003 35.8731 25.9414 35.6322 26.6757C35.52 27.0518 35.5048 27.4502 35.5882 27.8337C35.689 28.2016 35.8589 28.547 36.0888 28.8515C36.5261 29.4373 36.9442 30.026 37.0817 30.7549C37.0542 30.0122 36.6471 29.3411 36.2786 28.7277C36.0865 28.4373 35.9503 28.1136 35.877 27.7732C35.8247 27.4392 35.8588 27.0974 35.976 26.7802C36.2275 26.135 36.6603 25.5762 37.222 25.1711C37.8068 24.7499 38.4128 24.3588 39.0374 23.9994C39.1915 23.8976 39.3455 23.7931 39.4968 23.6748C39.654 23.5484 39.7849 23.3923 39.8819 23.2154C40.0751 22.8873 40.231 22.5385 40.3467 22.1757C40.5795 21.4785 40.7687 20.7674 40.9133 20.0467L41.3314 17.9013C41.4483 17.182 41.6072 16.4702 41.8073 15.7695Z" fill="#263238"/>
<path d="M38.9102 36.4805C39.2815 36.8435 39.408 37.3744 39.6033 37.8558C39.7986 38.3371 39.9801 38.8295 40.1947 39.3108C40.4033 39.8018 40.6633 40.2693 40.9704 40.7054C41.2852 41.1662 41.7071 41.5437 42.1999 41.8057C43.2809 42.276 44.4306 42.0147 45.4071 41.6709C45.905 41.4948 46.3836 41.294 46.8732 41.1208C47.3498 40.9236 47.8664 40.8425 48.3805 40.8842C47.8647 40.7513 47.3229 40.757 46.8099 40.9007C46.2956 41.0217 45.8004 41.1758 45.2998 41.3188C44.3261 41.5939 43.2644 41.7671 42.3979 41.3738C41.9704 41.1444 41.6022 40.8185 41.3224 40.4221C41.0186 40.0146 40.7482 39.5831 40.5138 39.1321C40.2662 38.6782 40.0434 38.2106 39.8096 37.7568C39.6886 37.523 39.5648 37.2919 39.43 37.0664C39.3094 36.83 39.1305 36.6284 38.9102 36.4805Z" fill="#263238"/>
<path d="M65.9143 99.4349H42.0884L40.6719 69.9648H61.9616L65.9143 99.4349Z" fill="#37474F"/>
<path d="M55.2941 69.9648L52.7773 89.9233L52.7746 89.9536L52.7196 90.3689L52.6178 91.1858L52.5023 92.0963L52.461 92.4209L52.428 92.6822L51.5781 99.4349H42.0884L40.6719 69.9648H55.2941Z" fill="#263238"/>
<path d="M61.0758 99.4347H60.4459C60.4129 99.1734 60.3826 98.9148 60.3496 98.6535C59.5024 91.777 58.68 84.9004 57.9648 78.0239C57.8988 77.394 57.8328 76.7614 57.7695 76.1315C57.7695 76.0324 57.9291 76.0132 57.9428 76.1122C58.0006 76.5358 58.0611 76.9594 58.1161 77.383C59.1338 84.7271 60.1021 92.0823 61.0758 99.4347Z" fill="#263238"/>
<path d="M59.7983 69.9414C59.7993 69.9487 59.7993 69.9561 59.7983 69.9634C59.7351 70.2577 59.0392 73.487 58.1205 77.3901C58.071 77.6019 58.0214 77.8164 57.9692 78.031C57.5621 79.7336 57.1192 81.5352 56.6709 83.2571C55.7027 86.9952 54.7097 90.3455 54.0331 91.4485C53.9594 91.5851 53.8571 91.7042 53.7332 91.7978C53.5132 91.9271 53.0456 92.1581 52.4652 92.4304L52.0801 92.6092L51.75 92.7605C50.4297 93.3656 48.8426 94.0588 48.1082 94.3641V94.4219L47.8524 99.439H25.4102L27.7867 85.1358L30.6556 69.9552L59.7983 69.9414Z" fill="#37474F"/>
<path d="M55.6745 90.8151C53.0635 91.7655 50.54 92.9408 48.1323 94.3276C48.1139 94.3383 48.1002 94.3555 48.0938 94.3758C48.0874 94.3961 48.0888 94.418 48.0978 94.4373C48.1067 94.4566 48.1226 94.4718 48.1422 94.48C48.1618 94.4883 48.1838 94.4888 48.2038 94.4817C50.7426 93.3814 53.3337 92.3472 55.8093 91.1177C55.8494 91.0998 55.8808 91.0667 55.8965 91.0257C55.9122 90.9847 55.911 90.9391 55.8932 90.899C55.8753 90.8589 55.8422 90.8275 55.8012 90.8118C55.7602 90.796 55.7146 90.7972 55.6745 90.8151Z" fill="#263238"/>
<path d="M56.4419 73.4211C56.4419 73.333 56.2824 73.3138 56.2824 73.4211C56.3016 76.4467 56.1091 79.0873 55.856 81.9067C55.7377 83.2133 54.687 90.4336 52.4178 89.9165C52.0382 89.8285 51.8429 89.4544 51.7851 88.8823C51.7136 88.1919 51.9722 87.3502 52.0849 86.6653C52.338 85.1524 52.5388 83.6396 52.6681 82.1048C52.9336 79.2587 52.9032 76.3928 52.5773 73.5531C52.574 73.5362 52.5649 73.521 52.5516 73.51C52.5383 73.4991 52.5216 73.4931 52.5044 73.4931C52.4872 73.4931 52.4705 73.4991 52.4572 73.51C52.4439 73.521 52.4348 73.5362 52.4315 73.5531C52.4315 77.503 52.3297 81.4446 51.7411 85.3587C51.466 87.2374 50.5088 90.0678 52.4755 90.3594C54.4422 90.6509 55.7763 85.9116 56.0183 84.6133C56.7005 80.9798 56.728 77.0849 56.4419 73.4211Z" fill="#263238"/>
<path d="M52.4775 90.1002C52.2743 90.5871 52.1033 91.087 51.9659 91.5965C51.8212 91.991 51.7495 92.4086 51.7541 92.8288C51.7541 92.9085 51.8696 92.9168 51.9109 92.8618C52.1471 92.4923 52.3252 92.0888 52.439 91.6653C52.6123 91.2004 52.7938 90.7411 52.9534 90.2735C52.9764 90.2104 52.9733 90.1407 52.945 90.0798C52.9166 90.019 52.8652 89.9719 52.8021 89.9489C52.739 89.9259 52.6694 89.9289 52.6085 89.9573C52.5476 89.9857 52.5005 90.0371 52.4775 90.1002Z" fill="#263238"/>
<path d="M35.6896 91.6043C35.4641 94.2174 35.1972 96.8305 34.9167 99.4353H34.6719C34.9469 96.8222 35.2605 94.2092 35.5988 91.6016C35.6071 91.5438 35.6951 91.5438 35.6896 91.6043Z" fill="#263238"/>
<path d="M51.0917 43.5895C53.1464 50.29 62.0391 74.2231 68.0025 77.8704C71.9056 80.2552 91.5092 81.6112 95.2803 79.8619C97.3735 78.8881 96.7216 63.0556 94.2543 62.9676C91.1764 62.8576 76.0453 62.4505 74.3701 61.65C72.695 60.8496 61.3927 45.735 57.0853 41.1552C49.6614 33.2554 49.7219 39.128 51.0917 43.5895Z" fill="#AD6359"/>
<path d="M89.563 61.778L86.7684 81.1423C86.7684 81.1423 70.8478 81.6099 66.5073 78.0588C60.3212 73.0032 51.4505 47.4225 50.4438 43.4203C48.059 33.9307 53.3732 35.5151 57.5541 40.1196C60.269 43.1178 70.9496 58.4552 74.905 61.2801C76.0272 62.0915 89.563 61.778 89.563 61.778Z" fill="#EBEBEB"/>
<path d="M82.8442 80.1917C83.1715 77.3173 84.9402 65.6134 85.493 63.1021C85.5315 62.9288 85.6526 62.9096 85.6361 63.1021C84.8631 71.7363 83.4356 77.4053 82.9597 80.2054C82.946 80.2715 82.8359 80.266 82.8442 80.1917Z" fill="#263238"/>
<path d="M61.9712 62.7741L64.631 81.0657C64.631 81.0657 34.8199 81.5058 27.418 80.986C27.418 80.986 33.4556 46.7876 41.4131 38.1451C45.3932 33.8239 50.0665 34.1485 53.0454 37.1687C53.7991 37.9333 62.7909 49.8215 63.7371 54.3573C64.5623 58.3622 61.9712 62.7741 61.9712 62.7741Z" fill="#3C8AFF"/>
<path d="M50.3558 60.7337C51.9452 60.5902 53.543 60.5635 55.1364 60.6539C55.9258 60.7117 56.7097 60.8024 57.4936 60.9124C57.8842 60.9675 58.2776 61.0087 58.6681 61.0472C59.0792 61.0981 59.4949 61.0981 59.9059 61.0472C59.9417 61.0472 59.9499 61.0967 59.9059 61.105C59.5252 61.192 59.1394 61.2545 58.7507 61.292C58.3734 61.3182 57.9947 61.3182 57.6174 61.292C56.8142 61.2425 56.0138 61.1573 55.2106 61.0995C53.5933 60.984 51.9759 60.8657 50.353 60.8684C50.2843 60.8684 50.2815 60.7419 50.3558 60.7337Z" fill="#263238"/>
<path d="M46.759 62.8273C48.025 62.4586 49.3107 62.1611 50.6099 61.9361C51.2591 61.826 51.9109 61.7545 52.5683 61.6995C52.8792 61.6747 53.1955 61.6527 53.5091 61.6362C53.8226 61.6197 54.2022 61.6362 54.546 61.6362C54.5818 61.6362 54.5928 61.6885 54.546 61.694C54.2215 61.7243 53.8996 61.8095 53.5778 61.8618L52.6041 62.0103C51.9577 62.1121 51.3113 62.2221 50.6594 62.3184C49.3611 62.5082 48.0683 62.7117 46.7756 62.9483C46.693 62.94 46.682 62.841 46.759 62.8273Z" fill="#263238"/>
<path d="M46.5869 99.433H23.0664C25.817 82.1537 29.1178 64.4562 32.2947 55.5497C39.1327 36.3477 44.7137 35.6133 44.7137 35.6133V35.6353C44.744 36.4467 45.5389 58.2123 46.1496 81.2322C46.3146 87.3331 46.4659 93.522 46.5869 99.433Z" fill="#EBEBEB"/>
<path d="M42.7009 89.1224C42.7009 88.4512 42.5523 85.2715 42.4918 84.6306C42.4918 84.5564 42.4643 84.4078 42.4038 84.4078C41.5263 84.4078 38.4814 84.7186 35.4145 84.7186C33.2214 84.6774 31.0327 84.5066 28.8598 84.207C28.758 84.2373 28.758 87.7306 28.703 89.4194C28.593 92.943 28.7552 96.9286 29.5062 97.6713C30.909 99.0466 34.6471 98.9283 35.8326 98.9173C37.0181 98.9063 41.1963 98.9036 42.1782 96.7471C42.5963 95.7816 42.7119 90.8635 42.7009 89.1224ZM42.1507 92.6982C42.1012 94.4366 42.0462 95.9989 41.3778 96.9149C40.8057 97.6878 39.1911 98.4662 35.475 98.4635C32.7904 98.4635 30.5239 97.9711 29.905 97.2559C29.1623 96.4005 29.0798 93.9415 29.0798 92.4726C29.0798 90.4454 29.0798 88.8253 29.0798 86.8009C34.2702 88.0056 39.9805 87.4115 42.1452 86.9741C42.1535 87.0594 42.2002 91.3366 42.159 92.6982H42.1507ZM42.1645 86.6468C35.4227 87.5133 31.2501 86.7899 29.0881 86.3718C29.0881 85.7226 29.0881 85.2165 29.0881 84.5646C30.015 84.7984 33.1342 85.1697 35.4722 85.1697C37.648 85.1697 40.8442 84.8672 42.2002 84.7049C42.1617 85.2385 42.1892 86.3993 42.1727 86.6441L42.1645 86.6468Z" fill="#DBDBDB"/>
<path d="M44.0077 44.6407C42.6846 50.1171 35.8796 69.597 34.188 71.2859C32.1718 73.2993 23.3808 79.4909 20.3166 71.2473C18.1932 65.5398 32.6229 45.5318 39.4417 39.0652C42.7699 35.9267 46.2219 35.4646 44.0077 44.6407Z" fill="#EBEBEB"/>
<path d="M41.6834 54.6234C41.2708 55.3853 40.8169 56.1252 40.3713 56.8679C40.4758 56.5928 40.5776 56.3178 40.6766 56.0427C41.1057 54.8572 41.5018 53.6579 41.9392 52.4669C41.9557 52.4284 41.8952 52.4147 41.8786 52.4504C41.4193 53.4819 40.9324 54.5051 40.4841 55.5449C40.0357 56.5846 39.6589 57.5858 39.2518 58.6173C38.4514 60.694 37.64 62.768 36.8973 64.8667C36.4578 66.0264 36.0813 67.2091 35.7695 68.4095C35.7695 68.4425 35.8108 68.4672 35.8273 68.4342C36.3197 67.4413 36.7075 66.396 37.1036 65.3618C37.4997 64.3276 37.8958 63.3043 38.2808 62.2701C38.6659 61.2359 39.0758 60.1659 39.4829 59.1179C39.6864 58.5898 39.8982 58.0672 40.1045 57.5418C40.7362 56.6247 41.2735 55.646 41.7081 54.6207C41.7136 54.6207 41.6889 54.6096 41.6834 54.6234Z" fill="#263238"/>
<path d="M44.4675 35.6406C43.734 37.1883 43.0225 38.747 42.333 40.3167C41.6453 41.8845 40.9357 43.4414 40.27 45.0202L40.1875 45.2183L40.3663 45.3393L43.2517 47.2895L43.1829 46.8741C42.399 48.0459 41.6398 49.2314 40.8752 50.4142L40.8009 50.5297L40.8421 50.6562C41.6151 53.052 42.3605 55.4561 43.1719 57.8408C43.9833 60.2256 44.7783 62.6131 45.631 64.9924C44.9763 62.5572 44.2905 60.1339 43.5735 57.7226C42.8804 55.302 42.1212 52.9035 41.3895 50.4939L41.3565 50.736C42.1322 49.5615 42.9134 48.3897 43.6725 47.2015L43.8293 46.9539L43.59 46.7971L40.6689 44.8992L40.7679 45.2183C41.4225 43.6367 42.0277 42.0358 42.6603 40.4459C43.2929 38.8561 43.8788 37.247 44.4675 35.6406Z" fill="#DBDBDB"/>
<path d="M67.5066 99.4359H59.0127C58.5093 93.4863 57.9922 87.2672 57.4806 81.1526C56.7517 72.4139 56.031 63.887 55.3599 56.6529C54.7601 49.9209 53.7005 43.2378 52.1884 36.6504C52.1499 36.4826 52.1251 36.3753 52.1196 36.3616C52.1141 36.3478 52.1196 36.3616 52.1196 36.3616C52.4594 36.5732 52.7631 36.8378 53.0191 37.1455C53.0275 37.1554 53.0367 37.1645 53.0466 37.173L53.1374 37.2748C53.1618 37.2991 53.1848 37.3248 53.2061 37.3518C54.6667 38.9554 57.1092 42.2341 59.2822 45.6036C61.3782 48.8494 63.2266 52.1749 63.6832 54.1498L63.708 54.2598C63.7217 54.3231 63.7327 54.3836 63.7437 54.4441C63.8335 54.9677 63.8841 55.4973 63.895 56.0285C63.9154 58.1987 63.3541 60.3348 62.2694 62.2146C62.2622 62.2307 62.254 62.2464 62.2446 62.2614C62.1731 62.3824 62.1291 62.4457 62.1291 62.4457V62.4759L64.9127 81.5322L67.5066 99.4359Z" fill="#EBEBEB"/>
<path d="M60.8058 48.3901C59.9806 47.0643 59.1196 45.7522 58.3027 44.4154C58.2779 44.3769 58.3385 44.3329 58.366 44.3687C59.1911 45.4689 60.0163 46.5692 60.8168 47.6887C60.5417 47.0918 60.2914 46.4922 60.0521 45.8815C60.0246 45.8128 60.1209 45.755 60.1539 45.8238C60.5252 46.6077 60.858 47.4054 61.1881 48.2085C61.9065 49.2043 62.543 50.2567 63.0915 51.3552C64.2275 53.6905 64.7171 56.2431 64.101 58.7957C63.934 59.5009 63.6847 60.184 63.3583 60.8311C63.1383 61.2712 62.4204 62.2284 62.4259 62.2559C62.8935 64.8635 63.2511 67.5014 63.6114 70.1254C63.9717 72.7495 64.3595 75.4341 64.6704 78.1022C64.8437 79.6096 64.9454 81.1279 65.1765 82.6325C65.1765 82.6875 65.0995 82.7095 65.0912 82.6545C64.9014 81.3452 64.6181 80.0497 64.3843 78.7459C64.1505 77.4421 63.9332 76.1383 63.7214 74.829C63.2978 72.1884 62.9182 69.5368 62.5359 66.888C62.3213 65.3916 62.0848 63.8925 61.9143 62.388C61.895 62.2229 62.5716 61.1557 62.7724 60.7376C63.0399 60.1836 63.2589 59.6075 63.4271 59.0157C63.7714 57.8128 63.8779 56.5543 63.7407 55.3106C63.4518 52.7746 62.1371 50.5163 60.8058 48.3901Z" fill="#263238"/>
<path d="M52.1875 36.6484C53.064 37.9797 53.9561 39.2991 54.8638 40.6066C55.7771 41.9104 56.6683 43.2307 57.598 44.5207L57.6172 44.2126L55.3837 46.5534L55.1994 46.7459L55.3947 46.9357C56.3354 47.8462 57.2926 48.7401 58.2471 49.6368L58.1673 49.4058C57.8208 51.8318 57.4494 54.2524 57.1414 56.6839C56.8333 59.1155 56.506 61.5443 56.2392 63.9813C56.7013 61.5718 57.1221 59.1595 57.5264 56.7417C57.9308 54.3239 58.3076 51.9033 58.6927 49.4856L58.7147 49.348L58.6129 49.2518C57.6695 48.344 56.726 47.4336 55.7688 46.5424V46.9247L57.9693 44.5427L58.1068 44.3942L57.9885 44.2346C57.0506 42.9501 56.0631 41.6931 55.1169 40.4195C54.1707 39.146 53.1805 37.8972 52.1875 36.6484Z" fill="#DBDBDB"/>
<path d="M41.4492 39.7395C41.2264 36.4855 45.168 35.1927 47.6051 34.8571C50.4905 34.461 52.4131 34.7003 53.8022 37.5005C55.2655 40.4519 56.033 43.8764 56.6078 47.1084C56.7151 47.7107 57.6558 47.5595 57.5485 46.9543C56.8856 43.2327 55.9339 36.2874 52.2261 34.2685C48.8126 32.4063 40.1234 34.3785 40.5085 39.8907C40.5498 40.5041 41.4905 40.3473 41.4492 39.7395Z" fill="#455A64"/>
<path d="M59.5269 48.4592C59.5991 48.8895 59.5418 49.3315 59.3622 49.7292C59.1826 50.1269 58.8889 50.4622 58.5183 50.6925C58.1477 50.9228 57.717 51.0378 57.2809 51.0227C56.8448 51.0077 56.4231 50.8634 56.0692 50.6081C55.7154 50.3528 55.4454 49.998 55.2937 49.5889C55.1419 49.1799 55.1152 48.7349 55.2169 48.3106C55.3186 47.8863 55.5442 47.5018 55.8649 47.2059C56.1857 46.9101 56.5871 46.7164 57.0183 46.6493C57.3019 46.6033 57.5917 46.6137 57.8712 46.6798C58.1508 46.7459 58.4146 46.8664 58.6476 47.0345C58.8805 47.2025 59.0781 47.4149 59.2289 47.6593C59.3798 47.9038 59.481 48.1756 59.5269 48.4592Z" fill="#263238"/>
<path d="M58.6666 48.6015C58.7062 48.8588 58.6688 49.122 58.5591 49.358C58.4493 49.594 58.2721 49.7922 58.0498 49.9276C57.8275 50.063 57.5701 50.1295 57.31 50.1187C57.05 50.108 56.7989 50.0205 56.5886 49.8672C56.3782 49.7139 56.2179 49.5018 56.128 49.2575C56.0381 49.0133 56.0225 48.7479 56.0833 48.4948C56.144 48.2417 56.2784 48.0123 56.4694 47.8355C56.6604 47.6586 56.8995 47.5424 57.1565 47.5013C57.328 47.4735 57.5033 47.48 57.6723 47.5204C57.8412 47.5607 58.0005 47.6342 58.141 47.7365C58.2814 47.8388 58.4001 47.9679 58.4903 48.1164C58.5806 48.2649 58.6405 48.4298 58.6666 48.6015Z" fill="#EBEBEB"/>
<path d="M44.7614 49.9336C47.1682 59.0739 46.7969 61.3074 46.0377 62.3581C45.4655 63.0932 44.7313 63.6862 43.8922 64.091L43.6172 63.4886L43.7547 63.7884L43.6172 63.4886C44.3502 63.1286 44.9938 62.61 45.5014 61.9703C46.0515 61.2111 46.5026 59.1537 44.126 50.1014L44.7614 49.9336Z" fill="#C7C7C7"/>
<path d="M42.4395 64.042L42.8286 64.7446C42.9103 64.8921 43.0961 64.9455 43.2436 64.8638L44.7211 64.0455C44.8686 63.9638 44.9219 63.778 44.8402 63.6305L44.4511 62.9279C44.3694 62.7804 44.1836 62.727 44.0361 62.8087L42.5586 63.627C42.4111 63.7087 42.3578 63.8945 42.4395 64.042Z" fill="#263238"/>
<path d="M38.78 50.1756C36.9673 57.0521 36.53 60.837 37.4047 62.0445C37.9122 62.6836 38.5559 63.2014 39.2889 63.5601L39.0138 64.1652C38.1748 63.7604 37.4406 63.1674 36.8683 62.4323C35.8286 60.9965 36.1972 57.396 38.1419 50.0078L38.78 50.1756Z" fill="#C7C7C7"/>
<path d="M38.4583 62.9987L38.0696 63.7016C37.988 63.8491 38.0415 64.0349 38.1891 64.1165L39.667 64.9337C39.8146 65.0153 40.0004 64.9618 40.082 64.8143L40.4706 64.1114C40.5522 63.9638 40.4988 63.7781 40.3512 63.6965L38.8732 62.8792C38.7256 62.7976 38.5399 62.8511 38.4583 62.9987Z" fill="#263238"/>
<path d="M37.9181 49.7069C38.2206 48.1822 38.6165 46.6775 39.1037 45.2014C39.392 44.5498 39.8498 43.9874 40.4295 43.573C40.5615 43.5593 40.5037 42.3985 40.4295 41.4523C40.3689 40.6271 40.2809 39.6424 40.4817 39.3728C40.5976 39.2482 40.7575 39.1737 40.9275 39.1649C41.0974 39.1562 41.2641 39.214 41.3922 39.3261C41.6205 39.5709 41.6342 40.5501 41.6672 41.389C41.7002 42.338 41.7663 43.496 41.8983 43.496C42.4846 43.8763 42.9706 44.3924 43.3149 45.0006C43.9561 46.4574 44.4857 47.9608 44.8992 49.4978C45.111 50.4771 44.7892 50.5981 44.5086 50.6971C44.1125 50.8319 43.8595 50.5596 43.5487 49.4758C43.0535 47.7595 42.4292 44.8686 41.2326 44.8768C40.0471 44.9978 39.5658 48.0593 39.1862 49.7674C38.9469 50.8374 38.7213 50.9392 38.3115 50.8456C38.0254 50.7769 37.7311 50.6559 37.9181 49.7069Z" fill="#263238"/>
<path d="M52.3829 35.8142C52.3829 35.8142 52.658 41.1146 51.6788 41.2027C48.7109 41.4777 45.4101 37.3958 45.2286 36.7494C45.1818 36.5844 45.4211 32.4695 45.6164 29.2705C45.7402 27.213 45.8475 25.5352 45.8475 25.5352L53.4309 29.8811L52.4544 35.4181L52.3829 35.8142Z" fill="#AD6359"/>
<path d="M53.4317 29.8811L52.4552 35.4181C50.9475 34.9312 49.5594 34.1321 48.3812 33.0729C47.203 32.0136 46.2612 30.718 45.6172 29.2705C45.741 27.213 45.8482 25.5352 45.8482 25.5352L46.8027 26.0413L53.4317 29.8811Z" fill="#263238"/>
<path d="M61.2377 21.0611C62.8193 30.8038 57.1613 32.8502 55.0598 33.1886C53.1537 33.4966 46.621 34.3026 44.0409 24.7744C41.4608 15.2463 45.4905 11.434 49.8172 10.4987C54.1439 9.56353 59.6561 11.3184 61.2377 21.0611Z" fill="#AD6359"/>
<path d="M58.8603 19.8586C58.6325 19.8444 58.4057 19.8178 58.1809 19.7788C57.9391 19.7842 57.7022 19.7098 57.507 19.567C57.4546 19.5101 57.4225 19.4375 57.4155 19.3604C57.4085 19.2833 57.4272 19.2061 57.4685 19.1407C57.5696 19.0262 57.6991 18.9404 57.844 18.8921C57.989 18.8438 58.1441 18.8347 58.2937 18.8656C58.6117 18.8806 58.9123 19.0152 59.1353 19.2425C59.181 19.2962 59.2106 19.3618 59.2206 19.4317C59.2306 19.5015 59.2206 19.5727 59.1918 19.6372C59.1631 19.7016 59.1167 19.7566 59.058 19.7957C58.9994 19.8349 58.9308 19.8567 58.8603 19.8586Z" fill="#263238"/>
<path d="M52.2606 20.7046C52.4889 20.6551 52.6897 20.5726 52.9098 20.5038C53.1499 20.4652 53.3704 20.3482 53.5369 20.171C53.5783 20.1054 53.5968 20.0279 53.5893 19.9507C53.5818 19.8735 53.5489 19.801 53.4957 19.7446C53.3748 19.6477 53.2301 19.585 53.0767 19.5633C52.9232 19.5415 52.7668 19.5614 52.6237 19.6209C52.3145 19.6947 52.0439 19.881 51.8645 20.1435C51.8278 20.206 51.8098 20.2777 51.8128 20.3502C51.8158 20.4226 51.8397 20.4927 51.8815 20.5519C51.9233 20.6111 51.9813 20.657 52.0485 20.6841C52.1158 20.7112 52.1894 20.7183 52.2606 20.7046Z" fill="#263238"/>
<path d="M54.1108 22.9238C54.1108 22.899 54.0641 22.9595 54.0668 22.9871C54.1658 23.6527 54.1658 24.4311 53.5855 24.7227C53.569 24.7227 53.5855 24.764 53.5855 24.7584C54.3199 24.5714 54.3116 23.5372 54.1108 22.9238Z" fill="#263238"/>
<path d="M53.4334 22.2973C52.3524 22.3386 52.5147 24.4978 53.5186 24.4648C54.5226 24.4318 54.3411 22.2616 53.4334 22.2973Z" fill="#263238"/>
<path d="M53.0187 22.4425C52.8399 22.58 52.6694 22.8111 52.4439 22.8496C52.2183 22.8881 51.9653 22.6846 51.7782 22.4783C51.759 22.459 51.7397 22.4783 51.7425 22.5085C51.7672 22.9211 51.9597 23.3337 52.4081 23.364C52.8564 23.3942 53.082 23.0009 53.1535 22.5745C53.1673 22.4975 53.0848 22.393 53.0187 22.4425Z" fill="#263238"/>
<path d="M57.7931 22.4294C57.7931 22.4019 57.8481 22.4569 57.8481 22.4844C57.8729 23.1555 58.0132 23.9202 58.6348 24.1017C58.6541 24.1017 58.6541 24.143 58.6348 24.1403C57.8839 24.088 57.7078 23.0675 57.7931 22.4294Z" fill="#263238"/>
<path d="M58.3453 21.6876C59.418 21.5335 59.6491 23.69 58.6561 23.833C57.6631 23.9761 57.4458 21.8196 58.3453 21.6876Z" fill="#263238"/>
<path d="M58.8075 21.7789C58.9918 21.8752 59.1816 22.054 59.3879 22.054C59.5942 22.054 59.7729 21.7789 59.8995 21.5534C59.9132 21.5286 59.9325 21.5534 59.9352 21.5726C59.993 21.9852 59.9022 22.4281 59.5144 22.5491C59.1266 22.6701 58.857 22.3345 58.714 21.9357C58.6892 21.8642 58.7332 21.7404 58.8075 21.7789Z" fill="#263238"/>
<path d="M54.6671 28.168C54.8322 28.3193 55 28.531 55.2448 28.5448C55.4947 28.5325 55.7393 28.4678 55.9627 28.355C55.9671 28.3527 55.9722 28.352 55.9771 28.353C55.982 28.354 55.9865 28.3566 55.9897 28.3605C55.9929 28.3643 55.9947 28.3692 55.9948 28.3742C55.9949 28.3792 55.9932 28.3841 55.9902 28.388C55.8998 28.5206 55.7757 28.6267 55.6306 28.6954C55.4856 28.764 55.3248 28.7928 55.165 28.7786C55.0263 28.7479 54.8999 28.6765 54.8019 28.5736C54.7039 28.4707 54.6388 28.341 54.6149 28.201C54.5929 28.168 54.6424 28.168 54.6671 28.168Z" fill="#263238"/>
<path d="M57.26 25.5105C57.26 25.5105 57.4855 26.498 57.535 26.9711C57.535 27.0151 57.425 27.0454 57.26 27.0701C57.26 27.0701 57.26 27.0701 57.2434 27.0701C56.8452 27.1799 56.4245 27.1776 56.0275 27.0635C55.6305 26.9495 55.2727 26.7281 54.9934 26.4237C54.9549 26.3797 55.01 26.3275 55.0567 26.3522C55.6942 26.7103 56.4303 26.853 57.1554 26.7593C57.1774 26.6273 56.7126 25.0814 56.7868 25.0704C57.1587 25.0687 57.529 25.1187 57.8871 25.219C57.4772 23.1478 56.7373 21.1591 56.3605 19.0906C56.3594 19.076 56.3631 19.0614 56.3712 19.0492C56.3793 19.037 56.3912 19.0278 56.405 19.0231C56.4189 19.0183 56.4339 19.0184 56.4478 19.0231C56.4616 19.0279 56.4735 19.0371 56.4815 19.0493C57.403 21.0793 57.9284 23.4503 58.407 25.5793C58.4565 25.8434 57.4552 25.5738 57.26 25.5105Z" fill="#263238"/>
<path d="M56.7205 26.9762C56.4991 27.2944 56.1985 27.5495 55.8485 27.7161C55.6554 27.8031 55.4396 27.8262 55.2324 27.7822C54.7813 27.6859 54.7538 27.276 54.8198 26.9212C54.8561 26.7314 54.9152 26.5467 54.9958 26.3711C55.4905 26.7533 56.0954 26.9655 56.7205 26.9762Z" fill="#263238"/>
<path d="M55.8485 27.7168C55.6554 27.8038 55.4396 27.8269 55.2324 27.7828C54.7813 27.6865 54.7538 27.2767 54.8198 26.9219C55.2984 26.9521 55.788 27.2547 55.8485 27.7168Z" fill="#FF99BA"/>
<path d="M44.0421 25.1426C44.6773 24.8381 45.2224 24.3738 45.6241 23.7951C46.0257 23.2165 46.2702 22.5434 46.3334 21.8419C48.0612 21.0945 49.5585 19.9001 50.6711 18.3816C50.6051 18.5852 50.121 20.0513 49.8459 20.7884C56.1063 19.6497 58.0648 14.8718 58.0648 14.8718C60.0865 16.9046 60.4853 18.2028 60.7741 18.8492C60.7741 18.8492 60.8401 14.9984 58.8762 12.4321C58.216 11.5413 57.3091 10.8637 56.2679 10.4828C55.2266 10.102 54.0965 10.0347 53.0174 10.2893C51.5438 9.78039 49.9528 9.71772 48.4438 10.1092C46.9348 10.5006 45.5749 11.3288 44.5345 12.4898C40.4498 16.8908 44.0421 25.1426 44.0421 25.1426Z" fill="#263238"/>
<path d="M54.6055 19.7908C53.5982 20.3358 52.5155 20.7279 51.3928 20.9543C51.3791 20.9543 51.3928 20.9543 51.3928 20.9543C53.153 20.482 54.7471 19.5297 55.9974 18.2037C56.5283 17.6368 56.9849 17.0046 57.3562 16.3223C57.7918 15.5917 58.0788 14.7822 58.2006 13.9403C58.2032 13.9295 58.2094 13.9198 58.2181 13.913C58.2268 13.9061 58.2376 13.9023 58.2487 13.9023C58.2599 13.9023 58.2706 13.9061 58.2794 13.913C58.2881 13.9198 58.2943 13.9295 58.2969 13.9403C58.2679 14.7882 58.0958 15.6252 57.788 16.4158C57.4472 17.1766 56.971 17.8691 56.3824 18.4595C55.855 18.985 55.2558 19.4332 54.6028 19.7908" fill="#263238"/>
<path d="M52.8897 26.516C52.3132 26.5293 51.7446 26.3805 51.2485 26.0865C50.7525 25.7926 50.3488 25.3653 50.0836 24.8533C49.8183 24.3413 49.7021 23.7652 49.7481 23.1904C49.7941 22.6156 50.0005 22.0653 50.3438 21.602C50.6871 21.1387 51.1535 20.7811 51.6901 20.5698C52.2266 20.3585 52.8116 20.302 53.3786 20.4067C53.9457 20.5115 54.4719 20.7733 54.8975 21.1623C55.3231 21.5514 55.631 22.052 55.7861 22.6074C56.0051 23.3945 55.9027 24.2364 55.5015 24.9481C55.1002 25.6598 54.4329 26.1832 53.6461 26.4033C53.3995 26.4715 53.1455 26.5093 52.8897 26.516ZM52.7577 20.7672C52.5352 20.7721 52.3143 20.8054 52.1003 20.8663C51.4476 21.0501 50.8895 21.4758 50.5397 22.0566C50.1898 22.6375 50.0745 23.3298 50.2172 23.9927C50.3599 24.6556 50.7499 25.2391 51.3077 25.6246C51.8656 26.0101 52.5494 26.1684 53.2199 26.0674C53.8904 25.9664 54.4972 25.6137 54.9167 25.081C55.3363 24.5483 55.537 23.8758 55.4781 23.2003C55.4192 22.5247 55.1051 21.8971 54.5997 21.4451C54.0942 20.9931 53.4355 20.7507 52.7577 20.7672Z" fill="#3C8AFF"/>
<path d="M59.885 25.4994C58.7077 25.5269 57.6102 24.3441 57.3847 22.7487C57.2651 21.9899 57.3863 21.2126 57.7312 20.5262C57.8624 20.224 58.0689 19.9605 58.331 19.7609C58.5931 19.5612 58.902 19.4322 59.2282 19.3861C59.5544 19.34 59.887 19.3784 60.1942 19.4976C60.5013 19.6168 60.7727 19.8128 60.9825 20.0669C61.504 20.6323 61.8349 21.3471 61.9287 22.1106C62.1652 23.7912 61.3401 25.3041 60.0858 25.4801C60.0195 25.4921 59.9523 25.4985 59.885 25.4994ZM59.4421 19.7781C59.3899 19.7754 59.3376 19.7754 59.2853 19.7781C59.0269 19.8273 58.7839 19.9376 58.5767 20.0998C58.3695 20.262 58.2041 20.4714 58.0943 20.7105C57.7911 21.3206 57.6863 22.0102 57.7945 22.6827C57.9981 24.1406 58.9993 25.2105 60.028 25.0648C61.0567 24.919 61.7251 23.6152 61.5216 22.1601C61.4403 21.4844 61.1521 20.8503 60.6964 20.3447C60.5387 20.1676 60.3456 20.0257 60.1295 19.9281C59.9134 19.8305 59.6792 19.7794 59.4421 19.7781Z" fill="#3C8AFF"/>
<path d="M55.7339 22.9789L55.4258 22.7038C55.8356 22.25 56.8313 21.5788 57.6868 22.2692L57.4282 22.5911C56.6608 21.9694 55.7696 22.9404 55.7339 22.9789Z" fill="#3C8AFF"/>
<path d="M42.2472 25.6914L41.8594 25.5539C41.9226 25.3723 42.5058 23.7742 43.3942 23.4992C44.2194 23.2434 49.7674 22.9848 49.9957 22.9766L50.0149 23.3864C48.4278 23.4579 44.1534 23.6945 43.5125 23.8925C42.9294 24.0631 42.4012 25.2403 42.2472 25.6914Z" fill="#3C8AFF"/>
<path d="M45.7086 25.2742C45.7086 25.2742 43.332 22.3612 41.9925 23.2332C40.6529 24.1051 42.6031 28.4456 44.281 28.9215C44.4922 28.9989 44.7168 29.0328 44.9415 29.0211C45.1661 29.0094 45.386 28.9523 45.588 28.8534C45.79 28.7545 45.9699 28.6157 46.1168 28.4454C46.2638 28.2751 46.3747 28.0768 46.443 27.8625L45.7086 25.2742Z" fill="#AD6359"/>
<path d="M42.5845 24.457C42.5787 24.457 42.5731 24.4594 42.5689 24.4635C42.5648 24.4676 42.5625 24.4732 42.5625 24.479C42.5625 24.4849 42.5648 24.4905 42.5689 24.4946C42.5731 24.4987 42.5787 24.501 42.5845 24.501C43.7645 24.8806 44.4494 25.9011 44.9555 26.9766C44.5814 26.5778 44.1001 26.3797 43.561 26.8281C43.5335 26.8528 43.561 26.8968 43.5967 26.8886C43.7936 26.8092 44.0103 26.793 44.2168 26.8423C44.4233 26.8916 44.6094 27.0039 44.7492 27.1636C44.9826 27.4316 45.1864 27.724 45.3571 28.0356C45.4176 28.1346 45.5992 28.0658 45.5524 27.9503V27.9228C45.4561 26.4512 44.1661 24.4873 42.5845 24.457Z" fill="#263238"/>
<path d="M45.1788 28.4134C45.1847 28.4608 45.1807 28.5088 45.1671 28.5546C45.1535 28.6003 45.1307 28.6427 45.0999 28.6792C45.0692 28.7157 45.0313 28.7455 44.9885 28.7666C44.9457 28.7878 44.8991 28.7999 44.8514 28.8021C44.8038 28.8044 44.7561 28.7968 44.7116 28.7799C44.667 28.7629 44.6264 28.7369 44.5923 28.7035C44.5582 28.6701 44.5314 28.63 44.5135 28.5858C44.4956 28.5416 44.4871 28.4941 44.4884 28.4464C44.4908 28.3591 44.5261 28.2758 44.5873 28.2134C44.6485 28.151 44.731 28.1139 44.8183 28.1098C44.9056 28.1056 44.9913 28.1346 45.0581 28.1909C45.125 28.2472 45.1681 28.3267 45.1788 28.4134Z" fill="white"/>
<path d="M44.1849 27.8667C44.1863 27.8953 44.1821 27.9238 44.1725 27.9507C44.163 27.9776 44.1482 28.0024 44.129 28.0236C44.1099 28.0448 44.0867 28.062 44.0609 28.0743C44.0351 28.0865 44.0071 28.0936 43.9786 28.095C43.95 28.0965 43.9215 28.0923 43.8946 28.0827C43.8677 28.0731 43.8429 28.0583 43.8217 28.0392C43.8005 28.02 43.7833 27.9969 43.771 27.9711C43.7588 27.9452 43.7517 27.9173 43.7503 27.8887C43.7474 27.8311 43.7675 27.7747 43.8061 27.7319C43.8448 27.689 43.8989 27.6634 43.9566 27.6604C44.0142 27.6575 44.0706 27.6776 44.1134 27.7163C44.1563 27.755 44.182 27.8091 44.1849 27.8667Z" fill="white"/>
<path d="M52.3869 36.0782L50.7365 40.4022L45.3013 35.0742L43.8242 36.8456C43.8242 36.8456 49.2044 45.3725 49.2292 44.9819L50.9263 41.2493L53.5284 43.7744L53.1983 37.3187L52.3869 36.0782Z" fill="#3C8AFF"/>
<path d="M53.554 40.5753C53.4659 39.5108 53.4027 38.4381 53.2789 37.3791C53.2789 37.3406 53.2129 37.3241 53.2046 37.3791C53.0121 38.4106 53.3779 42.4787 53.3917 43.4552C53.2844 43.3452 50.9821 41.2354 50.9601 41.2712C50.5888 41.8653 49.3428 44.5719 49.2575 44.8305C48.4076 43.4772 44.8043 38.141 43.803 36.8537C43.7979 36.8453 43.7897 36.8393 43.7802 36.837C43.7706 36.8347 43.7605 36.8362 43.7522 36.8413C43.7438 36.8464 43.7377 36.8547 43.7354 36.8642C43.7331 36.8738 43.7347 36.8838 43.7398 36.8922C44.4962 38.3253 49.1557 45.3669 49.219 45.3449C49.8777 44.0614 50.4698 42.7449 50.9931 41.4005C51.3837 41.8626 53.7108 44.2474 53.7163 44.0906C53.7244 42.9168 53.6702 41.7434 53.554 40.5753Z" fill="#263238"/>
<path d="M52.771 50.0614C52.771 50.0614 50.6448 47.2557 52.6748 45.9602C54.7047 44.6647 56.3524 47.7756 56.3524 47.7756L52.771 50.0614Z" fill="#455A64"/>
<path d="M69.5891 68.5252L69.8835 71.9552L69.988 73.0884L68.995 72.5246L66.0133 70.8027L52.7031 49.942L56.2789 47.6562L69.5891 68.5252Z" fill="#455A64"/>
<path d="M69.8912 71.9609L69.9902 73.0914L69 72.5276L69.8912 71.9609Z" fill="#37474F"/>
<path d="M56.505 47.3559L52.3242 50.0234L52.8539 50.8536L57.0347 48.186L56.505 47.3559Z" fill="#263238"/>
<path d="M57.091 48.2777L52.9102 50.9453L53.4398 51.7754L57.6206 49.1079L57.091 48.2777Z" fill="#263238"/>
<path d="M53.4414 51.7711L54.7892 50.9102L58.8629 58.9337L58.3485 59.2198L53.4414 51.7711Z" fill="#263238"/>
<path d="M45.107 57.4288C47.1507 57.0244 53.3588 74.4963 50.3744 75.2363C37.1274 78.537 26.2818 76.4575 23.7127 75.2363C20.3432 73.6217 20.0626 69.2949 21.4709 67.298C23.9272 63.835 41.9383 58.0587 45.107 57.4288Z" fill="#AD6359"/>
<path d="M70.5476 56.4978C70.5146 58.514 65.5497 58.0134 65.5497 58.0134C66.2664 58.5065 66.7873 59.2357 67.0213 60.0736C67.3651 61.5672 65.1756 62.7609 65.1756 62.7609C65.8105 63.4279 66.2302 64.2703 66.3804 65.1787C66.5647 66.642 64.5265 68.1604 64.5265 68.1604C64.7736 69.0947 64.676 70.0868 64.2514 70.955C63.0219 73.227 49.3018 75.422 47.5937 75.7328L44.293 57.8538C44.293 57.8538 55.0726 51.7585 58.046 51.962C60.5464 52.1133 70.5971 53.4088 70.5476 56.4978Z" fill="#AD6359"/>
<path d="M65.5128 57.9491C62.8942 57.1239 60.0831 56.9341 57.371 56.7773C57.3586 56.7773 57.3467 56.7823 57.3379 56.791C57.3291 56.7998 57.3242 56.8117 57.3242 56.8241C57.3242 56.8365 57.3291 56.8484 57.3379 56.8572C57.3467 56.8659 57.3586 56.8709 57.371 56.8709C60.0721 56.9946 62.8034 57.8446 65.4935 58.0784C65.5094 58.0785 65.5248 58.0728 65.5369 58.0625C65.549 58.0522 65.5569 58.0378 65.5592 58.0221C65.5616 58.0064 65.5582 57.9903 65.5496 57.9769C65.5411 57.9635 65.528 57.9536 65.5128 57.9491Z" fill="#263238"/>
<path d="M65.1079 62.552C64.4952 62.4232 63.8682 62.3751 63.243 62.4089C62.5792 62.4089 61.9163 62.4144 61.2543 62.4254C59.9267 62.4584 58.6009 62.5254 57.2769 62.6262C57.2192 62.6262 57.2109 62.7197 57.2769 62.7197C58.5972 62.6895 59.9203 62.6785 61.2433 62.7032C61.9062 62.7032 62.5664 62.7335 63.2293 62.7555C63.8517 62.817 64.4789 62.8096 65.0997 62.7335C65.1188 62.7278 65.1357 62.7162 65.1479 62.7005C65.1602 62.6847 65.1673 62.6656 65.1682 62.6456C65.1691 62.6257 65.1638 62.606 65.153 62.5892C65.1422 62.5724 65.1265 62.5594 65.1079 62.552Z" fill="#263238"/>
<path d="M64.4684 68.1547C63.9568 67.9897 63.3159 68.0915 62.7851 68.1162L60.9697 68.1905C59.7621 68.2318 58.5546 68.273 57.3443 68.273C57.2838 68.273 57.2783 68.3665 57.3443 68.3665C58.5739 68.3665 59.8034 68.3968 61.0302 68.3913C61.6353 68.3913 62.2377 68.3913 62.8428 68.3748C63.3544 68.3748 63.9981 68.416 64.4932 68.2153C64.5001 68.2112 64.5053 68.2049 64.5078 68.1973C64.5104 68.1898 64.5102 68.1816 64.5071 68.1742C64.5041 68.1669 64.4985 68.1608 64.4914 68.1572C64.4843 68.1537 64.4762 68.1528 64.4684 68.1547Z" fill="#263238"/>
<path d="M43.0947 57.6562L49.0278 77.3424C49.0278 77.3424 27.419 78.3959 22.7842 75.0264C19.5632 72.6829 19.83 68.2736 21.2851 66.7553C24.4621 63.4408 43.0947 57.6562 43.0947 57.6562Z" fill="#EBEBEB"/>
<path d="M43.3314 76.5792C42.3989 73.8285 38.9909 62.496 38.4188 59.9957C38.3803 59.8224 38.4793 59.7564 38.5453 59.9297C41.538 68.0688 42.6712 73.8065 43.4387 76.5379C43.4552 76.6122 43.3561 76.6534 43.3314 76.5792Z" fill="#263238"/>
<path d="M43.0973 57.4539C42.979 57.4292 40.8968 57.9683 40.2311 58.1636C38.931 58.5505 37.6401 58.9705 36.3583 59.4234C33.8058 60.3227 31.3012 61.3528 28.8546 62.5096L28.4888 62.6856C27.5948 62.9002 26.7229 63.2082 25.8537 63.4943C25.8289 63.4943 25.8537 63.5411 25.8537 63.5328C26.5496 63.3018 27.2565 63.1202 27.9634 62.9332C27.5728 63.123 27.1795 63.3155 26.7944 63.5163C26.1095 63.8711 25.4411 64.2535 24.7617 64.6166C24.7592 64.6176 24.7569 64.6192 24.7551 64.6212C24.7532 64.6232 24.7518 64.6256 24.751 64.6282C24.7501 64.6308 24.7498 64.6335 24.7501 64.6363C24.7504 64.639 24.7512 64.6416 24.7526 64.644C24.754 64.6463 24.7559 64.6484 24.7581 64.6499C24.7603 64.6515 24.7628 64.6526 24.7655 64.6531C24.7682 64.6537 24.771 64.6536 24.7736 64.653C24.7763 64.6524 24.7788 64.6512 24.7809 64.6496C25.9224 64.0582 27.108 63.5328 28.2797 62.9992C29.4515 62.4656 30.6728 61.9457 31.883 61.4561C34.2678 60.4906 36.6994 59.6269 39.1612 58.8678C39.8543 58.656 40.5365 58.4524 41.2461 58.2544C41.5872 58.1581 43.0065 57.6767 43.067 57.6712C43.1001 57.7221 43.1251 57.7778 43.1413 57.8363C43.1578 57.894 43.2238 57.894 43.2101 57.8363C43.1875 57.7049 43.1496 57.5766 43.0973 57.4539Z" fill="#263238"/>
<path d="M46.0256 77.4327C45.3985 77.3887 43.0852 77.5015 42.4663 77.5015C41.2175 77.5015 39.9715 77.5015 38.7227 77.4795C36.2142 77.4135 33.7166 77.2319 31.2191 76.9926C30.5287 76.9266 29.8438 76.8524 29.1451 76.7781C28.4464 76.7038 27.6955 76.6488 26.9859 76.5195C26.9584 76.5195 26.9474 76.558 26.9859 76.5635C27.6075 76.6543 28.2181 76.8001 28.837 76.9074C29.4559 77.0146 30.0776 77.1082 30.7019 77.1962C31.9507 77.3722 33.205 77.496 34.462 77.6005C36.9706 77.8068 39.4957 77.8756 42.0125 77.8288C42.7221 77.8151 45.371 77.705 46.0586 77.5538C46.1274 77.551 46.0971 77.4382 46.0256 77.4327Z" fill="#263238"/>
<path d="M87.5676 81.303L64.875 82.9478L73.3579 53.0706L96.0505 51.4258L87.5676 81.303Z" fill="white"/>
<path d="M89.1195 81.1897L66.4297 82.8345L74.9126 52.9574L97.6024 51.3125L89.1195 81.1897Z" fill="#37474F"/>
<path d="M77.3251 52.785C77.2677 53.0423 77.1598 53.2855 77.0078 53.5008C76.8558 53.7161 76.6626 53.8991 76.4394 54.0393C76.2331 54.1713 76.1643 53.8935 76.3596 53.7642C76.6457 53.5756 76.8591 53.2953 76.9648 52.9693C76.9785 52.9171 76.995 52.8565 77.0033 52.8043C77.052 52.6241 77.052 52.4343 77.0033 52.2542C76.9798 52.1766 76.9302 52.1096 76.863 52.0644C76.8566 52.061 76.8509 52.0564 76.8465 52.0506C76.8465 52.0506 76.8217 52.0506 76.819 52.0506C76.8044 52.0525 76.7896 52.0525 76.775 52.0506C76.7205 52.0441 76.6654 52.0527 76.6155 52.0754C76.5192 52.1171 76.4343 52.1812 76.3679 52.2624C76.2861 52.3592 76.2177 52.4665 76.1643 52.5815C76.1317 52.6375 76.1023 52.6954 76.0763 52.7548V52.796C76.0662 52.8151 76.0588 52.8354 76.0543 52.8565C76.0543 52.8565 76.0378 52.8813 76.0406 52.8951L75.7188 52.9198C75.7843 52.7142 75.8768 52.5181 75.9938 52.3367C76.0791 52.1805 76.1968 52.0444 76.3392 51.9376C76.4816 51.8309 76.6452 51.7559 76.819 51.7178C76.9485 51.7037 77.0784 51.7406 77.1811 51.8207C77.2838 51.9008 77.3513 52.0178 77.3691 52.1469C77.408 52.3599 77.3929 52.5793 77.3251 52.785Z" fill="#3C8AFF"/>
<path d="M79.1032 52.6499C78.9849 53.1685 78.6666 53.6193 78.2175 53.9042C78.0084 54.0362 77.9424 53.7584 78.1377 53.6291C78.4238 53.4412 78.6365 53.1605 78.7401 52.8342C78.7577 52.7802 78.7715 52.7251 78.7813 52.6692C78.8301 52.489 78.8301 52.2992 78.7813 52.1191C78.7569 52.0412 78.7064 51.9742 78.6383 51.9293C78.6338 51.9301 78.6291 51.9301 78.6246 51.9293C78.6246 51.9293 78.5998 51.9293 78.5943 51.9293H78.553C78.4986 51.9228 78.4434 51.9313 78.3935 51.954C78.2973 51.9957 78.2124 52.0598 78.146 52.1411C78.0623 52.2365 77.9937 52.3441 77.9424 52.4601C77.9098 52.5171 77.8804 52.5759 77.8544 52.6362V52.6747C77.8427 52.6932 77.8343 52.7137 77.8296 52.7352C77.8296 52.7489 77.8159 52.7627 77.8296 52.7737L77.5078 52.7984C77.5722 52.5923 77.6648 52.3961 77.7829 52.2153C77.8678 52.0589 77.9855 51.9226 78.1279 51.8158C78.2703 51.709 78.4341 51.6342 78.6081 51.5964C78.7374 51.583 78.867 51.6202 78.9695 51.7002C79.0721 51.7802 79.1397 51.8968 79.1582 52.0255C79.1899 52.2351 79.171 52.4492 79.1032 52.6499Z" fill="#3C8AFF"/>
<path d="M80.866 52.5278C80.7472 53.0476 80.4279 53.4994 79.9776 53.7848C79.7713 53.9141 79.7025 53.6363 79.8978 53.5098C80.1847 53.322 80.3983 53.0413 80.503 52.7149C80.503 52.6626 80.536 52.6048 80.5442 52.5526C80.5908 52.3722 80.5908 52.1829 80.5442 52.0024C80.5218 51.9244 80.472 51.857 80.4039 51.8127H80.3874C80.3874 51.8127 80.3654 51.8127 80.3599 51.8127H80.3159C80.2626 51.8045 80.2081 51.8121 80.1591 51.8347C80.062 51.8763 79.9762 51.9404 79.9088 52.0217C79.8271 52.1185 79.7586 52.2258 79.7053 52.3408C79.6723 52.3958 79.6475 52.4563 79.6173 52.5168V52.5553C79.6076 52.5746 79.6002 52.5949 79.5953 52.6158C79.5953 52.6296 79.5815 52.6433 79.5953 52.6543L79.2734 52.6791C79.3377 52.4729 79.4303 52.2767 79.5485 52.096C79.6336 51.9399 79.7514 51.8041 79.8938 51.6978C80.0362 51.5915 80.1999 51.5171 80.3737 51.4798C80.5029 51.465 80.6328 51.5012 80.7356 51.5809C80.8384 51.6606 80.906 51.7773 80.9238 51.9062C80.9543 52.115 80.9345 52.3282 80.866 52.5278Z" fill="#3C8AFF"/>
<path d="M82.6532 52.3978C82.5954 52.6552 82.4875 52.8987 82.3355 53.1144C82.1835 53.3301 81.9905 53.5137 81.7675 53.6548C81.5612 53.7868 81.4925 53.5063 81.6878 53.3797C81.9732 53.1904 82.1864 52.9103 82.2929 52.5848C82.3067 52.5298 82.3232 52.472 82.3314 52.4198C82.3797 52.2396 82.3797 52.0498 82.3314 51.8696C82.3073 51.7924 82.2579 51.7256 82.1911 51.6798H82.1746C82.1746 51.6798 82.1499 51.6798 82.1471 51.6798H82.1031C82.0487 51.6707 81.9927 51.6793 81.9436 51.7046C81.8469 51.7442 81.7617 51.8076 81.696 51.8889C81.6143 51.9857 81.5458 52.093 81.4925 52.208C81.4599 52.2649 81.4305 52.3237 81.4045 52.384V52.4225C81.3952 52.4419 81.3878 52.4622 81.3825 52.483C81.3825 52.4968 81.3659 52.5105 81.3687 52.5243L81.0469 52.5463C81.1125 52.3406 81.2049 52.1446 81.3219 51.9632C81.4072 51.8072 81.525 51.6715 81.6674 51.5652C81.8098 51.4589 81.9734 51.3845 82.1471 51.347C82.2763 51.3321 82.4063 51.3684 82.5091 51.4481C82.6119 51.5278 82.6794 51.6445 82.6972 51.7734C82.7338 51.982 82.7187 52.1963 82.6532 52.3978Z" fill="#3C8AFF"/>
<path d="M84.4391 52.2674C84.3204 52.7865 84.0023 53.238 83.5534 53.5244C83.3444 53.6565 83.2783 53.3759 83.4736 53.2494C83.7591 53.0608 83.9716 52.7803 84.076 52.4545C84.0936 52.4005 84.1074 52.3453 84.1173 52.2894C84.1661 52.1093 84.1661 51.9194 84.1173 51.7393C84.0928 51.6608 84.0424 51.5929 83.9742 51.5468C83.9697 51.5476 83.965 51.5476 83.9605 51.5468C83.9605 51.5468 83.9357 51.5468 83.9302 51.5468H83.889C83.8345 51.5389 83.779 51.5475 83.7294 51.5715C83.6333 51.6121 83.5484 51.6754 83.4819 51.7558C83.3988 51.8526 83.3302 51.961 83.2783 52.0776C83.2452 52.1334 83.2158 52.1913 83.1903 52.2509V52.2894C83.1791 52.3082 83.1707 52.3286 83.1656 52.3499C83.1656 52.3637 83.1518 52.3774 83.1656 52.3912L82.8438 52.4132C82.9082 52.2071 83.0007 52.0109 83.1188 51.8301C83.2042 51.6743 83.3221 51.5386 83.4644 51.4323C83.6068 51.326 83.7704 51.2515 83.944 51.2139C84.0731 51.1998 84.2026 51.2363 84.3053 51.3159C84.4079 51.3954 84.4756 51.5117 84.4941 51.6403C84.5263 51.8507 84.5074 52.0658 84.4391 52.2674Z" fill="#3C8AFF"/>
<path d="M86.2059 52.1415C86.0861 52.6602 85.767 53.1108 85.3174 53.3958C85.1111 53.5278 85.0424 53.2473 85.2377 53.1208C85.5239 52.9323 85.7373 52.6519 85.8428 52.3258C85.8566 52.2736 85.8758 52.2131 85.8841 52.1608C85.9315 51.9805 85.9315 51.791 85.8841 51.6107C85.8609 51.5322 85.8113 51.4642 85.7438 51.4181H85.7273C85.7273 51.4181 85.7053 51.4181 85.6998 51.4181C85.6852 51.42 85.6704 51.42 85.6558 51.4181C85.6022 51.4108 85.5477 51.4194 85.499 51.4429C85.4013 51.4835 85.3153 51.5478 85.2487 51.6299C85.1669 51.7267 85.0985 51.834 85.0451 51.949C85.0121 52.0013 84.9874 52.0618 84.9571 52.1223V52.1635C84.9474 52.1818 84.94 52.2012 84.9351 52.2213C84.9314 52.2348 84.9314 52.2491 84.9351 52.2626L84.6133 52.2846C84.6781 52.0795 84.7707 51.8842 84.8883 51.7042C84.9737 51.5481 85.0916 51.4121 85.2339 51.3053C85.3762 51.1986 85.5398 51.1236 85.7135 51.0853C85.8427 51.0704 85.9727 51.1067 86.0755 51.1864C86.1783 51.2661 86.2458 51.3828 86.2636 51.5116C86.2951 51.7232 86.2753 51.9392 86.2059 52.1415Z" fill="#3C8AFF"/>
<path d="M87.9782 52.0116C87.9207 52.2688 87.8129 52.5121 87.6609 52.7274C87.5089 52.9427 87.3157 53.1257 87.0925 53.2659C86.8862 53.3979 86.8174 53.1201 87.0127 52.9908C87.2988 52.8022 87.5122 52.5218 87.6178 52.1959C87.6316 52.1436 87.6481 52.0831 87.6563 52.0308C87.7051 51.8507 87.7051 51.6609 87.6563 51.4807C87.6328 51.4032 87.5833 51.3362 87.5161 51.2909C87.5096 51.2876 87.504 51.2829 87.4996 51.2772C87.4996 51.2772 87.4748 51.2772 87.4721 51.2772C87.4574 51.2791 87.4427 51.2791 87.428 51.2772C87.3736 51.2707 87.3184 51.2793 87.2685 51.3019C87.1723 51.3436 87.0874 51.4078 87.021 51.489C86.9383 51.5851 86.8697 51.6925 86.8174 51.808C86.7848 51.8641 86.7554 51.9219 86.7294 51.9813V52.0226C86.7195 52.0421 86.7112 52.0623 86.7046 52.0831C86.7046 52.0831 86.6909 52.1079 86.7046 52.1216L86.3828 52.1464C86.4484 51.9407 86.5409 51.7446 86.6579 51.5632C86.7431 51.407 86.8609 51.271 87.0033 51.1642C87.1456 51.0574 87.3092 50.9824 87.4831 50.9444C87.6126 50.9302 87.7425 50.9672 87.8452 51.0473C87.9479 51.1274 88.0153 51.2444 88.0332 51.3734C88.0685 51.5874 88.0496 51.8068 87.9782 52.0116Z" fill="#3C8AFF"/>
<path d="M89.7555 51.8854C89.6373 52.404 89.3189 52.8548 88.8698 53.1397C88.6608 53.2718 88.5948 52.9939 88.79 52.8647C89.0757 52.6774 89.2883 52.3978 89.3924 52.0725C89.4101 52.0185 89.4238 51.9634 89.4337 51.9075C89.4811 51.7271 89.4811 51.5376 89.4337 51.3573C89.4092 51.2795 89.3587 51.2125 89.2907 51.1675C89.2861 51.1684 89.2815 51.1684 89.2769 51.1675C89.2769 51.1675 89.2522 51.1675 89.2467 51.1675H89.2054C89.151 51.161 89.0958 51.1696 89.0459 51.1923C88.9496 51.234 88.8647 51.2981 88.7983 51.3793C88.7147 51.4748 88.646 51.5823 88.5948 51.6984C88.5621 51.7554 88.5327 51.8142 88.5067 51.8744V51.913C88.495 51.9315 88.4866 51.952 88.482 51.9735C88.482 51.9872 88.4682 52.001 88.482 52.012L88.1602 52.0367C88.2246 51.8306 88.3171 51.6344 88.4352 51.4536C88.5202 51.2972 88.6379 51.1609 88.7803 51.0541C88.9227 50.9473 89.0864 50.8725 89.2604 50.8347C89.3898 50.8213 89.5193 50.8585 89.6219 50.9385C89.7244 51.0185 89.792 51.1351 89.8105 51.2638C89.8418 51.4725 89.823 51.6855 89.7555 51.8854Z" fill="#3C8AFF"/>
<path d="M91.534 51.7544C91.4152 52.2742 91.0959 52.7259 90.6456 53.0114C90.4393 53.1407 90.3705 52.8629 90.5658 52.7364C90.8526 52.5485 91.0662 52.2679 91.1709 51.9414C91.1847 51.8892 91.2039 51.8314 91.2122 51.7791C91.2588 51.5987 91.2588 51.4094 91.2122 51.229C91.1897 51.151 91.1399 51.0836 91.0719 51.0392H91.0554C91.0554 51.0392 91.0334 51.0392 91.0279 51.0392H90.9839C90.9306 51.031 90.8761 51.0387 90.8271 51.0612C90.73 51.1028 90.6442 51.1669 90.5768 51.2483C90.495 51.3451 90.4266 51.4524 90.3733 51.5673C90.3402 51.6224 90.3155 51.6829 90.2852 51.7434V51.7819C90.2759 51.8013 90.2686 51.8216 90.2632 51.8424C90.2632 51.8562 90.2632 51.8699 90.2632 51.8809L89.9414 51.9057C90.0057 51.6995 90.0982 51.5032 90.2165 51.3225C90.3016 51.1665 90.4194 51.0307 90.5618 50.9244C90.7042 50.818 90.8679 50.7437 91.0417 50.7064C91.1709 50.6915 91.3008 50.7278 91.4036 50.8075C91.5064 50.8871 91.5739 51.0039 91.5918 51.1327C91.6223 51.3416 91.6025 51.5547 91.534 51.7544Z" fill="#3C8AFF"/>
<path d="M93.3063 51.6243C93.2485 51.8818 93.1405 52.1253 92.9885 52.341C92.8366 52.5567 92.6436 52.7403 92.4206 52.8813C92.2143 53.0134 92.1455 52.7328 92.3408 52.6063C92.6257 52.4164 92.8387 52.1365 92.946 51.8114C92.9597 51.7563 92.9762 51.6986 92.9845 51.6463C93.0328 51.4661 93.0328 51.2764 92.9845 51.0962C92.9603 51.019 92.9109 50.9521 92.8442 50.9064H92.8277C92.8277 50.9064 92.8029 50.9064 92.8002 50.9064H92.7562C92.7017 50.8972 92.6457 50.9059 92.5966 50.9312C92.4999 50.9708 92.4148 51.0342 92.3491 51.1155C92.2664 51.2116 92.1978 51.319 92.1455 51.4345C92.1129 51.4915 92.0835 51.5503 92.0575 51.6106V51.6491C92.0474 51.6684 92.0391 51.6887 92.0328 51.7096C92.0328 51.7233 92.019 51.7371 92.0328 51.7508L91.7109 51.7729C91.7765 51.5672 91.869 51.3711 91.986 51.1897C92.0713 51.0338 92.1891 50.8981 92.3315 50.7918C92.4739 50.6854 92.6375 50.611 92.8112 50.5736C92.9404 50.5587 93.0703 50.595 93.1731 50.6747C93.2759 50.7543 93.3435 50.8711 93.3613 50.9999C93.3944 51.2094 93.3755 51.4238 93.3063 51.6243Z" fill="#3C8AFF"/>
<path d="M95.0836 51.494C94.9649 52.013 94.6468 52.4646 94.1979 52.751C93.9889 52.883 93.9229 52.6025 94.1182 52.4759C94.4037 52.2873 94.6162 52.0069 94.7206 51.681C94.7382 51.627 94.752 51.5719 94.7618 51.516C94.8092 51.3357 94.8092 51.1462 94.7618 50.9659C94.7373 50.8873 94.6869 50.8194 94.6188 50.7733C94.6142 50.7741 94.6096 50.7741 94.605 50.7733C94.605 50.7733 94.5803 50.7733 94.5748 50.7733H94.5335C94.4791 50.7654 94.4235 50.774 94.374 50.7981C94.2778 50.8387 94.1929 50.9019 94.1264 50.9824C94.0434 51.0798 93.974 51.1881 93.9201 51.3042C93.8879 51.36 93.8594 51.4179 93.8349 51.4775V51.516C93.8236 51.5348 93.8153 51.5552 93.8101 51.5765C93.8101 51.5902 93.7963 51.604 93.8101 51.6178L93.4883 51.6398C93.5527 51.4336 93.6453 51.2374 93.7633 51.0566C93.8487 50.9008 93.9666 50.7652 94.109 50.6589C94.2513 50.5526 94.4149 50.4781 94.5885 50.4405C94.7176 50.4263 94.8472 50.4629 94.9498 50.5424C95.0524 50.622 95.1202 50.7383 95.1386 50.8668C95.1708 51.0773 95.152 51.2924 95.0836 51.494Z" fill="#3C8AFF"/>
<path d="M96.8582 51.372C96.7385 51.8906 96.4193 52.3413 95.9698 52.6263C95.7635 52.7583 95.6947 52.4778 95.89 52.3512C96.1762 52.1627 96.3897 51.8824 96.4952 51.5563C96.5089 51.504 96.5254 51.4435 96.5364 51.3913C96.5839 51.211 96.5839 51.0214 96.5364 50.8411C96.5132 50.7627 96.4637 50.6947 96.3961 50.6486H96.3796C96.3796 50.6486 96.3576 50.6486 96.3521 50.6486C96.3375 50.6505 96.3227 50.6505 96.3081 50.6486C96.2546 50.6413 96.2 50.6499 96.1513 50.6734C96.0537 50.714 95.9677 50.7783 95.901 50.8604C95.8193 50.9572 95.7508 51.0645 95.6975 51.1795C95.6645 51.2317 95.6397 51.2922 95.6095 51.3528V51.394C95.5997 51.4123 95.5923 51.4317 95.5875 51.4518C95.5837 51.4653 95.5837 51.4795 95.5875 51.493L95.2656 51.515C95.331 51.3093 95.4235 51.1132 95.5407 50.9319C95.6267 50.7766 95.7447 50.6413 95.887 50.535C96.0292 50.4288 96.1925 50.3541 96.3659 50.3158C96.4951 50.3009 96.625 50.3372 96.7278 50.4168C96.8306 50.4965 96.8982 50.6133 96.916 50.7421C96.9474 50.9537 96.9276 51.1697 96.8582 51.372Z" fill="#3C8AFF"/>
<path d="M96.4845 58.0312C97.6865 60.4875 100.674 63.5325 100.94 65.5377C101.023 66.0318 100.945 66.5395 100.716 66.9854C100.488 67.4314 100.122 67.7918 99.6724 68.0132C99.6724 68.0132 101.7 68.9952 101.639 70.8629C101.606 71.8256 100.044 72.6178 100.044 72.6178C100.044 72.6178 101.631 73.4759 101.477 75.1346C101.35 76.4549 99.8045 77.06 99.8045 77.06C99.8045 77.06 100.943 78.5866 100.393 79.8821C99.2626 82.5282 87.8723 82.6603 86.0652 78.4848C85.2207 76.5401 88.0043 76.6584 88.0043 76.6584C88.0043 76.6584 84.0435 75.5224 83.9554 73.1734C83.8674 70.8244 87.4762 71.1984 87.4762 71.1984C87.4762 71.1984 83.6474 70.0624 83.8014 67.6226C83.9637 65.0811 87.5092 66.0713 87.5092 66.0713C87.5092 66.0713 84.9567 64.3824 85.504 62.5395C86.4062 59.4973 91.2446 63.2547 93.7559 62.633L95.0899 58.4879L96.4845 58.0312Z" fill="#AD6359"/>
<path d="M98.8123 61.5917C97.8798 59.1657 100.862 56.1235 100.3 53.6782C99.544 50.3775 95.8444 53.6617 95.0742 58.4918L95.1292 62.3426L98.8123 61.5917Z" fill="#AD6359"/>
<path d="M99.569 77.1829C99.6047 77.1829 99.6185 77.2324 99.569 77.2407C95.8336 78.1979 91.4354 78.1044 87.8293 76.6905C87.7111 76.6438 87.7358 76.432 87.8761 76.4595C91.892 77.2022 95.5008 77.557 99.569 77.1829Z" fill="#263238"/>
<path d="M100.1 72.6419C100.144 72.6419 100.153 72.7107 100.1 72.7217C96.2494 73.6871 91.2983 73.4451 87.3319 71.3106C87.1944 71.2391 87.1476 71.0355 87.3099 71.1098C90.0578 72.3256 96.4365 73.005 100.1 72.6419Z" fill="#263238"/>
<path d="M87.2577 65.8275C91.1388 67.7254 95.2345 68.1903 99.5172 68.061C99.5722 68.061 99.5694 68.138 99.5172 68.1518C97.4405 68.7844 94.7064 68.5836 92.5911 68.2453C90.6222 67.9698 88.7597 67.1837 87.1889 65.965C87.1284 65.9155 87.1889 65.789 87.2577 65.8275Z" fill="#263238"/>
<path d="M2.57031 99.4344L16.4362 99.3684L30.302 99.3436L58.0337 99.2969L85.7654 99.3436L99.6312 99.3684L113.497 99.4344L99.6312 99.5032L85.7654 99.5252L58.0337 99.5719L30.302 99.5252L16.4362 99.5004L2.57031 99.4344Z" fill="#263238"/>
<path d="M19.5776 87.7539H7.35938V106.084H19.5776V87.7539Z" fill="#3C8AFF"/>
<path d="M21.0564 82.832H5.88672V87.7529H21.0564V82.832Z" fill="#455A64"/>
<path d="M17.5359 93.0273H9.40234V101.161H17.5359V93.0273Z" fill="white"/>
<path opacity="0.1" d="M7.35938 87.7539V89.1815L14.2387 91.7808V106.081H17.5366V87.7539H7.35938Z" fill="black"/>
<path d="M3.56641 105.664C3.56641 105.462 3.6062 105.262 3.6835 105.076C3.76081 104.889 3.87411 104.72 4.01692 104.577C4.15974 104.435 4.32926 104.322 4.5158 104.245C4.70233 104.168 4.90221 104.129 5.104 104.129H8.16268C8.3646 104.129 8.56462 104.168 8.7513 104.245C8.93799 104.322 9.1077 104.435 9.25073 104.577C9.39377 104.72 9.50733 104.889 9.58493 105.076C9.66254 105.262 9.70267 105.462 9.70303 105.664C9.7023 106.072 9.53969 106.463 9.2509 106.751C8.96211 107.039 8.57073 107.201 8.16268 107.201H5.115C4.91226 107.202 4.7113 107.163 4.52364 107.087C4.33598 107.01 4.16532 106.897 4.02145 106.754C3.87758 106.611 3.76332 106.441 3.68523 106.254C3.60715 106.067 3.56677 105.866 3.56641 105.664Z" fill="#455A64"/>
<path d="M3.56641 105.664C3.56641 105.462 3.6062 105.262 3.6835 105.076C3.76081 104.889 3.87411 104.72 4.01693 104.577C4.15974 104.435 4.32927 104.322 4.5158 104.245C4.70233 104.168 4.90221 104.129 5.104 104.129H6.63059V107.207H5.115C4.9118 107.208 4.71039 107.169 4.52237 107.092C4.33435 107.015 4.16345 106.901 4.0195 106.758C3.87556 106.614 3.76141 106.444 3.68365 106.256C3.60589 106.068 3.56604 105.867 3.56641 105.664Z" fill="#3C8AFF"/>
<path d="M24.474 105.665C24.4736 105.867 24.4335 106.067 24.3559 106.254C24.2783 106.44 24.1647 106.609 24.0217 106.752C23.8787 106.894 23.709 107.007 23.5223 107.084C23.3356 107.161 23.1356 107.201 22.9336 107.2H19.8997C19.6978 107.201 19.4978 107.161 19.3111 107.084C19.1244 107.007 18.9547 106.894 18.8117 106.752C18.6686 106.609 18.5551 106.44 18.4775 106.254C18.3999 106.067 18.3597 105.867 18.3594 105.665C18.3594 105.257 18.5217 104.865 18.8105 104.576C19.0994 104.287 19.4912 104.125 19.8997 104.125H22.9447C23.3513 104.128 23.7402 104.291 24.0267 104.58C24.3132 104.869 24.474 105.259 24.474 105.665Z" fill="#455A64"/>
<path d="M24.4712 105.665C24.4708 105.867 24.4307 106.067 24.3531 106.254C24.2755 106.44 24.1619 106.609 24.0189 106.752C23.8758 106.894 23.7061 107.007 23.5194 107.084C23.3327 107.161 23.1327 107.201 22.9308 107.2H21.418V104.125H22.9418C23.3484 104.128 23.7374 104.291 24.0239 104.58C24.3104 104.869 24.4712 105.259 24.4712 105.665Z" fill="#3C8AFF"/>
<path d="M27.9392 106.285C27.7967 106.427 27.6273 106.541 27.4409 106.618C27.2544 106.696 27.0546 106.735 26.8527 106.735C26.6509 106.735 26.451 106.696 26.2646 106.618C26.0782 106.541 25.9088 106.427 25.7662 106.285L23.6098 104.131C23.3219 103.843 23.1602 103.452 23.1602 103.044C23.1602 102.637 23.3219 102.246 23.6098 101.958C23.899 101.67 24.2907 101.508 24.699 101.508C25.1073 101.508 25.499 101.67 25.7882 101.958L27.942 104.112C28.2288 104.401 28.3896 104.791 28.3891 105.199C28.3886 105.606 28.2268 105.996 27.9392 106.285Z" fill="#455A64"/>
<path d="M27.9387 106.285C27.7962 106.428 27.6268 106.541 27.4404 106.619C27.2539 106.696 27.0541 106.736 26.8522 106.736C26.6504 106.736 26.4505 106.696 26.2641 106.619C26.0777 106.541 25.9083 106.428 25.7657 106.285L24.6875 105.207L26.8632 103.031L27.9415 104.109C28.2292 104.399 28.3905 104.79 28.3899 105.198C28.3894 105.606 28.2272 105.997 27.9387 106.285Z" fill="#3C8AFF"/>
<path d="M14 108.742C14.0004 108.54 14.0405 108.34 14.1181 108.154C14.1957 107.967 14.3093 107.798 14.4523 107.655C14.5953 107.513 14.765 107.4 14.9517 107.323C15.1384 107.246 15.3384 107.207 15.5403 107.207H18.5853C18.7872 107.207 18.9872 107.246 19.1739 107.323C19.3606 107.4 19.5303 107.513 19.6733 107.655C19.8164 107.798 19.9299 107.967 20.0075 108.154C20.0851 108.34 20.1253 108.54 20.1256 108.742C20.1249 109.15 19.9623 109.541 19.6735 109.829C19.3847 110.118 18.9933 110.279 18.5853 110.279H15.5403C15.1323 110.279 14.7409 110.118 14.4521 109.829C14.1633 109.541 14.0007 109.15 14 108.742Z" fill="#455A64"/>
<path d="M14 108.742C14.0004 108.54 14.0405 108.34 14.1181 108.154C14.1957 107.967 14.3093 107.798 14.4523 107.655C14.5953 107.513 14.765 107.4 14.9517 107.323C15.1384 107.246 15.3384 107.207 15.5403 107.207H17.0642V110.285H15.5403C15.3378 110.285 15.1373 110.245 14.9502 110.167C14.7632 110.09 14.5933 109.976 14.4502 109.833C14.3071 109.69 14.1937 109.519 14.1165 109.332C14.0392 109.145 13.9996 108.944 14 108.742Z" fill="#3C8AFF"/>
<path d="M77.0558 105.375L76.9788 106.453C76.9788 106.47 76.9788 106.489 76.9788 106.508C76.9211 106.849 76.5332 107.133 75.9528 107.309C75.3348 107.481 74.6923 107.548 74.0522 107.507L73.7771 107.488C73.6836 107.488 73.5873 107.471 73.502 107.457C72.0332 107.268 70.9495 106.662 70.9935 106.033L71.0678 104.957C71.0237 105.587 72.1075 106.192 73.5763 106.382L73.8514 106.409C73.9449 106.409 74.0412 106.426 74.1264 106.429C74.7666 106.471 75.4094 106.404 76.0271 106.231C76.6075 106.057 76.9926 105.777 77.0531 105.433C77.0531 105.411 77.0531 105.397 77.0558 105.375Z" fill="#DBDBDB"/>
<path d="M72.0874 104.1C72.7036 103.928 73.3442 103.861 73.9826 103.902L73.5618 106.378C73.6525 106.378 73.7488 106.4 73.8368 106.405C73.9249 106.411 74.0239 106.422 74.1119 106.427L74.5327 103.952C76.0456 104.144 77.1486 104.777 77.0358 105.429C76.9808 105.773 76.5929 106.053 76.0126 106.232C75.3946 106.404 74.7521 106.471 74.1119 106.43C74.0184 106.43 73.9221 106.43 73.8368 106.408C73.7516 106.386 73.647 106.392 73.5618 106.381C72.0489 106.188 70.9459 105.555 71.0587 104.904C71.1165 104.56 71.5098 104.276 72.0874 104.1Z" fill="white"/>
<path d="M73.9833 103.902L74.2584 103.922L74.5335 103.952L74.1126 106.427C74.0191 106.427 73.9228 106.427 73.8376 106.405C73.7523 106.383 73.6478 106.389 73.5625 106.378L73.9833 103.902Z" fill="#DBDBDB"/>
<path d="M76.8879 107.359V108.438C76.8865 108.456 76.8865 108.474 76.8879 108.493C76.9181 108.836 77.2839 109.153 77.8451 109.373C78.4472 109.594 79.0823 109.712 79.7237 109.722H79.9988C80.0923 109.722 80.1886 109.722 80.2739 109.722C81.7537 109.651 82.8842 109.134 82.8897 108.501V107.423C82.8897 108.053 81.7537 108.57 80.2739 108.644H79.9988C79.9072 108.649 79.8153 108.649 79.7237 108.644C79.0825 108.634 78.4474 108.517 77.8451 108.297C77.2784 108.077 76.9181 107.764 76.8879 107.417C76.8863 107.398 76.8863 107.379 76.8879 107.359Z" fill="#DBDBDB"/>
<path d="M81.9438 106.486C81.3425 106.265 80.7083 106.147 80.0678 106.137L80.2906 108.64C80.1971 108.64 80.1008 108.64 80.0156 108.64H79.7405L79.5177 106.137C77.9939 106.208 76.8441 106.753 76.9046 107.408C76.9349 107.757 77.298 108.068 77.8618 108.29C78.464 108.511 79.0991 108.63 79.7405 108.64H80.0156C80.1091 108.64 80.2054 108.64 80.2906 108.64C81.8117 108.568 82.9642 108.024 82.9037 107.369C82.8735 107.02 82.5159 106.709 81.9438 106.486Z" fill="white"/>
<path d="M80.0657 106.137H79.7907C79.6972 106.137 79.6055 106.137 79.5156 106.137L79.7384 108.64H80.0135C80.107 108.64 80.2033 108.64 80.2885 108.64L80.0657 106.137Z" fill="#DBDBDB"/>
<path d="M68.8518 107.016C68.1946 107.388 67.4581 107.597 66.7036 107.626C66.0583 107.671 65.4113 107.572 64.8084 107.338C64.7424 107.31 64.6736 107.274 64.6076 107.241C64.5416 107.208 64.4811 107.17 64.4233 107.131C64.259 107.038 64.1183 106.909 64.0119 106.753C63.9056 106.597 63.8365 106.419 63.81 106.232L63.7109 105.25C63.7393 105.439 63.8113 105.619 63.9211 105.776C64.0308 105.932 64.1755 106.061 64.3436 106.152C64.3986 106.187 64.4591 106.223 64.5251 106.259C64.5892 106.295 64.6553 106.328 64.7232 106.356C65.326 106.59 65.9731 106.689 66.6183 106.645C67.3722 106.615 68.1084 106.408 68.7666 106.039C69.435 105.638 69.7485 105.129 69.699 104.664L69.798 105.646C69.8338 106.108 69.5202 106.617 68.8518 107.016Z" fill="#DBDBDB"/>
<path d="M64.7121 106.353L64.7671 106.925L68.761 104.529L68.6647 103.547L64.3242 106.149C64.3765 106.185 64.4397 106.22 64.5058 106.256C64.5718 106.292 64.635 106.322 64.7121 106.353Z" fill="#3C8AFF"/>
<path d="M68.6686 103.547C68.7374 103.577 68.8061 103.607 68.8721 103.643C68.9382 103.679 68.9959 103.712 69.0537 103.75L64.7105 106.353C64.6389 106.322 64.5757 106.292 64.5097 106.256C64.4436 106.22 64.3804 106.185 64.3281 106.149L68.6686 103.547Z" fill="#DBDBDB"/>
<path d="M69.0542 103.75L69.1532 104.729L64.8072 107.331L64.7109 106.352L69.0542 103.75Z" fill="#DBDBDB"/>
<path d="M66.7752 103.26C67.4204 103.217 68.0673 103.315 68.6703 103.549L64.3299 106.151C64.3821 106.187 64.4454 106.222 64.5114 106.258C64.5774 106.294 64.6407 106.324 64.7122 106.354L69.0554 103.752C70.0016 104.363 69.8806 105.356 68.7529 106.035C68.0957 106.405 67.3605 106.613 66.6074 106.643C65.9621 106.687 65.3152 106.588 64.7122 106.354C64.6407 106.324 64.5774 106.294 64.5114 106.258C64.4454 106.222 64.3821 106.187 64.3299 106.151C63.3837 105.537 63.5047 104.547 64.6324 103.868C65.2887 103.499 66.023 103.291 66.7752 103.26Z" fill="white"/>
<path d="M84.7288 106.223C85.3852 106.594 86.1207 106.804 86.8743 106.834C87.5205 106.878 88.1685 106.779 88.7722 106.545C88.8382 106.517 88.907 106.481 88.973 106.448C89.039 106.415 89.0996 106.377 89.1546 106.338C89.3218 106.247 89.4657 106.119 89.575 105.963C89.6842 105.806 89.7559 105.627 89.7845 105.439L89.8835 104.457C89.8547 104.646 89.7826 104.826 89.6728 104.982C89.5631 105.139 89.4187 105.268 89.2508 105.359C89.1958 105.394 89.1353 105.43 89.0693 105.466C89.0052 105.502 88.9391 105.535 88.8712 105.563C88.2676 105.797 87.6195 105.896 86.9733 105.852C86.2202 105.823 85.4847 105.616 84.8278 105.246C84.1594 104.845 83.8459 104.336 83.8926 103.871L83.7936 104.853C83.7469 105.318 84.0604 105.824 84.7288 106.223Z" fill="#DBDBDB"/>
<path d="M88.8697 105.565L88.8119 106.137L84.8125 103.741L84.9115 102.762L89.252 105.361C89.1936 105.4 89.1329 105.436 89.0704 105.468C89.0044 105.504 88.9384 105.534 88.8697 105.565Z" fill="#3C8AFF"/>
<path d="M84.9113 102.762C84.8425 102.789 84.7737 102.822 84.7077 102.855C84.6417 102.888 84.584 102.924 84.5234 102.963L88.8694 105.565C88.9382 105.534 89.0042 105.504 89.0702 105.468C89.1327 105.436 89.1933 105.4 89.2517 105.361L84.9113 102.762Z" fill="#DBDBDB"/>
<path d="M84.5248 102.961L84.4258 103.94L88.7717 106.542L88.868 105.563L84.5248 102.961Z" fill="#DBDBDB"/>
<path d="M86.8041 102.472C86.1596 102.426 85.513 102.525 84.9116 102.761L89.2521 105.36C89.1937 105.399 89.1331 105.435 89.0706 105.467C89.0046 105.503 88.9385 105.533 88.8698 105.564L84.5238 102.962C83.5803 103.575 83.6986 104.565 84.8291 105.245C85.4862 105.614 86.2215 105.822 86.9746 105.852C87.62 105.899 88.2675 105.8 88.8698 105.564C88.9385 105.533 89.0046 105.503 89.0706 105.467C89.1331 105.435 89.1937 105.399 89.2521 105.36C90.1983 104.747 90.0773 103.756 88.9496 103.077C88.2927 102.708 87.5572 102.5 86.8041 102.472Z" fill="white"/>
<path d="M66.4337 102.544L66.42 103.686C66.4164 103.76 66.385 103.831 66.332 103.884C66.1339 104.109 65.6278 104.288 64.9704 104.39C64.3067 104.486 63.635 104.517 62.9652 104.481L62.6901 104.461L62.4151 104.434C61.1883 104.299 60.3879 103.963 60.3906 103.609L60.4071 102.473C60.4071 102.825 61.2076 103.16 62.4316 103.298C62.5169 103.312 62.6131 103.32 62.7066 103.325L62.9817 103.347C63.6514 103.386 64.3234 103.356 64.9869 103.257C65.6416 103.152 66.1504 102.982 66.3622 102.748C66.4114 102.692 66.4371 102.619 66.4337 102.544Z" fill="#DBDBDB"/>
<path d="M62.7095 103.324L62.693 104.463L62.418 104.436L62.4317 103.297L62.7095 103.324Z" fill="#DBDBDB"/>
<path d="M63.8678 101.672L64.1429 101.691C64.2364 101.691 64.3281 101.699 64.4179 101.716L62.9876 103.339L62.7126 103.322L62.4375 103.295L63.8678 101.672Z" fill="#DBDBDB"/>
<path d="M64.4156 101.719L64.3991 102.858L62.9688 104.483L62.9853 103.342L64.4156 101.719Z" fill="#DBDBDB"/>
<path d="M61.8676 101.761C62.5293 101.663 63.1995 101.634 63.8673 101.673L62.4342 103.296L62.7093 103.324L62.9843 103.34L64.4147 101.717C65.8642 101.877 66.7224 102.322 66.3401 102.746C66.142 102.972 65.6359 103.148 64.9648 103.252C64.303 103.35 63.6329 103.38 62.9651 103.34L62.69 103.324L62.415 103.296C60.9626 103.137 60.1072 102.694 60.4895 102.267C60.7013 102.042 61.2074 101.866 61.8676 101.761Z" fill="white"/>
<path d="M73.8672 102.632L73.8837 103.77C73.8842 103.808 73.8922 103.844 73.9074 103.879C73.9225 103.913 73.9444 103.943 73.9717 103.968C74.1698 104.194 74.6759 104.373 75.3333 104.477C75.9961 104.574 76.6669 104.604 77.3357 104.568L77.6108 104.546C77.6988 104.546 77.7923 104.532 77.8858 104.519C79.1126 104.384 79.913 104.048 79.9075 103.693V102.555C79.9075 102.91 79.1071 103.245 77.8831 103.38L77.608 103.407L77.333 103.427C76.6642 103.468 75.9928 103.438 75.3305 103.336C74.6731 103.234 74.167 103.061 73.969 102.83C73.9391 102.806 73.9147 102.776 73.8971 102.741C73.8796 102.707 73.8694 102.67 73.8672 102.632Z" fill="#DBDBDB"/>
<path d="M77.5977 103.408L77.6114 104.546C77.7022 104.546 77.7957 104.53 77.8865 104.522L77.87 103.383L77.5977 103.408Z" fill="#DBDBDB"/>
<path d="M76.4368 101.758L76.1618 101.777L75.8867 101.802L77.317 103.427L77.5921 103.408L77.8672 103.383L76.4368 101.758Z" fill="#DBDBDB"/>
<path d="M75.8906 101.801L75.9044 102.942L77.3374 104.565L77.3209 103.426L75.8906 101.801Z" fill="#DBDBDB"/>
<path d="M78.4347 101.846C77.7737 101.75 77.1046 101.72 76.4377 101.758L77.8681 103.384L77.593 103.409L77.3179 103.428L75.8876 101.802C74.4353 101.965 73.5798 102.408 73.9622 102.831C74.1602 103.057 74.6663 103.235 75.3237 103.337C75.9863 103.436 76.6574 103.467 77.3262 103.428L77.6012 103.409L77.8763 103.384C79.3314 103.224 80.1868 102.779 79.8017 102.355C79.6037 102.13 79.0948 101.951 78.4347 101.846Z" fill="white"/>
<path d="M66.9336 108.251L66.9474 109.393C66.9479 109.43 66.9559 109.467 66.971 109.501C66.9862 109.535 67.0081 109.565 67.0354 109.591C67.2334 109.816 67.7395 109.992 68.3969 110.097C69.0598 110.193 69.7305 110.224 70.3994 110.188L70.6744 110.168L70.9495 110.141C72.1763 110.006 72.9767 109.668 72.974 109.316L72.9574 108.18C72.9574 108.532 72.157 108.867 70.933 109.005L70.6579 109.032L70.3829 109.052C69.7131 109.093 69.0409 109.063 68.3777 108.961C67.7203 108.859 67.2142 108.686 67.0161 108.455C66.9629 108.4 66.9332 108.327 66.9336 108.251Z" fill="#DBDBDB"/>
<path d="M70.6641 109.036L70.6806 110.178L70.9556 110.15L70.9391 109.012L70.6641 109.036Z" fill="#DBDBDB"/>
<path d="M69.4993 107.387L69.2243 107.406L68.9492 107.433L70.3795 109.056L70.6546 109.037L70.9297 109.012L69.4993 107.387Z" fill="#DBDBDB"/>
<path d="M68.9531 107.422L68.9669 108.561L70.3999 110.183L70.3834 109.045L68.9531 107.422Z" fill="#DBDBDB"/>
<path d="M71.5115 107.466C70.8498 107.367 70.1797 107.337 69.5118 107.376L70.9421 109.001L70.667 109.026L70.392 109.045L68.9617 107.422C67.5121 107.582 66.6539 108.025 67.0362 108.451C67.2343 108.674 67.7404 108.853 68.3978 108.957C69.0606 109.054 69.7315 109.083 70.4002 109.045L70.6753 109.026L70.9503 109.001C72.4054 108.842 73.2609 108.396 72.8758 107.973C72.6667 107.747 72.1579 107.571 71.5115 107.466Z" fill="white"/>
<path d="M95.7914 83.3984H105.322C105.941 83.3984 106.534 83.6442 106.972 84.0816C107.409 84.519 107.655 85.1123 107.655 85.731V106.707C107.655 106.938 107.563 107.16 107.399 107.324C107.236 107.487 107.014 107.579 106.783 107.579H94.3446C94.1134 107.579 93.8916 107.487 93.7281 107.324C93.5645 107.16 93.4727 106.938 93.4727 106.707V85.7282C93.4734 85.1124 93.7176 84.5219 94.1519 84.0855C94.5863 83.649 95.1757 83.4021 95.7914 83.3984Z" fill="#3C8AFF"/>
<path d="M104.668 80.3281H96.4492V84.0937H104.668V80.3281Z" fill="#3C8AFF"/>
<path d="M107.654 91.2734H93.4609V100.843H107.654V91.2734Z" fill="#EBEBEB"/>
<path d="M107.654 98.8906H93.4609V99.7571H107.654V98.8906Z" fill="#455A64"/>
<path d="M107.654 92.3672H93.4609V93.2336H107.654V92.3672Z" fill="#455A64"/>
<path d="M105.238 77.6953H95.875V81.1831H105.238V77.6953Z" fill="#455A64"/>
<path d="M105.728 81.1797H95.3828V82.2112H105.728V81.1797Z" fill="#37474F"/>
<path d="M96.6227 78.1836H96.5017C96.4166 78.1836 96.3477 78.2526 96.3477 78.3376V80.5436C96.3477 80.6287 96.4166 80.6977 96.5017 80.6977H96.6227C96.7078 80.6977 96.7768 80.6287 96.7768 80.5436V78.3376C96.7768 78.2526 96.7078 78.1836 96.6227 78.1836Z" fill="#37474F"/>
<path d="M97.4235 78.1836H97.3025C97.2174 78.1836 97.1484 78.2526 97.1484 78.3376V80.5436C97.1484 80.6287 97.2174 80.6977 97.3025 80.6977H97.4235C97.5086 80.6977 97.5775 80.6287 97.5775 80.5436V78.3376C97.5775 78.2526 97.5086 78.1836 97.4235 78.1836Z" fill="#37474F"/>
<path d="M98.0982 78.1836H98.222C98.2621 78.1836 98.3006 78.1996 98.329 78.2279C98.3573 78.2563 98.3733 78.2948 98.3733 78.3349V80.5354C98.3733 80.5763 98.357 80.6154 98.3281 80.6443C98.2993 80.6732 98.2601 80.6894 98.2192 80.6894H98.0954C98.0546 80.6894 98.0154 80.6732 97.9865 80.6443C97.9576 80.6154 97.9414 80.5763 97.9414 80.5354V78.3349C97.9418 78.3147 97.9461 78.2947 97.9542 78.2762C97.9623 78.2576 97.9739 78.2408 97.9885 78.2268C98.003 78.2127 98.0202 78.2017 98.039 78.1943C98.0579 78.1869 98.078 78.1833 98.0982 78.1836Z" fill="#37474F"/>
<path d="M99.0212 78.1836H98.9001C98.8151 78.1836 98.7461 78.2526 98.7461 78.3376V80.5436C98.7461 80.6287 98.8151 80.6977 98.9001 80.6977H99.0212C99.1062 80.6977 99.1752 80.6287 99.1752 80.5436V78.3376C99.1752 78.2526 99.1062 78.1836 99.0212 78.1836Z" fill="#37474F"/>
<path d="M99.8219 78.1836H99.7009C99.6158 78.1836 99.5469 78.2526 99.5469 78.3376V80.5436C99.5469 80.6287 99.6158 80.6977 99.7009 80.6977H99.8219C99.907 80.6977 99.976 80.6287 99.976 80.5436V78.3376C99.976 78.2526 99.907 78.1836 99.8219 78.1836Z" fill="#37474F"/>
<path d="M100.495 78.1836H100.619C100.66 78.1836 100.699 78.1998 100.728 78.2287C100.757 78.2576 100.773 78.2968 100.773 78.3376V80.5381C100.773 80.579 100.757 80.6182 100.728 80.647C100.699 80.6759 100.66 80.6922 100.619 80.6922H100.495C100.455 80.6922 100.416 80.6762 100.388 80.6478C100.36 80.6195 100.344 80.581 100.344 80.5409V78.3404C100.343 78.3202 100.347 78.3001 100.354 78.2812C100.362 78.2624 100.373 78.2452 100.387 78.2307C100.401 78.2161 100.418 78.2044 100.436 78.1964C100.455 78.1883 100.475 78.184 100.495 78.1836Z" fill="#37474F"/>
<path d="M101.416 78.1836H101.295C101.21 78.1836 101.141 78.2526 101.141 78.3376V80.5436C101.141 80.6287 101.21 80.6977 101.295 80.6977H101.416C101.501 80.6977 101.57 80.6287 101.57 80.5436V78.3376C101.57 78.2526 101.501 78.1836 101.416 78.1836Z" fill="#37474F"/>
<path d="M102.216 78.1836H102.095C102.01 78.1836 101.941 78.2526 101.941 78.3376V80.5436C101.941 80.6287 102.01 80.6977 102.095 80.6977H102.216C102.302 80.6977 102.371 80.6287 102.371 80.5436V78.3376C102.371 78.2526 102.302 78.1836 102.216 78.1836Z" fill="#37474F"/>
<path d="M102.893 78.1836H103.017C103.058 78.1836 103.097 78.1998 103.126 78.2287C103.155 78.2576 103.171 78.2968 103.171 78.3376V80.5381C103.171 80.579 103.155 80.6182 103.126 80.647C103.097 80.6759 103.058 80.6922 103.017 80.6922H102.893C102.853 80.6922 102.815 80.6762 102.787 80.6478C102.758 80.6195 102.742 80.581 102.742 80.5409V78.3404C102.742 78.3202 102.745 78.3001 102.753 78.2812C102.76 78.2624 102.771 78.2452 102.785 78.2307C102.799 78.2161 102.816 78.2044 102.835 78.1964C102.853 78.1883 102.873 78.184 102.893 78.1836Z" fill="#37474F"/>
<path d="M103.81 78.1836H103.689C103.604 78.1836 103.535 78.2526 103.535 78.3376V80.5436C103.535 80.6287 103.604 80.6977 103.689 80.6977H103.81C103.895 80.6977 103.964 80.6287 103.964 80.5436V78.3376C103.964 78.2526 103.895 78.1836 103.81 78.1836Z" fill="#37474F"/>
<path d="M104.611 78.1836H104.49C104.405 78.1836 104.336 78.2526 104.336 78.3376V80.5436C104.336 80.6287 104.405 80.6977 104.49 80.6977H104.611C104.696 80.6977 104.765 80.6287 104.765 80.5436V78.3376C104.765 78.2526 104.696 78.1836 104.611 78.1836Z" fill="#37474F"/>
<path d="M36.6785 113.341L36.7578 105.367L35.7044 105.357L35.625 113.33L36.6785 113.341Z" fill="#3C8AFF"/>
<path opacity="0.1" d="M36.6785 113.341L36.7578 105.367L35.7044 105.357L35.625 113.33L36.6785 113.341Z" fill="black"/>
<path d="M29.5413 111.859L29.5898 106.977L28.5364 106.966L28.4878 111.848L29.5413 111.859Z" fill="#3C8AFF"/>
<path opacity="0.1" d="M29.5413 111.859L29.5898 106.977L28.5364 106.966L28.4878 111.848L29.5413 111.859Z" fill="black"/>
<path d="M35.6578 110.771L35.6836 108.18L29.5775 108.119L29.5518 110.71L35.6578 110.771Z" fill="#3C8AFF"/>
<path opacity="0.2" d="M34.668 110.76L35.0283 108.172L35.6802 108.18L35.6527 110.768L34.668 110.76Z" fill="black"/>
<path d="M59.1094 109.587C60.1684 109.562 61.2274 109.556 62.2891 109.551H65.466L68.643 109.603L70.2301 109.644C70.761 109.664 71.2891 109.677 71.82 109.705C71.2891 109.719 70.761 109.721 70.2301 109.732H68.6403H65.4633L62.2863 109.68C61.2273 109.65 60.1684 109.622 59.1094 109.587Z" fill="#263238"/>
<path d="M58.3534 112.426L58.4102 106.719L36.7501 106.503L36.6934 112.211L58.3534 112.426Z" fill="#3C8AFF"/>
<path opacity="0.6" d="M58.3534 112.426L58.4102 106.719L36.7501 106.503L36.6934 112.211L58.3534 112.426Z" fill="white"/>
<path d="M58.3605 111.674L58.4023 107.469L37.7683 107.263L37.7264 111.469L58.3605 111.674Z" fill="#3C8AFF"/>
<path d="M56.1613 107.976L56.1719 106.914L56.0454 106.913L56.0348 107.974L56.1613 107.976Z" fill="#263238"/>
<path d="M55.7355 107.98L55.7461 106.918L55.6196 106.917L55.609 107.978L55.7355 107.98Z" fill="#263238"/>
<path d="M55.3098 107.972L55.3203 106.91L55.1938 106.909L55.1832 107.971L55.3098 107.972Z" fill="#263238"/>
<path d="M54.8879 107.968L54.8984 106.906L54.7719 106.905L54.7613 107.967L54.8879 107.968Z" fill="#263238"/>
<path d="M54.4504 108.739L54.4688 106.898L54.3422 106.897L54.3239 108.737L54.4504 108.739Z" fill="#263238"/>
<path d="M54.0558 107.96L54.0664 106.898L53.9399 106.897L53.9293 107.959L54.0558 107.96Z" fill="#263238"/>
<path d="M53.6262 107.956L53.6367 106.895L53.5102 106.893L53.4996 107.955L53.6262 107.956Z" fill="#263238"/>
<path d="M53.2004 107.948L53.2109 106.887L53.0844 106.885L53.0739 107.947L53.2004 107.948Z" fill="#263238"/>
<path d="M52.7706 107.941L52.7812 106.879L52.6547 106.878L52.6441 107.939L52.7706 107.941Z" fill="#263238"/>
<path d="M52.3411 108.719L52.3594 106.879L52.2329 106.878L52.2145 108.718L52.3411 108.719Z" fill="#263238"/>
<path d="M51.9465 107.941L51.957 106.879L51.8305 106.878L51.8199 107.939L51.9465 107.941Z" fill="#263238"/>
<path d="M51.5168 107.929L51.5273 106.867L51.4008 106.866L51.3903 107.928L51.5168 107.929Z" fill="#263238"/>
<path d="M51.091 107.925L51.1016 106.863L50.975 106.862L50.9645 107.924L51.091 107.925Z" fill="#263238"/>
<path d="M50.6652 107.929L50.6758 106.867L50.5493 106.866L50.5387 107.928L50.6652 107.929Z" fill="#263238"/>
<path d="M50.2317 108.699L50.25 106.859L50.1235 106.858L50.1052 108.698L50.2317 108.699Z" fill="#263238"/>
<path d="M49.8371 107.917L49.8477 106.855L49.7211 106.854L49.7106 107.916L49.8371 107.917Z" fill="#263238"/>
<path d="M49.4074 107.909L49.418 106.848L49.2914 106.846L49.2809 107.908L49.4074 107.909Z" fill="#263238"/>
<path d="M48.9855 107.909L48.9961 106.848L48.8696 106.846L48.859 107.908L48.9855 107.909Z" fill="#263238"/>
<path d="M48.5558 107.898L48.5664 106.836L48.4399 106.835L48.4293 107.896L48.5558 107.898Z" fill="#263238"/>
<path d="M48.1262 108.676L48.1445 106.836L48.018 106.835L47.9997 108.675L48.1262 108.676Z" fill="#263238"/>
<path d="M47.7277 107.898L47.7383 106.836L47.6118 106.835L47.6012 107.896L47.7277 107.898Z" fill="#263238"/>
<path d="M47.298 107.89L47.3086 106.828L47.1821 106.827L47.1715 107.889L47.298 107.89Z" fill="#263238"/>
<path d="M46.8762 107.89L46.8867 106.828L46.7602 106.827L46.7496 107.889L46.8762 107.89Z" fill="#263238"/>
<path d="M46.4465 107.878L46.457 106.816L46.3305 106.815L46.3199 107.877L46.4465 107.878Z" fill="#263238"/>
<path d="M46.0168 108.656L46.0352 106.816L45.9086 106.815L45.8903 108.655L46.0168 108.656Z" fill="#263238"/>
<path d="M45.6144 107.874L45.625 106.812L45.4985 106.811L45.4879 107.873L45.6144 107.874Z" fill="#263238"/>
<path d="M45.1926 107.874L45.2031 106.812L45.0766 106.811L45.066 107.873L45.1926 107.874Z" fill="#263238"/>
<path d="M44.7707 107.866L44.7812 106.805L44.6547 106.803L44.6442 107.865L44.7707 107.866Z" fill="#263238"/>
<path d="M44.3371 107.859L44.3477 106.797L44.2211 106.796L44.2106 107.857L44.3371 107.859Z" fill="#263238"/>
<path d="M43.9075 108.637L43.9258 106.797L43.7993 106.796L43.781 108.636L43.9075 108.637Z" fill="#263238"/>
<path d="M43.5051 107.851L43.5156 106.789L43.3891 106.788L43.3785 107.849L43.5051 107.851Z" fill="#263238"/>
<path d="M43.0832 107.847L43.0938 106.785L42.9672 106.784L42.9567 107.846L43.0832 107.847Z" fill="#263238"/>
<path d="M42.6535 107.843L42.6641 106.781L42.5375 106.78L42.527 107.842L42.6535 107.843Z" fill="#263238"/>
<path d="M42.2316 107.839L42.2422 106.777L42.1157 106.776L42.1051 107.838L42.2316 107.839Z" fill="#263238"/>
<path d="M41.7981 108.614L41.8164 106.773L41.6899 106.772L41.6716 108.612L41.7981 108.614Z" fill="#263238"/>
<path d="M41.3996 107.831L41.4102 106.77L41.2836 106.768L41.2731 107.83L41.3996 107.831Z" fill="#263238"/>
<path d="M40.9699 107.827L40.9805 106.766L40.8539 106.764L40.8434 107.826L40.9699 107.827Z" fill="#263238"/>
<path d="M40.5402 107.819L40.5508 106.758L40.4243 106.757L40.4137 107.818L40.5402 107.819Z" fill="#263238"/>
<path d="M40.1223 107.823L40.1328 106.762L40.0063 106.76L39.9957 107.822L40.1223 107.823Z" fill="#263238"/>
<path d="M39.6848 108.594L39.7031 106.754L39.5766 106.753L39.5583 108.593L39.6848 108.594Z" fill="#263238"/>
<path d="M39.2863 107.812L39.2969 106.75L39.1703 106.749L39.1598 107.81L39.2863 107.812Z" fill="#263238"/>
<path d="M38.8644 107.812L38.875 106.75L38.7485 106.749L38.7379 107.81L38.8644 107.812Z" fill="#263238"/>
<path d="M38.4387 107.8L38.4492 106.738L38.3227 106.737L38.3121 107.799L38.4387 107.8Z" fill="#263238"/>
<path d="M38.009 107.8L38.0195 106.738L37.893 106.737L37.8824 107.799L38.009 107.8Z" fill="#263238"/>
<path d="M37.5754 108.574L37.5938 106.734L37.4672 106.733L37.4489 108.573L37.5754 108.574Z" fill="#263238"/>
<path d="M58.3534 112.422L58.4102 106.715L56.7764 106.699L56.7196 112.406L58.3534 112.422Z" fill="#263238"/>
<path d="M60.2351 111.52L60.2734 107.664L58.4031 107.645L58.3648 111.502L60.2351 111.52Z" fill="#3C8AFF"/>
<path d="M62.4867 110.104L62.4949 109.111L60.2559 108.91L60.2422 110.261L62.4867 110.104Z" fill="#3C8AFF"/>
<path opacity="0.1" d="M60.2422 110.262L60.2559 108.914L60.8913 108.969L60.7813 110.223L60.2422 110.262Z" fill="black"/>
</svg>
