<svg width="250" height="228" viewBox="0 0 250 228" fill="none" xmlns="http://www.w3.org/2000/svg">
<rect width="250" height="228" fill="#1E1E1E"/>
<g clip-path="url(#clip0_0_1)">
<rect width="375" height="812" transform="translate(-66 -333)" fill="white"/>
<path fill-rule="evenodd" clip-rule="evenodd" d="M181.101 225.25C151.13 235.77 123.945 208.102 93.7598 198.618C67.4972 190.366 35.4446 195.429 18.2113 174.071C-0.333512 151.088 -4.20839 117.569 5.84522 89.6629C15.2163 63.6515 43.9402 53.426 67.1451 38.2453C91.6937 22.1856 113.471 -0.859021 142.724 0.116332C177.268 1.26808 212.64 15.3841 232.081 43.7446C252.253 73.1711 252.597 111.784 242.911 146.268C233.538 179.642 213.914 213.734 181.101 225.25Z" fill="#E2EDFF"/>
<path d="M23.8723 46.2959C25.2386 39.5718 31.2306 34.8301 38.092 34.8301H202.139C208.393 34.8301 214.023 38.7519 215.683 44.7806C225.873 81.7839 225.088 129.9 215.962 158.206C214.205 163.657 208.915 166.953 203.188 166.953H38.7103C31.5699 166.953 25.4376 161.826 24.2367 154.788C17.3542 114.45 15.3653 88.1601 23.8723 46.2959Z" fill="#494949"/>
<path d="M215.331 43.4341C212.136 36.0598 203.348 34.6259 199.354 34.8308C223.013 66.4788 209.186 152.512 201.197 167.261C216.56 166.032 215.331 159.579 219.018 143.909C222.705 128.239 223.32 99.0487 223.013 92.2889C222.705 85.5291 219.326 52.652 215.331 43.4341Z" fill="#535353"/>
<path d="M26.1259 43.4341C29.3214 36.0598 38.1091 34.6259 42.1035 34.8308C18.4443 66.4788 32.2711 152.512 40.2599 167.261C24.8968 166.032 26.1259 159.579 22.4387 143.909C18.7516 128.239 18.137 99.0487 18.4443 92.2889C18.7516 85.5291 22.1314 52.652 26.1259 43.4341Z" fill="#535353"/>
<rect x="11" y="71.6836" width="220" height="72.514" rx="7.3743" fill="#3A3A3A"/>
<path d="M26.0547 97.5115L215.636 95.668L214.324 100.26C213.645 102.634 211.475 104.271 209.006 104.271H31.8003C29.6594 104.271 27.7647 102.886 27.1156 100.846L26.0547 97.5115Z" fill="#2B2B2B"/>
<path d="M25.748 76.6174C25.748 73.9022 27.9491 71.7012 30.6642 71.7012H211.335C213.71 71.7012 215.636 73.6271 215.636 76.0028V95.0531C215.636 98.1077 213.16 100.584 210.106 100.584H30.6643C27.9491 100.584 25.748 98.3828 25.748 95.6677V76.6174Z" fill="#636161"/>
<path d="M24.5195 45.7912C24.5195 39.7375 29.427 34.8301 35.4806 34.8301H207.217C211.867 34.8301 215.637 38.6 215.637 43.2504C215.637 54.212 206.751 63.0982 195.789 63.0982H41.8266C32.2682 63.0982 24.5195 55.3496 24.5195 45.7912Z" fill="#616060"/>
<path d="M30.358 43.4601C30.358 43.2769 30.364 43.0952 30.3756 42.915L30.069 42.8952C30.0936 42.5148 30.1428 42.1412 30.215 41.7759L30.5165 41.8355C30.5876 41.4761 30.6818 41.125 30.7976 40.7838L30.5066 40.6851C30.6284 40.3263 30.7731 39.9782 30.939 39.6423L31.2145 39.7784C31.376 39.4517 31.5583 39.137 31.7597 38.8361L31.5044 38.6651C31.7143 38.3516 31.9442 38.0526 32.1923 37.7699L32.4232 37.9726C32.6629 37.6995 32.9202 37.4422 33.1933 37.2025L32.9906 36.9716C33.2733 36.7235 33.5723 36.4936 33.8858 36.2837L34.0568 36.539C34.3577 36.3376 34.6724 36.1553 34.9991 35.9938L34.863 35.7183C35.1989 35.5524 35.547 35.4077 35.9058 35.2859L36.0045 35.5769C36.3457 35.4611 36.6968 35.3669 37.0562 35.2958L36.9966 34.9943C37.3619 34.9221 37.7355 34.8729 38.1159 34.8483L38.1357 35.1549C38.3159 35.1433 38.4976 35.1373 38.6808 35.1373H39.293V34.8301H40.5172V35.1373H41.7415V34.8301H42.9658V35.1373H44.19V34.8301H45.4143V35.1373H46.6386V34.8301H47.8628V35.1373H49.0871V34.8301H50.3114V35.1373H51.5356V34.8301H52.7599V35.1373H53.9842V34.8301H55.2084V35.1373H56.4327V34.8301H57.657V35.1373H58.8812V34.8301H60.1055V35.1373H61.3297V34.8301H62.554V35.1373H63.7783V34.8301H65.0025V35.1373H66.2268V34.8301H67.4511V35.1373H68.6753V34.8301H69.8996V35.1373H71.1239V34.8301H72.3481V35.1373H73.5724V34.8301H74.7967V35.1373H76.0209V34.8301H77.2452V35.1373H78.4695V34.8301H79.6937V35.1373H80.918V34.8301H82.1423V35.1373H83.3665V34.8301H84.5908V35.1373H85.8151V34.8301H87.0393V35.1373H88.2636V34.8301H89.4879V35.1373H90.7121V34.8301H91.9364V35.1373H93.1606V34.8301H94.3849V35.1373H95.6092V34.8301H96.8334V35.1373H98.0577V34.8301H99.282V35.1373H100.506V34.8301H101.731V35.1373H102.955V34.8301H104.179V35.1373H105.403V34.8301H106.628V35.1373H107.852V34.8301H109.076V35.1373H110.3V34.8301H111.525V35.1373H112.749V34.8301H113.973V35.1373H115.197V34.8301H116.422V35.1373H117.646V34.8301H118.87V35.1373H120.094V34.8301H121.319V35.1373H122.543V34.8301H123.767V35.1373H124.992V34.8301H126.216V35.1373H127.44V34.8301H128.664V35.1373H129.889V34.8301H131.113V35.1373H132.337V34.8301H133.561V35.1373H134.786V34.8301H136.01V35.1373H137.234V34.8301H138.458V35.1373H139.683V34.8301H140.907V35.1373H142.131V34.8301H143.356V35.1373H144.58V34.8301H145.804V35.1373H147.028V34.8301H148.253V35.1373H149.477V34.8301H150.701V35.1373H151.925V34.8301H153.15V35.1373H154.374V34.8301H155.598V35.1373H156.822V34.8301H158.047V35.1373H159.271V34.8301H160.495V35.1373H161.72V34.8301H162.944V35.1373H164.168V34.8301H165.392V35.1373H166.617V34.8301H167.841V35.1373H169.065V34.8301H170.289V35.1373H171.514V34.8301H172.738V35.1373H173.962V34.8301H175.186V35.1373H176.411V34.8301H177.635V35.1373H178.859V34.8301H180.083V35.1373H181.308V34.8301H182.532V35.1373H183.756V34.8301H184.98V35.1373H186.205V34.8301H187.429V35.1373H188.653V34.8301H189.878V35.1373H191.102V34.8301H192.326V35.1373H193.55V34.8301H194.775V35.1373H195.999V34.8301H197.223V35.1373H198.447V34.8301H199.672V35.1373H200.896V34.8301H202.12V35.1373H202.732C202.937 35.1373 203.138 35.1506 203.335 35.1763L203.374 34.8716C203.808 34.9282 204.224 35.0412 204.614 35.2031L204.497 35.4869C204.871 35.6423 205.221 35.8456 205.538 36.0894L205.725 35.8458C206.066 36.1075 206.371 36.4128 206.633 36.7534L206.389 36.9406C206.633 37.2578 206.836 37.6076 206.992 37.9821L207.275 37.8644C207.437 38.2548 207.55 38.6706 207.607 39.1042L207.302 39.1439C207.328 39.3409 207.341 39.542 207.341 39.7463V40.3096H207.649V41.4362H207.341V42.5628H207.649V43.6895H207.341V44.8161H207.649V45.9427H207.341V46.506C207.341 46.7202 207.335 46.9329 207.324 47.1441L207.63 47.1611C207.606 47.602 207.557 48.0363 207.485 48.4628L207.182 48.4117C207.111 48.8345 207.016 49.2493 206.9 49.6548L207.195 49.7397C207.074 50.1619 206.929 50.5743 206.763 50.9755L206.479 50.8578C206.315 51.2522 206.13 51.6354 205.925 52.006L206.194 52.1549C205.981 52.538 205.748 52.9079 205.496 53.2631L205.245 53.085C204.999 53.4321 204.733 53.7648 204.45 54.0815L204.679 54.2863C204.388 54.6119 204.078 54.9211 203.753 55.2123L203.548 54.9832C203.231 55.2665 202.899 55.5322 202.552 55.7789L202.73 56.0293C202.374 56.2818 202.005 56.5149 201.621 56.7271L201.473 56.4583C201.102 56.6635 200.719 56.8487 200.324 57.0122L200.442 57.2961C200.041 57.4624 199.628 57.607 199.206 57.7285L199.121 57.4332C198.716 57.5498 198.301 57.6445 197.878 57.7158L197.929 58.0188C197.503 58.0907 197.068 58.1396 196.628 58.164L196.611 57.8572C196.399 57.8689 196.187 57.8748 195.973 57.8748H195.363V58.182H194.144V57.8748H192.924V58.182H191.705V57.8748H190.485V58.182H189.266V57.8748H188.047V58.182H186.827V57.8748H185.608V58.182H184.389V57.8748H183.169V58.182H181.95V57.8748H180.731V58.182H179.511V57.8748H178.292V58.182H177.073V57.8748H175.853V58.182H174.634V57.8748H173.415V58.182H172.195V57.8748H170.976V58.182H169.756V57.8748H168.537V58.182H167.318V57.8748H166.098V58.182H164.879V57.8748H163.66V58.182H162.44V57.8748H161.221V58.182H160.002V57.8748H158.782V58.182H157.563V57.8748H156.344V58.182H155.124V57.8748H153.905V58.182H152.686V57.8748H151.466V58.182H150.247V57.8748H149.027V58.182H147.808V57.8748H146.589V58.182H145.369V57.8748H144.15V58.182H142.931V57.8748H141.711V58.182H140.492V57.8748H139.273V58.182H138.053V57.8748H136.834V58.182H135.615V57.8748H134.395V58.182H133.176V57.8748H131.957V58.182H130.737V57.8748H129.518V58.182H128.298V57.8748H127.079V58.182H125.86V57.8748H124.64V58.182H123.421V57.8748H122.202V58.182H120.982V57.8748H119.763V58.182H118.544V57.8748H117.324V58.182H116.105V57.8748H114.886V58.182H113.666V57.8748H112.447V58.182H111.228V57.8748H110.008V58.182H108.789V57.8748H107.569V58.182H106.35V57.8748H105.131V58.182H103.911V57.8748H102.692V58.182H101.473V57.8748H100.253V58.182H99.034V57.8748H97.8146V58.182H96.5953V57.8748H95.3759V58.182H94.1566V57.8748H92.9372V58.182H91.7179V57.8748H90.4985V58.182H89.2792V57.8748H88.0598V58.182H86.8405V57.8748H85.6211V58.182H84.4017V57.8748H83.1824V58.182H81.963V57.8748H80.7437V58.182H79.5243V57.8748H78.305V58.182H77.0856V57.8748H75.8663V58.182H74.6469V57.8748H73.4276V58.182H72.2082V57.8748H70.9889V58.182H69.7695V57.8748H68.5502V58.182H67.3308V57.8748H66.1114V58.182H64.8921V57.8748H63.6727V58.182H62.4534V57.8748H61.234V58.182H60.0146V57.8748H58.7953V58.182H57.5759V57.8748H56.3566V58.182H55.1372V57.8748H53.9178V58.182H52.6985V57.8748H51.4791V58.182H50.2598V57.8748H49.0404V58.182H47.821V57.8748H46.6017V58.182H45.3823V57.8748H44.7727C44.5617 57.8748 44.3518 57.8702 44.1431 57.8613L44.1299 58.1683C43.6981 58.1497 43.2712 58.1126 42.8499 58.0576L42.8896 57.7529C42.4708 57.6983 42.0577 57.6257 41.6511 57.5359L41.5849 57.836C41.1643 57.7431 40.7506 57.6323 40.3444 57.5044L40.4367 57.2113C40.0349 57.0847 39.6407 56.9411 39.255 56.7811L39.1373 57.0649C38.7403 56.9003 38.3521 56.7188 37.9735 56.5213L38.1156 56.2489C37.7429 56.0545 37.3797 55.8442 37.027 55.6191L36.8617 55.8781C36.5002 55.6473 36.1494 55.4011 35.8102 55.1405L35.9974 54.8969C35.6646 54.6411 35.3433 54.3711 35.0344 54.0879L34.8267 54.3144C34.511 54.0249 34.2079 53.7218 33.9184 53.4061L34.1449 53.1985C33.8617 52.8895 33.5917 52.5682 33.336 52.2354L33.0923 52.4226C32.8317 52.0835 32.5856 51.7327 32.3547 51.3711L32.6137 51.2058C32.3886 50.8531 32.1783 50.4899 31.9839 50.1173L31.7115 50.2594C31.514 49.8808 31.3325 49.4925 31.1679 49.0955L31.4517 48.9778C31.2918 48.5921 31.1481 48.1979 31.0215 47.7961L30.7284 47.8885C30.6005 47.4823 30.4897 47.0685 30.3968 46.6479L30.6969 46.5817C30.6071 46.1751 30.5345 45.762 30.4799 45.3432L30.1752 45.383C30.1203 44.9616 30.0831 44.5347 30.0646 44.103L30.3715 44.0898C30.3626 43.881 30.358 43.6711 30.358 43.4601Z" fill="#515050" stroke="#616161" stroke-width="0.614525" stroke-dasharray="1.23 1.23"/>
<path d="M224.855 71.6836C228.249 71.6836 231.001 74.4349 231.001 77.8288V138.052C231.001 141.446 228.249 144.198 224.855 144.198V71.6836Z" fill="#565656"/>
<path d="M17.1445 71.6836C13.7506 71.6836 10.9993 74.4349 10.9993 77.8288V138.052C10.9993 141.446 13.7506 144.198 17.1445 144.198V71.6836Z" fill="#565656"/>
<rect x="181.223" y="120.232" width="33.7989" height="9.8324" rx="4.9162" fill="#2D2D2D"/>
<rect x="33.7383" y="79.6719" width="32.5698" height="8.60335" rx="3.07263" fill="#919191"/>
<rect x="111.168" y="39.1133" width="33.7989" height="3.07263" rx="1.53631" fill="#7C7C7C"/>
<rect x="167.703" y="120.232" width="9.8324" height="9.8324" rx="4.9162" fill="#2D2D2D"/>
</g>
<defs>
<clipPath id="clip0_0_1">
<rect width="375" height="812" fill="white" transform="translate(-66 -333)"/>
</clipPath>
</defs>
</svg>
