<svg width="19" height="23" viewBox="0 0 19 23" fill="none" xmlns="http://www.w3.org/2000/svg">
<mask id="path-1-outside-1_2712_32354" maskUnits="userSpaceOnUse" x="0.304688" y="0" width="19" height="23" fill="black">
<rect fill="white" x="0.304688" width="19" height="23"/>
<path d="M6.4786 10.6923C5.49845 10.6923 4.55845 10.2668 3.86538 9.50947C3.17231 8.75211 2.78295 7.72491 2.78295 6.65385V3.42308C2.78295 3.20886 2.86082 3.00342 2.99943 2.85195C3.13805 2.70048 3.32605 2.61538 3.52208 2.61538H4.26121C4.45724 2.61538 4.64524 2.53029 4.78385 2.37882C4.92247 2.22735 5.00034 2.02191 5.00034 1.80769C5.00034 1.59348 4.92247 1.38804 4.78385 1.23657C4.64524 1.0851 4.45724 1 4.26121 1H3.52208C2.93399 1 2.36999 1.25529 1.95415 1.7097C1.5383 2.16412 1.30469 2.78044 1.30469 3.42308V6.65385C1.30564 7.56633 1.50926 8.46492 1.89806 9.27245C2.28686 10.08 2.84923 10.7723 3.53686 11.29C4.19752 11.9265 4.7333 12.7027 5.11186 13.5717C5.49043 14.4407 5.70392 15.3845 5.73947 16.3462C5.73947 17.8456 6.28458 19.2837 7.25487 20.344C8.22517 21.4043 9.54117 22 10.9134 22C12.2856 22 13.6016 21.4043 14.5719 20.344C15.5422 19.2837 16.0873 17.8456 16.0873 16.3462V15.4254C16.784 15.2288 17.3913 14.7613 17.7951 14.1105C18.199 13.4596 18.3718 12.6702 18.2811 11.8901C18.1904 11.11 17.8425 10.3929 17.3026 9.87305C16.7627 9.35323 16.0678 9.06644 15.3482 9.06644C14.6286 9.06644 13.9337 9.35323 13.3937 9.87305C12.8538 10.3929 12.5059 11.11 12.4152 11.8901C12.3245 12.6702 12.4973 13.4596 12.9012 14.1105C13.3051 14.7613 13.9123 15.2288 14.609 15.4254V16.3462C14.609 17.4172 14.2197 18.4444 13.5266 19.2018C12.8335 19.9591 11.8935 20.3846 10.9134 20.3846C9.93323 20.3846 8.99323 19.9591 8.30016 19.2018C7.60709 18.4444 7.21773 17.4172 7.21773 16.3462C7.25514 15.3833 7.47095 14.4387 7.85209 13.5697C8.23322 12.7006 8.77176 11.9251 9.43512 11.29C10.12 10.7705 10.6795 10.0774 11.0657 9.26998C11.4519 8.46256 11.6532 7.56489 11.6525 6.65385V3.42308C11.6525 2.78044 11.4189 2.16412 11.0031 1.7097C10.5872 1.25529 10.0232 1 9.43512 1H8.69599C8.49996 1 8.31196 1.0851 8.17335 1.23657C8.03473 1.38804 7.95686 1.59348 7.95686 1.80769C7.95686 2.02191 8.03473 2.22735 8.17335 2.37882C8.31196 2.53029 8.49996 2.61538 8.69599 2.61538H9.43512C9.63115 2.61538 9.81915 2.70048 9.95776 2.85195C10.0964 3.00342 10.1742 3.20886 10.1742 3.42308V6.65385C10.1742 7.18418 10.0787 7.70933 9.89293 8.1993C9.70721 8.68927 9.43499 9.13446 9.09182 9.50947C8.74865 9.88448 8.34124 10.1819 7.89286 10.3849C7.44449 10.5878 6.96392 10.6923 6.4786 10.6923ZM15.3482 13.9231C14.9561 13.9231 14.5801 13.7529 14.3029 13.4499C14.0256 13.147 13.8699 12.7361 13.8699 12.3077C13.8699 11.8793 14.0256 11.4684 14.3029 11.1654C14.5801 10.8625 14.9561 10.6923 15.3482 10.6923C15.7402 10.6923 16.1162 10.8625 16.3934 11.1654C16.6707 11.4684 16.8264 11.8793 16.8264 12.3077C16.8264 12.7361 16.6707 13.147 16.3934 13.4499C16.1162 13.7529 15.7402 13.9231 15.3482 13.9231Z"/>
</mask>
<path d="M6.4786 10.6923C5.49845 10.6923 4.55845 10.2668 3.86538 9.50947C3.17231 8.75211 2.78295 7.72491 2.78295 6.65385V3.42308C2.78295 3.20886 2.86082 3.00342 2.99943 2.85195C3.13805 2.70048 3.32605 2.61538 3.52208 2.61538H4.26121C4.45724 2.61538 4.64524 2.53029 4.78385 2.37882C4.92247 2.22735 5.00034 2.02191 5.00034 1.80769C5.00034 1.59348 4.92247 1.38804 4.78385 1.23657C4.64524 1.0851 4.45724 1 4.26121 1H3.52208C2.93399 1 2.36999 1.25529 1.95415 1.7097C1.5383 2.16412 1.30469 2.78044 1.30469 3.42308V6.65385C1.30564 7.56633 1.50926 8.46492 1.89806 9.27245C2.28686 10.08 2.84923 10.7723 3.53686 11.29C4.19752 11.9265 4.7333 12.7027 5.11186 13.5717C5.49043 14.4407 5.70392 15.3845 5.73947 16.3462C5.73947 17.8456 6.28458 19.2837 7.25487 20.344C8.22517 21.4043 9.54117 22 10.9134 22C12.2856 22 13.6016 21.4043 14.5719 20.344C15.5422 19.2837 16.0873 17.8456 16.0873 16.3462V15.4254C16.784 15.2288 17.3913 14.7613 17.7951 14.1105C18.199 13.4596 18.3718 12.6702 18.2811 11.8901C18.1904 11.11 17.8425 10.3929 17.3026 9.87305C16.7627 9.35323 16.0678 9.06644 15.3482 9.06644C14.6286 9.06644 13.9337 9.35323 13.3937 9.87305C12.8538 10.3929 12.5059 11.11 12.4152 11.8901C12.3245 12.6702 12.4973 13.4596 12.9012 14.1105C13.3051 14.7613 13.9123 15.2288 14.609 15.4254V16.3462C14.609 17.4172 14.2197 18.4444 13.5266 19.2018C12.8335 19.9591 11.8935 20.3846 10.9134 20.3846C9.93323 20.3846 8.99323 19.9591 8.30016 19.2018C7.60709 18.4444 7.21773 17.4172 7.21773 16.3462C7.25514 15.3833 7.47095 14.4387 7.85209 13.5697C8.23322 12.7006 8.77176 11.9251 9.43512 11.29C10.12 10.7705 10.6795 10.0774 11.0657 9.26998C11.4519 8.46256 11.6532 7.56489 11.6525 6.65385V3.42308C11.6525 2.78044 11.4189 2.16412 11.0031 1.7097C10.5872 1.25529 10.0232 1 9.43512 1H8.69599C8.49996 1 8.31196 1.0851 8.17335 1.23657C8.03473 1.38804 7.95686 1.59348 7.95686 1.80769C7.95686 2.02191 8.03473 2.22735 8.17335 2.37882C8.31196 2.53029 8.49996 2.61538 8.69599 2.61538H9.43512C9.63115 2.61538 9.81915 2.70048 9.95776 2.85195C10.0964 3.00342 10.1742 3.20886 10.1742 3.42308V6.65385C10.1742 7.18418 10.0787 7.70933 9.89293 8.1993C9.70721 8.68927 9.43499 9.13446 9.09182 9.50947C8.74865 9.88448 8.34124 10.1819 7.89286 10.3849C7.44449 10.5878 6.96392 10.6923 6.4786 10.6923ZM15.3482 13.9231C14.9561 13.9231 14.5801 13.7529 14.3029 13.4499C14.0256 13.147 13.8699 12.7361 13.8699 12.3077C13.8699 11.8793 14.0256 11.4684 14.3029 11.1654C14.5801 10.8625 14.9561 10.6923 15.3482 10.6923C15.7402 10.6923 16.1162 10.8625 16.3934 11.1654C16.6707 11.4684 16.8264 11.8793 16.8264 12.3077C16.8264 12.7361 16.6707 13.147 16.3934 13.4499C16.1162 13.7529 15.7402 13.9231 15.3482 13.9231Z" fill="white"/>
<path d="M3.52208 2.61538V3.11538V2.61538ZM4.26121 2.61538V3.11538V2.61538ZM4.26121 1V0.5V1ZM3.52208 1L3.52208 0.5L3.52208 1ZM1.30469 3.42308H0.804688H1.30469ZM1.30469 6.65385L0.804687 6.65385L0.804688 6.65437L1.30469 6.65385ZM3.53686 11.29L3.88376 10.9299L3.86187 10.9088L3.83759 10.8905L3.53686 11.29ZM5.73947 16.3462H6.23947V16.3369L6.23913 16.3277L5.73947 16.3462ZM10.9134 22V22.5V22ZM16.0873 15.4254L15.9515 14.9442L15.5873 15.0469V15.4254H16.0873ZM15.3482 9.06644V8.56644V9.06644ZM14.609 15.4254H15.109V15.0469L14.7448 14.9442L14.609 15.4254ZM7.21773 16.3462L6.71811 16.3267L6.71773 16.3364V16.3462H7.21773ZM9.43512 11.29L9.13296 10.8916L9.11009 10.909L9.08935 10.9288L9.43512 11.29ZM11.6525 6.65385H11.1525V6.65423L11.6525 6.65385ZM11.6525 3.42308H12.1525H11.6525ZM8.69599 1V0.5V1ZM8.69599 2.61538V3.11538V2.61538ZM15.3482 10.6923V11.1923V10.6923ZM6.4786 10.1923C5.64609 10.1923 4.83767 9.83132 4.23424 9.17192L3.49652 9.84702C4.27923 10.7023 5.35081 11.1923 6.4786 11.1923V10.1923ZM4.23424 9.17192C3.62946 8.51104 3.28295 7.60591 3.28295 6.65385H2.28295C2.28295 7.84391 2.71516 8.99319 3.49652 9.84702L4.23424 9.17192ZM3.28295 6.65385V3.42308H2.28295V6.65385H3.28295ZM3.28295 3.42308C3.28295 3.32786 3.31797 3.2445 3.3683 3.1895L2.63057 2.5144C2.40367 2.76235 2.28295 3.08986 2.28295 3.42308H3.28295ZM3.3683 3.1895C3.41727 3.13599 3.47369 3.11538 3.52208 3.11538L3.52208 2.11538C3.17841 2.11538 2.85883 2.26497 2.63057 2.5144L3.3683 3.1895ZM3.52208 3.11538H4.26121V2.11538H3.52208V3.11538ZM4.26121 3.11538C4.60488 3.11538 4.92446 2.9658 5.15271 2.71637L4.41499 2.04127C4.36602 2.09478 4.3096 2.11538 4.26121 2.11538V3.11538ZM5.15271 2.71637C5.37961 2.46842 5.50034 2.14091 5.50034 1.80769H4.50034C4.50034 1.90291 4.46532 1.98627 4.41499 2.04127L5.15271 2.71637ZM5.50034 1.80769C5.50034 1.47448 5.37961 1.14696 5.15271 0.899017L4.41499 1.57412C4.46532 1.62911 4.50034 1.71248 4.50034 1.80769H5.50034ZM5.15271 0.899017C4.92446 0.649585 4.60488 0.5 4.26121 0.5V1.5C4.3096 1.5 4.36602 1.52061 4.41499 1.57412L5.15271 0.899017ZM4.26121 0.5H3.52208V1.5H4.26121V0.5ZM3.52208 0.5C2.78635 0.5 2.09077 0.819777 1.58528 1.37215L2.32301 2.04725C2.64921 1.6908 3.08163 1.5 3.52208 1.5L3.52208 0.5ZM1.58528 1.37215C1.08116 1.92304 0.804688 2.66144 0.804688 3.42308H1.80469C1.80469 2.89944 1.99545 2.40519 2.32301 2.04725L1.58528 1.37215ZM0.804688 3.42308V6.65385H1.80469V3.42308H0.804688ZM0.804688 6.65437C0.805714 7.64037 1.02565 8.61306 1.44756 9.48935L2.34856 9.05555C1.99287 8.31677 1.80556 7.49228 1.80469 6.65333L0.804688 6.65437ZM1.44756 9.48935C1.86952 10.3658 2.48205 11.1217 3.23613 11.6895L3.83759 10.8905C3.21641 10.4229 2.70421 9.79421 2.34856 9.05555L1.44756 9.48935ZM3.18996 11.6501C3.80168 12.2394 4.30027 12.9606 4.65347 13.7714L5.57026 13.372C5.16633 12.4447 4.59335 11.6135 3.88376 10.9299L3.18996 11.6501ZM4.65347 13.7714C5.00669 14.5822 5.20654 15.4644 5.23981 16.3646L6.23913 16.3277C6.20131 15.3045 5.97417 14.2992 5.57026 13.372L4.65347 13.7714ZM5.23947 16.3462C5.23947 17.9646 5.82743 19.5248 6.88601 20.6816L7.62373 20.0065C6.74172 19.0427 6.23947 17.7266 6.23947 16.3462H5.23947ZM6.88601 20.6816C7.94595 21.8398 9.39353 22.5 10.9134 22.5V21.5C9.68882 21.5 8.50439 20.9688 7.62373 20.0065L6.88601 20.6816ZM10.9134 22.5C12.4332 22.5 13.8808 21.8398 14.9407 20.6816L14.203 20.0065C13.3224 20.9688 12.1379 21.5 10.9134 21.5V22.5ZM14.9407 20.6816C15.9993 19.5248 16.5873 17.9646 16.5873 16.3462H15.5873C15.5873 17.7266 15.085 19.0427 14.203 20.0065L14.9407 20.6816ZM16.5873 16.3462V15.4254H15.5873V16.3462H16.5873ZM16.2231 15.9066C17.0474 15.674 17.7545 15.1242 18.22 14.3741L17.3703 13.8468C17.028 14.3983 16.5207 14.7836 15.9515 14.9442L16.2231 15.9066ZM18.22 14.3741C18.685 13.6247 18.8811 12.7215 18.7778 11.8324L17.7845 11.9478C17.8625 12.6188 17.713 13.2945 17.3703 13.8468L18.22 14.3741ZM18.7778 11.8324C18.6744 10.9431 18.277 10.1171 17.6494 9.51285L16.9558 10.2332C17.408 10.6686 17.7065 11.277 17.7845 11.9478L18.7778 11.8324ZM17.6494 9.51285C17.0206 8.90746 16.2029 8.56644 15.3482 8.56644V9.56644C15.9326 9.56644 16.5047 9.79899 16.9558 10.2332L17.6494 9.51285ZM15.3482 8.56644C14.4934 8.56644 13.6758 8.90746 13.0469 9.51285L13.7405 10.2332C14.1916 9.79899 14.7637 9.56644 15.3482 9.56644V8.56644ZM13.0469 9.51285C12.4193 10.1171 12.0219 10.9431 11.9185 11.8324L12.9119 11.9478C12.9898 11.277 13.2883 10.6686 13.7405 10.2332L13.0469 9.51285ZM11.9185 11.8324C11.8152 12.7215 12.0113 13.6247 12.4763 14.3741L13.326 13.8468C12.9833 13.2945 12.8339 12.6188 12.9119 11.9478L11.9185 11.8324ZM12.4763 14.3741C12.9419 15.1242 13.6489 15.674 14.4733 15.9066L14.7448 14.9442C14.1756 14.7836 13.6683 14.3983 13.326 13.8468L12.4763 14.3741ZM14.109 15.4254V16.3462H15.109V15.4254H14.109ZM14.109 16.3462C14.109 17.2982 13.7625 18.2033 13.1577 18.8642L13.8955 19.5393C14.6768 18.6855 15.109 17.5362 15.109 16.3462H14.109ZM13.1577 18.8642C12.5543 19.5236 11.7459 19.8846 10.9134 19.8846V20.8846C12.0412 20.8846 13.1127 20.3946 13.8955 19.5393L13.1577 18.8642ZM10.9134 19.8846C10.0809 19.8846 9.27245 19.5236 8.66902 18.8642L7.9313 19.5393C8.71401 20.3946 9.78559 20.8846 10.9134 20.8846V19.8846ZM8.66902 18.8642C8.06424 18.2033 7.71773 17.2982 7.71773 16.3462H6.71773C6.71773 17.5362 7.14994 18.6855 7.9313 19.5393L8.66902 18.8642ZM7.71735 16.3656C7.75237 15.4643 7.95438 14.5813 8.30999 13.7705L7.39418 13.3689C6.98752 14.2962 6.75791 15.3023 6.71811 16.3267L7.71735 16.3656ZM8.30999 13.7705C8.66557 12.9597 9.1667 12.2392 9.78089 11.6512L9.08935 10.9288C8.37683 11.611 7.80087 12.4415 7.39418 13.3689L8.30999 13.7705ZM9.73728 11.6884C10.4883 11.1187 11.0977 10.3619 11.5167 9.48571L10.6146 9.05424C10.2614 9.79285 9.75174 10.4223 9.13296 10.8916L9.73728 11.6884ZM11.5167 9.48571C11.9358 8.60958 12.1533 7.63792 12.1525 6.65346L11.1525 6.65423C11.1532 7.49187 10.9679 8.31553 10.6146 9.05424L11.5167 9.48571ZM12.1525 6.65385V3.42308H11.1525V6.65385H12.1525ZM12.1525 3.42308C12.1525 2.66144 11.876 1.92304 11.3719 1.37215L10.6342 2.04725C10.9617 2.40519 11.1525 2.89944 11.1525 3.42308H12.1525ZM11.3719 1.37215C10.8664 0.819777 10.1708 0.5 9.43512 0.5V1.5C9.87557 1.5 10.308 1.6908 10.6342 2.04725L11.3719 1.37215ZM9.43512 0.5H8.69599V1.5H9.43512V0.5ZM8.69599 0.5C8.35232 0.5 8.03274 0.649585 7.80448 0.899017L8.54221 1.57412C8.59118 1.52061 8.6476 1.5 8.69599 1.5L8.69599 0.5ZM7.80448 0.899017C7.57758 1.14696 7.45686 1.47448 7.45686 1.80769H8.45686C8.45686 1.71248 8.49188 1.62911 8.54221 1.57412L7.80448 0.899017ZM7.45686 1.80769C7.45686 2.14091 7.57758 2.46842 7.80448 2.71637L8.54221 2.04127C8.49188 1.98627 8.45686 1.90291 8.45686 1.80769H7.45686ZM7.80448 2.71637C8.03274 2.9658 8.35232 3.11538 8.69599 3.11538L8.69599 2.11538C8.6476 2.11538 8.59118 2.09478 8.54221 2.04127L7.80448 2.71637ZM8.69599 3.11538H9.43512V2.11538H8.69599V3.11538ZM9.43512 3.11538C9.48351 3.11538 9.53993 3.13599 9.5889 3.1895L10.3266 2.5144C10.0984 2.26497 9.77879 2.11538 9.43512 2.11538V3.11538ZM9.5889 3.1895C9.63923 3.2445 9.67425 3.32786 9.67425 3.42308H10.6742C10.6742 3.08986 10.5535 2.76235 10.3266 2.5144L9.5889 3.1895ZM9.67425 3.42308V6.65385H10.6742V3.42308H9.67425ZM9.67425 6.65385C9.67425 7.12438 9.58939 7.58943 9.4254 8.02208L10.3605 8.37652C10.5679 7.82923 10.6742 7.24399 10.6742 6.65385H9.67425ZM9.4254 8.02208C9.26141 8.4547 9.02206 8.84507 8.72296 9.17192L9.46068 9.84702C9.84792 9.42386 10.153 8.92384 10.3605 8.37652L9.4254 8.02208ZM8.72296 9.17192C8.42393 9.49868 8.07137 9.75526 7.68668 9.92939L8.09904 10.8404C8.61111 10.6086 9.07336 10.2703 9.46068 9.84702L8.72296 9.17192ZM7.68668 9.92939C7.30214 10.1034 6.89178 10.1923 6.4786 10.1923V11.1923C7.03605 11.1923 7.58683 11.0723 8.09904 10.8404L7.68668 9.92939ZM15.3482 13.4231C15.1037 13.4231 14.8593 13.3174 14.6717 13.1124L13.934 13.7875C14.3009 14.1884 14.8085 14.4231 15.3482 14.4231V13.4231ZM14.6717 13.1124C14.4828 12.9059 14.3699 12.6171 14.3699 12.3077H13.3699C13.3699 12.8551 13.5685 13.3881 13.934 13.7875L14.6717 13.1124ZM14.3699 12.3077C14.3699 11.9983 14.4828 11.7095 14.6717 11.503L13.934 10.8279C13.5685 11.2273 13.3699 11.7603 13.3699 12.3077H14.3699ZM14.6717 11.503C14.8593 11.298 15.1037 11.1923 15.3482 11.1923V10.1923C14.8085 10.1923 14.3009 10.427 13.934 10.8279L14.6717 11.503ZM15.3482 11.1923C15.5926 11.1923 15.837 11.298 16.0246 11.503L16.7623 10.8279C16.3954 10.427 15.8879 10.1923 15.3482 10.1923V11.1923ZM16.0246 11.503C16.2135 11.7095 16.3264 11.9983 16.3264 12.3077H17.3264C17.3264 11.7603 17.1278 11.2273 16.7623 10.8279L16.0246 11.503ZM16.3264 12.3077C16.3264 12.6171 16.2135 12.9059 16.0246 13.1124L16.7623 13.7875C17.1278 13.3881 17.3264 12.8551 17.3264 12.3077H16.3264ZM16.0246 13.1124C15.837 13.3174 15.5926 13.4231 15.3482 13.4231V14.4231C15.8879 14.4231 16.3954 14.1884 16.7623 13.7875L16.0246 13.1124Z" fill="white" mask="url(#path-1-outside-1_2712_32354)"/>
</svg>
