<svg width="191" height="24" viewBox="0 0 191 24" fill="none" xmlns="http://www.w3.org/2000/svg">
<path d="M30.0089 17V12.996H34.0409V11.442H30.0089V8.656H34.5029V7.074H28.3289V17H30.0089ZM40.3235 12.03C40.3235 9.636 41.9755 8.446 43.6415 8.446C45.3215 8.446 46.9735 9.636 46.9735 12.03C46.9735 14.424 45.3215 15.614 43.6415 15.614C41.9755 15.614 40.3235 14.424 40.3235 12.03ZM38.6015 12.03C38.6015 15.292 41.0375 17.21 43.6415 17.21C46.2455 17.21 48.6955 15.292 48.6955 12.03C48.6955 8.782 46.2455 6.864 43.6415 6.864C41.0375 6.864 38.6015 8.782 38.6015 12.03ZM58.6311 17H60.5351L58.2951 12.912C59.6811 12.576 60.5351 11.498 60.5351 10.084C60.5351 8.404 59.3451 7.074 57.4271 7.074H53.6191V17H55.3131V13.08H56.5451L58.6311 17ZM55.3131 11.596V8.558H57.1191C58.1551 8.558 58.8271 9.16 58.8271 10.084C58.8271 10.994 58.1551 11.596 57.1191 11.596H55.3131ZM80.4034 15.46V8.614H82.1814C83.9034 8.614 85.3174 9.734 85.3174 12.058C85.3174 14.354 83.8894 15.46 82.1674 15.46H80.4034ZM82.2234 17C84.9114 17 87.0674 15.236 87.0674 12.058C87.0674 8.866 84.9394 7.074 82.2374 7.074H78.7234V17H82.2234ZM93.0969 12.03C93.0969 9.636 94.7489 8.446 96.4149 8.446C98.0949 8.446 99.7469 9.636 99.7469 12.03C99.7469 14.424 98.0949 15.614 96.4149 15.614C94.7489 15.614 93.0969 14.424 93.0969 12.03ZM91.3749 12.03C91.3749 15.292 93.8109 17.21 96.4149 17.21C99.0189 17.21 101.469 15.292 101.469 12.03C101.469 8.782 99.0189 6.864 96.4149 6.864C93.8109 6.864 91.3749 8.782 91.3749 12.03ZM110.803 17.21C113.337 17.21 114.849 15.6 115.297 13.92L113.757 13.416C113.421 14.536 112.469 15.6 110.803 15.6C109.109 15.6 107.513 14.368 107.513 12.044C107.513 9.636 109.151 8.446 110.789 8.446C112.455 8.446 113.379 9.412 113.673 10.616L115.255 10.084C114.807 8.348 113.309 6.864 110.789 6.864C108.213 6.864 105.791 8.81 105.791 12.044C105.791 15.278 108.129 17.21 110.803 17.21ZM127.182 8.656V7.074H119.048V8.656H122.268V17H123.948V8.656H127.182ZM132.516 12.03C132.516 9.636 134.168 8.446 135.834 8.446C137.514 8.446 139.166 9.636 139.166 12.03C139.166 14.424 137.514 15.614 135.834 15.614C134.168 15.614 132.516 14.424 132.516 12.03ZM130.794 12.03C130.794 15.292 133.23 17.21 135.834 17.21C138.438 17.21 140.888 15.292 140.888 12.03C140.888 8.782 138.438 6.864 135.834 6.864C133.23 6.864 130.794 8.782 130.794 12.03ZM150.823 17H152.727L150.487 12.912C151.873 12.576 152.727 11.498 152.727 10.084C152.727 8.404 151.537 7.074 149.619 7.074H145.811V17H147.505V13.08H148.737L150.823 17ZM147.505 11.596V8.558H149.311C150.347 8.558 151.019 9.16 151.019 10.084C151.019 10.994 150.347 11.596 149.311 11.596H147.505ZM164.194 9.398C163.97 8.292 163.06 6.864 160.722 6.864C158.874 6.864 157.348 8.236 157.348 9.902C157.348 11.386 158.356 12.38 159.868 12.688L161.268 12.982C162.122 13.164 162.598 13.682 162.598 14.326C162.598 15.096 161.982 15.698 160.792 15.698C159.364 15.698 158.622 14.746 158.524 13.71L156.956 14.158C157.11 15.586 158.272 17.21 160.792 17.21C163.06 17.21 164.306 15.74 164.306 14.2C164.306 12.8 163.368 11.694 161.618 11.344L160.19 11.05C159.42 10.882 159.028 10.406 159.028 9.776C159.028 9.02 159.728 8.348 160.736 8.348C162.066 8.348 162.584 9.258 162.682 9.874L164.194 9.398Z" fill="#A1C7FF"/>
<path d="M1 12H18.5" stroke="#A1C7FF" stroke-linecap="round"/>
<path d="M173 12H190.5" stroke="#A1C7FF" stroke-linecap="round"/>
</svg>
