<svg width="23" height="26" viewBox="0 0 23 26" fill="none" xmlns="http://www.w3.org/2000/svg">
<path d="M5.21429 1.625C5.21429 0.727695 5.91652 0 6.78571 0C7.65491 0 8.35714 0.727695 8.35714 1.625V3.25H14.6429V1.625C14.6429 0.727695 15.3451 0 16.2143 0C17.0835 0 17.7857 0.727695 17.7857 1.625V3.25H20.1429C21.4442 3.25 22.5 4.34129 22.5 5.6875V8.125H0.5V5.6875C0.5 4.34129 1.55531 3.25 2.85714 3.25H5.21429V1.625ZM22.5 23.5625C22.5 24.9082 21.4442 26 20.1429 26H2.85714C1.55531 26 0.5 24.9082 0.5 23.5625V9.75H22.5V23.5625ZM10.3214 13.8125V16.6562H7.57143C6.9183 16.6562 6.39286 17.1996 6.39286 17.875C6.39286 18.5504 6.9183 19.0938 7.57143 19.0938H10.3214V21.9375C10.3214 22.6129 10.8469 23.1562 11.5 23.1562C12.1531 23.1562 12.6786 22.6129 12.6786 21.9375V19.0938H15.4286C16.0817 19.0938 16.6071 18.5504 16.6071 17.875C16.6071 17.1996 16.0817 16.6562 15.4286 16.6562H12.6786V13.8125C12.6786 13.1371 12.1531 12.5938 11.5 12.5938C10.8469 12.5938 10.3214 13.1371 10.3214 13.8125Z" fill="#3C8AFF"/>
</svg>
