<svg width="18" height="18" viewBox="0 0 18 18" fill="none" xmlns="http://www.w3.org/2000/svg">
<path fill-rule="evenodd" clip-rule="evenodd" d="M16.5129 1.43176C14.6039 -0.477253 11.5087 -0.477253 9.59973 1.43176L6.94447 4.08702C6.43815 4.59334 6.43815 5.41425 6.94447 5.92057L12.0241 11.0002C12.5304 11.5065 13.3513 11.5065 13.8576 11.0002L16.5129 8.3449C18.4219 6.43589 18.4219 3.34077 16.5129 1.43176ZM1.43176 16.517C3.34077 18.426 6.43589 18.426 8.3449 16.517L11.009 13.8529C11.516 13.3459 11.516 12.5238 11.009 12.0167L5.93205 6.9398C5.42499 6.43274 4.6029 6.43274 4.09585 6.9398L1.43176 9.60388C-0.477253 11.5129 -0.477253 14.608 1.43176 16.517Z" fill="#1BD939"/>
</svg>
