<svg width="103" height="130" viewBox="0 0 103 130" fill="none" xmlns="http://www.w3.org/2000/svg">
<path d="M53.4922 129.16H10.0686C9.13679 129.16 8.24225 128.79 7.5776 128.129C6.91295 127.467 6.53138 126.568 6.51507 125.625L5.4668 7.04297H55.9441L56.9924 125.553C56.9948 126.5 56.6288 127.409 55.9736 128.084C55.3185 128.759 54.4269 129.146 53.4922 129.16Z" fill="#B1B1B1"/>
<g opacity="0.3">
<path d="M47.1035 33.3643V124.655C47.1035 124.655 54.2105 127.048 54.557 120.751C54.9034 114.455 54.7169 33.3463 54.7169 33.3463L47.1035 33.3643Z" fill="white"/>
</g>
<path d="M51.1806 1.02515H10.3155C9.60867 1.02515 8.9308 1.30947 8.431 1.81554C7.93119 2.32161 7.65039 3.00798 7.65039 3.72367V6.37723H53.8458V3.6787C53.8341 2.97083 53.5482 2.29595 53.0496 1.79956C52.5511 1.30318 51.8798 1.02505 51.1806 1.02515Z" fill="#FAFAFA"/>
<path d="M51.1782 1.02627C51.3254 1.00436 51.4751 1.00436 51.6224 1.02627C52.0608 1.0816 52.4774 1.25218 52.8306 1.52101C53.1237 1.74073 53.37 2.01809 53.5547 2.33649C53.7394 2.65489 53.8587 3.00778 53.9055 3.37399C53.9055 4.2735 53.9055 5.17301 53.9055 6.32438V6.43231H53.79C45.3238 6.49528 28.9689 6.54925 10.2597 6.54925H7.37252V3.80577C7.35873 3.35897 7.44509 2.9148 7.62511 2.50663C7.80513 2.09846 8.07414 1.73687 8.41193 1.44904C8.7501 1.16393 9.14816 0.960864 9.57569 0.855357C9.98592 0.780892 10.4031 0.753736 10.8194 0.774405H13.1825H22.1639L37.2662 0.828373L47.4203 0.900349H50.1743H50.885H51.1249H50.885H50.1743H47.4203L37.2662 0.972297L22.1639 1.02627H13.1825H10.8194C10.4389 1.00338 10.057 1.02756 9.68229 1.09824C9.32488 1.18918 8.99137 1.35801 8.70508 1.59296C7.42582 2.57342 7.94108 4.46239 7.81671 6.0905L7.58572 5.85664H10.2508C28.9866 5.85664 45.3416 5.9016 53.7811 5.97356L53.6656 6.0905C53.6656 4.9841 53.6656 3.98565 53.6656 3.1671C53.6315 2.81684 53.5282 2.4771 53.3618 2.16805C53.1955 1.85901 52.9695 1.58696 52.6973 1.36808C52.2291 1.12175 51.7053 1.0039 51.1782 1.02627Z" fill="#263238"/>
<path d="M58.9319 5.0907H2.5113C1.21603 5.0907 0.166016 6.15387 0.166016 7.46538V30.9695C0.166016 32.281 1.21603 33.3442 2.5113 33.3442H58.9319C60.2271 33.3442 61.2771 32.281 61.2771 30.9695V7.46538C61.2771 6.15387 60.2271 5.0907 58.9319 5.0907Z" fill="#FAFAFA"/>
<path d="M58.9346 33.3637C58.9346 33.3637 59.0945 33.3637 59.3788 33.2917C59.805 33.2014 60.1965 32.9891 60.507 32.6801C61.5464 31.8885 61.1289 29.9815 61.1911 27.7957C61.1911 23.2982 61.1467 16.8667 61.12 8.90608C61.12 8.41135 61.12 7.90763 61.12 7.39491C61.1048 6.91454 60.933 6.45278 60.6314 6.08164C60.3168 5.70354 59.8898 5.43849 59.4143 5.32603C58.9011 5.26971 58.3842 5.25469 57.8686 5.28106H51.1702H36.3877H2.53184C2.19291 5.27874 1.85844 5.3593 1.55685 5.5159C1.25525 5.67251 0.995451 5.90052 0.79953 6.18057C0.609279 6.44686 0.484418 6.7552 0.435294 7.08008C0.416917 7.44564 0.416917 7.81191 0.435294 8.17748V21.4002C0.435294 24.2607 0.435294 27.0761 0.435294 29.8376V30.8721C0.436606 31.1825 0.503233 31.4892 0.630737 31.7716C0.757143 32.0518 0.94153 32.3012 1.17144 32.5029C1.40135 32.7047 1.67141 32.8541 1.9633 32.9409C2.26654 33.0264 2.58234 33.0569 2.89608 33.0309H5.84548L33.5005 33.0758L52.1563 33.1568H57.2201H58.5437H58.9879H58.5437H57.2201L52.1563 33.2018L33.5005 33.2737L5.84548 33.3277H2.89608C2.54312 33.3531 2.18849 33.3166 1.8478 33.2198C1.49484 33.1166 1.16784 32.938 0.888915 32.6959C0.609986 32.4538 0.385617 32.1539 0.230958 31.8165C0.0800911 31.4739 0.00144352 31.1033 0 30.7281V29.6937C0 26.9352 0 24.1228 0 21.2563C0 18.3869 0 15.4635 0 12.5041V8.00657C0 7.61978 0 7.26897 0 6.8462C0.0607552 6.43201 0.215851 6.03783 0.453052 5.69483C0.691224 5.35422 1.00689 5.0767 1.37336 4.88569C1.73983 4.69468 2.14632 4.59579 2.55849 4.59743H36.4144H51.1969H57.8952C58.4379 4.56964 58.982 4.59072 59.521 4.6604C60.0715 4.80117 60.5633 5.11632 60.9246 5.55991C61.2683 5.99565 61.4645 6.53177 61.4843 7.08908V8.60925C61.4843 16.5609 61.4221 23.0014 61.4043 27.4989C61.4043 28.6053 61.4043 29.5947 61.4043 30.4583C61.4313 30.8293 61.375 31.2017 61.2396 31.5475C61.1042 31.8934 60.8932 32.2036 60.6225 32.4552C60.2954 32.7654 59.8838 32.9692 59.441 33.0399C59.296 33.182 59.1236 33.2922 58.9346 33.3637Z" fill="#263238"/>
<path d="M3.72317 32.8783C3.58992 32.8783 3.49219 26.8606 3.49219 19.4487C3.49219 12.0367 3.58992 6.01001 3.72317 6.01001C3.85643 6.01001 3.95413 12.0277 3.95413 19.4487C3.95413 26.8696 3.84755 32.8783 3.72317 32.8783Z" fill="#263238"/>
<path d="M8.34231 32.8783C8.20906 32.8783 8.11133 26.8606 8.11133 19.4487C8.11133 12.0367 8.20906 6.01001 8.34231 6.01001C8.47557 6.01001 8.5733 12.0277 8.5733 19.4487C8.5733 26.8696 8.46669 32.8783 8.34231 32.8783Z" fill="#263238"/>
<path d="M12.9634 32.8783C12.839 32.8783 12.7324 26.8606 12.7324 19.4487C12.7324 12.0367 12.839 6.01001 12.9634 6.01001C13.0878 6.01001 13.1944 12.0277 13.1944 19.4487C13.1944 26.8696 13.0878 32.8783 12.9634 32.8783Z" fill="#263238"/>
<path d="M17.5786 32.8783C17.4542 32.8783 17.3477 26.8606 17.3477 19.4487C17.3477 12.0367 17.4542 6.01001 17.5786 6.01001C17.703 6.01001 17.8096 12.0277 17.8096 19.4487C17.8096 26.8696 17.7119 32.8783 17.5786 32.8783Z" fill="#263238"/>
<path d="M22.2115 32.8783C22.0782 32.8783 21.9805 26.8606 21.9805 19.4487C21.9805 12.0367 22.0782 6.01001 22.2115 6.01001C22.3447 6.01001 22.4424 12.0277 22.4424 19.4487C22.4424 26.8696 22.3358 32.8783 22.2115 32.8783Z" fill="#263238"/>
<path d="M26.8267 32.8783C26.6934 32.8783 26.5957 26.8606 26.5957 19.4487C26.5957 12.0367 26.6934 6.01001 26.8267 6.01001C26.9599 6.01001 27.0576 12.0277 27.0576 19.4487C27.0576 26.8696 26.951 32.8783 26.8267 32.8783Z" fill="#263238"/>
<path d="M31.4497 32.8783C31.3254 32.8783 31.2188 26.8606 31.2188 19.4487C31.2188 12.0367 31.3254 6.01001 31.4497 6.01001C31.5741 6.01001 31.6807 12.0277 31.6807 19.4487C31.6807 26.8696 31.5741 32.8783 31.4497 32.8783Z" fill="#263238"/>
<path d="M36.0688 32.8783C35.9445 32.8783 35.8379 26.8606 35.8379 19.4487C35.8379 12.0367 35.9445 6.01001 36.0688 6.01001C36.1932 6.01001 36.2998 12.0277 36.2998 19.4487C36.2998 26.8696 36.2021 32.8783 36.0688 32.8783Z" fill="#263238"/>
<path d="M40.6861 32.8783C40.5617 32.8783 40.4551 26.8606 40.4551 19.4487C40.4551 12.0367 40.5617 6.01001 40.6861 6.01001C40.8104 6.01001 40.9259 12.0277 40.9259 19.4487C40.9259 26.8696 40.8193 32.8783 40.6861 32.8783Z" fill="#263238"/>
<path d="M45.3169 32.8783C45.1836 32.8783 45.0859 26.8606 45.0859 19.4487C45.0859 12.0367 45.1836 6.01001 45.3169 6.01001C45.4502 6.01001 45.5479 12.0277 45.5479 19.4487C45.5479 26.8696 45.4413 32.8783 45.3169 32.8783Z" fill="#263238"/>
<path d="M49.9322 32.8783C49.8078 32.8783 49.7012 26.8606 49.7012 19.4487C49.7012 12.0367 49.8078 6.01001 49.9322 6.01001C50.0565 6.01001 50.1631 12.0277 50.1631 19.4487C50.1631 26.8696 50.0565 32.8783 49.9322 32.8783Z" fill="#263238"/>
<path d="M54.5552 32.8783C54.4308 32.8783 54.3242 26.8606 54.3242 19.4487C54.3242 12.0367 54.4308 6.01001 54.5552 6.01001C54.6796 6.01001 54.7862 12.0277 54.7862 19.4487C54.7862 26.8696 54.6885 32.8783 54.5552 32.8783Z" fill="#263238"/>
<path d="M59.1743 32.8783C59.05 32.8783 58.9434 26.8606 58.9434 19.4487C58.9434 12.0367 59.05 6.01001 59.1743 6.01001C59.2987 6.01001 59.4053 12.0277 59.4053 19.4487C59.4053 26.8696 59.3076 32.8783 59.1743 32.8783Z" fill="#263238"/>
<path d="M53.1404 54.6284H9.44141V90.06H53.1404V54.6284Z" fill="white"/>
<path d="M16.9511 65.9079L15.9295 64.4147H14.8101V65.9079H13.5664V60.5648H15.8495C16.265 60.5545 16.6776 60.6375 17.0577 60.8077C17.3836 60.9443 17.6619 61.176 17.8572 61.4733C18.0476 61.7832 18.1435 62.143 18.1327 62.5078C18.1423 62.8708 18.0432 63.2283 17.8484 63.5332C17.6517 63.8272 17.3735 64.0556 17.0488 64.1898L18.2304 65.9079H16.9511ZM16.6402 61.8151C16.3983 61.638 16.1029 61.5521 15.8051 61.5723H14.8101V63.4343H15.8051C16.1029 63.4544 16.3983 63.3685 16.6402 63.1914C16.7307 63.1018 16.8026 62.9947 16.8517 62.8765C16.9008 62.7584 16.9261 62.6315 16.9261 62.5033C16.9261 62.3751 16.9008 62.2481 16.8517 62.13C16.8026 62.0118 16.7307 61.9048 16.6402 61.8151Z" fill="#263238"/>
<path d="M19.6138 69.595L18.4056 67.841L17.2241 69.595H15.9004L17.7482 67.0224L15.9714 64.5398H17.2862L18.4323 66.1769L19.5605 64.5398H20.8131L19.0363 66.9775L20.893 69.595H19.6138Z" fill="#263238"/>
<path d="M49.9368 60.5553H24.9824V64.3962H49.9368V60.5553Z" fill="#E0E0E0"/>
<path d="M47.1008 73.9313C47.1008 74.0572 39.8161 74.1651 30.8258 74.1651C21.8354 74.1651 14.5508 74.0572 14.5508 73.9313C14.5508 73.8053 21.8354 73.6974 30.8258 73.6974C39.8161 73.6974 47.1008 73.8413 47.1008 73.9313Z" fill="#263238"/>
<path d="M47.1008 77.9244C47.1008 78.0594 39.8161 78.1583 30.8258 78.1583C21.8354 78.1583 14.5508 78.0594 14.5508 77.9244C14.5508 77.7895 21.8354 77.6906 30.8258 77.6906C39.8161 77.6906 47.1008 77.7985 47.1008 77.9244Z" fill="#263238"/>
<path d="M29.0586 82.9351H12.1973V86.2273H29.0586V82.9351Z" fill="#E0E0E0"/>
<path d="M52.1494 88.9629C52.1494 88.9629 52.1494 88.747 52.1494 88.3332C52.1494 87.9194 52.1494 87.3078 52.1494 86.5342C52.1494 84.9421 52.1494 82.6483 52.105 79.725C52.105 73.8602 52.0428 65.5127 52.0073 55.4383L52.1939 55.6361H10.3071C10.2538 55.6811 10.7424 55.1954 10.5381 55.4113V64.3344C10.5381 67.2668 10.5381 70.1452 10.5381 72.9517C10.5381 78.5736 10.5381 83.9346 10.5381 88.9269L10.3337 88.72L40.5384 88.828L49.1201 88.8819H51.4121H52.2116C52.2116 88.8819 52.1583 88.8819 52.0251 88.8819H51.4565H49.2089L40.6717 88.9359L10.3249 89.0438H10.1205V88.828C10.1205 83.8357 10.1205 78.4746 10.1205 72.8527C10.1205 70.0462 10.1205 67.1678 10.1205 64.2354V55.3123C9.91621 55.5102 10.4048 55.0155 10.3515 55.0695H52.2383H52.4337V55.2673C52.4337 65.3868 52.3538 73.7882 52.336 79.68C52.336 82.5764 52.2916 84.8611 52.2827 86.4443C52.2827 87.1999 52.2827 87.7845 52.2827 88.2433C52.2827 88.702 52.1494 88.9629 52.1494 88.9629Z" fill="#263238"/>
<path d="M8.34231 119.491C8.20906 119.491 8.11133 100.997 8.11133 78.1854C8.11133 55.3739 8.20906 36.88 8.34231 36.88C8.47557 36.88 8.5733 55.3739 8.5733 78.1854C8.5733 100.997 8.46669 119.491 8.34231 119.491Z" fill="white"/>
<path d="M53.1848 127.237C53.1848 127.363 43.6526 127.471 31.8639 127.471C20.0752 127.471 10.543 127.363 10.543 127.237C10.543 127.111 20.0752 127.003 31.8639 127.003C43.6526 127.003 53.1848 127.111 53.1848 127.237Z" fill="#263238"/>
<path d="M96.4949 129.108H61.3153C60.5613 129.108 59.8377 128.806 59.302 128.269C58.7663 127.731 58.4618 127.002 58.4548 126.238L57.5664 30.1797H98.4315L99.2755 126.184C99.2851 126.944 98.9986 127.677 98.4781 128.224C97.9576 128.771 97.245 129.089 96.4949 129.108Z" fill="#D5D5D5"/>
<g opacity="0.3">
<path d="M91.3164 51.4807V125.456C91.3164 125.456 97.0731 127.39 97.3574 122.29C97.6416 117.19 97.4817 51.4807 97.4817 51.4807H91.3164Z" fill="white"/>
</g>
<path d="M94.114 25.2694H61.9815C61.2747 25.2694 60.5968 25.5537 60.097 26.0598C59.5972 26.5659 59.3164 27.2522 59.3164 27.9679V29.5781H96.7524V27.9679C96.7525 27.2569 96.4753 26.5746 95.9813 26.0693C95.4872 25.564 94.8162 25.2765 94.114 25.2694Z" fill="#FAFAFA"/>
<path d="M94.1145 25.2681C94.2412 25.2504 94.3697 25.2504 94.4965 25.2681C94.875 25.3005 95.2405 25.4239 95.5625 25.6279C96.0973 25.9574 96.5048 26.462 96.7174 27.0581C96.8392 27.4382 96.8934 27.8372 96.8773 28.2365C96.8773 28.6592 96.8773 29.136 96.8773 29.5677V29.7656H96.7618C89.8414 29.8376 76.8445 29.8826 61.982 29.8826H59.0859V29.6487C59.0859 28.9651 59.0859 28.3444 59.0859 27.6248C59.1877 26.9186 59.5411 26.2745 60.0794 25.8138C60.6178 25.3532 61.304 25.1079 62.0087 25.1242H63.892H71.0434L83.072 25.1692L91.1295 25.2411L93.3149 25.2861C93.5674 25.2816 93.8198 25.2966 94.07 25.3311C93.8187 25.3505 93.5663 25.3505 93.3149 25.3311L91.1295 25.376L83.072 25.448L71.0434 25.502H62.0531C61.4643 25.4874 60.8901 25.6886 60.4363 26.0687C59.9722 26.4542 59.6705 27.0042 59.5923 27.6068C59.539 28.2005 59.5923 28.9111 59.5923 29.5677L59.3613 29.3339H62.0264C76.8889 29.3339 89.8858 29.3788 96.8063 29.4508L96.6908 29.5677C96.6908 29.1 96.6908 28.6682 96.6908 28.2365C96.72 27.86 96.6777 27.4814 96.5664 27.1211C96.386 26.5529 96.0193 26.0641 95.527 25.7358C95.0991 25.4695 94.6151 25.3092 94.1145 25.2681Z" fill="#263238"/>
<path d="M100.463 28.5974H55.6441C54.3488 28.5974 53.2988 29.6606 53.2988 30.9721V49.1152C53.2988 50.4267 54.3488 51.4899 55.6441 51.4899H100.463C101.758 51.4899 102.808 50.4267 102.808 49.1152V30.9721C102.808 29.6606 101.758 28.5974 100.463 28.5974Z" fill="#FAFAFA"/>
<path d="M100.46 51.4792C100.931 51.4442 101.385 51.2827 101.774 51.0115C102.225 50.6728 102.541 50.181 102.663 49.6262C102.719 49.2634 102.734 48.8951 102.707 48.5288C102.707 48.133 102.707 47.7013 102.707 47.2605C102.707 43.6625 102.663 38.4544 102.636 32.0499C102.636 31.6541 102.636 31.2313 102.636 30.8355C102.612 30.4492 102.487 30.0763 102.272 29.7561C102.051 29.4224 101.746 29.1552 101.388 28.9827C101.03 28.8101 100.632 28.7386 100.238 28.7756H94.8362H82.932H55.6501C55.1021 28.7776 54.5761 28.994 54.182 29.3795C53.788 29.7651 53.5564 30.2901 53.5358 30.8445C53.5358 32.0499 53.5358 33.2462 53.5358 34.4426V41.4947C53.5358 43.8094 53.5358 46.0762 53.5358 48.295C53.4873 48.8187 53.5386 49.3469 53.6868 49.8511C53.8743 50.3137 54.2088 50.6999 54.6374 50.9485C55.0855 51.1743 55.5873 51.2679 56.0854 51.2184H57.6667L79.9471 51.2723L94.9695 51.3443H99.056H100.113H100.477H100.113H99.056L94.9695 51.3893L79.9471 51.4612L57.6667 51.5152H56.0854C55.5304 51.6152 54.9588 51.5592 54.433 51.3533C53.9159 51.0545 53.5124 50.589 53.287 50.031C53.1775 49.7436 53.1175 49.4394 53.1094 49.1315V48.295C53.1094 46.0762 53.1094 43.8094 53.1094 41.4947V30.8805C53.1346 30.2051 53.4168 29.5658 53.897 29.0964C54.3772 28.6269 55.0182 28.3637 55.6856 28.3619H82.9676H94.8717H100.273C100.727 28.3385 101.178 28.4329 101.586 28.636C101.993 28.839 102.342 29.1441 102.601 29.5223C102.841 29.8957 102.979 30.3272 103 30.7726C103 31.2043 103 31.6001 103 32.0049C103 38.4094 102.938 43.5995 102.92 47.2156C102.92 47.6563 102.92 48.1151 102.92 48.4839C102.938 48.8602 102.914 49.2373 102.849 49.6082C102.711 50.1966 102.359 50.7105 101.863 51.0475C101.564 51.2541 101.219 51.3838 100.859 51.4252C100.73 51.4672 100.595 51.4855 100.46 51.4792Z" fill="#263238"/>
<path d="M56.2075 51.1016C56.0832 51.1016 55.9766 46.2353 55.9766 40.2266C55.9766 34.2179 56.0832 29.3425 56.2075 29.3425C56.3319 29.3425 56.4385 34.2089 56.4385 40.2266C56.4385 46.2443 56.2964 51.1016 56.2075 51.1016Z" fill="#263238"/>
<path d="M59.9146 51.1016C59.7902 51.1016 59.6836 46.2353 59.6836 40.2266C59.6836 34.2179 59.7902 29.3425 59.9146 29.3425C60.039 29.3425 60.1455 34.2089 60.1455 40.2266C60.1455 46.2443 60.0478 51.1016 59.9146 51.1016Z" fill="#263238"/>
<path d="M63.6607 51.1016C63.5274 51.1016 63.4297 46.2353 63.4297 40.2266C63.4297 34.2179 63.5274 29.3425 63.6607 29.3425C63.7939 29.3425 63.8916 34.2089 63.8916 40.2266C63.8916 46.2443 63.785 51.1016 63.6607 51.1016Z" fill="#263238"/>
<path d="M67.4009 51.1016C67.2765 51.1016 67.1699 46.2353 67.1699 40.2266C67.1699 34.2179 67.2765 29.3425 67.4009 29.3425C67.5253 29.3425 67.6319 34.2089 67.6319 40.2266C67.6319 46.2443 67.5342 51.1016 67.4009 51.1016Z" fill="#263238"/>
<path d="M71.149 51.1016C71.0157 51.1016 70.918 46.2353 70.918 40.2266C70.918 34.2179 71.0157 29.3425 71.149 29.3425C71.2822 29.3425 71.3799 34.2089 71.3799 40.2266C71.3799 46.2443 71.3089 51.1016 71.149 51.1016Z" fill="#263238"/>
<path d="M74.8658 51.1016C74.7414 51.1016 74.6348 46.2353 74.6348 40.2266C74.6348 34.2179 74.7414 29.3425 74.8658 29.3425C74.9901 29.3425 75.0967 34.2089 75.0967 40.2266C75.0967 46.2443 75.0257 51.1016 74.8658 51.1016Z" fill="#263238"/>
<path d="M78.6372 51.1016C78.504 51.1016 78.4062 46.2353 78.4062 40.2266C78.4062 34.2179 78.504 29.3425 78.6372 29.3425C78.7705 29.3425 78.8682 34.2089 78.8682 40.2266C78.8682 46.2443 78.7616 51.1016 78.6372 51.1016Z" fill="#263238"/>
<path d="M82.3774 51.1016C82.2531 51.1016 82.1465 46.2353 82.1465 40.2266C82.1465 34.2179 82.2531 29.3425 82.3774 29.3425C82.5018 29.3425 82.6084 34.2089 82.6084 40.2266C82.6084 46.2443 82.5018 51.1016 82.3774 51.1016Z" fill="#263238"/>
<path d="M86.1285 51.1016C85.9953 51.1016 85.8887 46.2353 85.8887 40.2266C85.8887 34.2179 85.9953 29.3425 86.1285 29.3425C86.2618 29.3425 86.3595 34.2089 86.3595 40.2266C86.3595 46.2443 86.2529 51.1016 86.1285 51.1016Z" fill="#263238"/>
<path d="M89.8716 51.1016C89.7472 51.1016 89.6406 46.2353 89.6406 40.2266C89.6406 34.2179 89.7472 29.3425 89.8716 29.3425C89.996 29.3425 90.1026 34.2089 90.1026 40.2266C90.1026 46.2443 89.9693 51.1016 89.8716 51.1016Z" fill="#263238"/>
<path d="M93.6079 51.1016C93.4836 51.1016 93.377 46.2353 93.377 40.2266C93.377 34.2179 93.4836 29.3425 93.6079 29.3425C93.7323 29.3425 93.8389 34.2089 93.8389 40.2266C93.8389 46.2443 93.7412 51.1016 93.6079 51.1016Z" fill="#263238"/>
<path d="M97.356 51.1016C97.2227 51.1016 97.125 46.2353 97.125 40.2266C97.125 34.2179 97.2227 29.3425 97.356 29.3425C97.4892 29.3425 97.5869 34.2089 97.5869 40.2266C97.5869 46.2443 97.4804 51.1016 97.356 51.1016Z" fill="#263238"/>
<path d="M101.096 51.1016C100.972 51.1016 100.865 46.2353 100.865 40.2266C100.865 34.2179 100.972 29.3425 101.096 29.3425C101.221 29.3425 101.327 34.2089 101.327 40.2266C101.327 46.2443 101.229 51.1016 101.096 51.1016Z" fill="#263238"/>
<path d="M96.2141 68.7233H60.8125V97.4265H96.2141V68.7233Z" fill="white"/>
<path d="M66.8682 77.8615L66.0509 76.6561H65.1626V77.8615H64.2031V73.5348H65.9799C66.3181 73.5261 66.6542 73.5905 66.966 73.7237C67.2285 73.8378 67.4513 74.029 67.6056 74.2724C67.7562 74.5232 67.8359 74.811 67.8359 75.1045C67.8359 75.3979 67.7562 75.6858 67.6056 75.9365C67.4467 76.1751 67.2208 76.36 66.9571 76.4672L67.9165 77.8615H66.8682ZM66.6195 74.5423C66.4222 74.4035 66.184 74.3368 65.9443 74.3534H65.1359V75.8556H65.9799C66.2211 75.8741 66.4609 75.8038 66.655 75.6577C66.7343 75.5898 66.7965 75.5039 66.8367 75.4069C66.8768 75.31 66.8937 75.2048 66.886 75.1C66.8909 74.9937 66.8709 74.8878 66.8277 74.7909C66.7845 74.694 66.7192 74.6088 66.6373 74.5423H66.6195Z" fill="#263238"/>
<path d="M69.0545 80.8489L68.0773 79.4276L67.1179 80.8489H66.043L67.5354 78.762L66.114 76.7561H67.1801L68.0685 78.0784L68.9568 76.7561H69.9696L68.6459 78.726L70.1472 80.8489H69.0545Z" fill="#263238"/>
<path d="M93.6089 73.5254H73.3984V76.6377H93.6089V73.5254Z" fill="#E0E0E0"/>
<path d="M91.3161 84.3575C91.3161 84.4925 85.4173 84.5914 78.1327 84.5914C70.848 84.5914 64.9492 84.4925 64.9492 84.3575C64.9492 84.2226 70.848 84.1237 78.1327 84.1237C85.4173 84.1237 91.3161 84.2316 91.3161 84.3575Z" fill="#263238"/>
<path d="M91.3161 87.6043C91.3161 87.7303 85.4173 87.8382 78.1327 87.8382C70.848 87.8382 64.9492 87.7303 64.9492 87.6043C64.9492 87.4784 70.848 87.3705 78.1327 87.3705C85.4173 87.3705 91.3161 87.4694 91.3161 87.6043Z" fill="#263238"/>
<path d="M76.7003 91.6525H63.0371V94.315H76.7003V91.6525Z" fill="#E0E0E0"/>
<path d="M95.404 96.545C95.404 96.545 95.404 96.3561 95.404 96.0233C95.404 95.6905 95.404 95.1777 95.404 94.5661C95.404 93.2618 95.4041 91.3998 95.3596 89.0431C95.3596 84.2847 95.2974 77.5294 95.2619 69.3799L95.4485 69.5778H61.5215L61.7525 69.3439V72.9419C61.7525 74.1563 61.7525 75.3526 61.7525 76.54V83.5201C61.7525 88.0716 61.7525 92.4073 61.7525 96.464L61.5482 96.2482L86.0051 96.3561L92.9699 96.4101H94.8266H95.3063H95.4751H94.871H93.0943L86.1739 96.464L61.5837 96.572H61.3705V96.3651C61.3705 92.3083 61.3705 87.9727 61.3705 83.4212V69.209C61.1662 69.4159 61.6548 68.9211 61.6103 68.9751H95.5373H95.7327V69.3439C95.7327 77.5384 95.6528 84.3477 95.635 89.1331C95.635 91.4718 95.5906 93.3157 95.5817 94.602C95.5817 95.2047 95.5817 95.6815 95.5817 96.0323C95.5368 96.2079 95.4773 96.3794 95.404 96.545Z" fill="#263238"/>
<path d="M59.9146 121.273C59.7902 121.273 59.6836 106.287 59.6836 87.8111C59.6836 69.3352 59.7902 54.3494 59.9146 54.3494C60.039 54.3494 60.1455 69.3262 60.1455 87.8111C60.1455 106.296 60.0478 121.273 59.9146 121.273Z" fill="white"/>
<path d="M96.2475 127.541C96.2475 127.676 88.5186 127.775 78.9953 127.775C69.4719 127.775 61.752 127.676 61.752 127.541C61.752 127.406 69.4719 127.307 78.9953 127.307C88.5186 127.307 96.2475 127.415 96.2475 127.541Z" fill="#263238"/>
</svg>
