<svg width="12" height="20" viewBox="0 0 12 20" fill="none" xmlns="http://www.w3.org/2000/svg">
<path d="M4 12H8M6 10V14M4 5V2C4 1.73478 4.10536 1.48043 4.29289 1.29289C4.48043 1.10536 4.73478 1 5 1H7C7.26522 1 7.51957 1.10536 7.70711 1.29289C7.89464 1.48043 8 1.73478 8 2V5M2 19H10C10.2652 19 10.5196 18.8946 10.7071 18.7071C10.8946 18.5196 11 18.2652 11 18V8C11 7.20435 10.6839 6.44129 10.1213 5.87868C9.55871 5.31607 8.79565 5 8 5H4C3.20435 5 2.44129 5.31607 1.87868 5.87868C1.31607 6.44129 1 7.20435 1 8V18C1 18.2652 1.10536 18.5196 1.29289 18.7071C1.48043 18.8946 1.73478 19 2 19Z" stroke="#3C8AFF" stroke-width="2" stroke-linecap="round" stroke-linejoin="round"/>
</svg>
