<svg width="27" height="27" viewBox="0 0 27 27" fill="none" xmlns="http://www.w3.org/2000/svg">
<path fill-rule="evenodd" clip-rule="evenodd" d="M13.5 27C20.9558 27 27 20.9558 27 13.5C27 6.04416 20.9558 0 13.5 0C6.04416 0 0 6.04416 0 13.5C0 20.9558 6.04416 27 13.5 27ZM13.0777 20.9564C13.1594 20.9851 13.2457 20.9999 13.3326 21C13.4555 21.0002 13.5764 20.9711 13.685 20.9153C13.7935 20.8595 13.8862 20.7787 13.955 20.68L19.8714 12.0982C19.9477 11.9888 19.9918 11.8612 19.999 11.7293C20.0061 11.5973 19.9761 11.466 19.9121 11.3493C19.8481 11.2327 19.7526 11.1352 19.6358 11.0672C19.5189 10.9993 19.3852 10.9635 19.249 10.9637H14.8323L15.4097 5.77098C15.4198 5.61506 15.3778 5.46014 15.2901 5.32915C15.2023 5.19817 15.0733 5.09808 14.9223 5.04371C14.7652 4.98836 14.5936 4.9855 14.4347 5.03557C14.2757 5.08564 14.1386 5.18577 14.045 5.32007L8.12861 13.9018C8.05232 14.0113 8.00822 14.1389 8.00104 14.2708C7.99386 14.4027 8.02388 14.5341 8.08787 14.6507C8.15185 14.7674 8.24739 14.8649 8.36422 14.9328C8.48105 15.0008 8.61476 15.0366 8.75099 15.0364H13.1677L12.5903 20.1927C12.5716 20.3546 12.6095 20.5178 12.6979 20.6562C12.7863 20.7947 12.92 20.9004 13.0777 20.9564Z" fill="#2E2E42"/>
</svg>
