<svg width="26" height="19" viewBox="0 0 26 19" fill="none" xmlns="http://www.w3.org/2000/svg">
<path fill-rule="evenodd" clip-rule="evenodd" d="M9.3236 11.1897L13.0026 13.6407L16.549 11.2569L24.4985 18.8987C24.2892 18.9645 24.0656 19 23.8329 19H2.1671C1.8811 19 1.6081 18.9455 1.3572 18.848L9.3236 11.1897ZM26 4.9096V16.8885C26 17.2013 25.9298 17.4977 25.805 17.765L18.0128 10.2739L26 4.9096ZM1.22668e-06 4.97673L7.8546 10.2106L0.137801 17.6307C0.0464057 17.3934 -0.000275903 17.142 1.22668e-06 16.8885V4.978V4.97673ZM23.8329 0C25.0289 0 26 0.944933 26 2.11153V2.8538L12.9974 11.5875L1.22668e-06 2.926V2.11153C1.22668e-06 0.9462 0.969801 0 2.1671 0H23.8329Z" fill="#3C8AFF"/>
</svg>
