<svg width="185" height="185" viewBox="0 0 185 185" fill="none" xmlns="http://www.w3.org/2000/svg">
<rect width="185" height="185" rx="92.5" fill="#E2EDFF"/>
<path d="M66.7537 53.2389C73.3026 49.3845 82.6545 47.3356 92.3956 47.648C102.123 47.963 111.831 50.6208 119.133 55.7405C119.869 56.2558 120.786 56.4678 121.683 56.3298C122.581 56.1918 123.384 55.7151 123.918 55.0046C124.451 54.2941 124.67 53.4079 124.528 52.5411C124.385 51.6743 123.891 50.8979 123.156 50.3825C114.497 44.3151 103.372 41.382 92.6257 41.0352C81.8983 40.6884 71.1434 42.9068 63.1916 47.5897C62.7926 47.8084 62.4431 48.1023 62.1639 48.454C61.8847 48.8057 61.6815 49.208 61.5663 49.637C61.4511 50.066 61.4263 50.513 61.4934 50.9514C61.5604 51.3899 61.7179 51.8109 61.9566 52.1894C62.1953 52.5679 62.5102 52.8962 62.8828 53.1549C63.2553 53.4135 63.6778 53.5973 64.1252 53.6951C64.5727 53.793 65.0359 53.8031 65.4874 53.7247C65.9389 53.6463 66.3696 53.4811 66.7537 53.2389ZM95.5165 56.3838C95.0698 56.3327 94.617 56.3671 94.1841 56.485C93.7511 56.603 93.3464 56.8022 92.9931 57.0712C92.6398 57.3403 92.3448 57.6739 92.125 58.0531C91.9052 58.4323 91.7648 58.8496 91.7119 59.2812C91.659 59.7128 91.6946 60.1502 91.8167 60.5685C91.9388 60.9868 92.145 61.3778 92.4235 61.7191C92.702 62.0604 93.0473 62.3454 93.4398 62.5577C93.8323 62.7701 94.2642 62.9057 94.711 62.9568C116.163 65.4188 130.124 81.4239 134.212 103.931C134.383 104.782 134.893 105.535 135.633 106.027C136.372 106.519 137.282 106.711 138.167 106.561C139.051 106.411 139.839 105.931 140.362 105.225C140.884 104.52 141.098 103.644 140.958 102.787C136.508 78.2869 120.805 59.2851 95.5165 56.3838ZM77.1524 83.0678C66.6935 91.155 60.7063 108.666 72.1517 131.009C72.5476 131.794 72.6059 132.699 72.3139 133.526C72.0219 134.353 71.4033 135.035 70.5931 135.423C69.7828 135.81 68.8467 135.873 67.9888 135.597C67.131 135.32 66.421 134.727 66.0139 133.947C53.4533 109.431 59.3829 88.3278 72.8724 77.9004C79.5555 72.733 88.0032 70.3161 96.5249 71.608C105.074 72.9051 113.363 77.8872 119.846 86.9116C120.111 87.268 120.301 87.672 120.403 88.0999C120.505 88.5278 120.518 88.9711 120.441 89.404C120.364 89.8368 120.199 90.2505 119.955 90.621C119.711 90.9914 119.393 91.3113 119.019 91.5618C118.646 91.8123 118.225 91.9885 117.78 92.0802C117.336 92.1719 116.877 92.1771 116.43 92.0956C115.983 92.0142 115.558 91.8476 115.179 91.6057C114.799 91.3637 114.474 91.0513 114.22 90.6865C108.647 82.9301 101.912 79.1261 95.4617 78.1466C88.9787 77.1618 82.4463 78.9752 77.1524 83.0678ZM89.9706 136.303C82.9587 122.617 80.8187 111.049 82.0928 103.391C82.723 99.5944 84.1479 97.0028 85.9372 95.4462C87.6662 93.9452 90.0747 93.1113 93.4204 93.4158C97.8675 93.8234 99.95 95.2371 101.235 96.9233C102.72 98.8717 103.504 101.609 104.397 105.508L104.666 106.692C106.323 114.061 108.516 123.785 119.15 131.192C119.887 131.705 120.805 131.914 121.701 131.774C122.598 131.633 123.4 131.154 123.931 130.442C124.463 129.731 124.679 128.844 124.534 127.978C124.388 127.111 123.893 126.336 123.156 125.823C114.689 119.925 112.99 112.46 111.302 105.032L111.083 104.079C110.234 100.367 109.225 96.243 106.751 93.0002C104.077 89.4926 100.029 87.3748 94.067 86.8295C89.1075 86.3742 84.7151 87.6104 81.3612 90.5224C78.0703 93.3814 76.1276 97.5375 75.3275 102.342C73.7437 111.885 76.4866 124.902 83.8328 139.239C84.2501 140.001 84.9587 140.575 85.8076 140.84C86.6565 141.105 87.5789 141.039 88.3785 140.657C89.1781 140.275 89.7918 139.606 90.0891 138.794C90.3865 137.981 90.3439 137.089 89.9706 136.306V136.303ZM57.9525 56.1694C58.5534 56.8273 58.8591 57.6888 58.8026 58.5645C58.7461 59.4402 58.3319 60.2583 57.6511 60.8391C53.2779 64.569 50.3269 68.3228 47.3949 73.2466C47.1704 73.6233 46.8713 73.9535 46.5146 74.2185C46.158 74.4835 45.7508 74.678 45.3164 74.7909C44.8819 74.9039 44.4287 74.9331 43.9825 74.8768C43.5364 74.8205 43.1061 74.6799 42.7162 74.463C42.3264 74.2461 41.9845 73.9571 41.7102 73.6125C41.436 73.268 41.2346 72.8746 41.1177 72.4548C41.0008 72.0351 40.9706 71.5972 41.0288 71.1662C41.0871 70.7352 41.2326 70.3195 41.4572 69.9429C44.6795 64.5346 48.0772 60.1746 53.119 55.8782C53.8 55.2977 54.6918 55.0023 55.5982 55.0569C56.5046 55.1115 57.3515 55.5117 57.9525 56.1694ZM125.216 102.853C125.064 101.997 124.57 101.234 123.84 100.727C123.11 100.22 122.203 100.011 121.315 100.145C120.427 100.278 119.628 100.743 119.092 101.44C118.556 102.137 118.325 103.01 118.448 103.87C119.846 112.545 124.49 118.024 130.108 121.932C130.473 122.185 130.886 122.367 131.324 122.467C131.762 122.566 132.216 122.581 132.66 122.511C133.104 122.441 133.529 122.287 133.912 122.058C134.294 121.829 134.626 121.53 134.889 121.177C135.152 120.824 135.34 120.425 135.443 120.002C135.546 119.579 135.561 119.14 135.489 118.711C135.416 118.282 135.257 117.871 135.02 117.502C134.783 117.132 134.473 116.812 134.108 116.558C129.655 113.461 126.277 109.426 125.216 102.853ZM92.1216 102.708C92.5703 102.675 93.0213 102.728 93.4487 102.864C93.8762 103 94.2717 103.216 94.6127 103.5C94.9537 103.784 95.2334 104.129 95.436 104.518C95.6386 104.906 95.76 105.329 95.7933 105.762C96.629 116.55 100.717 125.688 107.285 132.949C107.591 133.275 107.826 133.656 107.978 134.071C108.129 134.485 108.193 134.925 108.167 135.364C108.141 135.803 108.024 136.232 107.824 136.627C107.624 137.022 107.344 137.374 107.002 137.663C106.659 137.953 106.26 138.173 105.829 138.312C105.397 138.451 104.941 138.505 104.487 138.471C104.033 138.438 103.591 138.317 103.186 138.117C102.781 137.917 102.422 137.64 102.128 137.304C94.5602 128.939 89.9076 118.437 88.9622 106.255C88.9286 105.821 88.9836 105.386 89.1242 104.973C89.2647 104.56 89.4881 104.178 89.7815 103.849C90.0748 103.52 90.4325 103.249 90.834 103.053C91.2355 102.858 91.673 102.74 92.1216 102.708ZM81.3749 64.0581C81.7896 63.8895 82.1659 63.6436 82.4822 63.3345C82.7986 63.0254 83.0488 62.6592 83.2187 62.2566C83.3885 61.8541 83.4746 61.4232 83.4721 60.9885C83.4696 60.5538 83.3784 60.1239 83.2039 59.7233C83.0294 59.3226 82.7749 58.9591 82.455 58.6535C82.135 58.3478 81.7559 58.1061 81.3393 57.942C80.9226 57.7779 80.4766 57.6947 80.0267 57.6971C79.5767 57.6996 79.1317 57.7876 78.717 57.9562C54.1329 67.9442 41.8764 90.2894 45.1344 116.981C45.1869 117.413 45.3269 117.83 45.5464 118.21C45.7659 118.589 46.0606 118.923 46.4136 119.192C46.7667 119.461 47.1711 119.661 47.604 119.779C48.0368 119.897 48.4895 119.932 48.9363 119.881C49.383 119.831 49.815 119.695 50.2076 119.483C50.6003 119.271 50.9458 118.987 51.2245 118.645C51.5033 118.304 51.7098 117.914 51.8322 117.495C51.9546 117.077 51.9906 116.64 51.938 116.208C48.9979 92.1186 59.9035 72.7807 81.3749 64.0528V64.0581Z" fill="#3C8AFF"/>
</svg>
