<svg width="36" height="47" viewBox="0 0 36 47" fill="none" xmlns="http://www.w3.org/2000/svg">
<path d="M17.0052 0.659575C17.1658 0.506219 17.3566 0.384548 17.5667 0.301531C17.7768 0.218514 18.002 0.175781 18.2295 0.175781C18.4569 0.175781 18.6821 0.218514 18.8922 0.301531C19.1023 0.384548 19.2931 0.506219 19.4537 0.659575C20.3564 1.52247 24.3231 5.43514 28.0755 10.5499C31.776 15.5923 35.5214 22.1299 35.5214 28.1734C35.5214 34.0358 33.5259 38.5973 30.2785 41.6932C27.0449 44.7792 22.6942 46.2876 18.2295 46.2876C13.7647 46.2876 9.41401 44.7792 6.18042 41.6932C2.93299 38.5973 0.9375 34.0391 0.9375 28.1734C0.9375 22.1299 4.68294 15.5923 8.38341 10.5532C10.9744 7.04074 13.8576 3.73221 17.0052 0.659575Z" fill="white"/>
</svg>
