<svg width="18" height="23" viewBox="0 0 18 23" fill="none" xmlns="http://www.w3.org/2000/svg">
<path d="M8.40489 0.535308C8.48292 0.460812 8.57561 0.401707 8.67766 0.361379C8.77972 0.321051 8.88912 0.300293 8.99961 0.300293C9.1101 0.300293 9.2195 0.321051 9.32155 0.361379C9.4236 0.401707 9.5163 0.460812 9.59433 0.535308C10.0328 0.954481 11.9598 2.85516 13.7826 5.3398C15.5802 7.78924 17.3996 10.965 17.3996 13.9009C17.3996 16.7487 16.4302 18.9645 14.8527 20.4684C13.2819 21.9675 11.1685 22.7003 8.99961 22.7003C6.83073 22.7003 4.71729 21.9675 3.14649 20.4684C1.56897 18.9645 0.599609 16.7503 0.599609 13.9009C0.599609 10.965 2.41905 7.78924 4.21665 5.3414C5.4753 3.63512 6.87588 2.02792 8.40489 0.535308Z" fill="white"/>
</svg>
