<svg width="65" height="64" viewBox="0 0 65 64" fill="none" xmlns="http://www.w3.org/2000/svg">
<rect x="0.820312" width="64" height="64" rx="32" fill="white"/>
<rect x="1.14031" y="0.32" width="63.36" height="63.36" rx="31.68" stroke="black" stroke-opacity="0.15" stroke-width="0.64"/>
<path d="M46.6264 29.2443H45.4922V29.1859H32.8202V34.8179H40.7775C39.6167 38.0964 36.4972 40.4499 32.8202 40.4499C28.1548 40.4499 24.3722 36.6673 24.3722 32.0019C24.3722 27.3365 28.1548 23.5539 32.8202 23.5539C34.9738 23.5539 36.933 24.3663 38.4248 25.6933L42.4073 21.7108C39.8926 19.3672 36.5289 17.9219 32.8202 17.9219C25.0446 17.9219 18.7402 24.2262 18.7402 32.0019C18.7402 39.7776 25.0446 46.0819 32.8202 46.0819C40.5959 46.0819 46.9002 39.7776 46.9002 32.0019C46.9002 31.0578 46.8031 30.1363 46.6264 29.2443Z" fill="#FFC107"/>
<path d="M20.3633 25.4483L24.9893 28.8409C26.241 25.7419 29.2724 23.5539 32.8199 23.5539C34.9734 23.5539 36.9326 24.3663 38.4244 25.6933L42.4069 21.7108C39.8922 19.3672 36.5285 17.9219 32.8199 17.9219C27.4117 17.9219 22.7217 20.9751 20.3633 25.4483Z" fill="#FF3D00"/>
<path d="M32.8199 46.0815C36.4567 46.0815 39.7613 44.6896 42.2598 42.4263L37.9021 38.7387C36.4409 39.8499 34.6555 40.4509 32.8199 40.4495C29.1577 40.4495 26.0481 38.1143 24.8766 34.8555L20.2852 38.3931C22.6154 42.9529 27.3477 46.0815 32.8199 46.0815Z" fill="#4CAF50"/>
<path d="M46.6265 29.2459H45.4923V29.1875H32.8203V34.8195H40.7776C40.2223 36.3799 39.222 37.7433 37.9004 38.7415L37.9025 38.7401L42.2602 42.4276C41.9519 42.7078 46.9003 39.0435 46.9003 32.0035C46.9003 31.0594 46.8032 30.1379 46.6265 29.2459Z" fill="#1976D2"/>
</svg>
