<svg width="24" height="21" viewBox="0 0 24 21" fill="none" xmlns="http://www.w3.org/2000/svg">
<path fill-rule="evenodd" clip-rule="evenodd" d="M15.716 0.668211C18.859 -0.248789 21.561 1.32621 22.499 3.25121C23.5304 5.36341 23.4181 7.68201 22.1721 10.1666C22.1651 10.1664 22.1581 10.1663 22.151 10.1663H14.801C14.5133 10.1663 14.2521 10.3344 14.133 10.5964L13.1016 12.8655L10.5844 6.43267C10.4754 6.15408 10.2082 5.96956 9.90904 5.9663C9.6099 5.96304 9.33873 6.14169 9.22367 6.41783L7.66183 10.1663H2.20104C2.08164 10.1663 1.9689 10.1948 1.86925 10.2454C0.582411 7.73103 0.456667 5.38573 1.49898 3.25121C2.43698 1.32621 5.13198 -0.234789 8.28198 0.668211C9.78386 1.10203 11.0942 2.03236 11.999 3.30721C12.9037 2.03236 14.2141 1.10203 15.716 0.668211ZM2.68663 11.6339C2.82453 11.8416 2.96998 12.0504 3.12298 12.2602C4.99898 14.8292 7.67998 17.4332 11.572 20.4572C11.695 20.5531 11.8465 20.6052 12.0025 20.6052C12.1585 20.6052 12.31 20.5531 12.433 20.4572C16.318 17.4402 19.006 14.8572 20.882 12.2602C21.0345 12.0504 21.1796 11.8416 21.3171 11.6339H15.2736L13.7191 15.0537C13.597 15.3222 13.3262 15.4915 13.0314 15.4836C12.7366 15.4757 12.4751 15.2921 12.3677 15.0175L9.87968 8.65925L8.8284 11.1823C8.71447 11.4558 8.44728 11.6339 8.15104 11.6339H2.68663Z" fill="white"/>
</svg>
