<svg width="32" height="30" viewBox="0 0 32 30" fill="none" xmlns="http://www.w3.org/2000/svg">
<path d="M30.9974 4.34674C29.6574 1.59674 25.7974 -0.653265 21.3074 0.656735C19.1619 1.27647 17.2899 2.60552 15.9974 4.42674C14.7049 2.60552 12.833 1.27647 10.6874 0.656735C6.18743 -0.633265 2.33743 1.59674 0.997426 4.34674C-0.882574 8.19674 -0.102574 12.5267 3.31743 17.2167C5.99743 20.8867 9.82743 24.6067 15.3874 28.9267C15.5631 29.0638 15.7796 29.1382 16.0024 29.1382C16.2253 29.1382 16.4417 29.0638 16.6174 28.9267C22.1674 24.6167 26.0074 20.9267 28.6874 17.2167C32.0974 12.5267 32.8774 8.19674 30.9974 4.34674Z" fill="white"/>
<path d="M2 15.2734H10.5L13 9.27344L17.5 20.7734L20 15.2734H30.5" stroke="#FF618F" stroke-width="2" stroke-linecap="round" stroke-linejoin="round"/>
</svg>
