<svg width="35" height="32" viewBox="0 0 35 32" fill="none" xmlns="http://www.w3.org/2000/svg">
<path fill-rule="evenodd" clip-rule="evenodd" d="M23.0759 1.25256C27.7904 -0.12294 31.8434 2.23956 33.2504 5.12706C34.8045 8.30954 34.6275 11.8044 32.7349 15.5501C32.7331 15.5501 32.7313 15.5501 32.7296 15.5501H21.7046C21.2928 15.5501 20.9191 15.7908 20.7487 16.1656L19.1519 19.6785L15.3324 9.91749C15.1764 9.51887 14.7941 9.25484 14.366 9.25017C13.938 9.24551 13.55 9.50114 13.3853 9.89627L11.0296 15.5501H2.80457C2.63344 15.5501 2.47188 15.5911 2.32913 15.6637C0.377109 11.875 0.180687 8.34168 1.75042 5.12706C3.15742 2.23956 7.19992 -0.10194 11.9249 1.25256C14.1777 1.90329 16.1433 3.29878 17.5004 5.21106C18.8576 3.29878 20.8231 1.90329 23.0759 1.25256ZM3.49817 17.6501C3.71499 17.9785 3.94441 18.3087 4.18642 18.6406C7.00042 22.4941 11.0219 26.4001 16.8599 30.9361C17.0444 31.08 17.2717 31.1581 17.5057 31.1581C17.7396 31.1581 17.9669 31.08 18.1514 30.9361C23.9789 26.4106 28.0109 22.5361 30.8249 18.6406C31.0662 18.3087 31.295 17.9785 31.5112 17.6501H22.3807L20.0355 22.8096C19.8608 23.1938 19.4732 23.4361 19.0514 23.4247C18.6296 23.4134 18.2555 23.1507 18.1018 22.7577L14.324 13.1035L12.6988 17.004C12.5358 17.3952 12.1535 17.6501 11.7296 17.6501H3.49817Z" fill="#FF618F"/>
</svg>
