<svg width="47" height="43" viewBox="0 0 47 43" fill="none" xmlns="http://www.w3.org/2000/svg">
<path d="M44.841 6.3657C42.9101 2.40296 37.3478 -0.83928 30.8777 1.04842C27.786 1.94147 25.0886 3.85662 23.2261 6.48098C21.3635 3.85662 18.6661 1.94147 15.5744 1.04842C9.08988 -0.81046 3.54205 2.40296 1.61111 6.3657C-1.09796 11.9135 0.0260193 18.153 4.95423 24.9113C8.81609 30.1998 14.3351 35.5603 22.347 41.7854C22.6002 41.9829 22.9121 42.0901 23.2333 42.0901C23.5544 42.0901 23.8663 41.9829 24.1195 41.7854C32.117 35.5747 37.6504 30.2574 41.5123 24.9113C46.4261 18.153 47.5501 11.9135 44.841 6.3657Z" fill="white"/>
<path d="M3.05664 22.1108H15.3051L18.9076 13.4648L25.3921 30.0363L28.9946 22.1108H44.125" stroke="#FF618F" stroke-width="3.19236" stroke-linecap="round" stroke-linejoin="round"/>
</svg>
