<svg width="28" height="28" viewBox="0 0 28 28" fill="none" xmlns="http://www.w3.org/2000/svg">
<path d="M13.0791 0.349315C13.5892 -0.116437 14.4108 -0.116439 14.9209 0.349314L27.6092 11.9341C28.4404 12.693 27.8578 14 26.6883 14H1.31172C0.142185 14 -0.440401 12.693 0.390836 11.9341L13.0791 0.349315Z" fill="#3C8AFF"/>
<path d="M3.65234 14H24.348V26C24.348 27.1046 23.4526 28 22.348 28H5.65234C4.54777 28 3.65234 27.1046 3.65234 26V14Z" fill="#C4DCFF"/>
<path d="M10.957 21.832C10.957 20.7275 11.8525 19.832 12.957 19.832H15.044C16.1486 19.832 17.044 20.7275 17.044 21.832V27.9987H10.957V21.832Z" fill="#3C8AFF"/>
</svg>
