<svg width="26" height="25" viewBox="0 0 26 25" fill="none" xmlns="http://www.w3.org/2000/svg">
<path d="M25.0023 13.0596L14.0001 0.824735C13.5368 0.308422 12.6469 0.308422 12.1835 0.824735L1.18134 13.0596C1.02298 13.2353 0.91903 13.4533 0.882136 13.687C0.845241 13.9207 0.87699 14.1601 0.973522 14.3761C1.16912 14.8178 1.60676 15.1016 2.08963 15.1016H4.53457V23.6661C4.53457 23.9906 4.66336 24.3018 4.89262 24.5312C5.12188 24.7607 5.43281 24.8896 5.75703 24.8896H20.4266C20.7508 24.8896 21.0618 24.7607 21.291 24.5312C21.5203 24.3018 21.6491 23.9906 21.6491 23.6661V15.1016H24.094C24.3308 15.1026 24.5627 15.0347 24.7615 14.9061C24.9604 14.7774 25.1175 14.5937 25.2138 14.3772C25.3101 14.1607 25.3413 13.9209 25.3038 13.6869C25.2663 13.453 25.1615 13.235 25.0023 13.0596ZM17.9817 16.3251H14.3143V19.9956H11.8694V16.3251H8.20196V13.8781H11.8694V10.2077H14.3143V13.8781H17.9817V16.3251Z" fill="#3C8AFF"/>
</svg>
