<svg width="18" height="23" viewBox="0 0 18 23" fill="none" xmlns="http://www.w3.org/2000/svg">
<path d="M5.26254 0.300293C4.59519 0.300293 4.00949 0.739825 3.82506 1.37813L0.657238 12.4C0.593567 12.6214 0.582481 12.8544 0.624853 13.0808C0.667225 13.3071 0.761897 13.5206 0.901407 13.7043C1.04092 13.8881 1.22145 14.0371 1.42878 14.1397C1.63611 14.2422 1.86456 14.2955 2.09613 14.2953H3.87997L2.2327 20.8463C1.86101 22.3231 3.69834 23.3337 4.76132 22.2391L16.9764 9.83981L16.9821 9.83421C17.8831 8.90056 17.2355 7.29921 15.9022 7.29921H12.2923L14.0691 2.26839L14.0719 2.25719C14.1469 2.03366 14.1673 1.79561 14.1316 1.56266C14.0959 1.32972 14.0049 1.10857 13.8663 0.917435C13.7277 0.726302 13.5454 0.570667 13.3344 0.463366C13.1234 0.356064 12.8897 0.30017 12.6527 0.300293H5.26254Z" fill="#FDFDFD"/>
</svg>
