<svg width="24" height="25" viewBox="0 0 24 25" fill="none" xmlns="http://www.w3.org/2000/svg">
<path d="M14.429 0.430537C14.2285 0.2709 13.9974 0.151591 13.7493 0.0795164C13.5011 0.00744157 13.2407 -0.0159676 12.9831 0.0106437C12.7256 0.0372551 12.4761 0.113359 12.2489 0.234549C12.0218 0.355739 11.8216 0.519609 11.6599 0.716673L5.98858 7.63736H8.49525L13.1894 1.907L14.6973 3.10687L10.9177 7.63736H13.44L16.215 4.31055L19.5794 6.98688L18.9958 7.63736H19.5833C20.1673 7.63676 20.7482 7.72099 21.3067 7.88726C21.52 7.49741 21.5878 7.04751 21.4985 6.61438C21.4092 6.18124 21.1684 5.79173 20.8171 5.51232L14.429 0.430537ZM1.95833 8.59115C1.95833 8.33819 2.0615 8.09559 2.24512 7.91672C2.42875 7.73785 2.67781 7.63736 2.9375 7.63736H4.03025L5.58713 5.72979H2.9375C2.15843 5.72979 1.41126 6.03125 0.860374 6.56786C0.309486 7.10447 0 7.83227 0 8.59115V20.0366C0 21.3014 0.51581 22.5144 1.43396 23.4088C2.3521 24.3031 3.59738 24.8056 4.89583 24.8056H19.5833C20.6221 24.8056 21.6183 24.4036 22.3528 23.6881C23.0874 22.9726 23.5 22.0022 23.5 20.9904V13.3601C23.5 12.3483 23.0874 11.3779 22.3528 10.6624C21.6183 9.94689 20.6221 9.54494 19.5833 9.54494H2.9375C2.67781 9.54494 2.42875 9.44445 2.24512 9.26558C2.0615 9.08671 1.95833 8.84411 1.95833 8.59115ZM16.6458 17.1752H18.6042C18.8639 17.1752 19.1129 17.2757 19.2965 17.4546C19.4802 17.6335 19.5833 17.8761 19.5833 18.129C19.5833 18.382 19.4802 18.6246 19.2965 18.8035C19.1129 18.9823 18.8639 19.0828 18.6042 19.0828H16.6458C16.3861 19.0828 16.1371 18.9823 15.9535 18.8035C15.7698 18.6246 15.6667 18.382 15.6667 18.129C15.6667 17.8761 15.7698 17.6335 15.9535 17.4546C16.1371 17.2757 16.3861 17.1752 16.6458 17.1752Z" fill="#2E2E42"/>
</svg>
