<svg width="14" height="17" viewBox="0 0 14 17" fill="none" xmlns="http://www.w3.org/2000/svg">
<path d="M9 4.5626V0.100098H2.75C2.33437 0.100098 2 0.451191 2 0.887598V8.5001H0.25C0.1125 8.5001 0 8.61822 0 8.7626V9.2876C0 9.43197 0.1125 9.5501 0.25 9.5501H4.65312C4.74687 9.5501 4.83437 9.60588 4.87812 9.69447L5.5 11.0004L7.275 7.26963C7.36562 7.07604 7.63125 7.07604 7.72187 7.26963L8.80625 9.5501H11C11.275 9.5501 11.5 9.78635 11.5 10.0751C11.5 10.3638 11.275 10.6001 11 10.6001H8.19062L7.5 9.14979L5.725 12.8806C5.63437 13.0742 5.36875 13.0742 5.27812 12.8806L4.19062 10.6001H2V16.1126C2 16.549 2.33437 16.9001 2.75 16.9001H13.25C13.6656 16.9001 14 16.549 14 16.1126V5.3501H9.75C9.3375 5.3501 9 4.99572 9 4.5626ZM13.7812 3.54541L10.7219 0.329785C10.5812 0.182129 10.3906 0.100098 10.1906 0.100098H10V4.3001H14V4.09994C14 3.89322 13.9219 3.69307 13.7812 3.54541Z" fill="white"/>
</svg>
