<svg width="138" height="138" viewBox="0 0 138 138" fill="none" xmlns="http://www.w3.org/2000/svg">
<circle cx="69" cy="69" r="69" fill="#E2EDFF"/>
<mask id="mask0_2199_25850" style="mask-type:alpha" maskUnits="userSpaceOnUse" x="0" y="0" width="138" height="138">
<circle cx="69" cy="69" r="69" fill="#E2EDFF"/>
</mask>
<g mask="url(#mask0_2199_25850)">
<path d="M124.697 40.3644C124.294 37.0913 121.525 34.0386 118.226 34.0386C116.279 34.0386 114.429 35.0549 113.099 36.4748C112.627 36.9563 112.191 37.4721 111.795 38.018C111.516 37.4051 111.192 36.8143 110.824 36.2506C109.8 34.5954 108.186 33.2316 106.276 32.8504C103.044 32.204 99.7302 34.6477 98.6877 37.7788C97.6452 40.91 98.5121 44.4185 100.227 47.2358C101.942 50.0531 104.89 53.7335 110.316 55.5606C114.052 55.0786 119.081 51.7569 121.316 49.3319C123.55 46.907 125.089 43.6338 124.697 40.3644Z" fill="#3C8AFF"/>
<path d="M123.494 46.2382C123.458 46.2423 123.422 46.2423 123.386 46.2382L123.069 46.2158L121.847 46.1149L117.363 45.7039L117.445 45.6553C116.903 47.0639 116.272 48.7154 115.577 50.5127L115.465 50.8041L115.39 50.4977C114.818 48.1363 114.183 45.4872 113.522 42.696C113.316 41.8329 113.111 40.981 112.913 40.1515L113.103 40.1889L109.681 44.8968L109.647 44.9416H109.591L101.715 44.1196L99.4728 43.873L98.8824 43.7983C98.8138 43.7946 98.746 43.782 98.6807 43.7609C98.749 43.7543 98.8178 43.7543 98.8862 43.7609L99.4765 43.802L101.718 43.9963L109.602 44.7436L109.516 44.781L112.924 40.0656L113.059 39.875L113.111 40.1029C113.313 40.9324 113.514 41.7806 113.724 42.6474L115.592 50.4529H115.405C116.111 48.6482 116.758 47.0004 117.311 45.5955L117.329 45.5395H117.389L121.873 46.0177L123.087 46.1597L123.405 46.2008C123.436 46.2093 123.466 46.2219 123.494 46.2382Z" fill="#FAFAFA"/>
<path d="M19.9221 54.6016H17.4561V65.6577H19.9221V54.6016Z" fill="#3C8AFF"/>
<path d="M13.1592 58.8933V61.3594H24.2153V58.8933H13.1592Z" fill="#3C8AFF"/>
<path d="M27.8696 60.1567C27.8604 60.1073 27.8541 60.0574 27.8509 60.0072C27.8509 59.8989 27.8322 59.7531 27.821 59.5701C27.821 59.4729 27.821 59.3645 27.7986 59.2487C27.7762 59.1329 27.7612 59.0021 27.7388 58.8751C27.6974 58.5544 27.6324 58.2372 27.5445 57.926C27.3281 57.067 26.9829 56.2456 26.5207 55.4898C25.4317 53.6639 23.7394 52.2755 21.7359 51.564C19.7325 50.8525 17.5435 50.8627 15.5468 51.5927C15.1377 51.7391 14.7395 51.9139 14.3548 52.1158C13.965 52.33 13.5904 52.571 13.2339 52.837C12.8701 53.1068 12.5244 53.4001 12.1989 53.715C11.8785 54.0477 11.5802 54.4009 11.3059 54.7724C10.7403 55.5347 10.3001 56.3823 10.0019 57.2833C9.3742 59.1513 9.3742 61.1732 10.0019 63.0412C10.2993 63.9426 10.7396 64.7904 11.3059 65.5521C11.5783 65.9252 11.8767 66.2785 12.1989 66.6095C12.5234 66.9267 12.8692 67.2214 13.2339 67.4913C13.5904 67.7573 13.965 67.9983 14.3548 68.2125C14.7402 68.4129 15.1384 68.5876 15.5468 68.7356C17.5436 69.46 19.7302 69.4678 21.7322 68.7575C23.7342 68.0473 25.4269 66.6632 26.5207 64.8422C26.9837 64.0855 27.3289 63.2628 27.5445 62.4023C27.6328 62.0925 27.6977 61.7765 27.7388 61.457C27.7612 61.315 27.7874 61.1879 27.7986 61.0833C27.8098 60.9787 27.7986 60.8591 27.821 60.762C27.821 60.5752 27.8434 60.4332 27.8509 60.3248C27.8538 60.2746 27.86 60.2247 27.8696 60.1754C27.8738 60.2251 27.8738 60.2751 27.8696 60.3248C27.8696 60.4332 27.8696 60.5789 27.8696 60.762V61.087C27.8696 61.2066 27.836 61.3337 27.821 61.4607C27.7838 61.7834 27.7239 62.103 27.6417 62.4172C27.4348 63.2894 27.0959 64.1248 26.6366 64.8945C25.9628 66.0318 25.0539 67.0122 23.9707 67.7699C22.8875 68.5277 21.655 69.0455 20.3556 69.2886C18.7303 69.5899 17.0541 69.4545 15.4982 68.8962C15.0824 68.7458 14.6767 68.5686 14.2839 68.3657C13.4808 67.9233 12.7407 67.3754 12.0831 66.7366C11.7545 66.3995 11.4499 66.0399 11.1714 65.6605C10.5901 64.8831 10.1395 64.016 9.83747 63.0935C9.52956 62.1432 9.36705 61.1518 9.35547 60.1529C9.36917 59.1555 9.53163 58.1656 9.83747 57.2161C10.1411 56.2954 10.5916 55.4298 11.1714 54.6529C11.4508 54.273 11.7554 53.9122 12.0831 53.573C12.4161 53.253 12.7693 52.9548 13.1405 52.68C14.1653 51.9241 15.3347 51.387 16.576 51.1023C17.8172 50.8175 19.1037 50.7912 20.3556 51.0248C21.6486 51.2732 22.874 51.7938 23.9505 52.552C25.0269 53.3103 25.9298 54.2888 26.5992 55.4226C27.0578 56.1913 27.3967 57.0254 27.6043 57.8961C27.6863 58.2117 27.7462 58.5325 27.7837 58.8564C27.7837 58.9946 27.8248 59.1254 27.8322 59.23V59.5514C27.8322 59.7382 27.8322 59.8839 27.8322 59.9923C27.8497 60.0458 27.8622 60.1008 27.8696 60.1567Z" fill="#3C8AFF"/>
<path d="M55.029 34.0331C54.8945 33.9808 49.6822 32.6133 49.996 37.8854C50.3099 43.1576 55.5372 41.7527 55.5409 41.5995C55.5447 41.4463 55.029 34.0331 55.029 34.0331Z" fill="#B78876"/>
<path d="M53.8113 39.7026C53.7851 39.6839 53.7216 39.7698 53.5721 39.852C53.3586 39.9588 53.1118 39.9776 52.8846 39.9043C52.3167 39.7362 51.7936 38.8805 51.7114 37.9315C51.6706 37.4876 51.7267 37.0401 51.8758 36.62C51.9152 36.4519 51.995 36.2961 52.1083 36.1658C52.2216 36.0356 52.3649 35.935 52.5259 35.8727C52.6298 35.8384 52.7425 35.8417 52.8443 35.882C52.946 35.9223 53.0304 35.997 53.0827 36.0932C53.1611 36.2351 53.135 36.3435 53.1611 36.351C53.1873 36.3584 53.2695 36.2538 53.2134 36.0408C53.1774 35.9113 53.0967 35.7988 52.9855 35.7232C52.9108 35.6724 52.8267 35.637 52.7382 35.619C52.6497 35.6011 52.5585 35.6009 52.4699 35.6186C52.2563 35.6744 52.0607 35.7842 51.9017 35.9372C51.7428 36.0903 51.6257 36.2817 51.5619 36.493C51.3613 36.9641 51.2817 37.4778 51.3303 37.9875C51.4274 39.0487 52.0327 40.009 52.8061 40.1846C52.9504 40.2173 53.1002 40.2172 53.2445 40.1842C53.3887 40.1512 53.5237 40.0862 53.6394 39.994C53.8075 39.8296 53.8299 39.71 53.8113 39.7026Z" fill="#AA6550"/>
<path d="M68.1895 15.207C70.8685 15.207 73.5961 15.207 76.9477 16.9594C79.0625 18.0804 80.3778 19.8103 81.48 21.9252C82.3592 23.6445 82.7885 25.5586 82.728 27.4888C82.6308 29.3121 82.6234 30.5863 81.8948 32.2602" fill="#263238"/>
<path d="M67.1174 15.6218C69.0004 15.4877 70.8912 15.7304 72.6793 16.3357C74.4674 16.941 76.1169 17.8969 77.5312 19.1473C78.9455 20.3977 80.0962 21.9176 80.9161 23.618C81.7359 25.3185 82.2085 27.1654 82.306 29.0507C82.6498 35.653 82.9524 42.7933 82.8814 46.3878C82.7245 54.1073 74.9938 55.2469 74.9938 55.2469C74.9938 55.2469 75.1657 57.5336 75.3674 60.3733C75.4573 61.7299 75.2743 63.0907 74.8293 64.3754C74.3842 65.66 73.6861 66.8423 72.7762 67.8525C71.8664 68.8627 70.7632 69.6802 69.532 70.2568C68.3007 70.8333 66.9664 71.1571 65.6078 71.2091C64.2729 71.2601 62.9411 71.0474 61.6885 70.5832C60.4359 70.1191 59.2871 69.4125 58.3077 68.504C57.3284 67.5955 56.5378 66.5028 55.9812 65.2885C55.4245 64.0741 55.1127 62.762 55.0636 61.427L53.9165 30.3173C53.7766 26.6303 55.0776 23.0336 57.5438 20.2891C60.0099 17.5447 63.4476 15.8681 67.1286 15.6144L67.1174 15.6218Z" fill="#B78876"/>
<path d="M74.9934 55.248C74.9934 55.248 70.2481 55.4946 65.0918 52.1953C65.0918 52.1953 67.4271 57.8 75.1316 57.1797L74.9934 55.248Z" fill="#AA6550"/>
<path d="M79.3468 33.3434C79.3528 33.6335 79.2438 33.9142 79.0436 34.1243C78.8434 34.3343 78.5682 34.4565 78.2782 34.4644C78.1384 34.474 77.9982 34.4555 77.8657 34.4101C77.7332 34.3647 77.6111 34.2932 77.5067 34.1999C77.4022 34.1066 77.3175 33.9933 77.2575 33.8668C77.1975 33.7402 77.1634 33.6029 77.1572 33.463C77.1569 33.1746 77.2678 32.8971 77.4668 32.6883C77.6659 32.4795 77.9377 32.3555 78.2258 32.3421C78.3655 32.333 78.5055 32.3518 78.6378 32.3974C78.7701 32.443 78.8919 32.5145 78.9963 32.6077C79.1006 32.7009 79.1854 32.814 79.2455 32.9403C79.3057 33.0666 79.3401 33.2037 79.3468 33.3434Z" fill="#263238"/>
<path d="M80.4189 31.7794C80.2806 31.9213 79.4511 31.2974 78.2629 31.2899C77.0747 31.2824 76.2041 31.8728 76.0771 31.7271C76.0136 31.6598 76.1556 31.402 76.5367 31.1292C77.0518 30.7761 77.6647 30.5931 78.2891 30.6061C78.9057 30.6066 79.5058 30.8058 80.0004 31.1741C80.3628 31.4543 80.4861 31.7158 80.4189 31.7794Z" fill="#263238"/>
<path d="M67.7148 33.3432C67.7208 33.6339 67.6113 33.9152 67.4103 34.1253C67.2093 34.3354 66.9331 34.4573 66.6424 34.4641C66.5028 34.4732 66.3628 34.4544 66.2305 34.4088C66.0982 34.3632 65.9764 34.2917 65.872 34.1985C65.7677 34.1053 65.6829 33.9922 65.6227 33.8659C65.5626 33.7396 65.5281 33.6025 65.5215 33.4628C65.5212 33.1737 65.6326 32.8957 65.8324 32.6868C66.0323 32.478 66.3051 32.3544 66.5939 32.3418C66.7334 32.3333 66.8732 32.3524 67.0053 32.3982C67.1373 32.444 67.259 32.5156 67.3632 32.6087C67.4675 32.7018 67.5522 32.8147 67.6125 32.9407C67.6729 33.0668 67.7076 33.2036 67.7148 33.3432Z" fill="#263238"/>
<path d="M68.7573 31.9118C68.6191 32.0538 67.7858 31.4298 66.6014 31.4223C65.4169 31.4149 64.5426 32.0015 64.4118 31.8558C64.352 31.7922 64.4903 31.5307 64.8751 31.2579C65.3912 30.9068 66.0034 30.7241 66.6275 30.7348C67.2436 30.739 67.8425 30.9378 68.3388 31.3028C68.6901 31.5867 68.8246 31.8445 68.7573 31.9118Z" fill="#263238"/>
<path d="M72.9906 40.7311C72.9906 40.6638 73.7379 40.5442 74.9186 40.3985C75.2213 40.3686 75.509 40.3126 75.5613 40.1071C75.5914 39.794 75.5235 39.4794 75.367 39.2066C75.0905 38.4593 74.7953 37.712 74.4889 36.8937C73.2708 33.5982 72.3928 30.893 72.5273 30.8444C72.6618 30.7958 73.7566 33.4263 74.9709 36.7219C75.2661 37.5327 75.5463 38.3061 75.8116 39.0497C75.9994 39.4159 76.0523 39.8365 75.9611 40.2379C75.915 40.3442 75.8458 40.4389 75.7586 40.5151C75.6713 40.5914 75.5682 40.6473 75.4567 40.6788C75.2891 40.7203 75.1174 40.7429 74.9448 40.746C73.7416 40.8095 72.9943 40.8095 72.9906 40.7311Z" fill="#263238"/>
<path d="M69.4929 41.5353C69.6872 41.5353 69.676 42.8131 70.7707 43.7361C71.8655 44.659 73.2405 44.5282 73.248 44.7075C73.248 44.7897 72.9379 44.9579 72.3587 44.9691C71.6036 44.9705 70.872 44.7059 70.2925 44.2218C69.7372 43.7569 69.3825 43.0958 69.3023 42.376C69.2575 41.8529 69.4032 41.5278 69.4929 41.5353Z" fill="#263238"/>
<path d="M69.0966 27.2804C68.977 27.6017 67.7963 27.4411 66.4026 27.598C65.0089 27.7549 63.8805 28.1248 63.6974 27.8334C63.619 27.6951 63.817 27.3925 64.2728 27.0861C64.8813 26.7092 65.5676 26.4757 66.2797 26.4032C66.9917 26.3307 67.711 26.4211 68.3829 26.6676C68.8948 26.8582 69.1489 27.1122 69.0966 27.2804Z" fill="#263238"/>
<path d="M80.2505 27.5588C80.0412 27.8278 79.2267 27.5401 78.244 27.5214C77.2613 27.5028 76.4281 27.6858 76.2375 27.4019C76.1553 27.2636 76.2861 26.9946 76.6522 26.7443C77.1432 26.4416 77.7132 26.2921 78.2895 26.3147C78.8658 26.3374 79.4223 26.5311 79.888 26.8713C80.2318 27.1515 80.3439 27.428 80.2505 27.5588Z" fill="#263238"/>
<path d="M53.9936 32.734C53.9936 32.734 54.3299 34.52 54.4196 35.3234C54.4532 35.6186 54.4196 38.8879 55.2079 39.0598C55.8917 39.2018 57.248 38.5778 57.8534 37.2252C58.4587 35.8726 59.6095 32.6257 59.4824 31.1498C59.3143 29.1395 59.2209 27.092 59.6244 25.1116C60.028 23.1313 60.9733 21.2033 62.5613 19.9553C64.1493 18.7074 66.4472 18.2777 68.2556 19.1819C69.3766 19.7424 70.2023 20.7325 71.2448 21.4238C72.1694 22.0787 73.3018 22.3725 74.4283 22.2495C74.9871 22.1793 75.5147 21.9527 75.9504 21.5957C76.386 21.2388 76.7119 20.766 76.8906 20.2318C77.2194 19.0549 76.6141 17.7658 75.6688 16.9849C74.7234 16.2039 73.5091 15.8452 72.3059 15.6061C68.9663 14.889 65.4918 15.1325 62.2848 16.3086C59.12 17.5379 56.3065 19.8993 54.9613 23.0118C53.3995 26.61 53.5789 28.8182 53.9936 32.7265" fill="#263238"/>
<path d="M71.6377 33.3896C71.6006 32.9619 71.5332 32.5374 71.4359 32.1193C71.1366 30.984 70.4641 29.9825 69.5266 29.2758C68.8854 28.7908 68.1392 28.4632 67.3482 28.3193C66.4398 28.1533 65.5035 28.2319 64.6356 28.5472C64.1682 28.7139 63.7296 28.9522 63.3353 29.2534C62.9142 29.5562 62.5456 29.926 62.2442 30.3482C61.5962 31.2305 61.2467 32.2967 61.2467 33.3915C61.2467 34.4863 61.5962 35.5525 62.2442 36.4348C62.5476 36.8553 62.9159 37.2248 63.3353 37.5296C63.7297 37.8297 64.1683 38.0667 64.6356 38.2321C65.5032 38.5484 66.4395 38.6284 67.3482 38.4637C68.1397 38.3193 68.886 37.9903 69.5266 37.5035C70.4648 36.7983 71.1386 35.7981 71.4396 34.6638C71.535 34.2441 71.6012 33.8184 71.6377 33.3896C71.6432 33.418 71.6432 33.4472 71.6377 33.4756V33.7259C71.6395 33.8624 71.6282 33.9988 71.604 34.1332C71.5863 34.3173 71.5538 34.4998 71.5069 34.6787C71.2288 35.8469 70.5573 36.8839 69.605 37.6156C68.8998 38.159 68.0688 38.5158 67.1891 38.6529C66.3094 38.7901 65.4093 38.7032 64.572 38.4002C64.0863 38.2318 63.63 37.9885 63.2194 37.6791C62.7886 37.3673 62.4102 36.989 62.0985 36.5582C61.4237 35.6438 61.0596 34.5373 61.0596 33.4009C61.0596 32.2644 61.4237 31.1579 62.0985 30.2435C62.7252 29.3902 63.5894 28.7404 64.5832 28.3753C65.4801 28.0551 66.4459 27.9791 67.3818 28.1549C68.1982 28.3099 68.9663 28.6556 69.6237 29.1637C70.5753 29.8944 71.2467 30.93 71.5256 32.0968C71.5726 32.277 71.605 32.4607 71.6227 32.6461C71.6469 32.7792 71.6581 32.9143 71.6564 33.0496V33.3C71.6451 33.3635 71.6414 33.3896 71.6377 33.3896Z" fill="#263238"/>
<path d="M85.2274 33.3935C85.1879 32.9661 85.1205 32.5417 85.0256 32.1231C84.7253 30.9873 84.0514 29.9858 83.1125 29.2796C82.4717 28.794 81.7254 28.4663 80.9342 28.3231C80.027 28.157 79.0919 28.2357 78.2253 28.551C77.2686 28.9034 76.4368 29.5298 75.8339 30.352C75.1837 31.2334 74.8328 32.3 74.8328 33.3953C74.8328 34.4907 75.1837 35.5572 75.8339 36.4387C76.136 36.859 76.503 37.2286 76.9212 37.5335C77.3165 37.8344 77.7565 38.0714 78.2253 38.2359C79.0916 38.5523 80.0267 38.6323 80.9342 38.4676C81.7257 38.3231 82.472 37.9941 83.1125 37.5073C84.0507 36.8022 84.7245 35.802 85.0256 34.6676C85.1207 34.2478 85.1881 33.8221 85.2274 33.3935C85.229 33.4221 85.229 33.4508 85.2274 33.4794C85.2274 33.5467 85.2274 33.6289 85.2274 33.7298C85.2288 33.8661 85.2188 34.0023 85.1975 34.137C85.1784 34.3213 85.1446 34.5037 85.0966 34.6826C84.8214 35.852 84.1493 36.8899 83.1948 37.6194C82.5373 38.1268 81.7691 38.4712 80.9529 38.6245C80.0159 38.8041 79.0479 38.728 78.1505 38.4041C77.1552 38.0437 76.2909 37.3929 75.6695 36.5358C74.9925 35.6224 74.627 34.5155 74.627 33.3785C74.627 32.2415 74.9925 31.1346 75.6695 30.2212C75.9808 29.79 76.3593 29.4116 76.7905 29.1003C77.2018 28.7911 77.6579 28.5467 78.1431 28.3754C79.0412 28.0551 80.0082 27.979 80.9454 28.155C81.7619 28.3095 82.5301 28.6552 83.1873 29.1638C84.1409 29.8926 84.8129 30.929 85.0891 32.0969C85.1372 32.2771 85.1709 32.4607 85.19 32.6462C85.2113 32.7796 85.2213 32.9146 85.2199 33.0497C85.2199 33.1506 85.2199 33.2328 85.2199 33.3001C85.2245 33.331 85.227 33.3622 85.2274 33.3935Z" fill="#263238"/>
<path d="M74.8587 32.8303C74.8587 32.8602 74.6681 32.763 74.3729 32.6659C73.9871 32.5361 73.5797 32.4828 73.1735 32.509C72.7718 32.5388 72.3791 32.6427 72.0152 32.8154C71.735 32.9536 71.5781 33.0732 71.5594 33.047C71.5407 33.0209 71.6715 32.8714 71.933 32.6958C72.3012 32.4739 72.7171 32.3432 73.1461 32.3146C73.5751 32.286 74.0047 32.3603 74.3991 32.5314C74.7242 32.6734 74.8736 32.8154 74.8587 32.8303Z" fill="#263238"/>
<path d="M76.9623 19.8067C77.0408 19.4069 76.9063 19.1827 77.1342 19.0183C77.3621 18.8539 77.8815 19.3247 78.0534 19.519C78.1132 19.5825 78.2925 19.3359 78.3635 19.2911C78.4413 19.1309 78.487 18.957 78.498 18.7792C78.4644 18.499 78.0272 18.4055 77.8217 18.2337C77.6096 18.0473 77.3616 17.9062 77.0931 17.8189C76.9837 17.7648 76.862 17.7401 76.7402 17.7473C76.6183 17.7545 76.5004 17.7934 76.3981 17.86C76.3374 17.9318 76.2922 18.0152 76.2652 18.1052C76.2382 18.1952 76.23 18.2898 76.2412 18.3831C76.2401 18.5701 76.2756 18.7554 76.3458 18.9286C76.4161 19.103 76.5495 19.2444 76.7195 19.3247" fill="#263238"/>
<path d="M53.7071 28.6328C53.7071 28.6328 57.4921 30.0191 59.4612 30.856L59.3492 28.9205L53.8454 26.7422C53.8454 26.7422 53.7034 28.1807 53.7071 28.6328Z" fill="#EBEBEB"/>
<path d="M54.0615 25.625C54.9761 25.9083 55.8711 26.2515 56.7406 26.6525C57.6388 26.9948 58.5127 27.398 59.3561 27.8594C58.4414 27.5761 57.5465 27.2329 56.677 26.8319C55.7787 26.4896 54.9049 26.0864 54.0615 25.625Z" fill="#EBEBEB"/>
<path d="M55.2013 66.3963L54.9098 57.2383C54.9098 57.2383 56.7295 65.6192 66.2612 65.5108C75.3669 65.4062 75.2025 58.1276 75.2025 58.1276L75.5276 61.8192V76.7314L69.5866 101.059L61.9979 102.008L53.6133 68.754L55.2013 66.3963Z" fill="#3C8AFF"/>
<path d="M74.3544 63.4666C74.3261 63.5354 74.2898 63.6006 74.246 63.6608C74.132 63.8449 74.0073 64.0221 73.8724 64.1914C73.3932 64.8219 72.8212 65.3762 72.176 65.8355C71.2187 66.5207 70.1452 67.027 69.0075 67.33C67.6139 67.704 66.161 67.8042 64.7293 67.6252C63.3034 67.4289 61.9167 67.0116 60.6192 66.3885C59.5662 65.8846 58.565 65.2789 57.63 64.58C56.9975 64.1159 56.3912 63.6169 55.8141 63.0854C55.6086 62.8986 55.4592 62.7417 55.3545 62.6371C55.2988 62.5879 55.2487 62.5328 55.2051 62.4727C55.2685 62.5122 55.3273 62.5586 55.3807 62.6109L55.8664 63.0294C56.2849 63.403 56.9052 63.9 57.7122 64.4791C58.6519 65.1561 59.6526 65.744 60.7014 66.2353C61.9837 66.8401 63.3508 67.2458 64.7555 67.4384C66.1612 67.6148 67.5878 67.5223 68.959 67.1656C70.0797 66.8746 71.1416 66.3917 72.0976 65.7383C72.7396 65.2948 73.3168 64.7641 73.8126 64.1615C74.1713 63.7132 74.3395 63.4553 74.3544 63.4666Z" fill="#263238"/>
<path d="M67.7399 141.655L67.6017 98.4244L55.3237 66.885L54.9127 57.3906L47.4398 63.0476C47.4398 63.0476 36.5555 100.513 36.3724 99.2202C36.1893 97.9274 36.3724 141.655 36.3724 141.655H67.7399Z" fill="#EBEBEB"/>
<path d="M67.4458 141.534C67.3935 141.534 67.3486 131.793 67.3486 119.777C67.3486 107.76 67.3935 98.0195 67.4458 98.0195C67.4981 98.0195 67.5429 107.76 67.5429 119.777C67.5429 131.793 67.4981 141.534 67.4458 141.534Z" fill="#263238"/>
<path d="M47.541 69.207L49.058 70.3579L47.9931 77.3525L65.9132 96.1244L49.6372 74.7482L51.0234 69.207H47.541Z" fill="#E0E0E0"/>
<path d="M68.4134 119.508L40.9093 111.444L39.9976 90.554L47.5415 63.0312C47.5415 63.0312 29.5617 72.0025 28.3362 77.7192C27.1106 83.436 24.1625 97.3057 23.8524 107.338C23.5722 116.306 23.5311 122.284 25.5787 125.165C31.4449 133.363 70.0948 134.827 85.5338 125.165" fill="#EBEBEB"/>
<path d="M66.2618 96.5733C66.2618 96.5733 66.2281 96.5434 66.1721 96.4724C66.116 96.4014 66.0264 96.293 65.9255 96.166L64.9914 94.9703C64.1768 93.9167 63.0148 92.4071 61.5837 90.5464L50.4005 75.9107L49.5598 74.7898L49.5299 74.7524V74.7076C50.0082 72.7945 50.4752 70.9375 50.9199 69.1664L51.0095 69.286H47.5272H47.4375V69.1963C47.4375 66.9544 47.4375 64.862 47.4375 63.0237V62.9863L47.4674 62.9639L52.874 58.8538L54.3686 57.7328L54.7423 57.4451C54.7847 57.41 54.8311 57.3799 54.8805 57.3555L54.7572 57.4638L54.3836 57.7665L52.9226 58.9098L47.5571 63.0722L47.587 63.0125C47.587 64.8508 47.587 66.9245 47.587 69.1851L47.4973 69.0991H50.9797H51.1291L51.0992 69.2187L49.7167 74.7599L49.6981 74.6777L50.5425 75.7799L61.6771 90.453L65.0399 94.9106C65.4136 95.4337 65.7312 95.8409 65.9442 96.1286C66.0413 96.2631 66.116 96.3715 66.1758 96.45L66.2618 96.5733Z" fill="#263238"/>
<path d="M78.5203 61.4023C76.327 57.5687 75.1874 57.9647 75.1874 57.9647L75.3032 59.3323V62.2056L74.2607 74.5359L67.5986 101.323L67.7369 141.654H92.9243L96.0592 92.4223L95.7752 71.2105L78.5203 61.4023Z" fill="#EBEBEB"/>
<path d="M95.7796 71.2109C95.7796 71.2109 102.3 76.0235 102.879 83.7692C103.338 90.0576 104.373 107.279 104.579 111.027C104.878 116.863 100.331 130.535 88.4936 126.664C81.3943 124.34 55.1719 115.428 55.1719 115.428L56.9168 104.29L88.0415 106.158L88.6617 80.1971L95.7796 71.2109Z" fill="#EBEBEB"/>
<path d="M56.5465 105.574C56.5465 105.574 47.7359 104.621 45.7108 105.114C43.7491 105.589 40.958 107.988 40.958 107.988L40.9991 111.466L55.1715 115.431L56.5465 105.574Z" fill="#B78876"/>
<path d="M67.6016 97.2953C67.6112 97.2541 67.625 97.2141 67.6427 97.1757C67.6726 97.0898 67.7174 96.9739 67.7734 96.8319C67.8967 96.5181 68.0761 96.0846 68.3003 95.5167L70.2731 90.6892L73.2175 83.5376C73.4977 82.8688 73.7742 82.1701 74.1217 81.4863C74.4692 80.8025 74.8465 80.1188 75.2426 79.435C76.1014 78.0409 77.0343 76.6938 78.0375 75.3996C78.5456 74.7458 79.0575 74.1068 79.5881 73.4941V73.5949L78.4896 70.8038L78.4522 70.7104L78.5456 70.6768L83.1303 69.1261L83.0817 69.2532C80.9519 65.6961 79.1547 62.692 77.8768 60.5622C77.2491 59.5085 76.711 58.6641 76.1394 58.3203C75.9241 58.1905 75.6895 58.0958 75.4444 58.0401C75.3573 58.0237 75.2713 58.0025 75.1866 57.9766C75.2744 57.9824 75.3617 57.9937 75.4481 58.0102C75.7021 58.0559 75.9462 58.1457 76.1692 58.2755C76.5159 58.5008 76.8154 58.7914 77.0511 59.1311C77.381 59.5724 77.6866 60.0314 77.9665 60.5061L83.2349 69.1672L83.2909 69.2606L83.1863 69.2943L78.6017 70.8673L78.6577 70.744L79.76 73.5351L79.7824 73.5875L79.7413 73.6323C79.2182 74.2376 78.7063 74.8765 78.2019 75.5304C77.2026 76.8154 76.2722 78.1524 75.4145 79.5359C75.0147 80.2159 74.6224 80.8847 74.2936 81.5685C73.9647 82.2523 73.6733 82.9323 73.3931 83.6049C72.2721 86.2877 71.2558 88.7052 70.4039 90.7415C69.552 92.7779 68.857 94.3995 68.375 95.5429C68.1359 96.0996 67.9453 96.5368 67.8145 96.8469C67.751 96.9889 67.7024 97.0972 67.6613 97.1832C67.6466 97.2231 67.6265 97.2608 67.6016 97.2953Z" fill="#263238"/>
<path d="M99.3554 124.498C99.3237 124.54 99.2873 124.579 99.2471 124.614L98.9108 124.939C98.4684 125.344 97.9893 125.706 97.4797 126.022C96.6674 126.517 95.7859 126.887 94.8642 127.121C93.643 127.423 92.3775 127.504 91.1277 127.36C90.399 127.275 89.6797 127.123 88.9793 126.904C88.232 126.673 87.5146 126.385 86.7374 126.116C85.2017 125.555 83.5502 124.995 81.8165 124.367C78.3416 123.149 74.5117 121.849 70.4764 120.522C62.4056 117.873 55.0448 115.639 49.7092 114.043L43.3871 112.175L41.6683 111.663L41.2237 111.529C41.1722 111.515 41.1222 111.496 41.0742 111.473L41.2312 111.506L41.6795 111.626L43.4095 112.1C44.9041 112.519 47.075 113.135 49.7615 113.913C55.1046 115.471 62.4654 117.686 70.5474 120.339C74.5865 121.662 78.4163 122.955 81.8875 124.195C83.6212 124.812 85.269 125.398 86.8047 125.963C87.5744 126.239 88.2993 126.531 89.0465 126.762C89.7368 126.981 90.4461 127.135 91.1651 127.222C92.403 127.374 93.6581 127.304 94.8717 127.016C95.7898 126.791 96.6707 126.435 97.4872 125.959C97.9966 125.65 98.4791 125.299 98.9295 124.909L99.2769 124.599C99.3005 124.563 99.3268 124.53 99.3554 124.498Z" fill="#263238"/>
<path d="M40.9843 111.528C40.9843 111.569 40.4874 111.461 39.699 111.494C39.2382 111.513 38.7814 111.588 38.3389 111.718C37.7988 111.88 37.2834 112.115 36.807 112.417C35.9464 112.985 35.2187 113.732 34.6735 114.607C34.2587 115.279 34.0756 115.728 34.042 115.728C34.062 115.613 34.0971 115.501 34.1466 115.395C34.2596 115.098 34.3971 114.81 34.5576 114.536C35.0813 113.615 35.8164 112.833 36.7024 112.253C37.1948 111.942 37.7297 111.704 38.2903 111.546C38.7485 111.423 39.2207 111.358 39.6952 111.356C40.0137 111.352 40.3318 111.38 40.6443 111.442C40.7611 111.455 40.8755 111.484 40.9843 111.528Z" fill="#263238"/>
<path d="M32.3193 108.802C32.3193 108.802 32.3193 108.764 32.353 108.701C32.3976 108.612 32.4556 108.53 32.5248 108.458C32.7916 108.197 33.1343 108.027 33.5038 107.972C34.0382 107.884 34.5835 107.884 35.1179 107.972C35.7718 108.058 36.4145 108.215 37.0347 108.439C38.1692 108.838 39.205 109.475 40.0725 110.308C40.331 110.562 40.5673 110.838 40.7787 111.133C40.8607 111.238 40.9297 111.352 40.9842 111.473C40.9505 111.499 40.6442 111.021 39.9791 110.408C39.1021 109.624 38.0786 109.021 36.9675 108.634C36.3613 108.416 35.7357 108.257 35.0993 108.159C34.5813 108.066 34.0523 108.051 33.5299 108.114C33.1823 108.154 32.8538 108.294 32.5846 108.518C32.3978 108.678 32.3343 108.809 32.3193 108.802Z" fill="#263238"/>
<path d="M42.5873 84.8215C42.5264 84.638 42.4839 84.449 42.4602 84.2572C42.4042 84.0779 42.3257 83.8649 42.2398 83.6183C42.1538 83.3717 42.0044 83.1027 41.8325 82.8187C41.4304 82.1498 40.9609 81.5238 40.4313 80.9505C39.776 80.2543 39.0567 79.6213 38.2829 79.0598C36.878 78.033 35.2806 77.2997 33.5861 76.9039C33.0705 76.7947 32.547 76.7272 32.0206 76.7021C31.8266 76.7032 31.6329 76.6882 31.4414 76.6573C31.6344 76.6299 31.8295 76.6199 32.0243 76.6274C32.557 76.6215 33.089 76.669 33.6123 76.7694C35.3409 77.1299 36.9719 77.8575 38.395 78.9029C39.1813 79.4685 39.9075 80.1133 40.5621 80.8272C41.0948 81.4141 41.561 82.0582 41.9521 82.7477C42.1202 83.0429 42.2285 83.3306 42.3257 83.5735C42.4228 83.8164 42.4752 84.0517 42.52 84.2348C42.557 84.4284 42.5795 84.6245 42.5873 84.8215Z" fill="#263238"/>
<path d="M94.804 116.753C94.7994 116.709 94.7994 116.664 94.804 116.619V116.227C94.804 115.883 94.7778 115.378 94.7293 114.732C94.5937 112.896 94.2168 111.085 93.6083 109.348C93.4253 108.772 93.1744 108.22 92.861 107.704C92.5114 107.154 92.0034 106.722 91.4038 106.467C90.1521 105.929 88.6463 106 87.1144 105.914L77.0857 105.492C68.7983 105.118 61.4263 104.819 56.7931 104.573L56.8566 104.52C56.5763 106.224 56.3522 107.573 56.199 108.511C56.1205 108.963 56.0607 109.314 56.0159 109.564C55.9972 109.677 55.9785 109.766 55.9673 109.837L55.9449 109.927C55.9415 109.896 55.9415 109.864 55.9449 109.833L55.9822 109.561C56.0159 109.31 56.0682 108.955 56.1317 108.5C56.2737 107.562 56.4755 106.209 56.7333 104.502V104.449H56.7893L77.082 105.294L87.1106 105.746C87.8803 105.783 88.6314 105.802 89.3525 105.862C90.0712 105.902 90.7783 106.061 91.4449 106.332C92.0727 106.596 92.6066 107.043 92.9769 107.614C93.2931 108.142 93.544 108.707 93.7242 109.295C94.3244 111.044 94.6815 112.867 94.7853 114.713C94.8264 115.363 94.8264 115.872 94.8227 116.208C94.8227 116.372 94.8227 116.503 94.8227 116.6C94.8077 116.705 94.804 116.753 94.804 116.753Z" fill="#263238"/>
<path d="M88.8657 92.3828C88.918 92.3828 88.9629 95.3981 88.9629 99.1084C88.9629 102.819 88.918 105.834 88.8657 105.834C88.8134 105.834 88.7686 102.819 88.7686 99.1084C88.7686 95.3981 88.8134 92.3828 88.8657 92.3828Z" fill="#263238"/>
<path d="M28.5526 77.0391C28.5526 77.0391 28.5302 77.125 28.4779 77.2857C28.4256 77.4463 28.3322 77.6892 28.2537 78.0329C28.0706 78.6794 27.839 79.6434 27.5811 80.9026C27.0618 83.4209 26.4228 87.1051 25.7129 91.7159C25.358 94.025 24.9656 96.5732 24.592 99.3046C24.4014 100.676 24.2819 102.103 24.1847 103.583C24.0876 105.062 24.0091 106.572 23.9493 108.156C23.8372 111.299 23.77 114.617 23.8596 118.073C23.8895 118.936 23.9194 119.81 23.9904 120.688C24.0128 121.129 24.0876 121.563 24.1399 122C24.2197 122.437 24.3257 122.868 24.4575 123.293C24.7234 124.15 25.1438 124.952 25.698 125.658C26.2537 126.376 26.9844 126.939 27.8203 127.294C29.599 128.167 31.4538 128.875 33.3614 129.409C35.2932 129.988 37.2884 130.455 39.3136 130.87C43.7201 131.78 48.1941 132.325 52.6901 132.499C54.82 132.554 56.9514 132.499 59.0757 132.335C61.1569 132.189 63.1858 131.961 65.1474 131.681C68.8464 131.157 72.4922 130.309 76.0429 129.148C79.0833 128.144 82.0312 126.878 84.8535 125.366V125.49L72.7997 121.204L69.5452 120.042L68.7045 119.736C68.514 119.665 68.4206 119.623 68.4206 119.623L68.7083 119.717L69.5565 120.005L72.8221 121.125L84.9282 125.348L85.0739 125.396L84.9394 125.471C82.112 126.995 79.1579 128.271 76.1102 129.286C72.5519 130.458 68.8972 131.315 65.1885 131.845C63.2232 132.141 61.1905 132.361 59.1056 132.507C56.9752 132.674 54.8376 132.731 52.7013 132.679C48.194 132.506 43.7086 131.962 39.2912 131.049C37.2586 130.631 35.2596 130.164 33.3129 129.585C31.3941 129.043 29.5282 128.329 27.7381 127.451C26.8673 127.085 26.1055 126.501 25.5261 125.755C24.9594 125.029 24.5301 124.206 24.2594 123.326C24.1239 122.895 24.0153 122.456 23.9344 122.011C23.8783 121.563 23.8073 121.122 23.7849 120.681C23.7139 119.799 23.684 118.921 23.6579 118.065C23.5682 114.598 23.6579 111.28 23.7625 108.134C23.8223 106.565 23.9032 105.039 24.0054 103.557C24.1062 102.062 24.2295 100.642 24.4238 99.271C24.7975 96.5247 25.1935 93.9876 25.5448 91.6822C26.2921 87.0714 26.9422 83.391 27.484 80.8764C27.753 79.6172 27.9922 78.6532 28.1865 78.0068C28.2687 77.6817 28.3733 77.4426 28.4256 77.2819C28.4779 77.1213 28.5526 77.0391 28.5526 77.0391Z" fill="#263238"/>
<path d="M40.9424 108.948C45.542 103.855 45.3402 94.8019 42.6985 88.3789C42.4557 95.3362 41.6336 101.509 41.0059 108.272" fill="#E0E0E0"/>
<path d="M42.7102 89.6758C42.7183 89.7503 42.7183 89.8255 42.7102 89.9C42.7102 90.0681 42.6878 90.2736 42.6691 90.5352C42.6242 91.1143 42.5645 91.9064 42.486 92.8704C42.3216 94.8657 42.1123 97.5746 41.8545 100.571L41.2492 108.276C41.1782 109.24 41.1184 110.032 41.0736 110.611L41.0176 111.243C41.0131 111.317 41.0031 111.39 40.9877 111.463C40.9768 111.39 40.9768 111.316 40.9877 111.243C40.9877 111.074 40.9877 110.869 41.0064 110.604C41.025 110.051 41.0661 109.251 41.1184 108.265C41.2343 106.292 41.4211 103.564 41.6677 100.556C41.9143 97.5485 42.1609 94.8283 42.3589 92.8592C42.4598 91.8952 42.542 91.1068 42.6018 90.5277C42.6354 90.2699 42.6616 90.0606 42.6803 89.8962C42.6802 89.8217 42.6903 89.7476 42.7102 89.6758Z" fill="#263238"/>
<path d="M54.0473 80.4766C54.1459 81.7906 54.1783 83.1087 54.1445 84.426C54.1782 85.7433 54.1458 87.0614 54.0473 88.3754C53.995 88.3754 53.9502 86.6043 53.9502 84.426C53.9502 82.2476 53.995 80.4766 54.0473 80.4766Z" fill="#263238"/>
<path d="M51.0498 93.5981C51.1281 94.3619 51.4223 95.0877 51.898 95.6905C52.3314 96.2547 53.2095 96.8114 53.9157 96.7628C54.4477 96.79 54.9778 96.6786 55.4539 96.4395C55.93 96.2005 56.336 95.842 56.6321 95.399C57.4915 94.0315 57.7044 91.1806 57.0057 89.4955C56.5312 88.3372 55.4663 87.2536 54.2146 87.2274C52.5705 87.1901 51.5393 88.3782 51.1881 89.5814" fill="#E0E0E0"/>
<path d="M51.1963 89.5808C51.2506 89.2965 51.3529 89.0236 51.4989 88.7737C51.6616 88.4734 51.8695 88.1999 52.1154 87.9629C52.4448 87.6472 52.8443 87.4142 53.2812 87.2829C53.5345 87.2053 53.7972 87.1625 54.0621 87.1558C54.3518 87.1401 54.6419 87.1781 54.9178 87.2679C55.5195 87.4808 56.0483 87.8605 56.4422 88.3627C56.8868 88.9049 57.1955 89.5454 57.3427 90.2309C57.4978 90.9586 57.5531 91.704 57.5071 92.4466C57.4324 93.6161 57.2007 94.7819 56.5543 95.6712C56.2329 96.089 55.8042 96.4119 55.3138 96.6053C54.868 96.7841 54.3887 96.8644 53.9089 96.8407C53.5585 96.8438 53.213 96.759 52.9038 96.5941C52.6318 96.452 52.3804 96.2735 52.1565 96.0635C51.8048 95.7129 51.5254 95.2965 51.3345 94.838C51.2065 94.5486 51.1185 94.2431 51.073 93.93C51.0603 93.8484 51.0528 93.766 51.0505 93.6834C51.0457 93.655 51.0457 93.6259 51.0505 93.5975C51.1266 94.012 51.252 94.4159 51.4242 94.8006C51.6238 95.2396 51.9053 95.6366 52.2537 95.9701C52.4792 96.1677 52.7306 96.3336 53.001 96.4633C53.2895 96.6123 53.6103 96.688 53.9351 96.6838C54.4084 96.7073 54.8806 96.6179 55.3127 96.423C55.7447 96.2281 56.1242 95.9333 56.4198 95.5628C57.0214 94.7296 57.253 93.5825 57.324 92.4392C57.4062 90.9446 57.1559 89.4724 56.3152 88.4785C55.9393 88.0019 55.4369 87.6407 54.8655 87.4361C54.6066 87.3504 54.3346 87.3112 54.0621 87.3202C53.8093 87.323 53.558 87.3594 53.3148 87.4286C52.8972 87.549 52.5133 87.7653 52.1939 88.06C51.9496 88.2835 51.7394 88.5416 51.5699 88.826C51.4313 89.0704 51.3065 89.3224 51.1963 89.5808Z" fill="#263238"/>
<path d="M50.1758 93.6715C50.2547 94.4353 50.5488 95.1609 51.024 95.764C51.4536 96.3282 52.3354 96.8849 53.0416 96.8363C53.5737 96.8631 54.1035 96.7515 54.5796 96.5125C55.0557 96.2735 55.4617 95.9152 55.758 95.4725C56.6174 94.1012 56.8304 91.2541 56.1317 89.5689C55.6572 88.4069 54.5923 87.327 53.3406 87.3009C52.6452 87.295 51.9682 87.5237 51.419 87.9502C50.8698 88.3767 50.4805 88.976 50.314 89.6511" fill="#E0E0E0"/>
<path d="M50.3214 89.6512C50.3762 89.3682 50.4785 89.0966 50.6241 88.8478C50.7867 88.5475 50.9947 88.274 51.2406 88.037C51.7645 87.5321 52.4598 87.2438 53.1873 87.2299C53.477 87.2144 53.767 87.2524 54.0429 87.342C54.6447 87.5549 55.1735 87.9346 55.5674 88.4368C56.0122 88.9784 56.3199 89.6192 56.4642 90.305C56.6224 91.0323 56.679 91.778 56.6323 92.5207C56.5576 93.6903 56.3259 94.8523 55.6795 95.7453C55.3581 96.1631 54.9294 96.486 54.439 96.6794C53.9931 96.8582 53.5139 96.9385 53.0341 96.9148C52.6834 96.9168 52.3378 96.8307 52.029 96.6645C51.7563 96.5249 51.5048 96.3475 51.2817 96.1376C50.9277 95.7874 50.6481 95.3693 50.4597 94.9083C50.3318 94.6202 50.2438 94.316 50.1981 94.0041C50.1981 93.8958 50.1757 93.8136 50.172 93.7575C50.1679 93.729 50.1679 93.7001 50.172 93.6716C50.2484 94.0848 50.3738 94.4875 50.5456 94.871C50.7428 95.3125 51.0246 95.7111 51.3751 96.0442C51.6007 96.2418 51.8521 96.4077 52.1224 96.5374C52.4116 96.6847 52.732 96.7603 53.0565 96.7579C53.5293 96.7808 54.0007 96.6911 54.432 96.4963C54.8634 96.3014 55.2423 96.0069 55.5375 95.637C56.1428 94.8 56.3745 93.6566 56.4455 92.5133C56.5277 91.0187 56.2773 89.5465 55.4366 88.5526C55.0667 88.0721 54.5678 87.7067 53.9981 87.499C53.7405 87.4134 53.4698 87.3741 53.1985 87.3831C52.505 87.3938 51.8398 87.6598 51.3303 88.1304C51.086 88.3539 50.8757 88.612 50.7063 88.8964C50.5623 89.1397 50.4338 89.3918 50.3214 89.6512Z" fill="#263238"/>
<path d="M51.7636 89.234C51.349 89.1814 50.9286 89.2657 50.5664 89.4742C50.2042 89.6826 49.92 90.0037 49.7571 90.3886C49.4468 91.1723 49.4468 92.0447 49.7571 92.8285C49.8856 93.2344 50.0982 93.6087 50.3811 93.927C50.6693 94.2475 51.0718 94.4421 51.502 94.4688C51.8134 94.4512 52.116 94.3593 52.3845 94.2007C52.653 94.042 52.8796 93.8213 53.0452 93.5571C53.3343 93.1456 53.5311 92.6764 53.622 92.1818C53.713 91.6871 53.6959 91.1786 53.572 90.6912C53.4002 90.0411 52.9219 89.3797 52.2531 89.361" fill="#E0E0E0"/>
<path d="M52.2493 89.3606C52.2493 89.3606 52.3016 89.3606 52.3987 89.3606C52.5428 89.3771 52.6817 89.4242 52.806 89.4988C53.0263 89.6457 53.2151 89.835 53.3614 90.0557C53.5077 90.2764 53.6085 90.524 53.6579 90.7842C53.8402 91.5507 53.7586 92.3564 53.4263 93.0709C53.2398 93.4991 52.9527 93.876 52.5893 94.1694C52.3939 94.3379 52.1611 94.4573 51.9102 94.5177C51.6594 94.5782 51.3977 94.5779 51.147 94.5169C50.6575 94.361 50.2459 94.0242 49.9962 93.5753C49.767 93.1735 49.6054 92.7367 49.5179 92.2825C49.4245 91.903 49.4094 91.5085 49.4737 91.123C49.5379 90.7376 49.6801 90.3692 49.8916 90.0406C50.043 89.8236 50.2359 89.6385 50.459 89.4962C50.6821 89.3538 50.9312 89.257 51.1919 89.2111C51.3343 89.19 51.4791 89.19 51.6216 89.2111C51.715 89.2298 51.7635 89.2447 51.7635 89.2522C51.5773 89.2458 51.3909 89.257 51.2068 89.2858C50.7142 89.4001 50.2839 89.6982 50.0037 90.1191C49.8101 90.4365 49.6829 90.7899 49.6296 91.1578C49.5763 91.5258 49.598 91.9007 49.6935 92.2601C49.7808 92.6927 49.9386 93.108 50.1606 93.4894C50.3861 93.8949 50.7575 94.1995 51.1993 94.3413C51.4208 94.3954 51.6519 94.3958 51.8735 94.3425C52.0952 94.2892 52.3008 94.1837 52.4735 94.0349C52.8125 93.7589 53.0835 93.4086 53.2656 93.0111C53.589 92.3318 53.6796 91.5649 53.5234 90.829C53.4447 90.3311 53.1771 89.8828 52.7761 89.5773C52.6154 89.4731 52.4368 89.3996 52.2493 89.3606Z" fill="#263238"/>
<path d="M53.6462 95.376C53.6163 95.376 53.5752 95.2564 53.4482 95.107C53.277 94.9147 53.0558 94.7737 52.8092 94.6997C52.5538 94.6263 52.2902 94.5848 52.0246 94.5764C51.8191 94.5764 51.6846 94.5428 51.6846 94.5166C51.6846 94.4905 51.8116 94.4606 52.0246 94.4381C52.3082 94.4079 52.5951 94.4333 52.869 94.5129C53.1545 94.595 53.4002 94.7783 53.5603 95.0285C53.6761 95.2228 53.6686 95.3723 53.6462 95.376Z" fill="#263238"/>
<path d="M53.9423 88.7266C53.9423 88.7266 53.8825 88.8573 53.7106 88.9956C53.4795 89.1723 53.209 89.2902 52.9222 89.3393C52.6362 89.3915 52.3419 89.3761 52.0628 89.2945C51.8536 89.2235 51.7415 89.1413 51.7527 89.1189C52.1236 89.1767 52.5003 89.1868 52.8737 89.1488C53.2459 89.0526 53.6048 88.9108 53.9423 88.7266Z" fill="#263238"/>
<path d="M79.6152 61.9609C79.6152 61.9609 79.6601 61.9609 79.7385 62.0058C79.8526 62.0566 79.9636 62.114 80.0711 62.1776C80.4717 62.4042 80.8474 62.6722 81.192 62.9772C82.341 63.9893 83.176 65.3092 83.5983 66.781C84.0404 68.2265 84.3469 69.71 84.5137 71.2124C84.581 71.7878 84.6146 72.2549 84.637 72.5762C84.6558 72.7438 84.6558 72.913 84.637 73.0806C84.595 72.9177 84.5675 72.7514 84.5548 72.5837C84.5063 72.2287 84.4427 71.7729 84.3717 71.2311C84.165 69.7433 83.8414 68.274 83.404 66.837C82.9884 65.3983 82.1903 64.0992 81.0949 63.0781C80.6299 62.6697 80.1354 62.2963 79.6152 61.9609Z" fill="#263238"/>
<path d="M74.9605 103.087C76.0441 103.046 76.9109 101.966 77.9945 102.026C78.1908 102.043 78.3818 102.098 78.5568 102.188C78.7317 102.279 78.8871 102.403 79.0141 102.553C79.1411 102.704 79.2372 102.878 79.2969 103.066C79.3566 103.254 79.3787 103.451 79.3621 103.647C79.3454 103.844 79.2902 104.035 79.1997 104.21C79.1091 104.385 78.9851 104.54 78.8345 104.667C78.6839 104.794 78.5098 104.89 78.3221 104.95C78.1343 105.01 77.9367 105.032 77.7404 105.015C76.6008 104.884 75.9357 103.55 74.8223 103.296" fill="#263238"/>
<path d="M84.144 104.009C83.8049 104.009 83.4663 103.981 83.1315 103.927L83.1913 103.553C84.5289 103.766 85.6536 103.553 86.5316 102.9C87.6526 102.089 88.3513 100.635 88.6502 98.5802V98.5018C88.7735 97.6872 88.9417 81.7064 88.9417 78.6724C88.9417 73.9309 84.783 73.2845 84.6036 73.2583C84.4243 73.2322 80.6542 72.597 78.6477 77.772C76.5478 83.1935 73.1888 93.6407 72.9683 94.8662C72.9384 95.0157 72.8973 95.2025 72.8525 95.4155C72.5013 96.9848 71.7764 100.247 73.951 102.122C76.376 104.219 78.289 103.408 78.3675 103.374L78.5207 103.714C78.431 103.752 76.3237 104.667 73.7081 102.406C71.3616 100.381 72.1202 96.9736 72.4863 95.3333C72.5349 95.124 72.5723 94.9596 72.5984 94.799C72.8226 93.5659 76.1929 83.074 78.3002 77.6374C80.4076 72.2009 84.6223 72.8809 84.6522 72.8921C84.6821 72.9033 89.3004 73.6021 89.3004 78.6724C89.3004 81.1721 89.136 97.691 89.0052 98.5578V98.6326C88.6913 100.792 87.9291 102.328 86.7371 103.202C85.9826 103.744 85.0729 104.027 84.144 104.009Z" fill="#263238"/>
<path d="M89.1394 81.7331C88.9738 81.0755 88.7119 80.446 88.3622 79.8649C87.9647 79.2519 87.4656 78.7111 86.8863 78.2657C86.1732 77.7272 85.3545 77.3453 84.4838 77.1448C82.8845 76.7928 81.2126 77.0109 79.7572 77.7613C79.1627 78.0862 78.6095 78.4813 78.1094 78.9383C78.133 78.8973 78.1619 78.8596 78.1953 78.8262C78.2807 78.7193 78.3744 78.6194 78.4756 78.5273C78.8387 78.1789 79.2472 77.8811 79.6899 77.6417C81.1662 76.8336 82.8857 76.5893 84.5286 76.9542C85.4259 77.1661 86.267 77.5688 86.9947 78.1349C87.5901 78.5963 88.0966 79.1623 88.4892 79.8051C88.7521 80.2358 88.9462 80.7047 89.0647 81.1951C89.0998 81.3277 89.1261 81.4625 89.1431 81.5986C89.1431 81.6808 89.1469 81.7331 89.1394 81.7331Z" fill="#263238"/>
<path d="M98.6563 111.602C98.5184 111.061 98.3462 110.529 98.1407 110.01C97.6097 108.772 96.7294 107.715 95.6074 106.969C94.9793 106.585 94.2804 106.33 93.5523 106.221C92.9519 106.128 92.347 106.066 91.7402 106.034L90.5109 105.949C90.3597 105.944 90.2094 105.924 90.0625 105.889C90.2126 105.87 90.3645 105.87 90.5146 105.889L91.7476 105.911C92.3603 105.925 92.9717 105.975 93.5785 106.061C94.3338 106.159 95.0603 106.414 95.712 106.808C96.8669 107.572 97.759 108.673 98.2677 109.961C98.4234 110.346 98.5386 110.745 98.6115 111.153C98.6462 111.3 98.6613 111.451 98.6563 111.602Z" fill="#263238"/>
<path d="M79.8057 105.372C79.8057 105.372 83.4823 99.8079 84.4202 99.0793C85.358 98.3507 93.3877 94.7264 94.318 95.3093C95.2484 95.8921 94.6917 97.1551 94.6917 97.1551C94.6917 97.1551 98.0844 95.9669 98.4468 96.4339C98.6418 96.7148 98.7462 97.0486 98.7462 97.3905C98.7462 97.7324 98.6418 98.0661 98.4468 98.347C98.4468 98.347 100.315 98.0593 100.315 98.6384C100.308 99.0273 100.205 99.4085 100.016 99.7485C99.8271 100.089 99.5577 100.377 99.2315 100.589C98.3646 101.239 92.7263 104.99 92.2742 106.029L90.4471 105.917L79.8057 105.372Z" fill="#B78876"/>
<path d="M90.3799 103.777C90.4213 103.653 90.4778 103.535 90.548 103.425C90.727 103.121 90.9294 102.831 91.1533 102.558C91.9047 101.662 92.8062 100.904 93.8174 100.317C94.8234 99.7281 95.8786 99.2281 96.971 98.822C97.3857 98.6613 97.7183 98.5418 97.9611 98.4484C98.0811 98.3987 98.2065 98.3636 98.3348 98.3438C98.2276 98.418 98.1107 98.4771 97.9873 98.5194L97.0196 98.9341C95.9528 99.3706 94.9166 99.8787 93.9183 100.455C92.9252 101.034 92.0278 101.764 91.258 102.618C90.6751 103.309 90.4135 103.795 90.3799 103.777Z" fill="#AA6550"/>
<path d="M85.7207 103.685C85.7643 103.543 85.8245 103.406 85.9001 103.278C86.0271 103.02 86.2102 102.65 86.4643 102.202C86.7573 101.675 87.0962 101.175 87.4768 100.707C87.7027 100.423 87.961 100.166 88.2465 99.9411C88.5567 99.7319 88.8818 99.5376 89.2218 99.3358C90.3708 98.651 91.5698 98.054 92.8088 97.5498C93.1842 97.4013 93.5686 97.2765 93.9596 97.1761C94.1034 97.1346 94.2512 97.1083 94.4005 97.0977C94.4005 97.1313 93.7914 97.2733 92.8611 97.6918C91.6454 98.2305 90.4626 98.8406 89.3189 99.5189C88.9826 99.7169 88.6576 99.9149 88.3549 100.113C88.0798 100.325 87.8291 100.567 87.6076 100.834C87.2246 101.291 86.8797 101.778 86.5764 102.291L85.9561 103.33C85.8906 103.456 85.8117 103.575 85.7207 103.685Z" fill="#AA6550"/>
</g>
</svg>
