<svg width="63" height="63" viewBox="0 0 63 63" fill="none" xmlns="http://www.w3.org/2000/svg">
<path d="M41.0531 19H21.8531C20.6531 19 19.4531 20.08 19.4531 21.4V25.012C19.4531 25.876 19.9691 26.62 20.6531 27.04V40.6C20.6531 41.92 21.9731 43 23.0531 43H39.8531C40.9331 43 42.2531 41.92 42.2531 40.6V27.04C42.9371 26.62 43.4531 25.876 43.4531 25.012V21.4C43.4531 20.08 42.2531 19 41.0531 19ZM33.8531 33.4H29.0531C28.3931 33.4 27.8531 32.86 27.8531 32.2C27.8531 31.54 28.3931 31 29.0531 31H33.8531C34.5131 31 35.0531 31.54 35.0531 32.2C35.0531 32.86 34.5131 33.4 33.8531 33.4ZM41.0531 25H21.8531V21.4H41.0531V25Z" fill="#3C8AFF"/>
</svg>
