<svg width="22" height="12" viewBox="0 0 22 12" fill="none" xmlns="http://www.w3.org/2000/svg">
<path d="M6 9C6.83333 9 7.54167 8.70833 8.125 8.125C8.70833 7.54167 9 6.83333 9 6C9 5.16667 8.70833 4.45833 8.125 3.875C7.54167 3.29167 6.83333 3 6 3C5.16667 3 4.45833 3.29167 3.875 3.875C3.29167 4.45833 3 5.16667 3 6C3 6.83333 3.29167 7.54167 3.875 8.125C4.45833 8.70833 5.16667 9 6 9ZM6 12C4.33333 12 2.91667 11.4167 1.75 10.25C0.583333 9.08333 0 7.66667 0 6C0 4.33333 0.583333 2.91667 1.75 1.75C2.91667 0.583333 4.33333 0 6 0C7.35 0 8.52933 0.383333 9.538 1.15C10.546 1.91667 11.25 2.86667 11.65 4H19.6C19.7333 4 19.8627 4.025 19.988 4.075C20.1127 4.125 20.2167 4.19167 20.3 4.275L21.275 5.25C21.375 5.35 21.45 5.46233 21.5 5.587C21.55 5.71233 21.575 5.84167 21.575 5.975C21.575 6.10833 21.5543 6.23333 21.513 6.35C21.471 6.46667 21.4 6.575 21.3 6.675L18.7 9.275C18.6 9.375 18.4917 9.45 18.375 9.5C18.2583 9.55 18.1333 9.575 18 9.575C17.8667 9.575 17.7417 9.554 17.625 9.512C17.5083 9.47067 17.4 9.4 17.3 9.3L16 8L14.7 9.3C14.6 9.4 14.4917 9.47067 14.375 9.512C14.2583 9.554 14.1333 9.575 14 9.575C13.8667 9.575 13.7417 9.554 13.625 9.512C13.5083 9.47067 13.4 9.4 13.3 9.3L12 8H11.65C11.2333 9.2 10.5083 10.1667 9.475 10.9C8.44167 11.6333 7.28333 12 6 12Z" fill="#3C8AFF"/>
</svg>
