<svg width="267" height="109" viewBox="0 0 267 109" fill="none" xmlns="http://www.w3.org/2000/svg">
<path d="M97.147 69.7385C100.433 64.3686 102.217 58.215 102.313 51.9202C102.409 45.6254 100.813 39.4203 97.6917 33.9529C94.5706 28.4855 90.0389 23.9563 84.5698 20.8383C79.1006 17.7203 72.8947 16.1277 66.5999 16.227C60.3052 16.3263 54.1526 18.1138 48.7845 21.4028C43.4165 24.6918 39.0299 29.3617 36.0828 34.9248C33.1358 40.488 31.7363 46.7403 32.0306 53.0289C32.325 59.3175 34.3022 65.4118 37.756 70.6754L33.1277 78.2456L59.4268 94.3231C59.4268 94.3231 62.1814 90.1726 64.5611 86.4249C71.0009 86.902 77.4478 85.5974 83.1955 82.6542C88.9432 79.7109 93.77 75.2425 97.147 69.7385Z" fill="#E0E0E0"/>
<path d="M43.5923 84.3998C49.4855 74.4311 56.0439 64.8745 61.7122 54.7746C62.874 52.7134 63.9983 50.6241 64.9539 48.4504C66.1532 45.724 67.0245 42.4448 65.1507 39.7934C63.2769 37.1419 60.2881 37.4511 57.9365 39.0813C55.6213 40.7791 53.8399 43.1034 52.8022 45.7802C51.6671 48.5097 51.3182 51.5022 51.795 54.4196C52.2719 57.3369 53.5554 60.0627 55.5005 62.2887C57.4299 64.4765 59.9195 66.0967 62.7012 66.975C65.483 67.8533 68.4515 67.9563 71.2875 67.273C76.6279 65.877 81.6685 61.3986 82.849 55.8614C83.3268 53.5941 83.1301 50.7552 81.2937 49.1156C79.0451 47.12 76.0845 48.2537 74.0607 49.9495C71.7747 51.8796 70.0226 54.5498 68.28 56.967C66.3031 59.7028 64.4105 62.5135 62.5367 65.343C58.7141 71.1425 55.0414 77.0451 51.2094 82.8539C50.3287 84.1843 49.448 85.5148 48.5486 86.8264C48.127 87.4542 49.1388 88.0351 49.5604 87.4167C56.2781 77.5604 62.3025 67.2356 69.2918 57.5573C70.7966 55.2586 72.5259 53.115 74.4542 51.1581C75.5006 50.029 76.9304 49.3308 78.4642 49.2C79.1658 49.2307 79.8404 49.479 80.3944 49.9105C80.9484 50.342 81.3544 50.9352 81.556 51.6078C83.383 56.7421 78.7453 62.3542 74.5479 64.7246C72.1144 66.0671 69.35 66.6917 66.5758 66.526C63.8015 66.3603 61.1311 65.411 58.8747 63.7884C56.6183 62.1657 54.8685 59.9363 53.8285 57.359C52.7884 54.7818 52.5007 51.9623 52.9989 49.2281C53.496 46.5164 54.7201 43.9906 56.5404 41.9202C58.5454 39.6903 62.4899 37.2918 64.4667 40.9832C65.9471 43.7284 64.4667 46.9326 63.2206 49.4623C62.2837 51.3361 61.3468 53.1069 60.3256 54.887C54.7041 64.7434 48.3331 74.1125 42.5804 83.8658C42.5022 83.9987 42.4799 84.1573 42.5186 84.3067C42.5572 84.456 42.6536 84.5839 42.7866 84.6622C42.9195 84.7404 43.0781 84.7627 43.2274 84.724C43.3768 84.6854 43.5047 84.589 43.5829 84.456L43.5923 84.3998Z" fill="#EBEBEB"/>
<path d="M31.1309 98.0508C31.5159 98.8672 31.781 99.735 31.9179 100.627C31.958 100.939 32.0683 101.237 32.2403 101.5C32.4123 101.763 32.6416 101.984 32.911 102.145L38.2046 105.377C38.4957 105.557 38.8268 105.662 39.1684 105.684C39.5099 105.705 39.8515 105.642 40.1627 105.499C40.9884 105.084 41.9356 104.977 42.8329 105.199L31.1309 98.0508Z" fill="#E0E0E0"/>
<path d="M34.4009 79.8184C34.3353 79.9214 30.5221 88.9439 29.0605 92.3917C28.7546 93.0858 28.627 93.8453 28.6892 94.6012C28.7513 95.3571 29.0013 96.0855 29.4165 96.7203C29.7568 97.2237 30.2009 97.6486 30.7188 97.9664L42.2991 105.04C42.2991 105.04 45.3253 106.914 47.4802 104.909C49.6351 102.904 57.1773 93.7222 57.1773 93.7222L34.4009 79.8184Z" fill="#E0E0E0"/>
<path d="M28.4869 90.9899L28.453 91.046C28.26 91.3647 28.3619 91.7795 28.6805 91.9725L48.8919 104.213C49.2106 104.406 49.6254 104.304 49.8184 103.985L49.8523 103.929C50.0453 103.611 49.9435 103.196 49.6248 103.003L29.4134 90.7624C29.0947 90.5694 28.6799 90.6713 28.4869 90.9899Z" fill="#E0E0E0"/>
<path d="M48.8945 104.254C49.0515 104.319 49.2246 104.336 49.3911 104.301C49.4909 104.277 49.5836 104.229 49.6617 104.162C49.7398 104.096 49.8011 104.012 49.8408 103.917C49.9036 103.795 49.9257 103.657 49.9038 103.522C49.8818 103.387 49.817 103.263 49.719 103.167C48.6322 102.483 46.9832 101.528 45.0344 100.356L29.3317 90.8936C29.252 90.8476 29.1615 90.8234 29.0694 90.8234C28.9773 90.8234 28.8868 90.8476 28.8071 90.8936C28.7232 90.9283 28.6515 90.987 28.6009 91.0623C28.5426 91.1416 28.4982 91.2303 28.4698 91.3246C28.4478 91.4125 28.4474 91.5045 28.4686 91.5925C28.4898 91.6806 28.532 91.7623 28.5916 91.8306C28.7508 91.961 28.9236 92.0741 29.1069 92.1679L31.2993 93.4983L35.4404 96.0186L42.4485 100.291L47.1331 103.186L48.4073 103.982L48.7352 104.198L48.8477 104.282L48.7259 104.217L48.3886 104.029L47.0863 103.261L42.3361 100.45L35.2999 96.2153L31.2056 93.6669L29.0038 92.3365L28.7321 92.1679C28.6231 92.114 28.5248 92.041 28.4417 91.9524C28.3542 91.8565 28.292 91.7403 28.2609 91.6143C28.2298 91.4883 28.2308 91.3565 28.2637 91.2309C28.3008 91.1128 28.3578 91.0019 28.4323 90.903C28.5084 90.7999 28.6079 90.7164 28.7228 90.6594C28.8378 90.5971 28.9666 90.5645 29.0975 90.5645C29.2284 90.5645 29.3572 90.5971 29.4723 90.6594L45.0719 100.141C47.0582 101.368 48.679 102.333 49.7565 103.064C49.8662 103.172 49.9368 103.314 49.9572 103.466C49.9776 103.619 49.9465 103.774 49.8689 103.907C49.8233 104.009 49.7546 104.098 49.6684 104.168C49.5822 104.238 49.4808 104.286 49.3723 104.31C49.293 104.333 49.2098 104.34 49.1277 104.331C49.0457 104.321 48.9664 104.295 48.8945 104.254Z" fill="#EBEBEB"/>
<path d="M29.653 88.1325L29.619 88.1886C29.426 88.5073 29.5279 88.9221 29.8465 89.1151L50.9154 101.875C51.2341 102.068 51.6489 101.966 51.8419 101.647L51.8758 101.591C52.0688 101.272 51.9669 100.858 51.6483 100.665L30.5794 87.905C30.2607 87.712 29.846 87.8138 29.653 88.1325Z" fill="#E0E0E0"/>
<path d="M50.8823 101.902C51.0441 101.985 51.2312 102.005 51.407 101.958C51.5076 101.926 51.5996 101.871 51.676 101.798C51.7523 101.725 51.8109 101.635 51.8473 101.536C51.9055 101.405 51.9187 101.259 51.8848 101.12C51.8509 100.981 51.7718 100.857 51.6599 100.768L46.7599 97.8447L30.5138 88.0446C30.4315 87.996 30.3377 87.9703 30.2421 87.9703C30.1465 87.9703 30.0526 87.996 29.9704 88.0446C29.8848 88.0899 29.8135 88.158 29.7643 88.2413C29.7049 88.3188 29.6633 88.4084 29.6424 88.5037C29.626 88.5976 29.6337 88.6942 29.6648 88.7843C29.6959 88.8745 29.7495 88.9552 29.8205 89.019C29.9704 89.1314 30.1952 89.2532 30.3732 89.3657L32.6499 90.7523C34.149 91.6892 35.5825 92.5324 36.9597 93.3663L44.2396 97.7979L49.1303 100.815L50.4607 101.639L50.798 101.864L50.9104 101.939L50.7886 101.883L50.4326 101.677L49.0834 100.89L44.1552 97.9384L36.8473 93.5443L32.5375 90.9397L30.2702 89.5249C30.0734 89.4031 29.8954 89.3094 29.6799 89.1502C29.5785 89.0624 29.5017 88.9497 29.4573 88.8231C29.413 88.6966 29.4025 88.5606 29.427 88.4287C29.4497 88.3003 29.5009 88.1787 29.5769 88.0727C29.6497 87.9619 29.7497 87.8716 29.8673 87.8104C29.9861 87.7439 30.12 87.709 30.2561 87.709C30.3923 87.709 30.5261 87.7439 30.6449 87.8104L46.8536 97.6667C48.9241 98.9315 50.6012 99.9528 51.7442 100.684C51.8724 100.782 51.9628 100.921 52.0003 101.078C52.0379 101.235 52.0202 101.4 51.9504 101.546C51.9052 101.65 51.8371 101.743 51.7512 101.818C51.6652 101.892 51.5636 101.947 51.4538 101.977C51.3599 102.013 51.2583 102.025 51.1584 102.012C51.0586 101.999 50.9636 101.961 50.8823 101.902Z" fill="#EBEBEB"/>
<path d="M30.9655 85.3591L30.9315 85.4152C30.7385 85.7339 30.8403 86.1486 31.159 86.3416L52.7728 99.4314C53.0915 99.6244 53.5063 99.5225 53.6993 99.2039L53.7333 99.1478C53.9263 98.8291 53.8244 98.4143 53.5057 98.2213L31.8919 85.1315C31.5732 84.9385 31.1585 85.0404 30.9655 85.3591Z" fill="#E0E0E0"/>
<path d="M52.7555 99.4661C52.9281 99.5284 53.117 99.5284 53.2895 99.4661C53.3918 99.4315 53.4848 99.3738 53.5611 99.2974C53.6375 99.221 53.6952 99.1281 53.7299 99.0258C53.784 98.8893 53.7894 98.7382 53.745 98.5982C53.7006 98.4582 53.6092 98.3379 53.4863 98.2575L48.4363 95.2407L31.8155 85.2063C31.7297 85.1579 31.6329 85.1324 31.5344 85.1324C31.4359 85.1324 31.3391 85.1579 31.2533 85.2063C31.1671 85.255 31.0958 85.3262 31.0472 85.4124C30.9859 85.4948 30.9472 85.5916 30.9348 85.6935C30.9214 85.7894 30.9344 85.8872 30.9724 85.9763C31.0103 86.0655 31.0718 86.1426 31.1503 86.1994L31.7311 86.5555L34.0641 87.9702L38.4675 90.6498L45.916 95.1938L50.9379 98.2763L52.2964 99.1195L52.6431 99.3443L52.7555 99.4287L52.6337 99.3631L52.2683 99.157L50.891 98.3512L45.8317 95.3344L38.3364 90.8278L33.9235 88.167L31.5906 86.7522L30.991 86.3868C30.8832 86.3025 30.799 86.1918 30.7465 86.0654C30.694 85.939 30.6749 85.8013 30.6912 85.6654C30.7049 85.5305 30.7533 85.4014 30.8317 85.2906C30.9013 85.1724 31.0017 85.0753 31.1221 85.0095C31.2435 84.9406 31.3807 84.9043 31.5203 84.9043C31.6599 84.9043 31.7971 84.9406 31.9185 85.0095C38.3832 88.954 44.2483 92.5049 48.5019 95.1001L53.5238 98.1826C53.6599 98.2741 53.7598 98.4104 53.806 98.5678C53.8522 98.7253 53.8418 98.8939 53.7767 99.0445C53.735 99.1552 53.6686 99.255 53.5826 99.3362C53.4965 99.4173 53.3931 99.4778 53.2802 99.513C53.1952 99.5471 53.1034 99.5606 53.0122 99.5524C52.921 99.5443 52.8331 99.5147 52.7555 99.4661Z" fill="#EBEBEB"/>
<path d="M35.8914 70.8906C35.7602 71.1061 33.1462 76.4652 31.8064 79.2104C31.5636 79.7096 31.4375 80.2574 31.4375 80.8125C31.4375 81.3676 31.5636 81.9155 31.8064 82.4147L32.5185 83.895L54.9107 97.5646H56.5316C57.0926 97.5523 57.6432 97.4106 58.1405 97.1506C58.6378 96.8906 59.0683 96.5192 59.3985 96.0655L64.8607 88.617L35.8914 70.8906Z" fill="#EBEBEB"/>
<path d="M58.1416 96.7666C58.1416 96.8228 52.0892 93.2063 44.7063 88.6998C37.3234 84.1932 31.3553 80.4924 31.3928 80.4362C31.4302 80.38 37.4358 83.9965 44.8281 88.503C52.2203 93.0096 58.1698 96.7104 58.1416 96.7666Z" fill="#E0E0E0"/>
<path d="M64.7386 88.3253C64.7386 88.3909 58.1802 84.4934 50.1133 79.6308C42.0465 74.7682 35.5818 70.7676 35.6193 70.702C35.6568 70.6364 42.1777 74.5433 50.2352 79.4059C58.2926 84.2685 64.7761 88.2691 64.7386 88.3253Z" fill="#E0E0E0"/>
<path d="M213.904 68.4071C210.526 66.9507 206.819 66.4281 203.171 66.8939C199.522 67.3596 196.066 68.7966 193.163 71.0548C190.259 73.313 188.016 76.3095 186.666 79.7311C185.317 83.1528 184.911 86.874 185.492 90.506C186.072 94.1381 187.617 97.5476 189.965 100.378C192.314 103.209 195.379 105.357 198.842 106.598C202.304 107.839 206.036 108.128 209.648 107.434C213.26 106.739 216.62 105.088 219.375 102.651L224.135 104.703L231.255 88.176C231.255 88.176 228.632 86.9299 226.261 85.8618C226.005 82.0977 224.715 78.4772 222.535 75.398C220.355 72.3188 217.368 69.8999 213.904 68.4071Z" fill="#E0E0E0"/>
<path d="M226.815 97.9014C220.256 95.2031 213.942 92.0176 207.308 89.5441C204.704 88.6072 199.944 86.6865 198.351 90.1718C196.759 93.6571 201.893 96.0182 204.451 96.4211C206.139 96.7085 207.873 96.5307 209.468 95.9068C211.062 95.2828 212.457 94.2363 213.501 92.8795C214.543 91.543 215.208 89.9525 215.429 88.2726C215.649 86.5927 215.417 84.8843 214.756 83.3243C214.095 81.7643 213.029 80.4092 211.668 79.3992C210.308 78.3893 208.702 77.7611 207.018 77.5797C206.303 77.4895 205.576 77.5755 204.902 77.8302C204.227 78.0849 203.625 78.5007 203.148 79.0413C202.766 79.6331 202.595 80.3373 202.665 81.0385C202.735 81.7398 203.041 82.3966 203.532 82.9014C204.788 84.4004 206.727 85.2811 208.423 86.1806C210.522 87.2955 212.677 88.3261 214.832 89.338C219.085 91.3336 223.395 93.2074 227.611 95.278C228.286 95.6059 228.876 94.6034 228.201 94.2661C222.271 91.3617 216.162 88.832 210.278 85.8339C208.676 85.0094 201.949 82.18 204.188 79.6034C205.191 78.4604 207.121 78.6665 208.414 79.0413C209.903 79.5203 211.234 80.3947 212.265 81.571C216.855 86.7708 213.108 95.3155 206.146 95.3811C204.531 95.4049 202.941 94.9765 201.556 94.1443C199.991 93.2074 198.052 90.8839 200.469 89.6284C202.005 88.8321 203.992 89.6284 205.519 90.1437C206.662 90.5372 207.795 90.9682 208.91 91.4179C214.85 93.7883 220.594 96.5897 226.496 99.035C227.199 99.3255 227.499 98.1918 226.815 97.9014Z" fill="#EBEBEB"/>
<path d="M235.707 104.226C236.148 103.938 236.627 103.714 237.131 103.561C237.307 103.512 237.47 103.424 237.608 103.304C237.745 103.184 237.855 103.035 237.928 102.867L239.352 99.5319C239.431 99.3487 239.465 99.1491 239.45 98.9501C239.435 98.751 239.373 98.5585 239.267 98.3889C238.954 97.9482 238.811 97.4091 238.864 96.8711L235.707 104.226Z" fill="#E0E0E0"/>
<path d="M224.895 103.842C224.96 103.842 230.516 105.341 232.605 105.894C233.032 106.013 233.481 106.024 233.913 105.926C234.345 105.828 234.746 105.624 235.079 105.332C235.342 105.092 235.549 104.797 235.688 104.47C236.306 103.045 238.817 97.1991 238.817 97.1991C238.817 97.1991 239.642 95.3253 238.311 94.2197C236.981 93.1142 231.05 89.5352 231.05 89.5352L224.895 103.842Z" fill="#E0E0E0"/>
<path d="M237.048 93.0952L231.641 105.792C231.555 105.992 231.648 106.223 231.848 106.308L231.883 106.323C232.083 106.408 232.314 106.315 232.399 106.115L237.807 93.4183C237.892 93.2184 237.799 92.9872 237.599 92.9021L237.565 92.8874C237.365 92.8022 237.134 92.8953 237.048 93.0952Z" fill="#E0E0E0"/>
<path d="M237.814 93.4502C237.833 93.4043 237.843 93.3549 237.843 93.305C237.843 93.2551 237.833 93.2058 237.814 93.1598C237.792 93.1036 237.757 93.0536 237.711 93.0144C237.665 92.9752 237.61 92.9479 237.551 92.935C237.477 92.9062 237.394 92.9035 237.318 92.9273C237.241 92.9511 237.175 93 237.13 93.0661C236.83 93.7501 236.408 94.7807 235.874 96.0361L231.705 105.846C231.677 105.892 231.662 105.946 231.662 106C231.662 106.055 231.677 106.108 231.705 106.155C231.732 106.201 231.771 106.24 231.818 106.267C231.868 106.29 231.922 106.306 231.977 106.314C232.029 106.322 232.083 106.316 232.133 106.296C232.182 106.276 232.225 106.244 232.258 106.202C232.322 106.098 232.375 105.988 232.417 105.874C232.614 105.415 232.811 104.937 232.998 104.496C233.392 103.56 233.757 102.726 234.113 101.901C234.825 100.243 235.471 98.7532 235.987 97.4977C236.502 96.2423 236.971 95.2397 237.27 94.5277L237.626 93.7313L237.72 93.5158V93.4502C237.72 93.4502 237.72 93.4503 237.72 93.5252L237.636 93.7407C237.551 93.9281 237.448 94.2091 237.298 94.5558C237.008 95.2678 236.577 96.2797 236.052 97.5352C235.528 98.7907 234.891 100.29 234.179 101.948L233.073 104.553L232.492 105.93L232.417 106.108C232.388 106.17 232.353 106.23 232.314 106.286C232.266 106.345 232.204 106.391 232.134 106.419C232.063 106.446 231.986 106.456 231.911 106.445C231.839 106.438 231.769 106.415 231.705 106.38C231.639 106.345 231.584 106.293 231.546 106.23C231.504 106.167 231.478 106.095 231.47 106.02C231.461 105.945 231.471 105.869 231.499 105.799L235.781 95.9705C236.324 94.7151 236.718 93.7032 237.083 93.0005C237.133 92.9439 237.197 92.9009 237.268 92.8756C237.34 92.8502 237.416 92.8433 237.491 92.8554C237.566 92.8676 237.636 92.8984 237.696 92.9451C237.756 92.9917 237.803 93.0527 237.833 93.1223C237.861 93.1732 237.874 93.231 237.87 93.289C237.867 93.347 237.847 93.4029 237.814 93.4502Z" fill="#EBEBEB"/>
<path d="M235.528 92.1311L229.892 105.363C229.807 105.563 229.9 105.794 230.1 105.879L230.135 105.893C230.335 105.979 230.566 105.886 230.651 105.686L236.287 92.4542C236.372 92.2542 236.279 92.0231 236.079 91.938L236.044 91.9233C235.844 91.8381 235.613 91.9312 235.528 92.1311Z" fill="#E0E0E0"/>
<path d="M236.297 92.4767C236.335 92.3805 236.335 92.2731 236.297 92.1769C236.268 92.1218 236.228 92.0732 236.18 92.0344C236.132 91.9957 236.076 91.9676 236.015 91.952C235.934 91.9287 235.847 91.9335 235.769 91.9658C235.691 91.9982 235.626 92.0561 235.584 92.1301L234.292 95.2219C233.177 97.8359 231.659 101.434 229.972 105.415C229.945 105.464 229.931 105.519 229.931 105.575C229.931 105.631 229.945 105.685 229.972 105.734C230.007 105.779 230.052 105.814 230.104 105.837C230.156 105.864 230.213 105.88 230.272 105.884C230.328 105.886 230.383 105.873 230.433 105.847C230.482 105.82 230.524 105.782 230.553 105.734C230.553 105.64 230.656 105.5 230.703 105.387C230.909 104.9 231.115 104.422 231.322 103.954C231.715 103.017 232.109 102.08 232.474 101.256L234.441 96.6835C234.994 95.3905 235.453 94.3412 235.772 93.601L236.137 92.7671L236.24 92.5517V92.4767V92.5517L236.156 92.7765L235.809 93.6197L234.516 96.7209L232.643 101.302C232.277 102.164 231.893 103.073 231.49 104.01L230.881 105.444C230.834 105.568 230.781 105.69 230.722 105.809C230.678 105.875 230.618 105.929 230.548 105.965C230.477 106.001 230.398 106.018 230.319 106.015C230.244 106.012 230.171 105.993 230.104 105.959C230.032 105.925 229.971 105.873 229.926 105.809C229.87 105.746 229.832 105.67 229.816 105.587C229.799 105.505 229.805 105.42 229.832 105.341L234.198 95.1657L235.528 92.0832C235.577 92.0018 235.651 91.9391 235.739 91.9051C235.828 91.8711 235.925 91.8678 236.015 91.8958C236.08 91.9132 236.139 91.945 236.19 91.9889C236.24 92.0327 236.28 92.0874 236.306 92.1488C236.332 92.2 236.344 92.2567 236.342 92.3139C236.341 92.3712 236.325 92.4271 236.297 92.4767Z" fill="#EBEBEB"/>
<path d="M233.966 91.2609L228.183 104.837C228.098 105.037 228.191 105.268 228.391 105.353L228.426 105.368C228.626 105.453 228.857 105.36 228.942 105.16L234.724 91.584C234.81 91.3841 234.717 91.1529 234.517 91.0678L234.482 91.0531C234.282 90.9679 234.051 91.061 233.966 91.2609Z" fill="#E0E0E0"/>
<path d="M234.732 91.6054C234.752 91.5565 234.763 91.5039 234.763 91.4509C234.763 91.3978 234.752 91.3453 234.732 91.2963C234.705 91.238 234.665 91.1871 234.615 91.1479C234.564 91.1087 234.505 91.0824 234.441 91.0714C234.358 91.0526 234.271 91.0628 234.194 91.1003C234.118 91.1378 234.056 91.2003 234.02 91.2775L232.643 94.4443L228.22 104.882C228.193 104.932 228.179 104.988 228.179 105.045C228.179 105.103 228.193 105.159 228.22 105.209C228.259 105.253 228.307 105.288 228.36 105.312C228.413 105.336 228.471 105.349 228.53 105.35C228.586 105.349 228.641 105.334 228.69 105.306C228.739 105.278 228.781 105.239 228.811 105.191C228.811 105.078 228.914 104.938 228.97 104.816C229.176 104.329 229.382 103.832 229.588 103.354C230 102.417 230.394 101.481 230.769 100.59L232.783 95.9059L234.151 92.7485C234.31 92.3925 234.441 92.102 234.526 91.8959L234.629 91.6804C234.624 91.6556 234.624 91.6302 234.629 91.6054V91.6804L234.545 91.9053L234.188 92.7766L232.933 95.9715L230.956 100.656L229.776 103.467L229.157 104.928C229.101 105.06 229.054 105.172 228.989 105.303C228.949 105.373 228.892 105.432 228.823 105.473C228.754 105.514 228.675 105.536 228.595 105.537C228.521 105.556 228.444 105.556 228.37 105.537C228.295 105.507 228.229 105.455 228.183 105.387C228.133 105.323 228.101 105.247 228.091 105.166C228.081 105.085 228.094 105.003 228.127 104.928L232.586 94.5099L233.954 91.2869C233.998 91.2023 234.069 91.135 234.156 91.0959C234.242 91.0568 234.34 91.0481 234.432 91.0714C234.499 91.0845 234.562 91.1135 234.616 91.1559C234.67 91.1982 234.713 91.2528 234.741 91.315C234.76 91.3615 234.768 91.4112 234.767 91.4612C234.765 91.5112 234.753 91.5603 234.732 91.6054Z" fill="#EBEBEB"/>
<path d="M219.619 103.746C219.75 103.803 223.067 104.871 224.763 105.424C225.074 105.526 225.405 105.556 225.73 105.51C226.055 105.465 226.365 105.345 226.637 105.161L227.442 104.627L233.495 90.5734L233.336 89.6365C233.278 89.3151 233.149 89.0107 232.958 88.7462C232.766 88.4818 232.518 88.264 232.23 88.1093L227.47 85.5703L219.619 103.746Z" fill="#EBEBEB"/>
<path d="M232.737 88.7286C232.737 88.7286 231.173 92.4762 229.177 97.1608C227.181 101.845 225.532 105.593 225.504 105.537C225.476 105.481 227.06 101.789 229.055 97.1046C231.051 92.42 232.7 88.7098 232.737 88.7286Z" fill="#E0E0E0"/>
<path d="M227.312 85.6094C227.312 85.6094 225.635 89.7319 223.489 94.7818C221.344 99.8318 219.563 103.917 219.526 103.898C219.489 103.879 221.203 99.7756 223.349 94.7256C225.494 89.6757 227.274 85.5907 227.312 85.6094Z" fill="#E0E0E0"/>
<path d="M260.226 48.386C260.218 48.3144 260.218 48.2421 260.226 48.1706V47.5522C260.226 46.9807 260.226 46.1937 260.226 45.1724C260.226 43.0925 260.179 40.1037 260.142 36.3279L260.292 36.4685L214.711 36.5622C214.814 36.4591 214.477 36.787 214.936 36.3279V48.3673L214.701 48.1424L247.184 48.2455L256.778 48.3111H259.373H260.048H260.292C260.22 48.3194 260.148 48.3194 260.076 48.3111H259.43H256.881L247.344 48.3767L214.701 48.4797H214.477V39.2792C214.477 38.7733 214.477 38.258 214.477 37.7427V36.2155C214.945 35.7471 214.608 36.0844 214.72 35.9813L260.301 36.075H260.442V36.2155C260.442 40.0288 260.376 43.0456 260.357 45.1443C260.357 46.1468 260.357 46.9244 260.357 47.4866V48.0862C260.328 48.1919 260.284 48.2928 260.226 48.386Z" fill="#E0E0E0"/>
<path d="M266.372 36.3266C266.372 36.3266 266.372 36.2423 266.372 36.0924C266.372 35.9425 266.372 35.7176 266.372 35.4553C266.372 34.865 266.372 34.0593 266.372 33.038C266.372 30.93 266.316 27.9412 266.278 24.2685L266.447 24.4372L239.061 24.5028L239.295 24.2685V27.3884C239.295 28.4284 239.295 29.4496 239.295 30.4615V36.3079L239.07 36.083L258.661 36.1955L264.367 36.2517H265.903H266.456C266.291 36.2651 266.125 36.2651 265.96 36.2517H264.47L258.848 36.3079L239.108 36.4203H238.883V36.1955C238.883 34.3216 238.883 32.3635 238.883 30.3491V24.1561L239.117 23.9219L266.503 23.9875H266.672V24.1561C266.672 27.9038 266.606 30.8925 266.578 33.0287C266.578 34.0312 266.578 34.8275 266.578 35.4084C266.533 35.7192 266.464 36.0262 266.372 36.3266Z" fill="#E0E0E0"/>
<path opacity="0.3" d="M232 107.813C232 107.274 180.06 106.812 116.005 106.812C51.9507 106.812 0 107.274 0 107.813C0 108.351 51.9289 108.812 116.005 108.812C180.082 108.812 232 108.389 232 107.813Z" fill="#263238"/>
<path d="M171.489 98.511C179.67 94.1278 186.525 87.628 191.336 79.6907C196.147 71.7533 198.739 62.6695 198.84 53.3884C198.941 44.1072 196.548 34.9692 191.91 26.929C187.273 18.8888 180.562 12.2413 172.478 7.68109C164.393 3.12087 155.233 0.815216 145.953 1.00498C136.673 1.19474 127.615 3.87296 119.724 8.75985C111.833 13.6467 105.399 20.563 101.094 28.7861C96.7894 37.0092 94.7718 46.2374 95.2522 55.5066L83.7188 61.6809L105.221 101.725C105.221 101.725 111.826 98.5016 117.644 95.4941C125.477 100.893 134.645 104.031 144.143 104.563C153.641 105.096 163.102 103.002 171.489 98.511Z" fill="#EBEBEB"/>
<path d="M171.49 98.5102C171.49 98.5102 171.199 98.6788 170.609 98.9786C170.019 99.2785 169.138 99.7376 167.967 100.281C164.51 101.808 160.902 102.967 157.202 103.738C151.34 104.924 145.317 105.083 139.401 104.207C131.55 103.04 124.064 100.112 117.505 95.6432H117.692L105.222 101.902L105.053 101.986L104.969 101.817L83.4855 61.7832L83.373 61.5864L83.5792 61.474L95.1032 55.2997L94.9814 55.5152C94.8251 51.8156 95.0322 48.1095 95.5998 44.4503C96.2374 40.6835 97.2673 36.9939 98.6729 33.4415C100.122 29.802 101.99 26.3433 104.238 23.1355C106.499 19.83 109.154 16.8127 112.146 14.1505L112.989 13.3822L113.879 12.6701L115.65 11.2554C116.899 10.3622 118.148 9.50963 119.397 8.69763L121.346 7.56398L122.283 7.00182C122.611 6.82381 122.958 6.67388 123.286 6.51461C124.644 5.88688 125.975 5.23104 127.324 4.64078C132.743 2.46113 138.486 1.19475 144.319 0.893124C149.947 0.573233 155.589 1.20676 161.006 2.76695C166.195 4.25989 171.138 6.50416 175.678 9.42842C182.074 13.5819 187.431 19.15 191.334 25.7026L192.271 27.2485C192.59 27.7535 192.881 28.2759 193.142 28.8132L194.65 32.0174C195.144 33.0683 195.567 34.1513 195.915 35.2591C196.281 36.346 196.73 37.4047 197.011 38.4915C197.292 39.5783 197.545 40.6745 197.808 41.752C197.92 42.2954 198.098 42.82 198.164 43.3634L198.389 44.9843C198.539 46.0617 198.707 47.1298 198.829 48.1792C198.951 49.2285 198.913 50.2966 198.96 51.3366C198.96 51.8612 199.007 52.3765 199.026 52.8918C199.044 53.4072 198.979 53.9131 198.96 54.419C198.904 55.4403 198.848 56.4428 198.791 57.4359C198.777 57.9296 198.723 58.4214 198.632 58.9068C198.557 59.394 198.492 59.8438 198.417 60.3591C198.267 61.296 198.136 62.2329 197.967 63.1698C197.798 64.1067 197.508 64.9874 197.283 65.8869L196.946 67.2173L196.777 67.8731L196.552 68.5102C196.252 69.3534 195.953 70.1779 195.615 71.0024C195.355 71.8182 195.042 72.6162 194.678 73.3915L193.62 75.6401C193.303 76.3793 192.937 77.0962 192.524 77.7857C191.708 79.1348 190.978 80.4746 190.172 81.702C189.366 82.9293 188.467 84.0161 187.67 85.1123C186.874 86.2085 185.918 87.0986 185.113 88.0261C184.691 88.4758 184.307 88.9631 183.895 89.3566L182.63 90.509L180.306 92.6357C179.538 93.2354 178.788 93.7788 178.104 94.2847L176.231 95.6994C175.64 96.1023 175.059 96.4115 174.563 96.7207L172.267 98.0698C171.752 98.3697 171.48 98.5102 171.48 98.5102L172.249 98.023L174.507 96.6364C175.003 96.3178 175.575 96.0086 176.165 95.5964L178.039 94.1723C178.713 93.657 179.454 93.1136 180.222 92.5046L182.517 90.3778L183.773 89.216C184.185 88.8038 184.56 88.3353 184.972 87.8856C185.778 86.9487 186.677 86.0118 187.502 84.9624L189.975 81.5614C190.771 80.3341 191.502 79.0037 192.308 77.6545C192.715 76.9678 193.075 76.2541 193.385 75.5183L194.425 73.2697C194.793 72.5026 195.106 71.7105 195.362 70.8993L196.234 68.4165L196.459 67.7794L196.627 67.1236C196.73 66.6926 196.843 66.2429 196.955 65.8025C197.174 64.9093 197.399 64.0099 197.63 63.1042C197.789 62.1673 197.911 61.2304 198.061 60.2935C198.136 59.8157 198.211 59.3566 198.276 58.8506C198.367 58.3683 198.42 57.8797 198.435 57.3891C198.482 56.3959 198.539 55.4028 198.595 54.3909C198.595 53.885 198.67 53.3791 198.651 52.8731C198.632 52.3672 198.604 51.8425 198.585 51.3272C198.539 50.2966 198.492 49.2473 198.445 48.1979C198.398 47.1486 198.145 46.0899 198.004 45.0218C197.92 44.4877 197.845 43.9537 197.77 43.4197C197.695 42.8856 197.527 42.3516 197.414 41.8175C197.152 40.7495 196.88 39.672 196.618 38.5852C196.355 37.4984 195.887 36.449 195.522 35.3716C195.176 34.2751 194.753 33.2043 194.257 32.1673L192.758 28.9912C192.504 28.4529 192.213 27.9332 191.886 27.4359C191.587 26.93 191.277 26.4147 190.95 25.8994C189.685 23.8209 188.286 21.8272 186.762 19.9312C183.479 16.0538 179.688 12.6376 175.49 9.77508C170.985 6.89273 166.083 4.68332 160.94 3.21668C155.573 1.66624 149.982 1.03273 144.404 1.34285C138.614 1.65387 132.916 2.92017 127.539 5.09051C126.199 5.69013 124.878 6.3366 123.539 6.96434C123.211 7.12361 122.864 7.27351 122.545 7.45152L121.609 8.0043L119.688 9.12861C118.442 9.93435 117.214 10.787 115.996 11.6583L114.244 13.0637L113.364 13.7663L112.53 14.5346C109.568 17.17 106.938 20.1557 104.697 23.4259C102.469 26.6116 100.617 30.0448 99.1788 33.657C97.7852 37.1764 96.7615 40.8314 96.1245 44.5627C95.5664 48.1914 95.3593 51.8655 95.5061 55.534V55.6839L95.3843 55.7495L83.8509 61.9143L83.9446 61.6052L105.353 101.593L105.091 101.508L117.514 95.2966L117.608 95.2497L117.702 95.306C124.207 99.7631 131.633 102.697 139.429 103.888C145.319 104.779 151.318 104.649 157.164 103.504C160.855 102.755 164.459 101.631 167.92 100.15C169.101 99.6158 169.981 99.2129 170.581 98.8943L171.49 98.5102Z" fill="#263238"/>
<path d="M92.3758 76.9714C107.067 68.7922 122.301 61.606 136.851 53.1644C139.784 51.4593 142.707 49.6979 145.49 47.7491C148.994 45.3131 152.676 42.2213 152.891 37.621C152.968 36.6173 152.817 35.6092 152.451 34.6717C152.084 33.7341 151.511 32.8912 150.774 32.2057C149.208 30.9897 147.253 30.3868 145.274 30.5099C141.006 30.7385 136.911 32.265 133.534 34.8852C130.148 37.3374 127.489 40.6609 125.839 44.5028C124.189 48.3448 123.611 52.5618 124.165 56.706C125.421 65.1382 131.305 72.7178 139.446 75.4443C147.448 78.1332 157.838 76.3156 163.591 69.8228C166.073 67.012 168.088 62.4586 165.708 58.9827C163.328 55.5067 158.925 55.7878 155.402 56.6966C151.317 57.7366 147.373 59.6479 143.531 61.3812C139.053 63.3768 134.631 65.513 130.227 67.6772C121.167 72.1557 112.22 76.8496 103.15 81.3187C101.155 82.3025 99.1403 83.2769 97.126 84.2325C96.442 84.5604 97.0417 85.5723 97.7162 85.2444C113.887 77.5898 129.496 68.7641 145.911 61.606C149.528 60.032 153.285 58.2144 157.201 57.5211C159.147 57.0474 161.197 57.2421 163.019 58.0739C163.898 58.5732 164.61 59.3202 165.066 60.2216C165.523 61.123 165.704 62.139 165.586 63.1426C165.193 67.4805 161.473 70.8065 157.885 72.7647C154.15 74.7676 149.936 75.7013 145.705 75.463C141.594 75.2029 137.639 73.7892 134.295 71.3842C130.95 68.9791 128.351 65.6801 126.796 61.8655C125.241 58.0509 124.792 53.8752 125.502 49.8173C126.212 45.7595 128.051 41.9838 130.808 38.9233C133.492 35.9258 136.927 33.6976 140.758 32.468C144.571 31.2875 150.605 30.8565 151.617 35.9533C152.554 40.8253 148.3 44.3855 144.759 46.8309C142.304 48.5361 139.737 50.1007 137.16 51.6092C123.716 59.498 109.662 66.2906 95.9361 73.6735C94.5495 74.4105 93.166 75.1663 91.7856 75.9408C91.1297 76.3062 91.72 77.3181 92.3852 76.9527L92.3758 76.9714Z" fill="white"/>
<path d="M66.4812 85.291C66.351 86.6152 66.0356 87.9146 65.5443 89.1511C65.3638 89.5757 65.2818 90.0357 65.3045 90.4966C65.3272 90.9574 65.454 91.4071 65.6755 91.8119L69.9946 99.8694C70.234 100.315 70.5783 100.695 70.9979 100.978C71.4175 101.26 71.8996 101.436 72.4025 101.49C73.7607 101.575 75.0435 102.144 76.019 103.092L66.4812 85.291Z" fill="#455A64"/>
<path d="M84.2256 64.5293C84.0663 64.6136 72.4861 73.2426 68.0638 76.5405C67.1503 77.1909 66.4143 78.06 65.9233 79.0682C65.4323 80.0764 65.2019 81.1917 65.2531 82.3119C65.309 83.2103 65.5583 84.086 65.9839 84.8791L75.4748 102.531C75.4748 102.531 77.9483 107.131 82.155 106.222C86.596 105.285 102.833 99.2138 102.833 99.2138L84.2256 64.5293Z" fill="#263238"/>
<path d="M68.3742 74.3492L68.2835 74.3983C67.8012 74.6594 67.6218 75.2621 67.883 75.7444L84.4627 106.37C84.7238 106.852 85.3265 107.031 85.8088 106.77L85.8995 106.721C86.3818 106.46 86.5611 105.857 86.3 105.375L69.7203 74.7498C69.4592 74.2674 68.8565 74.0881 68.3742 74.3492Z" fill="#E0E0E0"/>
<path d="M84.4507 106.399C84.5935 106.607 84.801 106.762 85.0409 106.84C85.1874 106.879 85.3409 106.886 85.4901 106.858C85.6393 106.831 85.7804 106.77 85.9029 106.68C86.0745 106.573 86.2065 106.412 86.2792 106.223C86.3518 106.034 86.3611 105.826 86.3058 105.631C85.4344 103.954 84.0478 101.509 82.4082 98.4918L69.5538 74.8534C69.4918 74.7324 69.3998 74.6292 69.2866 74.5538C69.1735 74.4783 69.0429 74.4331 68.9073 74.4225C68.7696 74.4106 68.6312 74.4332 68.5044 74.4881C68.3746 74.5384 68.2566 74.6149 68.1578 74.7129C68.0619 74.808 67.9912 74.9254 67.9519 75.0546C67.9127 75.1838 67.9061 75.3207 67.9329 75.4531C68.0384 75.7381 68.1735 76.0112 68.3358 76.2682L70.1253 79.5942L73.5263 85.8809C75.6718 89.8909 77.6112 93.498 79.2508 96.543L83.0828 103.739C83.5231 104.572 83.8604 105.228 84.1134 105.697L84.3664 106.212L84.4507 106.399C84.4051 106.349 84.3673 106.292 84.3382 106.231L84.0478 105.734L82.9704 103.795C82.0334 102.09 80.6843 99.6536 79.0353 96.6554C77.3863 93.6573 75.4282 90.0221 73.2452 86.0308C72.1584 84.0352 71.0247 81.9272 69.8348 79.7535L68.036 76.4368L67.8111 76.0059C67.713 75.8575 67.6431 75.6924 67.605 75.5187C67.5655 75.3333 67.5731 75.141 67.6271 74.9593C67.6811 74.7776 67.7798 74.6124 67.9142 74.4787C68.0481 74.3522 68.2036 74.2506 68.3732 74.1789C68.6395 74.0622 68.94 74.0505 69.2145 74.1461C69.489 74.2417 69.7173 74.4374 69.8536 74.6942C74.838 83.9322 79.3445 92.2988 82.6143 98.3794C84.2352 101.424 85.575 103.842 86.437 105.594C86.4931 105.815 86.476 106.049 86.3881 106.26C86.3003 106.471 86.1465 106.648 85.9497 106.765C85.8146 106.858 85.6599 106.919 85.4976 106.944C85.3352 106.968 85.1694 106.955 85.0128 106.905C84.8865 106.87 84.7701 106.806 84.6726 106.718C84.5751 106.63 84.4991 106.521 84.4507 106.399Z" fill="#263238"/>
<path d="M71.9835 71.5719L71.8929 71.6209C71.4105 71.8821 71.2312 72.4848 71.4923 72.9671L88.7768 104.894C89.0379 105.376 89.6406 105.556 90.123 105.295L90.2136 105.246C90.6959 104.984 90.8753 104.382 90.6141 103.899L73.3297 71.9724C73.0685 71.4901 72.4658 71.3108 71.9835 71.5719Z" fill="#E0E0E0"/>
<path d="M88.7598 104.918C88.91 105.137 89.1321 105.296 89.3875 105.368C89.5403 105.403 89.6992 105.403 89.8519 105.368C90.0047 105.332 90.1471 105.261 90.2682 105.162C90.4388 105.039 90.5629 104.862 90.6207 104.66C90.6785 104.457 90.6665 104.241 90.5868 104.047L86.4831 96.6265L73.1414 72.07C73.0715 71.9483 72.9723 71.8461 72.8529 71.7725C72.7335 71.6988 72.5976 71.6562 72.4575 71.6484C72.315 71.639 72.1726 71.6681 72.0452 71.7327C71.9097 71.7904 71.7883 71.8766 71.6892 71.9857C71.5994 72.0933 71.5385 72.222 71.5123 72.3597C71.486 72.4974 71.4953 72.6395 71.5393 72.7727C71.6424 73.0256 71.8391 73.3442 71.989 73.6253L73.8629 77.0825C75.0808 79.3498 76.2614 81.5328 77.3857 83.6409L83.3351 94.7058L87.317 102.201C87.776 103.072 88.1321 103.756 88.3944 104.244C88.4975 104.468 88.5912 104.637 88.6567 104.778C88.7223 104.918 88.7504 104.965 88.7411 104.965L88.6286 104.796L88.3288 104.272C88.0665 103.794 87.6823 103.119 87.2045 102.267L83.129 94.837C81.4144 91.6983 79.3813 87.96 77.114 83.8095L73.5724 77.2511L71.6986 73.7939C71.5245 73.4909 71.3681 73.178 71.2301 72.857C71.1666 72.6699 71.1531 72.4695 71.1909 72.2755C71.2287 72.0816 71.3165 71.9009 71.4456 71.7514C71.5691 71.6035 71.7266 71.4877 71.9047 71.4141C72.0793 71.3187 72.2779 71.2764 72.4762 71.2923C72.6703 71.3051 72.858 71.3668 73.0218 71.4716C73.1857 71.5765 73.3203 71.7211 73.4131 71.892L86.6798 96.4953C88.3663 99.6527 89.7342 102.192 90.6617 103.991C90.7459 104.211 90.7539 104.454 90.6842 104.68C90.6146 104.906 90.4715 105.102 90.2776 105.237C90.1463 105.338 89.9936 105.407 89.8311 105.44C89.6686 105.472 89.5007 105.467 89.3407 105.424C89.2115 105.39 89.092 105.327 88.9913 105.239C88.8906 105.151 88.8114 105.041 88.7598 104.918Z" fill="#263238"/>
<path d="M92.9487 103.204L75.2129 70.4116C75.0893 70.1789 75.0622 69.9068 75.1376 69.6543C75.213 69.4019 75.3848 69.1892 75.6158 69.0624L75.7095 69.0156C75.822 68.9464 75.948 68.9018 76.079 68.8848C76.21 68.8677 76.3432 68.8786 76.4697 68.9166C76.5962 68.9547 76.7132 69.0191 76.8131 69.1055C76.913 69.192 76.9935 69.2987 77.0492 69.4184L94.785 102.21C94.8542 102.323 94.8988 102.449 94.9158 102.58C94.9328 102.711 94.922 102.844 94.8839 102.971C94.8459 103.097 94.7815 103.214 94.695 103.314C94.6086 103.414 94.5019 103.494 94.3822 103.55L94.2885 103.606C94.1759 103.676 94.05 103.72 93.919 103.737C93.7879 103.754 93.6548 103.743 93.5283 103.705C93.4017 103.667 93.2847 103.603 93.1848 103.516C93.0849 103.43 93.0044 103.323 92.9487 103.204Z" fill="#E0E0E0"/>
<path d="M92.9481 103.204C93.0256 103.33 93.1299 103.438 93.2535 103.52C93.3772 103.601 93.5173 103.654 93.6638 103.676C93.8103 103.697 93.9598 103.686 94.1016 103.644C94.2435 103.601 94.3742 103.528 94.4846 103.429C94.6541 103.296 94.7726 103.109 94.8204 102.899C94.8682 102.69 94.8423 102.47 94.747 102.277L90.5683 94.6783L76.9081 69.5315C76.8355 69.4054 76.7321 69.2998 76.6076 69.2244C76.483 69.149 76.3415 69.1065 76.1961 69.1006C76.0526 69.1029 75.9115 69.1381 75.7838 69.2036C75.6483 69.2654 75.5295 69.3585 75.4372 69.4753C75.3487 69.5895 75.2917 69.7248 75.272 69.8678C75.2523 70.0109 75.2704 70.1566 75.3247 70.2904C75.4653 70.5621 75.6433 70.8807 75.8026 71.1711L77.6764 74.7127L81.2835 81.3929C83.5696 85.6558 85.6308 89.4972 87.3735 92.7295L91.4584 100.375C91.9175 101.312 92.2922 101.968 92.5452 102.464L92.8263 103.017L92.9106 103.204C92.9106 103.204 92.9106 103.148 92.7982 103.026C92.6857 102.904 92.6202 102.717 92.489 102.502C92.2173 102.005 91.8332 101.321 91.3366 100.44L87.1673 92.842C85.4059 89.619 83.326 85.787 81.0024 81.5428L77.386 74.8626C76.7489 73.7102 76.1117 72.5297 75.4653 71.3304C75.306 71.0212 75.1467 70.7495 74.9781 70.3935C74.8995 70.2068 74.872 70.0026 74.8984 69.8017C74.9247 69.6009 75.004 69.4106 75.128 69.2505C75.2512 69.0953 75.4082 68.9704 75.5871 68.8851C75.7743 68.8103 75.9767 68.7814 76.1773 68.8008C76.3816 68.8068 76.5808 68.8662 76.755 68.973C76.9292 69.0798 77.0724 69.2304 77.1705 69.4097L90.7557 94.6034L94.8313 102.258C94.937 102.476 94.9639 102.724 94.9075 102.96C94.8512 103.195 94.715 103.404 94.5221 103.551C94.3842 103.657 94.2244 103.732 94.0543 103.769C93.8843 103.806 93.7081 103.805 93.5383 103.766C93.4019 103.727 93.277 103.656 93.1743 103.558C93.0715 103.46 92.9939 103.339 92.9481 103.204Z" fill="#263238"/>
<path d="M79.3273 66.2379L79.2366 66.287C78.7543 66.5481 78.575 67.1508 78.8361 67.6331L97.2892 101.719C97.5503 102.201 98.153 102.38 98.6354 102.119L98.726 102.07C99.2084 101.809 99.3877 101.206 99.1266 100.724L80.6734 66.6384C80.4123 66.1561 79.8096 65.9768 79.3273 66.2379Z" fill="#E0E0E0"/>
<path d="M97.267 101.743C97.4212 101.982 97.6637 102.15 97.9416 102.211C98.1088 102.237 98.2798 102.226 98.4419 102.177C98.604 102.128 98.7532 102.044 98.8785 101.93C99.0458 101.779 99.1531 101.573 99.1806 101.349C99.2081 101.126 99.1541 100.899 99.0284 100.712L94.6998 92.8235L80.5056 66.7398C80.432 66.6084 80.3245 66.4991 80.1943 66.4233C80.0641 66.3475 79.916 66.308 79.7654 66.3088C79.6139 66.3213 79.4669 66.3662 79.3343 66.4406C79.2018 66.515 79.0868 66.617 78.9972 66.7398C78.9232 66.868 78.8842 67.0134 78.8842 67.1614C78.8842 67.3094 78.9232 67.4548 78.9972 67.583L79.5031 68.5199C80.1777 69.7567 80.8335 70.984 81.4894 72.1832L85.237 79.1258L91.5612 90.8747L95.7586 98.7822L96.8922 100.947L97.1827 101.518C97.2451 101.649 97.2732 101.715 97.267 101.715C97.2243 101.659 97.1866 101.599 97.1546 101.537L96.836 100.984C96.5456 100.478 96.1521 99.7566 95.6368 98.8478C94.6061 96.974 93.1352 94.2757 91.3082 90.959L84.9278 79.2382C83.7286 77.0365 82.4731 74.7129 81.1802 72.3144L79.1939 68.6511L78.688 67.7142C78.6125 67.5773 78.5658 67.4264 78.5505 67.2708C78.5352 67.1152 78.5517 66.9582 78.599 66.8092C78.6463 66.6602 78.7235 66.5224 78.8258 66.4041C78.928 66.2859 79.0533 66.1897 79.1939 66.1214C79.3709 66.0096 79.5749 65.9481 79.7842 65.9434C79.9964 65.9412 80.2053 65.9966 80.3885 66.1039C80.5717 66.2112 80.7223 66.3662 80.8241 66.5524C86.3238 76.746 91.2988 85.984 94.8779 92.6829C96.6674 96.0183 98.1102 98.726 99.1221 100.619C99.2512 100.834 99.3013 101.087 99.2637 101.335C99.2261 101.583 99.1031 101.81 98.9159 101.977C98.7796 102.094 98.6188 102.179 98.4454 102.226C98.272 102.273 98.0903 102.281 97.9135 102.249C97.7005 102.193 97.5103 102.072 97.37 101.902C97.3266 101.856 97.2917 101.802 97.267 101.743Z" fill="#263238"/>
<path d="M92.7143 54.2598C92.3864 54.4378 85.0691 59.3004 81.3121 61.7551C80.6325 62.2083 80.0645 62.8096 79.6507 63.5139C79.2369 64.2182 78.9881 65.0071 78.9229 65.8213L78.7168 68.2385L97.0054 102.305L99.1041 103.466C99.8277 103.864 100.633 104.092 101.458 104.131C102.283 104.169 103.106 104.019 103.864 103.691L116.362 98.2853L92.7143 54.2598Z" fill="#455A64"/>
<g opacity="0.3">
<path d="M68.5605 76.8574C69.7065 80.5531 71.2786 84.1029 73.2451 87.4352C74.8191 90.3396 76.2714 93.2347 78.0328 96.3546C79.3163 98.6407 80.5812 100.711 81.9116 102.913C82.4091 103.839 83.0991 104.647 83.9353 105.283L68.5605 76.8574Z" fill="black"/>
</g>
<g opacity="0.3">
<path d="M71.8867 73.4844C73.1675 77.4436 74.8699 81.2537 76.9648 84.8491C78.6606 87.9784 80.2346 91.0984 82.1272 94.4619C83.5138 96.9353 84.863 99.1465 86.2964 101.601C86.825 102.594 87.5483 103.471 88.4233 104.178L71.8867 73.4844Z" fill="black"/>
</g>
<g opacity="0.3">
<path d="M75.8125 71.3965C77.0889 75.3558 78.7817 79.1685 80.8625 82.7706C82.5583 85.8999 84.1323 89.0105 86.0249 92.3834C87.4115 94.8475 88.7607 97.0679 90.1941 99.5133C90.7171 100.51 91.4413 101.387 92.3209 102.09L75.8125 71.3965Z" fill="black"/>
</g>
<g opacity="0.3">
<path d="M79.748 69.2871C81.0378 73.2474 82.7431 77.06 84.8355 80.6613C86.5313 83.7812 88.1053 86.9011 89.9979 90.274C91.3845 92.7381 92.7243 94.9586 94.1672 97.4039C94.6931 98.3987 95.4168 99.2755 96.2939 99.9804L79.748 69.2871Z" fill="black"/>
</g>
<path d="M101.774 103.776C101.699 103.823 96.7335 94.744 90.7092 83.5104C84.6848 72.2768 79.8504 63.1232 79.9347 63.0764C80.019 63.0295 84.9659 72.1082 90.9996 83.3512C97.0334 94.5941 101.858 103.729 101.774 103.776Z" fill="#263238"/>
<path d="M116.466 97.9566C116.381 98.0129 110.957 88.1753 104.351 75.9954C97.7462 63.8155 92.4714 53.9029 92.5557 53.8093C92.64 53.7156 98.0647 63.5906 104.67 75.7705C111.275 87.9504 116.55 97.9098 116.466 97.9566Z" fill="#263238"/>
</svg>
