<svg width="18" height="23" viewBox="0 0 18 23" fill="none" xmlns="http://www.w3.org/2000/svg">
<path fill-rule="evenodd" clip-rule="evenodd" d="M8.67766 0.361379C8.57561 0.401707 8.48292 0.460812 8.40489 0.535308C6.87588 2.02792 5.47529 3.63512 4.21665 5.3414C2.41905 7.78924 0.599609 10.965 0.599609 13.9009C0.599609 16.7503 1.56897 18.9645 3.14649 20.4684C4.71729 21.9675 6.83073 22.7003 8.99961 22.7003C11.1685 22.7003 13.2819 21.9675 14.8527 20.4684C16.4302 18.9645 17.3996 16.7487 17.3996 13.9009C17.3996 10.965 15.5802 7.78924 13.7826 5.3398C11.9598 2.85516 10.0328 0.954481 9.59433 0.535308C9.5163 0.460812 9.4236 0.401707 9.32155 0.361379C9.2195 0.321051 9.1101 0.300293 8.99961 0.300293C8.88912 0.300293 8.77972 0.321051 8.67766 0.361379ZM9.00052 9.05047C9.58042 9.05047 10.0505 9.52057 10.0505 10.1005V12.5505H12.4999C13.0798 12.5505 13.5499 13.0206 13.5499 13.6005C13.5499 14.1804 13.0798 14.6505 12.4999 14.6505H10.0505V17.1005C10.0505 17.6804 9.58042 18.1505 9.00052 18.1505C8.42062 18.1505 7.95052 17.6804 7.95052 17.1005V14.6505H5.49988C4.91998 14.6505 4.44988 14.1804 4.44988 13.6005C4.44988 13.0206 4.91998 12.5505 5.49988 12.5505H7.95052V10.1005C7.95052 9.52057 8.42062 9.05047 9.00052 9.05047Z" fill="white"/>
</svg>
