<svg width="24" height="20" viewBox="0 0 24 20" fill="none" xmlns="http://www.w3.org/2000/svg">
<path d="M2.84846 2.5H21.1515C21.8706 2.5 22.4589 1.9375 22.4589 1.25C22.4589 0.5625 21.8706 0 21.1515 0H2.84846C2.12941 0 1.5411 0.5625 1.5411 1.25C1.5411 1.9375 2.12941 2.5 2.84846 2.5ZM22.6681 4.75C22.5504 4.175 22.0144 3.75 21.3869 3.75H2.61314C1.9856 3.75 1.44958 4.175 1.33192 4.75L0.0245582 11C-0.132325 11.775 0.482135 12.5 1.30577 12.5H1.5411V18.75C1.5411 19.4375 2.12941 20 2.84846 20H13.3074C14.0264 20 14.6147 19.4375 14.6147 18.75V12.5H19.8442V18.75C19.8442 19.4375 20.4325 20 21.1515 20C21.8706 20 22.4589 19.4375 22.4589 18.75V12.5H22.6942C23.5179 12.5 24.1323 11.775 23.9754 11L22.6681 4.75ZM12 17.5H4.15582V12.5H12V17.5Z" fill="#3C8AFF"/>
</svg>
