<svg width="181" height="202" viewBox="0 0 181 202" fill="none" xmlns="http://www.w3.org/2000/svg">
<circle cx="89.5" cy="97.5" r="87.5" fill="#E2EDFF"/>
<path d="M140.211 201.83L143.654 195.359L140.876 187.362V182.471L149.351 187.362V192.254L145.713 198.573C145.654 198.67 145.567 198.747 145.462 198.791L140.211 201.83Z" fill="#3C8AFF"/>
<path opacity="0.2" d="M140.211 201.83L143.654 195.359L140.876 187.362V182.471L149.351 187.362V192.254L145.713 198.573C145.654 198.67 145.567 198.747 145.462 198.791L140.211 201.83Z" fill="black"/>
<path d="M125 123.193C125.054 122.319 125.311 121.47 125.752 120.713C126.193 119.956 126.805 119.313 127.538 118.836L129.608 117.648C130.394 117.246 131.264 117.036 132.147 117.036C133.03 117.036 133.9 117.246 134.685 117.648L160.462 132.497C161.196 132.974 161.808 133.617 162.249 134.374C162.69 135.131 162.947 135.981 163 136.855V195.086C162.947 195.96 162.69 196.81 162.249 197.567C161.808 198.324 161.196 198.967 160.462 199.444L158.392 200.642C157.604 201.04 156.735 201.247 155.853 201.247C154.971 201.247 154.102 201.04 153.315 200.642L144.033 195.293L140.394 201.59C140.342 201.679 140.265 201.751 140.174 201.798C140.082 201.846 139.979 201.866 139.876 201.857C139.773 201.848 139.675 201.809 139.594 201.747C139.512 201.684 139.449 201.6 139.413 201.503L135.568 190.412L127.538 185.793C126.805 185.315 126.193 184.672 125.752 183.915C125.311 183.159 125.054 182.309 125 181.435V123.193Z" fill="#3C8AFF"/>
<path opacity="0.2" d="M162.997 195.086C162.945 195.961 162.687 196.81 162.247 197.567C161.806 198.324 161.194 198.967 160.459 199.444L158.389 200.643C157.674 201.002 156.89 201.206 156.091 201.242C155.291 201.277 154.493 201.144 153.748 200.85C154.936 201.296 155.851 200.621 155.851 199.172V140.984C155.821 140.1 155.566 139.237 155.11 138.479L162.257 134.35C162.713 135.108 162.968 135.971 162.997 136.855V195.086Z" fill="black"/>
<path opacity="0.5" d="M125.076 122.474C125.37 121.385 126.362 121.047 127.527 121.723L153.315 136.583C154.067 137.046 154.683 137.7 155.101 138.478L162.248 134.349C161.827 133.573 161.211 132.92 160.461 132.454L134.696 117.605C133.907 117.207 133.036 117 132.152 117C131.269 117 130.397 117.207 129.608 117.605L127.527 118.803C126.892 119.218 126.348 119.757 125.926 120.388C125.505 121.019 125.216 121.729 125.076 122.474Z" fill="white"/>
<path d="M137.436 137.988V164.734H137.24C135.061 165.137 133.775 167.654 133.775 171.271C133.775 176.555 136.564 182.459 139.996 184.442C143.428 186.425 146.217 183.734 146.217 178.461C146.174 174.663 144.965 170.97 142.752 167.883L142.556 167.621V140.941C142.556 138.762 141.412 136.332 139.996 135.493C138.58 134.654 137.436 135.809 137.436 137.988Z" fill="#FAFAFA"/>
<path d="M139.188 169.081V144.1C139.188 143.414 139.548 143.011 139.994 143.316C140.249 143.522 140.453 143.783 140.593 144.079C140.732 144.375 140.803 144.699 140.801 145.026V170.018C142.661 171.972 143.702 174.565 143.709 177.263C143.709 180.422 142.042 182.024 139.994 180.836C137.946 179.649 136.279 176.141 136.279 172.981C136.279 170.258 137.521 168.689 139.188 169.081Z" fill="#FF618F"/>
<path d="M143.285 167.425V141.355C143.285 138.576 141.814 135.461 140.017 134.415C138.219 133.369 136.748 134.785 136.748 137.574V163.645C134.482 164.211 133.088 166.978 133.088 170.933C133.088 176.827 136.204 183.418 140.028 185.63C143.852 187.841 146.967 184.834 146.967 178.951C146.91 174.829 145.628 170.817 143.285 167.425ZM140.017 184.519C136.585 182.536 133.796 176.631 133.796 171.347C133.796 167.697 135.125 165.181 137.26 164.81H137.457V158.47L138.459 159.08C138.516 159.091 138.576 159.091 138.633 159.08C138.704 159.076 138.772 159.049 138.827 159.004C138.883 158.959 138.922 158.898 138.94 158.829C138.958 158.76 138.954 158.687 138.928 158.621C138.903 158.554 138.856 158.498 138.797 158.459L137.457 157.642V154.286L138.459 154.886C138.534 154.93 138.624 154.943 138.709 154.922C138.793 154.901 138.866 154.846 138.911 154.771C138.956 154.696 138.969 154.606 138.947 154.521C138.926 154.437 138.872 154.364 138.797 154.319L137.435 153.502V150.103L138.437 150.702C138.494 150.718 138.554 150.718 138.611 150.702C138.668 150.7 138.724 150.684 138.773 150.656C138.823 150.627 138.864 150.587 138.895 150.539C138.918 150.501 138.933 150.459 138.94 150.415C138.946 150.372 138.944 150.327 138.933 150.284C138.921 150.241 138.902 150.201 138.875 150.166C138.847 150.132 138.813 150.102 138.775 150.081L137.435 149.264V145.876L138.437 146.475C138.494 146.491 138.554 146.491 138.611 146.475C138.668 146.473 138.724 146.457 138.773 146.429C138.823 146.4 138.864 146.36 138.895 146.312C138.918 146.274 138.933 146.232 138.94 146.188C138.946 146.144 138.944 146.1 138.933 146.057C138.921 146.014 138.902 145.974 138.875 145.939C138.847 145.904 138.813 145.875 138.775 145.854L137.435 145.037V141.736L138.437 142.335C138.494 142.351 138.554 142.351 138.611 142.335C138.668 142.333 138.724 142.317 138.773 142.289C138.823 142.26 138.864 142.22 138.895 142.172C138.918 142.134 138.933 142.092 138.94 142.048C138.946 142.005 138.944 141.96 138.933 141.917C138.921 141.874 138.902 141.834 138.875 141.799C138.847 141.765 138.813 141.735 138.775 141.714L137.435 140.897V137.988C137.435 135.809 138.579 134.72 139.995 135.526C141.411 136.332 142.555 138.794 142.555 140.973V167.665L142.751 167.926C144.964 171.014 146.173 174.707 146.216 178.505C146.216 183.81 143.427 186.501 140.017 184.519Z" fill="#455A64"/>
<path d="M69.7712 174.661C69.948 175.959 69.767 177.282 69.2475 178.485C68.728 179.689 67.8898 180.727 66.8233 181.489L54.026 189.68C52.8069 190.401 51.4183 190.784 50.0024 190.791L49.7867 190.8C46.6378 179.623 39.878 128.211 43.3411 92.4273L46.8458 90.1502L56.8032 83.7752L57.8557 83.1173L61.3604 80.8401L65.0419 78.4833C65.0962 79.742 64.8644 81.0491 64.7811 82.4579C64.8049 82.6246 64.8122 82.7933 64.8028 82.9614C64.8494 84.0403 64.6833 85.2005 64.6704 86.5702C64.6575 87.9399 64.7605 88.6561 64.5209 89.7833C64.5209 89.7833 64.5334 90.071 64.5396 90.2149C64.5753 91.042 64.611 91.8692 64.6483 92.7323C64.5454 97.0244 64.4924 101.639 64.5206 106.465L64.6464 109.378C64.7831 112.543 64.7055 115.753 64.8124 119.063C64.8699 120.394 64.9273 121.725 64.9863 123.091C65.154 126.975 65.3264 130.967 65.5003 134.995C65.5857 136.973 65.6696 138.915 65.755 140.893C65.8404 142.871 65.9491 145.389 66.2627 147.645C66.5763 149.901 66.632 152.025 66.869 154.176C67.106 156.328 67.3102 158.553 67.5832 160.703C67.8562 162.853 68.0901 164.933 68.3944 166.973C68.3801 167.069 68.3843 167.167 68.4068 167.261C68.6689 169.159 68.9218 170.842 69.2229 172.811C69.2164 173.063 69.2273 173.315 69.2556 173.566C69.2556 173.566 69.268 173.854 69.2742 173.997L69.7712 174.661Z" fill="#37474F"/>
<path d="M49.9666 190.829L49.7508 190.838C48.4912 190.901 47.2371 190.632 46.1141 190.058L36.3307 184.608C33.9208 183.163 32.1287 180.88 31.2978 178.196C26.5515 152.542 23.9463 126.539 23.5092 100.454C23.4775 100.155 23.4646 99.855 23.4704 99.5548C23.6119 96.9906 23.7565 94.4982 23.9745 92.0388C23.9745 92.0388 23.9652 91.823 23.9621 91.751C24.0814 90.3407 24.2366 88.9288 24.3934 87.5529L28.3393 89.6524L39.1811 90.4093L43.0895 92.4744C41.7369 125.413 44.0435 158.399 49.9666 190.829Z" fill="#455A64"/>
<path d="M36.4978 10.8261C34.3764 9.26028 32.4908 8.98138 31.2663 9.82692L2.83294 28.061C2.17305 28.6306 1.67216 29.3615 1.37922 30.1825C1.08628 31.0035 1.01129 31.8864 1.1616 32.7451L2.45514 62.7026C3.208 68.2062 5.9959 73.228 10.269 76.7773C16.3608 81.8468 77.619 105.36 77.619 105.36L76.7012 84.1054C78.81 82.7752 81.1754 81.9043 83.6433 81.5494C86.1112 81.1945 88.6263 81.3636 91.0244 82.0457C96.2186 83.1893 101.263 84.9302 106.057 87.2336L104.6 53.4999L36.4978 10.8261Z" fill="#37474F"/>
<path d="M10.0566 76.7865C5.78354 73.2371 2.99564 68.2154 2.24278 62.7117L0.949233 32.7542C0.734935 27.7913 3.79854 26.1457 7.78171 29.1084L78.4937 67.1298L77.2689 105.519C72.475 103.216 67.4306 101.475 62.2364 100.331C50.8494 97.7963 42.9469 103.362 42.5892 112.601L23.2312 99.0249C23.8484 89.9546 16.2204 81.8529 10.0566 76.7865Z" fill="#455A64"/>
<path d="M104.529 53.4308C100.839 51.4282 95.5292 51.9458 89.9539 55.5013C84.0845 59.7033 79.29 65.2315 75.9602 71.6361C72.6305 78.0408 70.8597 85.141 70.7919 92.3591C71.0776 98.9764 73.614 103.479 77.4473 105.475C78.6996 106.106 83.6085 108.812 84.8201 109.336C88.5081 111.303 93.7448 110.752 99.1418 107.241C105.009 103.037 109.802 97.5079 113.132 91.1037C116.461 84.6996 118.233 77.6004 118.304 70.3828C118.018 63.7655 115.482 59.2631 111.648 57.2668L104.529 53.4308Z" fill="#3C8AFF"/>
<path opacity="0.2" d="M97.2895 59.2924C108.442 52.2173 117.952 57.1751 118.521 70.3737C118.451 77.5913 116.679 84.6905 113.349 91.0947C110.02 97.4989 105.227 103.027 99.3595 107.232C88.2088 114.343 78.6989 109.385 78.1275 96.1502C78.1982 88.9326 79.9703 81.8334 83.2998 75.4292C86.6292 69.025 91.4222 63.4964 97.2895 59.2924Z" fill="black"/>
<path opacity="0.2" d="M97.9541 74.6125C101.951 72.0619 105.378 73.8235 105.585 78.6067C105.555 81.1978 104.916 83.7456 103.72 86.0443C102.523 88.3429 100.803 90.3279 98.6979 91.839C94.6662 94.4271 91.2377 92.6295 91.0312 87.8464C91.0621 85.2513 91.7052 82.7001 92.9081 80.4005C94.1111 78.1009 95.84 76.1178 97.9541 74.6125Z" fill="black"/>
<path d="M20.3684 48.4893L42.4806 59.929C43.6507 60.6112 44.6423 61.561 45.3742 62.7006C46.1061 63.8402 46.5574 65.1371 46.691 66.4849L47.2423 79.2519C47.3494 81.7334 45.6354 82.9243 43.4201 81.6869L21.3079 70.2472C20.1489 69.5465 19.1685 68.5862 18.4438 67.442C17.7192 66.2979 17.2701 65.0011 17.1319 63.6538L16.5807 50.8868C16.4735 48.4053 18.1922 47.3222 20.3684 48.4893Z" fill="#3C8AFF"/>
<path d="M148.934 37.628C147.972 34.1449 146.081 30.9892 143.462 28.499C140.844 26.0088 137.598 24.2779 134.071 23.4918C133.402 23.3375 132.7 23.4188 132.084 23.7222C131.467 24.0255 130.975 24.5323 130.689 25.1567C130.522 25.5494 130.442 25.9741 130.457 26.4008C130.471 26.8275 130.579 27.2459 130.774 27.6262C130.968 28.0065 131.243 28.3394 131.58 28.6015C131.917 28.8635 132.308 29.0483 132.724 29.1427C135.216 29.6852 137.512 30.8981 139.365 32.6506C141.218 34.403 142.557 36.6283 143.237 39.0861C143.917 41.5439 143.913 44.1409 143.225 46.5965C142.536 49.0521 141.19 51.273 139.332 53.0194C139.02 53.3153 138.777 53.6767 138.621 54.0776C138.465 54.4785 138.4 54.9089 138.43 55.338C138.46 55.7671 138.585 56.1842 138.795 56.5594C139.006 56.9345 139.297 57.2584 139.647 57.5077C140.208 57.9218 140.896 58.1249 141.592 58.0811C142.287 58.0373 142.945 57.7495 143.449 57.2684C146.048 54.7929 147.93 51.6609 148.896 48.2035C149.862 44.7462 149.875 41.0922 148.934 37.628Z" fill="#3C8AFF"/>
<path d="M160.617 34.4135C159.169 29.2202 156.438 24.4746 152.675 20.6128C148.913 16.7511 144.24 13.8972 139.086 12.3137C138.383 12.0828 137.62 12.1192 136.943 12.4161C136.265 12.713 135.721 13.2493 135.414 13.9225C135.254 14.3052 135.176 14.7177 135.186 15.1327C135.197 15.5476 135.295 15.9557 135.474 16.3299C135.654 16.7041 135.911 17.036 136.228 17.3037C136.546 17.5713 136.916 17.7686 137.315 17.8826C141.532 19.1543 145.358 21.473 148.436 24.6226C151.515 27.7722 153.746 31.6501 154.921 35.8946C156.096 40.1392 156.177 44.6122 155.157 48.8966C154.136 53.181 152.048 57.1372 149.085 60.3964C148.788 60.7055 148.562 61.076 148.423 61.4818C148.284 61.8876 148.236 62.3189 148.282 62.7454C148.328 63.1718 148.467 63.5831 148.688 63.9502C148.91 64.3173 149.21 64.6313 149.566 64.8702C150.174 65.3064 150.922 65.5016 151.666 65.4184C152.41 65.3352 153.097 64.9793 153.594 64.4196C157.194 60.4125 159.725 55.562 160.952 50.317C162.18 45.0721 162.065 39.6021 160.617 34.4135Z" fill="#3C8AFF"/>
<path d="M159.91 72.5004C159.371 72.3926 158.868 72.152 158.446 71.8004C157.8 71.2478 157.4 70.4615 157.334 69.6143C157.267 68.7671 157.539 67.928 158.09 67.2811C162.009 62.6764 164.754 57.1905 166.089 51.2931C167.425 45.3957 167.311 39.2626 165.757 33.4188C164.204 27.575 161.258 22.1948 157.171 17.7387C153.083 13.2826 147.977 9.8834 142.289 7.83223L141.417 7.66391C141.017 7.53174 140.646 7.32195 140.327 7.04652C140.007 6.77109 139.745 6.43541 139.555 6.05866C139.365 5.68191 139.251 5.27145 139.22 4.85073C139.189 4.43001 139.241 4.00725 139.373 3.60661C139.505 3.20597 139.715 2.83528 139.991 2.51572C140.266 2.19615 140.602 1.93398 140.978 1.74414C141.355 1.55431 141.766 1.44054 142.186 1.40933C142.607 1.37812 143.03 1.43008 143.43 1.56225L144.428 1.9172C151.105 4.31344 157.101 8.29523 161.899 13.5203C166.697 18.7454 170.155 25.0575 171.975 31.9141C173.795 38.7707 173.923 45.9666 172.347 52.8835C170.772 59.8004 167.54 66.2313 162.931 71.6235C162.545 72.0166 162.064 72.3038 161.535 72.4574C161.006 72.611 160.447 72.6258 159.91 72.5004Z" fill="#3C8AFF"/>
</svg>
