<svg width="219" height="233" viewBox="0 0 219 233" fill="none" xmlns="http://www.w3.org/2000/svg">
<circle cx="87.2835" cy="144.018" r="87.2835" fill="#E2EDFF"/>
<path d="M46.6229 35.4314L41.9029 27.253L39.4016 28.6995C39.0408 28.9052 38.6297 29.0061 38.2146 28.9907C37.7995 28.9753 37.397 28.8443 37.0524 28.6125C36.6609 28.3623 36.2477 28.1231 35.8235 27.9056C35.4467 27.7276 35.127 27.4481 34.9003 27.0985C34.6736 26.7488 34.5489 26.3428 34.5402 25.9262V23.0225H25.1438V25.9262C25.1411 26.3401 25.0239 26.7452 24.805 27.0965C24.5862 27.4478 24.2743 27.7316 23.904 27.9164C23.4798 28.1339 23.0666 28.3732 22.6751 28.6233C22.3305 28.8552 21.928 28.9862 21.5129 29.0016C21.0978 29.017 20.6867 28.9161 20.3259 28.7103L17.8246 27.2639L13.1046 35.4423L15.6169 36.8887C15.9732 37.0998 16.2637 37.4059 16.4558 37.7728C16.6478 38.1397 16.7339 38.5528 16.7044 38.9659C16.7044 39.2052 16.7044 39.4336 16.7044 39.6619C16.7044 39.8903 16.7044 40.1296 16.7044 40.358C16.7327 40.7709 16.646 41.1836 16.4541 41.5502C16.2621 41.9169 15.9723 42.2232 15.6169 42.4352L13.0938 43.8925L17.8246 52.0274L20.3368 50.5809C20.6966 50.3736 21.1072 50.2709 21.5222 50.2843C21.9373 50.2978 22.3403 50.4269 22.6859 50.6571C23.0781 50.9158 23.4848 51.1519 23.904 51.364C24.2735 51.5498 24.5847 51.8338 24.8035 52.1849C25.0222 52.536 25.1399 52.9406 25.1438 53.3542V56.2471H34.5402V53.3868C34.5441 52.9732 34.6618 52.5686 34.8805 52.2176C35.0992 51.8665 35.4105 51.5824 35.78 51.3966C36.1992 51.1845 36.6059 50.9485 36.9981 50.6897C37.3458 50.4597 37.7506 50.3308 38.1673 50.3174C38.584 50.304 38.9962 50.4065 39.358 50.6136L41.9029 52.0274L46.6229 43.849L44.1106 42.4352C43.7552 42.2232 43.4654 41.9169 43.2734 41.5502C43.0815 41.1836 42.9948 40.7709 43.0231 40.358C43.0231 40.1187 43.0231 39.8903 43.0231 39.6511C43.0231 39.4118 43.0231 39.1943 43.0231 38.955C42.9936 38.542 43.0797 38.1288 43.2717 37.7619C43.4638 37.395 43.7543 37.0889 44.1106 36.8778L46.6229 35.4314ZM37.5962 39.6511C37.5962 41.1804 37.1427 42.6754 36.2931 43.947C35.4434 45.2186 34.2358 46.2097 32.8228 46.7949C31.4099 47.3802 29.8552 47.5333 28.3552 47.235C26.8553 46.9366 25.4775 46.2002 24.3961 45.1188C23.3147 44.0374 22.5782 42.6596 22.2799 41.1596C21.9815 39.6597 22.1346 38.1049 22.7199 36.692C23.3051 35.2791 24.2962 34.0714 25.5678 33.2218C26.8394 32.3721 28.3344 31.9186 29.8637 31.9186C31.9145 31.9186 33.8813 32.7333 35.3314 34.1834C36.7816 35.6335 37.5962 37.6003 37.5962 39.6511Z" fill="#EBEBEB"/>
<path d="M60.1936 12.7134L45.925 13.018L38.6819 13.1376C36.2567 13.1376 33.8206 13.1376 31.3953 13.2028H30.9168V12.7134L30.8516 0.543774V0H31.3953L45.7945 0.0652544C50.6014 0.0652544 55.3975 0.195758 60.1936 0.250136H60.4981V0.543774C60.4981 2.61012 60.4003 4.66558 60.3568 6.68842L60.1936 12.7134ZM60.1936 12.7134L60.0414 6.56879C60.0414 4.53508 59.9217 2.53399 59.9 0.543774L60.1936 0.837413C55.3975 0.837413 50.6014 1.01142 45.7945 1.02229L31.3953 1.08755L31.9391 0.543774V12.7134L31.4497 12.224C33.8206 12.224 36.1914 12.224 38.5732 12.2893L45.7292 12.4089L60.1936 12.7134Z" fill="#EBEBEB"/>
<path d="M218.086 81.4648H141.109V131.731H218.086V81.4648Z" fill="#686868"/>
<path d="M218.086 134.679H141.109V184.945H218.086V134.679Z" fill="#828282"/>
<path d="M156.205 144.336H148.723V151.818H156.205V144.336Z" fill="white"/>
<path d="M165.24 144.336H157.758V151.818H165.24V144.336Z" fill="#686868"/>
<path d="M174.287 144.336H166.805V151.818H174.287V144.336Z" fill="white"/>
<path d="M183.33 144.336H175.848V151.818H183.33V144.336Z" fill="white"/>
<path d="M192.377 144.336H184.895V151.818H192.377V144.336Z" fill="white"/>
<path d="M201.424 144.336H193.941V151.818H201.424V144.336Z" fill="white"/>
<path d="M210.463 144.336H202.98V151.818H210.463V144.336Z" fill="white"/>
<path d="M156.205 153.449H148.723V160.932H156.205V153.449Z" fill="white"/>
<path d="M165.24 153.449H157.758V160.932H165.24V153.449Z" fill="white"/>
<path d="M174.287 153.449H166.805V160.932H174.287V153.449Z" fill="white"/>
<path d="M183.33 153.449H175.848V160.932H183.33V153.449Z" fill="white"/>
<path d="M192.377 153.449H184.895V160.932H192.377V153.449Z" fill="#686868"/>
<path d="M201.424 153.449H193.941V160.932H201.424V153.449Z" fill="white"/>
<path d="M210.463 153.449H202.98V160.932H210.463V153.449Z" fill="white"/>
<path d="M156.205 162.553H148.723V170.035H156.205V162.553Z" fill="white"/>
<path d="M165.24 162.553H157.758V170.035H165.24V162.553Z" fill="white"/>
<path d="M174.287 162.553H166.805V170.035H174.287V162.553Z" fill="white"/>
<path d="M183.33 162.553H175.848V170.035H183.33V162.553Z" fill="white"/>
<path d="M192.377 162.553H184.895V170.035H192.377V162.553Z" fill="white"/>
<path d="M201.424 162.553H193.941V170.035H201.424V162.553Z" fill="white"/>
<path d="M210.463 162.553H202.98V170.035H210.463V162.553Z" fill="white"/>
<path d="M156.205 171.655H148.723V179.138H156.205V171.655Z" fill="white"/>
<path d="M165.24 171.655H157.758V179.138H165.24V171.655Z" fill="white"/>
<path d="M174.287 171.655H166.805V179.138H174.287V171.655Z" fill="white"/>
<path d="M183.33 171.655H175.848V179.138H183.33V171.655Z" fill="white"/>
<path d="M192.377 171.655H184.895V179.138H192.377V171.655Z" fill="white"/>
<path d="M201.424 171.655H193.941V179.138H201.424V171.655Z" fill="white"/>
<path d="M210.463 171.655H202.98V179.138H210.463V171.655Z" fill="white"/>
<path d="M147.047 129.339H144.121V137.06H147.047V129.339Z" fill="#8D8D8D"/>
<path d="M153.843 129.339H150.918V137.06H153.843V129.339Z" fill="#8D8D8D"/>
<path d="M160.652 129.339H157.727V137.06H160.652V129.339Z" fill="#8D8D8D"/>
<path d="M167.445 129.339H164.52V137.06H167.445V129.339Z" fill="#8D8D8D"/>
<path d="M174.261 129.339H171.336V137.06H174.261V129.339Z" fill="#8D8D8D"/>
<path d="M181.058 129.339H178.133V137.06H181.058V129.339Z" fill="#8D8D8D"/>
<path d="M187.863 129.339H184.938V137.06H187.863V129.339Z" fill="#8D8D8D"/>
<path d="M194.66 129.339H191.734V137.06H194.66V129.339Z" fill="#8D8D8D"/>
<path d="M201.468 129.339H198.543V137.06H201.468V129.339Z" fill="#8D8D8D"/>
<path d="M208.265 129.339H205.34V137.06H208.265V129.339Z" fill="#8D8D8D"/>
<path d="M215.074 129.339H212.148V137.06H215.074V129.339Z" fill="#8D8D8D"/>
<path d="M176.824 36.5458C176.371 40.9036 174.716 45.0498 172.042 48.5211C169.369 51.9924 165.784 54.6522 161.686 56.2034C157.588 57.7547 153.14 58.1363 148.838 57.3056C144.537 56.475 140.55 54.4648 137.325 51.4996L125.492 53.2288L131.408 43.0058C130.054 39.6774 129.477 36.0842 129.719 32.4991C129.962 28.914 131.018 25.4314 132.809 22.3159C134.599 19.2003 137.076 16.5338 140.051 14.5189C143.026 12.504 146.421 11.1938 149.979 10.6878C153.536 10.1817 157.162 10.4932 160.582 11.5986C164.001 12.7039 167.123 14.5741 169.711 17.0668C172.299 19.5596 174.284 22.6095 175.517 25.9848C176.75 29.36 177.197 32.9718 176.824 36.5458Z" fill="white"/>
<path d="M176.822 36.546C176.366 40.8981 174.713 45.0389 172.047 48.509C171.376 49.3776 170.649 50.2023 169.872 50.9777C169.085 51.7302 168.253 52.4348 167.382 53.0876C163.865 55.73 159.688 57.3518 155.31 57.7749C154.225 57.8772 153.135 57.899 152.047 57.8402C150.952 57.814 149.861 57.7013 148.785 57.503C144.426 56.7036 140.377 54.7037 137.093 51.7281L137.365 51.8151L125.554 53.6313L124.695 53.7618L125.13 53.0006L131.014 42.7559V43.1582C129.629 39.7694 129.04 36.108 129.293 32.4559C129.546 28.8037 130.633 25.2583 132.471 22.0924C134.314 18.9397 136.846 16.2442 139.877 14.2077C142.909 12.1911 146.361 10.8929 149.97 10.4122C153.55 9.91021 157.198 10.2376 160.632 11.3689C164.066 12.5003 167.193 14.4055 169.774 16.9375C172.36 19.4567 174.338 22.5316 175.559 25.9289C176.78 29.3263 177.212 32.957 176.822 36.546ZM176.822 36.546C177.204 32.9846 176.762 29.3831 175.531 26.0196C174.3 22.6561 172.312 19.6205 169.721 17.1474C167.13 14.6743 164.005 12.8297 160.588 11.7561C157.171 10.6826 153.553 10.4088 150.013 10.9559C146.498 11.4762 143.149 12.7971 140.226 14.8167C137.344 16.8431 134.936 19.47 133.167 22.5166C131.428 25.584 130.402 29.0038 130.166 32.522C129.947 36.0387 130.512 39.56 131.819 42.832L131.906 43.0495L131.797 43.2344L125.848 53.4465L125.424 52.8157L137.257 51.1626H137.42L137.539 51.2714C140.697 54.2296 144.618 56.2483 148.861 57.1006C149.918 57.3179 150.991 57.4489 152.069 57.4921C153.155 57.5699 154.245 57.5699 155.332 57.4921C157.492 57.3278 159.618 56.8629 161.65 56.111C163.69 55.3489 165.607 54.2898 167.338 52.9679C168.228 52.3355 169.078 51.6491 169.883 50.9125C170.66 50.148 171.386 49.3343 172.058 48.4764C174.709 45.0112 176.357 40.8841 176.822 36.546Z" fill="#263238"/>
<path d="M150.534 47.563L140.441 37.3509L143.835 33.9904L149.729 39.961L161.986 20.7549L166.01 23.3106L150.534 47.563Z" fill="#3C8AFF"/>
<mask id="mask0_2455_25883" style="mask-type:alpha" maskUnits="userSpaceOnUse" x="17" y="27" width="174" height="206">
<path d="M190.533 27.6396C190.533 45.2646 193.441 166.94 147.275 213.292C133.093 225.754 100.044 232.756 79.9882 232.756C59.9326 232.756 48.3849 222.854 34.2034 210.391C20.0219 197.928 17.457 45.2646 17.457 27.6396H190.533Z" fill="#D9D9D9"/>
</mask>
<g mask="url(#mask0_2455_25883)">
<path d="M142.827 411.533H93.0609C93.0609 411.533 90.2551 405.007 91.1142 394.947C93.9092 362.191 102.066 292.185 101.761 290.597C101.25 287.933 98.2485 275.904 94.2464 260.146C92.9848 255.23 91.6362 249.956 90.2224 244.485C86.4269 229.694 82.2398 213.534 78.5965 199.472C73.1588 178.406 68.8086 162.038 68.8086 162.038H111.941C111.941 162.038 116.965 177.971 123.306 198.71C133.637 232.424 147.438 278.765 148.809 290.064C150.483 303.931 148.363 367.139 146.188 396.47C145.9 401.641 144.764 406.73 142.827 411.533Z" fill="#37474F"/>
<path d="M111.334 283.331C109.67 275.979 107.168 268.769 105.004 261.58C100.589 246.906 96.1478 232.242 91.6816 217.589C89.4485 210.259 87.2081 202.936 84.9605 195.62C83.873 191.923 82.6875 188.225 81.5239 184.527C80.3602 180.83 79.0986 177.339 78.0763 173.652C77.6631 172.173 77.4347 172.978 77.9676 174.87C79.0551 178.666 80.1427 182.483 81.2302 186.246C83.4053 193.735 85.613 201.229 87.8534 208.725C92.2688 223.639 96.7242 238.539 101.219 253.424C103.46 260.884 105.707 268.348 107.962 275.816C109.097 279.383 110.016 283.015 110.714 286.692C111.313 290.526 111.463 294.416 111.16 298.285C110.681 306.061 109.778 313.837 109.061 321.613L106.885 344.963C105.435 360.464 104.018 375.958 102.633 391.444C102.448 393.402 102.285 395.371 102.133 397.339C102.133 397.992 103.079 397.948 103.144 397.339C104.819 382.026 106.102 366.659 107.495 351.314L111.769 305.517C112.127 301.678 112.53 297.839 112.53 293.989C112.539 290.403 112.138 286.827 111.334 283.331Z" fill="#263238"/>
<path d="M107.083 162.092C104.103 185.257 98.3824 228.682 94.2497 260.2C84.4618 222.016 68.8555 162.092 68.8555 162.092H107.083Z" fill="#263238"/>
<path d="M110.583 162.091C109.822 173.59 107.924 184.985 104.917 196.109C104.547 197.458 104.134 198.785 103.688 200.057C99.3583 201.806 95.1974 203.946 91.2573 206.452C91.2573 206.452 90.7244 226.028 90.1698 244.516C89.626 265.18 89.0822 288.301 89.1801 293.195C89.5173 307.181 90.2677 369.16 89.539 397.741C89.4996 402.698 88.6132 407.612 86.918 412.271L38.2829 412.488C35.6232 407.794 34.4833 402.391 35.0202 397.023C37.5324 365.941 45.167 298.415 45.1235 293.26C45.0256 282.472 47.5705 234.794 49.539 200.014C50.7462 178.589 51.7141 162.08 51.7141 162.08L110.583 162.091Z" fill="#37474F"/>
<path d="M56.0956 169.476C55.1603 197.861 54.1707 226.246 52.9091 254.62C51.6476 282.994 49.9401 311.553 47.5584 339.96C46.2316 355.827 44.9809 378.143 43.2734 393.978C43.2734 394.087 43.4257 394.119 43.4366 393.978C47.1342 365.821 49.1897 331.009 51.0494 302.624C52.9091 274.239 54.0945 245.908 55.0516 217.534C55.5954 201.482 56.0086 185.43 56.4872 169.378C56.4545 169.225 56.0956 169.247 56.0956 169.476Z" fill="#263238"/>
<path d="M98.48 189.139C98.6214 187.986 98.7519 186.833 98.9042 185.681C99.1652 183.56 99.5349 181.461 99.8394 179.351C100.535 174.566 101.264 169.759 102.189 165.006C102.189 164.897 102.406 164.919 102.395 165.006C102.265 166.92 102.102 168.824 101.884 170.727C101.667 172.63 101.547 174.544 101.329 176.447C100.905 180.232 100.492 184.06 99.9591 187.78C99.7524 189.226 98.9368 191.836 101.047 192.228C102.7 192.532 103.863 190.879 104.309 189.509C104.776 187.799 105.096 186.053 105.266 184.288C105.549 182.374 105.799 180.46 106.006 178.546C106.47 174.37 106.985 170.201 107.55 166.039C107.55 165.92 107.757 165.952 107.757 166.039C107.793 170.302 107.612 174.563 107.213 178.807C107.006 180.83 106.756 182.864 106.473 184.887C106.329 186.827 105.915 188.737 105.245 190.564C104.973 191.284 104.523 191.924 103.937 192.424C103.352 192.924 102.649 193.268 101.895 193.424H101.797C101.816 193.437 101.832 193.455 101.844 193.476C101.855 193.497 101.861 193.52 101.862 193.544C101.862 194.218 101.862 194.892 101.862 195.566C101.862 196.241 101.688 196.904 101.59 197.567C101.487 198.241 101.335 198.906 101.134 199.558C101.034 199.872 100.918 200.18 100.786 200.482C100.634 200.776 100.463 201.059 100.274 201.33C100.209 201.45 100.068 201.33 100.057 201.265V200.884C100.046 200.689 100.046 200.493 100.057 200.297C100.057 199.971 100.166 199.645 100.22 199.329C100.34 198.688 100.503 198.035 100.655 197.404C100.807 196.774 100.927 196.121 101.068 195.479C101.21 194.838 101.416 194.174 101.547 193.511C101.547 193.511 101.547 193.511 101.547 193.446C100.938 193.491 100.33 193.35 99.8032 193.041C99.2766 192.732 98.8567 192.27 98.5996 191.716C98.3429 190.881 98.3017 189.994 98.48 189.139Z" fill="#263238"/>
<path d="M87.4611 207.594C88.8425 206.543 90.2961 205.591 91.8113 204.745C93.3981 203.79 95.0435 202.937 96.7379 202.189C100.055 200.754 103.481 199.764 106.917 198.633C107.015 198.633 107.08 198.774 106.983 198.807C103.72 200.134 100.457 201.885 97.2708 203.451C95.6974 204.219 94.1024 204.944 92.4856 205.626C90.876 206.344 89.2229 207.17 87.6133 207.801C87.5859 207.814 87.5547 207.817 87.5251 207.81C87.4954 207.803 87.4693 207.785 87.4512 207.761C87.4331 207.736 87.4242 207.706 87.426 207.676C87.4278 207.645 87.4402 207.616 87.4611 207.594Z" fill="#263238"/>
<path d="M61.5229 178.633C63.8612 178.609 66.1878 178.299 68.4506 177.709C69.5382 177.437 70.5278 177.1 71.5501 176.763C72.5629 176.487 73.5098 176.009 74.3342 175.36C75.9112 174.011 76.6507 171.869 77.325 169.976C78.0745 167.844 78.6812 165.664 79.1412 163.451C79.1412 163.342 79.3261 163.386 79.337 163.451C79.3873 165.964 79.0685 168.47 78.3908 170.89C77.8253 172.934 77.064 175.24 75.4109 176.665C73.566 178.043 71.3583 178.852 69.0596 178.992C66.553 179.277 64.0203 179.24 61.5229 178.883C61.496 178.875 61.4724 178.859 61.4556 178.836C61.4388 178.814 61.4297 178.786 61.4297 178.758C61.4297 178.73 61.4388 178.703 61.4556 178.68C61.4724 178.658 61.496 178.641 61.5229 178.633Z" fill="#263238"/>
<path d="M96.4091 100.569C101.118 111.445 119.585 146.246 131.156 148.487C138.769 149.911 169.221 146.137 174.234 138.786C176.409 135.577 171.983 113.772 167.937 114.729C163.892 115.686 139.52 119.601 136.496 118.807C133.473 118.013 110.254 92.7062 101.695 86.4963C86.8713 75.8057 93.8752 94.7399 96.4091 100.569Z" fill="#EB9481"/>
<path d="M96.4123 100.569C101.121 111.445 118.239 144.071 129.039 148.78C133.389 150.672 147.527 151.412 156.227 150.955C160.447 150.716 164.591 145.833 164.591 145.833L159.784 115.74C157.616 114.933 155.309 114.563 152.997 114.653C145.885 115.305 138.055 117.72 135.966 117.176C132.954 116.382 110.257 92.7062 101.676 86.4963C86.8745 75.8057 93.8783 94.7399 96.4123 100.569Z" fill="#3C8AFF"/>
<path d="M157.89 148.019C157.651 145.409 157.532 142.799 157.292 140.189C157.053 137.579 156.781 135.088 156.466 132.576C156.15 130.064 155.824 127.497 155.476 124.963C155.302 123.713 155.106 122.473 154.9 121.233C154.765 119.894 154.547 118.565 154.247 117.253C154.247 117.253 154.16 117.198 154.16 117.253C154.172 118.522 154.259 119.789 154.421 121.048C154.508 122.299 154.606 123.56 154.726 124.822C154.965 127.421 155.237 130.01 155.53 132.609C155.824 135.208 156.139 137.775 156.509 140.363C156.879 142.951 157.347 145.507 157.716 148.074C157.724 148.097 157.74 148.116 157.761 148.127C157.783 148.139 157.808 148.141 157.831 148.134C157.854 148.126 157.873 148.11 157.884 148.089C157.895 148.068 157.898 148.042 157.89 148.019Z" fill="#263238"/>
<path opacity="0.1" d="M135.511 150.216C133.283 150.019 131.09 149.536 128.986 148.78C118.197 144.06 101.079 111.401 96.3591 100.569C94.358 95.9579 89.551 83.1683 94.9561 83.2771L135.511 150.216Z" fill="black"/>
<path d="M50.5156 175.349L99.0202 175.207L103.795 164.919C104.425 164.919 106.078 175.196 106.078 175.196H116.29C116.29 175.61 119.314 171.009 118.346 163.418C115.975 144.636 109.874 107.529 96.2035 82.7875C94.8875 80.4275 83.316 77.9044 78.2154 82.6244C61.0974 98.5026 51.2333 142.07 47.6227 162.407C46.546 168.486 50.5156 175.555 50.5156 175.349Z" fill="#3C8AFF"/>
<path d="M103.793 164.919C104.327 161.887 104.487 158.801 104.271 155.73C104.271 154.196 104.13 152.663 104.043 151.118L103.629 146.529C103.01 140.406 102.107 134.316 101.106 128.236C100.106 122.157 98.9312 116.099 97.8437 110.053L94.2656 91.9014C95.0704 94.8812 95.7991 97.872 96.5712 100.863C97.3434 103.854 97.9633 106.877 98.6593 109.879C100.008 115.904 101.128 121.983 102.194 128.062C103.26 134.142 104.032 140.286 104.478 146.453L104.75 151.086C104.75 152.63 104.858 154.174 104.826 155.719V158.046L104.673 160.363C104.545 161.909 104.25 163.437 103.793 164.919Z" fill="#263238"/>
<path d="M94.6745 91.9884C91.1073 92.5321 84.1579 87.823 82.0807 82.6246C81.9393 82.2657 82.8746 78.8073 83.8098 74.5441C84.3645 71.9557 84.8974 69.1063 85.2454 66.3766C85.3107 65.8219 101.559 72.4777 101.559 72.4777C100.197 75.7125 99.2362 79.1019 98.6984 82.5702C98.6675 82.932 98.6675 83.2959 98.6984 83.6577C98.6984 83.7121 98.6984 83.7774 98.6984 83.8426C98.7854 85.996 98.4809 91.412 94.6745 91.9884Z" fill="#EB9481"/>
<path d="M98.6955 83.6789C98.6955 83.7333 98.6955 83.7985 98.6955 83.8638C98.1169 83.8694 97.5387 83.8294 96.9663 83.7442C87.1022 82.3412 85.9821 69.606 85.8516 66.4521C88.7879 67.2352 101.578 72.4772 101.578 72.4772C100.216 75.7119 99.255 79.1013 98.7173 82.5696C98.6775 82.938 98.6703 83.3092 98.6955 83.6789Z" fill="#263238"/>
<path d="M112.476 39.5898C112.476 39.5898 116.827 46.3544 116.065 52.3468C115.304 58.3392 112.64 61.1994 112.063 61.3299C111.487 61.4604 112.476 39.5898 112.476 39.5898Z" fill="#263238"/>
<path d="M88.2872 44.4399C84.9702 49.7689 83.5563 67.2784 86.6885 72.1724C91.2127 79.1762 100.827 82.3192 107.352 76.3594C113.671 70.5846 115.106 47.659 111.408 43.037C106.003 36.218 93.2029 36.5769 88.2872 44.4399Z" fill="#EB9481"/>
<path d="M101.959 58.8392C101.959 58.7848 101.861 58.8392 101.861 58.9262C101.796 60.1116 101.524 61.4601 100.426 61.7647V61.8299C101.753 61.7647 102.09 59.9702 101.959 58.8392Z" fill="#263238"/>
<path d="M101.013 57.5117C99.1211 57.1963 98.6426 61.0027 100.404 61.2855C102.166 61.5683 102.601 57.7619 101.013 57.5117Z" fill="#263238"/>
<path d="M108.76 59.8828C108.76 59.8828 108.847 59.9481 108.836 59.9916C108.651 61.1661 108.64 62.5364 109.662 63.0693C109.662 63.0693 109.662 63.1455 109.662 63.1346C108.357 62.7539 108.401 60.9595 108.76 59.8828Z" fill="#263238"/>
<path d="M109.963 58.7847C111.877 58.8717 111.55 62.689 109.778 62.602C108.005 62.515 108.364 58.6977 109.963 58.7847Z" fill="#263238"/>
<path d="M99.7289 55.587C100.246 55.5018 100.758 55.3892 101.262 55.2499C101.822 55.2027 102.352 54.9779 102.774 54.6082C102.883 54.4661 102.941 54.2922 102.941 54.1134C102.941 53.9346 102.883 53.7607 102.774 53.6185C102.513 53.3727 102.191 53.2009 101.841 53.1206C101.491 53.0403 101.126 53.0545 100.784 53.1618C100.056 53.2787 99.3989 53.6673 98.9459 54.2493C98.8594 54.3844 98.812 54.5407 98.8088 54.7011C98.8056 54.8614 98.8468 55.0195 98.9278 55.1579C99.0088 55.2963 99.1265 55.4097 99.2679 55.4854C99.4093 55.5611 99.5688 55.5963 99.7289 55.587Z" fill="#263238"/>
<path d="M111.671 57.0447C111.175 56.8799 110.689 56.6875 110.214 56.4683C109.669 56.3364 109.183 56.0265 108.833 55.5874C108.751 55.4295 108.723 55.2489 108.755 55.0737C108.786 54.8986 108.875 54.7388 109.007 54.6194C109.301 54.4174 109.644 54.2986 110 54.2756C110.356 54.2526 110.712 54.3263 111.03 54.4889C111.731 54.7134 112.322 55.1952 112.683 55.8375C112.757 55.9872 112.787 56.1553 112.767 56.3213C112.747 56.4873 112.68 56.644 112.572 56.7722C112.465 56.9003 112.323 56.9943 112.162 57.0427C112.002 57.0912 111.832 57.0918 111.671 57.0447Z" fill="#263238"/>
<path d="M104.604 68.0952C104.022 68.6823 103.299 69.1094 102.505 69.335C102.072 69.444 101.616 69.4175 101.2 69.2589C100.286 68.8891 100.373 68.0299 100.634 67.3122C100.779 66.9284 100.968 66.5633 101.2 66.2246C102.106 67.1943 103.299 67.8495 104.604 68.0952Z" fill="#263238"/>
<path d="M102.505 69.3344C102.072 69.4434 101.616 69.4168 101.2 69.2582C100.286 68.8885 100.373 68.0293 100.634 67.3115C101.131 67.3809 101.589 67.6203 101.93 67.989C102.271 68.3577 102.474 68.8331 102.505 69.3344Z" fill="#FF99BA"/>
<path d="M86.2069 60.384C89.5457 60.4819 91.0683 52.2056 92.9715 48.5297C94.8747 44.8538 99.8774 46.3546 102.999 47.8119C108.436 50.4329 113.222 49.1931 115.44 46.0936C119.964 39.7749 116.049 33.5542 110.938 32.521C102.64 30.8462 95.5599 37.0234 93.7001 37.2518C91.8404 37.4802 86.4136 35.6096 83.3358 39.7097C80.0514 44.0816 81.8894 60.2535 86.2069 60.384Z" fill="#263238"/>
<path d="M97.4267 44.2671C102.506 46.2247 109.216 51.9452 114.61 47.2253C115.875 46.2305 116.847 44.9111 117.421 43.4076C117.996 41.9042 118.152 40.2731 117.873 38.688C117.54 37.2393 116.77 35.928 115.667 34.9318C114.564 33.9357 113.181 33.3031 111.706 33.1198C111.63 33.1198 111.706 32.9893 111.706 32.9893C113.128 33.1097 114.484 33.6419 115.608 34.5207C116.732 35.3995 117.576 36.5869 118.036 37.9376C118.477 39.3943 118.529 40.9413 118.185 42.4241C117.842 43.9069 117.115 45.2736 116.078 46.3879C110.456 53.1307 103.158 46.6924 97.3723 44.365C97.3179 44.3759 97.3614 44.2671 97.4267 44.2671Z" fill="#263238"/>
<path d="M84.0603 38.3609C85.877 37.2416 88.0246 36.7844 90.1397 37.0667C87.9803 36.9602 85.8475 37.5805 84.0821 38.8286C82.081 40.449 81.4176 43.2658 81.2218 45.8433C80.8629 50.672 82.2332 54.2826 84.0277 58.3827C84.0929 58.535 84.0277 58.5567 83.9189 58.3827C81.7438 53.9129 80.069 49.2908 81.0478 43.9074C81.2856 41.735 82.3675 39.7431 84.0603 38.3609Z" fill="#263238"/>
<path d="M88.8415 59.4165C88.8415 59.4165 86.3728 53.0326 83.5669 53.783C80.761 54.5334 81.6854 63.125 84.3173 64.9195C84.6391 65.1746 85.0094 65.3617 85.4057 65.4695C85.802 65.5773 86.2161 65.6036 86.6228 65.5466C87.0296 65.4897 87.4205 65.3507 87.772 65.1383C88.1234 64.9258 88.4281 64.6442 88.6675 64.3105L88.8415 59.4165Z" fill="#EB9481"/>
<path d="M83.9375 56.2295V56.3056C85.7646 57.6324 86.3736 59.7749 86.6455 61.9174C86.5826 61.6806 86.4686 61.4606 86.3114 61.2727C86.1542 61.0848 85.9578 60.9337 85.7358 60.83C85.5139 60.7263 85.272 60.6725 85.027 60.6725C84.7821 60.6725 84.5401 60.7262 84.3181 60.8298C84.2529 60.8298 84.3181 60.9494 84.3181 60.9494C84.7006 60.9192 85.0832 61.0074 85.4139 61.2019C85.7447 61.3964 86.0076 61.688 86.167 62.037C86.4172 62.6355 86.6031 63.2589 86.7216 63.8967C86.7216 64.0925 87.124 64.0816 87.1023 63.8967C87.733 61.3083 86.6129 57.1865 83.9375 56.2295Z" fill="#263238"/>
<path d="M80.677 81.4278C80.6226 81.232 82.4279 77.5996 82.4279 77.5996L93.7276 85.4191L95.0218 90.4327L96.1093 85.5278L99.2414 83.3527L99.1327 87.1592C99.1327 87.1592 98.1321 92.2706 94.2713 92.151C90.4105 92.0314 82.2213 87.344 80.677 81.4278Z" fill="#3C8AFF"/>
<path d="M94.5868 100.384C94.5868 100.384 89.6493 96.2296 92.7488 93.0866C95.8483 89.9436 100.057 94.8484 100.057 94.8484L94.5868 100.384Z" fill="#263238"/>
<path d="M132.158 126.55L134.083 132.564L134.725 134.543L132.724 133.945L126.677 132.086L94.3984 100.199L99.8362 94.6631L132.104 126.561L132.158 126.55Z" fill="#263238"/>
<path d="M134.086 132.575L134.728 134.555L132.727 133.956L134.086 132.575Z" fill="#37474F"/>
<path d="M100.156 94.032L93.7656 100.499L95.0497 101.768L101.44 95.301L100.156 94.032Z" fill="#37474F"/>
<path d="M101.574 95.4481L95.1836 101.915L96.4677 103.184L102.858 96.717L101.574 95.4481Z" fill="#37474F"/>
<path d="M96.4766 103.168L98.532 101.08L109.07 113.772L108.266 114.49L96.4766 103.168Z" fill="#37474F"/>
<path d="M68.0301 94.6311C53.8919 118.557 40.2432 156.872 50.564 162.342C59.9822 167.334 88.1171 154.968 105.137 143.941C108.4 141.842 87.7364 113.609 84.4738 116.208C81.0939 118.964 77.5452 121.507 73.8484 123.821C72.8914 124.31 77.1111 116.371 79.9061 98.8073C82.8533 80.9389 76.1214 80.9389 68.0301 94.6311Z" fill="#EB9481"/>
<path d="M128.975 104.658C129.737 108.269 120.667 109.389 120.667 109.389C122.143 109.985 123.366 111.077 124.125 112.478C125.354 115.012 121.95 118.035 121.95 118.035C123.36 118.965 124.455 120.299 125.093 121.863C126.017 124.408 122.983 127.953 122.983 127.953C123.803 129.525 124.03 131.339 123.625 133.065C122.341 137.622 115.218 139.177 111.009 141.004C106.305 143.172 101.784 145.718 97.4909 148.617L82.6133 117.763C82.6133 117.763 99.4159 102.537 104.81 101.646C109.323 100.895 127.812 99.1224 128.975 104.658Z" fill="#EB9481"/>
<path d="M120.569 109.302C115.555 108.9 110.455 109.694 105.539 110.52C105.526 110.515 105.512 110.514 105.498 110.516C105.484 110.517 105.471 110.522 105.459 110.53C105.448 110.538 105.438 110.549 105.432 110.562C105.425 110.574 105.422 110.588 105.422 110.602C105.422 110.616 105.425 110.63 105.432 110.642C105.438 110.655 105.448 110.665 105.459 110.673C105.471 110.681 105.484 110.686 105.498 110.688C105.512 110.69 105.526 110.688 105.539 110.683C110.411 109.813 115.642 110.227 120.547 109.596C120.71 109.52 120.7 109.313 120.569 109.302Z" fill="#263238"/>
<path d="M121.707 117.688C120.559 117.707 119.418 117.879 118.314 118.199C117.129 118.449 115.943 118.732 114.769 119.036C112.409 119.634 110.06 120.287 107.743 121.005C107.72 121.005 107.698 121.014 107.682 121.03C107.665 121.046 107.656 121.068 107.656 121.092C107.656 121.115 107.665 121.137 107.682 121.153C107.698 121.169 107.72 121.179 107.743 121.179C110.092 120.58 112.452 120.026 114.823 119.536C116.009 119.286 117.205 119.047 118.39 118.819C119.53 118.682 120.65 118.415 121.729 118.025C121.766 118.013 121.798 117.989 121.82 117.957C121.842 117.925 121.853 117.886 121.85 117.848C121.848 117.809 121.832 117.772 121.806 117.743C121.781 117.714 121.746 117.694 121.707 117.688Z" fill="#263238"/>
<path d="M122.851 128.008C121.813 128.043 120.788 128.249 119.817 128.617C118.729 128.921 117.642 129.204 116.554 129.487C114.379 130.052 112.269 130.574 110.105 131.107C109.996 131.107 110.029 131.303 110.105 131.281C112.28 130.792 114.51 130.335 116.706 129.824L119.969 129.063C120.971 128.921 121.94 128.601 122.829 128.117C122.84 128.113 122.849 128.106 122.856 128.098C122.863 128.089 122.868 128.079 122.87 128.068C122.873 128.057 122.872 128.046 122.869 128.036C122.865 128.025 122.859 128.015 122.851 128.008Z" fill="#263238"/>
<path d="M74.8898 122.396C74.8898 122.396 80.9257 101.287 81.0453 91.3899C81.165 81.4933 75.1943 81.9283 67.9948 93.1953C60.7952 104.462 37.7392 151.934 48.0491 161.917C58.3591 171.901 90.1699 155.838 92.519 154.587C94.8681 153.337 97.4456 148.573 97.4456 148.573L81.1323 118.84C79.7682 119.163 78.4597 119.687 77.2498 120.395C76.2493 121.156 74.8898 122.396 74.8898 122.396Z" fill="#3C8AFF"/>
<path d="M81.7596 118.894C79.6553 118.847 77.5945 119.497 75.8977 120.743C74.166 122.076 72.5306 123.53 71.0037 125.093C67.8391 128.231 64.9297 131.617 62.3033 135.218C60.8352 137.208 59.5083 139.285 58.1489 141.352C58.0945 141.45 58.2359 141.515 58.3012 141.439C60.8701 137.984 63.6562 134.697 66.6427 131.597C69.5247 128.541 72.4502 125.506 75.5606 122.679C76.4307 121.865 77.3988 121.164 78.4426 120.591C79.5301 120.014 80.7047 119.775 81.814 119.307C81.8567 119.288 81.8921 119.256 81.915 119.215C81.9378 119.174 81.9468 119.127 81.9407 119.08C81.9346 119.034 81.9137 118.991 81.881 118.957C81.8484 118.924 81.8058 118.901 81.7596 118.894Z" fill="#263238"/>
<path d="M81.1462 100.645C80.7547 101.472 80.3088 102.265 79.9282 103.103L79.6671 103.658C80.1017 101.809 80.4393 99.94 80.6786 98.0567C80.6786 98.0023 80.6024 97.9914 80.5916 98.0567C79.8303 100.058 79.3191 102.168 78.7319 104.212C78.1446 106.257 77.5791 108.258 77.0353 110.281C75.8531 114.289 74.9447 118.373 74.3164 122.505C74.3164 122.614 74.4469 122.614 74.4904 122.505C76.1761 118.6 79.0146 106.746 79.3844 104.952L79.6671 104.495C79.9101 104.103 80.128 103.696 80.3197 103.277C80.6929 102.431 80.9913 101.554 81.2115 100.656C81.2115 100.656 81.1571 100.602 81.1462 100.645Z" fill="#263238"/>
<path d="M97.3345 148.324C96.247 149.531 95.4639 150.999 94.3872 152.239C93.2947 153.514 91.9603 154.56 90.4612 155.317C87.0857 156.93 83.5917 158.282 80.0099 159.362C76.4644 160.544 72.89 161.632 69.2866 162.625C65.7164 163.732 62.0237 164.397 58.2915 164.604C54.5703 164.805 50.8769 163.86 47.7097 161.896C47.6227 161.831 47.5357 161.961 47.6009 162.027C53.1257 167.29 61.1735 166.018 67.8837 164.202C71.7445 163.18 75.5727 162.027 79.3573 160.743C81.1627 160.124 82.9571 159.471 84.7951 158.808C86.633 158.144 88.4601 157.513 90.2328 156.741C92.0591 155.997 93.6731 154.813 94.931 153.294C96.1245 151.851 97.039 150.199 97.6281 148.421C97.6411 148.383 97.6381 148.34 97.6197 148.303C97.6014 148.267 97.5692 148.239 97.5303 148.226C97.4913 148.213 97.4488 148.216 97.4121 148.234C97.3754 148.252 97.3475 148.285 97.3345 148.324Z" fill="#263238"/>
<path d="M116.16 148.682L154.616 153.858L169.211 100.405L130.755 95.2285L116.16 148.682Z" fill="#263238"/>
<path d="M118.055 148.943L156.51 154.12L171.105 100.656L132.65 95.4795L118.055 148.943Z" fill="#37474F"/>
<path d="M149.953 123.092C149.713 124.093 149.114 124.97 148.27 125.56C147.427 126.149 146.397 126.408 145.374 126.29C144.895 126.233 144.433 126.075 144.02 125.826C143.606 125.577 143.25 125.243 142.976 124.846C142.701 124.449 142.514 123.998 142.427 123.523C142.34 123.048 142.355 122.56 142.471 122.092C142.709 121.092 143.305 120.214 144.147 119.625C144.989 119.036 146.018 118.776 147.038 118.894C147.518 118.951 147.98 119.109 148.394 119.358C148.808 119.607 149.165 119.941 149.44 120.338C149.715 120.734 149.904 121.185 149.992 121.66C150.08 122.135 150.067 122.623 149.953 123.092Z" fill="white"/>
<path d="M170.21 111.021C172.135 115.208 177.051 120.439 177.41 123.843C177.537 124.672 177.394 125.52 177.002 126.262C176.611 127.005 175.991 127.601 175.235 127.965C175.235 127.965 178.606 129.694 178.432 132.837C178.334 134.457 175.67 135.74 175.67 135.74C176.412 136.173 177.021 136.802 177.43 137.558C177.839 138.313 178.031 139.167 177.986 140.025C177.714 142.201 175.083 143.19 175.083 143.19C175.083 143.19 176.942 145.822 175.953 147.997C173.941 152.413 154.745 152.173 151.874 145.061C150.537 141.798 155.213 142.07 155.213 142.07C155.213 142.07 148.59 139.993 148.535 136.034C148.481 132.075 154.55 132.848 154.55 132.848C154.55 132.848 148.144 130.781 148.503 126.67C148.883 122.396 154.811 124.202 154.811 124.202C154.811 124.202 150.58 121.265 151.548 118.177C153.201 113.087 161.195 119.612 165.425 118.666L167.839 111.738L170.21 111.021Z" fill="#EB9481"/>
<path d="M173.986 117.133C172.517 113.011 177.661 108.008 176.813 103.865C175.671 98.253 169.309 103.658 167.808 111.76L167.754 118.286L173.986 117.133Z" fill="#EB9481"/>
<path d="M175.718 135.773C175.794 135.773 175.794 135.892 175.718 135.914C168.453 137.542 160.845 136.516 154.271 133.021C154.043 132.891 153.967 132.543 154.271 132.673C158.817 134.838 169.529 136.23 175.718 135.773Z" fill="#263238"/>
<path d="M154.357 123.777C160.817 127.138 167.712 128.127 174.923 128.04C175.01 128.04 174.999 128.171 174.923 128.193C171.399 129.171 166.799 128.726 163.253 128.073C159.949 127.523 156.846 126.121 154.248 124.006C154.14 123.919 154.227 123.712 154.357 123.777Z" fill="#263238"/>
</g>
</svg>
