<svg width="14" height="15" viewBox="0 0 14 15" fill="none" xmlns="http://www.w3.org/2000/svg">
<path fill-rule="evenodd" clip-rule="evenodd" d="M7 0.811523C3.13409 0.811523 0 3.94561 0 7.81152C0 11.6774 3.13409 14.8115 7 14.8115C10.8659 14.8115 14 11.6774 14 7.81152C14 3.94561 10.8659 0.811523 7 0.811523ZM10.0342 6.62789C10.0901 6.56402 10.1326 6.48963 10.1593 6.40908C10.186 6.32854 10.1963 6.24347 10.1896 6.15888C10.183 6.07429 10.1594 5.99188 10.1205 5.91651C10.0815 5.84115 10.0278 5.77434 9.96262 5.72001C9.89744 5.66569 9.82204 5.62495 9.74088 5.6002C9.65972 5.57544 9.57442 5.56717 9.49002 5.57587C9.40561 5.58456 9.32379 5.61005 9.24938 5.65084C9.17497 5.69162 9.10947 5.74687 9.05673 5.81334L6.32036 9.09634L4.90445 7.6798C4.78443 7.56388 4.62369 7.49974 4.45684 7.50119C4.28998 7.50264 4.13037 7.56956 4.01239 7.68755C3.8944 7.80553 3.82748 7.96514 3.82603 8.132C3.82458 8.29885 3.88872 8.45959 4.00464 8.57961L5.91373 10.4887C5.97625 10.5512 6.05111 10.6 6.13354 10.6319C6.21596 10.6639 6.30413 10.6783 6.39244 10.6743C6.48075 10.6703 6.56726 10.6479 6.64644 10.6086C6.72563 10.5693 6.79576 10.514 6.85236 10.4461L10.0342 6.62789Z" fill="white"/>
</svg>
