<svg width="112" height="84" viewBox="0 0 112 84" fill="none" xmlns="http://www.w3.org/2000/svg">
<ellipse cx="52.7889" cy="42.2048" rx="41.1151" ry="41.5222" fill="#E2EDFF"/>
<path d="M10.4804 76.7356L16.6963 73.6768C17.2722 71.7039 17.8531 69.7259 18.4886 67.5592L25.9358 70.9596L28.443 62.966L35.8902 66.2847L38.313 58.2452C40.4628 59.2648 42.2849 60.2436 44.1913 60.9064C45.2314 61.2684 46.3586 61.2684 47.3986 60.9064C50.0846 59.795 52.6563 58.3829 55.3423 57.0472C55.7295 57.8068 55.9728 58.2503 56.1863 58.7091C57.4623 61.457 57.5516 61.4977 60.2823 60.208C63.1916 58.8366 66.106 57.4754 68.9806 56.0429C70.2019 55.4312 71.1353 55.5331 72.3765 56.257C81.8593 61.7271 91.3967 62.0279 100.562 55.6555C109.24 49.6144 113.038 40.907 111.757 30.2931C110.476 19.6791 104.618 12.3788 94.9316 8.66749C79.6599 2.82012 63.0774 12.9651 60.5355 29.5182C60.322 30.8844 59.8354 31.6134 58.6191 32.1334C56.1367 33.1989 53.6989 34.402 51.2513 35.5593C47.1404 37.4965 47.1454 37.4965 48.4511 41.9776C47.627 42.4313 46.9617 42.8596 46.2269 43.196C36.7094 47.667 11.3542 59.2852 3.03315 63.0781L0.138672 73.2078L10.4804 76.7356ZM105.412 31.3636C104.65 33.3927 103.319 35.1439 101.588 36.3956C99.8557 37.6473 97.8011 38.3431 95.6839 38.3948C93.5667 38.4465 91.4822 37.8519 89.6943 36.6863C87.9064 35.5206 86.4957 33.8364 85.6407 31.8468C84.7858 29.8573 84.5251 27.652 84.8917 25.5102C85.2582 23.3684 86.2356 21.3865 87.6999 19.8155C89.1643 18.2445 91.0497 17.1551 93.1175 16.6852C95.1853 16.2153 97.3424 16.3861 99.3155 17.176C100.629 17.6914 101.829 18.469 102.847 19.4638C103.866 20.4586 104.682 21.6508 105.249 22.9716C105.816 24.2923 106.123 25.7154 106.151 27.1585C106.178 28.6016 105.928 30.036 105.412 31.3789V31.3636Z" fill="#3C8AFF"/>
<path opacity="0.3" d="M49.5585 49.2925L6.62788 68.4048C6.28223 68.5582 5.89138 68.5644 5.5413 68.4219C5.19122 68.2795 4.91058 68.0001 4.76112 67.6452C4.61169 67.2903 4.60567 66.8889 4.7444 66.5295C4.88313 66.17 5.15524 65.8818 5.50087 65.7283L48.4265 46.6212C48.5973 46.5443 48.7811 46.5029 48.9675 46.4993C49.1539 46.4957 49.3392 46.5299 49.5126 46.6C49.6861 46.6701 49.8444 46.7747 49.9784 46.9078C50.1123 47.0409 50.2194 47.1999 50.2933 47.3757C50.3681 47.551 50.4085 47.7398 50.412 47.9312C50.4155 48.1226 50.3822 48.3128 50.3139 48.4909C50.2456 48.669 50.1438 48.8315 50.0141 48.9691C49.8845 49.1067 49.7296 49.2166 49.5585 49.2925Z" fill="black"/>
<path d="M51.9127 49.4463C51.9127 49.4463 51.873 49.4769 51.7886 49.5228L51.4063 49.7114L49.9168 50.42L44.4555 52.969C39.8532 55.1254 33.4982 58.067 26.4532 61.3246C19.4081 64.5822 13.0035 67.4421 8.34158 69.4303C6.01309 70.4499 4.11654 71.2401 2.80583 71.7805L1.31639 72.3923L0.919208 72.5503L0.785156 72.5911C0.785156 72.5911 0.824875 72.5656 0.909276 72.5248L1.29654 72.3464L2.78598 71.6836L8.29194 69.2621C12.934 67.2229 19.3237 64.312 26.3688 61.1053L44.4009 52.816L49.8622 50.3282L51.3517 49.6706L51.7439 49.5024L51.9127 49.4463Z" fill="#263238"/>
<path d="M56.6332 59.1317C56.5687 59.1623 54.6125 55.1145 52.2592 50.0879C49.9059 45.0614 48.059 40.9626 48.1186 40.9116C48.1782 40.8606 50.1442 44.9237 52.4926 49.9554C54.8409 54.9871 56.6978 59.1317 56.6332 59.1317Z" fill="#263238"/>
<path d="M110.543 33.7334C110.543 33.7334 110.543 33.5958 110.513 33.3307C110.483 33.0656 110.473 32.6628 110.439 32.153C110.439 31.8913 110.424 31.6008 110.394 31.2813C110.359 30.9652 110.295 30.6185 110.24 30.2617C110.186 29.9048 110.121 29.4817 110.056 29.0535C109.974 28.5959 109.868 28.1433 109.739 27.6974C109.178 25.3734 108.275 23.1507 107.063 21.1057C105.481 18.3816 103.4 15.9978 100.936 14.0858L99.8984 13.2906C99.531 13.0408 99.1438 12.8164 98.7665 12.5768C98.3891 12.3372 98.0068 12.067 97.5898 11.8784L96.3387 11.2616L95.7032 10.9506L95.0379 10.7008L93.6626 10.191C93.2009 10.0329 92.7193 9.93099 92.2427 9.79844C91.7652 9.65509 91.2793 9.54272 90.788 9.46198C89.783 9.26842 88.7661 9.14747 87.7446 9.10002C87.2233 9.10002 86.702 9.02865 86.1757 9.03374L84.582 9.12041C84.3139 9.12041 84.0458 9.12041 83.7777 9.17139L82.9734 9.29884C82.4372 9.3906 81.8961 9.45688 81.3549 9.56903C80.2662 9.8191 79.1948 10.1427 78.1476 10.5376L77.3483 10.8384C77.2143 10.8894 77.0802 10.9353 76.9511 10.9914L76.5639 11.18L75.0099 11.9549C74.5134 12.2353 74.0169 12.5666 73.5204 12.8725C73.2722 13.0306 73.024 13.1733 72.7757 13.3517L72.0707 13.8972C71.1096 14.627 70.1973 15.4224 69.3401 16.278L68.1187 17.6646L67.8109 18.0113L67.5329 18.3834L66.9818 19.143L66.4158 19.8771L65.9193 20.6877L65.4229 21.5085L65.1796 21.9163C65.1051 22.0591 65.0406 22.2069 64.9711 22.3496L64.1568 24.0931C63.9384 24.6998 63.7199 25.3065 63.5015 25.9233C61.8474 30.9793 61.8474 36.4518 63.5015 41.5078C63.7199 42.1196 63.9384 42.7313 64.1519 43.338C64.3653 43.9446 64.698 44.5003 64.9711 45.0815L65.1746 45.5148L65.4179 45.9226L65.9144 46.7434L66.4108 47.554L66.9669 48.3136L67.518 49.0732L67.7911 49.4453L68.0989 49.7971C68.511 50.2559 68.9181 50.7198 69.3252 51.1786C70.1807 52.0341 71.0913 52.8295 72.0509 53.5594L72.7608 54.1049C72.9942 54.2884 73.2573 54.4261 73.5055 54.6147C74.002 54.9206 74.4985 55.2468 74.995 55.5323L76.549 56.3021L76.9362 56.4907L77.3334 56.6488L78.1327 56.9496C79.18 57.3429 80.2514 57.6648 81.34 57.9131C81.8812 58.0303 82.4273 58.0915 82.9585 58.1833L83.7628 58.3107C84.0309 58.3464 84.299 58.3464 84.5671 58.3617L86.1608 58.4484C86.6871 58.4484 87.2084 58.4025 87.7297 58.3872C88.751 58.3375 89.7678 58.2166 90.7731 58.0252C91.264 57.9403 91.7497 57.8262 92.2278 57.6837C92.7243 57.5511 93.186 57.4492 93.6477 57.2962L95.0031 56.7864L95.6734 56.5366L96.3089 56.2256L97.555 55.6088C97.9721 55.4151 98.3444 55.1398 98.7317 54.9155C99.1189 54.6912 99.4963 54.4465 99.8637 54.2017L100.906 53.4014C103.381 51.4927 105.473 49.1108 107.068 46.3866C108.273 44.3288 109.166 42.0938 109.714 39.7592C109.843 39.3149 109.949 38.864 110.032 38.4082C110.096 37.9749 110.156 37.5722 110.215 37.1949C110.275 36.8177 110.334 36.4761 110.369 36.1753C110.404 35.8746 110.399 35.5687 110.414 35.3087C110.449 34.7989 110.468 34.4012 110.488 34.131C110.508 33.8609 110.518 33.7283 110.518 33.7283C110.518 33.7283 110.518 33.8609 110.518 34.131C110.518 34.4012 110.493 34.7989 110.473 35.3087C110.473 35.5738 110.449 35.8644 110.439 36.1804C110.429 36.4965 110.344 36.8483 110.295 37.2C110.245 37.5518 110.185 37.98 110.121 38.4133C110.044 38.8724 109.943 39.3267 109.818 39.7745C109.268 42.1086 108.376 44.3432 107.172 46.4019C105.591 49.1614 103.503 51.58 101.025 53.5237L99.9779 54.3292C99.6105 54.579 99.2232 54.8084 98.8409 55.0531C98.4586 55.2978 98.0763 55.5629 97.6593 55.7566L96.3982 56.3837L95.7578 56.6947L95.0875 56.9496L93.7222 57.4594C93.2555 57.6225 92.7739 57.7244 92.2923 57.857C91.8034 58.0045 91.306 58.1203 90.8029 58.2037C89.7878 58.3984 88.7611 58.5227 87.7297 58.5758C87.2332 58.5758 86.6821 58.6523 86.1509 58.6421L84.5423 58.5605C84.2692 58.5605 84.0011 58.5605 83.7281 58.5095L82.9188 58.3821C82.3776 58.2903 81.8266 58.2291 81.2854 58.1119C80.1851 57.8626 79.1021 57.539 78.0434 57.1433L77.2341 56.8374C77.1001 56.7864 76.9611 56.7405 76.832 56.6845L76.4397 56.4907L74.8709 55.7158C74.3744 55.4304 73.8779 55.099 73.3566 54.788C73.1034 54.6249 72.8601 54.4872 72.6019 54.3037L71.887 53.7531C70.9148 53.0163 69.9925 52.2124 69.1266 51.3469L67.8904 49.9551L67.5776 49.6034L67.2995 49.221L66.7435 48.4563L66.1825 47.6916L65.686 46.8709L65.1895 46.0399L64.9413 45.627L64.7328 45.1885L63.9086 43.4297C63.6901 42.818 63.4667 42.2011 63.2483 41.5792C61.5735 36.4691 61.5735 30.9366 63.2483 25.8265C63.4717 25.2096 63.6901 24.5927 63.9086 23.981C64.127 23.3692 64.4597 22.8034 64.7377 22.2171C64.8072 22.0743 64.8718 21.9265 64.9462 21.7838L65.1895 21.3657L65.686 20.5399L66.1825 19.7191L66.7435 18.9544L67.2995 18.1897L67.5825 17.8074L67.8904 17.4556C68.3074 16.9917 68.7195 16.5227 69.1266 16.0638C69.9948 15.201 70.9169 14.3972 71.887 13.6576L72.6019 13.107C72.8403 12.9235 73.0984 12.7859 73.3566 12.5972C73.8531 12.2863 74.3496 11.9549 74.8709 11.6694L76.4397 10.8945L76.832 10.7008C76.9611 10.6447 77.1001 10.5988 77.2341 10.5478L78.0434 10.2471C79.1003 9.84967 80.1817 9.52439 81.2804 9.27335C81.8266 9.16119 82.3776 9.09492 82.9188 9.00316L83.7281 8.8808C83.9962 8.84512 84.2692 8.84513 84.5423 8.82473L86.1459 8.74316C86.6772 8.74316 87.2084 8.78904 87.7297 8.80943C88.761 8.8628 89.7878 8.98713 90.8029 9.18159C91.3055 9.26742 91.8028 9.38317 92.2923 9.52825C92.7888 9.66589 93.2555 9.76785 93.7222 9.92589L95.0875 10.4357L95.7578 10.6906L96.3982 11.0016L97.6593 11.6286C98.0763 11.8274 98.4487 12.1027 98.8409 12.3372C99.2331 12.5717 99.6105 12.8062 99.9779 13.056L101.025 13.8666C103.499 15.8004 105.583 18.2087 107.162 20.9579C108.369 23.0154 109.263 25.2503 109.813 27.5853C109.937 28.0333 110.038 28.4876 110.116 28.9464C110.181 29.3797 110.235 29.7876 110.29 30.1648C110.344 30.5421 110.404 30.8836 110.434 31.1844C110.464 31.4852 110.459 31.7962 110.468 32.0562C110.468 32.566 110.503 32.9636 110.513 33.2389C110.523 33.5142 110.543 33.7334 110.543 33.7334Z" fill="#263238"/>
<path d="M107.21 27.423C107.194 27.3579 107.185 27.2912 107.185 27.2241L107.145 26.6379C107.145 26.5121 107.135 26.3694 107.115 26.2096C107.115 26.0516 107.066 25.8834 107.036 25.6998C106.983 25.2724 106.898 24.8498 106.783 24.4355C106.502 23.2869 106.053 22.1886 105.452 21.1779C103.867 18.5003 101.347 16.544 98.4066 15.7076C95.4657 14.8712 92.3249 15.2177 89.6242 16.6764C89.1168 16.9602 88.6306 17.2823 88.1695 17.64C87.6961 17.9996 87.2466 18.3913 86.8241 18.8125C86.4053 19.2549 86.0171 19.7267 85.6623 20.2246C84.9224 21.2424 84.3489 22.3771 83.9643 23.5842C83.1503 26.0786 83.1503 28.7775 83.9643 31.2719C84.3492 32.4763 84.9209 33.609 85.6573 34.6264C86.0152 35.1248 86.405 35.5983 86.8241 36.0436C87.2466 36.4648 87.6961 36.8565 88.1695 37.2162C88.6317 37.5721 89.1178 37.894 89.6242 38.1797C90.1232 38.451 90.6409 38.6845 91.1732 38.8781C93.1683 39.6238 95.3211 39.8086 97.409 39.4134C99.0679 39.0945 100.642 38.4186 102.029 37.4301C103.415 36.4416 104.582 35.1629 105.452 33.6782C106.053 32.6675 106.502 31.5692 106.783 30.4206C106.898 30.0063 106.983 29.5837 107.036 29.1563C107.066 28.9676 107.1 28.7994 107.115 28.6465L107.145 28.2182L107.185 27.632C107.185 27.5649 107.194 27.4982 107.21 27.4332C107.216 27.4993 107.216 27.5659 107.21 27.632C107.21 27.7798 107.21 27.9735 107.21 28.2182C107.21 28.3508 107.21 28.4935 107.21 28.6516C107.21 28.8096 107.17 28.9829 107.145 29.1614C107.099 29.5934 107.021 30.0212 106.912 30.441C106.646 31.6065 106.205 32.7226 105.606 33.7495C104.734 35.2642 103.558 36.5715 102.157 37.5848C100.756 38.5981 99.1613 39.2943 97.4785 39.6275C95.3522 40.0421 93.1566 39.8661 91.1186 39.1177C90.5772 38.9188 90.0497 38.6821 89.5398 38.4091C89.0209 38.1203 88.5231 37.7931 88.0504 37.4303C87.567 37.0622 87.1076 36.662 86.6751 36.2322C86.2466 35.7814 85.8485 35.301 85.4836 34.7946C84.7226 33.7502 84.1308 32.5865 83.731 31.3484C82.897 28.7998 82.897 26.0411 83.731 23.4924C84.1273 22.263 84.7122 21.1065 85.4637 20.0666C85.8299 19.5596 86.2279 19.0776 86.6553 18.6239C87.0878 18.1958 87.5472 17.7973 88.0305 17.4309C88.5033 17.0681 89.001 16.7409 89.5199 16.4521C90.0298 16.1791 90.5573 15.9424 91.0987 15.7435C93.1367 14.9951 95.3323 14.8191 97.4587 15.2337C99.1392 15.564 100.732 16.2575 102.132 17.2683C103.531 18.2791 104.705 19.584 105.576 21.0964C106.175 22.1233 106.616 23.2394 106.882 24.405C106.991 24.8247 107.069 25.2525 107.115 25.6845C107.115 25.8732 107.17 26.0465 107.18 26.1943C107.19 26.3422 107.18 26.4951 107.18 26.6277C107.18 26.8724 107.18 27.0661 107.18 27.2139C107.197 27.2823 107.207 27.3524 107.21 27.423Z" fill="#263238"/>
<path opacity="0.2" d="M75.0527 9.5996V57.6632C77.1823 58.7063 79.4306 59.4719 81.7453 59.942L81.2488 7.49414C79.1 7.90421 77.0156 8.61252 75.0527 9.5996Z" fill="white"/>
<path d="M71.6564 55.8997C71.5819 55.8997 71.5273 46.0301 71.5273 33.8561C71.5273 21.6822 71.5819 11.8125 71.6564 11.8125C71.7309 11.8125 71.7855 21.6822 71.7855 33.8561C71.7855 46.0301 71.7259 55.8997 71.6564 55.8997Z" fill="white"/>
<path d="M66.5387 16.9873C66.4334 17.2011 66.3087 17.4042 66.1664 17.594C65.9082 17.9712 65.5507 18.532 65.1386 19.2406C64.6519 20.0657 64.2077 20.9165 63.8081 21.7896C63.3206 22.858 62.8929 23.9542 62.5272 25.0727C62.1761 26.1973 61.8861 27.341 61.6583 28.4985C61.4647 29.5691 61.3306 30.5377 61.2611 31.3585C61.1916 32.1793 61.1469 32.8471 61.137 33.311C61.1443 33.55 61.1277 33.7892 61.0874 34.0247C61.0502 33.7871 61.0336 33.5465 61.0377 33.3059C61.0377 32.8471 61.0377 32.1742 61.0774 31.3432C61.142 30.3739 61.2581 29.4089 61.425 28.4526C61.8449 26.1058 62.5731 23.8283 63.5896 21.6825C64.0081 20.8078 64.4721 19.9569 64.9798 19.1335C65.4216 18.4351 65.799 17.8896 66.082 17.5277C66.2179 17.3336 66.3707 17.1528 66.5387 16.9873Z" fill="white"/>
<path d="M59.2442 33.7188C57.8144 34.5663 56.3429 35.3371 54.8354 36.0281C53.3641 36.8004 51.8544 37.493 50.3125 38.103C51.7414 37.2523 53.213 36.4798 54.7212 35.7885C56.1932 35.0191 57.7028 34.3282 59.2442 33.7188Z" fill="white"/>
<path d="M46.4015 44.5068C46.4015 44.5068 46.3717 44.5323 46.3022 44.5731L46.0043 44.7311L44.8326 45.3276C43.8148 45.8374 42.3502 46.5715 40.4984 47.4586C36.8343 49.2378 31.7404 51.644 26.1004 54.2134C20.4604 56.7827 15.2772 59.0208 11.5238 60.6062C9.64708 61.4015 8.12785 62.0337 7.05546 62.4619L5.83908 62.9462L5.52134 63.0685L5.41211 63.0991C5.41211 63.0991 5.4419 63.0736 5.5114 63.0431L5.81923 62.8952L7.02071 62.3854L11.4394 60.4533C15.1729 58.827 20.3214 56.5584 25.9813 53.9942C31.6411 51.4299 36.74 49.044 40.4288 47.3107L44.7929 45.2715L45.9845 44.7209L46.2972 44.5833L46.4015 44.5068Z" fill="white"/>
<path d="M95.592 14.0007C95.592 14.0517 94.7331 13.8733 93.3529 13.9242C91.5536 13.9851 89.7924 14.4723 88.2068 15.3478C86.6212 16.2233 85.2543 17.4634 84.2127 18.9712C83.4084 20.1234 83.0857 20.9543 83.041 20.9288C83.0876 20.7265 83.1594 20.5312 83.2545 20.3477C83.4818 19.83 83.7525 19.3336 84.0638 18.8642C85.0878 17.2998 86.4694 16.0167 88.0879 15.1272C89.7063 14.2376 91.5123 13.7686 93.3479 13.7611C93.9013 13.7565 94.4542 13.7974 95.0012 13.8835C95.2021 13.8973 95.4006 13.9367 95.592 14.0007Z" fill="white"/>
<path d="M99.4007 11.3591C99.1867 11.2852 98.9805 11.1895 98.7851 11.0736C98.4028 10.8697 97.8368 10.5995 97.1268 10.2834C96.4169 9.96731 95.5579 9.64614 94.5898 9.33007C93.5315 9.00574 92.4556 8.74529 91.3677 8.55008C90.2783 8.36612 89.179 8.25036 88.076 8.20342C87.1755 8.17192 86.2739 8.18893 85.3751 8.2544C84.6056 8.31048 83.98 8.37675 83.5531 8.43793C83.3327 8.48545 83.1079 8.50768 82.8828 8.5042C83.0953 8.42587 83.3148 8.36951 83.5382 8.33597C83.9651 8.24421 84.5857 8.14734 85.3553 8.06578C86.2626 7.974 87.1744 7.93825 88.0859 7.95872C89.2003 7.99597 90.3113 8.10494 91.4123 8.28499C92.5104 8.48385 93.5949 8.7546 94.6593 9.09557C95.526 9.38206 96.3749 9.72256 97.2013 10.1152C97.9063 10.4516 98.4624 10.7524 98.8347 10.9818C99.0347 11.0886 99.2243 11.2149 99.4007 11.3591Z" fill="white"/>
</svg>
