<svg width="106" height="92" viewBox="0 0 106 92" fill="none" xmlns="http://www.w3.org/2000/svg">
<ellipse cx="50.9725" cy="41.5222" rx="41.1151" ry="41.5222" fill="#E2EDFF"/>
<path d="M50.4595 29.0078H71.4548C72.8175 29.0078 74.1245 29.5492 75.0881 30.5128C76.0517 31.4764 76.593 32.7833 76.593 34.1461V80.3538C76.593 80.8633 76.3907 81.3518 76.0304 81.712C75.6702 82.0723 75.1817 82.2746 74.6722 82.2746H47.2724C46.7629 82.2746 46.2744 82.0723 45.9142 81.712C45.5539 81.3518 45.3516 80.8633 45.3516 80.3538V34.14C45.3531 32.7835 45.891 31.4827 46.8479 30.5213C47.8048 29.5599 49.1031 29.0158 50.4595 29.0078Z" fill="#2C68BF"/>
<path d="M70.0113 22.2461H51.9062V30.5412H70.0113V22.2461Z" fill="#2C68BF"/>
<path d="M76.5919 46.3545H45.3262V67.4346H76.5919V46.3545Z" fill="#EBEBEB"/>
<path d="M76.5919 63.1279H45.3262V65.0366H76.5919V63.1279Z" fill="#455A64"/>
<path d="M76.5919 48.7607H45.3262V50.6694H76.5919V48.7607Z" fill="#455A64"/>
<path d="M71.2702 16.4404H50.6445V24.1235H71.2702V16.4404Z" fill="#455A64"/>
<path d="M72.3494 24.1182H49.5605V26.3904H72.3494V24.1182Z" fill="#37474F"/>
<path d="M52.2934 17.5127H52.0268C51.8394 17.5127 51.6875 17.6646 51.6875 17.852V22.7115C51.6875 22.8989 51.8394 23.0509 52.0268 23.0509H52.2934C52.4808 23.0509 52.6327 22.8989 52.6327 22.7115V17.852C52.6327 17.6646 52.4808 17.5127 52.2934 17.5127Z" fill="#37474F"/>
<path d="M54.0532 17.5127H53.7866C53.5992 17.5127 53.4473 17.6646 53.4473 17.852V22.7115C53.4473 22.8989 53.5992 23.0509 53.7866 23.0509H54.0532C54.2406 23.0509 54.3925 22.8989 54.3925 22.7115V17.852C54.3925 17.6646 54.2406 17.5127 54.0532 17.5127Z" fill="#37474F"/>
<path d="M55.5407 17.5128H55.8134C55.9018 17.5128 55.9865 17.5479 56.049 17.6104C56.1115 17.6729 56.1466 17.7576 56.1466 17.846V22.6934C56.1466 22.7834 56.1109 22.8697 56.0472 22.9333C55.9836 22.997 55.8973 23.0327 55.8073 23.0327H55.5346C55.4447 23.0327 55.3583 22.997 55.2947 22.9333C55.2311 22.8697 55.1953 22.7834 55.1953 22.6934V17.846C55.1961 17.8015 55.2057 17.7575 55.2235 17.7166C55.2412 17.6758 55.2669 17.6388 55.299 17.6078C55.331 17.5769 55.3689 17.5526 55.4104 17.5363C55.4519 17.5199 55.4961 17.5119 55.5407 17.5128Z" fill="#37474F"/>
<path d="M57.5708 17.5127H57.3042C57.1168 17.5127 56.9648 17.6646 56.9648 17.852V22.7115C56.9648 22.8989 57.1168 23.0509 57.3042 23.0509H57.5708C57.7582 23.0509 57.9101 22.8989 57.9101 22.7115V17.852C57.9101 17.6646 57.7582 17.5127 57.5708 17.5127Z" fill="#37474F"/>
<path d="M59.3364 17.5127H59.0698C58.8824 17.5127 58.7305 17.6646 58.7305 17.852V22.7115C58.7305 22.8989 58.8824 23.0509 59.0698 23.0509H59.3364C59.5238 23.0509 59.6757 22.8989 59.6757 22.7115V17.852C59.6757 17.6646 59.5238 17.5127 59.3364 17.5127Z" fill="#37474F"/>
<path d="M60.8196 17.5127H61.0923C61.1823 17.5127 61.2686 17.5485 61.3323 17.6121C61.3959 17.6757 61.4316 17.762 61.4316 17.852V22.6994C61.4316 22.7894 61.3959 22.8757 61.3323 22.9393C61.2686 23.003 61.1823 23.0387 61.0923 23.0387H60.8196C60.7312 23.0387 60.6465 23.0036 60.584 22.9411C60.5215 22.8786 60.4864 22.7939 60.4864 22.7055V17.8581C60.4856 17.8135 60.4936 17.7692 60.5099 17.7278C60.5262 17.6863 60.5505 17.6484 60.5815 17.6164C60.6124 17.5843 60.6494 17.5586 60.6903 17.5408C60.7311 17.5231 60.7751 17.5135 60.8196 17.5127Z" fill="#37474F"/>
<path d="M62.8501 17.5127H62.5835C62.3961 17.5127 62.2441 17.6646 62.2441 17.852V22.7115C62.2441 22.8989 62.3961 23.0509 62.5835 23.0509H62.8501C63.0375 23.0509 63.1894 22.8989 63.1894 22.7115V17.852C63.1894 17.6646 63.0375 17.5127 62.8501 17.5127Z" fill="#37474F"/>
<path d="M64.6118 17.5127H64.3452C64.1578 17.5127 64.0059 17.6646 64.0059 17.852V22.7115C64.0059 22.8989 64.1578 23.0509 64.3452 23.0509H64.6118C64.7992 23.0509 64.9511 22.8989 64.9511 22.7115V17.852C64.9511 17.6646 64.7992 17.5127 64.6118 17.5127Z" fill="#37474F"/>
<path d="M66.1028 17.5127H66.3755C66.4655 17.5127 66.5518 17.5485 66.6155 17.6121C66.6791 17.6757 66.7148 17.762 66.7148 17.852V22.6994C66.7148 22.7894 66.6791 22.8757 66.6155 22.9393C66.5518 23.003 66.4655 23.0387 66.3755 23.0387H66.1028C66.0145 23.0387 65.9297 23.0036 65.8672 22.9411C65.8047 22.8786 65.7696 22.7939 65.7696 22.7055V17.8581C65.7688 17.8135 65.7768 17.7692 65.7931 17.7278C65.8094 17.6863 65.8337 17.6484 65.8647 17.6164C65.8956 17.5843 65.9326 17.5586 65.9735 17.5408C66.0143 17.5231 66.0583 17.5135 66.1028 17.5127Z" fill="#37474F"/>
<path d="M68.1255 17.5127H67.8588C67.6714 17.5127 67.5195 17.6646 67.5195 17.852V22.7115C67.5195 22.8989 67.6714 23.0509 67.8588 23.0509H68.1255C68.3129 23.0509 68.4648 22.8989 68.4648 22.7115V17.852C68.4648 17.6646 68.3129 17.5127 68.1255 17.5127Z" fill="#37474F"/>
<path d="M69.8911 17.5127H69.6245C69.4371 17.5127 69.2852 17.6646 69.2852 17.852V22.7115C69.2852 22.8989 69.4371 23.0509 69.6245 23.0509H69.8911C70.0785 23.0509 70.2304 22.8989 70.2304 22.7115V17.852C70.2304 17.6646 70.0785 17.5127 69.8911 17.5127Z" fill="#37474F"/>
<path d="M11.0227 66.2544H5.74759V60.5879H0.0878906V55.3348H5.74759V49.6641H11.006V55.3348H16.6782V60.5879H11.0227V66.2544ZM6.51253 65.507H10.2745V59.8404H15.9467V56.0822H10.2745V50.4115H6.51253V56.0822H0.836108V59.8404H6.51253V65.507Z" fill="#3C8AFF"/>
<path d="M106 17.5604V24.0278H99.0232V31.0094H92.5558V24.0278H85.5742V17.5604H92.5558V10.584H99.0232V17.5604H106Z" fill="#3C8AFF"/>
<path d="M49.0924 49.0176H26.2559V83.2776H49.0924V49.0176Z" fill="#3C8AFF"/>
<path d="M51.8529 39.8154H23.5V49.0128H51.8529V39.8154Z" fill="#455A64"/>
<path d="M45.2783 58.873H30.0762V74.0752H45.2783V58.873Z" fill="white"/>
<path opacity="0.1" d="M26.2559 49.0176V51.6858L39.1136 56.5441V83.2724H45.2778V49.0176H26.2559Z" fill="black"/>
<path d="M19.166 82.4908C19.166 82.1136 19.2404 81.7402 19.3849 81.3918C19.5294 81.0434 19.7411 80.7269 20.0081 80.4605C20.275 80.194 20.5918 79.9828 20.9405 79.839C21.2891 79.6951 21.6627 79.6214 22.0399 79.6221H27.7567C28.1341 79.6214 28.508 79.6951 28.8569 79.8389C29.2058 79.9827 29.523 80.1938 29.7903 80.4602C30.0577 80.7265 30.2699 81.043 30.415 81.3914C30.56 81.7398 30.635 82.1134 30.6357 82.4908C30.6343 83.2534 30.3304 83.9844 29.7907 84.5232C29.2509 85.062 28.5194 85.3646 27.7567 85.3646H22.0604C21.6815 85.3667 21.3059 85.2939 20.9551 85.1504C20.6044 85.007 20.2854 84.7957 20.0165 84.5287C19.7476 84.2617 19.5341 83.9442 19.3881 83.5945C19.2422 83.2448 19.1667 82.8697 19.166 82.4908Z" fill="#455A64"/>
<path d="M19.166 82.4908C19.166 82.1136 19.2404 81.7402 19.3849 81.3918C19.5294 81.0434 19.7411 80.7269 20.0081 80.4605C20.275 80.194 20.5918 79.9828 20.9405 79.839C21.2891 79.6951 21.6627 79.6214 22.0399 79.6221H24.8932V85.3749H22.0604C21.6806 85.3769 21.3042 85.3038 20.9528 85.1597C20.6013 85.0156 20.2819 84.8034 20.0129 84.5353C19.7438 84.2673 19.5305 83.9486 19.3852 83.5977C19.2398 83.2468 19.1653 82.8706 19.166 82.4908Z" fill="#3C8AFF"/>
<path d="M58.2372 82.4913C58.2365 82.8687 58.1615 83.2423 58.0164 83.5907C57.8714 83.9391 57.6591 84.2555 57.3918 84.5219C57.1245 84.7883 56.8073 84.9994 56.4583 85.1432C56.1094 85.287 55.7356 85.3607 55.3582 85.36H49.6876C49.3102 85.3607 48.9363 85.287 48.5874 85.1432C48.2385 84.9994 47.9213 84.7883 47.654 84.5219C47.3866 84.2555 47.1744 83.9391 47.0293 83.5907C46.8843 83.2423 46.8093 82.8687 46.8086 82.4913C46.8086 81.7277 47.1119 80.9955 47.6518 80.4555C48.1917 79.9156 48.924 79.6123 49.6876 79.6123H55.3787C56.1387 79.6177 56.8657 79.9235 57.4012 80.4628C57.9367 81.0021 58.2372 81.7313 58.2372 82.4913Z" fill="#455A64"/>
<path d="M58.2398 82.4913C58.2391 82.8687 58.1641 83.2423 58.0191 83.5907C57.874 83.9391 57.6617 84.2555 57.3944 84.5219C57.1271 84.7883 56.8099 84.9994 56.461 85.1432C56.112 85.287 55.7382 85.3607 55.3608 85.36H52.5332V79.6123H55.3813C56.1413 79.6177 56.8683 79.9235 57.4038 80.4628C57.9393 81.0021 58.2398 81.7313 58.2398 82.4913Z" fill="#3C8AFF"/>
<path d="M64.7214 83.6478C64.455 83.9149 64.1384 84.1268 63.79 84.2713C63.4415 84.4159 63.068 84.4903 62.6907 84.4903C62.3134 84.4903 61.9399 84.4159 61.5914 84.2713C61.243 84.1268 60.9265 83.9149 60.66 83.6478L56.6294 79.6224C56.0913 79.0835 55.7891 78.3532 55.7891 77.5917C55.7891 76.8302 56.0913 76.0998 56.6294 75.5609C57.17 75.0222 57.9021 74.7197 58.6653 74.7197C59.4284 74.7197 60.1605 75.0222 60.7011 75.5609L64.7266 79.5864C65.2627 80.1266 65.5632 80.8571 65.5622 81.6182C65.5612 82.3793 65.2589 83.109 64.7214 83.6478Z" fill="#455A64"/>
<path d="M64.7193 83.6473C64.4528 83.9143 64.1363 84.1262 63.7879 84.2708C63.4394 84.4153 63.0659 84.4898 62.6886 84.4898C62.3113 84.4898 61.9378 84.4153 61.5893 84.2708C61.2409 84.1262 60.9243 83.9143 60.6579 83.6473L58.6426 81.632L62.7092 77.5654L64.7244 79.5807C65.2622 80.1211 65.5636 80.8527 65.5627 81.6151C65.5617 82.3774 65.2584 83.1083 64.7193 83.6473Z" fill="#3C8AFF"/>
<path d="M38.6699 88.2437C38.6706 87.8663 38.7456 87.4927 38.8906 87.1443C39.0357 86.7959 39.2479 86.4795 39.5153 86.2131C39.7826 85.9467 40.0998 85.7356 40.4487 85.5918C40.7977 85.448 41.1715 85.3743 41.5489 85.375H47.2401C47.6175 85.3743 47.9913 85.448 48.3402 85.5918C48.6892 85.7356 49.0063 85.9467 49.2737 86.2131C49.541 86.4795 49.7533 86.7959 49.8983 87.1443C50.0434 87.4927 50.1184 87.8663 50.1191 88.2437C50.1177 89.0064 49.8138 89.7374 49.274 90.2762C48.7342 90.815 48.0027 91.1176 47.2401 91.1176H41.5489C40.7862 91.1176 40.0547 90.815 39.515 90.2762C38.9752 89.7374 38.6713 89.0064 38.6699 88.2437Z" fill="#455A64"/>
<path d="M38.6699 88.2437C38.6706 87.8663 38.7456 87.4927 38.8907 87.1443C39.0357 86.7959 39.248 86.4795 39.5153 86.2131C39.7826 85.9467 40.0998 85.7356 40.4488 85.5918C40.7977 85.448 41.1715 85.3743 41.5489 85.375H44.3971V91.1278H41.5489C41.1704 91.1278 40.7956 91.0532 40.446 90.9082C40.0964 90.7632 39.7787 90.5507 39.5113 90.2828C39.2439 90.0149 39.032 89.6969 38.8876 89.347C38.7432 88.9971 38.6693 88.6222 38.6699 88.2437Z" fill="#3C8AFF"/>
</svg>
