<svg width="29" height="29" viewBox="0 0 29 29" fill="none" xmlns="http://www.w3.org/2000/svg">
<path fill-rule="evenodd" clip-rule="evenodd" d="M0 2.90193C0 1.2962 1.29727 0 2.9 0H26.1C27.7027 0 29 1.2962 29 2.90193V20.3C29 21.9057 27.7027 23.2019 26.1 23.2019H14.8229L7.34667 28.8065C7.20305 28.9143 7.03227 28.98 6.85348 28.9961C6.67468 29.0122 6.49493 28.9782 6.33436 28.8979C6.17379 28.8175 6.03875 28.694 5.94437 28.5412C5.84999 28.3884 5.8 28.2123 5.8 28.0327V23.2H2.9C1.29727 23.2 0 21.9038 0 20.2981V2.90193ZM7.73333 7.73269H21.2667V9.66731H7.73333V7.73269ZM7.73333 13.5327H17.4V15.4673H7.73333V13.5327Z" fill="#3C8AFF"/>
</svg>
