<svg width="242" height="204" viewBox="0 0 242 204" fill="none" xmlns="http://www.w3.org/2000/svg">
<path d="M120.673 203.026C187.318 203.026 241.345 171.834 241.345 133.356C241.345 94.8788 187.318 63.6865 120.673 63.6865C54.027 63.6865 0 94.8788 0 133.356C0 171.834 54.027 203.026 120.673 203.026Z" fill="#F5F5F5"/>
<path d="M36.0742 137.627L141.51 76.7607L194.226 107.196L88.7896 168.063L36.0742 137.627Z" fill="#3C8AFF"/>
<path opacity="0.4" d="M36.0742 137.627L141.51 76.7607L194.226 107.196L88.7896 168.063L36.0742 137.627Z" fill="white"/>
<path d="M141.511 79.9609L41.6191 137.653L88.8007 164.862L188.676 107.196L141.511 79.9609ZM88.8007 163.257L44.3807 137.653L141.511 81.5665L185.899 107.196L88.8007 163.257Z" fill="#3C8AFF"/>
<path d="M95.4898 134.036C90.7695 131.312 88.1738 127.587 88.1738 123.552C88.1738 119.147 91.3474 114.785 96.8759 111.596C107.719 105.334 124.705 104.976 134.804 110.793C139.524 113.517 142.125 117.242 142.125 121.277C142.125 125.682 138.952 130.043 133.418 133.233C127.74 136.514 120.376 138.189 113.177 138.189C106.654 138.189 100.285 136.803 95.4898 134.036ZM97.3629 112.409C92.1288 115.433 89.1265 119.49 89.1265 123.552C89.1265 127.234 91.5615 130.67 95.9768 133.217C105.787 138.885 122.377 138.526 132.958 132.42C138.192 129.396 141.189 125.334 141.189 121.277C141.189 117.595 138.759 114.159 134.344 111.612C129.677 108.936 123.48 107.582 117.127 107.582C110.106 107.582 102.902 109.209 97.3629 112.409Z" fill="#3C8AFF"/>
<g opacity="0.5">
<path d="M97.1966 131.077C93.5788 128.989 91.5879 126.319 91.5879 123.552C91.5879 120.4 94.1353 117.13 98.5881 114.55C103.533 111.692 110.287 110.055 117.116 110.055C123.297 110.055 128.97 111.366 133.097 113.747C136.714 115.84 138.711 118.511 138.711 121.277C138.711 124.43 136.158 127.7 131.71 130.279C126.765 133.137 120.011 134.775 113.182 134.775C106.996 134.775 101.323 133.458 97.1966 131.077Z" fill="#3C8AFF"/>
</g>
<path opacity="0.5" d="M91.3316 155.882C90.543 155.485 89.6724 155.278 88.7895 155.278C87.9065 155.278 87.0359 155.485 86.2473 155.882L83.2396 157.616L54.3398 141.026L57.8239 139.019C58.0862 138.948 58.3178 138.793 58.4829 138.577C58.6481 138.361 58.7376 138.097 58.7376 137.825C58.7376 137.554 58.6481 137.29 58.4829 137.074C58.3178 136.858 58.0862 136.703 57.8239 136.632L54.3398 134.62L86.0814 116.193L85.4606 117.547C84.6994 119.175 84.2995 120.947 84.2886 122.744C84.2886 127.908 89.4638 133.207 94.5908 136.166C99.1666 138.81 107.178 141.475 114.756 141.475C116.847 141.476 118.935 141.342 121.007 141.074L123.33 140.78L94.3446 157.611L91.3316 155.882Z" fill="#3C8AFF"/>
<g opacity="0.4">
<path d="M77.3307 144.868C76.1265 144.172 75.4629 143.203 75.4629 142.138C75.4629 141.073 76.2603 139.874 77.6464 139.072C80.2421 137.573 84.3201 137.493 86.7445 138.89C87.9487 139.58 88.6123 140.549 88.6123 141.614C88.6123 142.764 87.8149 143.877 86.4234 144.68C84.9449 145.479 83.2869 145.886 81.6068 145.863C80.1197 145.903 78.6473 145.56 77.3307 144.868Z" fill="white"/>
</g>
<path opacity="0.5" d="M144.758 127.244C145.541 125.223 145.955 123.076 145.978 120.908C145.978 116.626 142.59 112.479 135.916 108.626C130.565 105.538 122.376 103.466 115.51 103.466C113.418 103.466 111.329 103.598 109.254 103.862L106.904 104.167L135.895 87.4912L138.903 89.2305C139.691 89.6211 140.56 89.8243 141.44 89.8243C142.32 89.8243 143.188 89.6211 143.976 89.2305L146.984 87.4912L175.83 103.937L172.341 105.955C172.079 106.026 171.847 106.181 171.682 106.397C171.517 106.613 171.427 106.877 171.427 107.148C171.427 107.42 171.517 107.684 171.682 107.9C171.847 108.116 172.079 108.271 172.341 108.342L175.825 110.349L144.148 128.593L144.758 127.244Z" fill="#3C8AFF"/>
<g opacity="0.4">
<path d="M143.677 106.715C142.478 106.019 141.814 105.051 141.814 103.986C141.814 102.835 142.612 101.722 143.998 100.919C146.594 99.4205 150.672 99.3402 153.096 100.732C154.3 101.427 154.959 102.396 154.959 103.461C154.959 104.612 154.166 105.725 152.775 106.528C151.296 107.325 149.638 107.732 147.958 107.71C146.47 107.75 144.996 107.407 143.677 106.715Z" fill="white"/>
</g>
<path d="M36.0742 137.627V152.987L88.7896 183.422V168.063L36.0742 137.627Z" fill="#3C8AFF"/>
<path opacity="0.2" d="M36.0742 137.627V152.987L88.7896 183.422V168.063L36.0742 137.627Z" fill="black"/>
<g opacity="0.3">
<path d="M88.7887 172.445L72.1445 163.187L88.7887 173.221V172.445Z" fill="black"/>
<path d="M36.0742 145.242L41.624 148.769L36.0742 145.89V145.242Z" fill="black"/>
<path d="M36.0742 148.293L63.818 164.782L36.0742 149.24V148.293Z" fill="black"/>
<path d="M88.7887 175.496L61.0449 159.981L88.7887 176.502V175.496Z" fill="black"/>
</g>
<path d="M88.7891 183.422L194.225 122.556V107.196L88.7891 168.062V183.422Z" fill="#3C8AFF"/>
<path opacity="0.2" d="M88.7891 183.422L194.225 122.556V107.196L88.7891 168.062V183.422Z" fill="white"/>
<path d="M88.7891 172.446L94.3442 169.588L88.7891 173.222V172.446Z" fill="#3C8AFF"/>
<path d="M88.7891 175.496L116.688 159.906L88.7891 176.502V175.496Z" fill="#3C8AFF"/>
<path d="M194.226 114.753L174.799 126.345L194.226 115.508V114.753Z" fill="#3C8AFF"/>
<path d="M194.225 117.975L183.125 124.739L194.225 118.692V117.975Z" fill="#3C8AFF"/>
<path d="M79.6055 110.37L134.156 141.87L150.801 132.264L96.255 100.758L79.6055 110.37Z" fill="#FAFAFA"/>
<path d="M150.8 132.265V148.748L134.156 158.36V141.871L150.8 132.265Z" fill="#EBEBEB"/>
<path d="M134.158 158.36L133.184 157.792L134.158 157.23V158.36Z" fill="#E0E0E0"/>
<path d="M79.6055 110.37V112.5L81.4465 111.435L79.6055 110.37Z" fill="#E0E0E0"/>
<g opacity="0.3">
<path d="M133.184 157.787V142.438L134.158 141.871V157.225L133.184 157.787Z" fill="black"/>
</g>
<g opacity="0.2">
<path d="M133.183 142.439L80.4727 111.997L81.4467 111.436L134.157 141.871L133.183 142.439Z" fill="black"/>
</g>
<path d="M81.3984 109.337L135.96 140.833L137.341 140.03L82.7899 108.54L81.3984 109.337Z" fill="#455A64"/>
<path d="M93.0605 102.61L147.617 134.105L149.003 133.303L94.452 101.812L93.0605 102.61Z" fill="#455A64"/>
<path d="M135.961 140.833V157.317L137.342 156.519V140.03L135.961 140.833Z" fill="#263238"/>
<path d="M147.617 134.106V150.589L149.009 149.786L149.003 133.303L147.617 134.106Z" fill="#263238"/>
<path opacity="0.15" d="M194.226 107.197V111.184L93.2476 169.481V165.489L88.7896 168.063V183.423L36.0742 152.987V137.627L139.354 78.0029L194.226 107.197Z" fill="black"/>
<path d="M41.8535 118.955L147.284 58.083L200 88.5188L94.5689 149.385L41.8535 118.955Z" fill="#3C8AFF"/>
<path opacity="0.4" d="M41.8535 118.955L147.284 58.083L200 88.5188L94.5689 149.385L41.8535 118.955Z" fill="white"/>
<path d="M147.285 61.2891L47.3984 118.949L94.5693 146.185L194.456 88.5191L147.285 61.2891ZM94.564 144.579L50.176 118.949L147.285 62.8893L191.705 88.5191L94.564 144.579Z" fill="#3C8AFF"/>
<path d="M101.271 115.358C96.5502 112.634 93.9492 108.936 93.9492 104.874C93.9492 100.469 97.1228 96.1131 102.657 92.9181C113.494 86.6564 130.513 86.2979 140.585 92.1153C145.305 94.8394 147.906 98.5375 147.906 102.599C147.906 107.004 144.733 111.366 139.199 114.555C133.515 117.836 126.14 119.495 118.958 119.495C112.434 119.495 106.066 118.125 101.271 115.358ZM103.128 93.7315C97.8989 96.7553 94.8965 100.817 94.8965 104.874C94.8965 108.561 97.3262 111.992 101.741 114.545C111.557 120.207 128.147 119.848 138.728 113.742C143.957 110.718 146.959 106.662 146.959 102.599C146.959 98.9174 144.529 95.4816 140.114 92.9341C135.447 90.2582 129.25 88.9096 122.897 88.9096C115.881 88.9096 108.677 90.5579 103.128 93.7315Z" fill="#3C8AFF"/>
<g opacity="0.5">
<path d="M102.978 112.399C99.36 110.312 97.3691 107.641 97.3691 104.874C97.3691 101.722 99.9166 98.452 104.364 95.8725C109.314 93.0146 116.068 91.377 122.897 91.377C129.073 91.377 134.752 92.6881 138.878 95.0751C142.496 97.1623 144.486 99.8382 144.486 102.6C144.486 105.752 141.939 109.022 137.492 111.601C132.541 114.459 125.787 116.097 118.964 116.097C112.782 116.097 107.104 114.786 102.978 112.399Z" fill="#3C8AFF"/>
</g>
<path opacity="0.5" d="M97.1109 137.21C96.3227 136.812 95.4519 136.604 94.5688 136.604C93.6856 136.604 92.8148 136.812 92.0266 137.21L89.0189 138.944L60.1191 122.353L63.6032 120.346C63.8478 120.244 64.0615 120.08 64.223 119.87C64.3845 119.659 64.4881 119.41 64.5237 119.148C64.5237 118.725 64.1972 118.302 63.6032 117.96L60.1245 115.947L91.8554 97.5156L91.2346 98.8696C90.4686 100.497 90.0668 102.273 90.0572 104.072C90.0572 109.236 95.2324 114.529 100.365 117.489C104.941 120.132 112.947 122.798 120.525 122.798C122.615 122.797 124.703 122.665 126.776 122.402L129.099 122.102L100.119 138.933L97.1109 137.21Z" fill="#3C8AFF"/>
<g opacity="0.4">
<path d="M83.1119 126.19C81.9078 125.494 81.2441 124.525 81.2441 123.46C81.2441 122.315 82.0416 121.197 83.4277 120.394C86.0233 118.895 90.1014 118.815 92.5258 120.212C93.7299 120.908 94.3882 121.876 94.3882 122.936C94.3882 124.087 93.5961 125.205 92.2047 126.003C90.7259 126.8 89.068 127.207 87.388 127.185C85.9009 127.225 84.4285 126.882 83.1119 126.19Z" fill="white"/>
</g>
<path opacity="0.5" d="M150.538 108.567C151.318 106.544 151.729 104.398 151.753 102.23C151.753 97.9488 148.371 93.8011 141.697 89.9478C136.345 86.8652 128.157 84.7887 121.291 84.7887C119.195 84.7925 117.102 84.9319 115.024 85.2061L112.68 85.5058L141.654 68.8296L144.662 70.5689C145.451 70.9595 146.319 71.1627 147.199 71.1627C148.079 71.1627 148.947 70.9595 149.736 70.5689L152.743 68.8242L181.6 85.2596L178.116 87.2826C177.874 87.3831 177.662 87.5459 177.502 87.7545C177.342 87.9631 177.24 88.2101 177.206 88.4707C177.241 88.7316 177.344 88.9788 177.503 89.1881C177.663 89.3973 177.874 89.5614 178.116 89.6642L181.6 91.6711L149.923 109.915L150.538 108.567Z" fill="#3C8AFF"/>
<g opacity="0.4">
<path d="M149.458 88.0375C148.254 87.3417 147.596 86.3731 147.596 85.308C147.596 84.243 148.388 83.0442 149.779 82.2415C152.375 80.7429 156.453 80.6627 158.877 82.0595C160.081 82.7499 160.745 83.7186 160.745 84.7836C160.745 85.9342 159.948 87.0527 158.562 87.8502C157.075 88.6513 155.407 89.0585 153.718 89.0329C152.237 89.0686 150.77 88.726 149.458 88.0375Z" fill="white"/>
</g>
<path d="M41.8535 118.954V134.308L94.5689 164.744V149.385L41.8535 118.954Z" fill="#3C8AFF"/>
<path opacity="0.2" d="M41.8535 118.954V134.308L94.5689 164.744V149.385L41.8535 118.954Z" fill="black"/>
<g opacity="0.3">
<path d="M94.5694 153.767L77.9199 144.509L94.5694 154.549V153.767Z" fill="black"/>
<path d="M41.8535 126.564L47.4033 130.091L41.8535 127.212V126.564Z" fill="black"/>
<path d="M41.8535 129.62L69.592 146.109L41.8535 130.562V129.62Z" fill="black"/>
<path d="M94.568 156.819L66.8242 141.304L94.568 157.825V156.819Z" fill="black"/>
</g>
<path d="M94.5703 164.744L200.001 103.878V88.5186L94.5703 149.385V164.744Z" fill="#3C8AFF"/>
<path opacity="0.2" d="M94.5703 164.744L200.001 103.878V88.5186L94.5703 149.385V164.744Z" fill="white"/>
<path d="M94.5703 153.768L100.125 150.91L94.5703 154.549V153.768Z" fill="#3C8AFF"/>
<path d="M94.5703 156.818L122.469 141.229L94.5703 157.824V156.818Z" fill="#3C8AFF"/>
<path d="M200 96.0752L180.578 107.667L200 96.8298V96.0752Z" fill="#3C8AFF"/>
<path d="M200.006 99.2969L188.906 106.062L200.001 100.014L200.006 99.2969Z" fill="#3C8AFF"/>
<path d="M85.3867 91.6919L139.938 123.193L156.582 113.586L102.031 82.0801L85.3867 91.6919Z" fill="#FAFAFA"/>
<path d="M156.582 113.587V130.076L139.938 139.682V123.193L156.582 113.587Z" fill="#EBEBEB"/>
<path d="M139.937 139.682L138.963 139.12L139.937 138.553V139.682Z" fill="#E0E0E0"/>
<path d="M85.3867 91.6924V93.8224L87.2277 92.7574L85.3867 91.6924Z" fill="#E0E0E0"/>
<g opacity="0.3">
<path d="M138.963 139.11V123.761L139.937 123.193V138.548L138.963 139.11Z" fill="black"/>
</g>
<g opacity="0.2">
<path d="M138.962 123.761L86.252 93.3198L87.226 92.7578L139.936 123.194L138.962 123.761Z" fill="black"/>
</g>
<path d="M87.1777 90.6597L141.734 122.155L143.12 121.358L88.5639 89.8623L87.1777 90.6597Z" fill="#455A64"/>
<path d="M98.834 83.9322L153.396 115.428L154.782 114.63L100.225 83.1348L98.834 83.9322Z" fill="#455A64"/>
<path d="M141.734 122.155V138.644L143.12 137.841V121.357L141.734 122.155Z" fill="#263238"/>
<path d="M153.396 115.427V131.911L154.788 131.108L154.783 114.63L153.396 115.427Z" fill="#263238"/>
<path opacity="0.15" d="M192.132 86.4642L88.9281 146.051V161.491L41.8535 134.309V118.955L145.133 59.3252L192.132 86.4642Z" fill="black"/>
<path d="M30.5117 101.557V116.916L83.2271 147.352V131.992L30.5117 101.557Z" fill="#3C8AFF"/>
<path opacity="0.2" d="M30.5117 101.557V116.916L83.2271 147.352V131.992L30.5117 101.557Z" fill="black"/>
<g opacity="0.3">
<path d="M83.2276 136.375L66.5781 127.116L83.2276 137.151V136.375Z" fill="black"/>
<path d="M30.5117 109.172L36.0615 112.699L30.5117 109.819V109.172Z" fill="black"/>
<path d="M30.5117 112.228L58.2502 128.711L30.5117 113.169V112.228Z" fill="black"/>
<path d="M83.2282 139.426L55.4844 123.911L83.2282 140.432V139.426Z" fill="black"/>
</g>
<path d="M83.2285 147.352L188.659 86.4857V71.126L83.2285 131.992V147.352Z" fill="#3C8AFF"/>
<path opacity="0.2" d="M83.2285 147.352L188.659 86.4857V71.126L83.2285 131.992V147.352Z" fill="white"/>
<g opacity="0.8">
<path d="M83.2285 136.375L88.7837 133.518L83.2285 137.151V136.375Z" fill="#3C8AFF"/>
<path d="M83.2285 139.426L111.128 123.836L83.2285 140.432V139.426Z" fill="#3C8AFF"/>
<path d="M188.658 78.6826L169.236 90.2693L188.658 79.4372V78.6826Z" fill="#3C8AFF"/>
<path d="M188.658 81.9043L177.559 88.669L188.658 82.6215V81.9043Z" fill="#3C8AFF"/>
</g>
<path d="M30.5117 101.557L135.942 40.6904L188.658 71.1262L83.2271 131.992L30.5117 101.557Z" fill="#3C8AFF"/>
<path opacity="0.4" d="M30.5117 101.557L135.942 40.6904L188.658 71.1262L83.2271 131.992L30.5117 101.557Z" fill="white"/>
<path d="M135.943 43.8906L36.0566 101.556L83.2222 128.792L183.114 71.126L135.943 43.8906ZM83.2222 127.186L38.8342 101.556L135.943 45.4962L180.363 71.126L83.2222 127.186Z" fill="#3C8AFF"/>
<path d="M89.9287 97.9656C85.2084 95.2416 82.6074 91.5434 82.6074 87.4814C82.6074 83.0769 85.781 78.7152 91.3148 75.5255C102.152 69.2639 119.171 68.9053 129.243 74.7227C133.963 77.4468 136.564 81.1449 136.564 85.2069C136.564 89.6114 133.391 93.9732 127.857 97.1629C122.173 100.444 114.799 102.103 107.616 102.103C101.109 102.103 94.7239 100.727 89.9287 97.9656ZM91.7858 76.3389C86.5571 79.3627 83.5547 83.4194 83.5547 87.4814C83.5547 91.1635 85.9844 94.5993 90.3997 97.1468C100.215 102.814 116.806 102.456 127.386 96.3494C132.615 93.3256 135.617 89.2689 135.617 85.2069C135.617 81.5249 133.187 78.089 128.772 75.5415C124.105 72.8656 117.908 71.5116 111.555 71.5116C104.539 71.5116 97.3624 73.1386 91.7858 76.3389Z" fill="#3C8AFF"/>
<g opacity="0.5">
<path d="M91.6355 95.0063C88.0177 92.9191 86.0215 90.2485 86.0215 87.4816C86.0215 84.3294 88.5743 81.0595 93.0217 78.4799C97.9721 75.622 104.726 73.9844 111.555 73.9844C117.731 73.9844 123.409 75.2956 127.535 77.6771C131.153 79.7697 133.144 82.4402 133.144 85.2071C133.144 88.3593 130.597 91.6293 126.149 94.2089C121.199 97.0667 114.445 98.7044 107.621 98.7044C101.435 98.7044 95.7564 97.3878 91.6355 95.0063Z" fill="#3C8AFF"/>
</g>
<path opacity="0.5" d="M85.7705 119.812C84.982 119.415 84.1113 119.208 83.2284 119.208C82.3455 119.208 81.4748 119.415 80.6863 119.812L77.6786 121.546L48.7788 104.955L52.2628 102.948C52.5251 102.877 52.7567 102.722 52.9219 102.506C53.0871 102.291 53.1766 102.026 53.1766 101.755C53.1766 101.483 53.0871 101.219 52.9219 101.003C52.7567 100.787 52.5251 100.632 52.2628 100.561L48.7734 98.5864L80.5097 80.1602L79.8889 81.5142C79.1276 83.1414 78.7278 84.9143 78.7168 86.7108C78.7168 91.8753 83.892 97.1736 89.0244 100.133C93.6002 102.777 101.607 105.442 109.185 105.442C111.275 105.443 113.363 105.309 115.436 105.041L117.758 104.746L88.7996 121.556L85.7705 119.812Z" fill="#3C8AFF"/>
<g opacity="0.4">
<path d="M71.7701 108.797C70.566 108.101 69.9023 107.133 69.9023 106.068C69.9023 104.923 70.6998 103.804 72.0859 103.001C74.6815 101.503 78.7596 101.422 81.184 102.819C82.3881 103.51 83.0464 104.478 83.0464 105.543C83.0464 106.694 82.2543 107.807 80.8629 108.61C79.3841 109.408 77.7262 109.815 76.0462 109.793C74.5591 109.833 73.0867 109.49 71.7701 108.797Z" fill="white"/>
</g>
<path opacity="0.5" d="M139.197 91.1742C139.976 89.1512 140.388 87.0053 140.412 84.8376C140.412 80.5562 137.03 76.4085 130.356 72.5552C125.004 69.4672 116.816 67.3961 109.944 67.3961C107.852 67.3958 105.763 67.5281 103.688 67.7921L101.344 68.0971L130.318 51.4209L133.326 53.1602C134.115 53.5508 134.983 53.754 135.863 53.754C136.743 53.754 137.611 53.5508 138.4 53.1602L141.407 51.4209L170.264 67.8563L166.78 69.874C166.518 69.9448 166.286 70.1001 166.121 70.3159C165.956 70.5316 165.867 70.7957 165.867 71.0674C165.867 71.3391 165.956 71.6032 166.121 71.8189C166.286 72.0347 166.518 72.19 166.78 72.2609L170.264 74.2678L138.571 92.5121L139.197 91.1742Z" fill="#3C8AFF"/>
<g opacity="0.4">
<path d="M138.116 70.6444C136.912 69.9487 136.248 68.98 136.248 67.915C136.248 66.7644 137.045 65.6512 138.437 64.8484C141.027 63.3499 145.105 63.2429 147.535 64.6611C148.739 65.3568 149.403 66.3255 149.403 67.3905C149.403 68.5412 148.605 69.6543 147.219 70.4571C145.74 71.2539 144.083 71.6609 142.403 71.6399C140.912 71.6801 139.436 71.3374 138.116 70.6444Z" fill="white"/>
</g>
<path opacity="0.15" d="M75.8848 75.3652L34.1406 101.873C48.8367 111.281 65.4006 120.979 83.5593 130.917L128.6 105.801L75.8848 75.3652Z" fill="black"/>
<path d="M75.9014 75.3594C61.4515 83.2533 46.065 88.7389 30.2344 93.3522C46.5478 107.184 64.3126 119.207 83.2173 129.209C94.6702 124.65 114.097 113.957 122.441 109.29C128.36 105.913 128.59 105.795 128.59 105.795L75.9014 75.3594Z" fill="#3C8AFF"/>
<path opacity="0.4" d="M75.9014 75.3594C61.4515 83.2533 46.065 88.7389 30.2344 93.3522C46.5478 107.184 64.3126 119.207 83.2173 129.209C94.6702 124.65 114.097 113.957 122.441 109.29C128.36 105.913 128.59 105.795 128.59 105.795L75.9014 75.3594Z" fill="white"/>
<path d="M124.47 103.366C110.897 111.233 97.4215 119.009 82.8913 124.998C67.2265 116.676 51.9632 106.079 38.391 95.5361C52.905 91.2402 66.8774 85.291 80.0334 77.8056L78.6687 76.9707C65.1286 84.7629 50.9517 91.0032 35.7793 94.8404C49.5763 106.497 66.2846 117.521 82.8217 126.373C97.8068 120.181 111.818 112.282 125.845 104.169L124.47 103.366Z" fill="#3C8AFF"/>
<path d="M118.358 99.8864C108.591 102.166 99.0916 101.492 91.8613 97.9223C87.5799 95.8084 84.6096 93.3626 83.6516 88.7493C83.0415 85.8165 84.9254 82.7446 85.969 81.1765L85.1501 80.7002C83.8818 82.6697 82.121 86.0039 82.7204 88.9099C83.7266 93.7961 86.06 96.092 90.9515 98.7037C95.7145 101.163 101.01 102.409 106.37 102.332C113.081 102.332 116.576 101.508 119.514 100.566L118.358 99.8864Z" fill="#3C8AFF"/>
<g opacity="0.5">
<path d="M88.1247 82.4238C86.9634 83.6119 85.7806 86.1166 86.0322 87.6954C86.6155 91.4416 88.8472 93.181 92.6203 95.2468C96.8054 97.532 101.183 98.7041 107.943 98.795C110.36 98.742 112.769 98.4932 115.146 98.0511L88.1247 82.4238Z" fill="#3C8AFF"/>
</g>
<path opacity="0.5" d="M114.733 105.362C112.629 105.636 110.502 105.69 108.386 105.523C101.988 105.15 95.7545 103.35 90.1418 100.256C83.9498 96.8259 79.4382 93.2991 79.0475 86.818C78.9243 85.1004 79.1688 83.3762 79.7647 81.7606C80.2089 80.6902 80.4551 80.2246 80.4551 80.2246C69.8264 86.4006 60.6801 91.2279 48.8794 94.8725C49.9867 95.5291 51.0585 96.2437 52.0905 97.0132C52.722 97.4842 53.3428 97.9231 53.1929 98.6188C53.0698 99.154 52.2885 99.4376 51.6356 99.6891C50.6669 100.064 49.9712 100.299 48.7402 100.669C57.8383 107.091 66.0694 114.155 77.2226 119.662C78.1989 119.124 79.2428 118.719 80.3266 118.458C82.1119 118.056 83.9771 118.201 85.6784 118.875C86.7606 119.306 87.7809 119.879 88.7129 120.577C98.9563 116.339 108.327 110.585 117.709 104.757C116.732 105.026 115.738 105.228 114.733 105.362Z" fill="#3C8AFF"/>
<g opacity="0.4">
<path d="M80.9218 102.868C78.1393 101.841 75.1016 101.731 72.2518 102.552C70.7747 102.959 70.0576 103.521 69.8917 104.918C69.7258 106.314 70.5821 106.85 71.7327 107.594C73.0117 108.35 74.4432 108.813 75.9232 108.948C77.4938 109.123 79.0837 108.918 80.5579 108.348C81.8851 107.754 82.7682 106.989 82.8163 105.571C82.8645 104.152 82.2704 103.403 80.9218 102.868Z" fill="white"/>
</g>
<path d="M74.0449 74.2993L128.596 105.8L145.24 96.1936L90.6891 64.6875L74.0449 74.2993Z" fill="#FAFAFA"/>
<path d="M145.24 96.1943V112.678L128.596 122.29V105.801L145.24 96.1943Z" fill="#EBEBEB"/>
<path d="M128.595 122.289L127.621 121.722L128.595 121.16V122.289Z" fill="#E0E0E0"/>
<path d="M74.0449 74.2998V76.3549L75.8859 75.3648L74.0449 74.2998Z" fill="#E0E0E0"/>
<g opacity="0.3">
<path d="M127.621 121.717V106.368L128.595 105.801V121.155L127.621 121.717Z" fill="black"/>
</g>
<g opacity="0.2">
<path d="M127.621 106.368L74.873 75.9058L75.8845 75.3652L128.595 105.801L127.621 106.368Z" fill="black"/>
</g>
<path d="M75.8359 73.2671L130.392 104.763L131.778 103.96L77.2221 72.4697L75.8359 73.2671Z" fill="#455A64"/>
<path d="M87.4941 66.5396L142.056 98.035L143.437 97.2323L88.8856 65.7422L87.4941 66.5396Z" fill="#455A64"/>
<path d="M130.393 104.763V121.252L131.779 120.449V103.96L130.393 104.763Z" fill="#263238"/>
<path d="M142.055 98.0352V114.519L143.441 113.716L143.435 97.2324L142.055 98.0352Z" fill="#263238"/>
<path d="M32.0957 79.5439L137.532 18.6777L190.247 49.1135L84.8111 109.98L32.0957 79.5439Z" fill="#3C8AFF"/>
<path opacity="0.4" d="M32.0957 79.5439L137.532 18.6777L190.247 49.1135L84.8111 109.98L32.0957 79.5439Z" fill="white"/>
<path d="M137.532 21.8779L37.6406 79.5705L84.8222 106.779L184.698 49.1133L137.532 21.8779ZM84.8222 105.174L40.4022 79.5705L137.532 23.4835L181.92 49.1133L84.8222 105.174Z" fill="#3C8AFF"/>
<path d="M91.5112 75.9529C86.7909 73.2289 84.1953 69.504 84.1953 65.4687C84.1953 61.0642 87.3689 56.7025 92.8974 53.5128C103.74 47.2512 120.727 46.8926 130.826 52.71C135.546 55.4341 138.147 59.1589 138.147 63.1942C138.147 67.5987 134.973 71.9605 129.44 75.1502C123.761 78.4308 116.397 80.1059 109.199 80.1059C102.675 80.1059 96.3065 78.7198 91.5112 75.9529ZM93.3844 54.3262C88.1503 57.35 85.1479 61.4067 85.1479 65.4687C85.1479 69.1508 87.583 72.5866 91.9983 75.1341C101.808 80.8017 118.399 80.4431 128.979 74.3367C134.213 71.3129 137.21 67.2509 137.21 63.1942C137.21 59.5122 134.781 56.0763 130.365 53.5288C125.699 50.8529 119.501 49.4989 113.149 49.4989C106.127 49.4989 98.9235 51.1259 93.3844 54.3262Z" fill="#3C8AFF"/>
<g opacity="0.5">
<path d="M93.2181 72.9936C89.6002 70.9064 87.6094 68.2358 87.6094 65.469C87.6094 62.3167 90.1568 59.0468 94.6095 56.4672C99.5546 53.6093 106.309 51.9717 113.138 51.9717C119.319 51.9717 124.992 53.2829 129.118 55.6644C132.736 57.757 134.732 60.4275 134.732 63.1944C134.732 66.3466 132.179 69.6166 127.732 72.1962C122.787 75.0541 116.033 76.6917 109.204 76.6917C103.017 76.6917 97.3443 75.3752 93.2181 72.9936Z" fill="#3C8AFF"/>
</g>
<path opacity="0.5" d="M87.3531 97.7994C86.5645 97.4023 85.6939 97.1954 84.8109 97.1954C83.928 97.1954 83.0574 97.4023 82.2688 97.7994L79.2611 99.5334L50.3613 82.9428L53.8454 80.9358C54.1076 80.8649 54.3393 80.7096 54.5044 80.4939C54.6696 80.2782 54.7591 80.0141 54.7591 79.7424C54.7591 79.4707 54.6696 79.2066 54.5044 78.9908C54.3393 78.7751 54.1076 78.6198 53.8454 78.5489L50.3613 76.5366L82.1029 58.1104L81.4821 59.4644C80.7209 61.0916 80.321 62.8645 80.3101 64.661C80.3101 69.8255 85.4853 75.1238 90.6123 78.0833C95.1881 80.7271 103.2 83.3923 110.778 83.3923C112.868 83.3928 114.956 83.2587 117.029 82.9909L119.352 82.6966L90.3661 99.528L87.3531 97.7994Z" fill="#3C8AFF"/>
<g opacity="0.4">
<path d="M73.3522 86.7845C72.148 86.0888 71.4844 85.1201 71.4844 84.0551C71.4844 82.9901 72.2818 81.7913 73.6679 80.9885C76.2635 79.49 80.3416 79.4097 82.766 80.8066C83.9702 81.4969 84.6338 82.4656 84.6338 83.5306C84.6338 84.6813 83.8364 85.7945 82.4449 86.5972C80.9664 87.3955 79.3084 87.8027 77.6283 87.78C76.1412 87.8198 74.6688 87.4771 73.3522 86.7845Z" fill="white"/>
</g>
<path opacity="0.5" d="M140.781 69.1615C141.565 67.1396 141.978 64.9932 142.001 62.8249C142.001 58.5435 138.614 54.3958 131.94 50.5425C126.588 47.4545 118.4 45.3834 111.533 45.3834C109.442 45.383 107.352 45.5152 105.277 45.7794L102.928 46.0845L131.919 29.4082L134.926 31.1475C135.715 31.5381 136.583 31.7413 137.463 31.7413C138.343 31.7413 139.211 31.5381 140 31.1475L143.007 29.4082L171.854 45.8543L168.364 47.872C168.102 47.9428 167.87 48.0982 167.705 48.3139C167.54 48.5296 167.451 48.7937 167.451 49.0654C167.451 49.3371 167.54 49.6012 167.705 49.817C167.87 50.0327 168.102 50.188 168.364 50.2589L171.848 52.2658L140.171 70.5101L140.781 69.1615Z" fill="#3C8AFF"/>
<g opacity="0.4">
<path d="M139.7 48.632C138.502 47.9362 137.838 46.9676 137.838 45.9026C137.838 44.7519 138.635 43.6387 140.021 42.836C142.617 41.3375 146.695 41.2572 149.12 42.6487C150.324 43.3444 150.982 44.3131 150.982 45.3781C150.982 46.5287 150.19 47.6419 148.798 48.4447C147.319 49.2416 145.662 49.6487 143.982 49.6274C142.493 49.6665 141.019 49.3238 139.7 48.632Z" fill="white"/>
</g>
<path d="M32.0957 79.5439V94.9036L84.8111 125.339V109.98L32.0957 79.5439Z" fill="#3C8AFF"/>
<path opacity="0.2" d="M32.0957 79.5439V94.9036L84.8111 125.339V109.98L32.0957 79.5439Z" fill="black"/>
<g opacity="0.3">
<path d="M84.8121 114.362L68.168 105.104L84.8121 115.138V114.362Z" fill="black"/>
<path d="M32.0957 87.1592L37.6455 90.686L32.0957 87.8068V87.1592Z" fill="black"/>
<path d="M32.0957 90.21L59.8395 106.699L32.0957 91.1572V90.21Z" fill="black"/>
<path d="M84.8122 117.413L57.0684 101.898L84.8122 118.419V117.413Z" fill="black"/>
</g>
<path d="M84.8105 125.339L190.247 64.473V49.1133L84.8105 109.979V125.339Z" fill="#3C8AFF"/>
<path opacity="0.2" d="M84.8105 125.339L190.247 64.473V49.1133L84.8105 109.979V125.339Z" fill="white"/>
<path d="M84.8105 114.363L90.3657 111.505L84.8105 115.139V114.363Z" fill="#3C8AFF"/>
<path d="M84.8105 117.413L112.71 101.823L84.8105 118.419V117.413Z" fill="#3C8AFF"/>
<path d="M190.247 56.6699L170.82 68.2619L190.247 57.4245V56.6699Z" fill="#3C8AFF"/>
<path d="M190.246 59.8916L179.146 66.6563L190.246 60.6087V59.8916Z" fill="#3C8AFF"/>
<path d="M75.627 52.2867L130.178 83.7874L146.822 74.1809L92.2764 42.6748L75.627 52.2867Z" fill="#FAFAFA"/>
<path d="M146.822 74.1816V90.6652L130.178 100.277V83.7881L146.822 74.1816Z" fill="#EBEBEB"/>
<path d="M130.179 100.277L129.205 99.7094L130.179 99.1475V100.277Z" fill="#E0E0E0"/>
<path d="M75.627 52.2871V54.4171L77.468 53.3521L75.627 52.2871Z" fill="#E0E0E0"/>
<g opacity="0.3">
<path d="M129.205 99.7044V84.3554L130.179 83.7881V99.1424L129.205 99.7044Z" fill="black"/>
</g>
<g opacity="0.2">
<path d="M129.204 84.3556L76.4941 53.9145L77.4682 53.3525L130.178 83.7883L129.204 84.3556Z" fill="black"/>
</g>
<path d="M77.4199 51.2544L131.982 82.7499L133.362 81.9471L78.8114 50.457L77.4199 51.2544Z" fill="#455A64"/>
<path d="M89.082 44.5269L143.638 76.0223L145.025 75.2196L90.4735 43.7295L89.082 44.5269Z" fill="#455A64"/>
<path d="M131.982 82.75V99.2336L133.363 98.4362V81.9473L131.982 82.75Z" fill="#263238"/>
<path d="M143.639 76.0225V92.5061L145.03 91.7033L145.025 75.2197L143.639 76.0225Z" fill="#263238"/>
<path opacity="0.15" d="M190.247 49.1141V53.1012L89.2691 111.398V107.406L84.8111 109.98V125.34L32.0957 94.9042V79.5445L135.375 19.9199L190.247 49.1141Z" fill="black"/>
<path d="M37.875 60.8715L143.306 0L196.021 30.4358L90.5903 91.3019L37.875 60.8715Z" fill="#3C8AFF"/>
<path opacity="0.4" d="M37.875 60.8715L143.306 0L196.021 30.4358L90.5903 91.3019L37.875 60.8715Z" fill="white"/>
<path d="M143.306 3.20605L43.4199 60.8665L90.5908 88.1019L190.477 30.4361L143.306 3.20605ZM90.5854 86.4963L46.1975 60.8665L143.306 4.80625L187.726 30.4361L90.5854 86.4963Z" fill="#3C8AFF"/>
<path d="M97.292 57.2752C92.5717 54.5511 89.9707 50.853 89.9707 46.791C89.9707 42.3865 93.1443 38.0301 98.6781 34.835C109.516 28.5734 126.534 28.2149 136.606 34.0323C141.327 36.7563 143.928 40.4544 143.928 44.5165C143.928 48.921 140.754 53.2827 135.22 56.4724C129.537 59.7531 122.162 61.4121 114.98 61.4121C108.456 61.4121 102.087 60.0421 97.292 57.2752ZM99.1491 35.6485C93.9203 38.6723 90.918 42.7343 90.918 46.791C90.918 50.4784 93.3477 53.9089 97.7629 56.4617C107.578 62.1239 124.169 61.7654 134.749 55.659C139.978 52.6352 142.98 48.5785 142.98 44.5165C142.98 40.8344 140.551 37.3986 136.135 34.8511C131.469 32.1752 125.271 30.8265 118.919 30.8265C111.902 30.8265 104.699 32.4749 99.1491 35.6485Z" fill="#3C8AFF"/>
<g opacity="0.5">
<path d="M98.9993 54.3159C95.3815 52.2287 93.3906 49.5581 93.3906 46.7912C93.3906 43.639 95.9381 40.369 100.385 37.7895C105.336 34.9316 112.09 33.2939 118.919 33.2939C125.095 33.2939 130.773 34.6051 134.899 36.992C138.517 39.0793 140.508 41.7552 140.508 44.5167C140.508 47.6689 137.961 50.9389 133.513 53.5184C128.563 56.3763 121.809 58.014 114.985 58.014C108.804 58.014 103.126 56.7028 98.9993 54.3159Z" fill="#3C8AFF"/>
</g>
<path opacity="0.5" d="M93.1323 79.127C92.3442 78.7286 91.4734 78.5211 90.5902 78.5211C89.7071 78.5211 88.8363 78.7286 88.0481 79.127L85.0404 80.861L56.1406 64.2704L59.6247 62.2635C59.8693 62.1613 60.083 61.9969 60.2445 61.7866C60.406 61.5763 60.5096 61.3274 60.5452 61.0646C60.5452 60.6419 60.2187 60.2191 59.6247 59.8765L56.146 57.8643L87.8769 39.4326L87.2561 40.7866C86.4901 42.4144 86.0883 44.1896 86.0787 45.9886C86.0787 51.1531 91.2539 56.446 96.3862 59.4056C100.962 62.0494 108.968 64.7146 116.547 64.7146C118.636 64.7145 120.724 64.5822 122.797 64.3185L125.12 64.0188L96.1401 80.8503L93.1323 79.127Z" fill="#3C8AFF"/>
<g opacity="0.4">
<path d="M79.1334 68.1068C77.9292 67.4111 77.2656 66.4424 77.2656 65.3774C77.2656 64.2321 78.0631 63.1136 79.4492 62.3108C82.0448 60.8123 86.1229 60.732 88.5473 62.1288C89.7514 62.8246 90.4097 63.7932 90.4097 64.8529C90.4097 66.0035 89.6176 67.1221 88.2261 67.9195C86.7474 68.7171 85.0895 69.1242 83.4095 69.1022C81.9224 69.1421 80.45 68.7993 79.1334 68.1068Z" fill="white"/>
</g>
<path opacity="0.5" d="M146.56 50.4838C147.339 48.4608 147.75 46.3149 147.775 44.1472C147.775 39.8658 144.392 35.7181 137.719 31.8648C132.367 28.7822 124.179 26.7057 117.312 26.7057C115.216 26.7095 113.123 26.8489 111.045 27.1231L108.701 27.4228L137.676 10.7466L140.684 12.4859C141.472 12.8765 142.34 13.0797 143.22 13.0797C144.1 13.0797 144.969 12.8765 145.757 12.4859L148.765 10.7412L177.622 27.1766L174.138 29.1996C173.895 29.3001 173.683 29.4629 173.523 29.6715C173.364 29.8801 173.262 30.1271 173.228 30.3877C173.263 30.6485 173.365 30.8958 173.525 31.1051C173.684 31.3143 173.896 31.4784 174.138 31.5812L177.622 33.5881L145.944 51.8324L146.56 50.4838Z" fill="#3C8AFF"/>
<g opacity="0.4">
<path d="M145.48 29.9545C144.275 29.2587 143.617 28.2901 143.617 27.225C143.617 26.16 144.409 24.9612 145.801 24.1584C148.396 22.6599 152.474 22.5797 154.899 23.9765C156.103 24.6669 156.767 25.6355 156.767 26.7006C156.767 27.8512 155.969 28.9697 154.583 29.7672C153.096 30.5683 151.429 30.9755 149.74 30.9499C148.258 30.9856 146.792 30.643 145.48 29.9545Z" fill="white"/>
</g>
<path d="M37.875 60.8711V76.2254L90.5904 106.661V91.3015L37.875 60.8711Z" fill="#3C8AFF"/>
<path opacity="0.2" d="M37.875 60.8711V76.2254L90.5904 106.661V91.3015L37.875 60.8711Z" fill="black"/>
<g opacity="0.3">
<path d="M90.5909 95.6844L73.9414 86.4258L90.5909 96.4658V95.6844Z" fill="black"/>
<path d="M37.875 68.4814L43.4248 72.0083L37.875 69.129V68.4814Z" fill="black"/>
<path d="M37.875 71.5371L65.6134 88.026L37.875 72.479V71.5371Z" fill="black"/>
<path d="M90.5914 98.7356L62.8477 83.2207L90.5914 99.7417V98.7356Z" fill="black"/>
</g>
<path d="M90.5918 106.661L196.022 45.7953V30.4355L90.5918 91.3017V106.661Z" fill="#3C8AFF"/>
<path opacity="0.2" d="M90.5918 106.661L196.022 45.7953V30.4355L90.5918 91.3017V106.661Z" fill="white"/>
<path d="M90.5918 95.685L96.147 92.8271L90.5918 96.4664V95.685Z" fill="#3C8AFF"/>
<path d="M90.5918 98.7353L118.491 83.1455L90.5918 99.7415V98.7353Z" fill="#3C8AFF"/>
<path d="M196.021 37.9922L176.6 49.5842L196.021 38.7468V37.9922Z" fill="#3C8AFF"/>
<path d="M196.027 41.2139L184.928 47.9786L196.022 41.931L196.027 41.2139Z" fill="#3C8AFF"/>
<path d="M81.4082 33.6089L135.959 65.1097L152.603 55.5032L98.0523 23.9971L81.4082 33.6089Z" fill="#FAFAFA"/>
<path d="M152.603 55.5039V71.9928L135.959 81.5993V65.1104L152.603 55.5039Z" fill="#EBEBEB"/>
<path d="M135.958 81.599L134.984 81.037L135.958 80.4697V81.599Z" fill="#E0E0E0"/>
<path d="M81.4082 33.6094V35.7394L83.2492 34.6744L81.4082 33.6094Z" fill="#E0E0E0"/>
<g opacity="0.3">
<path d="M134.984 81.0266V65.6776L135.958 65.1104V80.4647L134.984 81.0266Z" fill="black"/>
</g>
<g opacity="0.2">
<path d="M134.983 65.6779L82.2734 35.2368L83.2475 34.6748L135.957 65.1106L134.983 65.6779Z" fill="black"/>
</g>
<path d="M83.1992 32.5767L137.756 64.0721L139.142 63.2747L84.5853 31.7793L83.1992 32.5767Z" fill="#455A64"/>
<path d="M94.8555 25.8492L149.417 57.3446L150.803 56.5472L96.2469 25.0518L94.8555 25.8492Z" fill="#455A64"/>
<path d="M137.756 64.0718V80.5608L139.142 79.758V63.2744L137.756 64.0718Z" fill="#263238"/>
<path d="M149.418 57.3443V73.8279L150.809 73.0251L150.804 56.5469L149.418 57.3443Z" fill="#263238"/>
</svg>
