<svg width="24" height="26" viewBox="0 0 24 26" fill="none" xmlns="http://www.w3.org/2000/svg">
<path d="M13.7639 1.61698V2.58716C17.4526 3.33653 20.2318 6.59929 20.2318 10.5103V11.4603C20.2318 13.8403 21.106 16.1293 22.6826 17.908L23.0565 18.3274C23.4809 18.8075 23.5871 19.4846 23.3243 20.0657C23.0615 20.6468 22.4855 21.0207 21.8488 21.0207H2.44509C1.8084 21.0207 1.23089 20.6468 0.970049 20.0657C0.709211 19.4846 0.813556 18.8075 1.2366 18.3274L1.61133 17.908C3.18991 16.1293 4.06206 13.8403 4.06206 11.4603V10.5103C4.06206 6.59929 6.79576 3.33653 10.53 2.58716V1.61698C10.53 0.724102 11.2526 0 12.1469 0C13.0413 0 13.7639 0.724102 13.7639 1.61698ZM12.1469 25.8716C11.2879 25.8716 10.4643 25.5331 9.85791 24.9267C9.25155 24.3203 8.91299 23.4512 8.91299 22.6377H15.3809C15.3809 23.4512 15.0423 24.3203 14.436 24.9267C13.8296 25.5331 12.9605 25.8716 12.1469 25.8716Z" fill="#2E2E42"/>
</svg>
