<svg width="20" height="25" viewBox="0 0 20 25" fill="none" xmlns="http://www.w3.org/2000/svg">
<path fill-rule="evenodd" clip-rule="evenodd" d="M15.5239 2.90268C15.5239 3.06109 15.5483 3.23169 15.597 3.3901L13.7935 3.37792C13.757 3.28043 13.7204 2.96361 13.7204 2.71989C13.7204 1.30637 14.7806 0.0390625 16.6815 0.0390625C18.4972 0.0390625 19.6182 1.22107 19.6182 2.6346C19.6182 3.65819 19.0699 4.49899 18.0585 5.09609L16.5597 5.98564C16.3281 6.13186 16.1332 6.29028 16.0235 6.5218H19.6792V8.1303H13.6717C13.6717 6.68021 14.086 5.48603 15.5361 4.64522L16.8277 3.88971C17.4492 3.52414 17.6929 3.19513 17.6929 2.67115C17.6929 2.17154 17.3395 1.73286 16.6328 1.73286C15.8894 1.73286 15.5239 2.24466 15.5239 2.90268ZM9.15096 3.38706C11.4302 3.38706 13.2097 4.06316 14.5397 5.14411C13.0962 5.98466 12.6834 7.1771 12.6834 8.62449H17.0089C17.6893 10.3421 17.8959 12.2208 17.8959 14.0823C17.8959 16.5988 17.5184 19.1468 16.1029 21.2858C14.7502 23.299 12.4854 24.7775 9.15096 24.7775C5.84803 24.7775 3.58315 23.299 2.23052 21.2858C0.814979 19.1468 0.4375 16.5988 0.4375 14.0823C0.4375 11.5658 0.814979 9.01778 2.23052 6.87873C3.58315 4.83406 5.84803 3.38706 9.15096 3.38706ZM5.40763 14.0823C5.40763 12.4465 5.59637 10.8423 6.16259 9.64691C6.72881 8.51447 7.64105 7.75951 9.15096 7.75951C10.6923 7.75951 11.5731 8.51447 12.1393 9.64691C12.737 10.8423 12.9257 12.4465 12.9257 14.0823C12.9257 15.718 12.737 17.3223 12.1393 18.5177C11.5731 19.6501 10.6923 20.405 9.15096 20.405C7.64105 20.405 6.72881 19.6501 6.16259 18.5177C5.59637 17.3223 5.40763 15.718 5.40763 14.0823Z" fill="white"/>
</svg>
