<svg width="45" height="53" viewBox="0 0 45 53" fill="none" xmlns="http://www.w3.org/2000/svg">
<path d="M13.5184 28.9908C13.5184 25.4328 13.929 21.9432 15.1606 19.3431C16.3922 16.8798 18.3765 15.2376 21.6609 15.2376C25.0136 15.2376 26.9295 16.8798 28.1611 19.3431C29.4612 21.9432 29.8717 25.4328 29.8717 28.9908C29.8717 32.5489 29.4612 36.0385 28.1611 38.6386C26.9295 41.1019 25.0136 42.744 21.6609 42.744C18.3765 42.744 16.3922 41.1019 15.1606 38.6386C13.929 36.0385 13.5184 32.5489 13.5184 28.9908ZM2.70746 28.9908C2.70746 34.4647 3.52855 40.0071 6.60762 44.6599C9.54985 49.039 14.4764 52.2549 21.6609 52.2549C28.9138 52.2549 33.8403 49.039 36.7825 44.6599C39.8616 40.0071 40.6827 34.4647 40.6827 28.9908C40.6827 23.5169 39.8616 17.9746 36.7825 13.3218C33.8403 8.87421 28.9138 5.72672 21.6609 5.72672C14.4764 5.72672 9.54985 8.87421 6.60762 13.3218C3.52855 17.9746 2.70746 23.5169 2.70746 28.9908Z" fill="white"/>
<mask id="path-2-outside-1_601_9800" maskUnits="userSpaceOnUse" x="27.7324" y="0.175781" width="18" height="23" fill="black">
<rect fill="white" x="27.7324" y="0.175781" width="18" height="23"/>
<path d="M34.2354 9.84945C34.119 9.47093 34.0607 9.0633 34.0607 8.68479C34.0607 7.1125 34.9342 5.8896 36.7104 5.8896C38.3991 5.8896 39.2435 6.9378 39.2435 8.13157C39.2435 9.38358 38.6612 10.1697 37.1762 11.0432L34.0899 12.8485C30.625 14.8575 29.635 17.7109 29.635 21.1758H43.9895V17.3324H35.2545C35.5166 16.7792 35.9824 16.4007 36.5357 16.0513L40.117 13.9258C42.5337 12.4991 43.8439 10.49 43.8439 8.04422C43.8439 4.66671 41.1652 1.8424 36.8268 1.8424C32.2846 1.8424 29.7515 4.87052 29.7515 8.24804C29.7515 8.83037 29.8389 9.5874 29.9262 9.82033L34.2354 9.84945Z"/>
</mask>
<path d="M34.2354 9.84945C34.119 9.47093 34.0607 9.0633 34.0607 8.68479C34.0607 7.1125 34.9342 5.8896 36.7104 5.8896C38.3991 5.8896 39.2435 6.9378 39.2435 8.13157C39.2435 9.38358 38.6612 10.1697 37.1762 11.0432L34.0899 12.8485C30.625 14.8575 29.635 17.7109 29.635 21.1758H43.9895V17.3324H35.2545C35.5166 16.7792 35.9824 16.4007 36.5357 16.0513L40.117 13.9258C42.5337 12.4991 43.8439 10.49 43.8439 8.04422C43.8439 4.66671 41.1652 1.8424 36.8268 1.8424C32.2846 1.8424 29.7515 4.87052 29.7515 8.24804C29.7515 8.83037 29.8389 9.5874 29.9262 9.82033L34.2354 9.84945Z" fill="white"/>
<path d="M34.2354 9.84945L34.2246 11.4574C34.7368 11.4608 35.2199 11.2201 35.5256 10.8091C35.8313 10.3981 35.9229 9.86611 35.7723 9.37657L34.2354 9.84945ZM37.1762 11.0432L37.988 12.4312L37.9915 12.4292L37.1762 11.0432ZM34.0899 12.8485L34.8964 14.2395L34.9017 14.2364L34.0899 12.8485ZM29.635 21.1758H28.0271C28.0271 22.0638 28.747 22.7837 29.635 22.7837V21.1758ZM43.9895 21.1758V22.7837C44.8775 22.7837 45.5974 22.0638 45.5974 21.1758H43.9895ZM43.9895 17.3324H45.5974C45.5974 16.4444 44.8775 15.7245 43.9895 15.7245V17.3324ZM35.2545 17.3324L33.8014 16.6441C33.5654 17.1422 33.601 17.7265 33.8958 18.1922C34.1905 18.658 34.7033 18.9403 35.2545 18.9403V17.3324ZM36.5357 16.0513L35.715 14.6685C35.7022 14.6761 35.6896 14.6838 35.677 14.6918L36.5357 16.0513ZM40.117 13.9258L39.2995 12.5411L39.2963 12.543L40.117 13.9258ZM29.9262 9.82033L28.4206 10.3849C28.6546 11.0088 29.2491 11.4237 29.9153 11.4282L29.9262 9.82033ZM35.7723 9.37657C35.7043 9.15573 35.6687 8.90776 35.6687 8.68479H32.4528C32.4528 9.21885 32.5336 9.78614 32.6986 10.3223L35.7723 9.37657ZM35.6687 8.68479C35.6687 8.18131 35.8082 7.89488 35.9285 7.75766C36.0214 7.65171 36.2173 7.49755 36.7104 7.49755V4.28165C35.4273 4.28165 34.2984 4.73894 33.5105 5.63751C32.75 6.50481 32.4528 7.61598 32.4528 8.68479H35.6687ZM36.7104 7.49755C37.2136 7.49755 37.4179 7.64619 37.4882 7.71471C37.5645 7.78899 37.6355 7.91667 37.6355 8.13157H40.8514C40.8514 7.1527 40.5003 6.15939 39.7322 5.41113C38.9582 4.65711 37.8959 4.28165 36.7104 4.28165V7.49755ZM37.6355 8.13157C37.6355 8.47695 37.5653 8.64543 37.4597 8.7928C37.3187 8.98952 37.0233 9.26765 36.361 9.65728L37.9915 12.4292C38.814 11.9453 39.5523 11.3936 40.0738 10.6659C40.6306 9.88881 40.8514 9.03821 40.8514 8.13157H37.6355ZM36.3644 9.65527L33.278 11.4605L34.9017 14.2364L37.988 12.4312L36.3644 9.65527ZM33.2833 11.4574C31.3057 12.6041 29.9532 14.0462 29.1175 15.7622C28.2935 17.4543 28.0271 19.2997 28.0271 21.1758H31.243C31.243 19.587 31.4716 18.2733 32.0088 17.1702C32.5343 16.091 33.4092 15.1018 34.8964 14.2395L33.2833 11.4574ZM29.635 22.7837H43.9895V19.5678H29.635V22.7837ZM45.5974 21.1758V17.3324H42.3815V21.1758H45.5974ZM43.9895 15.7245H35.2545V18.9403H43.9895V15.7245ZM36.7077 18.0207C36.7692 17.8909 36.9125 17.7151 37.3943 17.4108L35.677 14.6918C35.0524 15.0863 34.2639 15.6675 33.8014 16.6441L36.7077 18.0207ZM37.3563 17.434L40.9376 15.3085L39.2963 12.543L35.715 14.6685L37.3563 17.434ZM40.9344 15.3104C43.7314 13.6592 45.4518 11.1756 45.4518 8.04422H42.236C42.236 9.80446 41.3359 11.3389 39.2995 12.5411L40.9344 15.3104ZM45.4518 8.04422C45.4518 3.67222 41.9429 0.234457 36.8268 0.234457V3.45035C40.3875 3.45035 42.236 5.6612 42.236 8.04422H45.4518ZM36.8268 0.234457C34.185 0.234457 31.9953 1.12323 30.4593 2.63128C28.932 4.13087 28.1436 6.15413 28.1436 8.24804H31.3594C31.3594 6.96444 31.8376 5.78488 32.7124 4.92602C33.5785 4.07563 34.9265 3.45035 36.8268 3.45035V0.234457ZM28.1436 8.24804C28.1436 8.60944 28.17 9.00516 28.2082 9.34497C28.2393 9.62073 28.2976 10.0569 28.4206 10.3849L31.4318 9.25575C31.4627 9.33821 31.461 9.36421 31.4442 9.27121C31.4317 9.20278 31.4174 9.10525 31.404 8.98545C31.3767 8.74293 31.3594 8.46897 31.3594 8.24804H28.1436ZM29.9153 11.4282L34.2246 11.4574L34.2463 8.24154L29.9371 8.21242L29.9153 11.4282Z" fill="#2C68BF" mask="url(#path-2-outside-1_601_9800)"/>
</svg>
