<svg width="18" height="18" viewBox="0 0 18 18" fill="none" xmlns="http://www.w3.org/2000/svg">
<path d="M13.6028 11.1819C13.2123 11.5724 12.5791 11.5724 12.1886 11.1819L6.53176 5.52503C6.14124 5.1345 6.14124 4.50134 6.53176 4.11082L9.10704 1.53553C10.0447 0.597852 11.3165 0.0710678 12.6426 0.0710678C13.9687 0.0710678 15.2404 0.597852 16.1781 1.53553C17.1158 2.47322 17.6426 3.74499 17.6426 5.07107C17.6426 6.39715 17.1158 7.66892 16.1781 8.6066L13.6028 11.1819ZM11.4815 11.889C11.872 12.2795 11.872 12.9127 11.4815 13.3032L9.10704 15.6777C8.16936 16.6154 6.89759 17.1421 5.57151 17.1421C4.24543 17.1421 2.97366 16.6154 2.03598 15.6777C1.09829 14.74 0.571511 13.4682 0.571511 12.1421C0.57151 10.8161 1.09829 9.54428 2.03598 8.6066L4.41044 6.23214C4.80097 5.84161 5.43413 5.84161 5.82466 6.23214L11.4815 11.889Z" fill="#3C8AFF"/>
</svg>
