<svg width="181" height="169" viewBox="0 0 181 169" fill="none" xmlns="http://www.w3.org/2000/svg">
<path d="M156.562 153.796H157.908L160.835 149.713V147.018C160.835 147.018 162.912 146.892 162.668 150.401C162.424 153.91 162.687 153.017 162.687 153.017C162.687 153.017 167.093 153.017 167.459 153.411C167.727 153.686 167.852 158.064 167.892 160.436C167.921 161.009 167.757 161.575 167.427 162.044C167.097 162.513 166.619 162.859 166.07 163.025C165.917 163.067 165.758 163.088 165.598 163.088C164.497 163.088 158.883 162.195 158.883 162.195H156.562V153.796Z" fill="#E0E0E0"/>
<path d="M152.717 153.061L153.543 162.242H155.844V153.245L152.717 153.061Z" fill="#E0E0E0"/>
<path d="M87.9121 15.7234L93.6948 23.9843C93.8431 24.1905 94.0392 24.3577 94.2662 24.4716C94.4932 24.5855 94.7444 24.6428 94.9983 24.6386C95.2523 24.6343 95.5014 24.5687 95.7245 24.4472C95.9476 24.3257 96.1379 24.1521 96.2793 23.941L101.877 15.3418L87.9121 15.7234Z" fill="#E0E0E0"/>
<path d="M102.581 1.88086H86.3463C83.8348 1.88086 81.7988 3.91682 81.7988 6.42831V15.7553C81.7988 18.2668 83.8348 20.3028 86.3463 20.3028H102.581C105.092 20.3028 107.128 18.2668 107.128 15.7553V6.42831C107.128 3.91682 105.092 1.88086 102.581 1.88086Z" fill="#E0E0E0"/>
<path d="M99.4227 9.39785C98.6084 7.91481 97.263 7.68272 96.3583 8.02102C95.7201 8.29998 95.1938 8.78473 94.8634 9.39785C94.5331 8.78473 94.0068 8.29998 93.3686 8.02102C92.4638 7.68272 91.1185 7.91481 90.3081 9.39785C88.6166 12.4819 94.8634 16.5259 94.8634 16.5259C94.8634 16.5259 101.114 12.4819 99.4227 9.39785Z" fill="white"/>
<path d="M24.4165 144.623H37.7559C39.1801 144.623 40.5458 145.189 41.5528 146.196C42.5598 147.203 43.1256 148.569 43.1256 149.993V156.767C43.1256 158.191 42.5598 159.557 41.5528 160.564C40.5458 161.571 39.1801 162.136 37.7559 162.136H34.2706L31.8159 165.645C31.677 165.844 31.4912 166.006 31.2751 166.117C31.0589 166.227 30.8189 166.283 30.5762 166.279C30.3334 166.275 30.0953 166.212 29.8828 166.094C29.6703 165.977 29.4899 165.809 29.3573 165.606L27.0993 162.136H24.4165C22.9924 162.136 21.6266 161.571 20.6196 160.564C19.6126 159.557 19.0469 158.191 19.0469 156.767V149.993C19.0469 148.569 19.6126 147.203 20.6196 146.196C21.6266 145.189 22.9924 144.623 24.4165 144.623Z" fill="#E0E0E0"/>
<path d="M30.6108 150.004V156.912L25.666 153.458L30.6108 150.004Z" fill="white"/>
<path d="M37.229 157.453C37.229 157.453 36.9025 152.547 32.9765 152.473H30.4668V154.581L32.9411 154.617C32.9411 154.617 35.5099 154.558 37.229 157.453Z" fill="white"/>
<path d="M32.4595 72.3009C32.9098 70.4003 31.7342 68.4946 29.8336 68.0443C27.9331 67.594 26.0274 68.7696 25.5771 70.6701C25.1268 72.5707 26.3024 74.4764 28.2029 74.9267C30.1034 75.377 32.0092 74.2014 32.4595 72.3009Z" fill="#E0E0E0"/>
<path d="M29.0208 74.6035C27.4173 74.6035 25.8794 75.2405 24.7455 76.3744C23.6116 77.5083 22.9746 79.0462 22.9746 80.6497H35.0671C35.0671 79.0462 34.43 77.5083 33.2962 76.3744C32.1623 75.2405 30.6244 74.6035 29.0208 74.6035Z" fill="#E0E0E0"/>
<path d="M128.056 5.05432C128.056 5.54059 127.912 6.01594 127.642 6.42025C127.371 6.82457 126.987 7.1397 126.538 7.32579C126.089 7.51187 125.595 7.56056 125.118 7.46569C124.641 7.37083 124.203 7.13667 123.859 6.79282C123.515 6.44898 123.281 6.0109 123.186 5.53397C123.091 5.05705 123.14 4.5627 123.326 4.11345C123.512 3.6642 123.827 3.28021 124.231 3.01006C124.636 2.7399 125.111 2.59571 125.597 2.59571C125.92 2.59519 126.24 2.65843 126.539 2.7818C126.837 2.90518 127.109 3.08626 127.337 3.31466C127.565 3.54307 127.746 3.81431 127.87 4.11284C127.993 4.41137 128.056 4.73131 128.056 5.05432Z" fill="#E0E0E0"/>
<path d="M134.872 10.8102C134.872 11.2964 134.728 11.7718 134.458 12.1761C134.188 12.5804 133.804 12.8956 133.355 13.0816C132.905 13.2677 132.411 13.3164 131.934 13.2215C131.457 13.1267 131.019 12.8925 130.675 12.5487C130.331 12.2048 130.097 11.7668 130.002 11.2898C129.907 10.8129 129.956 10.3186 130.142 9.86931C130.328 9.42005 130.643 9.03607 131.048 8.76591C131.452 8.49576 131.927 8.35156 132.414 8.35156C133.066 8.35156 133.691 8.61059 134.152 9.07167C134.613 9.53275 134.872 10.1581 134.872 10.8102Z" fill="#E0E0E0"/>
<path d="M128.093 16.6793C128.093 17.1656 127.949 17.6409 127.679 18.0453C127.409 18.4496 127.025 18.7647 126.575 18.9508C126.126 19.1369 125.632 19.1856 125.155 19.0907C124.678 18.9958 124.24 18.7617 123.896 18.4178C123.552 18.074 123.318 17.6359 123.223 17.159C123.128 16.682 123.177 16.1877 123.363 15.7384C123.549 15.2892 123.864 14.9052 124.268 14.6351C124.673 14.3649 125.148 14.2207 125.634 14.2207C126.286 14.2207 126.912 14.4797 127.373 14.9408C127.834 15.4019 128.093 16.0273 128.093 16.6793Z" fill="#E0E0E0"/>
<path d="M125.762 16.8295L125.502 16.5306L132.111 10.8148L125.467 5.20915L125.719 4.90625L132.717 10.8109L125.762 16.8295Z" fill="#E0E0E0"/>
<path d="M170.48 62.7373C169.418 60.794 167.656 60.495 166.476 60.9356C165.637 61.2991 164.944 61.9335 164.509 62.7373C164.074 61.9335 163.381 61.2991 162.542 60.9356C161.362 60.495 159.6 60.794 158.538 62.7373C156.342 66.7694 164.54 72.0603 164.54 72.0603C164.54 72.0603 172.695 66.7694 170.48 62.7373Z" fill="#E0E0E0"/>
<path d="M160.808 81.6186C160.049 80.2339 158.798 80.0215 157.952 80.3362C157.358 80.5963 156.868 81.0478 156.559 81.6186C156.251 81.0478 155.761 80.5963 155.167 80.3362C154.325 80.0215 153.07 80.2339 152.315 81.6186C150.741 84.5021 156.559 88.2589 156.559 88.2589C156.559 88.2589 162.385 84.5021 160.808 81.6186Z" fill="#E0E0E0"/>
<path d="M167.197 14.5879H140.967C139.422 14.5879 137.941 15.2012 136.848 16.2929C135.756 17.3846 135.142 18.8654 135.141 20.4099V36.3102C135.141 37.0751 135.291 37.8325 135.584 38.5391C135.877 39.2457 136.306 39.8877 136.847 40.4284C137.388 40.9691 138.031 41.3979 138.737 41.6902C139.444 41.9826 140.202 42.1328 140.967 42.1322H149.074L153.618 48.6348C153.762 48.8393 153.954 49.0055 154.177 49.1188C154.4 49.2321 154.648 49.2891 154.898 49.2848C155.148 49.2805 155.393 49.2151 155.612 49.0943C155.832 48.9735 156.018 48.8008 156.155 48.5915L160.356 42.1322H167.197C167.962 42.1328 168.719 41.9825 169.426 41.6901C170.132 41.3977 170.774 40.9689 171.315 40.4282C171.856 39.8874 172.285 39.2454 172.577 38.5388C172.869 37.8322 173.02 37.0749 173.019 36.3102V20.4099C173.019 19.6453 172.868 18.8883 172.576 18.1819C172.283 17.4755 171.854 16.8337 171.314 16.2931C170.773 15.7525 170.131 15.3236 169.425 15.0311C168.719 14.7385 167.962 14.5879 167.197 14.5879Z" fill="white"/>
<path d="M167.196 14.5868H167.393C167.587 14.5881 167.78 14.6012 167.971 14.6262C168.722 14.7125 169.446 14.9522 170.1 15.3303C170.964 15.8199 171.689 16.5213 172.207 17.3685C172.725 18.2156 173.019 19.1807 173.062 20.1728C173.085 20.9871 173.062 21.8447 173.062 22.7494C173.062 26.3764 173.062 30.7508 173.085 35.7309C173.109 36.3679 173.059 37.0055 172.936 37.6309C172.791 38.2753 172.537 38.8901 172.184 39.4484C171.448 40.62 170.327 41.499 169.014 41.9345C168.335 42.1448 167.627 42.2445 166.917 42.2295H160.356L160.434 42.1863L158.031 45.884L156.792 47.7919C156.575 48.1145 156.398 48.4331 156.15 48.7596C155.893 49.0895 155.518 49.3078 155.104 49.3694C154.688 49.4258 154.266 49.3217 153.924 49.0783C153.756 48.955 153.611 48.8032 153.495 48.6298L153.157 48.142L151.788 46.1751L148.991 42.1823L149.077 42.2256H141.332C140.78 42.2407 140.229 42.1946 139.687 42.0879C139.15 41.9647 138.63 41.773 138.142 41.5175C137.188 40.9991 136.395 40.23 135.847 39.2933C135.299 38.3566 135.018 37.288 135.034 36.203C135.034 32.0292 135.034 28.005 135.034 24.1695C135.034 23.2097 135.034 22.2656 135.034 21.3294C135.034 20.8612 135.034 20.401 135.057 19.9329C135.077 19.7006 135.108 19.4695 135.152 19.2405C135.207 19.0124 135.258 18.7881 135.329 18.5678C135.619 17.7042 136.099 16.9166 136.733 16.2626C137.362 15.6256 138.127 15.14 138.972 14.8425C139.173 14.7673 139.379 14.7055 139.589 14.6577C139.796 14.6044 140.006 14.5663 140.219 14.5436C140.635 14.498 141.054 14.4796 141.473 14.4885H148.413L162.149 14.5239H165.883H166.854H167.185C167.185 14.5239 167.074 14.5239 166.854 14.5239H165.883H162.149L148.413 14.6577H143.861H141.442C141.031 14.6484 140.619 14.6668 140.211 14.7127C140.004 14.7351 139.798 14.7733 139.597 14.8268C139.394 14.8739 139.194 14.9343 138.999 15.0078C138.193 15.3002 137.464 15.7693 136.863 16.3807C136.247 17.0147 135.783 17.7799 135.506 18.619C135.435 18.8314 135.388 19.0517 135.333 19.272C135.278 19.4923 135.25 19.7165 135.242 19.9407C135.211 20.3931 135.223 20.8612 135.223 21.3254V24.1656C135.223 28.001 135.223 32.0332 135.223 36.199C135.209 37.2473 135.481 38.2795 136.011 39.1843C136.54 40.089 137.307 40.8318 138.228 41.3326C138.699 41.5808 139.2 41.766 139.719 41.8834C140.246 41.9895 140.783 42.0344 141.32 42.0171H149.105L149.136 42.0604L151.929 46.0532L153.298 48.0201L153.637 48.5039C153.743 48.6577 153.876 48.791 154.03 48.8973C154.329 49.1166 154.702 49.2105 155.069 49.1591C155.437 49.1077 155.77 48.915 155.997 48.6219C156.209 48.323 156.418 47.9847 156.626 47.67C157.049 47.0301 157.463 46.3941 157.869 45.7621L160.281 42.0643L160.308 42.021H166.937C167.628 42.0407 168.318 41.9464 168.978 41.7418C170.255 41.3241 171.345 40.4723 172.059 39.3343C172.405 38.7942 172.654 38.1977 172.794 37.5719C172.918 36.9586 172.969 36.3326 172.944 35.7073C172.944 30.7311 172.944 26.3567 172.967 22.7258C172.967 21.8211 172.967 20.9596 172.967 20.1532C172.935 19.4044 172.756 18.6693 172.44 17.9896C171.943 16.8955 171.118 15.9828 170.08 15.3775C169.434 14.9959 168.719 14.7483 167.975 14.6498C167.785 14.6214 167.593 14.603 167.401 14.5947L167.196 14.5868Z" fill="#263238"/>
<path d="M154.832 23.0488V33.9139L162.609 28.4814L154.832 23.0488Z" fill="#3C8AFF"/>
<path d="M144.418 34.7716C144.418 34.7716 144.933 27.0536 151.105 26.9355H155.039V30.2557L151.149 30.3107C151.149 30.3107 147.093 30.2163 144.418 34.7716Z" fill="#3C8AFF"/>
<path d="M131.74 138.299H176.424C178.913 138.299 180.932 136.28 180.932 133.791V99.2049C180.932 96.7151 178.913 94.6968 176.424 94.6968H131.74C129.25 94.6968 127.232 96.7151 127.232 99.2049V133.791C127.232 136.28 129.25 138.299 131.74 138.299Z" fill="white"/>
<path d="M151.922 136.967C151.371 138.3 140.723 148.312 140.723 148.312V136.967H151.922Z" fill="#455A64"/>
<path d="M147.8 127.835C147.8 126.458 147.8 125.309 147.8 125.168C147.8 125.168 143.146 124.727 142.812 120.121C142.651 117.894 142.69 113.276 142.776 109.106C142.821 106.944 143.679 104.877 145.178 103.319C146.678 101.76 148.709 100.824 150.868 100.696L151.313 100.668C156.132 100.668 158.826 104.747 158.7 109.562L158.531 127.63L150.742 133.889L150.176 133.838L147.8 127.835Z" fill="#FFBF9D"/>
<path d="M147.791 125.167C149.922 125.034 151.969 124.293 153.692 123.031C153.692 123.031 152.429 126.489 147.791 126.351V125.167Z" fill="#FF9A6C"/>
<path d="M150.617 111.094C150.708 111.188 151.243 110.767 152.014 110.756C152.785 110.744 153.359 111.129 153.442 111.031C153.524 110.933 153.386 110.819 153.139 110.638C152.804 110.406 152.405 110.286 151.998 110.295C151.594 110.303 151.203 110.441 150.885 110.689C150.649 110.878 150.574 111.051 150.617 111.094Z" fill="#263238"/>
<path d="M151.189 113.186C151.197 113.348 151.268 113.501 151.387 113.612C151.506 113.722 151.664 113.781 151.827 113.776C151.906 113.778 151.986 113.764 152.06 113.735C152.134 113.706 152.201 113.662 152.258 113.606C152.315 113.551 152.36 113.484 152.391 113.41C152.422 113.337 152.437 113.258 152.436 113.178C152.428 113.016 152.357 112.863 152.238 112.752C152.119 112.641 151.962 112.581 151.799 112.584C151.719 112.583 151.64 112.597 151.566 112.627C151.492 112.656 151.424 112.7 151.367 112.756C151.311 112.812 151.265 112.879 151.235 112.953C151.204 113.027 151.189 113.106 151.189 113.186Z" fill="#263238"/>
<path d="M148.617 116.432C148.231 116.337 147.835 116.291 147.437 116.295C147.256 116.295 147.083 116.263 147.044 116.141C147.018 115.954 147.05 115.763 147.134 115.594C147.276 115.15 147.426 114.678 147.587 114.186C148.212 112.18 148.653 110.532 148.57 110.508C148.488 110.484 147.917 112.082 147.292 114.1C147.142 114.591 146.997 115.063 146.863 115.516C146.762 115.741 146.744 115.995 146.812 116.232C146.841 116.294 146.885 116.349 146.939 116.392C146.992 116.435 147.055 116.465 147.123 116.48C147.225 116.5 147.329 116.508 147.433 116.503C147.829 116.534 148.228 116.51 148.617 116.432Z" fill="#263238"/>
<path d="M150.997 108.615C151.072 108.788 151.689 108.666 152.429 108.717C153.168 108.768 153.774 108.934 153.861 108.768C153.9 108.694 153.786 108.532 153.538 108.375C153.209 108.186 152.841 108.077 152.462 108.056C152.084 108.036 151.706 108.105 151.359 108.257C151.095 108.387 150.965 108.536 150.997 108.615Z" fill="#263238"/>
<path d="M143.762 109.055C143.841 109.196 144.446 109.055 145.174 109.035C145.902 109.016 146.508 109.122 146.586 108.976C146.622 108.909 146.504 108.783 146.252 108.669C145.911 108.528 145.543 108.462 145.174 108.477C144.801 108.482 144.433 108.568 144.096 108.728C143.845 108.858 143.727 108.988 143.762 109.055Z" fill="#263238"/>
<path d="M158.521 112.998C158.596 112.959 161.633 111.869 161.724 115.028C161.814 118.187 158.62 117.624 158.612 117.534C158.604 117.443 158.521 112.998 158.521 112.998Z" fill="#FFBF9D"/>
<path d="M159.544 116.31C159.544 116.31 159.599 116.35 159.694 116.389C159.826 116.442 159.974 116.442 160.107 116.389C160.437 116.255 160.701 115.72 160.701 115.15C160.702 114.878 160.643 114.609 160.528 114.363C160.494 114.265 160.438 114.176 160.364 114.104C160.289 114.032 160.198 113.979 160.099 113.95C160.035 113.935 159.968 113.942 159.91 113.972C159.851 114.001 159.805 114.051 159.78 114.111C159.741 114.202 159.78 114.261 159.745 114.269C159.709 114.276 159.674 114.217 159.697 114.088C159.713 114.008 159.755 113.936 159.816 113.883C159.857 113.849 159.906 113.823 159.958 113.808C160.01 113.793 160.065 113.789 160.118 113.796C160.248 113.819 160.371 113.875 160.474 113.957C160.577 114.04 160.658 114.147 160.708 114.269C160.848 114.54 160.921 114.841 160.921 115.146C160.921 115.783 160.61 116.385 160.158 116.53C160.074 116.558 159.984 116.566 159.896 116.555C159.809 116.543 159.724 116.512 159.65 116.464C159.552 116.385 159.532 116.334 159.544 116.31Z" fill="#FF9A6C"/>
<path d="M149.597 119.118C149.562 119.04 150.183 118.863 150.628 118.284C150.813 118.033 150.964 117.758 151.076 117.466C151.171 117.238 151.241 117.096 151.277 117.108C151.312 117.12 151.297 117.273 151.245 117.501C151.173 117.835 151.03 118.149 150.824 118.422C150.613 118.694 150.331 118.903 150.01 119.028C149.766 119.142 149.597 119.146 149.597 119.118Z" fill="#263238"/>
<path d="M162.787 107.939C162.141 106.814 162 105.484 161.661 104.237C161.323 102.99 160.643 101.692 159.431 101.244H159.403C158.314 100.787 156.965 100.764 156.056 101.515C155.855 99.8706 154.435 98.5489 152.838 98.1083C151.241 97.6677 148.668 97.888 147.122 98.5017C145.942 98.9619 144.762 99.9297 143.354 101.35C142.757 101.948 142.21 102.594 141.717 103.281L140.27 107.561L141.45 109.831C141.52 109.988 141.591 110.142 141.678 110.295L142.693 115.063C142.779 113.769 142.744 109.257 142.826 107.962C143.802 107.946 144.764 107.732 145.655 107.335C146.546 106.937 147.347 106.364 148.011 105.649C148.727 104.863 149.298 103.899 150.25 103.443C151.481 102.852 152.928 103.313 154.211 103.773L154.156 103.726C154.824 104.044 155.423 104.489 155.922 105.036C155.599 107.594 155.832 110.191 156.603 112.652C156.721 113.021 157.039 113.784 157.389 113.926C158.097 114.209 158.298 113.489 158.727 113.112C159.107 112.858 159.568 112.751 160.021 112.813C160.391 111.743 160.694 110.651 160.93 109.544C161.357 109.683 161.811 109.719 162.255 109.65L161.862 108.671C162.029 108.796 162.221 108.886 162.425 108.934C162.527 108.955 162.633 108.945 162.73 108.904C162.826 108.863 162.907 108.794 162.964 108.706C163.082 108.466 162.92 108.171 162.787 107.939Z" fill="#263238"/>
<path d="M154.604 102.035C154.767 102.165 154.92 102.309 155.06 102.464C155.418 102.909 155.655 103.439 155.748 104.002C155.823 104.391 155.857 104.786 155.851 105.182C155.851 105.607 155.807 106.059 155.768 106.539C155.719 107.041 155.701 107.546 155.713 108.05C155.728 108.314 155.759 108.577 155.807 108.837C155.843 109.122 155.952 109.392 156.122 109.623C156.202 109.714 156.303 109.782 156.417 109.822C156.53 109.862 156.652 109.872 156.771 109.852C156.998 109.811 157.205 109.698 157.361 109.529C157.616 109.184 157.774 108.776 157.817 108.349H157.723C157.857 108.698 158.041 109.025 158.27 109.321C158.49 109.596 158.809 109.775 159.159 109.82C159.321 109.84 159.486 109.814 159.635 109.745C159.772 109.675 159.886 109.565 159.961 109.431C160.029 109.311 160.065 109.175 160.064 109.037C160.061 108.904 160.011 108.775 159.922 108.675L159.871 108.719C160.142 109.035 160.475 109.292 160.85 109.474C160.95 109.521 161.052 109.562 161.157 109.596C161.192 109.611 161.229 109.62 161.267 109.623L161.165 109.58C161.094 109.549 160.996 109.509 160.866 109.442C160.504 109.251 160.183 108.99 159.922 108.675L159.875 108.719C159.948 108.817 159.99 108.935 159.993 109.058C159.997 109.18 159.962 109.301 159.894 109.403C159.827 109.524 159.724 109.622 159.599 109.682C159.464 109.744 159.314 109.766 159.167 109.745C158.843 109.698 158.548 109.53 158.345 109.273C158.124 108.982 157.945 108.662 157.813 108.321L157.751 108.172L157.719 108.329C157.672 108.733 157.522 109.118 157.282 109.446C157.142 109.597 156.957 109.697 156.755 109.734C156.655 109.753 156.551 109.745 156.454 109.711C156.357 109.677 156.271 109.619 156.205 109.541C156.046 109.328 155.945 109.077 155.913 108.813C155.862 108.554 155.831 108.291 155.819 108.026C155.807 107.526 155.822 107.026 155.866 106.528C155.902 106.048 155.941 105.591 155.941 105.163C155.942 104.766 155.902 104.371 155.823 103.982C155.722 103.41 155.47 102.874 155.091 102.432C154.952 102.274 154.787 102.14 154.604 102.035Z" fill="#455A64"/>
<path d="M140.301 106.335C140.301 106.335 140.301 106.335 140.336 106.366L140.45 106.453C140.512 106.499 140.576 106.541 140.643 106.579C140.732 106.635 140.826 106.685 140.922 106.728C141.535 107.021 142.211 107.156 142.889 107.122C143.896 107.068 144.866 106.723 145.682 106.13C146.666 105.397 147.491 104.47 148.105 103.408C148.448 102.857 148.727 102.287 149.034 101.764C149.317 101.254 149.67 100.786 150.084 100.375C150.457 100.005 150.917 99.7349 151.422 99.5884C151.65 99.5283 151.886 99.5044 152.122 99.5176C152.339 99.5328 152.554 99.5778 152.759 99.6513C153.115 99.7776 153.44 99.9789 153.711 100.241C153.919 100.438 154.091 100.668 154.222 100.922C154.323 101.144 154.401 101.376 154.455 101.614C154.455 101.599 154.455 101.583 154.455 101.567C154.455 101.528 154.455 101.481 154.455 101.425C154.416 101.246 154.36 101.07 154.285 100.902C154.156 100.641 153.985 100.403 153.778 100.198C153.346 99.7546 152.767 99.4834 152.149 99.435C151.905 99.418 151.659 99.4419 151.422 99.5058C150.901 99.6479 150.425 99.9184 150.037 100.293C149.614 100.707 149.254 101.18 148.967 101.697C148.656 102.228 148.377 102.794 148.035 103.341C147.428 104.392 146.616 105.309 145.647 106.04C144.843 106.628 143.887 106.973 142.893 107.035C142.226 107.078 141.558 106.961 140.946 106.693C140.509 106.5 140.309 106.319 140.301 106.335Z" fill="#455A64"/>
<path d="M143.582 111.289C143.672 111.384 144.211 110.963 144.982 110.955C145.753 110.947 146.324 111.329 146.406 111.23C146.489 111.132 146.355 111.014 146.103 110.837C145.769 110.605 145.369 110.485 144.962 110.495C144.559 110.503 144.169 110.641 143.849 110.888C143.617 111.073 143.538 111.25 143.582 111.289Z" fill="#263238"/>
<path d="M144.758 113.293C144.766 113.456 144.837 113.609 144.956 113.72C145.075 113.831 145.232 113.891 145.395 113.887C145.475 113.889 145.554 113.875 145.628 113.845C145.703 113.815 145.77 113.771 145.827 113.715C145.884 113.659 145.929 113.592 145.959 113.518C145.99 113.445 146.005 113.365 146.005 113.286C145.997 113.124 145.925 112.971 145.806 112.861C145.687 112.751 145.53 112.691 145.368 112.696C145.288 112.693 145.209 112.707 145.134 112.737C145.06 112.766 144.993 112.809 144.936 112.865C144.879 112.921 144.834 112.988 144.803 113.061C144.773 113.135 144.757 113.214 144.758 113.293Z" fill="#263238"/>
<path d="M142.122 102.75C141.729 103.269 141.127 103.741 140.482 103.671C140.248 103.621 140.018 103.554 139.794 103.47C139.569 103.608 139.621 104.379 139.794 104.591C139.94 104.771 140.102 104.939 140.277 105.091C139.518 105.484 138.83 105.299 138.023 105.004C138.105 105.694 138.365 106.35 138.779 106.907C139.194 107.464 139.747 107.902 140.384 108.179C140.578 108.283 140.795 108.34 141.016 108.344C141.237 108.348 141.456 108.299 141.654 108.202C141.959 107.954 142.16 107.6 142.217 107.211C142.578 105.828 142.768 104.407 142.783 102.978L142.122 102.75Z" fill="#263238"/>
<path d="M137.258 133.037L137.34 132.93C141.03 129.024 147.824 127.718 147.824 127.718C147.824 127.718 148.241 130.275 152.049 130.562C155.856 130.85 158.642 126.955 158.642 126.955L163.755 127.679C163.755 127.679 166.312 127.982 167.902 128.918C171.489 131.027 173.409 138.3 173.409 138.3L134.229 138.461L137.258 133.037Z" fill="#455A64"/>
<path d="M133.674 94.6975L133.399 94.7171L133.061 94.7407C132.927 94.7407 132.774 94.784 132.597 94.8115C131.56 94.9882 130.584 95.4209 129.756 96.0703C129.153 96.5407 128.639 97.1148 128.238 97.7658C127.754 98.5466 127.446 99.423 127.333 100.335C127.281 100.847 127.262 101.362 127.278 101.877C127.278 102.408 127.278 102.962 127.278 103.529C127.278 104.67 127.278 105.889 127.278 107.156C127.278 112.27 127.278 118.438 127.298 125.483C127.298 127.246 127.298 129.06 127.298 130.928C127.298 131.392 127.298 131.864 127.325 132.328C127.36 132.797 127.445 133.261 127.577 133.713C127.861 134.632 128.351 135.474 129.009 136.175C129.674 136.902 130.504 137.46 131.428 137.8L131.778 137.926L132.14 138.02C132.384 138.081 132.631 138.125 132.88 138.154C133.386 138.202 133.894 138.221 134.402 138.209H140.799V138.3C140.799 141.466 140.799 144.845 140.799 148.311L140.637 148.24C142.295 146.667 143.977 145.054 145.684 143.402C147.384 141.734 149.122 140.042 150.779 138.233L150.81 138.201H173.756C174.177 138.201 174.594 138.201 175.003 138.178C176.228 138.074 177.397 137.616 178.367 136.86C179.336 136.103 180.065 135.081 180.463 133.917C180.715 133.157 180.834 132.358 180.813 131.557V129.118C180.813 122.686 180.813 116.479 180.813 110.566C180.813 107.613 180.813 104.729 180.813 101.912C180.841 101.222 180.799 100.532 180.687 99.8507C180.546 99.1897 180.305 98.5543 179.971 97.9664C179.642 97.3872 179.221 96.8651 178.724 96.4204C178.243 95.9773 177.693 95.6147 177.096 95.3465C176.51 95.0778 175.886 94.9013 175.247 94.8233C174.612 94.7695 173.975 94.7511 173.339 94.7683H169.606H162.588L141.412 94.7368L135.653 94.7171H134.154H133.647H134.154H135.653H141.412L162.588 94.6856H169.606H173.339C173.983 94.669 174.628 94.6873 175.27 94.7407C175.926 94.8199 176.566 95.0004 177.166 95.2757C177.781 95.5502 178.347 95.9221 178.842 96.3772C179.351 96.8296 179.784 97.3609 180.125 97.9507C180.466 98.5549 180.714 99.2075 180.86 99.8861C180.977 100.578 181.022 101.281 180.994 101.983C180.994 104.784 180.994 107.668 180.994 110.637C180.994 116.538 180.994 122.757 180.994 129.189V131.612C181.016 132.44 180.895 133.265 180.636 134.051C180.214 135.23 179.463 136.263 178.471 137.027C177.48 137.791 176.289 138.255 175.042 138.362C174.613 138.394 174.192 138.394 173.775 138.39H150.877L150.952 138.359C149.284 140.172 147.545 141.864 145.838 143.531C144.13 145.199 142.439 146.808 140.783 148.37L140.618 148.523V148.299C140.618 144.834 140.618 141.454 140.618 138.288L140.712 138.382H134.418C133.902 138.397 133.386 138.379 132.872 138.327C132.617 138.3 132.364 138.252 132.117 138.185L131.743 138.091L131.381 137.961C130.432 137.609 129.58 137.036 128.895 136.289C128.224 135.565 127.724 134.699 127.432 133.756C127.296 133.293 127.21 132.817 127.176 132.336C127.14 131.856 127.152 131.388 127.152 130.924C127.152 129.056 127.152 127.242 127.152 125.479C127.152 118.434 127.152 112.258 127.172 107.152C127.172 105.873 127.172 104.666 127.172 103.525C127.172 102.958 127.172 102.404 127.172 101.873C127.158 101.354 127.177 100.835 127.231 100.319C127.34 99.4746 127.615 98.6602 128.039 97.9223C128.464 97.1845 129.03 96.5378 129.705 96.0192C130.543 95.3697 131.53 94.9421 132.577 94.7761C132.754 94.7525 132.907 94.7211 133.045 94.7132H133.383L133.674 94.6975Z" fill="#263238"/>
<path d="M11.9987 52.8867L66.1157 52.8867C69.1595 52.8867 71.627 50.4193 71.627 47.3755V5.51217C71.627 2.4684 69.1595 0.000938416 66.1157 0.000938416L11.9987 0.000938416C8.9549 0.000938416 6.48743 2.4684 6.48743 5.51217V47.3755C6.48743 50.4193 8.9549 52.8867 11.9987 52.8867Z" fill="white"/>
<path d="M36.4447 51.2695C35.776 52.8863 22.8574 65.0378 22.8574 65.0378V51.2695H36.4447Z" fill="#455A64"/>
<path d="M52.2444 23.2093C52.2759 20.4556 52.7125 17.702 52.6063 14.9483C52.5001 12.1947 51.7724 9.31909 49.8527 7.34433C47.933 5.36957 44.5893 4.59068 42.3392 6.20747L41.8789 8.56774C42.7653 19.2073 43.6517 29.8456 44.5381 40.4825C44.6522 41.879 44.7781 43.3188 45.4154 44.5658C46.0526 45.8128 47.3272 46.8474 48.7276 46.7608C50.5568 46.6507 51.7606 44.7939 52.327 43.0513C54.3923 36.7061 52.1618 29.8613 52.2444 23.2093Z" fill="#263238"/>
<path d="M45.6083 8.90629C45.2408 8.20548 44.7685 7.56479 44.2079 7.00627C43.9239 6.72967 43.5811 6.52062 43.2052 6.39463C42.8293 6.26864 42.4298 6.22896 42.0365 6.27852C41.8512 6.3015 41.6748 6.37136 41.5241 6.48149C41.3733 6.59163 41.2532 6.7384 41.175 6.90793C41.053 7.26197 41.3126 7.73009 41.6863 7.69468L41.765 7.76156C42.5911 8.49324 43.429 9.20919 44.2866 9.90547C44.4894 10.0951 44.7273 10.2434 44.9868 10.3421C45.12 10.3924 45.2649 10.4036 45.4043 10.3743C45.5437 10.345 45.6718 10.2765 45.7735 10.1769C46.0646 9.83859 45.8404 9.3036 45.6083 8.90629Z" fill="#3C8AFF"/>
<path d="M47.1673 11.6159C44.4137 8.25252 40.7277 6.32103 36.3848 6.24629C33.938 6.20695 32.9231 6.71441 31.1607 7.1904C29.3923 7.61926 27.8312 8.65675 26.751 10.1211C25.504 11.8952 24.4536 13.8818 24.2176 16.0414C23.9816 18.2011 23.7298 20.4709 23.899 22.7092C24.0681 24.9475 24.6857 27.1701 25.976 28.9757L31.6328 29.9552C34.7562 30.0614 37.9269 30.1637 40.9637 29.4517C44.0006 28.7397 46.9667 27.0914 48.5953 24.4361C50.8533 20.7147 49.917 14.9754 47.1673 11.6159Z" fill="#263238"/>
<path d="M31.6088 39.9796C31.6481 38.0127 31.715 35.5069 31.715 35.5187C31.715 35.5305 27.1046 35.0112 25.8143 29.0987C25.181 26.1602 25.063 21.2902 25.0945 17.2974C25.122 13.7098 28.1785 8.82007 32.6119 8.80433L34.5788 8.57617L42.1159 11.5737C42.6415 11.6009 43.1377 11.824 43.5069 12.199C43.8761 12.574 44.0914 13.0737 44.1104 13.5996L44.3936 39.5901L39.5629 47.6583L30.9086 40.9709L31.6088 39.9796Z" fill="#B56760"/>
<path d="M34.6937 27.7173C34.6521 27.4104 34.4979 27.13 34.2609 26.9305C34.0451 26.7443 33.7736 26.6348 33.4889 26.6191C33.2043 26.6035 32.9224 26.6825 32.6874 26.844C32.4443 27.0308 32.2555 27.2792 32.1407 27.5634C32.0259 27.8477 31.9892 28.1575 32.0344 28.4608C32.1645 28.6423 32.3318 28.7941 32.5251 28.906C32.7184 29.018 32.9333 29.0874 33.1556 29.1099H33.364C33.7181 29.1019 34.0564 28.9615 34.3121 28.7165C34.4456 28.5885 34.5491 28.4325 34.615 28.2597C34.681 28.0869 34.7079 27.9017 34.6937 27.7173Z" fill="#8A4A43"/>
<path d="M27.4922 21.9232C27.5004 22.1239 27.5878 22.3132 27.7352 22.4496C27.8827 22.586 28.0782 22.6584 28.2789 22.6509C28.3757 22.6525 28.4718 22.6349 28.5617 22.599C28.6515 22.5632 28.7334 22.5099 28.8026 22.4422C28.8717 22.3745 28.9268 22.2938 28.9645 22.2047C29.0022 22.1156 29.0219 22.0199 29.0224 21.9232C29.0085 21.7242 28.9195 21.538 28.7734 21.4021C28.6273 21.2663 28.4351 21.191 28.2357 21.1915C28.1386 21.1899 28.0422 21.2077 27.952 21.2438C27.8619 21.2798 27.7798 21.3335 27.7106 21.4016C27.6414 21.4697 27.5865 21.5509 27.549 21.6404C27.5115 21.73 27.4922 21.8261 27.4922 21.9232Z" fill="#263238"/>
<path d="M26.4645 19.2957C26.5668 19.3901 27.1215 18.9298 27.9436 18.9023C28.7658 18.8748 29.3952 19.2367 29.4778 19.1344C29.5604 19.0321 29.4109 18.9102 29.1395 18.741C28.7696 18.513 28.3379 18.4057 27.9043 18.4342C27.4732 18.4544 27.0599 18.6115 26.7241 18.8826C26.4881 19.0675 26.4134 19.2524 26.4645 19.2957Z" fill="#263238"/>
<path d="M31.7478 25.7516C31.3058 25.6374 30.851 25.5805 30.3946 25.5824C30.1822 25.5824 29.9815 25.5391 29.9383 25.4014C29.9069 25.1844 29.9441 24.963 30.0445 24.7681L30.5755 23.1356C31.3151 20.8107 31.8383 18.9028 31.7557 18.8753C31.6731 18.8478 30.9689 20.7045 30.249 23.0333L29.7337 24.6776C29.615 24.9381 29.5927 25.2323 29.6708 25.5077C29.7046 25.5804 29.7549 25.6442 29.8177 25.6941C29.8806 25.7439 29.9542 25.7784 30.0327 25.7948C30.15 25.8214 30.2704 25.832 30.3906 25.8263C30.8444 25.8587 31.3004 25.8336 31.7478 25.7516Z" fill="#263238"/>
<path d="M31.717 35.518C34.5264 35.4047 37.2496 34.5156 39.5846 32.9492C39.5846 32.9492 37.6846 37.1977 31.6855 36.9695L31.717 35.518Z" fill="#8A4A43"/>
<path d="M34.1992 26.1838C34.0654 26.1838 34.1126 27.0768 33.3849 27.7573C32.6571 28.4379 31.6973 28.3867 31.6973 28.5126C31.6973 28.5716 31.9176 28.6739 32.3227 28.666C32.8456 28.6417 33.3436 28.4358 33.731 28.0838C34.1004 27.7435 34.3256 27.2749 34.3604 26.7739C34.3722 26.3923 34.2621 26.1759 34.1992 26.1838Z" fill="#263238"/>
<path d="M26.7414 16.417C26.8909 16.6098 27.5282 16.4406 28.252 16.4603C28.9758 16.4799 29.6131 16.6412 29.7625 16.4603C29.8294 16.3659 29.7389 16.177 29.4754 15.9882C29.1102 15.7614 28.6901 15.6386 28.2603 15.633C27.8305 15.6275 27.4073 15.7394 27.0364 15.9567C26.7689 16.1338 26.6745 16.3226 26.7414 16.417Z" fill="#263238"/>
<path d="M36.8508 21.7101C36.8573 21.9099 36.785 22.1043 36.6497 22.2514C36.5143 22.3985 36.3267 22.4866 36.127 22.4968C36.0309 22.5044 35.9342 22.4928 35.8425 22.4628C35.7509 22.4328 35.666 22.385 35.5929 22.3221C35.5198 22.2593 35.4598 22.1825 35.4165 22.0964C35.3731 22.0103 35.3472 21.9164 35.3402 21.8202C35.3338 21.6204 35.406 21.4261 35.5414 21.2789C35.6767 21.1318 35.8644 21.0437 36.0641 21.0335C36.1602 21.026 36.2569 21.0375 36.3485 21.0675C36.4402 21.0975 36.525 21.1453 36.5981 21.2082C36.6712 21.2711 36.7312 21.3478 36.7746 21.4339C36.8179 21.52 36.8438 21.6139 36.8508 21.7101Z" fill="#263238"/>
<path d="M37.5969 18.9764C37.5025 19.0787 36.9164 18.6578 36.0942 18.6774C35.272 18.6971 34.6741 19.1141 34.5797 19.0157C34.4853 18.9174 34.6308 18.7915 34.8905 18.5948C35.2429 18.3425 35.6647 18.2051 36.0981 18.2014C36.5265 18.1945 36.9463 18.3225 37.2979 18.5673C37.5536 18.7522 37.6441 18.9331 37.5969 18.9764Z" fill="#263238"/>
<path d="M37.0813 16.34C36.9239 16.5288 36.2945 16.34 35.5077 16.34C34.721 16.34 34.0995 16.4895 33.9342 16.2967C33.8674 16.2023 33.9657 16.0135 34.245 15.8325C34.6288 15.612 35.0644 15.4979 35.507 15.5021C35.9496 15.5062 36.3831 15.6284 36.7626 15.8561C37.0813 16.0567 37.1678 16.2456 37.0813 16.34Z" fill="#263238"/>
<path d="M43.1103 23.6223C43.0867 23.1777 43.539 22.0999 43.9757 22.0094C45.1558 21.7616 47.2525 21.7419 47.4335 24.7119C47.6853 28.7755 43.5548 28.1894 43.539 28.0753C43.5233 27.9612 43.1889 25.1525 43.1103 23.6223Z" fill="#B56760"/>
<path d="M44.5586 26.5221C44.5586 26.5221 44.6333 26.5654 44.7553 26.6126C44.9258 26.6807 45.1159 26.6807 45.2863 26.6126C45.7033 26.4277 46.022 25.7236 45.9984 24.9919C45.9915 24.6355 45.9027 24.2856 45.7387 23.9691C45.693 23.8442 45.6175 23.7324 45.5188 23.6433C45.4201 23.5542 45.3011 23.4905 45.1723 23.4577C45.0914 23.4445 45.0085 23.4591 44.9371 23.4991C44.8656 23.5391 44.8099 23.6022 44.7789 23.678C44.7317 23.796 44.7789 23.8747 44.7396 23.8826C44.7002 23.8904 44.6491 23.8196 44.6727 23.6505C44.6877 23.5488 44.7378 23.4556 44.8143 23.3869C44.9235 23.2941 45.0646 23.2475 45.2077 23.2571C45.3779 23.2796 45.5395 23.3453 45.6773 23.4479C45.815 23.5505 45.9241 23.6866 45.9944 23.8432C46.1907 24.1836 46.2989 24.5676 46.3091 24.9604C46.3327 25.7826 45.963 26.5733 45.3847 26.7778C45.278 26.8174 45.1636 26.832 45.0504 26.8204C44.9372 26.8088 44.8281 26.7713 44.7317 26.711C44.5783 26.6205 44.5586 26.53 44.5586 26.5221Z" fill="#8A4A43"/>
<path d="M44.1391 22.0203L43.1084 23.1021C38.6593 18.8222 29.9342 8.15376 30.422 8.77529C32.4534 8.0146 34.6434 7.77653 36.7908 8.08295C40.1069 8.64941 46.3931 10.3055 46.2987 14.2157C46.2043 18.1259 44.1391 22.0203 44.1391 22.0203Z" fill="#263238"/>
<path d="M50.0404 21.1359C50.0287 21.0551 50.0076 20.9758 49.9774 20.8999C49.9048 20.6785 49.8127 20.4639 49.7021 20.2587C49.2822 19.5049 48.7021 18.8522 48.0027 18.3469C46.9658 17.6069 45.8095 17.0507 44.5842 16.7026C43.2231 16.262 41.6929 15.9158 40.1902 15.2707C38.7698 14.6781 37.4222 13.9244 36.1738 13.0245C35.1563 12.2862 34.2083 11.4566 33.3415 10.5462C32.7576 9.9293 32.2099 9.27914 31.7011 8.59898L31.3077 8.04038C31.2629 7.97359 31.2129 7.91046 31.1582 7.85156C31.1854 7.92766 31.2239 7.99926 31.2723 8.06399C31.3588 8.19774 31.4808 8.39836 31.6657 8.64619C32.1508 9.34871 32.6845 10.0165 33.2628 10.6445C34.122 11.5779 35.0692 12.4262 36.0912 13.1779C37.3449 14.0978 38.7038 14.865 40.139 15.4634C41.5862 16.0136 43.0607 16.4889 44.5567 16.8875C45.7666 17.2198 46.9126 17.7516 47.9476 18.461C48.6393 18.9476 49.2232 19.5716 49.6627 20.2941C49.9302 20.8055 50.0207 21.1359 50.0404 21.1359Z" fill="#455A64"/>
<path d="M48.861 21.7613C48.8737 21.4583 48.82 21.1562 48.7036 20.8762C48.3996 20.0983 47.8676 19.4305 47.1773 18.9604C46.3316 18.3271 45.12 17.9376 43.7864 17.6308C42.3366 17.3433 40.9235 16.8946 39.5733 16.2933C38.2293 15.6807 36.9673 14.9024 35.8166 13.9763C34.8765 13.2186 34.0135 12.3701 33.2399 11.443C32.7215 10.8174 32.2419 10.1605 31.8041 9.47607L31.4619 8.90174C31.4254 8.8322 31.3805 8.76745 31.3281 8.70898C31.3502 8.7836 31.3819 8.85502 31.4225 8.92141L31.7372 9.51148C32.1492 10.2203 32.6134 10.8975 33.1259 11.5374C33.8922 12.485 34.7528 13.3523 35.6946 14.1258C36.854 15.0695 38.1281 15.8626 39.4868 16.4861C40.8501 17.0915 42.2781 17.5389 43.7431 17.8196C45.0728 18.1107 46.2608 18.4805 47.0947 19.0824C47.7706 19.5293 48.3033 20.1617 48.6289 20.9037C48.7321 21.1819 48.8098 21.469 48.861 21.7613Z" fill="#455A64"/>
<path d="M44.002 28.9018C44.002 28.8742 44.3481 28.827 44.95 28.6697C45.7942 28.4235 46.5717 27.9891 47.2237 27.399C48.1757 26.5066 48.9 25.3992 49.3362 24.1694C49.8896 22.6665 50.1874 21.0816 50.2173 19.4803C50.2346 18.6537 50.1687 17.8274 50.0206 17.0139C49.8663 16.2608 49.6397 15.5244 49.344 14.8149C48.8312 13.6111 48.1198 12.5021 47.2395 11.5341C46.4074 10.663 45.4946 9.8727 44.5133 9.17383C44.5931 9.20103 44.6686 9.23945 44.7376 9.28791C44.8792 9.37839 45.0955 9.4964 45.3512 9.68129C46.0894 10.1879 46.77 10.7736 47.3811 11.4279C48.2966 12.3962 49.0379 13.5154 49.5722 14.7362C49.8817 15.4607 50.1176 16.2146 50.2763 16.9863C50.4342 17.8159 50.5041 18.6597 50.4848 19.5039C50.4563 21.1358 50.1449 22.7503 49.5643 24.2756C49.1049 25.5368 48.3431 26.666 47.3457 27.5643C46.6689 28.157 45.8593 28.578 44.9854 28.7916C44.7487 28.8481 44.5081 28.8863 44.2655 28.9057C44.1779 28.9168 44.0892 28.9155 44.002 28.9018Z" fill="#455A64"/>
<path d="M18.6491 46.5027L18.7514 46.3729C23.228 41.6524 31.4693 40.0513 31.4693 40.0513C31.4693 40.0513 31.9728 43.1511 36.5832 43.4973C41.1936 43.8435 44.5964 39.1387 44.5964 39.1387L50.7606 40.0041C50.7606 40.0041 53.8604 40.3699 55.7919 41.5029C60.1427 44.0638 62.4518 52.8872 62.4518 52.8872L14.9238 53.08L18.6491 46.5027Z" fill="#455A64"/>
<path d="M14.3034 0L13.9729 0.0236032L13.5795 0.047205C13.4183 0.047205 13.2294 0.102278 13.017 0.133749C11.7513 0.345395 10.5587 0.870068 9.54742 1.66006C7.9195 2.92829 6.86012 4.78963 6.60101 6.83692C6.54178 7.45789 6.52076 8.08191 6.53807 8.70546C6.53807 9.35454 6.53807 10.0233 6.53807 10.7156C6.53807 12.0964 6.53807 13.5637 6.53807 15.1097C6.53807 21.3054 6.53807 28.7992 6.56168 37.3434C6.56168 39.4808 6.56168 41.6824 6.56168 43.9482C6.56168 44.5108 6.56168 45.0851 6.59315 45.6476C6.63666 46.218 6.73949 46.7822 6.89998 47.3313C7.24574 48.449 7.84019 49.4738 8.63871 50.3288C9.04186 50.7626 9.49173 51.1505 9.98013 51.4854C10.481 51.817 11.0182 52.0902 11.5812 52.2997L12.006 52.457L12.4466 52.5672C12.7415 52.6432 13.0412 52.6997 13.3435 52.7363C13.6464 52.7835 13.9533 52.7756 14.2601 52.7953H22.9459V52.8897C22.9459 56.7252 22.9459 60.8242 22.9459 65.0294L22.7846 64.9586C24.7935 63.0625 26.8351 61.1061 28.9095 59.0894C30.9708 57.0674 33.0793 55.014 35.0895 52.8189L35.1209 52.7874H62.9446C63.456 52.7874 63.9634 52.7874 64.4591 52.752C65.9504 52.6281 67.3732 52.072 68.5533 51.1518C69.7334 50.2317 70.6195 48.9873 71.1033 47.5712C71.4099 46.6418 71.5523 45.6661 71.5242 44.6878V41.7492C71.5242 33.9446 71.5242 26.4075 71.5242 19.2441C71.5242 15.6617 71.5242 12.1685 71.5242 8.76447C71.5572 7.92732 71.5045 7.08899 71.3668 6.26258C71.2022 5.46109 70.917 4.68917 70.5211 3.97312C69.7148 2.57247 68.4925 1.45747 67.0239 0.782822C66.3124 0.456969 65.5547 0.243323 64.7777 0.149484C64.0073 0.0839164 63.2337 0.0615892 62.4607 0.0826091H57.933H49.4202L23.709 0.0393372H16.7226H14.9052H14.2876H14.9052H16.7226H23.709L49.3966 0.00786775H57.9094H62.4371C63.2167 -0.0127466 63.9967 0.00957787 64.7738 0.0747413C65.5686 0.168254 66.3438 0.38595 67.0711 0.719882C68.5714 1.4094 69.8208 2.54745 70.6469 3.97706C71.0643 4.71357 71.3668 5.5095 71.5438 6.33733C71.6807 7.17574 71.7334 8.02572 71.7012 8.87462C71.7012 12.2839 71.7012 15.7771 71.7012 19.3542C71.7012 26.5255 71.7012 34.0548 71.7012 41.8594V44.7979C71.7304 45.7991 71.5839 46.7976 71.2685 47.7483C70.7726 49.2017 69.8635 50.479 68.6526 51.4237C67.4418 52.3684 65.9817 52.9393 64.4512 53.0667C63.9359 53.1021 63.4284 53.1021 62.921 53.0982H35.1681L35.2429 53.0667C33.2249 55.2657 31.1164 57.3192 29.0511 59.3608C26.9859 61.4024 24.9324 63.2041 22.9223 65.1002L22.7571 65.2575V65.0294C22.7571 60.8242 22.7571 56.7252 22.7571 52.8897L22.8515 52.9802H14.268C13.9533 52.9566 13.6386 52.9802 13.3317 52.9173C13.0227 52.8797 12.7166 52.8219 12.4151 52.7442L11.9628 52.6301L11.5143 52.4649C10.9403 52.2497 10.3926 51.9699 9.88179 51.6309C9.38181 51.2881 8.9202 50.8924 8.50496 50.4508C7.69335 49.5744 7.08846 48.5273 6.73476 47.3864C6.57212 46.8254 6.46669 46.2495 6.42006 45.6673C6.40039 45.0812 6.40039 44.5147 6.40039 43.9522C6.40039 41.6863 6.40039 39.4847 6.40039 37.3473C6.40039 28.8032 6.40039 21.3093 6.42399 15.1136C6.42399 13.5676 6.42399 12.1003 6.42399 10.7196C6.42399 10.0272 6.42399 9.35847 6.42399 8.7094C6.40951 8.08176 6.43316 7.45382 6.4948 6.82905C6.76448 4.76329 7.84248 2.88881 9.49234 1.61679C10.508 0.829621 11.7051 0.310201 12.9737 0.106212C13.1862 0.0786759 13.3671 0.0432708 13.5402 0.0314695L13.9336 0.0118009L14.3034 0Z" fill="#263238"/>
<path d="M42.7558 90.5801H4.84196C2.36306 90.5801 0.353516 92.5896 0.353516 95.0685V124.163C0.353516 126.642 2.36306 128.651 4.84196 128.651H42.7558C45.2347 128.651 47.2442 126.642 47.2442 124.163V95.0685C47.2442 92.5896 45.2347 90.5801 42.7558 90.5801Z" fill="white"/>
<path d="M25.6777 127.486C26.1577 128.666 35.4611 137.392 35.4611 137.392V127.486H25.6777Z" fill="#3C8AFF"/>
<path d="M32.2162 99.0267C31.9863 98.2828 31.6105 97.5921 31.1107 96.995C30.6109 96.398 29.9971 95.9065 29.3052 95.5492C27.7433 94.822 25.9771 94.6606 24.3093 95.0929C22.6569 95.5301 21.0865 96.2329 19.6596 97.1739C18.8194 97.6386 18.0736 98.2563 17.4606 98.9952C16.4103 100.392 15.4032 102.669 15.3482 104.416C15.301 105.828 15.9422 109.341 16.5755 110.604C16.9119 111.126 17.395 111.536 17.9641 111.784C18.6429 113.035 19.5394 114.156 20.6116 115.092C20.9105 114.138 21.2108 113.182 21.5124 112.225L32.2162 99.0267Z" fill="#263238"/>
<path d="M31.3535 97.3193L28.5605 96.9023C30.1813 100.474 30.8303 108.735 31.8099 112.535C32.7894 111.021 35.0395 106.426 34.8625 104.628C34.6854 102.831 34.6461 96.9181 31.3535 97.3193Z" fill="#263238"/>
<path d="M18.3557 103.714C18.3758 102.698 18.7213 101.715 19.3416 100.91C19.962 100.105 20.8242 99.52 21.8017 99.2415L28.1548 97.428C30.9084 97.0347 32.8517 100.398 33.1153 103.167C33.4024 106.244 33.6188 109.497 33.3238 111.822C32.7337 116.471 29.2051 117.172 29.2051 117.172C29.2051 117.172 29.268 119.371 29.3034 120.712L28.2688 126.766L19.8938 119.615L18.3203 103.769C18.336 103.691 18.3518 103.82 18.3557 103.714Z" fill="#FFBF9D"/>
<path d="M31.7157 107.019C31.7232 107.173 31.6696 107.324 31.5665 107.439C31.4633 107.554 31.3191 107.623 31.1649 107.632C31.0896 107.641 31.0132 107.634 30.9404 107.613C30.8676 107.592 30.7999 107.556 30.7412 107.508C30.6825 107.46 30.634 107.4 30.5987 107.333C30.5634 107.266 30.5419 107.193 30.5355 107.117C30.53 106.963 30.5842 106.813 30.6868 106.698C30.7894 106.582 30.9326 106.511 31.0863 106.499C31.1619 106.491 31.2383 106.498 31.3111 106.52C31.3839 106.542 31.4516 106.578 31.5103 106.626C31.5689 106.675 31.6173 106.734 31.6526 106.802C31.6878 106.869 31.7093 106.943 31.7157 107.019Z" fill="#263238"/>
<path d="M32.4689 105.001C32.3981 105.08 31.9379 104.761 31.2888 104.785C30.6397 104.808 30.1913 105.139 30.1087 105.06C30.0261 104.981 30.1441 104.887 30.3447 104.73C30.6156 104.531 30.941 104.419 31.277 104.411C31.6086 104.401 31.9349 104.496 32.2093 104.682C32.4335 104.828 32.5044 104.966 32.4689 105.001Z" fill="#263238"/>
<path d="M25.9637 107.019C25.9712 107.173 25.9176 107.324 25.8145 107.439C25.7114 107.554 25.5671 107.623 25.413 107.632C25.3376 107.641 25.2613 107.634 25.1885 107.613C25.1157 107.592 25.0479 107.556 24.9892 107.508C24.9305 107.46 24.882 107.4 24.8467 107.333C24.8114 107.266 24.7899 107.193 24.7836 107.117C24.7781 106.962 24.8328 106.811 24.9363 106.696C25.0397 106.581 25.1838 106.51 25.3382 106.499C25.4136 106.491 25.4898 106.498 25.5624 106.52C25.635 106.542 25.7025 106.578 25.7608 106.627C25.8191 106.675 25.8671 106.735 25.902 106.802C25.9368 106.869 25.9578 106.943 25.9637 107.019Z" fill="#263238"/>
<path d="M26.408 105.175C26.3333 105.253 25.877 104.935 25.2279 104.958C24.5788 104.982 24.1343 105.312 24.0478 105.234C23.9612 105.155 24.0832 105.061 24.2838 104.903C24.5547 104.704 24.8801 104.593 25.2161 104.585C25.5477 104.575 25.874 104.67 26.1484 104.856C26.3687 105.002 26.4631 105.139 26.408 105.175Z" fill="#263238"/>
<path d="M28.5408 110.131C28.8758 110.018 29.2231 109.946 29.5754 109.915C29.7367 109.891 29.8901 109.856 29.9137 109.742C29.9221 109.573 29.8796 109.406 29.7917 109.262C29.6265 108.869 29.4534 108.475 29.2685 108.035C28.5447 106.288 28.0176 104.848 28.0884 104.821C28.1592 104.793 28.8004 106.186 29.5242 107.932L30.0278 109.168C30.135 109.362 30.1712 109.587 30.13 109.805C30.1082 109.863 30.0735 109.915 30.0286 109.958C29.9836 110.001 29.9295 110.034 29.8704 110.053C29.7809 110.079 29.6884 110.095 29.595 110.1C29.2464 110.155 28.8921 110.166 28.5408 110.131Z" fill="#263238"/>
<path d="M23.0215 115.686C23.0215 115.686 24.6186 118.833 29.2329 118.243L29.2172 117.157C27.0554 117.251 24.9102 116.741 23.0215 115.686Z" fill="#FF9A6C"/>
<path d="M26.1389 102.872C26.0799 103.045 25.4426 102.986 24.6952 103.096C23.9478 103.206 23.3499 103.434 23.2436 103.281C23.1964 103.206 23.2987 103.041 23.5387 102.864C23.8583 102.648 24.2227 102.508 24.6043 102.455C24.986 102.401 25.3749 102.434 25.7416 102.553C26.0209 102.655 26.1625 102.789 26.1389 102.872Z" fill="#263238"/>
<path d="M32.2035 103.053C32.0973 103.203 31.6528 103.053 31.1217 103.073C30.5907 103.092 30.1501 103.203 30.0399 103.053C29.9927 102.978 30.0596 102.833 30.2524 102.691C30.5096 102.517 30.8131 102.424 31.1237 102.424C31.4343 102.424 31.7378 102.517 31.995 102.691C32.1839 102.833 32.2507 102.982 32.2035 103.053Z" fill="#263238"/>
<path d="M31.7327 98.9783C31.5598 98.6432 31.2973 98.3627 30.9742 98.1682C30.6512 97.9737 30.2805 97.8728 29.9035 97.8768C29.1468 97.8967 28.412 98.1343 27.7871 98.5613C25.0767 100.233 23.7707 104.12 21.0997 105.847C20.4427 106.268 19.5576 105.921 19.003 106.476C18.4483 107.031 18.1061 107.896 18.4404 108.604C18.037 108.13 17.7032 107.6 17.4491 107.031C17.3249 106.745 17.2631 106.436 17.2678 106.125C17.2726 105.814 17.3438 105.507 17.4766 105.225C17.7009 104.808 18.106 104.486 18.2083 104.045C18.3106 103.604 18.1257 103.223 18.1336 102.81C18.1706 102.391 18.3053 101.987 18.527 101.63C19.496 99.6769 20.9782 98.0246 22.8148 96.8501C24.027 96.0985 25.4207 95.6906 26.8469 95.67C28.2773 95.6628 29.663 96.168 30.7532 97.094C31.3786 97.6448 32.0356 98.2152 31.7405 98.994" fill="#263238"/>
<path d="M19.088 107.047C19.033 106.917 16.594 106.114 16.6373 108.679C16.6766 111.173 19.1785 110.611 19.1785 110.54C19.1785 110.469 19.088 107.047 19.088 107.047Z" fill="#FFBF9D"/>
<path d="M18.3924 109.611C18.3924 109.611 18.3492 109.642 18.2784 109.674C18.1735 109.715 18.0567 109.715 17.9519 109.674C17.7899 109.574 17.657 109.432 17.5666 109.265C17.4762 109.097 17.4313 108.908 17.4365 108.718C17.4286 108.504 17.4662 108.291 17.5467 108.092C17.5697 108.015 17.6109 107.943 17.667 107.884C17.7231 107.825 17.7925 107.781 17.8692 107.754C17.9185 107.74 17.9712 107.743 18.018 107.764C18.0649 107.785 18.1028 107.822 18.1249 107.868C18.1603 107.939 18.1446 107.986 18.1603 107.99C18.1761 107.994 18.2115 107.951 18.1918 107.845C18.1752 107.784 18.1394 107.73 18.0895 107.691C18.0202 107.641 17.9342 107.62 17.8496 107.632C17.7477 107.655 17.6531 107.702 17.5747 107.771C17.4963 107.84 17.4366 107.928 17.4011 108.026C17.2991 108.243 17.2518 108.482 17.2634 108.722C17.2555 108.945 17.3137 109.165 17.4306 109.354C17.5475 109.544 17.7179 109.695 17.9204 109.788C17.9874 109.805 18.0574 109.807 18.1253 109.794C18.1932 109.781 18.2576 109.753 18.3138 109.713C18.3885 109.67 18.4042 109.615 18.3924 109.611Z" fill="#FF9A6C"/>
<path d="M18.0527 105.795C18.1041 105.773 18.153 105.745 18.1983 105.712C18.2927 105.649 18.4343 105.567 18.5917 105.437C19.0716 105.063 19.5107 104.64 19.9016 104.174C20.4672 103.477 20.9926 102.748 21.4751 101.991C22.0569 101.065 22.7148 100.188 23.442 99.371C23.8338 98.9617 24.2691 98.5963 24.7402 98.2814C25.1823 97.9948 25.6579 97.7636 26.1563 97.593C27.0005 97.2955 27.8938 97.162 28.788 97.1996C29.3911 97.2196 29.9889 97.3188 30.5661 97.4946C30.7707 97.5536 30.9241 97.6166 31.0303 97.652L31.1955 97.707L31.0382 97.6323C30.8882 97.5646 30.7346 97.5055 30.5779 97.4553C30.0006 97.258 29.3977 97.1454 28.788 97.1209C27.8819 97.0786 26.9762 97.2122 26.1209 97.5143C25.6139 97.6872 25.1303 97.9224 24.6812 98.2145C24.2007 98.531 23.7573 98.9004 23.3594 99.316C22.6289 100.137 21.9708 101.021 21.3925 101.956C20.9055 102.712 20.3803 103.443 19.819 104.147C19.4496 104.6 19.0387 105.017 18.5917 105.394C18.4264 105.527 18.2848 105.618 18.1983 105.689L18.0527 105.795Z" fill="white"/>
<path d="M18.7047 106.5C18.625 107.169 18.7227 107.848 18.9879 108.467C19.3223 109.065 20.1248 109.455 20.707 109.097C21.183 108.809 21.3088 108.184 21.3757 107.633C21.5685 106.04 21.6275 104.431 21.832 102.838L18.7047 106.5Z" fill="#263238"/>
<path d="M31.0882 97.8105C31.0882 97.8105 30.8679 97.7751 30.4667 97.7751C29.9025 97.7818 29.3451 97.8994 28.8263 98.1213C28.4681 98.2731 28.1267 98.4616 27.8074 98.6838C27.4426 98.9437 27.0944 99.2261 26.765 99.5296C26.0005 100.215 25.3216 100.99 24.743 101.839C24.4401 102.291 24.1726 102.755 23.8776 103.188C23.6057 103.609 23.2849 103.996 22.9217 104.341C22.2903 104.907 21.596 105.399 20.8525 105.808C20.227 106.166 19.6999 106.418 19.338 106.595L18.9171 106.787C18.8685 106.813 18.817 106.833 18.7637 106.846C18.8074 106.813 18.8549 106.786 18.9053 106.764L19.2987 106.544C19.6527 106.355 20.172 106.091 20.7896 105.729C21.5166 105.311 22.1959 104.815 22.8155 104.25C23.1725 103.911 23.4881 103.531 23.7556 103.117C24.0428 102.688 24.3103 102.224 24.6171 101.764C25.2056 100.901 25.8979 100.114 26.6784 99.4195C27.0155 99.118 27.3702 98.8369 27.7406 98.5776C28.0675 98.3532 28.4185 98.1658 28.787 98.019C29.3193 97.8001 29.8913 97.6943 30.4667 97.7083C30.6225 97.7138 30.7776 97.7309 30.9309 97.7594C30.9851 97.7703 31.0379 97.7874 31.0882 97.8105Z" fill="#455A64"/>
<path d="M18.5927 104.946C18.5268 105.005 18.4542 105.057 18.3764 105.099L17.7548 105.493L17.5463 105.619C17.4643 105.671 17.3715 105.705 17.2749 105.717C17.2166 105.727 17.1564 105.716 17.1057 105.686C17.0783 105.667 17.0553 105.642 17.0383 105.614C17.0213 105.585 17.0108 105.553 17.0074 105.52C17.0107 105.405 17.0491 105.294 17.1175 105.202L17.8178 104.022L17.92 104.112C17.6824 104.294 17.4167 104.436 17.1333 104.533C16.8467 104.628 16.5459 104.672 16.2442 104.663C16.1671 104.664 16.0902 104.653 16.0161 104.631C15.9728 104.621 15.9326 104.6 15.8985 104.572C15.8644 104.543 15.8374 104.507 15.8194 104.466C15.8044 104.425 15.7994 104.38 15.8049 104.336C15.8104 104.293 15.8261 104.251 15.8509 104.214C15.8928 104.157 15.9388 104.103 15.9885 104.053C16.3073 103.727 16.5799 103.359 16.7989 102.959C16.9973 102.579 17.1669 102.185 17.3064 101.779C17.2995 101.893 17.277 102.006 17.2395 102.114C17.1517 102.416 17.0345 102.708 16.8894 102.987C16.6741 103.408 16.3999 103.796 16.0751 104.14C15.9846 104.23 15.8941 104.336 15.9335 104.411C15.9728 104.486 16.1105 104.525 16.2403 104.521C16.5262 104.529 16.8112 104.487 17.0821 104.395C17.352 104.308 17.6048 104.175 17.8296 104.002L18.1207 103.778L17.9318 104.092L17.2159 105.272C17.1602 105.344 17.126 105.43 17.1175 105.52C17.1175 105.591 17.1844 105.63 17.2631 105.623C17.4223 105.584 17.573 105.516 17.7076 105.422L18.3488 105.072C18.4236 105.018 18.5057 104.976 18.5927 104.946Z" fill="white"/>
<path d="M26.1534 111.378C26.194 111.187 26.3006 111.017 26.4546 110.896C26.6086 110.776 26.8 110.714 26.9952 110.721C27.138 110.735 27.2752 110.784 27.3945 110.864C27.5139 110.943 27.6119 111.051 27.6797 111.178C27.7446 111.306 27.7832 111.445 27.7933 111.589C27.8035 111.732 27.7849 111.876 27.7387 112.012V112.071C27.6108 112.218 27.4403 112.322 27.2508 112.368C27.0613 112.415 26.8621 112.402 26.6805 112.33C26.4992 112.253 26.3488 112.117 26.2534 111.945C26.1579 111.772 26.1227 111.573 26.1534 111.378Z" fill="#FF9A6C"/>
<path d="M28.1897 112.071C28.1897 111.977 27.5445 112.024 27.041 111.508C26.5375 110.993 26.5572 110.301 26.4667 110.301C26.3762 110.301 26.3565 110.466 26.3683 110.757C26.3948 111.134 26.552 111.49 26.8128 111.764C27.0641 112.028 27.4085 112.183 27.7727 112.197C28.0363 112.201 28.1975 112.114 28.1897 112.071Z" fill="#263238"/>
<path d="M38.4903 124.057L38.4195 123.962C35.1938 120.552 29.2616 119.411 29.2616 119.411C29.2616 119.411 28.8997 121.641 25.5757 121.893C22.2516 122.145 19.8048 118.746 19.8048 118.746L15.3714 119.368C15.3714 119.368 13.137 119.631 11.7445 120.449C8.59745 122.29 6.95312 128.643 6.95312 128.643L41.177 128.781L38.4903 124.057Z" fill="#3C8AFF"/>
<path d="M41.6235 90.5797C41.6235 90.5797 41.7022 90.5797 41.8595 90.5797C42.0969 90.5813 42.3337 90.6024 42.5676 90.6426C43.4813 90.7905 44.3439 91.1637 45.0773 91.7283C46.2658 92.6462 47.0435 93.9965 47.2409 95.4851C47.286 95.936 47.303 96.3893 47.2921 96.8423C47.2921 97.3065 47.2921 97.7903 47.2921 98.286C47.2921 99.2812 47.2921 100.339 47.2921 101.453C47.2921 105.91 47.2921 111.307 47.3157 117.455C47.3157 118.992 47.3157 120.577 47.3157 122.211C47.3157 122.605 47.3157 123.026 47.3157 123.446C47.2846 123.868 47.2081 124.285 47.0875 124.69C46.835 125.515 46.3978 126.273 45.809 126.904C45.2109 127.558 44.4651 128.06 43.6336 128.368L43.3189 128.482L42.9924 128.564C42.775 128.62 42.5542 128.662 42.3316 128.69C41.883 128.731 41.4326 128.747 40.9823 128.737H35.475L35.5654 128.643C35.5654 131.397 35.5654 134.359 35.5654 137.384V137.608L35.4002 137.455C33.9526 136.096 32.4814 134.694 30.9865 133.249C29.4996 131.794 27.9811 130.315 26.5256 128.73L26.6004 128.765H6.60494C6.23909 128.765 5.87325 128.765 5.49954 128.741C4.39235 128.649 3.33611 128.236 2.46001 127.552C1.58391 126.869 0.925936 125.945 0.566578 124.894C0.339873 124.207 0.233412 123.485 0.251876 122.762V120.646C0.251876 115.024 0.251876 109.607 0.251876 104.442C0.251876 101.862 0.251876 99.3481 0.251876 96.9013C0.230151 96.2878 0.269684 95.6737 0.369889 95.0681C0.497396 94.4734 0.714949 93.9017 1.01503 93.3727C1.61306 92.3372 2.51737 91.5126 3.60346 91.0124C4.12966 90.7732 4.68959 90.6167 5.26352 90.5482C5.82332 90.4994 6.38551 90.4836 6.94717 90.501H16.3489L34.8377 90.5325L39.8651 90.5521H41.1711H41.6195H41.1711H39.8651L34.8377 90.5718L16.3489 90.6033H10.2201H6.95898C6.4038 90.5908 5.84835 90.6079 5.29499 90.6544C4.44262 90.7631 3.62717 91.0684 2.91306 91.5463C2.19895 92.0242 1.60573 92.6615 1.18025 93.4081C0.886669 93.9339 0.675712 94.5018 0.554776 95.0917C0.456311 95.6856 0.4194 96.288 0.444631 96.8895C0.444631 99.331 0.444631 101.845 0.444631 104.431C0.444631 109.596 0.444631 115.012 0.444631 120.634V122.75C0.42257 123.451 0.525129 124.15 0.747532 124.815C1.21001 126.168 2.18057 127.288 3.45398 127.939C4.09536 128.27 4.79595 128.47 5.51528 128.529C5.86932 128.552 6.23516 128.556 6.60494 128.552H26.6436L26.6751 128.588C28.1227 130.161 29.6412 131.644 31.1242 133.1C32.6072 134.555 34.0863 135.96 35.534 137.325L35.3688 137.396C35.3688 134.371 35.3688 131.416 35.3688 128.655V128.56H40.9705C41.4128 128.574 41.8556 128.559 42.2962 128.517C42.5126 128.492 42.7269 128.452 42.9374 128.395L43.256 128.316L43.5589 128.206C44.3662 127.91 45.0907 127.424 45.6713 126.79C46.2422 126.178 46.6672 125.446 46.9144 124.646C47.0315 124.253 47.1066 123.848 47.1386 123.439C47.1662 123.045 47.1583 122.62 47.1583 122.215C47.1583 120.584 47.1583 118.999 47.1583 117.459C47.1583 111.311 47.1583 105.914 47.1819 101.457C47.1819 100.343 47.1819 99.2851 47.1819 98.2899V96.8462C47.1957 96.3973 47.1812 95.9479 47.1386 95.5008C46.9886 94.3115 46.4615 93.2015 45.6347 92.3336C44.8078 91.4657 43.7246 90.8855 42.544 90.678C42.3132 90.632 42.079 90.6057 41.8438 90.5993L41.6235 90.5797Z" fill="#263238"/>
<path d="M114.584 168.688L65.5064 168.653C59.6057 168.653 54.8223 164.09 54.8223 158.464L54.8459 41.1983C54.8459 35.569 59.6372 31.0058 65.5458 31.0098L114.628 31.0373C120.528 31.0373 125.312 35.6005 125.312 41.2258L125.288 158.488C125.284 164.133 120.485 168.692 114.584 168.688Z" fill="#263238"/>
<path d="M114.585 35.1993H105.057C104.755 35.1987 104.455 35.2579 104.175 35.3732C103.895 35.4886 103.64 35.658 103.426 35.8717C103.212 36.0853 103.041 36.3392 102.925 36.6187C102.809 36.8981 102.749 37.1978 102.748 37.5005V39.1448C102.748 39.4479 102.687 39.7479 102.571 40.0276C102.454 40.3074 102.284 40.5614 102.069 40.7751C101.854 40.9889 101.599 41.1581 101.319 41.2733C101.038 41.3884 100.738 41.4471 100.435 41.4461H81.8873C81.5845 41.4466 81.2847 41.3875 81.0048 41.2721C80.7249 41.1568 80.4705 40.9874 80.2561 40.7737C80.0417 40.56 79.8714 40.3062 79.7551 40.0267C79.6388 39.7472 79.5786 39.4476 79.5781 39.1448V37.4966C79.5776 37.1935 79.5173 36.8936 79.4008 36.6138C79.2842 36.3341 79.1136 36.0801 78.8988 35.8663C78.6839 35.6526 78.4291 35.4833 78.1487 35.3682C77.8684 35.253 77.5681 35.1943 77.2651 35.1953H65.5896C61.4552 35.1953 58.1154 38.3896 58.1154 42.3312L58.0918 156.804C58.0918 160.738 61.4394 163.94 65.566 163.94L114.549 163.968C118.688 163.968 122.024 160.777 122.043 156.836L122.067 42.3627C122.059 38.3974 118.707 35.2032 114.585 35.1993Z" fill="white"/>
<path d="M88.4379 63.7316C89.1304 63.682 89.7796 63.3763 90.259 62.874C90.7383 62.3718 91.0134 61.709 91.0306 61.0149C91.0478 60.3208 90.8059 59.6452 90.352 59.1198C89.8981 58.5944 89.2648 58.2569 88.5755 58.1731C88.9108 57.6639 89.0773 57.0621 89.0513 56.453C89.0254 55.8438 88.8083 55.2583 88.4309 54.7795C88.0535 54.3007 87.5349 53.9528 86.9487 53.7852C86.3625 53.6177 85.7384 53.6389 85.165 53.846C85.0275 53.2609 84.7407 52.7215 84.3327 52.2803C83.9246 51.8391 83.4092 51.5112 82.8366 51.3286C82.2641 51.1459 81.654 51.1148 81.0658 51.2381C80.4777 51.3615 79.9315 51.6352 79.4806 52.0325C78.7113 51.6223 77.8275 51.4793 76.9681 51.626C76.1086 51.7727 75.3223 52.2007 74.7326 52.8429C74.1321 52.8411 73.5471 53.0338 73.0652 53.3921C72.5833 53.7503 72.2303 54.255 72.059 54.8305C71.8876 55.406 71.9072 56.0216 72.1147 56.5851C72.3222 57.1486 72.7065 57.6298 73.2102 57.9568" fill="#263238"/>
<path d="M88.9104 64.0389C88.1188 61.1642 86.2731 58.6932 83.7412 57.1185C81.2092 55.5437 78.1768 54.9808 75.2484 55.5419L74.6465 55.656C68.2187 57.2767 65.9922 63.6376 67.7939 70.0222L72.2941 93.1922L85.5392 103.42L88.9655 94.8876L87.6162 87.1774C87.6162 87.1774 93.6821 85.0138 92.5688 78.7512C92.0456 75.7183 90.4328 69.5777 88.9104 64.0389Z" fill="#C17560"/>
<path d="M87.6817 87.1484C84.7762 87.7037 81.7723 87.4129 79.0273 86.3105C79.0273 86.3105 81.7377 90.5787 87.8666 88.8282L87.6817 87.1484Z" fill="#7C4236"/>
<path d="M88.3507 70.0334C88.3977 70.2658 88.352 70.5074 88.2234 70.7065C88.0948 70.9057 87.8934 71.0467 87.6623 71.0995C87.5504 71.1302 87.4335 71.1382 87.3185 71.123C87.2035 71.1078 87.0927 71.0698 86.9926 71.0112C86.8926 70.9525 86.8052 70.8744 86.7358 70.7815C86.6664 70.6886 86.6162 70.5827 86.5884 70.4701C86.5413 70.2377 86.587 69.9962 86.7156 69.797C86.8443 69.5978 87.0456 69.4568 87.2768 69.404C87.3886 69.3733 87.5055 69.3653 87.6205 69.3805C87.7355 69.3957 87.8463 69.4337 87.9464 69.4924C88.0465 69.551 88.1338 69.6291 88.2032 69.722C88.2727 69.815 88.3228 69.9208 88.3507 70.0334Z" fill="#263238"/>
<path d="M88.1447 67.354C88.0581 67.4878 87.2871 67.118 86.3273 67.3029C85.3674 67.4878 84.7537 68.0896 84.6279 68.007C84.5649 67.9638 84.6279 67.7317 84.9032 67.4484C85.2644 67.0817 85.7303 66.8358 86.2368 66.7443C86.7356 66.6454 87.253 66.7102 87.712 66.9292C88.0503 67.0983 88.1919 67.2911 88.1447 67.354Z" fill="#263238"/>
<path d="M79.6416 71.8811C79.6874 72.1134 79.6406 72.3545 79.5113 72.5529C79.382 72.7512 79.1803 72.8913 78.9493 72.9432C78.8377 72.9739 78.721 72.9818 78.6063 72.9666C78.4916 72.9514 78.381 72.9133 78.2813 72.8546C78.1815 72.796 78.0945 72.7179 78.0255 72.625C77.9564 72.5321 77.9067 72.4263 77.8793 72.3138C77.8324 72.0819 77.8782 71.8409 78.0069 71.6423C78.1355 71.4438 78.3369 71.3036 78.5677 71.2517C78.6796 71.221 78.7964 71.213 78.9114 71.2282C79.0264 71.2433 79.1373 71.2814 79.2373 71.34C79.3374 71.3987 79.4247 71.4768 79.4942 71.5697C79.5636 71.6626 79.6137 71.7685 79.6416 71.8811Z" fill="#263238"/>
<path d="M78.7388 69.3287C78.6522 69.4664 77.8812 69.0927 76.9214 69.2776C75.9615 69.4625 75.3478 70.0643 75.222 69.9817C75.163 69.9385 75.222 69.7064 75.4973 69.4271C75.8571 69.067 76.3182 68.8255 76.8191 68.7347C77.318 68.6386 77.8345 68.7034 78.2942 68.9196C78.6444 69.073 78.786 69.2658 78.7388 69.3287Z" fill="#263238"/>
<path d="M83.5821 75.7872C83.5821 75.7321 84.1447 75.5158 85.0888 75.205C85.3287 75.1342 85.553 75.0437 85.5608 74.8667C85.5327 74.6093 85.4271 74.3665 85.2579 74.1704L84.1801 72.4435C82.6656 69.977 81.5208 67.9275 81.6192 67.8685C81.7175 67.8095 83.0275 69.7606 84.542 72.2271L85.5923 73.9698C85.8026 74.2372 85.9125 74.5699 85.9031 74.91C85.8837 75.0032 85.8436 75.0909 85.7857 75.1665C85.7279 75.2421 85.6537 75.3036 85.5687 75.3466C85.4434 75.4068 85.3113 75.4517 85.1753 75.4804C84.1997 75.7203 83.5979 75.8383 83.5821 75.7872Z" fill="#263238"/>
<path d="M78.3959 66.005C78.3173 66.2725 77.444 66.1663 76.429 66.3237C75.4141 66.481 74.588 66.8154 74.4622 66.5794C74.3992 66.4653 74.5369 66.2135 74.8555 65.95C75.2809 65.6236 75.7839 65.4135 76.315 65.3402C76.8375 65.2591 77.3722 65.3175 77.8649 65.5094C78.2543 65.6746 78.4471 65.8792 78.3959 66.005Z" fill="#263238"/>
<path d="M87.6139 63.9318C87.4527 64.1875 86.6187 64.1128 85.647 64.2819C84.6754 64.4511 83.9162 64.7658 83.6802 64.573C83.5779 64.4747 83.6605 64.2347 83.9752 63.9594C84.4126 63.6095 84.9354 63.3827 85.4897 63.3024C86.0379 63.1996 86.6038 63.2486 87.1261 63.444C87.5313 63.6211 87.6847 63.8059 87.6139 63.9318Z" fill="#263238"/>
<path d="M69.9711 75.909C69.9199 75.6809 69.8229 75.4656 69.686 75.2761C69.5491 75.0866 69.3751 74.9269 69.1747 74.8066C68.9742 74.6864 68.7514 74.6081 68.5198 74.5764C68.2882 74.5448 68.0526 74.5605 67.8272 74.6227C66.6825 74.957 65.5102 75.8657 66.0491 78.2575C66.9972 82.502 71.0647 80.6728 71.045 80.5509C71.0254 80.4289 70.3842 77.6831 69.9711 75.909Z" fill="#C17560"/>
<path d="M69.7613 79.159C69.7416 79.159 69.6984 79.2298 69.5882 79.3124C69.4297 79.4286 69.232 79.478 69.0375 79.4501C68.5497 79.3833 68.0147 78.7578 67.822 77.9986C67.7288 77.637 67.7194 77.2589 67.7944 76.8932C67.8039 76.7515 67.848 76.6144 67.9227 76.4937C67.9975 76.373 68.1006 76.2724 68.2232 76.2008C68.3029 76.161 68.3939 76.1494 68.4811 76.168C68.5683 76.1865 68.6466 76.2342 68.7031 76.3031C68.7857 76.4093 68.7779 76.4998 68.8054 76.5037C68.8329 76.5077 68.8801 76.4132 68.8054 76.2441C68.7574 76.1444 68.677 76.0639 68.5772 76.0159C68.5087 75.9874 68.4352 75.9727 68.3609 75.9727C68.2866 75.9727 68.2131 75.9874 68.1445 76.0159C67.9779 76.0891 67.8329 76.2039 67.7233 76.3492C67.6138 76.4946 67.5435 76.6656 67.5191 76.846C67.4207 77.2532 67.4207 77.6779 67.5191 78.0851C67.7393 78.9348 68.357 79.6586 69.01 79.6783C69.1316 79.686 69.2534 79.6664 69.3664 79.6207C69.4794 79.5751 69.5808 79.5047 69.663 79.4147C69.777 79.2652 69.777 79.1669 69.7613 79.159Z" fill="#7C4236"/>
<path d="M83.6653 55.8285C83.6061 55.7294 83.5362 55.637 83.4568 55.5532C83.153 55.2448 82.7815 55.0114 82.3718 54.8714C81.9622 54.7314 81.5255 54.6888 81.0965 54.7467C80.5674 54.5897 80.0268 54.474 79.4797 54.4006C79.0643 53.9082 78.53 53.53 77.9274 53.3018C77.3249 53.0737 76.6741 53.0032 76.0367 53.0969C75.3993 53.1907 74.7964 53.4456 74.285 53.8376C73.7737 54.2296 73.371 54.7456 73.1149 55.3368C72.9418 55.3958 72.7726 55.4588 72.6035 55.5256C72.0706 55.27 71.4861 55.1401 70.8951 55.1459C70.3041 55.1517 69.7223 55.2931 69.1945 55.5591C68.6667 55.825 68.2069 56.2086 67.8506 56.6802C67.4944 57.1518 67.2511 57.6989 67.1395 58.2793C66.5886 58.2371 66.0375 58.3585 65.5554 58.6283C65.0733 58.8982 64.6816 59.3044 64.4295 59.796C64.1774 60.2876 64.0761 60.8428 64.1383 61.3917C64.2005 61.9407 64.4235 62.4591 64.7792 62.8818C64.0947 63.4679 63.5991 64.357 63.7328 65.2421C63.8666 66.1272 64.7949 66.7487 65.5778 66.497C65.8177 68.574 66.4943 70.9421 67.0057 73.0467C67.3676 74.5297 69.4407 75.0569 69.7594 76.0482C71.4116 81.1031 72.5602 77.9167 71.1677 67.0634C71.2581 66.9572 71.3526 66.8471 71.443 66.729C71.575 66.475 71.6894 66.2121 71.7853 65.9423C71.9662 65.6237 72.4147 65.6276 72.7805 65.5961C73.4137 65.525 74.0031 65.2384 74.4501 64.7843C74.897 64.3303 75.1742 63.7363 75.2352 63.1021C75.6286 63.4955 76.3799 63.3539 76.8087 62.9526C77.1848 62.5112 77.4961 62.0185 77.7332 61.4893C78.0282 60.9857 78.4806 60.5019 79.0588 60.4743C79.3806 60.5207 79.7066 60.5299 80.0305 60.5019C80.5812 60.3485 80.7307 59.6364 80.7071 59.066C80.6369 58.5837 80.6995 58.0914 80.888 57.642C81.1958 57.4087 81.5438 57.234 81.9148 57.1267C82.1311 57.1267 82.3553 57.1267 82.5678 57.1031C82.6696 57.0975 82.7708 57.0843 82.8707 57.0637C83.0112 57.0829 83.1504 57.1105 83.2877 57.1464C85.349 57.701 87.7407 61.3004 87.7407 61.3004C87.4417 58.7828 85.6794 56.9733 83.6653 55.8285Z" fill="#263238"/>
<path d="M64.2852 63.1915C64.2852 63.1915 64.2852 63.1679 64.3127 63.1207C64.3402 63.0735 64.3638 63.0106 64.415 62.928C64.5699 62.6932 64.7642 62.487 64.9893 62.3182C65.3476 62.0519 65.7643 61.8752 66.2048 61.8029C66.7879 61.7013 67.3882 61.8041 67.9042 62.094L67.7941 62.153C67.8324 61.6676 67.9735 61.1959 68.2082 60.7693C68.4429 60.3427 68.7657 59.9709 69.1552 59.6787C69.5849 59.3379 70.0746 59.0804 70.5989 58.9194C71.1531 58.7591 71.7299 58.6913 72.3061 58.7188C73.3859 58.7843 74.444 59.0511 75.4256 59.5056L75.3076 59.5685C75.5006 58.606 76.0517 57.7526 76.8497 57.1807C77.3665 56.8176 77.9669 56.591 78.5949 56.5223C79.2228 56.4535 79.858 56.5447 80.4412 56.7873C80.5629 56.8372 80.6812 56.895 80.7952 56.9604C80.87 57.0076 80.9093 57.0352 80.9054 57.0391C80.9015 57.043 80.7402 56.9565 80.4215 56.8385C79.9642 56.6727 79.4799 56.594 78.9936 56.6064C78.2519 56.6214 77.5326 56.863 76.9323 57.2987C76.1746 57.8559 75.6538 58.6771 75.4728 59.6L75.4532 59.7062L75.3548 59.6629C74.3925 59.2165 73.3566 58.9498 72.2983 58.8762C71.7421 58.8517 71.1856 58.9167 70.65 59.0689C70.1453 59.2195 69.6739 59.4652 69.2614 59.7927C68.8863 60.0703 68.5742 60.4241 68.3458 60.8309C68.1173 61.2377 67.9775 61.6883 67.9357 62.153V62.271L67.8334 62.212C67.3479 61.929 66.7797 61.822 66.2245 61.9091C65.7996 61.9695 65.3951 62.13 65.0444 62.3772C64.74 62.5958 64.4819 62.8726 64.2852 63.1915Z" fill="#455A64"/>
<path d="M80.8951 57.3457C80.8857 57.4071 80.8712 57.4676 80.8518 57.5267C80.8162 57.6991 80.7939 57.874 80.7849 58.0498C80.7849 58.2819 80.7849 58.5652 80.7574 58.8995C80.7672 59.287 80.6934 59.6721 80.541 60.0285C80.4847 60.1335 80.408 60.2261 80.3155 60.3011C80.223 60.376 80.1164 60.4318 80.0021 60.4652C79.7611 60.5231 79.5143 60.5535 79.2665 60.5557C79.0156 60.5562 78.769 60.6212 78.5505 60.7445C78.334 60.9065 78.1532 61.1114 78.0195 61.3464C77.87 61.5863 77.7362 61.8499 77.5907 62.1331C77.4605 62.4195 77.2881 62.6847 77.0793 62.9199C76.8325 63.1544 76.5309 63.3234 76.2021 63.4116C76.0326 63.4624 75.8556 63.4837 75.6789 63.4745C75.4848 63.4716 75.2998 63.3924 75.1635 63.2542L75.313 63.1992C75.3012 63.739 75.1071 64.2589 74.7623 64.6743C74.3969 65.1012 73.9203 65.4185 73.3855 65.5909C73.1635 65.6615 72.9358 65.7128 72.7049 65.7443C72.4916 65.7374 72.2793 65.7777 72.0834 65.8623C71.9047 65.9623 71.7659 66.1206 71.69 66.3108C71.5914 66.5086 71.477 66.698 71.3478 66.8773C70.8879 67.5993 70.1731 68.1217 69.3455 68.3406C68.5887 68.4493 67.8182 68.2787 67.178 67.8607C66.6276 67.514 66.1944 67.0095 65.9349 66.4131L66.0175 66.4445C65.7855 66.5409 65.5352 66.5848 65.2842 66.5732C65.0333 66.5617 64.7881 66.4949 64.5659 66.3777C64.2326 66.1993 63.9723 65.9098 63.8303 65.5594C63.7405 65.3442 63.6988 65.1119 63.7084 64.8789C63.7087 64.8194 63.7153 64.76 63.728 64.7019C63.728 64.6625 63.728 64.6429 63.728 64.6429C63.7041 64.9483 63.7554 65.2549 63.8775 65.5358C64.0214 65.863 64.2745 66.1299 64.5935 66.2911C64.8031 66.3961 65.033 66.4543 65.2673 66.4617C65.5016 66.4692 65.7347 66.4258 65.9506 66.3344L66.0096 66.3108L66.0332 66.3659C66.291 66.9329 66.7113 67.4107 67.2409 67.7388C67.8512 68.1287 68.5818 68.2852 69.2983 68.1793C70.0798 67.968 70.7545 67.4729 71.1904 66.7907C71.3157 66.6194 71.4262 66.4378 71.5209 66.2479C71.6134 66.0259 71.7766 65.8406 71.985 65.7207C72.0924 65.6624 72.2099 65.625 72.3312 65.6106L72.6656 65.583C72.8848 65.5533 73.1008 65.5032 73.3107 65.4336C73.8149 65.2743 74.2646 64.9773 74.6089 64.576C74.9313 64.1915 75.1131 63.7087 75.1242 63.207V63.0025L75.2658 63.152C75.3881 63.2438 75.532 63.3026 75.6836 63.3225C75.8352 63.3425 75.9894 63.3231 76.1313 63.266C76.4333 63.1862 76.7105 63.032 76.9377 62.8176C77.1482 62.5895 77.3209 62.3292 77.4491 62.0466C77.5986 61.7791 77.7362 61.5155 77.8936 61.2598C78.0399 61.0083 78.2368 60.79 78.4719 60.6186C78.712 60.4841 78.9833 60.4149 79.2586 60.418C79.4968 60.4174 79.7342 60.391 79.9667 60.3393C80.0664 60.312 80.1598 60.2653 80.2415 60.2018C80.3232 60.1384 80.3915 60.0594 80.4427 59.9695C80.5958 59.6296 80.6736 59.2606 80.6708 58.8877C80.6905 58.5573 80.7023 58.2701 80.7259 58.038C80.7422 57.8597 80.7752 57.6832 80.8243 57.5109C80.8411 57.4532 80.8649 57.3977 80.8951 57.3457Z" fill="#455A64"/>
<path d="M80.9056 78.0332C80.7286 79.2133 81.236 80.3423 82.3454 80.7475C82.5613 80.8144 82.7883 80.838 83.0134 80.8171C83.2385 80.7961 83.4572 80.731 83.6571 80.6254C83.8569 80.5198 84.034 80.3758 84.1782 80.2017C84.3223 80.0276 84.4307 79.8267 84.4972 79.6106C84.624 79.1282 84.6334 78.6223 84.5247 78.1355C83.5058 78.0765 81.9323 78.0922 80.9056 78.0332Z" fill="#7C4236"/>
<path d="M84.2931 80.0888C84.2931 80.0888 84.2931 80.1203 84.2498 80.1714C84.2009 80.2465 84.1427 80.3153 84.0767 80.376C83.8349 80.6065 83.5292 80.7586 83.1995 80.8126C82.7028 80.8886 82.1952 80.7855 81.7676 80.5215C81.5122 80.3517 81.2948 80.1309 81.1289 79.8729C80.9631 79.615 80.8524 79.3255 80.8038 79.0227C80.7804 78.8639 80.7725 78.7032 80.7802 78.5428C80.781 78.3748 80.8243 78.2097 80.9061 78.0629C80.9573 77.9839 81.0335 77.9243 81.1225 77.8937C81.2012 77.8686 81.2838 77.8579 81.3664 77.8623H81.7833C82.3223 77.8898 82.8061 77.9409 83.2113 77.9842C84.0177 78.0708 84.5212 78.0944 84.5212 78.1258C84.0822 78.1773 83.6386 78.1773 83.1995 78.1258C82.8061 78.1022 82.3105 78.0629 81.7755 78.0472H81.3821C81.2444 78.0472 81.1461 78.0668 81.0871 78.1612C81.0291 78.2842 80.9996 78.4187 81.0005 78.5546C80.9824 78.9066 81.0542 79.2573 81.209 79.5739C81.3638 79.8904 81.5967 80.1624 81.8856 80.3642C82.2738 80.6107 82.7345 80.7176 83.1916 80.6671C83.5028 80.6323 83.7976 80.5095 84.0413 80.313C84.2065 80.1793 84.2931 80.0731 84.2931 80.0888Z" fill="#263238"/>
<path d="M108.055 66.5128C108.055 66.5128 113.039 65.8913 120.529 59.9316C128.019 53.9719 132.078 45.5025 132.912 45.6283C133.746 45.7542 137.582 44.3892 143.14 60.2384C148.699 76.0876 145.607 79.3566 144.222 79.1953C142.837 79.034 133.648 75.5172 127.7 75.6352C121.752 75.7533 113.881 78.1057 113.881 78.1057L108.055 66.5128Z" fill="#3C8AFF"/>
<path d="M99.0912 78.3449L101.754 77.7784L100.311 74.2734L98.0605 75.3985L99.0912 78.3449Z" fill="#455A64"/>
<path d="M99.4031 74.1788L100.387 77.137L101 78.624C101.4 79.612 102.165 80.4082 103.136 80.8476C104.107 81.287 105.21 81.3359 106.216 80.9842L117.023 77.9434L112.381 64.2617L101.641 68.7895C100.634 69.2124 99.8341 70.0154 99.4151 71.0243C98.996 72.0332 98.9917 73.1667 99.4031 74.1788Z" fill="#263238"/>
<path d="M103.275 78.726L106.894 85.142L108.547 84.611L119.848 93.045L122.653 86.9398C122.653 86.9398 116.076 84.4261 114.786 82.172C113.495 79.918 114.856 79.3397 114.856 79.3397L111.674 76.0117L103.275 78.726Z" fill="#263238"/>
<path d="M142.546 60.4738C145.485 69.0534 146.342 76.5315 144.458 77.1767C142.574 77.8218 138.66 71.394 135.717 62.8144C132.775 54.2349 131.921 46.7567 133.805 46.1077C135.69 45.4586 139.604 51.8825 142.546 60.4738Z" fill="#263238"/>
<path d="M135.137 57.9172C135.137 57.9172 139.629 55.6867 141.411 61.6385C143.193 67.5904 138.638 68.1135 138.638 68.1135C136.998 64.8959 135.819 61.4635 135.137 57.9172Z" fill="#FAFAFA"/>
<path d="M131.272 50.6602C131.258 51.0324 131.279 51.4051 131.335 51.7734C131.402 52.4854 131.496 53.52 131.65 54.7946C131.773 55.4266 131.904 56.1137 132.043 56.8559C132.118 57.2256 132.192 57.6112 132.267 58.0045C132.306 58.2012 132.346 58.4018 132.385 58.6064C132.432 58.807 132.495 58.9998 132.55 59.2122L133.278 61.7731L133.467 62.4418C133.53 62.67 133.628 62.8864 133.707 63.1106C133.872 63.559 134.041 64.0114 134.214 64.4717L134.726 65.8328C134.812 66.053 134.883 66.2812 134.985 66.4936L135.28 67.127L136.417 69.5384C136.512 69.7272 136.594 69.9318 136.693 70.1009L136.999 70.632L137.586 71.6508L138.64 73.4643C139.36 74.5264 139.966 75.3643 140.383 75.9465C140.583 76.2608 140.812 76.5557 141.067 76.8277C140.906 76.4921 140.716 76.171 140.501 75.8678L138.856 73.3227L137.849 71.4895L137.287 70.4786C137.188 70.3015 137.09 70.1245 136.988 69.9475C136.885 69.7705 136.815 69.5738 136.724 69.381C136.37 68.6139 135.996 67.8075 135.615 66.9775L135.32 66.3481C135.221 66.1357 135.151 65.9114 135.064 65.6911L134.561 64.3419C134.391 63.8855 134.222 63.4331 134.053 62.9886C133.974 62.7683 133.876 62.552 133.817 62.3278C133.758 62.1035 133.687 61.8793 133.62 61.659L132.881 59.1178C132.826 58.9172 132.759 58.7244 132.712 58.5199C132.664 58.3153 132.625 58.1265 132.586 57.9259C132.503 57.5325 132.421 57.1391 132.346 56.7851C132.188 56.0534 132.039 55.3689 131.905 54.7434C131.728 53.4925 131.579 52.4736 131.476 51.7498C131.436 51.3819 131.368 51.0176 131.272 50.6602Z" fill="#263238"/>
<path d="M117.021 77.9238C116.866 77.9952 116.702 78.0468 116.533 78.0772L115.196 78.4313C114.063 78.7224 112.501 79.1354 110.778 79.6114C109.055 80.0874 107.501 80.5201 106.365 80.7916C105.794 80.9332 105.334 81.0394 105.011 81.1063C104.846 81.1482 104.678 81.1759 104.508 81.1889C104.664 81.1183 104.828 81.0642 104.996 81.0276L106.325 80.6342L110.727 79.3872C112.446 78.9112 114.02 78.5178 115.16 78.2621C115.731 78.1323 116.195 78.034 116.518 77.975C116.684 77.9423 116.852 77.9251 117.021 77.9238Z" fill="#455A64"/>
<path d="M110.654 75.6895C110.32 75.8775 109.966 76.0291 109.6 76.1418C108.935 76.3897 108.026 76.7044 106.976 77.0151C105.926 77.3259 104.989 77.5659 104.301 77.7232C103.932 77.8286 103.554 77.8958 103.172 77.9238C103.527 77.7809 103.892 77.6664 104.265 77.5816C104.946 77.3889 105.882 77.1253 106.917 76.8185C107.951 76.5116 108.884 76.2166 109.552 76.0042C109.911 75.8701 110.279 75.7648 110.654 75.6895Z" fill="#455A64"/>
<path d="M108.953 72.5664C107.866 73.0033 106.753 73.3751 105.621 73.6797C104.509 74.0522 103.375 74.3596 102.227 74.6002C103.316 74.1625 104.429 73.7895 105.562 73.483C106.674 73.1125 107.806 72.8065 108.953 72.5664Z" fill="#455A64"/>
<path d="M107.275 69.5566C106.358 70.0688 105.41 70.5208 104.434 70.9099C103.488 71.3656 102.513 71.7598 101.516 72.09C102.429 71.5741 103.377 71.1207 104.352 70.7328C105.299 70.2755 106.275 69.8825 107.275 69.5566Z" fill="#455A64"/>
<path d="M95.1192 103.411L88.5577 92.3369L71.5912 91.6367V93.1788C71.5912 93.1788 66.9336 97.8678 65.4309 104.252C64.2941 109.087 69.0776 127.536 70.4229 133.933C72.0751 141.8 74.3567 151.745 74.3567 151.745C74.0145 153.507 71.7525 154.935 71.9099 157.288L109.619 156.875L107.68 149.231L95.1192 103.411Z" fill="#3C8AFF"/>
<path d="M108.201 152.163C108.201 152.222 100.696 152.265 91.4396 152.265C82.1834 152.265 74.6816 152.222 74.6816 152.163C74.6816 152.104 82.1834 152.061 91.4396 152.061C100.696 152.061 108.201 152.108 108.201 152.163Z" fill="white"/>
<path d="M105.594 142.69C105.594 142.749 98.1589 142.796 88.9893 142.796C79.8196 142.796 72.3809 142.749 72.3809 142.69C72.3809 142.631 79.8157 142.588 88.9893 142.588C98.1629 142.588 105.594 142.647 105.594 142.69Z" fill="white"/>
<path d="M103.032 132.419C103.032 132.474 95.7547 132.521 86.7778 132.521C77.8009 132.521 70.5234 132.462 70.5234 132.419C70.5234 132.375 77.797 132.316 86.7739 132.316C95.7508 132.316 103.032 132.36 103.032 132.419Z" fill="white"/>
<path d="M101.246 122.069C101.246 122.124 93.7483 122.171 84.5039 122.171C75.2595 122.171 67.7656 122.124 67.7656 122.069C67.7656 122.014 75.2595 121.967 84.5039 121.967C93.7483 121.967 101.246 122.01 101.246 122.069Z" fill="white"/>
<path d="M97.2725 109.229C97.2725 109.284 90.1917 109.332 81.4312 109.332C72.6706 109.332 65.5898 109.284 65.5898 109.229C65.5898 109.174 72.6706 109.123 81.4312 109.123C90.1917 109.123 97.2725 109.17 97.2725 109.229Z" fill="white"/>
<path d="M91.8825 97.4519C91.8825 97.507 86.6467 97.5542 80.1834 97.5542C73.7202 97.5542 68.4844 97.507 68.4844 97.4519C68.4844 97.3968 73.7202 97.3496 80.1834 97.3496C86.6467 97.3496 91.8825 97.4126 91.8825 97.4519Z" fill="white"/>
<path opacity="0.3" d="M70.2539 110.24C71.9049 113.012 73.9886 115.502 76.426 117.616C80.2142 120.763 91.7402 126.404 91.7402 126.404L92.704 124.414L101.303 126.424L99.7297 121.129L70.2539 110.24Z" fill="black"/>
<path d="M110.708 96.2709L107.707 112.573L81.9958 100.35L77.8535 114.85C87.9594 119.791 108.415 128.017 111.047 127.781C114.792 127.442 117.38 125.204 118.545 119.72C119.268 116.325 118.938 93.5605 118.938 93.5605L110.708 96.2709Z" fill="#C17560"/>
<path d="M83.6763 98.1592C83.6763 98.1592 74.0621 92.2191 69.8687 99.7051C66.8712 107.006 70.1873 112.836 77.5907 116.455C81.1587 118.202 86.0208 120.357 90.9302 122.407L98.0857 106.526L83.6763 98.1592Z" fill="#3C8AFF"/>
<path d="M83.6775 98.1588C83.6775 98.1588 83.7719 98.2021 83.945 98.3005L84.7081 98.7292L87.6112 100.389L98.1302 106.455L98.1931 106.495L98.1616 106.561L91.0258 122.446L90.9864 122.536L90.8959 122.497C88.3783 121.451 85.782 120.334 83.1385 119.153C81.9715 118.629 80.8189 118.104 79.6807 117.58C78.5478 117.049 77.4306 116.518 76.3567 115.932C75.8322 115.63 75.3142 115.314 74.8028 114.984C74.315 114.63 73.8115 114.307 73.367 113.914C72.4586 113.184 71.6411 112.348 70.932 111.424L70.4442 110.723C70.2863 110.491 70.1431 110.249 70.0154 110C69.7471 109.516 69.5131 109.014 69.3152 108.497C69.2247 108.241 69.1579 107.974 69.0792 107.71L68.9651 107.317C68.9336 107.183 68.9179 107.053 68.8904 106.923C68.8471 106.664 68.7999 106.4 68.7566 106.137C68.7133 105.873 68.7251 105.617 68.7094 105.35C68.6811 104.84 68.6903 104.328 68.7369 103.82C68.7763 103.32 68.8825 102.832 68.9533 102.352C69.0241 101.872 69.1933 101.416 69.3231 100.964C69.4529 100.511 69.6417 100.086 69.7951 99.6615C70.3539 98.6456 71.1303 97.7658 72.0689 97.0849C72.9275 96.5036 73.9041 96.1194 74.9287 95.9598C76.5751 95.76 78.2453 95.9225 79.8223 96.4358C80.8218 96.746 81.7931 97.1408 82.7255 97.616C83.0441 97.7812 83.2801 97.9149 83.4414 98.0094C83.6027 98.1038 83.6735 98.1588 83.6735 98.1588L83.4296 98.029C83.2683 97.9425 83.0362 97.8166 82.7019 97.6592C81.7656 97.2024 80.7933 96.8234 79.7948 96.5263C78.2305 96.0293 76.5764 95.8803 74.9484 96.0897C73.9446 96.2493 72.989 96.631 72.1515 97.2069C71.234 97.8788 70.4764 98.7453 69.9328 99.7441C69.7833 100.169 69.626 100.598 69.4686 101.038C69.3113 101.479 69.2287 101.943 69.1107 102.407C68.9926 102.872 68.9415 103.363 68.9022 103.859C68.8588 104.36 68.8509 104.863 68.8786 105.366C68.8786 105.617 68.9061 105.877 68.9297 106.152C68.9533 106.428 69.0162 106.664 69.0634 106.919C69.0871 107.049 69.1028 107.179 69.1343 107.313L69.2483 107.706C69.327 107.962 69.39 108.221 69.4844 108.473C69.6783 108.981 69.9084 109.474 70.1728 109.948C70.3002 110.193 70.4407 110.431 70.5937 110.66L71.0775 111.345C71.7786 112.257 72.587 113.081 73.485 113.8C73.9402 114.176 74.4142 114.529 74.9051 114.858C75.4034 115.186 75.9174 115.498 76.4472 115.794C77.5093 116.372 78.6265 116.907 79.7594 117.434C80.8923 117.961 82.0489 118.493 83.2172 119.008C85.8528 120.188 88.4491 121.305 90.9628 122.356L90.833 122.407C93.504 116.506 95.9469 111.07 98.0043 106.538L98.0397 106.64L87.5562 100.511L84.6884 98.7686L83.941 98.3201C83.764 98.2375 83.6775 98.1588 83.6775 98.1588Z" fill="#263238"/>
<path d="M110.325 99.0641L110.903 92.9903C110.903 92.9903 108.582 88.317 108.63 87.8489C108.677 87.3808 108.811 84.8041 108.811 84.8041L114.613 79.5801C114.613 79.5801 116.493 79.5801 116.54 81.4408C116.54 81.4408 118.346 81.0474 118.374 83.2267C118.374 83.2267 120.34 83.2975 120.38 84.8828C120.38 84.8828 121.56 84.7255 121.521 86.3816C121.489 87.5617 120.97 92.1288 120.97 92.1288L118.543 96.3498L118.342 100.571L110.325 99.0641Z" fill="#C17560"/>
<path d="M110.931 118.53C110.864 118.554 110.435 117.078 109.558 115.426C108.68 113.774 107.662 112.617 107.713 112.574C107.973 112.788 108.204 113.034 108.401 113.306C108.909 113.937 109.356 114.614 109.739 115.328C110.117 116.043 110.433 116.789 110.683 117.558C110.803 117.871 110.886 118.198 110.931 118.53Z" fill="#7C4236"/>
<path d="M77.8559 96.1406C77.7874 96.3328 77.7018 96.5184 77.6002 96.6953C77.4232 97.0454 77.1596 97.545 76.8134 98.1586C76.1486 99.3899 75.2006 101.074 74.1424 102.922L71.4163 107.643L70.5902 109.075C70.4945 109.255 70.3853 109.427 70.2637 109.59C70.3321 109.398 70.4177 109.212 70.5194 109.036C70.6964 108.689 70.9599 108.186 71.3061 107.572C71.9709 106.341 72.915 104.657 73.9772 102.808C75.0393 100.96 75.9873 99.3191 76.6993 98.0878C77.0376 97.5096 77.3169 97.0257 77.5294 96.6559C77.6232 96.4751 77.7324 96.3027 77.8559 96.1406Z" fill="white"/>
<path d="M85.6961 99.5762C85.6828 99.6376 85.6616 99.6971 85.6331 99.7532L85.4168 100.245C85.224 100.674 84.9408 101.283 84.575 102.035C83.8511 103.537 82.8166 105.595 81.605 107.833C80.3933 110.072 79.2447 112.066 78.3793 113.494C77.9465 114.206 77.5925 114.78 77.3407 115.174L77.0496 115.626C77.0163 115.679 76.9781 115.729 76.9355 115.775C76.9355 115.775 76.9552 115.713 77.0142 115.602L77.2739 115.134L78.2534 113.419C79.0834 111.975 80.2203 109.969 81.424 107.735C82.6277 105.5 83.6899 103.455 84.4451 101.968L85.346 100.213L85.5938 99.7375C85.6204 99.6793 85.6548 99.625 85.6961 99.5762Z" fill="white"/>
<path d="M94.47 104.484C94.4054 104.707 94.3252 104.926 94.23 105.137C94.0687 105.531 93.817 106.144 93.4944 106.872C92.8453 108.324 91.8855 110.306 90.7014 112.431C89.5174 114.555 88.3412 116.412 87.4403 117.729C86.9919 118.386 86.6182 118.91 86.3507 119.268C86.2229 119.46 86.0794 119.641 85.9219 119.81C86.0278 119.605 86.1501 119.409 86.2877 119.224L87.3184 117.651C88.1838 116.317 89.3403 114.453 90.5244 112.336C91.7085 110.22 92.6801 108.249 93.3607 106.829L94.1474 105.122C94.2356 104.9 94.3436 104.687 94.47 104.484Z" fill="white"/>
<path d="M71.6094 164.569L72.4276 157.288L108.402 156.891L109.319 164.569H71.6094Z" fill="#263238"/>
<path d="M116.159 163.932C116.159 163.987 105.078 164.035 91.4076 164.035C77.7377 164.035 66.6562 163.987 66.6562 163.932C66.6562 163.877 77.7377 163.83 91.4076 163.83C105.078 163.83 116.159 163.869 116.159 163.932Z" fill="#455A64"/>
<path d="M96.109 36.875H82.7302C82.287 36.875 81.9277 37.2343 81.9277 37.6775V38.2558C81.9277 38.699 82.287 39.0583 82.7302 39.0583H96.109C96.5522 39.0583 96.9115 38.699 96.9115 38.2558V37.6775C96.9115 37.2343 96.5522 36.875 96.109 36.875Z" fill="#455A64"/>
<path d="M100.543 37.9686C100.543 38.1849 100.479 38.3963 100.358 38.5762C100.238 38.756 100.067 38.8962 99.8676 38.9789C99.6677 39.0617 99.4478 39.0834 99.2357 39.0412C99.0236 38.999 98.8287 38.8948 98.6758 38.7419C98.5228 38.5889 98.4187 38.3941 98.3765 38.1819C98.3343 37.9698 98.3559 37.7499 98.4387 37.5501C98.5215 37.3503 98.6617 37.1795 98.8415 37.0593C99.0213 36.9391 99.2328 36.875 99.4491 36.875C99.5927 36.875 99.7349 36.9033 99.8676 36.9582C100 37.0132 100.121 37.0938 100.222 37.1953C100.324 37.2969 100.404 37.4174 100.459 37.5501C100.514 37.6828 100.543 37.825 100.543 37.9686Z" fill="#455A64"/>
<path d="M55.2143 53.8223H56.0994V72.075H55.2143C54.5675 72.075 53.9471 71.8181 53.4897 71.3607C53.0323 70.9033 52.7754 70.2829 52.7754 69.6361V56.2612C52.7754 55.9409 52.8385 55.6238 52.961 55.3279C53.0836 55.032 53.2633 54.7631 53.4897 54.5366C53.7162 54.3101 53.9851 54.1305 54.281 54.0079C54.5769 53.8854 54.894 53.8223 55.2143 53.8223Z" fill="#263238"/>
<path d="M54.9956 80.3438H55.8807V98.5965H54.9956C54.3487 98.5965 53.7284 98.3395 53.271 97.8822C52.8136 97.4248 52.5566 96.8044 52.5566 96.1576V82.7827C52.5566 82.1359 52.8136 81.5155 53.271 81.0581C53.7284 80.6007 54.3487 80.3437 54.9956 80.3438Z" fill="#263238"/>
<path d="M55.0593 107.397C55.0003 107.397 54.957 94.1477 54.957 77.8067C54.957 61.4658 55.0003 48.2129 55.0593 48.2129C55.1183 48.2129 55.1616 61.4619 55.1616 77.8067C55.1616 94.1516 55.1144 107.397 55.0593 107.397Z" fill="#455A64"/>
</svg>
