<svg width="15" height="18" viewBox="0 0 15 18" fill="none" xmlns="http://www.w3.org/2000/svg">
<path d="M8.47135 4.78125V0H1.17969C0.694792 0 0.304688 0.376172 0.304688 0.84375V17.1562C0.304688 17.6238 0.694792 18 1.17969 18H13.4297C13.9146 18 14.3047 17.6238 14.3047 17.1562V5.625H9.34635C8.8651 5.625 8.47135 5.24531 8.47135 4.78125ZM10.9698 11.0911L11.3822 11.4887C11.6101 11.7084 11.6101 12.0646 11.3822 12.2843L10.2921 13.3355L11.388 14.3923C11.6159 14.612 11.6159 14.9681 11.388 15.1879L10.9757 15.5855C10.7478 15.8052 10.3785 15.8052 10.1506 15.5855L9.05469 14.5283L7.95875 15.5851C7.73089 15.8048 7.36156 15.8048 7.1337 15.5851L6.72135 15.1875C6.49349 14.9678 6.49349 14.6116 6.72135 14.3919L7.81729 13.3351L5.65458 11.25H4.97135V12.9375C4.97135 13.2483 4.71031 13.5 4.38802 13.5H3.80469C3.4824 13.5 3.22135 13.2483 3.22135 12.9375V7.3125C3.22135 7.00172 3.4824 6.75 3.80469 6.75H6.72135C8.01016 6.75 9.05469 7.75723 9.05469 9C9.05469 9.85148 8.55812 10.5838 7.83479 10.9659L9.05469 12.1423L10.1448 11.0911C10.3727 10.8714 10.742 10.8714 10.9698 11.0911ZM6.72135 9.5625H4.97135V8.4375H6.72135C7.04292 8.4375 7.30469 8.68992 7.30469 9C7.30469 9.31008 7.04292 9.5625 6.72135 9.5625ZM14.3047 4.28555V4.5H9.63802V0H9.86042C10.0938 0 10.3161 0.0878906 10.4802 0.246094L14.0495 3.69141C14.2135 3.84961 14.3047 4.06406 14.3047 4.28555Z" fill="white"/>
</svg>
