<svg width="23" height="23" viewBox="0 0 23 23" fill="none" xmlns="http://www.w3.org/2000/svg">
<circle cx="11.5" cy="11.5" r="11.5" fill="#218130"/>
<path d="M11.5002 6.20749C12.2021 5.50563 13.154 5.11133 14.1466 5.11133C15.1392 5.11133 16.0911 5.50563 16.7929 6.20749C17.4948 6.90935 17.8891 7.86127 17.8891 8.85385C17.8891 9.84643 17.4948 10.7984 16.7929 11.5002L11.5002 16.7929C11.1527 17.1405 10.7401 17.4161 10.2861 17.6042C9.83199 17.7923 9.34533 17.8891 8.85385 17.8891C7.86127 17.8891 6.90935 17.4948 6.20749 16.7929C5.50563 16.0911 5.11133 15.1392 5.11133 14.1466C5.11133 13.154 5.50563 12.2021 6.20749 11.5002L11.5002 6.20749ZM13.7691 13.0121L16.0359 10.7453C16.5337 10.2434 16.8123 9.56464 16.8109 8.85772C16.8094 8.1508 16.528 7.47324 16.0282 6.9733C15.5284 6.47336 14.8509 6.19175 14.144 6.19011C13.4371 6.18846 12.7583 6.4669 12.2562 6.96451L9.98831 9.23129L13.7691 13.0121ZM11.3441 14.5518C11.3937 14.5021 11.4331 14.4431 11.4599 14.3782C11.4868 14.3133 11.5006 14.2437 11.5005 14.1735C11.5005 14.1032 11.4866 14.0337 11.4597 13.9688C11.4327 13.9039 11.3933 13.845 11.3436 13.7953C11.2939 13.7457 11.2349 13.7063 11.17 13.6795C11.105 13.6527 11.0355 13.6389 10.9652 13.6389C10.895 13.639 10.8254 13.6529 10.7605 13.6798C10.6957 13.7067 10.6367 13.7462 10.5871 13.7959L8.98323 15.3997C8.93359 15.4494 8.89423 15.5084 8.8674 15.5733C8.84056 15.6383 8.82677 15.7078 8.82682 15.7781C8.82692 15.92 8.88338 16.056 8.98376 16.1562C9.08415 16.2565 9.22025 16.3127 9.36212 16.3126C9.50399 16.3125 9.64001 16.2561 9.74025 16.1557L11.3441 14.5518Z" fill="white"/>
</svg>
