<svg width="15" height="14" viewBox="0 0 15 14" fill="none" xmlns="http://www.w3.org/2000/svg">
<path d="M7.5 1.20101C8.26899 0.432016 9.31197 0 10.3995 0C11.487 0 12.53 0.432016 13.299 1.20101C14.068 1.97 14.5 3.01298 14.5 4.1005C14.5 5.18803 14.068 6.23101 13.299 7L7.5 12.799C7.11923 13.1798 6.6672 13.4818 6.1697 13.6879C5.6722 13.8939 5.13899 14 4.6005 14C3.51298 14 2.47 13.568 1.70101 12.799C0.932016 12.03 0.5 10.987 0.5 9.8995C0.5 8.81197 0.932016 7.76899 1.70101 7L7.5 1.20101ZM9.98595 8.65652L12.4696 6.17291C13.0149 5.62291 13.3202 4.87928 13.3186 4.10474C13.317 3.33021 13.0087 2.58783 12.4611 2.04007C11.9135 1.49231 11.1712 1.18377 10.3967 1.18197C9.62213 1.18016 8.87841 1.48524 8.32826 2.03044L5.84348 4.51405L9.98595 8.65652ZM7.32896 10.3435C7.38334 10.289 7.42647 10.2244 7.45587 10.1533C7.48527 10.0821 7.50038 10.0059 7.50033 9.92896C7.50027 9.85199 7.48506 9.77579 7.45555 9.7047C7.42605 9.63362 7.38283 9.56904 7.32837 9.51465C7.27391 9.46027 7.20927 9.41714 7.13814 9.38774C7.06702 9.35834 6.99079 9.34323 6.91383 9.34329C6.83686 9.34334 6.76066 9.35855 6.68958 9.38806C6.61849 9.41756 6.55391 9.46078 6.49953 9.51524L4.74226 11.2725C4.68787 11.327 4.64475 11.3916 4.61535 11.4627C4.58594 11.5339 4.57084 11.6101 4.57089 11.6871C4.571 11.8425 4.63285 11.9915 4.74284 12.1014C4.85283 12.2112 5.00195 12.2728 5.15739 12.2727C5.31283 12.2726 5.46186 12.2108 5.57169 12.1008L7.32896 10.3435Z" fill="#218130"/>
</svg>
