<svg width="23" height="23" viewBox="0 0 23 23" fill="none" xmlns="http://www.w3.org/2000/svg">
<path d="M18.5601 6.38086C18.6441 6.46588 18.7103 6.56683 18.7547 6.67779C18.7991 6.78874 18.8209 6.90745 18.8188 7.02695C18.8167 7.14645 18.7907 7.26432 18.7424 7.37363C18.694 7.48294 18.6244 7.58149 18.5374 7.66348L15.7678 10.3422C15.6828 10.4262 15.5819 10.4924 15.4709 10.5368C15.36 10.5812 15.2412 10.603 15.1218 10.6009C15.0023 10.5988 14.8844 10.5728 14.7751 10.5245C14.6658 10.4762 14.5672 10.4065 14.4852 10.3195C14.4012 10.2345 14.3351 10.1336 14.2906 10.0226C14.2462 9.91165 14.2244 9.79294 14.2265 9.67344C14.2287 9.55394 14.2546 9.43608 14.303 9.32676C14.3513 9.21745 14.421 9.1189 14.5079 9.03691L17.2775 6.35816C17.4507 6.19132 17.683 6.10001 17.9235 6.10427C18.1639 6.10852 18.3929 6.208 18.5601 6.38086ZM21.2275 10.3309L10.3309 21.2275C9.19597 22.3624 7.6567 23 6.05169 23C4.44668 23 2.90741 22.3624 1.7725 21.2275C0.637587 20.0926 0 18.5533 0 16.9483C0 15.3433 0.637587 13.804 1.7725 12.6691L12.6691 1.7725C13.804 0.637587 15.3433 0 16.9483 0C18.5533 0 20.0926 0.637587 21.2275 1.7725C22.3624 2.90741 23 4.44668 23 6.05169C23 7.6567 22.3624 9.19597 21.2275 10.3309ZM19.9335 3.06647C19.5438 2.67043 19.0791 2.3559 18.5666 2.14121C18.0541 1.92652 17.504 1.81595 16.9483 1.81595C16.3926 1.81595 15.8425 1.92652 15.33 2.14121C14.8175 2.3559 14.3528 2.67043 13.9631 3.06647L9.15042 7.86779L15.1322 13.8496L19.9335 9.03691C20.3268 8.6456 20.6389 8.18043 20.8519 7.66813C21.0648 7.15583 21.1745 6.60649 21.1745 6.05169C21.1745 5.49689 21.0648 4.94756 20.8519 4.43525C20.6389 3.92295 20.3268 3.45778 19.9335 3.06647Z" fill="#3C8AFF"/>
</svg>
