<svg width="16" height="17" viewBox="0 0 16 17" fill="none" xmlns="http://www.w3.org/2000/svg">
<path d="M8 1.87258C8.87885 0.993733 10.0708 0.5 11.3137 0.5C12.5566 0.5 13.7486 0.993733 14.6274 1.87258C15.5063 2.75143 16 3.94341 16 5.18629C16 6.42917 15.5063 7.62115 14.6274 8.5L8 15.1274C7.56484 15.5626 7.04822 15.9078 6.47966 16.1433C5.91109 16.3788 5.3017 16.5 4.68629 16.5C3.44341 16.5 2.25143 16.0063 1.37258 15.1274C0.493733 14.2486 0 13.0566 0 11.8137C0 10.5708 0.493733 9.37885 1.37258 8.5L8 1.87258ZM10.8411 10.3932L13.6795 7.55476C14.3028 6.92619 14.6517 6.07632 14.6499 5.19114C14.648 4.30595 14.2957 3.45752 13.6698 2.83151C13.044 2.2055 12.1957 1.85288 11.3105 1.85082C10.4253 1.84876 9.57533 2.19742 8.94658 2.8205L6.10683 5.65891L10.8411 10.3932ZM7.80452 12.3211C7.86668 12.2589 7.91596 12.185 7.94957 12.1037C7.98317 12.0224 8.00043 11.9353 8.00037 11.8474C8.00031 11.7594 7.98292 11.6723 7.9492 11.5911C7.91549 11.5098 7.8661 11.436 7.80385 11.3739C7.74161 11.3117 7.66774 11.2624 7.58645 11.2288C7.50516 11.1952 7.41805 11.178 7.33009 11.178C7.24213 11.1781 7.15504 11.1955 7.0738 11.2292C6.99256 11.2629 6.91876 11.3123 6.8566 11.3746L4.84829 13.3829C4.78614 13.4451 4.73686 13.519 4.70325 13.6003C4.66965 13.6816 4.65239 13.7687 4.65245 13.8566C4.65257 14.0343 4.72326 14.2046 4.84896 14.3301C4.97467 14.4556 5.14508 14.5261 5.32273 14.526C5.50037 14.5258 5.67069 14.4552 5.79622 14.3294L7.80452 12.3211Z" fill="#7C5CD6"/>
</svg>
