<svg width="18" height="20" viewBox="0 0 18 20" fill="none" xmlns="http://www.w3.org/2000/svg">
<path d="M1.44446 10.644L9.15816 2.9123C9.94514 2.12348 11.0125 1.68033 12.1255 1.68033C13.2384 1.68033 14.3058 2.12348 15.0928 2.9123C15.8798 3.70111 16.3219 4.77098 16.3219 5.88654C16.3219 7.00209 15.8798 8.07196 15.0928 8.86077L6.19083 17.7818C5.87429 18.0882 5.45034 18.2578 5.01028 18.254C4.57022 18.2501 4.14927 18.0732 3.83809 17.7613C3.52691 17.4494 3.3504 17.0275 3.34658 16.5864C3.34275 16.1453 3.51192 15.7204 3.81765 15.4031L12.7179 6.48037C12.8708 6.32173 12.9554 6.10926 12.9535 5.88872C12.9516 5.66818 12.8633 5.45721 12.7077 5.30126C12.5521 5.14531 12.3416 5.05685 12.1216 5.05493C11.9016 5.05301 11.6896 5.1378 11.5313 5.29101L2.63105 14.2154C2.31046 14.5258 2.05473 14.897 1.87881 15.3075C1.70289 15.718 1.61029 16.1595 1.60642 16.6062C1.60255 17.053 1.68748 17.496 1.85626 17.9095C2.02503 18.323 2.27428 18.6986 2.58945 19.0146C2.90462 19.3305 3.2794 19.5803 3.69193 19.7495C4.10445 19.9186 4.54646 20.0038 4.99216 19.9999C5.43786 19.996 5.87833 19.9032 6.28786 19.7268C6.69739 19.5505 7.06778 19.2942 7.37743 18.9729L16.2794 10.0518C17.3811 8.94756 18 7.44987 18 5.88822C18 4.32656 17.3811 2.82887 16.2794 1.72462C15.1777 0.620364 13.6835 0 12.1255 0C10.5675 0 9.07325 0.620364 7.97156 1.72462L0.25619 9.45461C0.17604 9.5322 0.11211 9.62502 0.0681296 9.72764C0.0241493 9.83026 0.000999938 9.94063 3.16848e-05 10.0523C-0.000936569 10.164 0.0202958 10.2748 0.0624903 10.3781C0.104685 10.4815 0.166996 10.5754 0.245788 10.6544C0.324581 10.7334 0.418276 10.7958 0.521408 10.8381C0.624539 10.8804 0.735041 10.9017 0.846466 10.9007C0.957891 10.8998 1.06801 10.8766 1.17039 10.8325C1.27277 10.7884 1.36537 10.7243 1.44278 10.644H1.44446Z" fill="#BFBFBF"/>
</svg>
