<svg width="41" height="47" viewBox="0 0 41 47" fill="none" xmlns="http://www.w3.org/2000/svg">
<path d="M19.2337 0.655669C19.3943 0.502313 19.5851 0.380642 19.7952 0.297625C20.0053 0.214607 20.2305 0.171875 20.458 0.171875C20.6854 0.171875 20.9106 0.214607 21.1207 0.297625C21.3308 0.380642 21.5216 0.502313 21.6822 0.655669C22.5849 1.51856 26.5516 5.43124 30.304 10.546C34.0045 15.5884 37.7499 22.126 37.7499 28.1695C37.7499 34.0319 35.7544 38.5934 32.507 41.6893C29.2734 44.7753 24.9227 46.2837 20.458 46.2837C15.9932 46.2837 11.6425 44.7753 8.40893 41.6893C5.16151 38.5934 3.16602 34.0352 3.16602 28.1695C3.16602 22.126 6.91145 15.5884 10.6119 10.5493C13.2029 7.03684 16.0861 3.7283 19.2337 0.655669Z" fill="white"/>
<path d="M1.72656 25.7349H12.9006L16.1871 17.4648L22.1027 33.3158L25.3892 25.7349H39.1925" stroke="#A74FFE" stroke-width="3.19236" stroke-linecap="round" stroke-linejoin="round"/>
</svg>
