<svg width="67" height="40" viewBox="0 0 67 40" fill="none" xmlns="http://www.w3.org/2000/svg">
<path d="M3.78686 5.1163C4.34907 2.112 7.02797 0.00390625 10.0844 0.00390625H56.379C59.1645 0.00390625 61.6812 1.75226 62.342 4.45825C64.8776 14.8423 64.7095 27.6623 62.4337 35.9269C61.7565 38.3865 59.397 39.8555 56.8459 39.8555H10.3598C7.17913 39.8555 4.44147 37.5782 3.92747 34.4393C2.17854 23.759 1.71145 16.2068 3.78686 5.1163Z" fill="#494949"/>
<path d="M61.8583 2.6005C60.8945 0.376222 58.2439 -0.0562763 57.0391 0.00550921C64.1753 9.55138 60.0048 35.5013 57.5951 39.9498C62.229 39.5791 61.8583 37.6329 62.9705 32.9063C64.0826 28.1797 64.268 19.3753 64.1753 17.3363C64.0826 15.2974 63.0631 5.38085 61.8583 2.6005Z" fill="#535353"/>
<path d="M4.79011 2.6005C5.75396 0.376222 8.40456 -0.0562763 9.60938 0.00550921C2.47315 9.55138 6.64367 35.5013 9.05331 39.9498C4.41939 39.5791 4.79011 37.6329 3.67797 32.9063C2.56583 28.1797 2.38047 19.3753 2.47315 17.3363C2.56583 15.2974 3.58529 5.38085 4.79011 2.6005Z" fill="#535353"/>
<rect x="0.226562" y="11.125" width="66.3576" height="21.8721" rx="3.28492" fill="#3A3A3A"/>
<path d="M4.76562 18.9154L61.9481 18.3594L61.7172 19.1675C61.415 20.2252 60.4483 20.9544 59.3483 20.9544H7.0157C6.06203 20.9544 5.218 20.3372 4.92884 19.4284L4.76562 18.9154Z" fill="#2B2B2B"/>
<path d="M4.67969 13.3188C4.67969 12.1094 5.66016 11.1289 6.86963 11.1289H60.0386C61.0969 11.1289 61.9548 11.9868 61.9548 13.0451V17.377C61.9548 18.7376 60.8518 19.8407 59.4911 19.8407H6.86963C5.66016 19.8407 4.67969 18.8602 4.67969 17.6507V13.3188Z" fill="#636161"/>
<path d="M4.3125 3.31397C4.3125 1.48803 5.79272 0.0078125 7.61865 0.0078125H59.4186C60.8213 0.0078125 61.9584 1.14491 61.9584 2.54759C61.9584 5.85391 59.2781 8.53421 55.9717 8.53421H9.53274C6.64968 8.53421 4.3125 6.19703 4.3125 3.31397Z" fill="#616060"/>
<path d="M6.10562 2.61086C6.10562 2.52917 6.10959 2.44845 6.11733 2.36888L5.9811 2.35562C5.99788 2.18326 6.03146 2.01583 6.0802 1.85498L6.21119 1.89467C6.25842 1.73877 6.32068 1.58939 6.39631 1.4482L6.27565 1.38357C6.35646 1.2327 6.45171 1.09072 6.55954 0.959479L6.66529 1.04637C6.76787 0.921525 6.88246 0.806928 7.00731 0.704355L6.92042 0.5986C7.05166 0.490767 7.19364 0.395524 7.34451 0.314715L7.40914 0.435369C7.55033 0.359744 7.69971 0.29748 7.85561 0.250249L7.81592 0.119257C7.97677 0.0705248 8.1442 0.0369414 8.31656 0.0201674L8.32982 0.156395C8.40939 0.148651 8.49011 0.144684 8.5718 0.144684H8.84334V0.0078125H9.38643V0.144684H9.92952V0.0078125H10.4726V0.144684H11.0157V0.0078125H11.5588V0.144684H12.1019V0.0078125H12.645V0.144684H13.1881V0.0078125H13.7311V0.144684H14.2742V0.0078125H14.8173V0.144684H15.3604V0.0078125H15.9035V0.144684H16.4466V0.0078125H16.9897V0.144684H17.5328V0.0078125H18.0759V0.144684H18.6189V0.0078125H19.162V0.144684H19.7051V0.0078125H20.2482V0.144684H20.7913V0.0078125H21.3344V0.144684H21.8775V0.0078125H22.4206V0.144684H22.9637V0.0078125H23.5067V0.144684H24.0498V0.0078125H24.5929V0.144684H25.136V0.0078125H25.6791V0.144684H26.2222V0.0078125H26.7653V0.144684H27.3084V0.0078125H27.8515V0.144684H28.3945V0.0078125H28.9376V0.144684H29.4807V0.0078125H30.0238V0.144684H30.5669V0.0078125H31.11V0.144684H31.6531V0.0078125H32.1962V0.144684H32.7393V0.0078125H33.2823V0.144684H33.8254V0.0078125H34.3685V0.144684H34.9116V0.0078125H35.4547V0.144684H35.9978V0.0078125H36.5409V0.144684H37.084V0.0078125H37.6271V0.144684H38.1701V0.0078125H38.7132V0.144684H39.2563V0.0078125H39.7994V0.144684H40.3425V0.0078125H40.8856V0.144684H41.4287V0.0078125H41.9718V0.144684H42.5149V0.0078125H43.0579V0.144684H43.601V0.0078125H44.1441V0.144684H44.6872V0.0078125H45.2303V0.144684H45.7734V0.0078125H46.3165V0.144684H46.8595V0.0078125H47.4026V0.144684H47.9457V0.0078125H48.4888V0.144684H49.0319V0.0078125H49.575V0.144684H50.1181V0.0078125H50.6612V0.144684H51.2042V0.0078125H51.7473V0.144684H52.2904V0.0078125H52.8335V0.144684H53.3766V0.0078125H53.9197V0.144684H54.4628V0.0078125H55.0059V0.144684H55.5489V0.0078125H56.092V0.144684H56.6351V0.0078125H57.1782V0.144684H57.4498C57.5362 0.144684 57.6213 0.150301 57.7047 0.161174L57.7224 0.0254524C57.9064 0.0494597 58.0829 0.0974462 58.2487 0.166174L58.1962 0.292606C58.3547 0.358318 58.5027 0.444359 58.6369 0.547512L58.7203 0.438984C58.8649 0.550085 58.9945 0.679695 59.1056 0.824272L58.9971 0.907671C59.1002 1.0419 59.1863 1.18989 59.252 1.34835L59.3784 1.29592C59.4471 1.46166 59.4951 1.63816 59.5191 1.82221L59.3834 1.83992C59.3943 1.92327 59.3999 2.00834 59.3999 2.09479C59.3999 2.18558 59.3974 2.27577 59.3924 2.3653L59.5291 2.37286C59.5188 2.56001 59.498 2.7444 59.4675 2.92545L59.3325 2.90268C59.3023 3.08191 59.2621 3.25776 59.2127 3.42967L59.3442 3.4675C59.2927 3.64674 59.2313 3.82182 59.1607 3.9921L59.0342 3.93967C58.9649 4.10688 58.8864 4.26935 58.7994 4.42646L58.9191 4.49277C58.8291 4.6554 58.7301 4.81243 58.6229 4.96321L58.5114 4.88391C58.4068 5.03106 58.2941 5.17209 58.1741 5.30636L58.2761 5.39759C58.1525 5.53582 58.0212 5.66706 57.883 5.79067L57.7918 5.68864C57.6575 5.80871 57.5165 5.92137 57.3693 6.02596L57.4486 6.13752C57.2978 6.2447 57.1408 6.34364 56.9782 6.43372L56.9119 6.31398C56.7548 6.40099 56.5923 6.47948 56.4251 6.54882L56.4775 6.67525C56.3072 6.74587 56.1322 6.80726 55.9529 6.85882L55.9151 6.72728C55.7432 6.77672 55.5673 6.81685 55.3881 6.84709L55.4109 6.98206C55.2298 7.01261 55.0454 7.03334 54.8583 7.04369L54.8507 6.90703C54.7612 6.91198 54.671 6.91449 54.5802 6.91449H54.3041V7.05136H53.752V6.91449H53.1999V7.05136H52.6477V6.91449H52.0956V7.05136H51.5434V6.91449H50.9913V7.05136H50.4392V6.91449H49.887V7.05136H49.3349V6.91449H48.7828V7.05136H48.2306V6.91449H47.6785V7.05136H47.1264V6.91449H46.5742V7.05136H46.0221V6.91449H45.4699V7.05136H44.9178V6.91449H44.3657V7.05136H43.8135V6.91449H43.2614V7.05136H42.7093V6.91449H42.1571V7.05136H41.605V6.91449H41.0528V7.05136H40.5007V6.91449H39.9486V7.05136H39.3964V6.91449H38.8443V7.05136H38.2922V6.91449H37.74V7.05136H37.1879V6.91449H36.6358V7.05136H36.0836V6.91449H35.5315V7.05136H34.9793V6.91449H34.4272V7.05136H33.8751V6.91449H33.3229V7.05136H32.7708V6.91449H32.2187V7.05136H31.6665V6.91449H31.1144V7.05136H30.5622V6.91449H30.0101V7.05136H29.458V6.91449H28.9058V7.05136H28.3537V6.91449H27.8016V7.05136H27.2494V6.91449H26.6973V7.05136H26.1451V6.91449H25.593V7.05136H25.0409V6.91449H24.4887V7.05136H23.9366V6.91449H23.3845V7.05136H22.8323V6.91449H22.2802V7.05136H21.728V6.91449H21.1759V7.05136H20.6238V6.91449H20.0716V7.05136H19.5195V6.91449H18.9674V7.05136H18.4152V6.91449H17.8631V7.05136H17.311V6.91449H16.7588V7.05136H16.2067V6.91449H15.6546V7.05136H15.1024V6.91449H14.5503V7.05136H13.9982V6.91449H13.446V7.05136H12.8939V6.91449H12.3417V7.05136H11.7896V6.91449H11.2375V7.05136H10.6853V6.91449H10.4093C10.3145 6.91449 10.2205 6.91143 10.1274 6.90541L10.1186 7.042C9.92285 7.02935 9.73061 7.00402 9.54263 6.96684L9.5692 6.83257C9.38333 6.7958 9.20177 6.74706 9.02536 6.68719L8.98138 6.8168C8.79678 6.75415 8.61763 6.67969 8.44484 6.59432L8.50547 6.47161C8.33649 6.38811 8.17376 6.29384 8.01818 6.18969L7.94204 6.30343C7.78071 6.19542 7.62685 6.07712 7.4814 5.94946L7.57169 5.84659C7.43048 5.72266 7.29745 5.58963 7.17352 5.44842L7.07065 5.53871C6.94299 5.39326 6.82469 5.2394 6.71668 5.07807L6.83042 5.00193C6.72627 4.84635 6.632 4.68362 6.5485 4.51464L6.42579 4.57527C6.34042 4.40248 6.26596 4.22333 6.20331 4.03874L6.33292 3.99475C6.27305 3.81834 6.22431 3.63679 6.18754 3.45092L6.05327 3.47748C6.01608 3.2895 5.99076 3.09726 5.97811 2.90156L6.1147 2.89273C6.10868 2.79957 6.10562 2.70558 6.10562 2.61086Z" fill="#515050" stroke="#616161" stroke-width="0.273743" stroke-dasharray="0.55 0.55"/>
<path d="M64.7344 11.1211C65.7581 11.1211 66.5879 11.951 66.5879 12.9747V31.1396C66.5879 32.1633 65.7581 32.9932 64.7344 32.9932V11.1211Z" fill="#565656"/>
<path d="M2.07812 11.1211C1.05443 11.1211 0.22456 11.951 0.22456 12.9747V31.1396C0.22456 32.1633 1.05443 32.9932 2.07812 32.9932V11.1211Z" fill="#565656"/>
<rect x="51.5703" y="25.7656" width="10.1946" height="2.9657" rx="1.48285" fill="#2D2D2D"/>
<rect x="7.09375" y="13.5312" width="9.82389" height="2.59499" rx="1.2975" fill="#919191"/>
<rect x="30.4453" y="1.29688" width="10.1946" height="0.926782" rx="0.463391" fill="#7C7C7C"/>
<rect x="47.4922" y="25.7656" width="2.9657" height="2.9657" rx="1.48285" fill="#2D2D2D"/>
</svg>
