<svg width="213" height="185" viewBox="0 0 213 185" fill="none" xmlns="http://www.w3.org/2000/svg">
<path d="M16.0801 80.1259V86.739H22.6933V80.1259V73.5215H16.0801V80.1259Z" fill="#2E2E42"/>
<path d="M22.6933 40.4746H16.0801V47.0878H22.6933V40.4746Z" fill="#2E2E42"/>
<path d="M63.5351 113.246H56.9219V119.859H63.5351V113.246Z" fill="#2E2E42"/>
<path d="M22.6933 53.6913V60.2957H16.0801V66.9089H22.6933V73.522H29.3064H35.9108V80.1264H42.524V73.522H49.1284V66.9089V60.2957H42.524V66.9089H35.9108H29.3064V60.2957V53.6913V47.0781H22.6933V53.6913Z" fill="#2E2E42"/>
<path d="M35.911 40.4746H29.3066V47.079H35.911H42.5242V40.4746H35.911Z" fill="#2E2E42"/>
<path d="M65.6521 93.6093H69.2056V86.9961H65.6521H62.1074V93.6093H65.6521Z" fill="#2E2E42"/>
<path d="M49.1366 47.0781H42.5234V53.6913H49.1366V47.0781Z" fill="#2E2E42"/>
<path d="M95.4022 73.5215H88.7891V80.1347H95.4022V73.5215Z" fill="#2E2E42"/>
<path d="M102.016 0.8125H95.4023V7.42568H102.016V0.8125Z" fill="#2E2E42"/>
<path d="M62.3533 53.6921V47.0789H68.9577V40.4745H62.3533V33.8613H55.7401V40.4745H49.127V47.0789H55.7401V53.6921V60.2964V66.9096V73.5228H62.3533V66.9096V60.2964H68.9577V53.6921H62.3533Z" fill="#2E2E42"/>
<path d="M95.4022 119.789H102.007V113.176H95.4022H88.7891V119.789H95.4022Z" fill="#2E2E42"/>
<path d="M88.789 0.8125H82.1758V7.42568H88.789V0.8125Z" fill="#2E2E42"/>
<path d="M87.1393 53.6922V47.079H80.5261V40.4746H73.913V47.079V53.6922H67.3086V60.2965H73.913H80.5261V53.6922H87.1393Z" fill="#2E2E42"/>
<path d="M124.447 40.4746H117.834V47.0878H124.447V40.4746Z" fill="#2E2E42"/>
<path d="M55.9355 73.5215H49.3223V80.1347H55.9355V73.5215Z" fill="#2E2E42"/>
<path d="M82.1765 33.8609V27.2477H88.7897V20.6433H95.4029H102.007V14.0301H95.4029V7.42578H88.7897V14.0301H82.1765V20.6433H75.5722V27.2477H68.959V33.8609H75.5722H82.1765Z" fill="#2E2E42"/>
<path d="M82.1765 80.1258V73.5214H88.7897V66.9082H82.1765H75.5722V73.5214H68.959V80.1258H75.5722H82.1765Z" fill="#2E2E42"/>
<path d="M102.006 106.561V99.9569H95.4018H88.7886V93.3438H82.1754V99.9569H75.5711V106.561H68.9579H62.3535V113.174H68.9579H75.5711H82.1754V106.561H88.7886V113.174H95.4018V106.561H102.006Z" fill="#2E2E42"/>
<path d="M75.571 7.42568V0.8125H68.9578H62.3534V7.42568H55.7402V14.0301H62.3534H68.9578V7.42568H75.571Z" fill="#2E2E42"/>
<path d="M75.5722 14.0293H68.959V20.6425H75.5722V14.0293Z" fill="#2E2E42"/>
<path d="M92.0956 40.4744H85.4824V47.0788V53.692V60.2963H92.0956H98.7088V53.692H92.0956V47.0788H98.7088V40.4744H105.313V33.8612H98.7088V27.248H92.0956V33.8612V40.4744Z" fill="#2E2E42"/>
<path d="M68.9667 20.6426H62.3535V27.2558H68.9667V20.6426Z" fill="#2E2E42"/>
<path d="M88.7891 86.7401V93.3445H95.4022H102.007V86.7401H108.62H115.233V80.127H108.62H102.007H95.4022V86.7401H88.7891Z" fill="#2E2E42"/>
<path d="M124.447 60.2949H117.834V66.9081H124.447V60.2949Z" fill="#2E2E42"/>
<path d="M102.016 66.9082H95.4023V73.5214H102.016V66.9082Z" fill="#2E2E42"/>
<path d="M118.53 47.0781H111.926H105.312V53.6913H111.926V60.2957H118.53V53.6913V47.0781Z" fill="#2E2E42"/>
<path d="M115.232 66.9082H108.619V73.5214H115.232V66.9082Z" fill="#2E2E42"/>
<path d="M42.5242 106.693H62.3638V80.1172H35.7876V86.7392H29.3066V93.3436H35.7876V99.9567H29.3066V106.57H35.7876V106.693H35.911V113.174H29.3066V126.401H35.911V119.787H42.5242V106.693ZM57.2672 85.2137V101.738H40.743V85.2137H57.2672Z" fill="#2E2E42"/>
<path d="M128.45 80.1259H135.054V73.5215H128.45H121.837H115.232V80.1259H121.837H128.45Z" fill="#2E2E42"/>
<path d="M128.451 53.6922H135.056V47.079V40.4746H128.451V47.079V53.6922Z" fill="#2E2E42"/>
<path d="M75.8183 86.9961H69.2051V93.6093V100.214H75.8183V93.6093V86.9961Z" fill="#2E2E42"/>
<path d="M141.668 80.127H135.055V86.7401H141.668V80.127Z" fill="#2E2E42"/>
<path d="M141.668 66.9081V60.2949H135.055V66.9081V73.5213H141.668V66.9081Z" fill="#2E2E42"/>
<path d="M22.6933 113.176H16.0801V119.789V126.402H22.6933V119.789V113.176Z" fill="#2E2E42"/>
<path d="M141.667 33.8608V0.8125H108.619V33.8608H141.667ZM113.575 28.9053V5.76798H136.712V28.9053H113.575Z" fill="#2E2E42"/>
<path d="M131.749 10.7227H118.531V23.9402H131.749V10.7227Z" fill="#2E2E42"/>
<path d="M141.667 93.3438H108.619V126.401H141.667V93.3438ZM113.575 121.437V98.308H136.712V121.437H113.575Z" fill="#2E2E42"/>
<path d="M131.749 103.264H118.531V116.481H131.749V103.264Z" fill="#2E2E42"/>
<path d="M16 0.8125V33.8608H49.0483V0.8125H16ZM44.0928 5.76798V28.9053H20.9202V5.76798H44.0928Z" fill="#2E2E42"/>
<path d="M39.1277 10.7227H25.9102V23.9402H39.1277V10.7227Z" fill="#2E2E42"/>
<path d="M15.035 160.992L18.1878 164.072L11.3083 167.306C11.3083 167.306 9.64303 164.387 10.799 161.752L15.035 160.992Z" fill="#E4897B"/>
<path d="M20.7342 168.656L14.9218 171.033L11.3164 167.274L18.1878 164.072L20.7342 168.656Z" fill="#E4897B"/>
<path opacity="0.4" d="M138.478 165.342C127.04 164.058 116.239 159.411 107.442 151.99C98.644 144.568 92.2443 134.705 89.0516 123.646C85.8589 112.588 86.0165 100.832 89.5045 89.863C92.9925 78.8943 99.6542 69.206 108.648 62.0229C117.641 54.8397 128.562 50.4843 140.03 49.5071C151.499 48.5299 162.999 50.9748 173.078 56.5328C183.157 62.0908 191.362 70.5124 196.656 80.7328C201.949 90.9532 204.093 102.514 202.818 113.953C201.97 121.553 199.633 128.911 195.94 135.608C192.248 142.304 187.272 148.207 181.296 152.98C175.321 157.752 168.464 161.3 161.117 163.422C153.77 165.543 146.077 166.195 138.478 165.342Z" fill="#FAFAFA"/>
<path opacity="0.4" d="M180.822 61.6419L92.3025 132.368C91.9307 131.56 91.5669 130.752 91.2274 129.943C89.0082 124.665 87.5887 119.085 87.0156 113.387L163.474 52.2969C169.751 54.3908 175.62 57.5522 180.822 61.6419Z" fill="#FAFAFA"/>
<path opacity="0.4" d="M201.25 92.6269L118.026 159.117C110.12 154.996 103.268 149.11 98.002 141.915L188.874 69.3047C194.731 76.028 198.966 84.0074 201.25 92.6269Z" fill="#FAFAFA"/>
<path d="M79.4477 85.2542L78.6797 84.9955C80.0098 81.0708 81.6814 77.2702 83.6756 73.6376L84.3789 74.0256C82.4111 77.6176 80.761 81.3748 79.4477 85.2542ZM89.2616 66.3863L88.6068 65.9093C95.2502 56.9263 103.945 49.6617 113.966 44.7213L114.33 45.4489C104.423 50.3383 95.8276 57.5252 89.2616 66.4105V66.3863ZM177.853 46.5564C175.212 45.1394 172.479 43.8999 169.673 42.8458L169.964 42.0859C172.797 43.1647 175.557 44.4285 178.225 45.8692L177.853 46.5564Z" fill="#3C8AFF"/>
<path opacity="0.3" d="M79.4477 85.2542L78.6797 84.9955C80.0098 81.0708 81.6814 77.2702 83.6756 73.6376L84.3789 74.0256C82.4111 77.6176 80.761 81.3748 79.4477 85.2542ZM89.2616 66.3863L88.6068 65.9093C95.2502 56.9263 103.945 49.6617 113.966 44.7213L114.33 45.4489C104.423 50.3383 95.8276 57.5252 89.2616 66.4105V66.3863ZM177.853 46.5564C175.212 45.1394 172.479 43.8999 169.673 42.8458L169.964 42.0859C172.797 43.1647 175.557 44.4285 178.225 45.8692L177.853 46.5564Z" fill="black"/>
<path d="M205.138 77.7685C197.652 62.2435 184.48 50.1944 168.351 44.1191C152.222 38.0438 134.373 38.4082 118.505 45.1368C102.638 51.8653 89.9679 64.442 83.1223 80.2595C76.2767 96.077 75.7805 113.922 81.7365 130.096C76.3364 131.987 71.001 134.017 65.698 136.11C58.0506 139.144 50.4732 142.313 42.9659 145.617C35.464 148.939 27.9945 152.327 20.5977 155.867C16.8871 157.605 13.2251 159.441 9.53075 161.219C7.60887 162.045 5.8676 163.24 4.40552 164.735C3.61434 165.564 2.91755 166.478 2.32795 167.46C1.60856 168.621 1.06381 169.883 0.711163 171.203C0.102879 173.582 0.365929 176.1 1.45274 178.301C2.53956 180.503 4.37839 182.243 6.63669 183.207C7.89074 183.733 9.21386 184.076 10.5655 184.226C11.7071 184.355 12.8596 184.355 14.0012 184.226C16.0757 183.974 18.0807 183.318 19.9024 182.294C23.5645 180.443 27.2507 178.656 30.8885 176.756C38.1641 173.046 45.4396 169.174 52.6262 165.245C59.8129 161.316 67.0076 157.201 74.0244 152.981C78.8748 150.047 83.7737 147.048 88.5755 143.911C97.7963 158.468 112.264 168.919 128.98 173.099C145.697 177.279 163.381 174.868 178.368 166.364C193.355 157.861 204.496 143.918 209.483 127.424C214.469 110.931 212.919 93.1506 205.154 77.7685H205.138ZM168.388 154.994C158.994 159.632 148.435 161.379 138.047 160.015C127.66 158.652 117.91 154.239 110.03 147.335C102.15 140.43 96.4945 131.344 93.7783 121.226C91.0621 111.107 91.4073 100.411 94.7701 90.4882C98.133 80.5658 104.362 71.8634 112.671 65.4813C120.979 59.0992 130.994 55.324 141.448 54.6331C151.902 53.9423 162.326 56.3667 171.402 61.5999C180.478 66.8331 187.799 74.64 192.438 84.0335C195.519 90.2718 197.341 97.056 197.8 103.999C198.259 110.941 197.345 117.906 195.112 124.496C192.879 131.085 189.369 137.17 184.784 142.403C180.199 147.636 174.627 151.915 168.388 154.994Z" fill="#3C8AFF"/>
</svg>
