<svg width="26" height="31" viewBox="0 0 26 31" fill="none" xmlns="http://www.w3.org/2000/svg">
<mask id="path-1-outside-1_686_8124" maskUnits="userSpaceOnUse" x="-0.349609" y="0.263672" width="26" height="31" fill="black">
<rect fill="white" x="-0.349609" y="0.263672" width="26" height="31"/>
<path d="M8.09232 14.5645C6.68252 14.5645 5.33046 13.9806 4.33358 12.9413C3.3367 11.902 2.77666 10.4923 2.77666 9.0225V4.58888C2.77666 4.29492 2.88866 4.01299 3.08804 3.80512C3.28742 3.59726 3.55783 3.48048 3.83979 3.48048H4.90292C5.18488 3.48048 5.45529 3.3637 5.65467 3.15584C5.85404 2.94797 5.96605 2.66604 5.96605 2.37208C5.96605 2.07811 5.85404 1.79618 5.65467 1.58832C5.45529 1.38045 5.18488 1.26367 4.90292 1.26367H3.83979C2.99391 1.26367 2.18267 1.61401 1.58454 2.2376C0.986416 2.8612 0.650391 3.70698 0.650391 4.58888V9.0225C0.651757 10.2747 0.944636 11.5078 1.50387 12.616C2.06311 13.7242 2.87199 14.6743 3.86105 15.3847C4.81131 16.2582 5.58195 17.3233 6.12646 18.5159C6.67098 19.7084 6.97806 21.0036 7.02919 22.3233C7.02919 24.3811 7.81324 26.3546 9.20888 27.8097C10.6045 29.2647 12.4974 30.0822 14.4711 30.0822C16.4448 30.0822 18.3377 29.2647 19.7333 27.8097C21.129 26.3546 21.913 24.3811 21.913 22.3233V21.0598C22.9152 20.79 23.7886 20.1484 24.3695 19.2553C24.9504 18.3621 25.199 17.2788 25.0685 16.2083C24.9381 15.1378 24.4377 14.1536 23.6611 13.4402C22.8845 12.7269 21.8849 12.3333 20.8499 12.3333C19.8149 12.3333 18.8154 12.7269 18.0387 13.4402C17.2621 14.1536 16.7617 15.1378 16.6313 16.2083C16.5009 17.2788 16.7494 18.3621 17.3303 19.2553C17.9112 20.1484 18.7846 20.79 19.7868 21.0598V22.3233C19.7868 23.7932 19.2267 25.2028 18.2299 26.2421C17.233 27.2815 15.8809 27.8654 14.4711 27.8654C13.0613 27.8654 11.7093 27.2815 10.7124 26.2421C9.71549 25.2028 9.15545 23.7932 9.15545 22.3233C9.20927 21.002 9.51967 19.7058 10.0679 18.5131C10.6161 17.3205 11.3907 16.2562 12.3448 15.3847C13.33 14.6718 14.1347 13.7207 14.6902 12.6126C15.2456 11.5046 15.5353 10.2727 15.5342 9.0225V4.58888C15.5342 3.70698 15.1982 2.8612 14.6001 2.2376C14.002 1.61401 13.1907 1.26367 12.3448 1.26367H11.2817C10.9998 1.26367 10.7293 1.38045 10.53 1.58832C10.3306 1.79618 10.2186 2.07811 10.2186 2.37208C10.2186 2.66604 10.3306 2.94797 10.53 3.15584C10.7293 3.3637 10.9998 3.48048 11.2817 3.48048H12.3448C12.6268 3.48048 12.8972 3.59726 13.0966 3.80512C13.296 4.01299 13.408 4.29492 13.408 4.58888V9.0225C13.408 9.75029 13.2705 10.4709 13.0033 11.1433C12.7362 11.8157 12.3447 12.4267 11.8511 12.9413C11.3575 13.4559 10.7715 13.8641 10.1265 14.1427C9.48161 14.4212 8.79038 14.5645 8.09232 14.5645ZM20.8499 18.9981C20.286 18.9981 19.7452 18.7646 19.3464 18.3488C18.9477 17.9331 18.7236 17.3693 18.7236 16.7813C18.7236 16.1934 18.9477 15.6295 19.3464 15.2138C19.7452 14.7981 20.286 14.5645 20.8499 14.5645C21.4138 14.5645 21.9547 14.7981 22.3534 15.2138C22.7522 15.6295 22.9762 16.1934 22.9762 16.7813C22.9762 17.3693 22.7522 17.9331 22.3534 18.3488C21.9547 18.7646 21.4138 18.9981 20.8499 18.9981Z"/>
</mask>
<path d="M8.09232 14.5645C6.68252 14.5645 5.33046 13.9806 4.33358 12.9413C3.3367 11.902 2.77666 10.4923 2.77666 9.0225V4.58888C2.77666 4.29492 2.88866 4.01299 3.08804 3.80512C3.28742 3.59726 3.55783 3.48048 3.83979 3.48048H4.90292C5.18488 3.48048 5.45529 3.3637 5.65467 3.15584C5.85404 2.94797 5.96605 2.66604 5.96605 2.37208C5.96605 2.07811 5.85404 1.79618 5.65467 1.58832C5.45529 1.38045 5.18488 1.26367 4.90292 1.26367H3.83979C2.99391 1.26367 2.18267 1.61401 1.58454 2.2376C0.986416 2.8612 0.650391 3.70698 0.650391 4.58888V9.0225C0.651757 10.2747 0.944636 11.5078 1.50387 12.616C2.06311 13.7242 2.87199 14.6743 3.86105 15.3847C4.81131 16.2582 5.58195 17.3233 6.12646 18.5159C6.67098 19.7084 6.97806 21.0036 7.02919 22.3233C7.02919 24.3811 7.81324 26.3546 9.20888 27.8097C10.6045 29.2647 12.4974 30.0822 14.4711 30.0822C16.4448 30.0822 18.3377 29.2647 19.7333 27.8097C21.129 26.3546 21.913 24.3811 21.913 22.3233V21.0598C22.9152 20.79 23.7886 20.1484 24.3695 19.2553C24.9504 18.3621 25.199 17.2788 25.0685 16.2083C24.9381 15.1378 24.4377 14.1536 23.6611 13.4402C22.8845 12.7269 21.8849 12.3333 20.8499 12.3333C19.8149 12.3333 18.8154 12.7269 18.0387 13.4402C17.2621 14.1536 16.7617 15.1378 16.6313 16.2083C16.5009 17.2788 16.7494 18.3621 17.3303 19.2553C17.9112 20.1484 18.7846 20.79 19.7868 21.0598V22.3233C19.7868 23.7932 19.2267 25.2028 18.2299 26.2421C17.233 27.2815 15.8809 27.8654 14.4711 27.8654C13.0613 27.8654 11.7093 27.2815 10.7124 26.2421C9.71549 25.2028 9.15545 23.7932 9.15545 22.3233C9.20927 21.002 9.51967 19.7058 10.0679 18.5131C10.6161 17.3205 11.3907 16.2562 12.3448 15.3847C13.33 14.6718 14.1347 13.7207 14.6902 12.6126C15.2456 11.5046 15.5353 10.2727 15.5342 9.0225V4.58888C15.5342 3.70698 15.1982 2.8612 14.6001 2.2376C14.002 1.61401 13.1907 1.26367 12.3448 1.26367H11.2817C10.9998 1.26367 10.7293 1.38045 10.53 1.58832C10.3306 1.79618 10.2186 2.07811 10.2186 2.37208C10.2186 2.66604 10.3306 2.94797 10.53 3.15584C10.7293 3.3637 10.9998 3.48048 11.2817 3.48048H12.3448C12.6268 3.48048 12.8972 3.59726 13.0966 3.80512C13.296 4.01299 13.408 4.29492 13.408 4.58888V9.0225C13.408 9.75029 13.2705 10.4709 13.0033 11.1433C12.7362 11.8157 12.3447 12.4267 11.8511 12.9413C11.3575 13.4559 10.7715 13.8641 10.1265 14.1427C9.48161 14.4212 8.79038 14.5645 8.09232 14.5645ZM20.8499 18.9981C20.286 18.9981 19.7452 18.7646 19.3464 18.3488C18.9477 17.9331 18.7236 17.3693 18.7236 16.7813C18.7236 16.1934 18.9477 15.6295 19.3464 15.2138C19.7452 14.7981 20.286 14.5645 20.8499 14.5645C21.4138 14.5645 21.9547 14.7981 22.3534 15.2138C22.7522 15.6295 22.9762 16.1934 22.9762 16.7813C22.9762 17.3693 22.7522 17.9331 22.3534 18.3488C21.9547 18.7646 21.4138 18.9981 20.8499 18.9981Z" fill="#3C8AFF"/>
<path d="M3.83979 3.48048V3.91712V3.48048ZM4.90292 3.48048V3.91712V3.48048ZM4.90292 1.26367V0.827028V1.26367ZM3.83979 1.26367L3.83979 0.827028L3.83979 1.26367ZM0.650391 4.58888H0.213747H0.650391ZM0.650391 9.0225H0.213747L0.213747 9.02297L0.650391 9.0225ZM3.86105 15.3847L4.15654 15.0633L4.13716 15.0454L4.11578 15.0301L3.86105 15.3847ZM7.02919 22.3233H7.46583V22.3149L7.4655 22.3064L7.02919 22.3233ZM14.4711 30.0822V30.5188V30.0822ZM21.913 21.0598L21.7995 20.6381L21.4764 20.7251V21.0598H21.913ZM20.8499 12.3333V11.8967V12.3333ZM19.7868 21.0598H20.2234V20.7251L19.9003 20.6381L19.7868 21.0598ZM9.15545 22.3233L8.71917 22.3056L8.71881 22.3145V22.3233H9.15545ZM12.3448 15.3847L12.0889 15.031L12.0687 15.0456L12.0504 15.0623L12.3448 15.3847ZM15.5342 9.0225H15.0976L15.0976 9.02285L15.5342 9.0225ZM15.5342 4.58888H15.9709H15.5342ZM11.2817 1.26367V0.827028V1.26367ZM11.2817 3.48048V3.91712V3.48048ZM20.8499 14.5645V15.0012V14.5645ZM8.09232 14.1279C6.80434 14.1279 5.56523 13.5946 4.6487 12.639L4.01845 13.2435C5.09568 14.3666 6.5607 15.0012 8.09232 15.0012V14.1279ZM4.6487 12.639C3.73157 11.6829 3.2133 10.3823 3.2133 9.0225H2.34001C2.34001 10.6024 2.94182 12.1211 4.01845 13.2435L4.6487 12.639ZM3.2133 9.0225V4.58888H2.34001V9.0225H3.2133ZM3.2133 4.58888C3.2133 4.40498 3.28354 4.23209 3.40316 4.10737L2.77292 3.50287C2.49379 3.79389 2.34001 4.18485 2.34001 4.58888H3.2133ZM3.40316 4.10737C3.52219 3.98328 3.67965 3.91712 3.83979 3.91712L3.83979 3.04384C3.43601 3.04384 3.05264 3.21124 2.77292 3.50287L3.40316 4.10737ZM3.83979 3.91712H4.90292V3.04384H3.83979V3.91712ZM4.90292 3.91712C5.3067 3.91712 5.69007 3.74972 5.96979 3.45809L5.33955 2.85358C5.22052 2.97768 5.06306 3.04384 4.90292 3.04384V3.91712ZM5.96979 3.45809C6.24892 3.16707 6.4027 2.77611 6.4027 2.37208H5.52941C5.52941 2.55598 5.45917 2.72887 5.33955 2.85358L5.96979 3.45809ZM6.4027 2.37208C6.4027 1.96804 6.24892 1.57708 5.96979 1.28606L5.33955 1.89057C5.45917 2.01528 5.52941 2.18817 5.52941 2.37208H6.4027ZM5.96979 1.28606C5.69007 0.994428 5.3067 0.827028 4.90292 0.827028V1.70032C5.06306 1.70032 5.22052 1.76647 5.33955 1.89057L5.96979 1.28606ZM4.90292 0.827028H3.83979V1.70032H4.90292V0.827028ZM3.83979 0.827028C2.87209 0.827028 1.9479 1.22798 1.26942 1.93535L1.89967 2.53986C2.41745 2.00003 3.11573 1.70032 3.83979 1.70032L3.83979 0.827028ZM1.26942 1.93535C0.591539 2.6421 0.213747 3.59692 0.213747 4.58888L1.08703 4.58888C1.08703 3.81705 1.38129 3.0803 1.89967 2.53986L1.26942 1.93535ZM0.213747 4.58888V9.0225H1.08703V4.58888H0.213747ZM0.213747 9.02297C0.215187 10.3427 0.523823 11.6432 1.11405 12.8128L1.89369 12.4193C1.36545 11.3725 1.08833 10.2067 1.08703 9.02202L0.213747 9.02297ZM1.11405 12.8128C1.70432 13.9824 2.55904 14.9871 3.60632 15.7394L4.11578 15.0301C3.18494 14.3615 2.4219 13.466 1.89369 12.4193L1.11405 12.8128ZM3.56556 15.7062C4.47222 16.5396 5.20857 17.5569 5.72927 18.6972L6.52366 18.3345C5.95533 17.0898 5.1504 15.9768 4.15654 15.0633L3.56556 15.7062ZM5.72927 18.6972C6.24997 19.8376 6.54393 21.077 6.59287 22.3402L7.4655 22.3064C7.41219 20.9303 7.09198 19.5792 6.52366 18.3345L5.72927 18.6972ZM6.59254 22.3233C6.59254 24.4912 7.41837 26.5737 8.89375 28.1119L9.524 27.5074C8.20812 26.1355 7.46583 24.271 7.46583 22.3233H6.59254ZM8.89375 28.1119C10.3697 29.6507 12.3756 30.5188 14.4711 30.5188V29.6455C12.6192 29.6455 10.8393 28.8787 9.524 27.5074L8.89375 28.1119ZM14.4711 30.5188C16.5667 30.5188 18.5725 29.6507 20.0485 28.1119L19.4182 27.5074C18.1029 28.8787 16.323 29.6455 14.4711 29.6455V30.5188ZM20.0485 28.1119C21.5239 26.5737 22.3497 24.4912 22.3497 22.3233H21.4764C21.4764 24.271 20.7341 26.1355 19.4182 27.5074L20.0485 28.1119ZM22.3497 22.3233V21.0598H21.4764V22.3233H22.3497ZM22.0265 21.4814C23.1356 21.1828 24.0977 20.474 24.7355 19.4933L24.0035 19.0172C23.4795 19.8227 22.6948 20.3971 21.7995 20.6381L22.0265 21.4814ZM24.7355 19.4933C25.3731 18.513 25.6446 17.3265 25.502 16.1555L24.6351 16.2611C24.7533 17.2311 24.5277 18.2112 24.0035 19.0172L24.7355 19.4933ZM25.502 16.1555C25.3593 14.9844 24.8115 13.904 23.9565 13.1187L23.3657 13.7618C24.0639 14.4031 24.5169 15.2912 24.6351 16.2611L25.502 16.1555ZM23.9565 13.1187C23.1009 12.3328 21.9966 11.8967 20.8499 11.8967V12.77C21.7733 12.77 22.668 13.1209 23.3657 13.7618L23.9565 13.1187ZM20.8499 11.8967C19.7032 11.8967 18.5989 12.3328 17.7434 13.1187L18.3341 13.7618C19.0319 13.1209 19.9265 12.77 20.8499 12.77V11.8967ZM17.7434 13.1187C16.8883 13.904 16.3405 14.9844 16.1978 16.1555L17.0647 16.2611C17.1829 15.2912 17.6359 14.4031 18.3341 13.7618L17.7434 13.1187ZM16.1978 16.1555C16.0552 17.3265 16.3267 18.513 16.9643 19.4933L17.6963 19.0172C17.1721 18.2112 16.9465 17.2311 17.0647 16.2611L16.1978 16.1555ZM16.9643 19.4933C17.6021 20.474 18.5642 21.1828 19.6733 21.4814L19.9003 20.6381C19.005 20.3971 18.2203 19.8227 17.6963 19.0172L16.9643 19.4933ZM19.3501 21.0598V22.3233H20.2234V21.0598H19.3501ZM19.3501 22.3233C19.3501 23.6831 18.8319 24.9837 17.9147 25.9399L18.545 26.5444C19.6216 25.4219 20.2234 23.9032 20.2234 22.3233H19.3501ZM17.9147 25.9399C16.9982 26.8954 15.7591 27.4287 14.4711 27.4287V28.302C16.0027 28.302 17.4677 27.6675 18.545 26.5444L17.9147 25.9399ZM14.4711 27.4287C13.1831 27.4287 11.944 26.8954 11.0275 25.9399L10.3972 26.5444C11.4745 27.6675 12.9395 28.302 14.4711 28.302V27.4287ZM11.0275 25.9399C10.1104 24.9837 9.59209 23.6831 9.59209 22.3233H8.71881C8.71881 23.9032 9.32061 25.4219 10.3972 26.5444L11.0275 25.9399ZM9.59173 22.3411C9.64325 21.0763 9.94038 19.836 10.4646 18.6955L9.67114 18.3308C9.09896 19.5756 8.77528 20.9278 8.71917 22.3056L9.59173 22.3411ZM10.4646 18.6955C10.9888 17.5551 11.729 16.5386 12.6393 15.7071L12.0504 15.0623C11.0524 15.9738 10.2433 17.086 9.67114 18.3308L10.4646 18.6955ZM12.6008 15.7385C13.6439 14.9836 14.4943 13.9778 15.0805 12.8083L14.2998 12.417C13.7752 13.4635 13.016 14.3601 12.0889 15.031L12.6008 15.7385ZM15.0805 12.8083C15.6668 11.6389 15.972 10.3398 15.9709 9.02214L15.0976 9.02285C15.0986 10.2056 14.8245 11.3703 14.2998 12.417L15.0805 12.8083ZM15.9709 9.0225V4.58888H15.0976V9.0225H15.9709ZM15.9709 4.58888C15.9709 3.59692 15.5931 2.6421 14.9152 1.93535L14.285 2.53986C14.8033 3.0803 15.0976 3.81705 15.0976 4.58888L15.9709 4.58888ZM14.9152 1.93535C14.2367 1.22798 13.3125 0.827028 12.3448 0.827028V1.70032C13.0689 1.70032 13.7672 2.00003 14.285 2.53986L14.9152 1.93535ZM12.3448 0.827028H11.2817V1.70032H12.3448V0.827028ZM11.2817 0.827028C10.8779 0.827028 10.4946 0.994428 10.2148 1.28606L10.8451 1.89057C10.9641 1.76647 11.1216 1.70032 11.2817 1.70032V0.827028ZM10.2148 1.28606C9.93571 1.57708 9.78194 1.96804 9.78194 2.37208H10.6552C10.6552 2.18817 10.7255 2.01528 10.8451 1.89057L10.2148 1.28606ZM9.78194 2.37208C9.78194 2.77611 9.93571 3.16707 10.2148 3.45809L10.8451 2.85358C10.7255 2.72887 10.6552 2.55598 10.6552 2.37208H9.78194ZM10.2148 3.45809C10.4946 3.74972 10.8779 3.91712 11.2817 3.91712V3.04384C11.1216 3.04384 10.9641 2.97768 10.8451 2.85358L10.2148 3.45809ZM11.2817 3.91712H12.3448V3.04384H11.2817V3.91712ZM12.3448 3.91712C12.505 3.91712 12.6624 3.98328 12.7815 4.10737L13.4117 3.50287C13.132 3.21124 12.7486 3.04384 12.3448 3.04384V3.91712ZM12.7815 4.10737C12.9011 4.23209 12.9713 4.40498 12.9713 4.58888H13.8446C13.8446 4.18485 13.6908 3.79389 13.4117 3.50287L12.7815 4.10737ZM12.9713 4.58888V9.0225H13.8446V4.58888H12.9713ZM12.9713 9.0225C12.9713 9.69541 12.8442 10.3613 12.5976 10.9821L13.4091 11.3046C13.6968 10.5805 13.8446 9.80516 13.8446 9.0225H12.9713ZM12.5976 10.9821C12.3509 11.6029 11.9899 12.1657 11.5359 12.639L12.1662 13.2435C12.6994 12.6876 13.1215 12.0286 13.4091 11.3046L12.5976 10.9821ZM11.5359 12.639C11.082 13.1123 10.5441 13.4867 9.95342 13.7418L10.2996 14.5435C10.9988 14.2416 11.6329 13.7995 12.1662 13.2435L11.5359 12.639ZM9.95342 13.7418C9.3628 13.9969 8.73045 14.1279 8.09232 14.1279V15.0012C8.85031 15.0012 9.60042 14.8455 10.2996 14.5435L9.95342 13.7418ZM20.8499 18.5615C20.4078 18.5615 19.9799 18.3786 19.6615 18.0466L19.0313 18.6511C19.5104 19.1506 20.1642 19.4348 20.8499 19.4348V18.5615ZM19.6615 18.0466C19.3425 17.714 19.1603 17.2592 19.1603 16.7813H18.287C18.287 17.4793 18.5528 18.1522 19.0313 18.6511L19.6615 18.0466ZM19.1603 16.7813C19.1603 16.3035 19.3425 15.8486 19.6615 15.5161L19.0313 14.9116C18.5528 15.4104 18.287 16.0833 18.287 16.7813H19.1603ZM19.6615 15.5161C19.9799 15.1841 20.4078 15.0012 20.8499 15.0012V14.1279C20.1642 14.1279 19.5104 14.412 19.0313 14.9116L19.6615 15.5161ZM20.8499 15.0012C21.292 15.0012 21.7199 15.1841 22.0383 15.5161L22.6685 14.9116C22.1894 14.412 21.5356 14.1279 20.8499 14.1279V15.0012ZM22.0383 15.5161C22.3573 15.8486 22.5395 16.3035 22.5395 16.7813H23.4128C23.4128 16.0833 23.147 15.4104 22.6685 14.9116L22.0383 15.5161ZM22.5395 16.7813C22.5395 17.2592 22.3573 17.714 22.0383 18.0466L22.6685 18.6511C23.147 18.1522 23.4128 17.4793 23.4128 16.7813H22.5395ZM22.0383 18.0466C21.7199 18.3786 21.292 18.5615 20.8499 18.5615V19.4348C21.5356 19.4348 22.1894 19.1506 22.6685 18.6511L22.0383 18.0466Z" fill="#3C8AFF" mask="url(#path-1-outside-1_686_8124)"/>
</svg>
