<svg width="238" height="175" viewBox="0 0 238 175" fill="none" xmlns="http://www.w3.org/2000/svg">
<path d="M118.884 174.882C184.541 174.882 237.767 171.774 237.767 167.941C237.767 164.108 184.541 161 118.884 161C53.226 161 0 164.108 0 167.941C0 171.774 53.226 174.882 118.884 174.882Z" fill="#F5F5F5"/>
<path d="M207.968 126.035H24.3842C23.921 126.035 23.4626 125.941 23.037 125.759C22.6115 125.576 22.2278 125.308 21.9096 124.971C21.5913 124.635 21.3453 124.237 21.1864 123.802C21.0276 123.367 20.9595 122.904 20.9861 122.441L27.1877 9.88649C27.2537 8.92009 27.681 8.01392 28.3846 7.34812C29.0882 6.68232 30.0165 6.30565 30.9851 6.29297H214.569C215.032 6.29221 215.491 6.38613 215.916 6.56899C216.342 6.75185 216.726 7.01978 217.044 7.35632C217.362 7.69285 217.608 8.0909 217.767 8.52601C217.926 8.96111 217.994 9.42408 217.967 9.88649L211.783 122.441C211.72 123.412 211.292 124.323 210.584 124.99C209.876 125.657 208.941 126.03 207.968 126.035Z" fill="#263238"/>
<path d="M130.732 25.4332H112.985C111.594 25.4502 110.215 25.1795 108.934 24.6382C107.653 24.0968 106.497 23.2965 105.54 22.2874C104.583 21.2783 103.844 20.0822 103.371 18.7742C102.898 17.4662 102.701 16.0746 102.791 14.6866L102.969 11.4074C103.159 8.60891 104.395 5.9844 106.432 4.05607C108.469 2.12773 111.157 1.03691 113.962 1.00065H131.7C133.091 0.984931 134.47 1.25647 135.75 1.79826C137.031 2.34005 138.186 3.14043 139.143 4.14926C140.1 5.15808 140.838 6.35364 141.312 7.66105C141.785 8.96845 141.984 10.3596 141.895 11.7472L141.716 15.0264C141.523 17.8221 140.287 20.4432 138.252 22.3705C136.218 24.2979 133.534 25.3909 130.732 25.4332Z" fill="#2E2E42"/>
<path d="M206.988 126.035H23.4038C22.9406 126.035 22.4821 125.941 22.0566 125.759C21.631 125.576 21.2473 125.308 20.9291 124.971C20.6109 124.635 20.3648 124.237 20.206 123.802C20.0472 123.367 19.979 122.904 20.0056 122.441L26.1817 9.88649C26.2478 8.92009 26.6751 8.01392 27.3786 7.34812C28.0822 6.68232 29.0106 6.30565 29.9791 6.29297H213.563C214.026 6.29221 214.485 6.38613 214.91 6.56899C215.336 6.75185 215.72 7.01978 216.038 7.35632C216.356 7.69285 216.602 8.0909 216.761 8.52601C216.92 8.96111 216.988 9.42408 216.961 9.88649L210.777 122.441C210.715 123.407 210.29 124.315 209.587 124.981C208.885 125.647 207.956 126.024 206.988 126.035Z" fill="#3C8AFF"/>
<path opacity="0.2" d="M26.3338 122.586C25.9625 122.59 25.5943 122.518 25.2523 122.373C24.9104 122.228 24.6021 122.014 24.3468 121.744C24.0915 121.475 23.8947 121.155 23.7688 120.806C23.6429 120.457 23.5907 120.085 23.6153 119.714L29.5026 12.6138C29.5518 11.842 29.8907 11.1174 30.4516 10.5849C31.0124 10.0525 31.7536 9.75151 32.5269 9.74237H210.682C211.054 9.73804 211.422 9.81055 211.764 9.95534C212.106 10.1001 212.414 10.3141 212.669 10.5837C212.925 10.8534 213.122 11.1729 213.247 11.5223C213.373 11.8717 213.426 12.2433 213.401 12.6138L207.514 119.714C207.464 120.488 207.124 121.213 206.562 121.746C205.999 122.279 205.256 122.579 204.481 122.586H26.3338Z" fill="#2E2E42"/>
<path opacity="0.1" d="M205.586 65.8195H151.938C151.623 65.8237 151.31 65.7625 151.019 65.6398C150.728 65.5171 150.466 65.3355 150.249 65.1064C150.032 64.8774 149.865 64.6059 149.758 64.309C149.651 64.0121 149.607 63.6962 149.628 63.3813L152.304 14.6266C152.306 14.5824 152.299 14.5382 152.284 14.4966C152.269 14.455 152.246 14.4168 152.216 14.3843C152.186 14.3519 152.149 14.3257 152.109 14.3075C152.069 14.2893 152.025 14.2794 151.981 14.2783C151.887 14.2802 151.798 14.3171 151.731 14.3815C151.663 14.446 151.622 14.5334 151.616 14.6266L148.94 63.3813C148.895 64.0323 148.609 64.6433 148.138 65.0944C147.666 65.5454 147.043 65.8041 146.391 65.8195H90.6446C90.329 65.8237 90.016 65.7625 89.7253 65.6398C89.4346 65.5171 89.1724 65.3355 88.9553 65.1064C88.7382 64.8774 88.5709 64.6059 88.464 64.309C88.357 64.0121 88.3127 63.6962 88.3339 63.3813L91.0099 14.6266C91.0122 14.5824 91.0056 14.5382 90.9905 14.4966C90.9754 14.455 90.9521 14.4168 90.922 14.3843C90.8919 14.3519 90.8556 14.3257 90.8153 14.3075C90.7749 14.2893 90.7313 14.2794 90.6871 14.2783C90.5937 14.2802 90.5044 14.3171 90.4368 14.3815C90.3691 14.446 90.3281 14.5334 90.3218 14.6266L87.6457 63.3813C87.6014 64.0323 87.3155 64.6433 86.844 65.0944C86.3725 65.5454 85.7495 65.8041 85.0971 65.8195H31.4321C31.3381 65.8194 31.2477 65.8555 31.1797 65.9204C31.1116 65.9853 31.0712 66.0739 31.0669 66.1678C31.0645 66.2116 31.0712 66.2554 31.0864 66.2966C31.1015 66.3377 31.125 66.3753 31.1552 66.4071C31.1854 66.4389 31.2218 66.4642 31.2621 66.4815C31.3024 66.4988 31.3458 66.5077 31.3897 66.5076H85.0122C85.3282 66.5046 85.6413 66.5668 85.9321 66.6905C86.2228 66.8142 86.4849 66.9966 86.7019 67.2263C86.9188 67.456 87.086 67.7281 87.1928 68.0254C87.2997 68.3228 87.344 68.639 87.3229 68.9543L84.6469 117.7C84.642 117.745 84.6468 117.791 84.6609 117.833C84.6751 117.876 84.6982 117.915 84.7288 117.948C84.7594 117.981 84.7968 118.007 84.8383 118.025C84.8799 118.042 84.9247 118.05 84.9697 118.049C85.0631 118.047 85.1524 118.01 85.22 117.946C85.2876 117.881 85.3287 117.794 85.335 117.7L88.0111 68.9543C88.0514 68.3011 88.3359 67.6869 88.808 67.2337C89.2801 66.7805 89.9053 66.5213 90.5597 66.5076H146.281C146.603 66.4937 146.924 66.548 147.224 66.6669C147.524 66.7857 147.796 66.9665 148.021 67.1974C148.246 67.4283 148.42 67.7041 148.532 68.0068C148.643 68.3096 148.69 68.6324 148.668 68.9543L145.992 117.7C145.987 117.745 145.992 117.791 146.006 117.833C146.02 117.876 146.043 117.915 146.074 117.948C146.104 117.981 146.142 118.007 146.183 118.025C146.225 118.042 146.27 118.05 146.315 118.049C146.408 118.047 146.497 118.01 146.565 117.946C146.632 117.881 146.673 117.794 146.68 117.7L149.356 68.9543C149.396 68.3011 149.681 67.6869 150.153 67.2337C150.625 66.7805 151.25 66.5213 151.904 66.5076H205.527C205.619 66.5059 205.707 66.4703 205.775 66.4076C205.842 66.3449 205.884 66.2595 205.892 66.1678C205.896 66.1247 205.891 66.0814 205.877 66.0403C205.863 65.9993 205.842 65.9614 205.813 65.9289C205.785 65.8964 205.75 65.87 205.711 65.8512C205.672 65.8324 205.63 65.8216 205.586 65.8195Z" fill="white"/>
<path opacity="0.4" d="M118.129 23.1143H96.5931L95.3867 45.0237L116.897 45.6014L118.129 23.1143Z" fill="#263238"/>
<path d="M115.8 44.6585L94.1797 43.6051C95.3706 36.2057 96.1223 28.7422 96.4309 21.2539L118.171 22.3073C117.822 29.798 117.031 37.2614 115.8 44.6585Z" fill="white"/>
<path opacity="0.4" d="M144.097 37.752L122.527 39.4L123.003 61.233L144.581 60.1626L144.097 37.752Z" fill="#263238"/>
<path d="M143.411 59.3132L121.68 59.9164C122.306 52.4806 122.487 45.0141 122.223 37.5567L144.073 36.9365C144.297 44.402 144.076 51.8741 143.411 59.3132Z" fill="#3C8AFF"/>
<path opacity="0.4" d="M81.1159 77.5864L41.3578 76.0742L37.7812 111.44L77.4544 113.887L81.1159 77.5864Z" fill="#263238"/>
<path d="M75.4718 112.289L35.6797 109.052C38.3243 97.1828 40.1691 85.149 41.2017 73.0322L81.2316 76.2605C80.1272 88.3863 78.2029 100.423 75.4718 112.289Z" fill="white"/>
<g style="mix-blend-mode:multiply" opacity="0.3">
<path d="M40.198 28.0659C39.9084 28.0676 39.6216 28.0099 39.3553 27.8962C39.089 27.7825 38.8488 27.6154 38.6497 27.4051C38.4506 27.1949 38.2968 26.946 38.1978 26.6739C38.0988 26.4018 38.0567 26.1122 38.0742 25.8232C38.1187 25.222 38.3866 24.6592 38.8253 24.2457C39.264 23.8322 39.8416 23.5979 40.4444 23.5889C40.7336 23.5871 41.02 23.6449 41.2859 23.7587C41.5518 23.8725 41.7915 24.0397 41.9899 24.2501C42.1883 24.4605 42.3413 24.7095 42.4394 24.9816C42.5374 25.2537 42.5784 25.5431 42.5597 25.8317C42.5172 26.4321 42.251 26.9948 41.8137 27.4085C41.3765 27.8222 40.7999 28.0568 40.198 28.0659Z" fill="#263238"/>
<path opacity="0.8" d="M75.3213 28.0666H47.7369C47.4477 28.0684 47.1612 28.0106 46.8953 27.8968C46.6294 27.7831 46.3898 27.6158 46.1914 27.4054C45.9929 27.195 45.8399 26.946 45.7419 26.6739C45.6439 26.4018 45.6029 26.1125 45.6216 25.8239C45.6601 25.2212 45.9248 24.6553 46.3627 24.2394C46.8006 23.8236 47.3794 23.5884 47.9833 23.5811H75.6101C75.8997 23.5794 76.1865 23.6372 76.4528 23.7508C76.7191 23.8645 76.9593 24.0316 77.1584 24.2419C77.3575 24.4521 77.5113 24.701 77.6103 24.9732C77.7093 25.2453 77.7514 25.5348 77.7339 25.8239C77.6909 26.4338 77.4178 27.0047 76.9699 27.4211C76.522 27.8374 75.9328 28.0681 75.3213 28.0666Z" fill="#263238"/>
<path d="M39.6634 37.8449C39.3735 37.8479 39.0861 37.791 38.8192 37.6777C38.5522 37.5645 38.3116 37.3974 38.1122 37.1869C37.9129 36.9763 37.7591 36.7269 37.6606 36.4543C37.562 36.1816 37.5208 35.8915 37.5396 35.6022C37.5804 34.9944 37.8505 34.4248 38.2952 34.0085C38.7399 33.5922 39.3261 33.3602 39.9352 33.3594C40.2244 33.3576 40.5109 33.4154 40.7768 33.5292C41.0427 33.643 41.2824 33.8102 41.4808 34.0206C41.6792 34.231 41.8322 34.48 41.9303 34.7521C42.0283 35.0242 42.0692 35.3136 42.0506 35.6022C42.0098 36.2085 41.7409 36.7769 41.298 37.193C40.8551 37.6091 40.2711 37.842 39.6634 37.8449Z" fill="#263238"/>
<path opacity="0.8" d="M79.675 37.8449H47.2058C46.9162 37.8466 46.6294 37.7889 46.3631 37.6752C46.0968 37.5615 45.8566 37.3944 45.6575 37.1841C45.4584 36.9739 45.3046 36.725 45.2056 36.4529C45.1066 36.1808 45.0645 35.8912 45.082 35.6022C45.1244 34.9995 45.3915 34.4346 45.8304 34.0193C46.2693 33.6041 46.848 33.3686 47.4522 33.3594H79.9213C80.2109 33.3577 80.4977 33.4155 80.764 33.5292C81.0304 33.6428 81.2705 33.81 81.4696 34.0202C81.6687 34.2305 81.8225 34.4794 81.9215 34.7515C82.0205 35.0236 82.0626 35.3131 82.0452 35.6022C82.0027 36.2049 81.7356 36.7697 81.2967 37.185C80.8578 37.6003 80.2791 37.8358 79.675 37.8449Z" fill="#263238"/>
<path d="M39.0846 47.6139C38.7958 47.6168 38.5095 47.5601 38.2436 47.4473C37.9777 47.3345 37.738 47.168 37.5394 46.9583C37.3409 46.7485 37.1877 46.5001 37.0896 46.2284C36.9915 45.9568 36.9505 45.6678 36.9693 45.3796C37.0078 44.7769 37.2725 44.211 37.7104 43.7952C38.1483 43.3793 38.7271 43.1442 39.331 43.1368C39.6209 43.1339 39.9083 43.1908 40.1752 43.304C40.4421 43.4173 40.6828 43.5844 40.8821 43.7949C41.0815 44.0054 41.2352 44.2548 41.3338 44.5275C41.4323 44.8002 41.4735 45.0903 41.4548 45.3796C41.4122 45.9815 41.1448 46.5454 40.7057 46.9593C40.2666 47.3732 39.688 47.6068 39.0846 47.6139Z" fill="#263238"/>
<path opacity="0.8" d="M62.4686 47.6139H46.6588C46.37 47.6168 46.0837 47.5601 45.8178 47.4473C45.5519 47.3345 45.3122 47.168 45.1137 46.9583C44.9151 46.7485 44.762 46.5001 44.6638 46.2284C44.5657 45.9568 44.5248 45.6678 44.5435 45.3796C44.582 44.7769 44.8467 44.211 45.2846 43.7952C45.7225 43.3793 46.3013 43.1442 46.9052 43.1368H62.715C63.0046 43.1338 63.2916 43.1907 63.5581 43.3041C63.8246 43.4174 64.0648 43.5847 64.2635 43.7953C64.4621 44.006 64.6151 44.2555 64.7127 44.5281C64.8102 44.8008 64.8503 45.0907 64.8303 45.3796C64.7898 45.9808 64.5242 46.5446 64.0865 46.9587C63.6488 47.3728 63.0711 47.6067 62.4686 47.6139Z" fill="#263238"/>
<path opacity="0.8" d="M77.1053 57.3928H61.2955C61.0063 57.3946 60.7198 57.3368 60.4539 57.223C60.188 57.1093 59.9484 56.942 59.75 56.7316C59.5515 56.5212 59.3985 56.2722 59.3005 56.0001C59.2025 55.728 59.1615 55.4386 59.1802 55.15C59.2206 54.5481 59.4859 53.9833 59.9234 53.5678C60.3609 53.1524 60.9386 52.9166 61.5419 52.9073H77.3517C77.6409 52.9055 77.9274 52.9633 78.1933 53.0771C78.4592 53.1908 78.6988 53.3581 78.8972 53.5685C79.0957 53.7789 79.2487 54.0279 79.3467 54.3C79.4447 54.5721 79.4857 54.8614 79.467 55.15C79.4266 55.752 79.1613 56.3168 78.7238 56.7323C78.2863 57.1477 77.7086 57.3835 77.1053 57.3928Z" fill="#263238"/>
<path d="M38.5807 57.3928C38.2915 57.3946 38.005 57.3368 37.7391 57.223C37.4732 57.1093 37.2336 56.942 37.0351 56.7316C36.8367 56.5212 36.6837 56.2722 36.5857 56.0001C36.4876 55.728 36.4467 55.4386 36.4653 55.15C36.5058 54.5481 36.7711 53.9833 37.2086 53.5678C37.6461 53.1524 38.2238 52.9166 38.827 52.9073C39.1162 52.9055 39.4027 52.9633 39.6686 53.0771C39.9345 53.1908 40.1742 53.3581 40.3726 53.5685C40.571 53.7789 40.724 54.0279 40.8221 54.3C40.9201 54.5721 40.961 54.8614 40.9424 55.15C40.9019 55.752 40.6366 56.3168 40.1991 56.7323C39.7617 57.1477 39.1839 57.3835 38.5807 57.3928Z" fill="#263238"/>
<path opacity="0.8" d="M53.4211 57.3929H46.1236C45.8344 57.3946 45.548 57.3369 45.2821 57.2231C45.0162 57.1093 44.7765 56.9421 44.5781 56.7317C44.3796 56.5213 44.2266 56.2723 44.1286 56.0002C44.0306 55.7281 43.9896 55.4387 44.0083 55.1501C44.0487 54.5481 44.314 53.9834 44.7515 53.5679C45.189 53.1524 45.7667 52.9166 46.37 52.9073H53.6675C53.9574 52.9044 54.2448 52.9613 54.5117 53.0746C54.7786 53.1878 55.0193 53.3549 55.2186 53.5654C55.418 53.7759 55.5718 54.0254 55.6703 54.298C55.7688 54.5707 55.81 54.8608 55.7913 55.1501C55.7508 55.7535 55.4843 56.3195 55.045 56.7352C54.6057 57.1508 54.0259 57.3857 53.4211 57.3929Z" fill="#263238"/>
</g>
<path d="M107.158 86.4805H96.4619L94.9922 113.249H105.688L107.158 86.4805Z" fill="#3C8AFF"/>
<path d="M123.395 92.002H112.691L111.527 113.249H122.223L123.395 92.002Z" fill="#3C8AFF"/>
<path d="M140.7 77.7471H130.004L128.059 113.249H138.754L140.7 77.7471Z" fill="#3C8AFF"/>
<path d="M98.8471 101.586C97.7852 101.586 96.7148 101.586 95.6358 101.501C93.4163 101.463 91.2223 101.02 89.1624 100.192C88.995 100.116 88.8645 99.9772 88.7993 99.8054C88.734 99.6335 88.7393 99.4428 88.8141 99.2749C88.8516 99.192 88.9052 99.1174 88.9718 99.0554C89.0384 98.9933 89.1166 98.9451 89.2019 98.9135C89.2872 98.8819 89.378 98.8675 89.4689 98.8712C89.5598 98.8749 89.6491 98.8966 89.7316 98.9351C91.6265 99.6849 93.6408 100.088 95.6783 100.124C108.515 100.787 119.754 97.4399 131.07 89.6072C134.601 87.153 137.708 84.1402 140.27 80.6871C140.319 80.607 140.384 80.5376 140.46 80.4834C140.537 80.4291 140.623 80.391 140.715 80.3715C140.807 80.352 140.902 80.3514 140.993 80.3699C141.085 80.3883 141.173 80.4253 141.25 80.4786C141.327 80.532 141.392 80.6005 141.442 80.6801C141.492 80.7596 141.525 80.8485 141.539 80.9412C141.553 81.0339 141.548 81.1285 141.524 81.2192C141.5 81.3099 141.458 81.3948 141.4 81.4687C138.763 85.0563 135.544 88.1775 131.877 90.7031C121.258 98.1025 110.681 101.586 98.8471 101.586Z" fill="white"/>
<path d="M143.028 85.9712C142.914 85.9714 142.803 85.9437 142.703 85.8904C142.603 85.8372 142.517 85.76 142.454 85.6659C142.391 85.5718 142.353 85.4635 142.341 85.3508C142.33 85.2381 142.347 85.1243 142.39 85.0197C143.362 82.6654 143.57 80.0652 142.985 77.5863C140.303 79.3927 137.438 80.9132 134.439 82.1228C134.355 82.16 134.264 82.1799 134.172 82.1813C134.08 82.1828 133.988 82.1657 133.903 82.1312C133.817 82.0967 133.74 82.0454 133.675 81.9803C133.61 81.9153 133.558 81.8378 133.523 81.7525C133.489 81.6672 133.471 81.5758 133.473 81.4838C133.474 81.3917 133.494 81.3008 133.531 81.2165C133.568 81.1322 133.621 81.0562 133.688 80.993C133.755 80.9298 133.834 80.8806 133.921 80.8485C137.121 79.5555 140.162 77.8994 142.985 75.9127C143.073 75.8535 143.174 75.8154 143.279 75.8012C143.385 75.787 143.492 75.797 143.593 75.8307C143.694 75.8643 143.786 75.9206 143.861 75.9951C143.937 76.0697 143.995 76.1607 144.03 76.261C145.018 79.3008 144.889 82.5936 143.665 85.5464C143.613 85.6723 143.524 85.78 143.411 85.8556C143.297 85.9312 143.164 85.9714 143.028 85.9712Z" fill="white"/>
<path d="M199.358 59.5843H159.566C159.237 59.5873 158.911 59.5224 158.608 59.3935C158.305 59.2646 158.033 59.0746 157.807 58.8353C157.581 58.596 157.407 58.3125 157.296 58.0029C157.185 57.6932 157.139 57.3639 157.162 57.0357L159.014 23.3942C159.058 22.7231 159.354 22.0934 159.842 21.6306C160.33 21.1678 160.975 20.9057 161.647 20.8965H201.448C201.776 20.8946 202.101 20.9604 202.403 21.0898C202.705 21.2192 202.976 21.4095 203.201 21.6487C203.426 21.8878 203.599 22.1708 203.71 22.4799C203.82 22.789 203.866 23.1176 203.844 23.4451L201.992 57.0866C201.947 57.7577 201.651 58.3873 201.163 58.8502C200.675 59.313 200.031 59.5751 199.358 59.5843ZM161.647 21.5931C161.149 21.5987 160.671 21.7928 160.31 22.1364C159.949 22.48 159.732 22.9477 159.702 23.4451L157.85 57.0866C157.835 57.3189 157.867 57.5517 157.946 57.7708C158.025 57.9899 158.147 58.1904 158.307 58.3601C158.466 58.5298 158.658 58.6649 158.872 58.7571C159.086 58.8493 159.316 58.8966 159.549 58.8961H199.341C199.839 58.8906 200.317 58.6965 200.678 58.3528C201.039 58.0092 201.256 57.5416 201.286 57.0442L203.138 23.4026C203.155 23.1687 203.122 22.934 203.043 22.7133C202.964 22.4925 202.841 22.2905 202.68 22.1199C202.519 21.9511 202.325 21.8172 202.11 21.7266C201.895 21.636 201.664 21.5905 201.431 21.5931H161.647Z" fill="#3C8AFF"/>
<path d="M203.122 30.5556H158.946C158.864 30.5427 158.79 30.501 158.736 30.4379C158.682 30.3748 158.652 30.2946 158.652 30.2116C158.652 30.1286 158.682 30.0484 158.736 29.9853C158.79 29.9222 158.864 29.8804 158.946 29.8675H203.122C203.172 29.8597 203.223 29.8627 203.271 29.8764C203.32 29.8901 203.364 29.9141 203.403 29.9468C203.441 29.9795 203.472 30.0201 203.493 30.0658C203.514 30.1115 203.525 30.1613 203.525 30.2116C203.525 30.2619 203.514 30.3116 203.493 30.3574C203.472 30.4031 203.441 30.4437 203.403 30.4764C203.364 30.5091 203.32 30.5331 203.271 30.5468C203.223 30.5605 203.172 30.5635 203.122 30.5556Z" fill="#3C8AFF"/>
<path d="M167.819 59.5858C167.728 59.5793 167.644 59.5373 167.583 59.4691C167.523 59.4008 167.492 59.3115 167.497 59.2205L169.06 30.192C169.062 30.1466 169.073 30.1021 169.093 30.0611C169.112 30.0201 169.14 29.9834 169.174 29.9533C169.208 29.9232 169.248 29.9003 169.291 29.8858C169.334 29.8714 169.38 29.8657 169.425 29.8691C169.516 29.8757 169.601 29.9176 169.661 29.9859C169.721 30.0542 169.752 30.1434 169.748 30.2345L168.159 59.2715C168.151 59.3564 168.112 59.4353 168.049 59.4933C167.986 59.5512 167.905 59.5841 167.819 59.5858Z" fill="#3C8AFF"/>
<path d="M198.072 34.0049H174.107C174.025 33.9919 173.95 33.9502 173.896 33.8871C173.842 33.824 173.813 33.7438 173.812 33.6608C173.813 33.5778 173.842 33.4976 173.896 33.4345C173.95 33.3714 174.025 33.3297 174.107 33.3167H198.072C198.122 33.3089 198.172 33.3119 198.221 33.3256C198.269 33.3393 198.314 33.3633 198.352 33.396C198.391 33.4287 198.421 33.4693 198.442 33.5151C198.464 33.5608 198.474 33.6105 198.474 33.6608C198.474 33.7111 198.464 33.7609 198.442 33.8066C198.421 33.8523 198.391 33.8929 198.352 33.9256C198.314 33.9583 198.269 33.9823 198.221 33.996C198.172 34.0097 198.122 34.0127 198.072 34.0049Z" fill="#3C8AFF"/>
<path d="M194.455 38.2353H173.871C173.822 38.2432 173.771 38.2401 173.722 38.2265C173.674 38.2128 173.629 38.1888 173.591 38.1561C173.552 38.1234 173.522 38.0827 173.501 38.037C173.48 37.9913 173.469 37.9416 173.469 37.8913C173.469 37.841 173.48 37.7912 173.501 37.7455C173.522 37.6998 173.552 37.6592 173.591 37.6265C173.629 37.5938 173.674 37.5698 173.722 37.5561C173.771 37.5424 173.822 37.5394 173.871 37.5472H194.455C194.505 37.5394 194.556 37.5424 194.604 37.5561C194.653 37.5698 194.698 37.5938 194.736 37.6265C194.774 37.6592 194.805 37.6998 194.826 37.7455C194.847 37.7912 194.858 37.841 194.858 37.8913C194.858 37.9416 194.847 37.9913 194.826 38.037C194.805 38.0827 194.774 38.1234 194.736 38.1561C194.698 38.1888 194.653 38.2128 194.604 38.2265C194.556 38.2401 194.505 38.2432 194.455 38.2353Z" fill="#3C8AFF"/>
<path d="M185.611 42.6025H173.633C173.583 42.6104 173.532 42.6073 173.484 42.5936C173.436 42.5799 173.391 42.5559 173.352 42.5232C173.314 42.4905 173.283 42.4499 173.262 42.4042C173.241 42.3585 173.23 42.3088 173.23 42.2585C173.23 42.2081 173.241 42.1584 173.262 42.1127C173.283 42.067 173.314 42.0264 173.352 41.9937C173.391 41.961 173.436 41.937 173.484 41.9233C173.532 41.9096 173.583 41.9066 173.633 41.9144H185.611C185.661 41.9066 185.712 41.9096 185.76 41.9233C185.809 41.937 185.854 41.961 185.892 41.9937C185.93 42.0264 185.961 42.067 185.982 42.1127C186.003 42.1584 186.014 42.2081 186.014 42.2585C186.014 42.3088 186.003 42.3585 185.982 42.4042C185.961 42.4499 185.93 42.4905 185.892 42.5232C185.854 42.5559 185.809 42.5799 185.76 42.5936C185.712 42.6073 185.661 42.6104 185.611 42.6025Z" fill="#3C8AFF"/>
<path d="M187.785 51.1308H173.164C173.115 51.1387 173.064 51.1357 173.015 51.122C172.967 51.1083 172.922 51.0842 172.884 51.0516C172.845 51.0189 172.815 50.9783 172.794 50.9326C172.773 50.8868 172.762 50.8371 172.762 50.7868C172.762 50.7365 172.773 50.6867 172.794 50.641C172.815 50.5953 172.845 50.5547 172.884 50.522C172.922 50.4893 172.967 50.4653 173.015 50.4516C173.064 50.4379 173.115 50.4349 173.164 50.4427H187.785C187.834 50.4349 187.885 50.4379 187.934 50.4516C187.982 50.4653 188.027 50.4893 188.065 50.522C188.104 50.5547 188.134 50.5953 188.155 50.641C188.176 50.6867 188.187 50.7365 188.187 50.7868C188.187 50.8371 188.176 50.8868 188.155 50.9326C188.134 50.9783 188.104 51.0189 188.065 51.0516C188.027 51.0842 187.982 51.1083 187.934 51.122C187.885 51.1357 187.834 51.1387 187.785 51.1308Z" fill="#3C8AFF"/>
<path d="M184.91 55.4977H172.923C172.841 55.4848 172.766 55.443 172.712 55.3799C172.659 55.3169 172.629 55.2366 172.629 55.1536C172.629 55.0707 172.659 54.9904 172.712 54.9273C172.766 54.8642 172.841 54.8225 172.923 54.8096H184.91C184.992 54.8225 185.067 54.8642 185.12 54.9273C185.174 54.9904 185.204 55.0707 185.204 55.1536C185.204 55.2366 185.174 55.3169 185.12 55.3799C185.067 55.443 184.992 55.4848 184.91 55.4977Z" fill="#3C8AFF"/>
<path d="M191.918 55.498H188.086C188.036 55.5059 187.986 55.5028 187.937 55.4892C187.889 55.4755 187.844 55.4514 187.806 55.4187C187.767 55.386 187.737 55.3454 187.716 55.2997C187.694 55.254 187.684 55.2043 187.684 55.154C187.684 55.1036 187.694 55.0539 187.716 55.0082C187.737 54.9625 187.767 54.9219 187.806 54.8892C187.844 54.8565 187.889 54.8325 187.937 54.8188C187.986 54.8051 188.036 54.8021 188.086 54.8099H191.918C191.967 54.8021 192.018 54.8051 192.066 54.8188C192.115 54.8325 192.16 54.8565 192.198 54.8892C192.236 54.9219 192.267 54.9625 192.288 55.0082C192.309 55.0539 192.32 55.1036 192.32 55.154C192.32 55.2043 192.309 55.254 192.288 55.2997C192.267 55.3454 192.236 55.386 192.198 55.4187C192.16 55.4514 192.115 55.4755 192.066 55.4892C192.018 55.5028 191.967 55.5059 191.918 55.498Z" fill="#3C8AFF"/>
<path d="M195.844 46.8411H173.399C173.307 46.8411 173.218 46.8044 173.153 46.7391C173.087 46.6738 173.051 46.5852 173.051 46.4928C173.051 46.4005 173.087 46.3119 173.153 46.2465C173.218 46.1812 173.307 46.1445 173.399 46.1445H195.844C195.936 46.1445 196.025 46.1812 196.09 46.2465C196.155 46.3119 196.192 46.4005 196.192 46.4928C196.192 46.5852 196.155 46.6738 196.09 46.7391C196.025 46.8044 195.936 46.8411 195.844 46.8411Z" fill="#3C8AFF"/>
<path d="M174.921 108.542C169.722 108.542 165.466 107.005 162.824 104.15C159.995 101.1 158.823 96.3005 159.604 90.9825C159.883 88.0312 160.981 85.2167 162.775 82.8568C164.569 80.4969 166.987 78.6857 169.756 77.6278C172.998 76.1647 176.522 75.4307 180.078 75.4777C183.635 75.5247 187.138 76.3514 190.34 77.8996C193.135 79.3014 194.885 81.0769 195.548 83.1753C195.603 83.3499 195.587 83.5393 195.502 83.7018C195.46 83.7822 195.403 83.8537 195.334 83.912C195.264 83.9703 195.184 84.0144 195.098 84.0418C194.923 84.097 194.734 84.0805 194.571 83.9961C194.409 83.9117 194.286 83.7661 194.231 83.5915C193.687 81.8925 192.167 80.3633 189.72 79.1315C186.7 77.6749 183.398 76.8979 180.046 76.8554C176.693 76.8128 173.372 77.5056 170.317 78.8851C167.761 79.8508 165.529 81.5169 163.876 83.6925C162.223 85.8681 161.217 88.4652 160.972 91.1864C160.25 96.0882 161.295 100.472 163.835 103.207C167.36 107.022 173.18 107.293 176.374 107.124C182.27 106.792 187.333 104.736 190.646 101.33C194.52 97.337 195.607 91.3732 193.195 87.4484C192.891 86.8831 192.467 86.3919 191.951 86.0101C191.436 85.6282 190.842 85.3651 190.213 85.2396C190.038 85.2133 189.881 85.121 189.772 84.9817C189.664 84.8424 189.613 84.6668 189.631 84.4911C189.648 84.3155 189.732 84.1533 189.866 84.0381C190 83.9228 190.172 83.8633 190.349 83.8719C191.193 84.003 191.995 84.3283 192.693 84.8221C193.39 85.316 193.963 85.9649 194.367 86.7178C197.119 91.1694 195.956 97.8552 191.657 102.29C188.097 105.951 182.711 108.152 176.467 108.5C175.932 108.542 175.422 108.542 174.921 108.542Z" fill="white"/>
</svg>
