<svg width="22" height="29" viewBox="0 0 22 29" fill="none" xmlns="http://www.w3.org/2000/svg">
<path d="M12.8413 7.68662V0.263672H1.92517C1.19925 0.263672 0.615234 0.847683 0.615234 1.5736V26.8989C0.615234 27.6249 1.19925 28.2089 1.92517 28.2089H20.2642C20.9901 28.2089 21.5741 27.6249 21.5741 26.8989V8.99655H14.1512C13.4307 8.99655 12.8413 8.40708 12.8413 7.68662ZM16.5817 17.4827L17.199 18.1C17.5401 18.4412 17.5401 18.9941 17.199 19.3352L15.567 20.9671L17.2077 22.6078C17.5488 22.949 17.5488 23.5019 17.2077 23.843L16.5904 24.4603C16.2493 24.8014 15.6964 24.8014 15.3552 24.4603L13.7146 22.8191L12.0739 24.4597C11.7327 24.8009 11.1798 24.8009 10.8387 24.4597L10.2214 23.8424C9.88027 23.5013 9.88027 22.9484 10.2214 22.6073L11.8621 20.9666L8.62437 17.7294H7.60154V20.3493C7.60154 20.8318 7.21074 21.2226 6.72825 21.2226H5.85496C5.37247 21.2226 4.98167 20.8318 4.98167 20.3493V11.6164C4.98167 11.1339 5.37247 10.7431 5.85496 10.7431H10.2214C12.1508 10.7431 13.7146 12.3069 13.7146 14.2363C13.7146 15.5582 12.9712 16.6951 11.8883 17.2884L13.7146 19.1147L15.3465 17.4827C15.6876 17.1416 16.2405 17.1416 16.5817 17.4827ZM10.2214 15.1096H7.60154V13.363H10.2214C10.7028 13.363 11.0947 13.7549 11.0947 14.2363C11.0947 14.7177 10.7028 15.1096 10.2214 15.1096ZM21.5741 6.91703V7.24997H14.5878V0.263672H14.9208C15.2701 0.263672 15.603 0.400123 15.8486 0.645735L21.1921 5.99462C21.4377 6.24023 21.5741 6.57318 21.5741 6.91703Z" fill="#3C8AFF"/>
</svg>
