<svg width="311" height="240" viewBox="0 0 311 240" fill="none" xmlns="http://www.w3.org/2000/svg">
<g opacity="0.5">
<path d="M4.65414 91.91H4.08414C3.91414 92.66 3.22414 93.29 2.27414 93.37V93.89C2.95414 93.88 3.73414 93.48 4.04414 93.06V99H4.65414V91.91ZM5.75141 97.25H9.31141V99H9.91141V97.25H11.1714V96.69H9.91141V91.91H9.01141L5.75141 96.52V97.25ZM9.31141 96.69H6.33141L9.31141 92.47V96.69ZM12.6861 95.46C12.6861 93.68 13.3061 92.33 14.7461 92.33C16.1761 92.33 16.8061 93.69 16.8061 95.46C16.8061 97.23 16.1761 98.58 14.7461 98.58C13.3061 98.58 12.6861 97.24 12.6861 95.46ZM12.0761 95.46C12.0761 97.24 12.7361 99.13 14.7461 99.13C16.7461 99.13 17.4161 97.24 17.4161 95.46C17.4161 93.68 16.7461 91.78 14.7461 91.78C12.7361 91.78 12.0761 93.68 12.0761 95.46Z" fill="#2E2E42"/>
<path d="M4.48813 62.91H3.91813C3.74813 63.66 3.05813 64.29 2.10813 64.37V64.89C2.78813 64.88 3.56813 64.48 3.87813 64.06V70H4.48813V62.91ZM6.63539 67.76C6.63539 66.71 7.49539 65.92 8.51539 65.92C9.52539 65.92 10.3554 66.62 10.3554 67.76C10.3554 68.86 9.51539 69.59 8.49539 69.59C7.51539 69.59 6.63539 68.86 6.63539 67.76ZM8.60539 65.37C7.60539 65.37 6.79539 65.87 6.42539 66.73C6.46539 64.96 7.37539 63.35 9.25539 63.35C9.86539 63.35 10.3154 63.51 10.6054 63.7L10.8054 63.17C10.4654 62.95 9.93539 62.78 9.28539 62.78C7.43539 62.78 5.83539 64.14 5.83539 66.83C5.83539 68.99 6.98539 70.13 8.48539 70.13C9.81539 70.13 10.9854 69.21 10.9854 67.77C10.9854 66.29 9.96539 65.37 8.60539 65.37ZM12.6861 66.46C12.6861 64.68 13.3061 63.33 14.7461 63.33C16.1761 63.33 16.8061 64.69 16.8061 66.46C16.8061 68.23 16.1761 69.58 14.7461 69.58C13.3061 69.58 12.6861 68.24 12.6861 66.46ZM12.0761 66.46C12.0761 68.24 12.7361 70.13 14.7461 70.13C16.7461 70.13 17.4161 68.24 17.4161 66.46C17.4161 64.68 16.7461 62.78 14.7461 62.78C12.7361 62.78 12.0761 64.68 12.0761 66.46Z" fill="#2E2E42"/>
<path d="M4.15219 34.91H3.58219C3.41219 35.66 2.72219 36.29 1.77219 36.37V36.89C2.45219 36.88 3.23219 36.48 3.54219 36.06V42H4.15219V34.91ZM7.96945 42.13C9.51945 42.13 10.4195 41.26 10.4195 40.17C10.4195 39.28 9.76945 38.6 8.89945 38.37C9.66945 38.16 10.2595 37.5 10.2595 36.68C10.2595 35.59 9.30945 34.78 7.96945 34.78C6.61945 34.78 5.67945 35.59 5.67945 36.68C5.67945 37.51 6.26945 38.16 7.02945 38.37C6.15945 38.6 5.50945 39.28 5.50945 40.17C5.50945 41.26 6.41945 42.13 7.96945 42.13ZM7.96945 38.11C6.97945 38.11 6.28945 37.52 6.28945 36.7C6.28945 35.9 6.92945 35.3 7.96945 35.3C8.99945 35.3 9.63945 35.9 9.63945 36.7C9.63945 37.52 8.94945 38.11 7.96945 38.11ZM7.96945 41.58C6.81945 41.58 6.13945 40.94 6.13945 40.12C6.13945 39.29 6.79945 38.64 7.96945 38.64C9.12945 38.64 9.78945 39.29 9.78945 40.12C9.78945 40.94 9.10945 41.58 7.96945 41.58ZM12.1939 38.46C12.1939 36.68 12.8139 35.33 14.2539 35.33C15.6839 35.33 16.3139 36.69 16.3139 38.46C16.3139 40.23 15.6839 41.58 14.2539 41.58C12.8139 41.58 12.1939 40.24 12.1939 38.46ZM11.5839 38.46C11.5839 40.24 12.2439 42.13 14.2539 42.13C16.2539 42.13 16.9239 40.24 16.9239 38.46C16.9239 36.68 16.2539 34.78 14.2539 34.78C12.2439 34.78 11.5839 36.68 11.5839 38.46Z" fill="#2E2E42"/>
<path d="M5.57277 6.52C5.37277 5.62 4.71277 4.78 3.26277 4.78C2.09277 4.78 1.03277 5.68 1.03277 6.78C1.03277 7.79 1.72277 8.39 2.67277 8.61L3.74277 8.86C4.55277 9.05 5.01277 9.53 5.01277 10.19C5.01277 10.96 4.38277 11.56 3.29277 11.56C2.12277 11.56 1.43277 10.75 1.34277 9.83L0.752773 10.02C0.872773 11.1 1.73277 12.13 3.29277 12.13C4.72277 12.13 5.64277 11.23 5.64277 10.14C5.64277 9.14 4.96277 8.5 3.86277 8.24L2.78277 7.99C2.06277 7.82 1.66277 7.38 1.66277 6.74C1.66277 5.91 2.43277 5.34 3.28277 5.34C4.34277 5.34 4.86277 5.99 5.01277 6.72L5.57277 6.52ZM8.70848 8.97V12H9.32848V8.97L11.8085 4.91H11.0685L9.01848 8.38L6.97848 4.91H6.22848L8.70848 8.97ZM17.0669 6.52C16.8669 5.62 16.2069 4.78 14.7569 4.78C13.5869 4.78 12.5269 5.68 12.5269 6.78C12.5269 7.79 13.2169 8.39 14.1669 8.61L15.2369 8.86C16.0469 9.05 16.5069 9.53 16.5069 10.19C16.5069 10.96 15.8769 11.56 14.7869 11.56C13.6169 11.56 12.9269 10.75 12.8369 9.83L12.2469 10.02C12.3669 11.1 13.2269 12.13 14.7869 12.13C16.2169 12.13 17.1369 11.23 17.1369 10.14C17.1369 9.14 16.4569 8.5 15.3569 8.24L14.2769 7.99C13.5569 7.82 13.1569 7.38 13.1569 6.74C13.1569 5.91 13.9269 5.34 14.7769 5.34C15.8369 5.34 16.3569 5.99 16.5069 6.72L17.0669 6.52Z" fill="#2E2E42"/>
<path d="M4.92758 127.91H4.35758C4.18758 128.66 3.49758 129.29 2.54758 129.37V129.89C3.22758 129.88 4.00758 129.48 4.31758 129.06V135H4.92758V127.91ZM10.9548 135V134.42H7.01484C7.11484 133.78 7.53484 133.32 8.00484 133C9.23484 132.17 10.8648 131.43 10.8648 129.86C10.8648 128.73 10.0648 127.78 8.63484 127.78C7.28484 127.78 6.29484 128.75 6.29484 130C6.29484 130.08 6.30484 130.23 6.31484 130.32L6.93484 130.41C6.91484 130.29 6.91484 130.18 6.91484 130.07C6.91484 129.03 7.59484 128.33 8.63484 128.33C9.66484 128.33 10.2348 129.04 10.2348 129.87C10.2348 130.57 9.76484 131.14 9.08484 131.6L8.03484 132.31C6.86484 133.1 6.28484 133.9 6.26484 135H10.9548ZM12.6861 131.46C12.6861 129.68 13.3061 128.33 14.7461 128.33C16.1761 128.33 16.8061 129.69 16.8061 131.46C16.8061 133.23 16.1761 134.58 14.7461 134.58C13.3061 134.58 12.6861 133.24 12.6861 131.46ZM12.0761 131.46C12.0761 133.24 12.7361 135.13 14.7461 135.13C16.7461 135.13 17.4161 133.24 17.4161 131.46C17.4161 129.68 16.7461 127.78 14.7461 127.78C12.7361 127.78 12.0761 129.68 12.0761 131.46Z" fill="#2E2E42"/>
<path d="M10.2952 170.15V170.3C10.2852 172.41 9.39516 173.57 7.63516 173.57C7.13516 173.57 6.54516 173.4 6.18516 173.17L5.95516 173.7C6.36516 173.97 7.06516 174.13 7.62516 174.13C9.76516 174.13 10.9152 172.75 10.9152 170.08C10.9152 167.93 9.80516 166.78 8.27516 166.78C6.96516 166.78 5.79516 167.75 5.79516 169.16C5.79516 170.62 6.95516 171.52 8.17516 171.52C9.20516 171.52 10.0752 170.94 10.2952 170.15ZM10.1152 169.15C10.1152 170.25 9.24516 170.96 8.26516 170.96C7.27516 170.96 6.42516 170.26 6.42516 169.15C6.42516 168.06 7.30516 167.34 8.26516 167.34C9.23516 167.34 10.1152 168.06 10.1152 169.15ZM12.6861 170.46C12.6861 168.68 13.3061 167.33 14.7461 167.33C16.1761 167.33 16.8061 168.69 16.8061 170.46C16.8061 172.23 16.1761 173.58 14.7461 173.58C13.3061 173.58 12.6861 172.24 12.6861 170.46ZM12.0761 170.46C12.0761 172.24 12.7361 174.13 14.7461 174.13C16.7461 174.13 17.4161 172.24 17.4161 170.46C17.4161 168.68 16.7461 166.78 14.7461 166.78C12.7361 166.78 12.0761 168.68 12.0761 170.46Z" fill="#2E2E42"/>
<path d="M11.3764 196.91H6.32641V197.48H10.7164C9.76641 198.39 7.87641 200.42 7.51641 204H8.15641C8.51641 200.7 10.0364 198.78 11.3764 197.54V196.91ZM12.6861 200.46C12.6861 198.68 13.3061 197.33 14.7461 197.33C16.1761 197.33 16.8061 198.69 16.8061 200.46C16.8061 202.23 16.1761 203.58 14.7461 203.58C13.3061 203.58 12.6861 202.24 12.6861 200.46ZM12.0761 200.46C12.0761 202.24 12.7361 204.13 14.7461 204.13C16.7461 204.13 17.4161 202.24 17.4161 200.46C17.4161 198.68 16.7461 196.78 14.7461 196.78C12.7361 196.78 12.0761 198.68 12.0761 200.46Z" fill="#2E2E42"/>
</g>
<g opacity="0.5">
<path d="M27.5307 233.25H31.0907V235H31.6907V233.25H32.9507V232.69H31.6907V227.91H30.7907L27.5307 232.52V233.25ZM31.0907 232.69H28.1107L31.0907 228.47V232.69ZM34.4654 231.46C34.4654 229.68 35.0854 228.33 36.5254 228.33C37.9554 228.33 38.5854 229.69 38.5854 231.46C38.5854 233.23 37.9554 234.58 36.5254 234.58C35.0854 234.58 34.4654 233.24 34.4654 231.46ZM33.8554 231.46C33.8554 233.24 34.5154 235.13 36.5254 235.13C38.5254 235.13 39.1954 233.24 39.1954 231.46C39.1954 229.68 38.5254 227.78 36.5254 227.78C34.5154 227.78 33.8554 229.68 33.8554 231.46Z" fill="#2E2E42"/>
<path d="M94.4977 232.76C94.4977 231.71 95.3577 230.92 96.3777 230.92C97.3877 230.92 98.2177 231.62 98.2177 232.76C98.2177 233.86 97.3777 234.59 96.3577 234.59C95.3777 234.59 94.4977 233.86 94.4977 232.76ZM96.4677 230.37C95.4677 230.37 94.6577 230.87 94.2877 231.73C94.3277 229.96 95.2377 228.35 97.1177 228.35C97.7277 228.35 98.1777 228.51 98.4677 228.7L98.6677 228.17C98.3277 227.95 97.7977 227.78 97.1477 227.78C95.2977 227.78 93.6977 229.14 93.6977 231.83C93.6977 233.99 94.8477 235.13 96.3477 235.13C97.6777 235.13 98.8477 234.21 98.8477 232.77C98.8477 231.29 97.8277 230.37 96.4677 230.37ZM100.548 231.46C100.548 229.68 101.168 228.33 102.608 228.33C104.038 228.33 104.668 229.69 104.668 231.46C104.668 233.23 104.038 234.58 102.608 234.58C101.168 234.58 100.548 233.24 100.548 231.46ZM99.9384 231.46C99.9384 233.24 100.598 235.13 102.608 235.13C104.608 235.13 105.278 233.24 105.278 231.46C105.278 229.68 104.608 227.78 102.608 227.78C100.598 227.78 99.9384 229.68 99.9384 231.46Z" fill="#2E2E42"/>
<path d="M166.246 235.13C167.796 235.13 168.696 234.26 168.696 233.17C168.696 232.28 168.046 231.6 167.176 231.37C167.946 231.16 168.536 230.5 168.536 229.68C168.536 228.59 167.586 227.78 166.246 227.78C164.896 227.78 163.956 228.59 163.956 229.68C163.956 230.51 164.546 231.16 165.306 231.37C164.436 231.6 163.786 232.28 163.786 233.17C163.786 234.26 164.696 235.13 166.246 235.13ZM166.246 231.11C165.256 231.11 164.566 230.52 164.566 229.7C164.566 228.9 165.206 228.3 166.246 228.3C167.276 228.3 167.916 228.9 167.916 229.7C167.916 230.52 167.226 231.11 166.246 231.11ZM166.246 234.58C165.096 234.58 164.416 233.94 164.416 233.12C164.416 232.29 165.076 231.64 166.246 231.64C167.406 231.64 168.066 232.29 168.066 233.12C168.066 233.94 167.386 234.58 166.246 234.58ZM170.47 231.46C170.47 229.68 171.09 228.33 172.53 228.33C173.96 228.33 174.59 229.69 174.59 231.46C174.59 233.23 173.96 234.58 172.53 234.58C171.09 234.58 170.47 233.24 170.47 231.46ZM169.86 231.46C169.86 233.24 170.52 235.13 172.53 235.13C174.53 235.13 175.2 233.24 175.2 231.46C175.2 229.68 174.53 227.78 172.53 227.78C170.52 227.78 169.86 229.68 169.86 231.46Z" fill="#2E2E42"/>
<path d="M198.153 231.15V231.3C198.143 233.41 197.253 234.57 195.493 234.57C194.993 234.57 194.403 234.4 194.043 234.17L193.813 234.7C194.223 234.97 194.923 235.13 195.483 235.13C197.623 235.13 198.773 233.75 198.773 231.08C198.773 228.93 197.663 227.78 196.133 227.78C194.823 227.78 193.653 228.75 193.653 230.16C193.653 231.62 194.813 232.52 196.033 232.52C197.063 232.52 197.933 231.94 198.153 231.15ZM197.973 230.15C197.973 231.25 197.103 231.96 196.123 231.96C195.133 231.96 194.283 231.26 194.283 230.15C194.283 229.06 195.163 228.34 196.123 228.34C197.093 228.34 197.973 229.06 197.973 230.15ZM200.544 231.46C200.544 229.68 201.164 228.33 202.604 228.33C204.034 228.33 204.664 229.69 204.664 231.46C204.664 233.23 204.034 234.58 202.604 234.58C201.164 234.58 200.544 233.24 200.544 231.46ZM199.934 231.46C199.934 233.24 200.594 235.13 202.604 235.13C204.604 235.13 205.274 233.24 205.274 231.46C205.274 229.68 204.604 227.78 202.604 227.78C200.594 227.78 199.934 229.68 199.934 231.46Z" fill="#2E2E42"/>
<path d="M226.932 227.91H226.362C226.192 228.66 225.502 229.29 224.552 229.37V229.89C225.232 229.88 226.012 229.48 226.322 229.06V235H226.932V227.91ZM228.91 231.46C228.91 229.68 229.53 228.33 230.97 228.33C232.4 228.33 233.03 229.69 233.03 231.46C233.03 233.23 232.4 234.58 230.97 234.58C229.53 234.58 228.91 233.24 228.91 231.46ZM228.3 231.46C228.3 233.24 228.96 235.13 230.97 235.13C232.97 235.13 233.64 233.24 233.64 231.46C233.64 229.68 232.97 227.78 230.97 227.78C228.96 227.78 228.3 229.68 228.3 231.46ZM235.414 231.46C235.414 229.68 236.034 228.33 237.474 228.33C238.904 228.33 239.534 229.69 239.534 231.46C239.534 233.23 238.904 234.58 237.474 234.58C236.034 234.58 235.414 233.24 235.414 231.46ZM234.804 231.46C234.804 233.24 235.464 235.13 237.474 235.13C239.474 235.13 240.144 233.24 240.144 231.46C240.144 229.68 239.474 227.78 237.474 227.78C235.464 227.78 234.804 229.68 234.804 231.46Z" fill="#2E2E42"/>
<path d="M260.961 227.91H260.391C260.221 228.66 259.531 229.29 258.581 229.37V229.89C259.261 229.88 260.041 229.48 260.351 229.06V235H260.961V227.91ZM264.408 227.91H263.838C263.668 228.66 262.978 229.29 262.028 229.37V229.89C262.708 229.88 263.488 229.48 263.798 229.06V235H264.408V227.91ZM266.385 231.46C266.385 229.68 267.005 228.33 268.445 228.33C269.875 228.33 270.505 229.69 270.505 231.46C270.505 233.23 269.875 234.58 268.445 234.58C267.005 234.58 266.385 233.24 266.385 231.46ZM265.775 231.46C265.775 233.24 266.435 235.13 268.445 235.13C270.445 235.13 271.115 233.24 271.115 231.46C271.115 229.68 270.445 227.78 268.445 227.78C266.435 227.78 265.775 229.68 265.775 231.46Z" fill="#2E2E42"/>
<path d="M295.781 234.44V228.47H297.341C298.811 228.47 300.081 229.48 300.081 231.47C300.081 233.45 298.791 234.44 297.321 234.44H295.781ZM297.341 235C299.141 235 300.731 233.79 300.731 231.47C300.731 229.14 299.161 227.91 297.361 227.91H295.151V235H297.341ZM302.91 235V227.91H302.27V235H302.91ZM309.956 235H310.636L307.766 227.91H307.006L304.136 235H304.816L305.686 232.81H309.076L309.956 235ZM307.376 228.54L308.846 232.23H305.916L307.376 228.54Z" fill="#2E2E42"/>
</g>
<rect x="32" y="12" width="271" height="197" fill="#990711"/>
<rect x="32" y="42" width="238" height="167" fill="#BA3A13"/>
<rect x="32" y="67" width="203" height="142" fill="#FEB72B"/>
<rect x="32" y="96" width="170" height="113" fill="#FFED33"/>
<rect x="32" y="132" width="140" height="77" fill="#A7CF3A"/>
<rect x="32" y="179" width="70" height="30" fill="#97C7E7"/>
</svg>
