<svg width="20" height="18" viewBox="0 0 20 18" fill="none" xmlns="http://www.w3.org/2000/svg">
<path d="M9.46264 17.0716C8.93799 17.0716 8.45721 16.9403 8.02032 16.6777C7.58278 16.4157 7.23683 16.07 6.98245 15.6408C6.80756 15.3228 6.79167 15.0048 6.93475 14.6868C7.07784 14.3689 7.34812 14.2099 7.74559 14.2099C7.90457 14.2099 8.06356 14.2576 8.22255 14.353C8.38153 14.4484 8.54847 14.6074 8.72336 14.8299C8.80285 14.9412 8.91001 15.0248 9.04483 15.0808C9.18028 15.1361 9.31956 15.1638 9.46264 15.1638C9.73292 15.1638 9.95964 15.0722 10.1428 14.8891C10.3253 14.7066 10.4166 14.4802 10.4166 14.2099C10.4166 13.9396 10.3253 13.7132 10.1428 13.5307C9.95964 13.3475 9.73292 13.256 9.46264 13.256H1.35431C1.08403 13.256 0.857637 13.1644 0.67512 12.9812C0.491967 12.7987 0.400391 12.5723 0.400391 12.302C0.400391 12.0318 0.491967 11.805 0.67512 11.6219C0.857637 11.4394 1.08403 11.3481 1.35431 11.3481H9.46264C10.2576 11.3481 10.9333 11.6263 11.4897 12.1828C12.0462 12.7393 12.3244 13.4149 12.3244 14.2099C12.3244 15.0048 12.0462 15.6805 11.4897 16.237C10.9333 16.7934 10.2576 17.0716 9.46264 17.0716ZM1.35431 7.53243C1.08403 7.53243 0.857637 7.44086 0.67512 7.2577C0.491967 7.07519 0.400391 6.84879 0.400391 6.57851C0.400391 6.30823 0.491967 6.08152 0.67512 5.89836C0.857637 5.71585 1.08403 5.62459 1.35431 5.62459H13.2783C13.6917 5.62459 14.0335 5.48945 14.3038 5.21917C14.5741 4.94889 14.7092 4.60707 14.7092 4.19371C14.7092 3.78034 14.5741 3.43852 14.3038 3.16824C14.0335 2.89796 13.6917 2.76282 13.2783 2.76282C13.0081 2.76282 12.7658 2.8226 12.5514 2.94216C12.3365 3.06108 12.1654 3.23184 12.0382 3.45442C11.911 3.6929 11.76 3.87573 11.5851 4.00292C11.4102 4.13011 11.2353 4.19371 11.0605 4.19371C10.7266 4.19371 10.4643 4.07447 10.2735 3.83599C10.0827 3.59751 10.035 3.34313 10.1304 3.07285C10.353 2.4051 10.7466 1.86836 11.3113 1.46263C11.8754 1.05753 12.5311 0.85498 13.2783 0.85498C14.2164 0.85498 15.0075 1.17677 15.6517 1.82035C16.2953 2.46456 16.6171 3.25568 16.6171 4.19371C16.6171 5.13173 16.2953 5.92253 15.6517 6.56611C15.0075 7.21032 14.2164 7.53243 13.2783 7.53243H1.35431ZM17.5233 14.8776C17.1894 15.0207 16.8752 15.009 16.5808 14.8423C16.287 14.6751 16.1401 14.4007 16.1401 14.0191C16.1401 13.8442 16.2037 13.6731 16.3309 13.5059C16.4581 13.3393 16.6409 13.1924 16.8794 13.0652C17.102 12.938 17.2727 12.7669 17.3916 12.552C17.5112 12.3377 17.571 12.0954 17.571 11.8251C17.571 11.4117 17.4358 11.0699 17.1656 10.7996C16.8953 10.5293 16.5535 10.3942 16.1401 10.3942H1.35431C1.08403 10.3942 0.857637 10.3026 0.67512 10.1195C0.491967 9.93695 0.400391 9.71055 0.400391 9.44028C0.400391 9.17 0.491967 8.94328 0.67512 8.76013C0.857637 8.57761 1.08403 8.48635 1.35431 8.48635H16.1401C17.0781 8.48635 17.8692 8.80814 18.5135 9.45172C19.157 10.0959 19.4788 10.8871 19.4788 11.8251C19.4788 12.5087 19.3001 13.1208 18.9427 13.6614C18.5847 14.2019 18.1115 14.6074 17.5233 14.8776Z" fill="white"/>
</svg>
