<svg width="28" height="28" viewBox="0 0 28 28" fill="none" xmlns="http://www.w3.org/2000/svg">
<circle cx="13.9997" cy="9.41667" r="5.41667" fill="#3C8AFF"/>
<path fill-rule="evenodd" clip-rule="evenodd" d="M1.0001 25.6331C1.00003 25.6443 1 25.6555 1 25.6667H1.0001V26.8333C1.0001 27.3856 1.44781 27.8333 2.0001 27.8333H26.0001C26.5524 27.8333 27.0001 27.3856 27.0001 26.8333V24.5833H26.898C26.7533 23.8174 26.4554 23.0662 26.0104 22.3501C25.3571 21.2986 24.3995 20.3432 23.1924 19.5384C21.9852 18.7336 20.5521 18.0953 18.9749 17.6597C17.3976 17.2242 15.7072 17 14 17C12.2928 17 10.6023 17.2242 9.02511 17.6597C7.44788 18.0953 6.01477 18.7336 4.80761 19.5384C3.60045 20.3432 2.64288 21.2986 1.98957 22.3501C1.5446 23.0662 1.24672 23.8174 1.10197 24.5833H1.0001V25.6331Z" fill="#C4DCFF"/>
</svg>
