<svg width="28" height="28" viewBox="0 0 28 28" fill="none" xmlns="http://www.w3.org/2000/svg">
<g clip-path="url(#clip0_5463_1652)">
<circle cx="20.9293" cy="15.336" r="2.94588" fill="#C4DCFF"/>
<path fill-rule="evenodd" clip-rule="evenodd" d="M13.8594 26.3265V25.6418H13.9148C13.9935 25.1576 14.1555 24.6826 14.3976 24.2299C14.7529 23.5652 15.2736 22.9612 15.9302 22.4524C16.5867 21.9437 17.3661 21.5401 18.2239 21.2648C19.0817 20.9895 20.001 20.8478 20.9295 20.8478C21.858 20.8478 22.7773 20.9895 23.6351 21.2648C24.4929 21.5401 25.2723 21.9437 25.9288 22.4524C26.5853 22.9612 27.1061 23.5652 27.4614 24.2299C27.7035 24.6826 27.8655 25.1576 27.9442 25.6418H27.9996V26.3265V27.1525C27.9996 27.4528 27.7561 27.6963 27.4558 27.6963H14.4032C14.1029 27.6963 13.8594 27.4528 13.8594 27.1525V26.3265Z" fill="#3C8AFF"/>
<circle cx="10.0107" cy="11.1709" r="4.1709" fill="#C4DCFF"/>
<mask id="path-4-outside-1_5463_1652" maskUnits="userSpaceOnUse" x="-1" y="17" width="22" height="12" fill="black">
<rect fill="white" x="-1" y="17" width="22" height="12"/>
<path fill-rule="evenodd" clip-rule="evenodd" d="M0 25.7569V24.7873H0.0785181C0.189972 24.1018 0.419349 23.4295 0.761979 22.7885C1.26504 21.8474 2.00238 20.9923 2.93191 20.272C3.86144 19.5517 4.96495 18.9803 6.17944 18.5905C7.39393 18.2006 8.69562 18 10.0102 18C11.3247 18 12.6264 18.2006 13.8409 18.5905C15.0554 18.9803 16.1589 19.5517 17.0884 20.272C18.018 20.9923 18.7553 21.8474 19.2584 22.7885C19.601 23.4295 19.8304 24.1018 19.9418 24.7873H20.0203V25.7569V26.9261C20.0203 27.3514 19.6756 27.6961 19.2503 27.6961H0.770015C0.344748 27.6961 0 27.3514 0 26.9261V25.7569Z"/>
</mask>
<path fill-rule="evenodd" clip-rule="evenodd" d="M0 25.7569V24.7873H0.0785181C0.189972 24.1018 0.419349 23.4295 0.761979 22.7885C1.26504 21.8474 2.00238 20.9923 2.93191 20.272C3.86144 19.5517 4.96495 18.9803 6.17944 18.5905C7.39393 18.2006 8.69562 18 10.0102 18C11.3247 18 12.6264 18.2006 13.8409 18.5905C15.0554 18.9803 16.1589 19.5517 17.0884 20.272C18.018 20.9923 18.7553 21.8474 19.2584 22.7885C19.601 23.4295 19.8304 24.1018 19.9418 24.7873H20.0203V25.7569V26.9261C20.0203 27.3514 19.6756 27.6961 19.2503 27.6961H0.770015C0.344748 27.6961 0 27.3514 0 26.9261V25.7569Z" fill="#3C8AFF"/>
<path d="M0 24.7873V24.0173H-0.770013V24.7873H0ZM0.0785181 24.7873V25.5573H0.733445L0.838551 24.9109L0.0785181 24.7873ZM0.761979 22.7885L0.0828939 22.4255H0.0828938L0.761979 22.7885ZM13.8409 18.5905L13.6056 19.3236L13.8409 18.5905ZM17.0884 20.272L17.5601 19.6633V19.6633L17.0884 20.272ZM19.2584 22.7885L18.5793 23.1515V23.1515L19.2584 22.7885ZM19.9418 24.7873L19.1818 24.9109L19.2869 25.5573H19.9418V24.7873ZM20.0203 24.7873H20.7904V24.0173H20.0203V24.7873ZM0.770013 25.7569V24.7873H-0.770013V25.7569H0.770013ZM0 25.5573H0.0785181V24.0173H0V25.5573ZM0.0828938 22.4255C-0.298104 23.1383 -0.555909 23.8912 -0.681515 24.6637L0.838551 24.9109C0.935853 24.3124 1.1368 23.7207 1.44106 23.1515L0.0828938 22.4255ZM2.46026 19.6633C1.45387 20.4432 0.64204 21.3795 0.0828939 22.4255L1.44106 23.1515C1.88803 22.3153 2.55089 21.5414 3.40356 20.8806L2.46026 19.6633ZM5.94411 17.8573C4.65144 18.2722 3.46648 18.8836 2.46026 19.6633L3.40356 20.8806C4.2564 20.2197 5.27847 19.6884 6.41478 19.3236L5.94411 17.8573ZM10.0102 17.23C8.61821 17.23 7.23698 17.4423 5.94411 17.8573L6.41478 19.3236C7.55089 18.959 8.77303 18.77 10.0102 18.77V17.23ZM14.0762 17.8573C12.7834 17.4423 11.4021 17.23 10.0102 17.23V18.77C11.2473 18.77 12.4695 18.959 13.6056 19.3236L14.0762 17.8573ZM17.5601 19.6633C16.5539 18.8836 15.3689 18.2722 14.0762 17.8573L13.6056 19.3236C14.7419 19.6884 15.7639 20.2197 16.6168 20.8806L17.5601 19.6633ZM19.9374 22.4255C19.3783 21.3795 18.5665 20.4432 17.5601 19.6633L16.6168 20.8806C17.4694 21.5414 18.1323 22.3153 18.5793 23.1515L19.9374 22.4255ZM20.7019 24.6637C20.5763 23.8912 20.3184 23.1383 19.9374 22.4255L18.5793 23.1515C18.8835 23.7207 19.0845 24.3124 19.1818 24.9109L20.7019 24.6637ZM19.9418 25.5573H20.0203V24.0173H19.9418V25.5573ZM19.2503 24.7873V25.7569H20.7904V24.7873H19.2503ZM19.2503 25.7569V26.9261H20.7904V25.7569H19.2503ZM19.2503 26.9261V26.9261V28.4662C20.1009 28.4662 20.7904 27.7767 20.7904 26.9261H19.2503ZM19.2503 26.9261H0.770015V28.4662H19.2503V26.9261ZM0.770015 26.9261H0.770013H-0.770013C-0.770013 27.7767 -0.0805158 28.4662 0.770015 28.4662V26.9261ZM0.770013 26.9261V25.7569H-0.770013V26.9261H0.770013Z" fill="white" mask="url(#path-4-outside-1_5463_1652)"/>
</g>
<defs>
<clipPath id="clip0_5463_1652">
<rect width="28" height="28" fill="white"/>
</clipPath>
</defs>
</svg>
