<svg width="29" height="28" viewBox="0 0 29 28" fill="none" xmlns="http://www.w3.org/2000/svg">
<path d="M16 8.375V2H6.625C6.00156 2 5.5 2.50156 5.5 3.125V24.875C5.5 25.4984 6.00156 26 6.625 26H22.375C22.9984 26 23.5 25.4984 23.5 24.875V9.5H17.125C16.5063 9.5 16 8.99375 16 8.375ZM19.2123 16.7881L19.7425 17.3183C20.0355 17.6112 20.0355 18.0861 19.7425 18.3791L18.3409 19.7806L19.75 21.1897C20.043 21.4827 20.043 21.9575 19.75 22.2505L19.2198 22.7806C18.9269 23.0736 18.452 23.0736 18.1591 22.7806L16.75 21.3711L15.3409 22.7802C15.048 23.0731 14.5731 23.0731 14.2802 22.7802L13.75 22.25C13.457 21.957 13.457 21.4822 13.75 21.1892L15.1591 19.7802L12.3784 17H11.5V19.25C11.5 19.6644 11.1644 20 10.75 20H10C9.58563 20 9.25 19.6644 9.25 19.25V11.75C9.25 11.3356 9.58563 11 10 11H13.75C15.407 11 16.75 12.343 16.75 14C16.75 15.1353 16.1116 16.1117 15.1816 16.6213L16.75 18.1897L18.1516 16.7881C18.4445 16.4952 18.9194 16.4952 19.2123 16.7881ZM13.75 14.75H11.5V13.25H13.75C14.1634 13.25 14.5 13.5866 14.5 14C14.5 14.4134 14.1634 14.75 13.75 14.75ZM23.5 7.71406V8H17.5V2H17.7859C18.0859 2 18.3719 2.11719 18.5828 2.32812L23.1719 6.92188C23.3828 7.13281 23.5 7.41875 23.5 7.71406Z" fill="#3C8AFF"/>
</svg>
