<svg width="23" height="23" viewBox="0 0 23 23" fill="none" xmlns="http://www.w3.org/2000/svg">
<circle cx="11.5" cy="11.5" r="11.5" fill="#3C8AFF"/>
<path d="M13.25 7V9.5H9.5V7M8.25 7H14.5L17 9.5V15.75C17 16.0815 16.8683 16.3995 16.6339 16.6339C16.3995 16.8683 16.0815 17 15.75 17H8.25C7.91848 17 7.60054 16.8683 7.36612 16.6339C7.1317 16.3995 7 16.0815 7 15.75V8.25C7 7.91848 7.1317 7.60054 7.36612 7.36612C7.60054 7.1317 7.91848 7 8.25 7ZM13.25 13.25C13.25 13.9404 12.6904 14.5 12 14.5C11.3096 14.5 10.75 13.9404 10.75 13.25C10.75 12.5596 11.3096 12 12 12C12.6904 12 13.25 12.5596 13.25 13.25Z" stroke="white" stroke-width="1.25" stroke-linecap="round" stroke-linejoin="round"/>
</svg>
