<svg width="375" height="341" viewBox="0 0 375 341" fill="none" xmlns="http://www.w3.org/2000/svg">
<path d="M392.407 331.743C451.001 312.862 434.139 267.142 418.384 246.642C420.12 262.457 401.111 278.548 369.05 279.845C311.134 282.188 319.165 355.344 392.407 331.743Z" fill="#E2EDFF" fill-opacity="0.3"/>
<path d="M90.2516 65.2111C59.525 103.262 14.4505 106.506 -4.24587 103.372L-4.24609 329.258C87.283 349.219 281.421 339.875 332.032 252.07C382.644 164.265 342.267 70.8881 286.122 32.5931C229.978 -5.7019 128.66 17.6472 90.2516 65.2111Z" fill="#E2EDFF"/>
<path d="M43.6479 84.6227C17.3661 100.131 8.32162 78.8532 7.08459 66.2756C11.6219 72.1176 23.3841 70.3622 34.8316 58.9066C55.5107 38.2129 76.5001 65.2371 43.6479 84.6227Z" fill="#E2EDFF"/>
<path d="M120.588 17.4415L100.632 1.81595C99.3509 0.813028 97.4995 1.03838 96.4966 2.3193L63.3773 44.6187C62.3744 45.8996 62.5997 47.751 63.8806 48.7539L83.8373 64.3794C85.1182 65.3824 86.9696 65.157 87.9725 63.8761L121.092 21.5767C122.095 20.2958 121.869 18.4444 120.588 17.4415Z" fill="#F5F5F5"/>
<path d="M84.5152 58.7108C84.4813 58.7447 81.2416 56.2627 77.2783 53.1587C73.315 50.0548 70.1262 47.5049 70.1545 47.4653C70.1828 47.4257 73.4224 49.9134 77.3914 53.0174C81.3604 56.1213 84.5435 58.6712 84.5152 58.7108Z" fill="#E0E0E0"/>
<path d="M114.533 18.7147C114.499 18.7543 111.259 16.2666 107.296 13.1626C103.333 10.0587 100.138 7.50879 100.172 7.46922C100.206 7.42964 103.44 9.91732 107.409 13.0213C111.378 16.1252 114.561 18.6751 114.533 18.7147Z" fill="#E0E0E0"/>
<path d="M76.9279 52.6498C76.8883 52.6159 83.7464 43.7959 92.2385 32.9519C100.731 22.1079 107.651 13.3331 107.69 13.3614C107.73 13.3897 100.878 22.2096 92.3798 33.0593C83.8821 43.909 76.9675 52.6781 76.9279 52.6498Z" fill="#E0E0E0"/>
<path d="M95.875 16.0624L97.6786 13.6426L99.9401 15.3387C100.099 15.4569 100.233 15.6053 100.334 15.7754C100.436 15.9454 100.502 16.1338 100.531 16.3298C100.559 16.5257 100.548 16.7253 100.499 16.9171C100.451 17.109 100.364 17.2892 100.245 17.4476C100.007 17.768 99.6505 17.9806 99.2552 18.0389C98.8599 18.0972 98.4576 17.9964 98.1365 17.7586L95.875 16.0624Z" fill="#EBEBEB"/>
<path d="M98.0859 13.9479L96.2824 16.3621L94.0208 14.6659C93.6957 14.4304 93.4773 14.0753 93.4137 13.6789C93.3501 13.2824 93.4464 12.8769 93.6816 12.5514C93.7998 12.3926 93.9482 12.2587 94.1183 12.1573C94.2883 12.056 94.4767 11.9892 94.6727 11.9608C94.8686 11.9325 95.0682 11.9431 95.26 11.992C95.4518 12.041 95.6321 12.1273 95.7905 12.2461L98.0859 13.9479Z" fill="#E0E0E0"/>
<path d="M107.555 24.9843L109.358 22.5645L111.62 24.2606C111.941 24.5004 112.153 24.8575 112.212 25.2537C112.27 25.6499 112.169 26.0531 111.931 26.3751C111.69 26.695 111.333 26.9067 110.936 26.9639C110.54 27.0211 110.138 26.9192 109.816 26.6804L107.555 24.9843Z" fill="#EBEBEB"/>
<path d="M109.767 22.8643L107.963 25.2842L105.702 23.588C105.543 23.4698 105.409 23.3214 105.308 23.1514C105.206 22.9813 105.14 22.7929 105.111 22.597C105.083 22.401 105.093 22.2014 105.142 22.0096C105.191 21.8178 105.278 21.6375 105.396 21.4791C105.515 21.3203 105.663 21.1864 105.833 21.085C106.003 20.9837 106.192 20.9169 106.388 20.8886C106.583 20.8602 106.783 20.8708 106.975 20.9198C107.167 20.9687 107.347 21.0551 107.505 21.1738L109.767 22.8643Z" fill="#E0E0E0"/>
<path d="M90.8145 22.7343L92.618 20.3145L94.8796 22.0106C95.2003 22.2504 95.4131 22.6075 95.4714 23.0037C95.5296 23.3999 95.4287 23.8031 95.1905 24.1251C94.9499 24.445 94.5924 24.6567 94.1962 24.7139C93.8 24.7711 93.3973 24.6692 93.076 24.4304L90.8145 22.7343Z" fill="#EBEBEB"/>
<path d="M93.0191 20.6143L91.2211 23.0342L88.9596 21.338C88.8008 21.2198 88.6669 21.0715 88.5655 20.9014C88.4642 20.7313 88.3974 20.5429 88.369 20.347C88.3407 20.1511 88.3513 19.9514 88.4002 19.7596C88.4492 19.5678 88.5355 19.3875 88.6543 19.2291C88.7725 19.0703 88.9209 18.9364 89.0909 18.835C89.261 18.7337 89.4494 18.6669 89.6453 18.6386C89.8413 18.6102 90.0409 18.6208 90.2327 18.6698C90.4245 18.7187 90.6048 18.8051 90.7632 18.9238L93.0191 20.6143Z" fill="#E0E0E0"/>
<path d="M102.762 31.8497L104.565 29.4355L106.827 31.1317C107.147 31.3705 107.36 31.7266 107.418 32.1219C107.476 32.5172 107.376 32.9195 107.138 33.2406C107.02 33.4 106.871 33.5346 106.701 33.6365C106.53 33.7385 106.341 33.8058 106.145 33.8347C105.949 33.8636 105.748 33.8534 105.556 33.8048C105.363 33.7563 105.182 33.6702 105.023 33.5515L102.762 31.8497Z" fill="#EBEBEB"/>
<path d="M104.988 29.7349L103.19 32.1547L100.928 30.4585C100.77 30.3404 100.636 30.192 100.534 30.0219C100.433 29.8518 100.366 29.6634 100.338 29.4675C100.309 29.2716 100.32 29.072 100.369 28.8801C100.418 28.6883 100.504 28.508 100.623 28.3497C100.862 28.0293 101.218 27.8166 101.613 27.7583C102.009 27.7001 102.411 27.8009 102.732 28.0387L104.988 29.7349Z" fill="#E0E0E0"/>
<path d="M85.7656 29.4003L87.5692 26.9805L89.8307 28.6766C89.9896 28.7948 90.1235 28.9432 90.2248 29.1133C90.3262 29.2833 90.3929 29.4717 90.4213 29.6677C90.4497 29.8636 90.4391 30.0632 90.3901 30.255C90.3412 30.4468 90.2548 30.6271 90.136 30.7855C89.8972 31.1059 89.5412 31.3185 89.1459 31.3768C88.7505 31.4351 88.3483 31.3343 88.0272 31.0965L85.7656 29.4003Z" fill="#EBEBEB"/>
<path d="M87.96 27.2971L86.1564 29.717L83.8949 28.0208C83.7356 27.9031 83.6012 27.755 83.4993 27.5851C83.3975 27.4153 83.3301 27.227 83.3012 27.031C83.2724 26.835 83.2824 26.6353 83.331 26.4433C83.3795 26.2512 83.4654 26.0707 83.5839 25.912C83.8224 25.5964 84.1751 25.3871 84.5663 25.3289C84.9575 25.2708 85.3559 25.3685 85.6758 25.601L87.96 27.2971Z" fill="#E0E0E0"/>
<path d="M97.9668 38.7187L99.7647 36.2988L102.026 37.995C102.185 38.1132 102.319 38.2616 102.42 38.4316C102.522 38.6017 102.588 38.7901 102.617 38.986C102.645 39.1819 102.635 39.3816 102.586 39.5734C102.537 39.7652 102.45 39.9455 102.332 40.1039C102.093 40.4242 101.737 40.6369 101.341 40.6952C100.946 40.7535 100.544 40.6526 100.223 40.4148L97.9668 38.7187Z" fill="#EBEBEB"/>
<path d="M100.171 36.6042L98.3671 39.0241L96.1055 37.3279C95.9448 37.2109 95.8087 37.0633 95.7052 36.8936C95.6017 36.7238 95.5327 36.5353 95.5022 36.3388C95.4717 36.1423 95.4804 35.9418 95.5276 35.7486C95.5749 35.5555 95.6599 35.3736 95.7776 35.2134C96.0174 34.8926 96.3745 34.6799 96.7707 34.6216C97.167 34.5633 97.5701 34.6643 97.8921 34.9024L100.171 36.6042Z" fill="#E0E0E0"/>
<path d="M80.0098 36.2538L81.8077 33.834L84.0692 35.5301C84.228 35.6483 84.362 35.7967 84.4633 35.9668C84.5647 36.1368 84.6314 36.3252 84.6598 36.5212C84.6882 36.7171 84.6776 36.9167 84.6286 37.1085C84.5796 37.3004 84.4933 37.4806 84.3745 37.639C84.2563 37.7978 84.1079 37.9318 83.9379 38.0331C83.7678 38.1345 83.5794 38.2012 83.3835 38.2296C83.1875 38.258 82.9879 38.2474 82.7961 38.1984C82.6043 38.1494 82.424 38.0631 82.2656 37.9443L80.0098 36.2538Z" fill="#EBEBEB"/>
<path d="M82.2146 34.1338L80.411 36.5537L78.1495 34.8575C77.8305 34.616 77.62 34.2581 77.5638 33.862C77.5077 33.4659 77.6105 33.0636 77.8499 32.743C78.0905 32.4231 78.448 32.2114 78.8442 32.1542C79.2403 32.097 79.6431 32.1989 79.9644 32.4377L82.2146 34.1338Z" fill="#E0E0E0"/>
<path d="M92.3242 45.4296L94.1278 43.0098L96.3893 44.7059C96.5486 44.8237 96.683 44.9717 96.7849 45.1416C96.8868 45.3115 96.9541 45.4998 96.983 45.6957C97.0119 45.8917 97.0018 46.0914 96.9532 46.2835C96.9047 46.4755 96.8188 46.6561 96.7003 46.8148C96.5821 46.9736 96.4337 47.1075 96.2636 47.2089C96.0936 47.3102 95.9052 47.377 95.7092 47.4054C95.5133 47.4337 95.3137 47.4231 95.1219 47.3742C94.9301 47.3252 94.7498 47.2389 94.5914 47.1201L92.3242 45.4296Z" fill="#EBEBEB"/>
<path d="M94.5346 43.3151L92.7311 45.7293L90.4695 44.0331C90.1497 43.7925 89.938 43.435 89.8808 43.0388C89.8236 42.6426 89.9255 42.2399 90.1642 41.9186C90.2824 41.7598 90.4308 41.6258 90.6009 41.5245C90.7709 41.4232 90.9593 41.3564 91.1553 41.328C91.3512 41.2997 91.5508 41.3103 91.7426 41.3592C91.9345 41.4082 92.1147 41.4945 92.2731 41.6133L94.5346 43.3151Z" fill="#E0E0E0"/>
<path d="M74.9336 43.9706L76.7202 41.5508L78.9817 43.2469C79.3016 43.4876 79.5133 43.845 79.5705 44.2412C79.6277 44.6374 79.5258 45.0401 79.287 45.3615C79.1689 45.5203 79.0205 45.6542 78.8504 45.7556C78.6803 45.8569 78.4919 45.9237 78.296 45.952C78.1001 45.9804 77.9005 45.9698 77.7086 45.9209C77.5168 45.8719 77.3365 45.7856 77.1782 45.6668L74.9336 43.9706Z" fill="#EBEBEB"/>
<path d="M77.1442 41.8505L75.3407 44.259L73.0791 42.5628C72.7595 42.325 72.5468 41.9704 72.4875 41.5765C72.4282 41.1825 72.5271 40.781 72.7625 40.4596C72.8807 40.3008 73.0291 40.1669 73.1992 40.0655C73.3692 39.9642 73.5576 39.8974 73.7536 39.869C73.9495 39.8407 74.1491 39.8513 74.3409 39.9002C74.5328 39.9492 74.713 40.0355 74.8714 40.1543L77.1442 41.8505Z" fill="#E0E0E0"/>
<path d="M86.6523 52.6991L88.4559 50.2793L90.7174 51.9754C90.8767 52.0932 91.0111 52.2413 91.113 52.4111C91.2149 52.581 91.2822 52.7693 91.3111 52.9653C91.34 53.1612 91.3299 53.361 91.2814 53.553C91.2329 53.745 91.1469 53.9256 91.0284 54.0843C90.9102 54.2431 90.7618 54.3771 90.5918 54.4784C90.4217 54.5798 90.2333 54.6465 90.0374 54.6749C89.8414 54.7033 89.6418 54.6927 89.45 54.6437C89.2582 54.5948 89.0779 54.5084 88.9195 54.3896L86.6523 52.6991Z" fill="#EBEBEB"/>
<path d="M88.8647 50.579L87.0611 52.9988L84.7996 51.3027C84.4797 51.062 84.2681 50.7046 84.2109 50.3084C84.1537 49.9122 84.2556 49.5094 84.4943 49.1881C84.6125 49.0293 84.7609 48.8954 84.9309 48.794C85.101 48.6927 85.2894 48.6259 85.4853 48.5975C85.6813 48.5692 85.8809 48.5798 86.0727 48.6287C86.2645 48.6777 86.4448 48.764 86.6032 48.8828L88.8647 50.579Z" fill="#E0E0E0"/>
<path d="M311.614 159.291L275.293 171.668C274.927 171.792 274.54 171.843 274.153 171.818C273.767 171.793 273.39 171.692 273.043 171.52C272.696 171.349 272.386 171.111 272.131 170.82C271.876 170.529 271.68 170.191 271.556 169.825L246.221 95.4542C246.096 95.0878 246.044 94.7002 246.068 94.3137C246.093 93.9272 246.193 93.5493 246.364 93.2017C246.535 92.854 246.772 92.5435 247.063 92.2877C247.354 92.032 247.692 91.8361 248.059 91.7113L284.379 79.3407C285.118 79.0891 285.927 79.1413 286.628 79.4858C287.329 79.8304 287.864 80.4391 288.116 81.1782L313.451 155.554C313.576 155.92 313.628 156.307 313.604 156.694C313.579 157.08 313.479 157.457 313.308 157.804C313.137 158.152 312.9 158.462 312.609 158.717C312.318 158.972 311.98 159.167 311.614 159.291Z" fill="#EBEBEB"/>
<path d="M264.664 102.008C264.872 102.614 264.895 103.269 264.73 103.888C264.565 104.507 264.221 105.064 263.74 105.488C263.259 105.911 262.663 106.182 262.028 106.267C261.392 106.352 260.746 106.246 260.171 105.964C259.596 105.682 259.117 105.235 258.796 104.68C258.475 104.126 258.325 103.488 258.366 102.849C258.407 102.209 258.637 101.596 259.026 101.087C259.416 100.578 259.947 100.196 260.554 99.9896C261.367 99.7126 262.256 99.7696 263.027 100.148C263.798 100.527 264.387 101.196 264.664 102.008Z" fill="#FAFAFA"/>
<path d="M282.473 95.9414C282.679 96.5468 282.701 97.1998 282.536 97.8177C282.371 98.4357 282.027 98.9909 281.547 99.4131C281.066 99.8354 280.471 100.106 279.837 100.19C279.203 100.274 278.559 100.168 277.985 99.8861C277.411 99.6039 276.933 99.1578 276.613 98.6042C276.292 98.0507 276.143 97.4146 276.184 96.7763C276.225 96.1381 276.455 95.5263 276.844 95.0184C277.232 94.5105 277.763 94.1293 278.368 93.9229C278.77 93.7859 279.195 93.7294 279.619 93.7567C280.043 93.7839 280.458 93.8945 280.839 94.0819C281.22 94.2693 281.56 94.53 281.841 94.8491C282.121 95.1681 282.336 95.5393 282.473 95.9414Z" fill="#FAFAFA"/>
<path d="M270.301 118.568C270.507 119.173 270.529 119.826 270.365 120.444C270.2 121.062 269.855 121.617 269.375 122.04C268.894 122.462 268.3 122.732 267.666 122.816C267.031 122.901 266.387 122.795 265.813 122.513C265.239 122.23 264.761 121.784 264.441 121.231C264.121 120.677 263.971 120.041 264.013 119.403C264.054 118.765 264.283 118.153 264.672 117.645C265.06 117.137 265.591 116.756 266.196 116.549C266.598 116.412 267.024 116.355 267.448 116.381C267.872 116.408 268.287 116.519 268.668 116.706C269.049 116.894 269.39 117.155 269.67 117.474C269.95 117.794 270.165 118.165 270.301 118.568Z" fill="#FAFAFA"/>
<path d="M288.116 112.5C288.322 113.105 288.344 113.758 288.179 114.376C288.014 114.994 287.67 115.549 287.189 115.972C286.709 116.394 286.114 116.664 285.48 116.748C284.846 116.833 284.201 116.727 283.627 116.445C283.053 116.162 282.576 115.716 282.255 115.163C281.935 114.609 281.786 113.973 281.827 113.335C281.868 112.697 282.097 112.085 282.486 111.577C282.875 111.069 283.406 110.688 284.011 110.482C284.413 110.344 284.838 110.288 285.262 110.315C285.686 110.343 286.1 110.453 286.481 110.64C286.863 110.828 287.203 111.089 287.483 111.408C287.764 111.727 287.979 112.098 288.116 112.5Z" fill="#FAFAFA"/>
<path d="M275.944 135.133C276.15 135.738 276.172 136.391 276.007 137.009C275.842 137.627 275.498 138.182 275.017 138.605C274.537 139.027 273.942 139.297 273.308 139.381C272.674 139.465 272.029 139.36 271.455 139.077C270.881 138.795 270.404 138.349 270.084 137.796C269.763 137.242 269.614 136.606 269.655 135.968C269.696 135.329 269.926 134.718 270.314 134.21C270.703 133.702 271.234 133.321 271.839 133.114C272.241 132.977 272.666 132.921 273.09 132.948C273.514 132.975 273.928 133.086 274.309 133.273C274.691 133.461 275.031 133.721 275.312 134.04C275.592 134.36 275.807 134.731 275.944 135.133Z" fill="#FAFAFA"/>
<path d="M293.758 129.066C293.964 129.672 293.986 130.325 293.822 130.943C293.657 131.561 293.312 132.116 292.832 132.538C292.351 132.96 291.757 133.231 291.123 133.315C290.489 133.399 289.844 133.293 289.27 133.011C288.696 132.729 288.218 132.283 287.898 131.729C287.578 131.176 287.428 130.54 287.47 129.901C287.511 129.263 287.74 128.651 288.129 128.143C288.518 127.636 289.048 127.254 289.654 127.048C290.056 126.911 290.481 126.854 290.905 126.882C291.328 126.909 291.743 127.019 292.124 127.207C292.505 127.394 292.846 127.655 293.126 127.974C293.406 128.293 293.621 128.664 293.758 129.066Z" fill="#FAFAFA"/>
<path d="M281.586 151.682C281.793 152.287 281.815 152.94 281.65 153.558C281.485 154.176 281.14 154.731 280.66 155.153C280.18 155.576 279.585 155.846 278.951 155.93C278.317 156.014 277.672 155.909 277.098 155.626C276.524 155.344 276.047 154.898 275.726 154.344C275.406 153.791 275.257 153.155 275.298 152.517C275.339 151.878 275.568 151.267 275.957 150.759C276.346 150.251 276.876 149.87 277.482 149.663C277.884 149.526 278.309 149.47 278.733 149.497C279.157 149.524 279.571 149.635 279.952 149.822C280.333 150.01 280.674 150.27 280.954 150.589C281.235 150.908 281.449 151.28 281.586 151.682Z" fill="#FAFAFA"/>
<path d="M299.401 145.627C299.607 146.232 299.629 146.885 299.464 147.503C299.299 148.121 298.955 148.676 298.474 149.099C297.994 149.521 297.399 149.791 296.765 149.875C296.131 149.96 295.486 149.854 294.912 149.572C294.338 149.289 293.861 148.843 293.541 148.29C293.22 147.736 293.071 147.1 293.112 146.462C293.153 145.824 293.383 145.212 293.771 144.704C294.16 144.196 294.691 143.815 295.296 143.608C295.698 143.471 296.123 143.415 296.547 143.442C296.971 143.469 297.385 143.58 297.767 143.767C298.148 143.955 298.488 144.216 298.769 144.535C299.049 144.854 299.264 145.225 299.401 145.627Z" fill="#FAFAFA"/>
<path d="M262.929 100.271C262.584 101.228 262.161 102.155 261.663 103.042C261.243 103.969 260.744 104.858 260.17 105.699C260.515 104.742 260.938 103.816 261.436 102.929C261.855 102.001 262.354 101.112 262.929 100.271Z" fill="#E0E0E0"/>
<path d="M280.371 94.1816C280.028 95.1404 279.607 96.069 279.11 96.9577C278.686 97.883 278.187 98.7718 277.617 99.615C277.961 98.6567 278.382 97.7282 278.878 96.8389C279.303 95.9144 279.802 95.0258 280.371 94.1816Z" fill="#E0E0E0"/>
<path d="M268.734 116.832C268.437 117.832 268.058 118.806 267.603 119.744C267.231 120.723 266.778 121.668 266.246 122.571C266.545 121.572 266.923 120.598 267.377 119.659C267.75 118.681 268.204 117.735 268.734 116.832Z" fill="#E0E0E0"/>
<path d="M286.329 110.725C286.092 111.693 285.771 112.639 285.368 113.552C285.045 114.498 284.642 115.415 284.164 116.294C284.402 115.325 284.724 114.379 285.125 113.467C285.451 112.521 285.854 111.604 286.329 110.725Z" fill="#E0E0E0"/>
<path d="M273.846 133.324C273.251 135.134 272.494 136.886 271.584 138.56C272.179 136.75 272.936 134.998 273.846 133.324Z" fill="#E0E0E0"/>
<path d="M292.091 127.533C291.344 129.318 290.44 131.032 289.389 132.656C289.721 131.747 290.135 130.871 290.627 130.038C291.043 129.163 291.533 128.325 292.091 127.533Z" fill="#E0E0E0"/>
<path d="M279.969 150.121C279.599 151.064 279.151 151.973 278.629 152.841C278.181 153.749 277.657 154.617 277.062 155.436C277.879 153.585 278.851 151.807 279.969 150.121Z" fill="#E0E0E0"/>
<path d="M297.745 143.518C297.449 144.58 297.071 145.618 296.614 146.622C296.238 147.657 295.781 148.661 295.246 149.624C295.541 148.561 295.92 147.523 296.377 146.52C296.752 145.484 297.209 144.48 297.745 143.518Z" fill="#E0E0E0"/>
<path d="M304.24 154.508C304.24 154.576 298.806 156.493 292.056 158.794C285.305 161.095 279.804 162.904 279.781 162.836C279.759 162.769 285.215 160.852 291.971 158.551C298.727 156.25 304.217 154.429 304.24 154.508Z" fill="#E0E0E0"/>
<path d="M280.031 87.912C280.031 87.9742 274.597 89.8965 267.841 92.1976C261.085 94.4987 255.595 96.3079 255.572 96.2401C255.55 96.1722 261.006 94.2556 267.762 91.9545C274.518 89.6534 280.008 87.8442 280.031 87.912Z" fill="#E0E0E0"/>
<path d="M268.152 95.3975C268.12 95.4059 268.087 95.4059 268.055 95.3975H268.021L268.27 95.3184C268.27 95.3579 268.27 95.4145 268.18 95.4371C268.089 95.4597 268.044 95.4371 268.027 95.3975L268.276 95.3184C268.276 95.3184 268.276 95.3466 268.276 95.3523C268.26 95.3687 268.24 95.3813 268.219 95.3891C268.197 95.3969 268.174 95.3998 268.152 95.3975Z" fill="#E0E0E0"/>
<path d="M291.18 158.8C291.112 158.8 285.956 143.862 279.657 125.385C273.359 106.909 268.316 91.9035 268.383 91.8809C268.451 91.8583 273.608 106.818 279.9 125.301C286.193 143.783 291.248 158.777 291.18 158.8Z" fill="#E0E0E0"/>
<path d="M156.59 256.322L158.529 227.202L215.444 230.992C216.384 231.055 217.26 231.488 217.881 232.196C218.501 232.905 218.814 233.831 218.751 234.771L217.284 256.806C217.221 257.745 216.788 258.622 216.079 259.242C215.371 259.862 214.445 260.175 213.505 260.113L156.59 256.322Z" fill="#F5F5F5"/>
<path d="M174.398 239.123L173.18 257.424L199.344 259.166L200.563 240.866L174.398 239.123Z" fill="#E0E0E0"/>
<path d="M153.232 225.512L151.059 258.141C151.016 258.796 151.511 259.361 152.165 259.405L159.905 259.921C160.559 259.964 161.125 259.469 161.169 258.815L163.342 226.185C163.385 225.531 162.89 224.965 162.236 224.922L154.496 224.406C153.842 224.363 153.276 224.858 153.232 225.512Z" fill="#EBEBEB"/>
<path d="M161.278 257.216C159.58 257.26 157.881 257.2 156.19 257.035C154.5 256.973 152.816 256.809 151.146 256.543C152.845 256.499 154.544 256.56 156.235 256.724C157.924 256.786 159.609 256.95 161.278 257.216Z" fill="#E0E0E0"/>
<path d="M161.465 254.39C159.776 254.436 158.086 254.376 156.405 254.209C154.715 254.147 153.031 253.983 151.361 253.717C153.05 253.677 154.74 253.738 156.421 253.898C158.111 253.959 159.795 254.124 161.465 254.39Z" fill="#E0E0E0"/>
<path d="M161.657 251.568C159.959 251.612 158.259 251.551 156.569 251.387C154.879 251.325 153.195 251.161 151.525 250.895C153.224 250.851 154.923 250.911 156.614 251.076C158.303 251.138 159.987 251.302 161.657 251.568Z" fill="#E0E0E0"/>
<path d="M161.843 248.742C160.144 248.786 158.445 248.725 156.754 248.561C155.065 248.499 153.38 248.335 151.711 248.069C153.409 248.028 155.108 248.089 156.799 248.25C158.489 248.311 160.173 248.476 161.843 248.742Z" fill="#E0E0E0"/>
<path d="M162.029 245.919C160.34 245.963 158.65 245.902 156.969 245.738C155.277 245.677 153.591 245.512 151.92 245.246C153.618 245.202 155.318 245.263 157.008 245.427C158.69 245.49 160.367 245.654 162.029 245.919Z" fill="#E0E0E0"/>
<path d="M162.221 243.093C160.523 243.138 158.824 243.077 157.133 242.913C155.444 242.851 153.759 242.687 152.09 242.421C153.788 242.38 155.487 242.44 157.178 242.602C158.868 242.663 160.552 242.828 162.221 243.093Z" fill="#E0E0E0"/>
<path d="M162.409 240.271C160.711 240.315 159.011 240.255 157.321 240.09C155.631 240.028 153.947 239.864 152.277 239.598C153.976 239.554 155.675 239.614 157.366 239.779C159.055 239.841 160.739 240.005 162.409 240.271Z" fill="#E0E0E0"/>
<path d="M162.595 237.445C160.896 237.489 159.197 237.429 157.506 237.264C155.817 237.202 154.132 237.038 152.463 236.772C154.161 236.731 155.86 236.792 157.551 236.953C159.241 237.015 160.925 237.179 162.595 237.445Z" fill="#E0E0E0"/>
<path d="M162.781 234.622C161.092 234.666 159.402 234.605 157.721 234.442C156.031 234.38 154.347 234.216 152.678 233.95C154.376 233.905 156.075 233.966 157.766 234.131C159.446 234.193 161.121 234.358 162.781 234.622Z" fill="#E0E0E0"/>
<path d="M162.973 231.796C161.275 231.841 159.576 231.78 157.885 231.616C156.196 231.554 154.511 231.39 152.842 231.124C154.54 231.083 156.239 231.143 157.93 231.305C159.62 231.366 161.304 231.531 162.973 231.796Z" fill="#E0E0E0"/>
<path d="M163.161 228.976C161.463 229.02 159.763 228.96 158.073 228.795C156.383 228.733 154.699 228.569 153.029 228.303C154.728 228.259 156.427 228.319 158.118 228.484C159.807 228.546 161.491 228.71 163.161 228.976Z" fill="#E0E0E0"/>
<path d="M163.347 226.148C161.658 226.191 159.969 226.131 158.287 225.967C156.596 225.905 154.91 225.741 153.238 225.475C154.937 225.431 156.636 225.491 158.327 225.656C160.009 225.718 161.685 225.883 163.347 226.148Z" fill="#E0E0E0"/>
<path d="M211.702 254.401L210.061 254.291C209.612 254.262 209.193 254.055 208.897 253.716C208.601 253.377 208.451 252.935 208.481 252.486L208.853 246.901L213.93 247.24L213.558 252.824C213.543 253.051 213.483 253.272 213.381 253.475C213.279 253.678 213.137 253.858 212.964 254.005C212.791 254.152 212.59 254.263 212.373 254.331C212.156 254.399 211.928 254.423 211.702 254.401Z" fill="#EBEBEB"/>
<path d="M210.438 241.679L212.134 241.798C212.584 241.829 213.003 242.038 213.299 242.379C213.595 242.719 213.743 243.163 213.712 243.613L213.32 249.21L208.232 248.854L208.623 243.257C208.655 242.807 208.864 242.388 209.204 242.092C209.545 241.796 209.988 241.648 210.438 241.679Z" fill="#E0E0E0"/>
<path d="M199.795 236.491L199.367 238.087C199.25 238.524 198.965 238.896 198.574 239.121C198.182 239.347 197.717 239.408 197.281 239.291L191.852 237.836L193.175 232.9L198.604 234.356C198.824 234.415 199.031 234.517 199.21 234.657C199.39 234.797 199.54 234.972 199.651 235.171C199.762 235.371 199.832 235.59 199.857 235.817C199.882 236.044 199.861 236.273 199.795 236.491Z" fill="#EBEBEB"/>
<path d="M187.271 234.287L187.697 232.698C187.813 232.263 188.097 231.893 188.487 231.668C188.876 231.443 189.339 231.382 189.774 231.498L195.18 232.946L193.864 237.861L188.458 236.414C188.238 236.355 188.033 236.253 187.854 236.113C187.674 235.974 187.525 235.8 187.414 235.601C187.304 235.403 187.234 235.185 187.209 234.959C187.185 234.733 187.206 234.505 187.271 234.287Z" fill="#E0E0E0"/>
<path d="M215.684 233.888L216.128 235.468C216.25 235.9 216.194 236.362 215.975 236.753C215.755 237.145 215.39 237.433 214.958 237.554L209.584 239.065L208.21 234.18L213.584 232.669C213.802 232.608 214.03 232.591 214.255 232.619C214.479 232.647 214.696 232.721 214.892 232.834C215.088 232.948 215.259 233.1 215.395 233.281C215.531 233.462 215.629 233.669 215.684 233.888Z" fill="#EBEBEB"/>
<path d="M200.285 239.063L199.841 237.483C199.719 237.051 199.774 236.589 199.994 236.198C200.213 235.806 200.579 235.518 201.011 235.397L206.406 233.88L207.78 238.765L202.407 240.276C202.188 240.341 201.958 240.36 201.731 240.334C201.504 240.308 201.285 240.236 201.087 240.122C200.888 240.009 200.715 239.857 200.577 239.675C200.44 239.492 200.34 239.284 200.285 239.063Z" fill="#E0E0E0"/>
<path d="M202.636 254.118L201.113 253.496C200.696 253.326 200.364 252.998 200.19 252.583C200.016 252.169 200.013 251.702 200.183 251.285L202.297 246.102L207.008 248.024L204.895 253.207C204.725 253.623 204.396 253.955 203.982 254.13C203.567 254.304 203.1 254.307 202.683 254.137L202.636 254.118Z" fill="#EBEBEB"/>
<path d="M206.309 240.75L207.832 241.372C208.249 241.542 208.581 241.87 208.755 242.285C208.929 242.699 208.932 243.166 208.762 243.583L206.648 248.766L201.937 246.844L204.051 241.661C204.136 241.451 204.263 241.26 204.424 241.1C204.585 240.939 204.776 240.813 204.987 240.728C205.198 240.643 205.423 240.601 205.65 240.605C205.877 240.609 206.101 240.658 206.309 240.75Z" fill="#E0E0E0"/>
<path d="M281.523 31.82L285.345 36.6823C285.415 36.7736 285.446 36.8885 285.432 37.0026C285.418 37.1166 285.361 37.2208 285.271 37.2929L280.358 41.1093C279.993 41.394 279.575 41.6039 279.129 41.7271C278.683 41.8502 278.216 41.8841 277.757 41.8269C277.297 41.7696 276.854 41.6224 276.451 41.3935C276.049 41.1646 275.695 40.8586 275.411 40.493C275.126 40.1274 274.916 39.7092 274.793 39.2624C274.67 38.8156 274.636 38.3489 274.693 37.8889C274.75 37.429 274.898 36.9848 275.127 36.5818C275.355 36.1788 275.662 35.8249 276.027 35.5402L280.941 31.7239C281.032 31.6651 281.143 31.6424 281.25 31.6602C281.358 31.6779 281.455 31.7349 281.523 31.82Z" fill="#EBEBEB"/>
<path d="M284.384 37.4063L280.585 32.527C280.55 32.4818 280.524 32.43 280.509 32.3748C280.494 32.3196 280.49 32.262 280.498 32.2053C280.505 32.1486 280.524 32.0939 280.552 32.0444C280.581 31.9948 280.619 31.9513 280.664 31.9164L285.571 28.1001C285.936 27.8154 286.354 27.6054 286.801 27.4823C287.247 27.3592 287.713 27.3252 288.173 27.3825C288.632 27.4397 289.076 27.587 289.478 27.8159C289.881 28.0448 290.234 28.3508 290.518 28.7164C290.803 29.082 291.013 29.5001 291.137 29.9469C291.26 30.3938 291.294 30.8605 291.236 31.3204C291.179 31.7804 291.032 32.2245 290.803 32.6275C290.574 33.0305 290.268 33.3845 289.902 33.6691L284.995 37.4741C284.905 37.5459 284.79 37.579 284.675 37.5663C284.561 37.5536 284.456 37.496 284.384 37.4063Z" fill="#E0E0E0"/>
<path d="M63.8964 147.588L69.7142 149.703C69.8235 149.743 69.9123 149.826 69.961 149.932C70.0097 150.038 70.0145 150.158 69.9743 150.268L67.8485 156.108C67.6906 156.544 67.4483 156.945 67.1355 157.287C66.8226 157.63 66.4454 157.907 66.0253 158.103C65.6052 158.3 65.1505 158.411 64.6873 158.432C64.224 158.452 63.7612 158.381 63.3254 158.223C62.4457 157.903 61.729 157.247 61.3325 156.399C60.9361 155.551 60.8923 154.58 61.2109 153.7L63.3367 147.859C63.3551 147.805 63.3843 147.754 63.4226 147.71C63.4608 147.667 63.5074 147.631 63.5595 147.606C63.6117 147.581 63.6683 147.566 63.7262 147.563C63.784 147.56 63.8419 147.568 63.8964 147.588Z" fill="#EBEBEB"/>
<path d="M69.3077 150.816L63.4956 148.702C63.4405 148.683 63.3899 148.653 63.3467 148.614C63.3035 148.575 63.2687 148.528 63.2444 148.475C63.2201 148.422 63.2068 148.365 63.2052 148.307C63.2037 148.248 63.214 148.191 63.2355 148.136L65.3614 142.29C65.5192 141.854 65.7615 141.454 66.0744 141.112C66.3874 140.77 66.7648 140.493 67.185 140.297C67.6052 140.101 68.06 139.99 68.5232 139.97C68.9864 139.95 69.449 140.022 69.8844 140.182C70.3204 140.339 70.7209 140.582 71.063 140.895C71.4052 141.208 71.6821 141.585 71.8781 142.005C72.074 142.425 72.185 142.88 72.2048 143.343C72.2246 143.807 72.1527 144.269 71.9933 144.705L69.8675 150.551C69.8278 150.66 69.7469 150.749 69.6421 150.798C69.5374 150.848 69.4172 150.855 69.3077 150.816Z" fill="#E0E0E0"/>
<path d="M307.96 259.635C307.96 259.72 253.774 259.782 186.968 259.782C120.163 259.782 65.9766 259.72 65.9766 259.635C65.9766 259.55 120.152 259.488 186.997 259.488C253.842 259.488 307.96 259.556 307.96 259.635Z" fill="#263238"/>
<path d="M261.763 9.86719H125.523C122.369 9.86719 119.812 12.4238 119.812 15.5776V199.186C119.812 202.339 122.369 204.896 125.523 204.896H261.763C264.917 204.896 267.473 202.339 267.473 199.186V15.5776C267.473 12.4238 264.917 9.86719 261.763 9.86719Z" fill="#455A64"/>
<path d="M257.579 19.084H129.695V191.497H257.579V19.084Z" fill="white"/>
<path d="M257.585 191.496C257.585 190.32 257.528 121.168 257.449 19.0546L257.585 19.1846H129.712L129.859 19.0376C129.859 83.3386 129.859 142.919 129.859 191.479L129.735 191.355L257.624 191.479L129.735 191.598H129.616V191.479C129.616 142.947 129.616 83.3669 129.588 19.0376V18.8906H129.752H257.624H257.754V19.0263C257.641 121.151 257.585 190.32 257.585 191.496Z" fill="#263238"/>
<path d="M156.618 48.0189L153.639 43.5354H150.343V48.0189H146.764V31.9281H153.458C154.687 31.8989 155.907 32.1422 157.031 32.6405C157.987 33.0668 158.797 33.7648 159.36 34.6476C159.925 35.5823 160.21 36.6597 160.18 37.7516C160.215 38.849 159.926 39.9324 159.349 40.8668C158.781 41.7449 157.964 42.4338 157.003 42.8457L160.474 48.0189H156.618ZM155.714 35.6879C155.01 35.1578 154.138 34.9007 153.26 34.9642H150.343V40.5728H153.26C154.141 40.6336 155.014 40.3702 155.714 39.8322C156.254 39.2778 156.557 38.5343 156.557 37.76C156.557 36.9858 156.254 36.2423 155.714 35.6879Z" fill="#FF618F"/>
<path d="M164.449 59.1412L160.91 53.8718L157.433 59.1638H153.537L158.965 51.4124L153.808 43.9211H157.664L161.057 48.8625L164.353 43.8984H168.017L162.928 51.2484L168.395 59.1298L164.449 59.1412Z" fill="#FF618F"/>
<path d="M213.175 35.7734H191.227V41.2068H213.175V35.7734Z" fill="#FFEFF4"/>
<path d="M245.361 39.2056C245.361 39.2904 239.357 39.3526 231.95 39.3526C224.544 39.3526 218.545 39.2904 218.545 39.2056C218.545 39.1208 224.544 39.0586 231.95 39.0586C239.357 39.0586 245.361 39.1264 245.361 39.2056Z" fill="#263238"/>
<path d="M244.859 45.723C244.859 45.8021 232.85 45.87 218.043 45.87C203.235 45.87 191.227 45.8021 191.227 45.723C191.227 45.6438 203.23 45.5703 218.043 45.5703C232.856 45.5703 244.859 45.6382 244.859 45.723Z" fill="#263238"/>
<path d="M244.859 52.1079C244.859 52.1871 232.85 52.2549 218.043 52.2549C203.235 52.2549 191.227 52.1871 191.227 52.1079C191.227 52.0288 203.23 51.9609 218.043 51.9609C232.856 51.9609 244.859 52.0231 244.859 52.1079Z" fill="#263238"/>
<path d="M253.226 69.137C253.226 69.2162 226.546 69.284 193.646 69.284C160.747 69.284 134.061 69.2162 134.061 69.137C134.061 69.0579 160.73 68.9844 193.646 68.9844C226.563 68.9844 253.226 69.0409 253.226 69.137Z" fill="#263238"/>
<path d="M253.226 165.512C253.226 165.591 226.546 165.659 193.646 165.659C160.747 165.659 134.061 165.591 134.061 165.512C134.061 165.433 160.73 165.365 193.646 165.365C226.563 165.365 253.226 165.427 253.226 165.512Z" fill="#263238"/>
<path d="M180.642 78.877H143.875V85.7746H180.642V78.877Z" fill="#FFEFF4"/>
<path d="M159.791 175.35H143.875V182.247H159.791V175.35Z" fill="#FFEFF4"/>
<path d="M213.23 175.35H197.314V182.247H213.23V175.35Z" fill="#FFEFF4"/>
<path d="M186.464 180.127C186.464 180.212 181.495 180.274 175.366 180.274C169.237 180.274 164.262 180.212 164.262 180.127C164.262 180.043 169.231 179.98 175.366 179.98C181.5 179.98 186.464 180.048 186.464 180.127Z" fill="#263238"/>
<path d="M243.615 180.127C243.615 180.212 238.645 180.274 232.516 180.274C226.387 180.274 221.412 180.212 221.412 180.127C221.412 180.043 226.382 179.98 232.516 179.98C238.651 179.98 243.615 180.048 243.615 180.127Z" fill="#263238"/>
<path d="M242.297 96.1626C242.297 96.2418 220.512 96.3096 193.674 96.3096C166.835 96.3096 145.051 96.2418 145.051 96.1626C145.051 96.0835 166.824 96.0156 193.674 96.0156C220.524 96.0156 242.297 96.0778 242.297 96.1626Z" fill="#263238"/>
<path d="M244.185 104.032C244.185 104.117 221.983 104.179 194.601 104.179C167.22 104.179 145.012 104.117 145.012 104.032C145.012 103.947 167.209 103.885 194.601 103.885C221.994 103.885 244.185 103.953 244.185 104.032Z" fill="#263238"/>
<path d="M193.086 111.907C193.086 111.986 182.067 112.054 168.48 112.054C154.894 112.054 143.875 111.986 143.875 111.907C143.875 111.828 154.889 111.76 168.48 111.76C182.072 111.76 193.086 111.822 193.086 111.907Z" fill="#263238"/>
<path d="M243.455 140.46C243.455 140.46 243.348 140.505 243.127 140.573L242.166 140.867C240.924 141.236 239.661 141.531 238.384 141.749C237.461 141.911 236.527 142 235.591 142.014C234.47 142.036 233.353 141.897 232.272 141.602C231.027 141.246 229.88 140.609 228.919 139.742C227.835 138.752 227.123 137.421 226.901 135.97C226.784 135.187 226.88 134.386 227.178 133.652C227.511 132.889 228.056 132.237 228.749 131.775C229.107 131.527 229.511 131.353 229.937 131.263C230.364 131.172 230.804 131.168 231.231 131.249C231.665 131.356 232.072 131.548 232.43 131.815C232.779 132.107 233.071 132.462 233.289 132.861C233.705 133.688 233.913 134.604 233.894 135.529C233.898 136.476 233.726 137.416 233.386 138.3C232.648 140.129 231.431 141.727 229.863 142.925C228.221 144.201 226.27 145.02 224.209 145.299C223.153 145.45 222.079 145.437 221.026 145.26C220.492 145.174 219.964 145.047 219.449 144.881C218.934 144.691 218.431 144.468 217.945 144.214C216.975 143.673 216.111 142.96 215.395 142.11C214.655 141.243 214.137 140.209 213.885 139.097C213.609 137.955 213.752 136.751 214.287 135.705C214.818 134.646 215.699 133.803 216.78 133.319C217.327 133.071 217.929 132.966 218.527 133.013C219.121 133.073 219.688 133.287 220.173 133.635C221.092 134.364 221.726 135.393 221.965 136.541C222.225 137.641 222.286 138.779 222.146 139.9C222.035 140.998 221.79 142.078 221.416 143.117C220.723 145.166 219.497 146.994 217.866 148.414C216.28 149.775 214.297 150.586 212.212 150.727C210.286 150.923 208.354 150.427 206.76 149.328C205.167 148.229 204.017 146.598 203.516 144.728C203.005 143.059 203.072 141.266 203.709 139.64C204.008 138.864 204.522 138.189 205.19 137.695C205.524 137.45 205.912 137.29 206.321 137.226C206.723 137.166 207.133 137.244 207.485 137.446C207.808 137.656 208.078 137.938 208.274 138.269C208.47 138.601 208.587 138.973 208.616 139.357C208.711 140.06 208.682 140.773 208.531 141.466C208.308 142.729 207.928 143.96 207.401 145.13C206.944 146.145 206.375 147.107 205.704 147.996C205.144 148.75 204.512 149.447 203.816 150.077C202.867 150.962 201.797 151.708 200.639 152.293C200.341 152.451 200.036 152.593 199.723 152.717L199.4 152.841L199.711 152.689C199.915 152.587 200.232 152.463 200.616 152.242C201.755 151.632 202.807 150.871 203.743 149.981C205.227 148.582 206.425 146.907 207.271 145.05C207.798 143.895 208.178 142.677 208.401 141.426C208.539 140.751 208.564 140.057 208.475 139.374C208.447 139.022 208.34 138.681 208.162 138.377C207.984 138.072 207.739 137.812 207.446 137.616C207.132 137.437 206.768 137.369 206.411 137.423C206.044 137.489 205.697 137.64 205.399 137.864C204.765 138.334 204.278 138.976 203.997 139.713C203.385 141.294 203.327 143.036 203.833 144.655C204.324 146.464 205.442 148.04 206.987 149.102C208.531 150.165 210.403 150.644 212.269 150.456C214.29 150.31 216.211 149.517 217.747 148.194C219.34 146.805 220.534 145.018 221.207 143.015C221.571 141.996 221.81 140.937 221.92 139.86C222.054 138.773 221.993 137.67 221.739 136.604C221.515 135.521 220.914 134.553 220.043 133.873C219.598 133.553 219.075 133.357 218.53 133.306C217.984 133.256 217.435 133.352 216.939 133.584C215.917 134.045 215.087 134.844 214.587 135.846C214.085 136.828 213.952 137.958 214.213 139.029C214.486 140.078 214.976 141.058 215.649 141.907C216.323 142.756 217.166 143.455 218.126 143.959C218.596 144.204 219.082 144.419 219.579 144.604C221.071 145.09 222.655 145.231 224.209 145.017C225.219 144.876 226.205 144.604 227.144 144.208C228.061 143.817 228.925 143.311 229.716 142.704C231.249 141.533 232.439 139.971 233.159 138.181C233.49 137.328 233.661 136.422 233.663 135.507C233.682 134.624 233.488 133.749 233.097 132.957C232.893 132.587 232.625 132.256 232.306 131.979C231.98 131.718 231.605 131.526 231.203 131.413C230.806 131.337 230.397 131.341 230.001 131.424C229.605 131.508 229.229 131.669 228.896 131.9C228.238 132.333 227.72 132.947 227.404 133.669C227.117 134.368 227.021 135.132 227.127 135.88C227.341 137.285 228.027 138.574 229.072 139.538C230.009 140.391 231.129 141.02 232.345 141.375C233.408 141.674 234.509 141.819 235.613 141.805C236.543 141.799 237.472 141.72 238.389 141.568C239.664 141.359 240.926 141.083 242.172 140.742L243.144 140.477L243.455 140.46Z" fill="#263238"/>
<path d="M214.978 8.21094H172.303V24.5279H214.978V8.21094Z" fill="#3C8AFF"/>
<path d="M214.978 24.522C214.978 24.522 214.978 24.4203 214.978 24.228C214.978 24.0358 214.978 23.7474 214.978 23.3799C214.978 22.628 214.978 21.5425 214.978 20.1403C214.978 17.3134 214.944 13.2596 214.921 8.21074L215.023 8.3125L172.354 8.35773L172.501 8.21074C172.501 13.9098 172.501 19.4223 172.501 24.522L172.359 24.3807L202.89 24.4485L211.783 24.4881H214.175H214.797H215.012C214.946 24.4937 214.88 24.4937 214.814 24.4881H214.209H211.851L202.986 24.5277L172.337 24.5899H172.195V24.4485C172.195 19.3601 172.195 13.8363 172.195 8.13724L172.342 7.99023L215.012 8.03547H215.113V8.13724C215.113 13.2257 215.074 17.2964 215.057 20.129C215.057 21.5198 215.057 22.5997 215.057 23.346C215.057 23.7022 215.057 23.9793 215.057 24.1771C215.057 24.375 214.978 24.522 214.978 24.522Z" fill="#263238"/>
<path d="M266.088 259.387H238.452C237.859 259.387 237.29 259.154 236.867 258.739C236.444 258.323 236.201 257.758 236.191 257.165L235.523 182.631H267.648L268.316 257.12C268.317 257.715 268.084 258.287 267.667 258.711C267.25 259.135 266.683 259.378 266.088 259.387Z" fill="#3C8AFF"/>
<g opacity="0.3">
<path d="M262.023 199.173V256.554C262.023 256.554 266.547 258.058 266.767 254.1C266.988 250.143 266.869 199.162 266.869 199.162L262.023 199.173Z" fill="white"/>
</g>
<path d="M264.618 178.848H238.61C238.16 178.848 237.729 179.026 237.411 179.344C237.093 179.663 236.914 180.094 236.914 180.544V182.212H266.314V180.516C266.307 180.071 266.125 179.646 265.807 179.334C265.49 179.022 265.063 178.848 264.618 178.848Z" fill="#FAFAFA"/>
<path d="M264.618 178.848C264.712 178.834 264.807 178.834 264.901 178.848C265.18 178.883 265.445 178.99 265.67 179.159C265.856 179.297 266.013 179.471 266.131 179.672C266.248 179.872 266.324 180.094 266.354 180.324C266.354 180.889 266.354 181.454 266.354 182.178V182.246H266.28C260.892 182.286 250.484 182.32 238.577 182.32H236.739V180.595C236.73 180.314 236.785 180.035 236.9 179.779C237.015 179.522 237.186 179.295 237.401 179.114C237.616 178.935 237.869 178.807 238.141 178.741C238.402 178.694 238.668 178.677 238.933 178.69H240.437H246.153L255.764 178.724L262.227 178.769H263.979H264.432H264.584H264.432H263.979H262.227L255.764 178.814L246.153 178.848H240.437H238.933C238.691 178.834 238.448 178.849 238.209 178.893C237.982 178.95 237.769 179.057 237.587 179.204C236.773 179.821 237.101 181.008 237.022 182.031L236.875 181.884H238.571C250.495 181.884 260.904 181.912 266.275 181.958L266.201 182.031C266.201 181.336 266.201 180.708 266.201 180.194C266.18 179.974 266.114 179.76 266.008 179.566C265.902 179.371 265.758 179.2 265.585 179.063C265.287 178.908 264.954 178.834 264.618 178.848Z" fill="#263238"/>
<path d="M269.554 181.404H233.647C232.823 181.404 232.154 182.073 232.154 182.897V197.67C232.154 198.495 232.823 199.163 233.647 199.163H269.554C270.379 199.163 271.047 198.495 271.047 197.67V182.897C271.047 182.073 270.379 181.404 269.554 181.404Z" fill="#FAFAFA"/>
<path d="M269.554 199.174C269.554 199.174 269.656 199.174 269.837 199.129C270.108 199.072 270.357 198.939 270.555 198.745C271.217 198.247 270.951 197.048 270.99 195.675C270.99 192.848 270.962 188.805 270.945 183.802C270.945 183.491 270.945 183.174 270.945 182.852C270.935 182.55 270.826 182.26 270.634 182.026C270.434 181.789 270.162 181.622 269.86 181.551C269.533 181.516 269.204 181.507 268.876 181.523H264.613H255.205H233.658C233.442 181.522 233.23 181.572 233.038 181.671C232.846 181.769 232.68 181.912 232.556 182.088C232.435 182.256 232.355 182.45 232.324 182.654C232.312 182.884 232.312 183.114 232.324 183.344V191.655C232.324 193.453 232.324 195.222 232.324 196.958V197.608C232.325 197.803 232.367 197.996 232.448 198.174C232.529 198.35 232.646 198.507 232.792 198.633C232.939 198.76 233.111 198.854 233.296 198.909C233.489 198.962 233.69 198.982 233.89 198.965H235.767L253.367 198.993L265.24 199.044H268.463H269.306H269.588H269.306H268.463L265.24 199.073L253.367 199.118L235.767 199.152H233.89C233.665 199.168 233.44 199.145 233.223 199.084C232.998 199.019 232.79 198.907 232.613 198.755C232.435 198.602 232.292 198.414 232.194 198.202C232.098 197.987 232.048 197.754 232.047 197.518V196.868C232.047 195.134 232.047 193.366 232.047 191.564C232.047 189.761 232.047 187.923 232.047 186.063V183.236C232.047 182.993 232.047 182.773 232.047 182.507C232.086 182.247 232.184 181.999 232.335 181.783C232.487 181.569 232.688 181.395 232.921 181.275C233.154 181.155 233.413 181.092 233.675 181.093H255.222H264.63H268.893C269.238 181.076 269.584 181.089 269.927 181.133C270.278 181.221 270.591 181.42 270.821 181.698C271.04 181.972 271.164 182.309 271.177 182.66V183.615C271.177 188.613 271.137 192.661 271.126 195.488C271.126 196.183 271.126 196.805 271.126 197.348C271.143 197.581 271.107 197.815 271.021 198.033C270.935 198.25 270.801 198.445 270.629 198.603C270.42 198.798 270.158 198.926 269.877 198.971C269.784 199.06 269.675 199.129 269.554 199.174Z" fill="#263238"/>
<path d="M234.417 198.868C234.332 198.868 234.27 195.086 234.27 190.427C234.27 185.769 234.332 181.98 234.417 181.98C234.501 181.98 234.564 185.763 234.564 190.427C234.564 195.092 234.496 198.868 234.417 198.868Z" fill="#263238"/>
<path d="M237.356 198.868C237.271 198.868 237.209 195.086 237.209 190.427C237.209 185.769 237.271 181.98 237.356 181.98C237.441 181.98 237.503 185.763 237.503 190.427C237.503 195.092 237.435 198.868 237.356 198.868Z" fill="#263238"/>
<path d="M240.295 198.868C240.216 198.868 240.148 195.086 240.148 190.427C240.148 185.769 240.216 181.98 240.295 181.98C240.375 181.98 240.442 185.763 240.442 190.427C240.442 195.092 240.375 198.868 240.295 198.868Z" fill="#263238"/>
<path d="M243.237 198.868C243.158 198.868 243.09 195.086 243.09 190.427C243.09 185.769 243.158 181.98 243.237 181.98C243.316 181.98 243.384 185.763 243.384 190.427C243.384 195.092 243.322 198.868 243.237 198.868Z" fill="#263238"/>
<path d="M246.182 198.868C246.097 198.868 246.035 195.086 246.035 190.427C246.035 185.769 246.097 181.98 246.182 181.98C246.267 181.98 246.329 185.763 246.329 190.427C246.329 195.092 246.261 198.868 246.182 198.868Z" fill="#263238"/>
<path d="M249.122 198.868C249.037 198.868 248.975 195.086 248.975 190.427C248.975 185.769 249.037 181.98 249.122 181.98C249.206 181.98 249.269 185.763 249.269 190.427C249.269 195.092 249.201 198.868 249.122 198.868Z" fill="#263238"/>
<path d="M252.061 198.868C251.982 198.868 251.914 195.086 251.914 190.427C251.914 185.769 251.982 181.98 252.061 181.98C252.14 181.98 252.208 185.763 252.208 190.427C252.208 195.092 252.14 198.868 252.061 198.868Z" fill="#263238"/>
<path d="M255.001 198.868C254.921 198.868 254.854 195.086 254.854 190.427C254.854 185.769 254.921 181.98 255.001 181.98C255.08 181.98 255.148 185.763 255.148 190.427C255.148 195.092 255.085 198.868 255.001 198.868Z" fill="#263238"/>
<path d="M257.942 198.868C257.863 198.868 257.795 195.086 257.795 190.427C257.795 185.769 257.863 181.98 257.942 181.98C258.021 181.98 258.095 185.763 258.095 190.427C258.095 195.092 258.027 198.868 257.942 198.868Z" fill="#263238"/>
<path d="M260.887 198.868C260.802 198.868 260.74 195.086 260.74 190.427C260.74 185.769 260.802 181.98 260.887 181.98C260.972 181.98 261.034 185.763 261.034 190.427C261.034 195.092 260.966 198.868 260.887 198.868Z" fill="#263238"/>
<path d="M263.827 198.868C263.748 198.868 263.68 195.086 263.68 190.427C263.68 185.769 263.748 181.98 263.827 181.98C263.906 181.98 263.974 185.763 263.974 190.427C263.974 195.092 263.906 198.868 263.827 198.868Z" fill="#263238"/>
<path d="M266.766 198.868C266.687 198.868 266.619 195.086 266.619 190.427C266.619 185.769 266.687 181.98 266.766 181.98C266.845 181.98 266.913 185.763 266.913 190.427C266.913 195.092 266.851 198.868 266.766 198.868Z" fill="#263238"/>
<path d="M269.708 198.868C269.628 198.868 269.561 195.086 269.561 190.427C269.561 185.769 269.628 181.98 269.708 181.98C269.787 181.98 269.855 185.763 269.855 190.427C269.855 195.092 269.792 198.868 269.708 198.868Z" fill="#263238"/>
<path d="M265.868 212.539H238.057V234.809H265.868V212.539Z" fill="white"/>
<path d="M242.834 219.628L242.184 218.69H241.471V219.628H240.68V216.27H242.133C242.397 216.264 242.66 216.316 242.902 216.423C243.109 216.509 243.286 216.654 243.41 216.841C243.532 217.036 243.593 217.262 243.586 217.491C243.592 217.719 243.529 217.944 243.405 218.136C243.28 218.321 243.103 218.464 242.896 218.549L243.648 219.628H242.834ZM242.636 217.056C242.482 216.945 242.294 216.891 242.104 216.903H241.471V218.074H242.104C242.294 218.086 242.482 218.032 242.636 217.921C242.694 217.865 242.739 217.797 242.771 217.723C242.802 217.649 242.818 217.569 242.818 217.488C242.818 217.408 242.802 217.328 242.771 217.254C242.739 217.18 242.694 217.112 242.636 217.056Z" fill="#263238"/>
<path d="M244.531 221.947L243.762 220.844L243.01 221.947H242.168L243.344 220.33L242.213 218.77H243.05L243.779 219.799L244.497 218.77H245.295L244.164 220.302L245.345 221.947H244.531Z" fill="#263238"/>
<path d="M263.827 216.266H247.945V218.68H263.827V216.266Z" fill="#E0E0E0"/>
<path d="M262.024 224.672C262.024 224.752 257.388 224.819 251.666 224.819C245.945 224.819 241.309 224.752 241.309 224.672C241.309 224.593 245.945 224.525 251.666 224.525C257.388 224.525 262.024 224.616 262.024 224.672Z" fill="#263238"/>
<path d="M262.024 227.182C262.024 227.267 257.388 227.329 251.666 227.329C245.945 227.329 241.309 227.267 241.309 227.182C241.309 227.097 245.945 227.035 251.666 227.035C257.388 227.035 262.024 227.103 262.024 227.182Z" fill="#263238"/>
<path d="M250.542 230.332H239.811V232.401H250.542V230.332Z" fill="#E0E0E0"/>
<path d="M265.235 234.121C265.235 234.121 265.235 233.985 265.235 233.725C265.235 233.465 265.235 233.08 265.235 232.594C265.235 231.593 265.235 230.152 265.207 228.314C265.207 224.628 265.167 219.381 265.145 213.049L265.264 213.173H238.606C238.572 213.202 238.883 212.896 238.753 213.032V218.64C238.753 220.484 238.753 222.293 238.753 224.057C238.753 227.591 238.753 230.96 238.753 234.098L238.623 233.968L257.846 234.036L263.307 234.07H264.766H265.275C265.275 234.07 265.241 234.07 265.156 234.07H264.794H263.364L257.931 234.104L238.617 234.172H238.487V234.036C238.487 230.898 238.487 227.528 238.487 223.995C238.487 222.231 238.487 220.421 238.487 218.578V212.97C238.357 213.094 238.668 212.783 238.634 212.817H265.292H265.416V212.941C265.416 219.302 265.365 224.583 265.354 228.286C265.354 230.106 265.326 231.543 265.32 232.538C265.32 233.013 265.32 233.38 265.32 233.668C265.32 233.957 265.235 234.121 265.235 234.121Z" fill="#263238"/>
<path d="M237.356 253.31C237.271 253.31 237.209 241.685 237.209 227.347C237.209 213.009 237.271 201.385 237.356 201.385C237.441 201.385 237.503 213.009 237.503 227.347C237.503 241.685 237.435 253.31 237.356 253.31Z" fill="white"/>
<path d="M265.896 258.176C265.896 258.255 259.83 258.323 252.327 258.323C244.824 258.323 238.758 258.255 238.758 258.176C238.758 258.097 244.824 258.029 252.327 258.029C259.83 258.029 265.896 258.097 265.896 258.176Z" fill="#263238"/>
<path d="M293.459 259.353H271.07C270.59 259.353 270.129 259.163 269.788 258.825C269.447 258.488 269.253 258.029 269.249 257.549L268.684 197.172H294.691L295.228 257.515C295.234 257.993 295.052 258.453 294.721 258.797C294.39 259.141 293.936 259.341 293.459 259.353Z" fill="#FF618F"/>
<g opacity="0.3">
<path d="M290.162 210.561V257.058C290.162 257.058 293.826 258.273 294.007 255.067C294.188 251.862 294.086 210.561 294.086 210.561H290.162Z" fill="white"/>
</g>
<path d="M291.943 194.086H271.493C271.043 194.086 270.612 194.265 270.294 194.583C269.976 194.901 269.797 195.332 269.797 195.782V196.794H293.622V195.782C293.622 195.335 293.446 194.906 293.131 194.589C292.817 194.271 292.39 194.09 291.943 194.086Z" fill="#FAFAFA"/>
<path d="M291.943 194.085C292.024 194.074 292.106 194.074 292.187 194.085C292.427 194.105 292.66 194.183 292.865 194.311C293.205 194.518 293.465 194.835 293.6 195.21C293.678 195.449 293.712 195.7 293.702 195.951C293.702 196.217 293.702 196.516 293.702 196.788V196.912H293.628C289.224 196.957 280.952 196.985 271.494 196.985H269.65V196.838C269.65 196.409 269.65 196.019 269.65 195.566C269.715 195.122 269.94 194.718 270.283 194.428C270.625 194.139 271.062 193.984 271.511 193.995H272.709H277.26L284.916 194.023L290.044 194.068L291.435 194.096C291.595 194.094 291.756 194.103 291.915 194.125C291.755 194.137 291.595 194.137 291.435 194.125L290.044 194.153L284.916 194.198L277.26 194.232H271.539C271.164 194.223 270.799 194.349 270.51 194.588C270.214 194.831 270.022 195.176 269.973 195.555C269.939 195.928 269.973 196.375 269.973 196.788L269.826 196.641H271.522C280.981 196.641 289.252 196.669 293.657 196.714L293.583 196.788C293.583 196.494 293.583 196.222 293.583 195.951C293.602 195.714 293.575 195.476 293.504 195.25C293.389 194.893 293.156 194.585 292.842 194.379C292.57 194.212 292.262 194.111 291.943 194.085Z" fill="#263238"/>
<path d="M295.985 196.178H267.461C266.637 196.178 265.969 196.846 265.969 197.67V209.074C265.969 209.898 266.637 210.567 267.461 210.567H295.985C296.809 210.567 297.478 209.898 297.478 209.074V197.67C297.478 196.846 296.809 196.178 295.985 196.178Z" fill="#FAFAFA"/>
<path d="M295.981 210.56C296.281 210.538 296.569 210.436 296.817 210.266C297.104 210.053 297.305 209.744 297.383 209.395C297.419 209.167 297.428 208.936 297.411 208.705C297.411 208.457 297.411 208.185 297.411 207.908C297.411 205.647 297.383 202.373 297.366 198.348C297.366 198.099 297.366 197.833 297.366 197.584C297.351 197.341 297.271 197.107 297.134 196.906C296.994 196.696 296.799 196.528 296.571 196.42C296.343 196.311 296.091 196.266 295.839 196.29H292.402H284.826H267.463C267.114 196.291 266.779 196.427 266.528 196.669C266.278 196.912 266.13 197.241 266.117 197.59C266.117 198.348 266.117 199.1 266.117 199.852V204.284C266.117 205.739 266.117 207.164 266.117 208.558C266.086 208.888 266.119 209.22 266.213 209.537C266.333 209.827 266.545 210.07 266.818 210.226C267.103 210.368 267.423 210.427 267.74 210.396H268.746L282.926 210.43L292.487 210.475H295.087H295.76H295.992H295.76H295.087L292.487 210.503L282.926 210.549L268.746 210.582H267.74C267.386 210.645 267.023 210.61 266.688 210.481C266.359 210.293 266.102 210 265.959 209.65C265.889 209.469 265.851 209.278 265.846 209.084V208.558C265.846 207.164 265.846 205.739 265.846 204.284V197.613C265.862 197.188 266.041 196.786 266.347 196.491C266.653 196.196 267.061 196.031 267.485 196.03H284.848H292.424H295.862C296.15 196.015 296.438 196.074 296.697 196.202C296.956 196.329 297.179 196.521 297.343 196.759C297.496 196.994 297.584 197.265 297.598 197.545C297.598 197.816 297.598 198.065 297.598 198.319C297.598 202.345 297.558 205.607 297.547 207.88C297.547 208.157 297.547 208.445 297.547 208.677C297.558 208.914 297.543 209.151 297.501 209.384C297.414 209.754 297.19 210.077 296.874 210.288C296.683 210.418 296.464 210.5 296.235 210.526C296.153 210.552 296.067 210.564 295.981 210.56Z" fill="#263238"/>
<path d="M267.819 210.323C267.74 210.323 267.672 207.264 267.672 203.488C267.672 199.711 267.74 196.646 267.819 196.646C267.898 196.646 267.966 199.705 267.966 203.488C267.966 207.27 267.875 210.323 267.819 210.323Z" fill="#263238"/>
<path d="M270.176 210.323C270.097 210.323 270.029 207.264 270.029 203.488C270.029 199.711 270.097 196.646 270.176 196.646C270.255 196.646 270.323 199.705 270.323 203.488C270.323 207.27 270.261 210.323 270.176 210.323Z" fill="#263238"/>
<path d="M272.563 210.323C272.478 210.323 272.416 207.264 272.416 203.488C272.416 199.711 272.478 196.646 272.563 196.646C272.648 196.646 272.71 199.705 272.71 203.488C272.71 207.27 272.642 210.323 272.563 210.323Z" fill="#263238"/>
<path d="M274.942 210.323C274.863 210.323 274.795 207.264 274.795 203.488C274.795 199.711 274.863 196.646 274.942 196.646C275.021 196.646 275.089 199.705 275.089 203.488C275.089 207.27 275.027 210.323 274.942 210.323Z" fill="#263238"/>
<path d="M277.329 210.323C277.244 210.323 277.182 207.264 277.182 203.488C277.182 199.711 277.244 196.646 277.329 196.646C277.413 196.646 277.476 199.705 277.476 203.488C277.476 207.27 277.43 210.323 277.329 210.323Z" fill="#263238"/>
<path d="M279.692 210.323C279.613 210.323 279.545 207.264 279.545 203.488C279.545 199.711 279.613 196.646 279.692 196.646C279.771 196.646 279.839 199.705 279.839 203.488C279.839 207.27 279.794 210.323 279.692 210.323Z" fill="#263238"/>
<path d="M282.094 210.323C282.009 210.323 281.947 207.264 281.947 203.488C281.947 199.711 282.009 196.646 282.094 196.646C282.179 196.646 282.241 199.705 282.241 203.488C282.241 207.27 282.173 210.323 282.094 210.323Z" fill="#263238"/>
<path d="M284.475 210.323C284.396 210.323 284.328 207.264 284.328 203.488C284.328 199.711 284.396 196.646 284.475 196.646C284.554 196.646 284.622 199.705 284.622 203.488C284.622 207.27 284.554 210.323 284.475 210.323Z" fill="#263238"/>
<path d="M286.86 210.323C286.775 210.323 286.707 207.264 286.707 203.488C286.707 199.711 286.775 196.646 286.86 196.646C286.944 196.646 287.007 199.705 287.007 203.488C287.007 207.27 286.939 210.323 286.86 210.323Z" fill="#263238"/>
<path d="M289.241 210.323C289.162 210.323 289.094 207.264 289.094 203.488C289.094 199.711 289.162 196.646 289.241 196.646C289.32 196.646 289.388 199.705 289.388 203.488C289.388 207.27 289.303 210.323 289.241 210.323Z" fill="#263238"/>
<path d="M291.622 210.323C291.542 210.323 291.475 207.264 291.475 203.488C291.475 199.711 291.542 196.646 291.622 196.646C291.701 196.646 291.769 199.705 291.769 203.488C291.769 207.27 291.706 210.323 291.622 210.323Z" fill="#263238"/>
<path d="M294.006 210.323C293.922 210.323 293.859 207.264 293.859 203.488C293.859 199.711 293.922 196.646 294.006 196.646C294.091 196.646 294.153 199.705 294.153 203.488C294.153 207.27 294.086 210.323 294.006 210.323Z" fill="#263238"/>
<path d="M296.387 210.323C296.308 210.323 296.24 207.264 296.24 203.488C296.24 199.711 296.308 196.646 296.387 196.646C296.466 196.646 296.534 199.705 296.534 203.488C296.534 207.27 296.472 210.323 296.387 210.323Z" fill="#263238"/>
<path d="M293.279 221.398H270.748V239.44H293.279V221.398Z" fill="white"/>
<path d="M274.602 227.144L274.082 226.386H273.517V227.144H272.906V224.424H274.037C274.252 224.419 274.466 224.459 274.665 224.543C274.832 224.615 274.973 224.735 275.072 224.888C275.168 225.046 275.218 225.226 275.218 225.411C275.218 225.595 275.168 225.776 275.072 225.934C274.971 226.084 274.827 226.2 274.659 226.267L275.27 227.144H274.602ZM274.444 225.058C274.319 224.97 274.167 224.928 274.014 224.939H273.5V225.883H274.037C274.191 225.895 274.343 225.85 274.467 225.759C274.517 225.716 274.557 225.662 274.582 225.601C274.608 225.54 274.619 225.474 274.614 225.408C274.617 225.341 274.604 225.275 274.577 225.214C274.549 225.153 274.508 225.099 274.455 225.058H274.444Z" fill="#263238"/>
<path d="M275.995 229.02L275.373 228.126L274.762 229.02H274.078L275.028 227.708L274.123 226.447H274.802L275.367 227.278L275.933 226.447H276.577L275.735 227.685L276.69 229.02H275.995Z" fill="#263238"/>
<path d="M291.62 224.418H278.758V226.374H291.62V224.418Z" fill="#E0E0E0"/>
<path d="M290.161 231.225C290.161 231.31 286.407 231.372 281.771 231.372C277.135 231.372 273.381 231.31 273.381 231.225C273.381 231.14 277.135 231.078 281.771 231.078C286.407 231.078 290.161 231.146 290.161 231.225Z" fill="#263238"/>
<path d="M290.161 233.266C290.161 233.345 286.407 233.413 281.771 233.413C277.135 233.413 273.381 233.345 273.381 233.266C273.381 233.187 277.135 233.119 281.771 233.119C286.407 233.119 290.161 233.181 290.161 233.266Z" fill="#263238"/>
<path d="M280.862 235.811H272.166V237.484H280.862V235.811Z" fill="#E0E0E0"/>
<path d="M292.764 238.886C292.764 238.886 292.764 238.768 292.764 238.558C292.764 238.349 292.764 238.027 292.764 237.642C292.764 236.823 292.764 235.652 292.736 234.171C292.736 231.18 292.696 226.934 292.674 221.812L292.792 221.936H271.2L271.347 221.789V224.051C271.347 224.814 271.347 225.566 271.347 226.312V230.7C271.347 233.56 271.347 236.286 271.347 238.835L271.217 238.7L286.782 238.768L291.215 238.801H292.397H292.702H292.809H292.425H291.294L286.89 238.835L271.24 238.903H271.104V238.773C271.104 236.223 271.104 233.498 271.104 230.637V221.704C270.974 221.834 271.285 221.523 271.257 221.557H292.849H292.973V221.789C292.973 226.94 292.922 231.22 292.911 234.228C292.911 235.698 292.883 236.857 292.877 237.665C292.877 238.044 292.877 238.344 292.877 238.564C292.848 238.674 292.811 238.782 292.764 238.886Z" fill="#263238"/>
<path d="M270.176 254.428C270.097 254.428 270.029 245.008 270.029 233.396C270.029 221.783 270.097 212.363 270.176 212.363C270.255 212.363 270.323 221.777 270.323 233.396C270.323 245.014 270.261 254.428 270.176 254.428Z" fill="white"/>
<path d="M293.301 258.37C293.301 258.454 288.383 258.517 282.322 258.517C276.261 258.517 271.348 258.454 271.348 258.37C271.348 258.285 276.261 258.223 282.322 258.223C288.383 258.223 293.301 258.291 293.301 258.37Z" fill="#263238"/>
<path d="M112.513 235.206L108.764 248.521C108.764 248.521 120.711 256.9 120.253 259.427L94.8105 252.885L99.8255 231.898L112.513 235.206Z" fill="#455A64"/>
<path d="M101.166 245.373C100.9 245.391 100.649 245.506 100.463 245.697C100.276 245.888 100.166 246.141 100.154 246.408C100.155 246.675 100.258 246.931 100.442 247.124C100.626 247.318 100.877 247.433 101.144 247.448C101.427 247.432 101.694 247.311 101.892 247.108C102.09 246.905 102.204 246.635 102.212 246.351C102.161 245.814 101.579 245.254 101.082 245.384" fill="#E0E0E0"/>
<g opacity="0.6">
<path d="M94.8105 252.887L95.3759 250.795L119.563 257.834C119.563 257.834 120.575 258.625 120.247 259.411L94.8105 252.887Z" fill="white"/>
</g>
<path d="M109.211 248.492C109.171 248.622 108.538 248.492 107.826 248.769C107.113 249.046 106.655 249.476 106.554 249.397C106.452 249.318 106.819 248.628 107.684 248.339C108.549 248.051 109.262 248.362 109.211 248.492Z" fill="#263238"/>
<path d="M111.602 250.308C111.602 250.443 111.037 250.517 110.472 250.952C109.906 251.388 109.657 251.919 109.533 251.88C109.409 251.84 109.533 251.105 110.206 250.585C110.879 250.065 111.631 250.189 111.602 250.308Z" fill="#263238"/>
<path d="M112.338 253.972C112.219 253.972 112.202 253.293 112.688 252.677C113.174 252.061 113.819 251.931 113.853 252.049C113.887 252.168 113.429 252.451 113.033 252.965C112.637 253.48 112.445 254.017 112.338 253.972Z" fill="#263238"/>
<path d="M109.736 245.367C109.652 245.469 109.126 245.147 108.413 245.017C107.701 244.886 107.096 244.971 107.056 244.841C107.017 244.711 107.656 244.4 108.492 244.564C109.329 244.728 109.821 245.282 109.736 245.367Z" fill="#263238"/>
<path d="M103.591 238.344L103.025 252.185C103.025 252.185 116.595 257.449 116.696 260.021L90.457 259.812L90.5136 238.203L103.591 238.344Z" fill="#455A64"/>
<path d="M94.8967 250.958C94.6412 251.038 94.4237 251.209 94.2852 251.438C94.1466 251.667 94.0967 251.939 94.1448 252.202C94.2044 252.462 94.3629 252.688 94.5868 252.833C94.8106 252.977 95.0821 253.029 95.3434 252.977C95.6146 252.892 95.8451 252.71 95.991 252.466C96.137 252.222 96.1882 251.933 96.1349 251.654C96.0447 251.392 95.8557 251.177 95.6084 251.053C95.3611 250.929 95.0751 250.908 94.8119 250.992" fill="#E0E0E0"/>
<g opacity="0.6">
<path d="M90.4297 259.811L90.5202 257.635L115.646 258.647C115.646 258.647 116.81 259.178 116.669 260.021L90.4297 259.811Z" fill="white"/>
</g>
<path d="M103.428 252.054C103.428 252.184 102.783 252.241 102.144 252.653C101.506 253.066 101.172 253.62 101.053 253.569C100.935 253.518 101.132 252.761 101.913 252.269C102.693 251.777 103.456 251.93 103.428 252.054Z" fill="#263238"/>
<path d="M106.17 253.242C106.17 253.367 105.645 253.587 105.204 254.141C104.763 254.695 104.638 255.272 104.508 255.272C104.378 255.272 104.305 254.52 104.864 253.847C105.424 253.174 106.17 253.118 106.17 253.242Z" fill="#263238"/>
<path d="M107.707 256.628C107.588 256.657 107.418 256.001 107.752 255.283C108.085 254.565 108.685 254.282 108.741 254.395C108.798 254.508 108.419 254.887 108.176 255.475C107.933 256.063 107.814 256.617 107.707 256.628Z" fill="#263238"/>
<path d="M103.218 248.883C103.168 249.002 102.58 248.815 101.856 248.883C101.132 248.951 100.561 249.16 100.499 249.047C100.437 248.934 100.98 248.482 101.833 248.425C102.687 248.369 103.292 248.781 103.218 248.883Z" fill="#263238"/>
<path d="M87.3595 137.045V147.991L90.226 190.632C90.226 190.632 88.4394 211.319 87.3425 223C86.3927 233.137 87.9475 250.8 87.9475 250.8H104.649L110.642 191.904L114.351 155.154L120.819 138.453L87.3595 137.045Z" fill="#263238"/>
<path d="M131.339 138.95L128.139 198.445L111.246 242.992L110.466 245.672L100.492 243.201L107.91 137.791L131.339 138.95Z" fill="#263238"/>
<path d="M114.294 155.605C114.3 155.688 114.3 155.771 114.294 155.854C114.294 156.035 114.294 156.273 114.294 156.578C114.294 157.234 114.249 158.172 114.209 159.371C114.142 161.791 113.972 165.29 113.735 169.616C113.231 178.266 112.293 190.201 110.823 203.341C109.353 216.48 107.787 228.342 106.622 236.924C106.057 241.199 105.553 244.665 105.22 247.101C105.05 248.289 104.915 249.216 104.824 249.86C104.773 250.166 104.739 250.426 104.711 250.578C104.702 250.661 104.685 250.742 104.66 250.822V250.573C104.66 250.398 104.711 250.16 104.745 249.855C104.824 249.205 104.937 248.277 105.084 247.084C105.389 244.67 105.836 241.199 106.39 236.907C107.521 228.319 109.053 216.458 110.501 203.318C111.948 190.179 112.937 178.266 113.497 169.621C113.763 165.302 113.966 161.802 114.062 159.382C114.125 158.184 114.17 157.251 114.204 156.595C114.204 156.29 114.238 156.03 114.249 155.871C114.254 155.781 114.27 155.692 114.294 155.605Z" fill="#455A64"/>
<path d="M115.351 140.726C115.347 140.895 115.293 141.059 115.196 141.197C115.098 141.335 114.963 141.442 114.805 141.503C114.648 141.565 114.476 141.579 114.311 141.543C114.146 141.507 113.995 141.424 113.877 141.303C113.759 141.182 113.679 141.029 113.648 140.863C113.616 140.697 113.635 140.525 113.7 140.369C113.766 140.214 113.876 140.081 114.017 139.987C114.158 139.894 114.323 139.844 114.492 139.844C114.606 139.844 114.72 139.868 114.825 139.913C114.931 139.958 115.026 140.023 115.106 140.105C115.186 140.187 115.249 140.284 115.291 140.391C115.333 140.497 115.354 140.611 115.351 140.726Z" fill="#455A64"/>
<path d="M130.034 149.036C129.59 148.718 129.194 148.337 128.858 147.905C127.995 146.884 127.286 145.741 126.755 144.513C126.221 143.287 125.867 141.99 125.704 140.663C125.609 140.117 125.596 139.561 125.664 139.012C125.715 139.012 125.749 139.639 125.918 140.634C126.147 141.924 126.526 143.182 127.049 144.383C127.575 145.575 128.241 146.701 129.034 147.736C129.633 148.55 130.068 148.996 130.034 149.036Z" fill="#455A64"/>
<path d="M128.039 83.373C128.039 83.373 131.233 84.6282 132.715 89.3096C133.744 92.5662 138.561 116.81 138.561 116.81L131.844 121.237L129.113 98.5366L128.039 83.373Z" fill="#E0E0E0"/>
<path d="M102.496 71.793L100.392 75.5245C100.392 75.5245 86.3313 82.6709 86.3822 83.372C86.3822 83.372 87.1681 110.047 87.3151 129.615C87.3716 137.004 87.1002 143.794 86.9532 147.057C86.5631 155.622 86.2578 188.895 86.2578 188.895L137.142 187.691L128.04 83.372L120.859 80.2341L119.943 78.3627L116.647 75.6828L102.496 71.793Z" fill="#E0E0E0"/>
<path d="M124.776 187.969C124.784 187.894 124.784 187.818 124.776 187.743C124.776 187.579 124.776 187.358 124.748 187.081C124.714 186.476 124.669 185.617 124.606 184.52C124.476 182.287 124.284 179.076 124.041 175.124C123.56 167.174 122.91 156.217 122.17 144.112C121.429 132.008 120.841 121.05 120.383 113.095C120.174 109.138 119.998 105.932 119.88 103.693C119.818 102.596 119.772 101.743 119.738 101.138C119.738 100.861 119.704 100.64 119.693 100.476C119.689 100.4 119.679 100.325 119.665 100.25C119.659 100.325 119.659 100.401 119.665 100.476C119.665 100.64 119.665 100.861 119.665 101.143C119.665 101.743 119.71 102.602 119.75 103.699C119.829 105.921 119.97 109.138 120.157 113.107C120.53 121.022 121.129 132.019 121.853 144.135C122.577 156.251 123.278 167.203 123.815 175.135C124.086 179.093 124.312 182.293 124.465 184.532C124.55 185.623 124.618 186.482 124.663 187.081L124.719 187.749C124.73 187.824 124.749 187.898 124.776 187.969Z" fill="#263238"/>
<path d="M116.646 75.683L117.828 83.8528L119.942 100.249L110.727 84.4295L102.727 73.9473L115.911 83.1856L116.075 75.5303" fill="#FF618F"/>
<path d="M100.33 76.0234C100.394 76.244 100.48 76.458 100.584 76.6623C100.782 77.109 101.042 77.7026 101.37 78.432L104.231 84.6512L104.265 84.7303H104.356H106.278L106.187 84.4703L104.774 85.6293L104.644 85.7367L104.763 85.8555L107.443 88.4788L116.065 96.8408L118.699 99.3455L119.429 100.018C119.508 100.102 119.598 100.176 119.694 100.239C119.632 100.14 119.556 100.05 119.468 99.973L118.784 99.2607L116.212 96.6825L107.657 88.2583C106.736 87.3537 105.831 86.4774 104.972 85.6406V85.8611L106.38 84.6964L106.691 84.4363H106.284H104.361L104.486 84.5155C103.281 82.0052 102.264 79.8794 101.523 78.3415C101.167 77.6235 100.884 77.0411 100.669 76.6058C100.572 76.4031 100.458 76.2084 100.33 76.0234Z" fill="#263238"/>
<path d="M119.942 100.233C120.03 99.899 120.093 99.5588 120.129 99.2153C120.231 98.5086 120.361 97.5701 120.519 96.4336C120.836 94.0816 121.254 90.8307 121.695 87.2405L122.102 83.8934V83.7634L121.972 83.7295L119.66 83.1641V83.4355L121.978 83.0228L122.136 82.9945L122.068 82.8531L120.542 79.5343C120.366 79.1782 120.225 78.8785 120.106 78.6354C120.064 78.5251 120.005 78.4221 119.931 78.3301C119.955 78.4455 119.993 78.5576 120.044 78.6637C120.146 78.9124 120.27 79.229 120.417 79.5909C120.779 80.439 121.265 81.5754 121.848 82.9493L121.938 82.7853L119.614 83.1641L118.947 83.2715L119.603 83.4355L121.91 84.0009L121.797 83.8426C121.661 84.9055 121.525 86.0306 121.378 87.184C120.937 90.7798 120.553 94.0308 120.293 96.3884C120.174 97.5192 120.072 98.4747 119.999 99.2153C119.954 99.5526 119.935 99.8928 119.942 100.233Z" fill="#263238"/>
<path d="M112.078 143.886H111.75L110.772 143.948L107.018 144.219L93.5732 145.254H93.4375V145.39C93.6523 147.917 93.8898 150.665 94.1386 153.56C94.263 155.015 94.3911 156.501 94.523 158.02C94.5909 158.784 94.6531 159.547 94.7209 160.322C94.7446 160.722 94.8071 161.12 94.9075 161.509C95.0268 161.91 95.206 162.292 95.439 162.64C96.1999 163.667 97.3359 164.352 98.5994 164.545C99.7884 164.692 100.986 164.757 102.184 164.737C104.445 164.743 106.7 164.497 108.906 164.002C109.43 163.876 109.942 163.707 110.439 163.499C110.686 163.399 110.924 163.278 111.151 163.137C111.266 163.06 111.374 162.973 111.473 162.877C111.564 162.777 111.649 162.671 111.728 162.56C112.21 161.674 112.508 160.699 112.604 159.694C112.827 157.93 112.915 156.151 112.87 154.374C112.819 151.117 112.587 148.494 112.412 146.685C112.327 145.78 112.242 145.084 112.18 144.61C112.18 144.383 112.123 144.208 112.106 144.044C112.103 143.982 112.09 143.921 112.067 143.863C112.067 143.863 112.067 143.925 112.067 144.05C112.067 144.174 112.067 144.366 112.112 144.615C112.157 145.113 112.214 145.808 112.287 146.696C112.429 148.505 112.627 151.128 112.649 154.374C112.675 156.139 112.575 157.904 112.35 159.654C112.25 160.62 111.959 161.555 111.496 162.408C111.204 162.806 110.791 163.099 110.32 163.245C109.838 163.444 109.341 163.605 108.833 163.725C106.648 164.207 104.416 164.446 102.178 164.438C100.999 164.455 99.8205 164.391 98.6503 164.245C97.4652 164.065 96.3987 163.425 95.6821 162.464C95.4739 162.149 95.3103 161.807 95.1958 161.447C95.1023 161.076 95.0437 160.697 95.0206 160.316C94.9527 159.541 94.8849 158.772 94.8227 158.009C94.687 156.494 94.557 155.001 94.4269 153.554C94.1668 150.654 93.9237 147.9 93.6976 145.384L93.5788 145.531L106.928 144.366L110.704 144.022L111.711 143.925C111.834 143.921 111.957 143.908 112.078 143.886Z" fill="#263238"/>
<g opacity="0.3">
<path d="M94.9356 161.146C96.3717 164.889 100.12 165.104 104.157 164.539C107.951 163.973 111.603 163.188 111.886 162.102C111.784 164.086 110.325 165.607 108.493 166.405C106.634 167.115 104.637 167.396 102.653 167.224C100.578 167.128 98.7859 167.224 97.0727 166.043C95.3596 164.861 94.9299 162.854 94.9356 161.146Z" fill="black"/>
</g>
<path d="M133.421 145.045C133.416 144.998 133.416 144.951 133.421 144.904L133.37 144.497C133.332 144.12 133.276 143.594 133.2 142.919C133.065 141.517 132.872 139.527 132.635 137.107C132.171 132.2 131.549 125.415 130.894 117.924C130.238 110.432 129.672 103.642 129.294 98.7006C129.107 96.2412 128.971 94.2511 128.892 92.8772C128.847 92.1874 128.83 91.6559 128.819 91.2884C128.819 91.1245 128.819 90.9888 128.819 90.8757C128.81 90.829 128.81 90.7811 128.819 90.7344C128.954 92.3288 129.899 103.133 131.188 117.873C131.832 125.358 132.42 132.132 132.844 137.067C133.042 139.504 133.206 141.483 133.319 142.885C133.37 143.552 133.41 144.084 133.438 144.468C133.438 144.632 133.438 144.768 133.438 144.881C133.44 144.936 133.435 144.992 133.421 145.045Z" fill="#263238"/>
<path d="M140.794 117.347C141.011 118.13 141.091 118.945 141.031 119.756C140.913 120.994 140.856 124.036 137.56 125.076C134.264 126.116 132.664 125.121 131.652 123.725L131.148 117.675L134.676 115.346L140.794 117.347Z" fill="#E0E0E0"/>
<g opacity="0.3">
<path d="M113.255 121.236C113.255 121.236 104.825 129.564 98.2776 130.763C91.7305 131.962 89.3898 129.632 87.6484 123.769L113.255 121.236Z" fill="black"/>
</g>
<path d="M86.5331 83.1699C86.5331 83.1699 81.1789 88.134 82.7055 99.8883C84.1189 110.811 86.6631 126.02 89.9876 127.79C93.312 129.56 100.577 128.672 105.875 125.67C111.172 122.668 126.523 114.549 126.523 114.549L120.168 103.241L99.6952 111.156C99.6952 111.156 97.0492 93.0641 95.4605 89.9206" fill="#E0E0E0"/>
<path d="M95.3765 89.711C95.3765 89.711 95.4331 89.8297 95.5348 90.0615C95.5801 90.1746 95.6479 90.316 95.7158 90.4912C95.7836 90.6665 95.8402 90.8813 95.9193 91.1131C96.219 92.0517 96.5751 93.4595 96.9653 95.2913C97.7568 98.9493 98.7123 104.287 99.7187 110.935L99.5717 110.845L120.033 102.873L120.146 102.828L120.208 102.935C122.215 106.509 124.352 110.285 126.569 114.243L126.642 114.379L126.506 114.452L113.378 121.525L106.939 124.991C105.881 125.556 104.83 126.15 103.739 126.619C102.65 127.079 101.532 127.466 100.391 127.778C98.1708 128.4 95.8658 128.667 93.5617 128.57C92.4385 128.52 91.3318 128.281 90.2881 127.863L89.9036 127.693C89.7793 127.631 89.6605 127.541 89.5361 127.462C89.3261 127.283 89.1364 127.082 88.9708 126.862C88.6342 126.428 88.3443 125.96 88.1057 125.466C87.2237 123.564 86.5342 121.579 86.0477 119.541C85.5332 117.579 85.1262 115.651 84.7587 113.779C84.035 110.042 83.4979 106.537 83.0625 103.331C82.6272 100.125 82.2144 97.208 82.3332 94.6242C82.389 92.4158 82.7817 90.229 83.4979 88.1392C83.962 86.8229 84.6153 85.5811 85.4371 84.4529C85.653 84.1614 85.8872 83.8838 86.1382 83.6218C86.224 83.5339 86.3146 83.4509 86.4096 83.373L86.1608 83.6444C85.9212 83.9127 85.6966 84.1939 85.488 84.4869C84.6921 85.6233 84.0602 86.8661 83.6109 88.1788C82.9095 90.2595 82.5282 92.4346 82.4802 94.6298C82.3784 97.1967 82.7855 100.097 83.2491 103.297C83.7127 106.497 84.2611 110.003 84.9961 113.734C85.3636 115.594 85.7763 117.517 86.2965 119.473C86.7806 121.492 87.4643 123.458 88.3375 125.341C88.5659 125.814 88.8405 126.263 89.1573 126.681C89.3244 126.89 89.514 127.08 89.7227 127.247C89.8271 127.321 89.9367 127.387 90.0506 127.445L90.4125 127.609C91.4307 128.007 92.5087 128.23 93.6012 128.27C95.8731 128.363 98.1455 128.098 100.335 127.484C101.459 127.178 102.562 126.801 103.637 126.353C104.722 125.884 105.751 125.302 106.814 124.736L113.254 121.265L126.388 114.198L126.326 114.401L119.982 103.094L120.157 103.156L99.6734 111.071L99.5434 111.122V110.986C98.5653 104.343 97.6437 99.0002 96.8918 95.3365C96.5243 93.5047 96.185 92.0913 95.9023 91.1527C95.8345 90.9209 95.7723 90.7117 95.7158 90.5308L95.5518 90.0955C95.4387 89.8354 95.3765 89.711 95.3765 89.711Z" fill="#263238"/>
<path d="M102.727 103.258H112.887V99.8768H102.727V103.258Z" fill="#3C8AFF"/>
<path d="M104.83 101.363C105.878 101.211 106.938 101.16 107.996 101.21C109.056 101.16 110.118 101.211 111.168 101.363C110.117 101.508 109.056 101.558 107.996 101.51C106.939 101.557 105.879 101.508 104.83 101.363Z" fill="#263238"/>
<g opacity="0.3">
<path d="M119.427 100.029L104.473 87.8961L104.829 86.8389H103.529L101.369 78.4316L104.479 84.5378L106.277 84.453L104.971 85.6516L119.427 100.029Z" fill="black"/>
</g>
<path d="M100.958 86.1998L101.523 85.9737C101.523 85.9454 100.296 83.0224 99.0919 79.9241C98.6593 78.972 98.4839 77.9233 98.583 76.8823C98.6508 76.5548 98.8321 76.2618 99.0948 76.0549C99.3575 75.8481 99.6849 75.7406 100.019 75.7515L100.415 75.5423L100.618 75.1805C99.5725 74.9543 98.1703 75.8307 98.0007 76.7975C97.8904 77.9472 98.0854 79.1056 98.5661 80.1559C99.7251 83.2711 100.941 86.1715 100.958 86.1998Z" fill="#455A64"/>
<path d="M100.075 93.0301L100.827 92.7361C100.21 91.1474 99.368 88.3375 99.7299 87.5459C99.9083 87.2634 100.145 87.022 100.423 86.8378C100.702 86.6536 101.017 86.5307 101.347 86.4774C101.751 86.3707 102.174 86.3591 102.583 86.4435C102.992 86.5278 103.376 86.7059 103.705 86.9636C104.564 87.6929 105.864 90.2598 106.294 91.1926L107.023 90.8534C106.961 90.7121 105.401 87.3367 104.225 86.3304C103.801 85.9917 103.305 85.7562 102.775 85.6424C102.246 85.5286 101.696 85.5396 101.172 85.6745C100.716 85.7534 100.284 85.9343 99.9082 86.2035C99.5322 86.4727 99.222 86.8234 99.0005 87.2293C98.3899 88.541 99.7864 92.3178 100.075 93.0301Z" fill="#455A64"/>
<path d="M108.194 105.287C109.122 105.287 110.038 104.789 110.914 103.805L110.609 103.534C109.647 104.625 108.652 105.055 107.669 104.823C103.649 103.879 100.584 92.7127 100.556 92.5996L100.166 92.7014C100.296 93.1706 103.321 104.218 107.573 105.213C107.776 105.263 107.985 105.287 108.194 105.287Z" fill="#263238"/>
<path d="M110.138 104.263C110.22 104.345 110.328 104.395 110.443 104.403C110.559 104.411 110.673 104.378 110.766 104.308L111.636 103.658C111.701 103.618 111.757 103.564 111.801 103.501C111.845 103.438 111.875 103.367 111.891 103.292C111.906 103.217 111.906 103.14 111.89 103.064C111.875 102.989 111.844 102.918 111.8 102.855C111.754 102.783 111.692 102.722 111.619 102.677C111.545 102.632 111.463 102.604 111.377 102.596C111.292 102.588 111.205 102.6 111.125 102.63C111.044 102.66 110.972 102.708 110.913 102.771L110.127 103.585C110.039 103.676 109.99 103.799 109.992 103.926C109.994 104.054 110.047 104.175 110.138 104.263Z" fill="#263238"/>
<path d="M106.486 105.654C107.009 105.694 107.534 105.603 108.013 105.389C108.492 105.175 108.909 104.844 109.228 104.427C111.699 100.962 107.04 91.3387 106.842 90.9316L106.48 91.1069C106.526 91.2087 111.235 100.922 108.9 104.196C108.29 105.049 107.204 105.388 105.723 105.202L105.672 105.598C105.942 105.635 106.214 105.654 106.486 105.654Z" fill="#263238"/>
<path d="M106.559 105.435C106.552 105.55 106.503 105.658 106.422 105.74C106.341 105.822 106.233 105.872 106.118 105.882L105.033 105.972C104.958 105.984 104.881 105.981 104.807 105.962C104.733 105.944 104.664 105.91 104.603 105.864C104.542 105.819 104.491 105.761 104.454 105.695C104.416 105.629 104.392 105.556 104.383 105.48C104.369 105.395 104.374 105.308 104.399 105.226C104.423 105.143 104.466 105.068 104.525 105.004C104.583 104.941 104.655 104.892 104.735 104.861C104.816 104.83 104.902 104.817 104.988 104.824L106.118 104.92C106.244 104.932 106.361 104.992 106.443 105.088C106.526 105.184 106.567 105.309 106.559 105.435Z" fill="#263238"/>
<path d="M125.907 93.6291C127.494 93.6291 128.779 92.3432 128.779 90.7569C128.779 89.1707 127.494 87.8848 125.907 87.8848C124.321 87.8848 123.035 89.1707 123.035 90.7569C123.035 92.3432 124.321 93.6291 125.907 93.6291Z" fill="#263238"/>
<path d="M125.907 93.6291C127.494 93.6291 128.779 92.3432 128.779 90.7569C128.779 89.1707 127.494 87.8848 125.907 87.8848C124.321 87.8848 123.035 89.1707 123.035 90.7569C123.035 92.3432 124.321 93.6291 125.907 93.6291Z" fill="#263238"/>
<path d="M123.787 90.7569C123.786 91.1778 123.91 91.5896 124.143 91.9401C124.376 92.2905 124.708 92.5639 125.097 92.7255C125.485 92.8871 125.913 92.9297 126.326 92.8478C126.739 92.766 127.118 92.5634 127.416 92.2657C127.714 91.9681 127.916 91.5888 127.998 91.1759C128.08 90.763 128.037 90.3351 127.876 89.9464C127.714 89.5577 127.441 89.2258 127.09 88.9926C126.74 88.7595 126.328 88.6356 125.907 88.6367C125.345 88.6367 124.806 88.8601 124.408 89.2577C124.01 89.6553 123.787 90.1946 123.787 90.7569Z" fill="#E0E0E0"/>
<path d="M119.813 78.2446C120.084 78.6347 123.086 84.9726 124.726 88.167L125.206 87.9183C124.963 87.449 120.599 78.4425 120.259 77.9393L117.082 75.3555L116.969 75.9604L119.813 78.2446Z" fill="#455A64"/>
<path d="M118.608 90.6894C120.688 92.7644 125.958 98.1638 125.958 98.1638L127.366 97.3157L119.948 89.4004C119.797 89.2399 119.595 89.1382 119.376 89.1134C119.158 89.0885 118.937 89.1421 118.755 89.2647C118.641 89.3404 118.545 89.4404 118.474 89.5575C118.403 89.6747 118.359 89.8061 118.345 89.9423C118.331 90.0786 118.347 90.2162 118.392 90.3454C118.438 90.4746 118.511 90.5921 118.608 90.6894Z" fill="#263238"/>
<path d="M120.105 103.009L121.875 98.0223C122.059 97.4843 122.4 97.0142 122.855 96.6733C123.31 96.3324 123.857 96.1366 124.425 96.1113H124.691C125.754 96.2301 131.164 96.5862 131.164 96.5862L133.256 98.9326C133.428 99.1278 133.523 99.3791 133.523 99.6393C133.523 99.8995 133.428 100.151 133.256 100.346L133.861 104.586L132.691 105.401L132.81 108.363C132.81 108.363 131.752 109.064 131.283 108.832L130.808 108.595L130.107 107.888L128.106 110.715L125.341 112.315L120.105 103.009Z" fill="#FFBF9D"/>
<path d="M133.291 100.583C133.054 100.295 132.801 100.022 132.533 99.7634C132.232 99.505 131.89 99.2986 131.521 99.1527C131.041 99.0393 130.55 98.973 130.057 98.9549C128.758 98.8833 127.467 98.7094 126.195 98.4347C127.496 98.4038 128.796 98.4756 130.085 98.6495C130.604 98.6666 131.118 98.7463 131.617 98.887C132.014 99.0549 132.374 99.2967 132.68 99.5994C132.987 99.851 133.201 100.197 133.291 100.583Z" fill="#FF9A6C"/>
<path d="M133.172 104.479C133.051 104.109 132.906 103.749 132.737 103.399C132.254 102.598 131.518 101.981 130.645 101.646C129.757 101.326 128.819 101.167 127.875 101.177C127.479 101.204 127.081 101.192 126.688 101.143C127.07 101.015 127.472 100.954 127.875 100.962C128.853 100.886 129.836 101.021 130.758 101.358C131.696 101.714 132.469 102.405 132.929 103.297C133.141 103.652 133.227 104.069 133.172 104.479Z" fill="#FF9A6C"/>
<path d="M132.641 108.114C132.446 107.758 132.348 107.356 132.359 106.95C132.336 106.533 132.246 106.123 132.093 105.734C131.988 105.511 131.831 105.318 131.633 105.171C131.436 105.024 131.205 104.928 130.962 104.892C130.03 104.692 129.086 104.556 128.135 104.485C127.731 104.469 127.334 104.376 126.965 104.213C127.363 104.204 127.762 104.223 128.158 104.27C129.126 104.278 130.09 104.386 131.036 104.592C131.32 104.663 131.589 104.788 131.827 104.96C132.048 105.132 132.22 105.361 132.325 105.621C132.479 106.041 132.554 106.486 132.545 106.933C132.573 107.668 132.692 108.097 132.641 108.114Z" fill="#FF9A6C"/>
<path d="M135.593 98.7617L112.254 122.864L113.153 123.774L129.871 121.892L152.368 100.458L152.345 99.4289L135.593 98.7617Z" fill="#455A64"/>
<g opacity="0.3">
<path d="M139.963 110.002C139.413 109.5 138.764 109.119 138.058 108.884C137.352 108.648 136.605 108.563 135.864 108.633C134.38 108.786 132.974 109.376 131.827 110.33C130.855 111.041 130.147 112.056 129.814 113.213C129.339 115.237 131.007 118.07 132.845 119.053C135.174 117.182 137.441 114.31 139.771 112.444C140.149 112.2 140.433 111.835 140.579 111.409C140.599 111.142 140.553 110.875 140.445 110.629C140.338 110.384 140.172 110.168 139.963 110.002Z" fill="black"/>
</g>
<path d="M152.276 100.413C152.175 100.42 152.073 100.42 151.971 100.413H151.078L147.731 100.374L136.084 100.17L136.191 100.125L130.345 106.191L118.218 118.669L114.52 122.423L113.502 123.436C113.387 123.557 113.265 123.67 113.135 123.775C113.234 123.644 113.346 123.523 113.468 123.413L114.446 122.361L118.076 118.539C121.18 115.311 125.426 110.884 130.136 105.999C132.199 103.862 134.184 101.815 135.993 99.9495L136.038 99.9043H136.084L147.714 100.238L151.055 100.357L151.948 100.402C152.058 100.394 152.168 100.397 152.276 100.413Z" fill="#263238"/>
<path d="M137.666 107.48C137.666 107.48 139.928 107.526 140.669 107.893C141.409 108.261 143.433 110.409 143.433 110.409C143.433 110.409 143.433 111.879 142.868 111.936C142.94 112.265 142.98 112.6 142.987 112.936C143.043 113.762 143.162 114.231 142.042 114.938C142.042 114.938 142.161 116.289 141.748 116.634C141.469 116.869 141.175 117.084 140.866 117.279C140.866 117.279 140.804 118.766 138.808 118.749L136.937 119.574C136.937 119.574 132.776 119.184 133.217 118.692C133.658 118.2 134.659 115.763 134.659 115.763C134.659 115.763 131.832 113.688 131.866 113.044C131.899 112.399 132.16 112.337 132.16 112.337C132.16 112.337 132.046 111.105 133.042 110.986C133.042 110.986 133.81 109.454 134.574 109.397C135.337 109.341 140.516 111.218 140.516 111.218L138.577 109.572C138.577 109.572 136.632 109.278 136.694 108.628C136.756 107.978 137.666 107.48 137.666 107.48Z" fill="#FFBF9D"/>
<path d="M137.328 115.233C136.431 114.855 135.553 114.43 134.699 113.961C133.802 113.576 132.924 113.146 132.07 112.672C133.039 112.852 133.972 113.186 134.835 113.661C135.743 114.051 136.585 114.582 137.328 115.233Z" fill="#FF9A6C"/>
<path d="M140.041 113.435C138.881 113.167 137.746 112.8 136.649 112.338C135.521 111.972 134.428 111.509 133.381 110.953C134.541 111.222 135.676 111.588 136.773 112.05C137.901 112.416 138.994 112.879 140.041 113.435Z" fill="#FF9A6C"/>
<path d="M103.19 61.3336C102.438 58.7695 101.904 56.1462 101.596 53.4918C101.287 50.8246 101.645 48.1226 102.636 45.6273C102.8 45.2542 104.134 42.8004 104.53 42.8343C104.818 42.8739 103.965 45.2089 104.089 45.469C105.356 47.9228 105.582 50.8119 105.22 53.554C104.842 56.2138 104.169 58.8232 103.213 61.3336" fill="#263238"/>
<path d="M103.455 51.1399C103.58 44.4344 107.588 38.9276 114.282 39.2668L114.899 39.3347C117.897 39.644 120.668 41.0725 122.659 43.3352C124.65 45.5978 125.715 48.5282 125.641 51.5413C125.5 57.3478 125.268 63.7592 124.906 66.8462C124.154 73.2294 117.652 73.5516 117.652 73.5516L116.171 83.4006L102.494 73.8909L103.455 51.1399Z" fill="#FFBF9D"/>
<path d="M117.631 73.5758C114.677 73.255 111.878 72.0955 109.562 70.2344C109.562 70.2344 110.84 75.7016 117.28 75.7977L117.631 73.5758Z" fill="#FF9A6C"/>
<path d="M123.183 56.8628C123.16 57.1009 123.044 57.3205 122.862 57.4747C122.679 57.629 122.443 57.7056 122.205 57.6883C122.087 57.6854 121.972 57.6591 121.865 57.6109C121.759 57.5628 121.663 57.4937 121.583 57.4078C121.503 57.3218 121.442 57.2209 121.402 57.1108C121.362 57.0007 121.345 56.8837 121.351 56.7667C121.374 56.5282 121.489 56.308 121.671 56.1529C121.854 55.9977 122.09 55.9198 122.329 55.9356C122.446 55.9392 122.562 55.9662 122.668 56.015C122.775 56.0638 122.871 56.1334 122.951 56.2198C123.03 56.3061 123.092 56.4075 123.131 56.5179C123.171 56.6283 123.189 56.7456 123.183 56.8628Z" fill="#263238"/>
<path d="M123.973 54.0249C123.848 54.1267 123.209 53.5443 122.226 53.4595C121.242 53.3747 120.473 53.7761 120.377 53.6461C120.281 53.516 120.467 53.3804 120.806 53.1881C121.263 52.9359 121.787 52.833 122.305 52.8941C122.815 52.9458 123.296 53.1575 123.679 53.4991C123.956 53.7479 124.035 53.974 123.973 54.0249Z" fill="#263238"/>
<path d="M114.774 56.4656C114.751 56.7041 114.636 56.9243 114.454 57.0795C114.271 57.2346 114.035 57.3126 113.796 57.2967C113.679 57.2931 113.564 57.2661 113.457 57.2174C113.35 57.1686 113.254 57.0989 113.175 57.0126C113.095 56.9262 113.034 56.8249 112.994 56.7144C112.954 56.604 112.937 56.4867 112.943 56.3695C112.972 56.1361 113.09 55.923 113.272 55.7737C113.454 55.6244 113.686 55.5504 113.921 55.5667C114.036 55.5696 114.149 55.5952 114.254 55.642C114.36 55.6887 114.455 55.7558 114.534 55.8393C114.613 55.9227 114.675 56.021 114.716 56.1285C114.758 56.236 114.777 56.3505 114.774 56.4656Z" fill="#263238"/>
<path d="M114.305 53.4018C114.18 53.5093 113.541 52.9269 112.558 52.8365C111.574 52.746 110.805 53.1531 110.709 53.0174C110.613 52.8817 110.799 52.7573 111.138 52.5651C111.595 52.3128 112.119 52.21 112.637 52.2711C113.147 52.3228 113.628 52.5345 114.011 52.876C114.288 53.1305 114.367 53.3566 114.305 53.4018Z" fill="#263238"/>
<path d="M117.037 61.3297C117.572 61.2191 118.12 61.1792 118.665 61.2109C118.914 61.2109 119.157 61.2109 119.231 61.0187C119.279 60.761 119.247 60.4948 119.14 60.2555L118.603 58.2653C117.857 55.4384 117.348 53.1203 117.472 53.0921C117.597 53.0638 118.281 55.3536 119.027 58.1805C119.203 58.8759 119.372 59.5431 119.536 60.1763C119.653 60.4996 119.653 60.8537 119.536 61.177C119.491 61.2612 119.427 61.3339 119.35 61.3898C119.273 61.4456 119.184 61.4831 119.089 61.4993C118.945 61.518 118.799 61.518 118.654 61.4993C118.11 61.5093 117.567 61.4523 117.037 61.3297Z" fill="#263238"/>
<path d="M114.074 61.7015C114.232 61.7015 114.125 62.7758 114.956 63.6295C115.787 64.4832 116.935 64.4832 116.929 64.6359C116.923 64.7885 116.652 64.8168 116.171 64.7772C115.546 64.7208 114.961 64.4443 114.52 63.997C114.095 63.5702 113.854 62.9939 113.848 62.3913C113.853 61.939 114 61.6902 114.074 61.7015Z" fill="#263238"/>
<path d="M114.673 49.4097C114.549 49.6641 113.582 49.4097 112.412 49.4549C111.241 49.5002 110.28 49.6867 110.15 49.4549C110.094 49.3306 110.286 49.0987 110.716 48.8896C111.241 48.6226 111.822 48.4831 112.412 48.4825C113 48.4793 113.58 48.6129 114.108 48.8726C114.538 49.0535 114.73 49.2853 114.673 49.4097Z" fill="#263238"/>
<path d="M123.912 50.7115C123.714 50.915 123.064 50.6153 122.25 50.5192C121.436 50.4231 120.734 50.5192 120.599 50.2592C120.542 50.1404 120.672 49.9256 120.995 49.7447C121.424 49.5294 121.91 49.4524 122.385 49.5242C122.862 49.5719 123.312 49.7698 123.669 50.0895C123.929 50.3722 124.002 50.6097 123.912 50.7115Z" fill="#263238"/>
<path d="M103.479 55.9288C103.372 55.8666 99.2217 54.1648 98.8994 58.5522C98.5772 62.9395 103.049 62.3572 103.066 62.2328C103.083 62.1084 103.479 55.9288 103.479 55.9288Z" fill="#FFBF9D"/>
<path d="M101.843 60.4698C101.843 60.4698 101.764 60.5207 101.629 60.5716C101.442 60.6309 101.241 60.6188 101.063 60.5377C100.617 60.3341 100.277 59.5708 100.311 58.7793C100.33 58.4023 100.43 58.0339 100.605 57.6994C100.654 57.5609 100.736 57.4366 100.845 57.3379C100.953 57.2392 101.085 57.1691 101.227 57.134C101.317 57.1162 101.41 57.1309 101.49 57.1755C101.569 57.22 101.631 57.2915 101.663 57.3772C101.713 57.5015 101.663 57.5864 101.702 57.5977C101.742 57.609 101.798 57.5298 101.776 57.3489C101.759 57.2381 101.706 57.1362 101.623 57.0606C101.567 57.0108 101.502 56.9727 101.431 56.9485C101.36 56.9242 101.285 56.9143 101.21 56.9192C101.027 56.9399 100.852 57.0081 100.703 57.1172C100.555 57.2263 100.437 57.3725 100.362 57.5411C100.149 57.9063 100.027 58.3174 100.006 58.7397C99.972 59.6274 100.362 60.4868 100.984 60.7186C101.099 60.7614 101.223 60.7775 101.345 60.7657C101.468 60.754 101.586 60.7147 101.691 60.6507C101.832 60.5772 101.86 60.4811 101.843 60.4698Z" fill="#FF9A6C"/>
<path d="M123.251 44.0563C123.986 43.7114 122.001 41.2746 120.305 40.37C117.744 39.0017 113.764 38.0067 111.259 38.5381C108.274 39.1827 105.747 40.483 104.107 43.0612C102.516 45.6845 101.652 48.6836 101.602 51.7511C101.506 52.6831 101.66 53.624 102.049 54.4763C102.614 55.4826 103.745 56.1724 103.598 57.5067C103.566 57.7477 103.582 57.9927 103.645 58.2275C103.708 58.4624 103.817 58.6824 103.966 58.8749C104.718 59.7852 105.747 59.0446 106.255 58.27C107.33 56.6078 107.567 54.5667 107.782 52.6162C108.011 51.2291 108.011 49.8138 107.782 48.4267C107.612 47.6804 107.313 46.968 107.217 46.2104C107.13 45.8373 107.126 45.4499 107.204 45.075C107.282 44.7001 107.441 44.3467 107.669 44.0393C107.785 43.9167 107.911 43.805 108.048 43.7057C108.695 43.212 109.462 42.8994 110.269 42.8001C111.077 42.7007 111.897 42.8181 112.644 43.1403C115.058 44.175 119.197 45.7524 120.356 44.9835C122.018 43.881 122.448 43.1177 122.448 43.1177L123.251 44.0563Z" fill="#263238"/>
</svg>
