<svg width="344" height="146" viewBox="0 0 344 146" fill="none" xmlns="http://www.w3.org/2000/svg">
<rect x="0.5" y="0.274414" width="343" height="145" rx="11" fill="#407BFF"/>
<rect width="50.0519" height="3.66234" rx="1.83117" transform="matrix(1 0 0 -1 128.5 133.937)" fill="white" fill-opacity="0.7"/>
<rect width="12.2078" height="3.66234" rx="1.83117" transform="matrix(1 0 0 -1 180.993 133.937)" fill="white" fill-opacity="0.3"/>
<rect width="12.2078" height="3.66234" rx="1.83117" transform="matrix(1 0 0 -1 195.643 133.937)" fill="white" fill-opacity="0.3"/>
<rect width="12.2078" height="3.66234" rx="1.83117" transform="matrix(1 0 0 -1 210.292 133.937)" fill="white" fill-opacity="0.3"/>
<path d="M62.1145 77.2744H63.5985L59.6505 67.3484H58.0685L54.1205 77.2744H55.5905L56.6405 74.5024H61.0365L62.1145 77.2744ZM58.8245 68.7764L60.5465 73.2284H57.1305L58.8245 68.7764ZM66.1098 73.3824C66.1098 72.3604 66.6418 71.5344 67.6778 71.5344C68.8538 71.5344 69.2458 72.2904 69.2458 73.2284V77.2744H70.5618V73.0044C70.5618 71.5064 69.7638 70.3444 68.1538 70.3444C67.3698 70.3444 66.5718 70.6664 66.0818 71.5064V70.5404H64.7938V77.2744H66.1098V73.3824ZM75.7352 75.4684C75.7352 76.5324 76.6172 77.4844 77.9892 77.4844C79.1932 77.4844 79.8652 76.8404 80.1592 76.3644C80.1592 76.8544 80.2012 77.1064 80.2292 77.2744H81.5172C81.4892 77.1064 81.4332 76.7564 81.4332 76.1684V72.7944C81.4332 71.4784 80.6492 70.3304 78.6332 70.3304C77.1772 70.3304 76.0152 71.2264 75.8752 72.5144L77.1352 72.8084C77.2192 72.0244 77.7372 71.4504 78.6612 71.4504C79.6832 71.4504 80.1172 71.9964 80.1172 72.6544C80.1172 72.8924 80.0052 73.1024 79.5992 73.1584L77.7792 73.4244C76.6172 73.5924 75.7352 74.2644 75.7352 75.4684ZM78.1712 76.3784C77.4992 76.3784 77.0792 75.9024 77.0792 75.3984C77.0792 74.7964 77.4992 74.4744 78.0592 74.3904L80.1172 74.0824V74.3904C80.1172 75.8604 79.2492 76.3784 78.1712 76.3784ZM84.7853 79.9344V76.3644C85.1493 76.9664 85.9333 77.4564 86.9693 77.4564C88.9433 77.4564 90.1053 75.9024 90.1053 73.9004C90.1053 71.9404 89.0273 70.3864 87.0113 70.3864C85.9193 70.3864 85.1213 70.9184 84.7573 71.5904V70.5404H83.4833V79.9344H84.7853ZM88.7613 73.9004C88.7613 75.2864 87.9913 76.2804 86.7733 76.2804C85.5693 76.2804 84.7713 75.2864 84.7713 73.9004C84.7713 72.5564 85.5693 71.5484 86.7733 71.5484C88.0053 71.5484 88.7613 72.5564 88.7613 73.9004ZM93.0841 79.9344V76.3644C93.4481 76.9664 94.2321 77.4564 95.2681 77.4564C97.2421 77.4564 98.4041 75.9024 98.4041 73.9004C98.4041 71.9404 97.3261 70.3864 95.3101 70.3864C94.2181 70.3864 93.4201 70.9184 93.0561 71.5904V70.5404H91.7821V79.9344H93.0841ZM97.0601 73.9004C97.0601 75.2864 96.2901 76.2804 95.0721 76.2804C93.8681 76.2804 93.0701 75.2864 93.0701 73.9004C93.0701 72.5564 93.8681 71.5484 95.0721 71.5484C96.3041 71.5484 97.0601 72.5564 97.0601 73.9004ZM101.397 77.2744V67.1384H100.081V77.2744H101.397ZM104.49 73.2144C104.546 72.3464 105.218 71.4924 106.324 71.4924C107.514 71.4924 108.144 72.2484 108.172 73.2144H104.49ZM108.368 74.9644C108.116 75.7204 107.57 76.3224 106.478 76.3224C105.344 76.3224 104.476 75.4824 104.448 74.2784H109.516C109.53 74.1944 109.544 74.0264 109.544 73.8584C109.544 71.7584 108.382 70.3304 106.31 70.3304C104.616 70.3304 103.09 71.7724 103.09 73.8864C103.09 76.1684 104.672 77.4844 106.478 77.4844C108.046 77.4844 109.124 76.5464 109.502 75.3564L108.368 74.9644ZM114.304 75.4684C114.304 76.5324 115.186 77.4844 116.558 77.4844C117.762 77.4844 118.434 76.8404 118.728 76.3644C118.728 76.8544 118.77 77.1064 118.798 77.2744H120.086C120.058 77.1064 120.002 76.7564 120.002 76.1684V72.7944C120.002 71.4784 119.218 70.3304 117.202 70.3304C115.746 70.3304 114.584 71.2264 114.444 72.5144L115.704 72.8084C115.788 72.0244 116.306 71.4504 117.23 71.4504C118.252 71.4504 118.686 71.9964 118.686 72.6544C118.686 72.8924 118.574 73.1024 118.168 73.1584L116.348 73.4244C115.186 73.5924 114.304 74.2644 114.304 75.4684ZM116.74 76.3784C116.068 76.3784 115.648 75.9024 115.648 75.3984C115.648 74.7964 116.068 74.4744 116.628 74.3904L118.686 74.0824V74.3904C118.686 75.8604 117.818 76.3784 116.74 76.3784ZM126.336 73.8864C126.336 72.5004 127.12 71.5204 128.324 71.5204C129.528 71.5204 130.256 72.4724 130.256 73.8584C130.256 75.2444 129.514 76.2944 128.31 76.2944C127.05 76.2944 126.336 75.2724 126.336 73.8864ZM130.27 76.3644C130.27 76.7704 130.312 77.1204 130.34 77.2744H131.614C131.6 77.1624 131.544 76.6724 131.544 76.0284V67.1384H130.242V71.4924C130.018 70.9464 129.374 70.3584 128.184 70.3584C126.28 70.3584 124.992 71.9824 124.992 73.8864C124.992 75.8884 126.21 77.4564 128.184 77.4564C129.234 77.4564 129.948 76.8964 130.27 76.2524V76.3644ZM133.362 75.4684C133.362 76.5324 134.244 77.4844 135.616 77.4844C136.82 77.4844 137.492 76.8404 137.786 76.3644C137.786 76.8544 137.828 77.1064 137.856 77.2744H139.144C139.116 77.1064 139.06 76.7564 139.06 76.1684V72.7944C139.06 71.4784 138.276 70.3304 136.26 70.3304C134.804 70.3304 133.642 71.2264 133.502 72.5144L134.762 72.8084C134.846 72.0244 135.364 71.4504 136.288 71.4504C137.31 71.4504 137.744 71.9964 137.744 72.6544C137.744 72.8924 137.632 73.1024 137.226 73.1584L135.406 73.4244C134.244 73.5924 133.362 74.2644 133.362 75.4684ZM135.798 76.3784C135.126 76.3784 134.706 75.9024 134.706 75.3984C134.706 74.7964 135.126 74.4744 135.686 74.3904L137.744 74.0824V74.3904C137.744 75.8604 136.876 76.3784 135.798 76.3784ZM142.654 80.0884L147.036 70.5404H145.622L143.606 75.1884L141.506 70.5404H139.994L142.892 76.5324L141.212 80.0884H142.654ZM157.836 70.5404H156.016L153.104 73.5224V67.1384H151.802V77.2744H153.104V75.2444L154.042 74.3064L156.24 77.2744H157.892L154.966 73.3824L157.836 70.5404ZM159.656 73.2144C159.712 72.3464 160.384 71.4924 161.49 71.4924C162.68 71.4924 163.31 72.2484 163.338 73.2144H159.656ZM163.534 74.9644C163.282 75.7204 162.736 76.3224 161.644 76.3224C160.51 76.3224 159.642 75.4824 159.614 74.2784H164.682C164.696 74.1944 164.71 74.0264 164.71 73.8584C164.71 71.7584 163.548 70.3304 161.476 70.3304C159.782 70.3304 158.256 71.7724 158.256 73.8864C158.256 76.1684 159.838 77.4844 161.644 77.4844C163.212 77.4844 164.29 76.5464 164.668 75.3564L163.534 74.9644ZM167.244 73.2144C167.3 72.3464 167.972 71.4924 169.078 71.4924C170.268 71.4924 170.898 72.2484 170.926 73.2144H167.244ZM171.122 74.9644C170.87 75.7204 170.324 76.3224 169.232 76.3224C168.098 76.3224 167.23 75.4824 167.202 74.2784H172.27C172.284 74.1944 172.298 74.0264 172.298 73.8584C172.298 71.7584 171.136 70.3304 169.064 70.3304C167.37 70.3304 165.844 71.7724 165.844 73.8864C165.844 76.1684 167.426 77.4844 169.232 77.4844C170.8 77.4844 171.878 76.5464 172.256 75.3564L171.122 74.9644ZM175.279 79.9344V76.3644C175.643 76.9664 176.427 77.4564 177.463 77.4564C179.437 77.4564 180.599 75.9024 180.599 73.9004C180.599 71.9404 179.521 70.3864 177.505 70.3864C176.413 70.3864 175.615 70.9184 175.251 71.5904V70.5404H173.977V79.9344H175.279ZM179.255 73.9004C179.255 75.2864 178.485 76.2804 177.267 76.2804C176.063 76.2804 175.265 75.2864 175.265 73.9004C175.265 72.5564 176.063 71.5484 177.267 71.5484C178.499 71.5484 179.255 72.5564 179.255 73.9004ZM181.646 75.5244C181.758 76.2944 182.542 77.4844 184.39 77.4844C186.056 77.4844 186.854 76.3504 186.854 75.3984C186.854 74.4044 186.21 73.6624 184.992 73.3964L183.9 73.1584C183.382 73.0464 183.13 72.7524 183.13 72.3464C183.13 71.8844 183.578 71.4504 184.25 71.4504C185.314 71.4504 185.594 72.2204 185.65 72.5704L186.812 72.1364C186.672 71.5344 186.098 70.3304 184.25 70.3304C182.934 70.3304 181.856 71.3104 181.856 72.4584C181.856 73.4104 182.486 74.1244 183.536 74.3484L184.684 74.6004C185.244 74.7264 185.552 75.0484 185.552 75.4684C185.552 75.9444 185.146 76.3644 184.404 76.3644C183.452 76.3644 182.92 75.8044 182.836 75.1044L181.646 75.5244ZM193.87 68.4124H192.666V69.5044C192.666 70.0924 192.358 70.5404 191.63 70.5404H191.266V71.7304H192.554V75.4264C192.554 76.6444 193.282 77.3444 194.43 77.3444C194.878 77.3444 195.214 77.2604 195.326 77.2184V76.0984C195.214 76.1264 194.976 76.1544 194.808 76.1544C194.122 76.1544 193.87 75.8464 193.87 75.2304V71.7304H195.326V70.5404H193.87V68.4124ZM198.399 73.3124C198.427 72.3184 198.959 71.5344 199.967 71.5344C201.143 71.5344 201.535 72.2904 201.535 73.2284V77.2744H202.851V73.0044C202.851 71.5064 202.053 70.3444 200.443 70.3444C199.673 70.3444 198.889 70.6104 198.399 71.3244V67.1384H197.083V77.2744H198.399V73.3124ZM205.798 73.2144C205.854 72.3464 206.526 71.4924 207.632 71.4924C208.822 71.4924 209.452 72.2484 209.48 73.2144H205.798ZM209.676 74.9644C209.424 75.7204 208.878 76.3224 207.786 76.3224C206.652 76.3224 205.784 75.4824 205.756 74.2784H210.824C210.838 74.1944 210.852 74.0264 210.852 73.8584C210.852 71.7584 209.69 70.3304 207.618 70.3304C205.924 70.3304 204.398 71.7724 204.398 73.8864C204.398 76.1684 205.98 77.4844 207.786 77.4844C209.354 77.4844 210.432 76.5464 210.81 75.3564L209.676 74.9644ZM216.816 73.8864C216.816 72.5004 217.6 71.5204 218.804 71.5204C220.008 71.5204 220.736 72.4724 220.736 73.8584C220.736 75.2444 219.994 76.2944 218.79 76.2944C217.53 76.2944 216.816 75.2724 216.816 73.8864ZM220.75 76.3644C220.75 76.7704 220.792 77.1204 220.82 77.2744H222.094C222.08 77.1624 222.024 76.6724 222.024 76.0284V67.1384H220.722V71.4924C220.498 70.9464 219.854 70.3584 218.664 70.3584C216.76 70.3584 215.472 71.9824 215.472 73.8864C215.472 75.8884 216.69 77.4564 218.664 77.4564C219.714 77.4564 220.428 76.8964 220.75 76.2524V76.3644ZM227.147 76.3084C226.027 76.3084 225.047 75.4684 225.047 73.9004C225.047 72.3464 226.027 71.5064 227.147 71.5064C228.267 71.5064 229.247 72.3464 229.247 73.9004C229.247 75.4684 228.267 76.3084 227.147 76.3084ZM227.147 70.3304C225.131 70.3304 223.703 71.8564 223.703 73.9004C223.703 75.9584 225.131 77.4844 227.147 77.4844C229.163 77.4844 230.591 75.9584 230.591 73.9004C230.591 71.8564 229.163 70.3304 227.147 70.3304ZM235.102 71.5484C236.25 71.5484 236.74 72.3184 236.908 72.9764L238.098 72.4724C237.818 71.4504 236.894 70.3304 235.102 70.3304C233.184 70.3304 231.714 71.8004 231.714 73.9004C231.714 75.9444 233.156 77.4844 235.116 77.4844C236.866 77.4844 237.832 76.3504 238.154 75.3844L236.992 74.8804C236.838 75.4124 236.376 76.2664 235.116 76.2664C234.024 76.2664 233.058 75.4404 233.058 73.9004C233.058 72.3324 234.038 71.5484 235.102 71.5484ZM241.462 68.4124H240.258V69.5044C240.258 70.0924 239.95 70.5404 239.222 70.5404H238.858V71.7304H240.146V75.4264C240.146 76.6444 240.874 77.3444 242.022 77.3444C242.47 77.3444 242.806 77.2604 242.918 77.2184V76.0984C242.806 76.1264 242.568 76.1544 242.4 76.1544C241.714 76.1544 241.462 75.8464 241.462 75.2304V71.7304H242.918V70.5404H241.462V68.4124ZM247.49 76.3084C246.37 76.3084 245.39 75.4684 245.39 73.9004C245.39 72.3464 246.37 71.5064 247.49 71.5064C248.61 71.5064 249.59 72.3464 249.59 73.9004C249.59 75.4684 248.61 76.3084 247.49 76.3084ZM247.49 70.3304C245.474 70.3304 244.046 71.8564 244.046 73.9004C244.046 75.9584 245.474 77.4844 247.49 77.4844C249.506 77.4844 250.934 75.9584 250.934 73.9004C250.934 71.8564 249.506 70.3304 247.49 70.3304ZM256.356 70.4704C256.286 70.4564 256.104 70.4284 255.922 70.4284C255.236 70.4284 254.396 70.6804 253.906 71.7164V70.5404H252.618V77.2744H253.934V73.9004C253.934 72.4164 254.676 71.8284 255.782 71.8284C255.964 71.8284 256.16 71.8424 256.356 71.8704V70.4704ZM260.839 75.4684C260.839 76.5324 261.721 77.4844 263.093 77.4844C264.297 77.4844 264.969 76.8404 265.263 76.3644C265.263 76.8544 265.305 77.1064 265.333 77.2744H266.621C266.593 77.1064 266.537 76.7564 266.537 76.1684V72.7944C266.537 71.4784 265.753 70.3304 263.737 70.3304C262.281 70.3304 261.119 71.2264 260.979 72.5144L262.239 72.8084C262.323 72.0244 262.841 71.4504 263.765 71.4504C264.787 71.4504 265.221 71.9964 265.221 72.6544C265.221 72.8924 265.109 73.1024 264.703 73.1584L262.883 73.4244C261.721 73.5924 260.839 74.2644 260.839 75.4684ZM263.275 76.3784C262.603 76.3784 262.183 75.9024 262.183 75.3984C262.183 74.7964 262.603 74.4744 263.163 74.3904L265.221 74.0824V74.3904C265.221 75.8604 264.353 76.3784 263.275 76.3784ZM272.381 70.5404L270.631 75.6084L269.119 70.5404H267.677L269.889 77.2744H271.275L273.025 72.1504L274.817 77.2744H276.175L278.359 70.5404H276.973L275.489 75.6084L273.739 70.5404H272.381ZM279.2 75.4684C279.2 76.5324 280.082 77.4844 281.454 77.4844C282.658 77.4844 283.33 76.8404 283.624 76.3644C283.624 76.8544 283.666 77.1064 283.694 77.2744H284.982C284.954 77.1064 284.898 76.7564 284.898 76.1684V72.7944C284.898 71.4784 284.114 70.3304 282.098 70.3304C280.642 70.3304 279.48 71.2264 279.34 72.5144L280.6 72.8084C280.684 72.0244 281.202 71.4504 282.126 71.4504C283.148 71.4504 283.582 71.9964 283.582 72.6544C283.582 72.8924 283.47 73.1024 283.064 73.1584L281.244 73.4244C280.082 73.5924 279.2 74.2644 279.2 75.4684ZM281.636 76.3784C280.964 76.3784 280.544 75.9024 280.544 75.3984C280.544 74.7964 280.964 74.4744 281.524 74.3904L283.582 74.0824V74.3904C283.582 75.8604 282.714 76.3784 281.636 76.3784ZM288.491 80.0884L292.873 70.5404H291.459L289.443 75.1884L287.343 70.5404H285.831L288.729 76.5324L287.049 80.0884H288.491Z" fill="white"/>
<circle cx="316.5" cy="73.2744" r="11" fill="white" fill-opacity="0.2"/>
<path d="M314.928 69.1885L319.013 73.2742L314.928 77.3599" stroke="white" stroke-width="1.25714" stroke-linecap="round"/>
</svg>
