<svg width="181" height="164" viewBox="0 0 181 164" fill="none" xmlns="http://www.w3.org/2000/svg">
<path d="M10.4849 62.7125C2.55301 73.3996 -2.54717 89.1025 1.32072 102.255C7.92983 124.733 35.9758 126.426 55.1845 129.028C68.4228 130.822 81.5857 141.252 92.9077 147.725C107.997 156.355 132.271 169.971 149.674 161.129C164.099 153.804 171.855 136.085 176.281 121.385C183.217 98.3679 183.886 70.6018 168.787 50.5484C148.235 23.3267 112.282 27.8637 82.4106 32.5216C62.4173 35.642 42.9823 38.6818 25.2071 49.3033C19.4681 52.7599 14.4654 57.3165 10.4849 62.7125Z" fill="#3C8AFF"/>
<path opacity="0.7" d="M10.4849 62.7125C2.55301 73.3996 -2.54717 89.1025 1.32072 102.255C7.92983 124.733 35.9758 126.426 55.1845 129.028C68.4228 130.822 81.5857 141.252 92.9077 147.725C107.997 156.355 132.271 169.971 149.674 161.129C164.099 153.804 171.855 136.085 176.281 121.385C183.217 98.3679 183.886 70.6018 168.787 50.5484C148.235 23.3267 112.282 27.8637 82.4106 32.5216C62.4173 35.642 42.9823 38.6818 25.2071 49.3033C19.4681 52.7599 14.4654 57.3165 10.4849 62.7125Z" fill="white"/>
<path d="M74.9556 93.8569H56.2227V133.617H74.9556V93.8569Z" fill="white" stroke="#1D4580" stroke-width="0.75" stroke-linecap="round" stroke-linejoin="round"/>
<path d="M73.1831 1H61.7305V5.26415H73.1831V1Z" fill="#1D4580" stroke="#1D4580" stroke-width="0.75" stroke-linecap="round" stroke-linejoin="round"/>
<path d="M158.63 7.69922H47.8047V148.276H158.63V7.69922Z" fill="white" stroke="#1D4580" stroke-width="0.75" stroke-linecap="round" stroke-linejoin="round"/>
<path d="M158.63 7.69922H47.8047V16.0868H158.63V7.69922Z" fill="#1D4580" stroke="#1D4580" stroke-width="0.75" stroke-linecap="round" stroke-linejoin="round"/>
<path d="M124.052 27.6064H85.1367V100.354H124.052V27.6064Z" fill="#3C8AFF"/>
<path opacity="0.6" d="M124.052 27.6064H85.1367V100.354H124.052V27.6064Z" fill="white"/>
<path d="M155.466 105.738H50.9727V145.498H155.466V105.738Z" fill="#3C8AFF"/>
<path opacity="0.6" d="M155.466 105.738H50.9727V145.498H155.466V105.738Z" fill="white"/>
<path d="M155.466 11.0151H50.9727V20.6508H155.466V11.0151Z" fill="#3C8AFF"/>
<path opacity="0.6" d="M155.466 11.0151H50.9727V20.6508H155.466V11.0151Z" fill="white"/>
<path d="M153.998 12.8872H52.8516V17.1514H153.998V12.8872Z" fill="white"/>
<path d="M153.992 12.8872H142.539V17.1514H153.992V12.8872Z" fill="#1D4580" stroke="#1D4580" stroke-width="0.75" stroke-linecap="round" stroke-linejoin="round"/>
<path d="M78.596 29.283H51.9282C51.8142 29.2929 51.6993 29.2789 51.591 29.242C51.4827 29.2052 51.3832 29.1462 51.2988 29.0688C51.2145 28.9914 51.1472 28.8974 51.1011 28.7926C51.055 28.6878 51.0312 28.5746 51.0312 28.4602C51.0312 28.3457 51.055 28.2325 51.1011 28.1278C51.1472 28.023 51.2145 27.929 51.2988 27.8516C51.3832 27.7742 51.4827 27.7152 51.591 27.6783C51.6993 27.6415 51.8142 27.6275 51.9282 27.6373H78.596C78.71 27.6275 78.8248 27.6415 78.9331 27.6783C79.0415 27.7152 79.141 27.7742 79.2253 27.8516C79.3096 27.929 79.377 28.023 79.423 28.1278C79.4691 28.2325 79.4929 28.3457 79.4929 28.4602C79.4929 28.5746 79.4691 28.6878 79.423 28.7926C79.377 28.8974 79.3096 28.9914 79.2253 29.0688C79.141 29.1462 79.0415 29.2052 78.9331 29.242C78.8248 29.2789 78.71 29.2929 78.596 29.283Z" fill="#1D4580"/>
<path d="M78.5953 35.0459H51.9275C51.7084 35.0459 51.4984 34.9589 51.3435 34.804C51.1886 34.6491 51.1016 34.439 51.1016 34.2199C51.1016 34.0009 51.1886 33.7908 51.3435 33.6359C51.4984 33.4811 51.7084 33.394 51.9275 33.394H78.5953C78.8143 33.394 79.0244 33.4811 79.1793 33.6359C79.3341 33.7908 79.4212 34.0009 79.4212 34.2199C79.4212 34.439 79.3341 34.6491 79.1793 34.804C79.0244 34.9589 78.8143 35.0459 78.5953 35.0459Z" fill="#1D4580"/>
<path d="M78.596 40.8031H51.9282C51.8142 40.8129 51.6993 40.7989 51.591 40.7621C51.4827 40.7252 51.3832 40.6662 51.2988 40.5888C51.2145 40.5114 51.1472 40.4174 51.1011 40.3126C51.055 40.2079 51.0312 40.0947 51.0312 39.9802C51.0312 39.8658 51.055 39.7526 51.1011 39.6478C51.1472 39.543 51.2145 39.449 51.2988 39.3716C51.3832 39.2942 51.4827 39.2352 51.591 39.1984C51.6993 39.1615 51.8142 39.1475 51.9282 39.1574H78.596C78.71 39.1475 78.8248 39.1615 78.9331 39.1984C79.0415 39.2352 79.141 39.2942 79.2253 39.3716C79.3096 39.449 79.377 39.543 79.423 39.6478C79.4691 39.7526 79.4929 39.8658 79.4929 39.9802C79.4929 40.0947 79.4691 40.2079 79.423 40.3126C79.377 40.4174 79.3096 40.5114 79.2253 40.5888C79.141 40.6662 79.0415 40.7252 78.9331 40.7621C78.8248 40.7989 78.71 40.8129 78.596 40.8031Z" fill="#1D4580"/>
<path d="M78.5953 46.5659H51.9275C51.819 46.5659 51.7116 46.5445 51.6114 46.503C51.5112 46.4615 51.4202 46.4007 51.3435 46.324C51.2668 46.2473 51.2059 46.1562 51.1644 46.056C51.1229 45.9558 51.1016 45.8484 51.1016 45.74C51.1016 45.6315 51.1229 45.5241 51.1644 45.4239C51.2059 45.3237 51.2668 45.2327 51.3435 45.156C51.4202 45.0793 51.5112 45.0184 51.6114 44.9769C51.7116 44.9354 51.819 44.9141 51.9275 44.9141H78.5953C78.8143 44.9141 79.0244 45.0011 79.1793 45.156C79.3341 45.3109 79.4212 45.5209 79.4212 45.74C79.4212 45.959 79.3341 46.1691 79.1793 46.324C79.0244 46.4789 78.8143 46.5659 78.5953 46.5659Z" fill="#1D4580"/>
<path d="M78.596 52.3226H51.9282C51.8142 52.3324 51.6993 52.3185 51.591 52.2816C51.4827 52.2447 51.3832 52.1857 51.2988 52.1083C51.2145 52.031 51.1472 51.9369 51.1011 51.8321C51.055 51.7274 51.0312 51.6142 51.0312 51.4997C51.0312 51.3853 51.055 51.2721 51.1011 51.1673C51.1472 51.0626 51.2145 50.9685 51.2988 50.8911C51.3832 50.8138 51.4827 50.7548 51.591 50.7179C51.6993 50.681 51.8142 50.667 51.9282 50.6769H78.596C78.71 50.667 78.8248 50.681 78.9331 50.7179C79.0415 50.7548 79.141 50.8138 79.2253 50.8911C79.3096 50.9685 79.377 51.0626 79.423 51.1673C79.4691 51.2721 79.4929 51.3853 79.4929 51.4997C79.4929 51.6142 79.4691 51.7274 79.423 51.8321C79.377 51.9369 79.3096 52.031 79.2253 52.1083C79.141 52.1857 79.0415 52.2447 78.9331 52.2816C78.8248 52.3185 78.71 52.3324 78.596 52.3226Z" fill="#1D4580"/>
<path d="M78.596 58.0858H51.9282C51.8142 58.0956 51.6993 58.0817 51.591 58.0448C51.4827 58.0079 51.3832 57.9489 51.2988 57.8715C51.2145 57.7941 51.1472 57.7001 51.1011 57.5953C51.055 57.4906 51.0312 57.3774 51.0312 57.2629C51.0312 57.1485 51.055 57.0353 51.1011 56.9305C51.1472 56.8257 51.2145 56.7317 51.2988 56.6543C51.3832 56.577 51.4827 56.518 51.591 56.4811C51.6993 56.4442 51.8142 56.4302 51.9282 56.4401H78.596C78.71 56.4302 78.8248 56.4442 78.9331 56.4811C79.0415 56.518 79.141 56.577 79.2253 56.6543C79.3096 56.7317 79.377 56.8257 79.423 56.9305C79.4691 57.0353 79.4929 57.1485 79.4929 57.2629C79.4929 57.3774 79.4691 57.4906 79.423 57.5953C79.377 57.7001 79.3096 57.7941 79.2253 57.8715C79.141 57.9489 79.0415 58.0079 78.9331 58.0448C78.8248 58.0817 78.71 58.0956 78.596 58.0858Z" fill="#1D4580"/>
<path d="M78.5953 63.8486H51.9275C51.819 63.8486 51.7116 63.8272 51.6114 63.7857C51.5112 63.7442 51.4202 63.6834 51.3435 63.6067C51.2668 63.53 51.2059 63.439 51.1644 63.3388C51.1229 63.2385 51.1016 63.1311 51.1016 63.0227C51.1016 62.9142 51.1229 62.8068 51.1644 62.7066C51.2059 62.6064 51.2668 62.5154 51.3435 62.4387C51.4202 62.362 51.5112 62.3011 51.6114 62.2596C51.7116 62.2181 51.819 62.1968 51.9275 62.1968H78.5953C78.8143 62.1968 79.0244 62.2838 79.1793 62.4387C79.3341 62.5936 79.4212 62.8036 79.4212 63.0227C79.4212 63.2417 79.3341 63.4518 79.1793 63.6067C79.0244 63.7616 78.8143 63.8486 78.5953 63.8486Z" fill="#1D4580"/>
<path d="M78.5953 68.9819H51.9275C51.7084 68.9819 51.4984 68.8949 51.3435 68.74C51.1886 68.5851 51.1016 68.375 51.1016 68.156C51.1016 67.9369 51.1886 67.7269 51.3435 67.572C51.4984 67.4171 51.7084 67.3301 51.9275 67.3301H78.5953C78.8143 67.3301 79.0244 67.4171 79.1793 67.572C79.3341 67.7269 79.4212 67.9369 79.4212 68.156C79.4212 68.375 79.3341 68.5851 79.1793 68.74C79.0244 68.8949 78.8143 68.9819 78.5953 68.9819Z" fill="#1D4580"/>
<path d="M78.596 74.7264H51.9282C51.8142 74.7362 51.6993 74.7223 51.591 74.6854C51.4827 74.6485 51.3832 74.5895 51.2988 74.5122C51.2145 74.4348 51.1472 74.3407 51.1011 74.236C51.055 74.1312 51.0312 74.018 51.0312 73.9035C51.0312 73.7891 51.055 73.6759 51.1011 73.5711C51.1472 73.4664 51.2145 73.3723 51.2988 73.295C51.3832 73.2176 51.4827 73.1586 51.591 73.1217C51.6993 73.0848 51.8142 73.0709 51.9282 73.0807H78.596C78.71 73.0709 78.8248 73.0848 78.9331 73.1217C79.0415 73.1586 79.141 73.2176 79.2253 73.295C79.3096 73.3723 79.377 73.4664 79.423 73.5711C79.4691 73.6759 79.4929 73.7891 79.4929 73.9035C79.4929 74.018 79.4691 74.1312 79.423 74.236C79.377 74.3407 79.3096 74.4348 79.2253 74.5122C79.141 74.5895 79.0415 74.6485 78.9331 74.6854C78.8248 74.7223 78.71 74.7362 78.596 74.7264Z" fill="#1D4580"/>
<path d="M78.5953 80.4892H51.9275C51.7084 80.4892 51.4984 80.4022 51.3435 80.2473C51.1886 80.0924 51.1016 79.8824 51.1016 79.6633C51.1016 79.4443 51.1886 79.2342 51.3435 79.0793C51.4984 78.9244 51.7084 78.8374 51.9275 78.8374H78.5953C78.8143 78.8374 79.0244 78.9244 79.1793 79.0793C79.3341 79.2342 79.4212 79.4443 79.4212 79.6633C79.4212 79.8824 79.3341 80.0924 79.1793 80.2473C79.0244 80.4022 78.8143 80.4892 78.5953 80.4892Z" fill="#1D4580"/>
<path d="M78.596 86.2464H51.9282C51.8142 86.2563 51.6993 86.2423 51.591 86.2054C51.4827 86.1685 51.3832 86.1095 51.2988 86.0322C51.2145 85.9548 51.1472 85.8608 51.1011 85.756C51.055 85.6512 51.0312 85.538 51.0312 85.4236C51.0312 85.3091 51.055 85.1959 51.1011 85.0912C51.1472 84.9864 51.2145 84.8923 51.2988 84.815C51.3832 84.7376 51.4827 84.6786 51.591 84.6417C51.6993 84.6048 51.8142 84.5909 51.9282 84.6007H78.596C78.71 84.5909 78.8248 84.6048 78.9331 84.6417C79.0415 84.6786 79.141 84.7376 79.2253 84.815C79.3096 84.8923 79.377 84.9864 79.423 85.0912C79.4691 85.1959 79.4929 85.3091 79.4929 85.4236C79.4929 85.538 79.4691 85.6512 79.423 85.756C79.377 85.8608 79.3096 85.9548 79.2253 86.0322C79.141 86.1095 79.0415 86.1685 78.9331 86.2054C78.8248 86.2423 78.71 86.2563 78.596 86.2464Z" fill="#1D4580"/>
<path d="M78.5953 92.0092H51.9275C51.7084 92.0092 51.4984 91.9222 51.3435 91.7673C51.1886 91.6125 51.1016 91.4024 51.1016 91.1833C51.1016 90.9643 51.1886 90.7542 51.3435 90.5993C51.4984 90.4444 51.7084 90.3574 51.9275 90.3574H78.5953C78.8143 90.3574 79.0244 90.4444 79.1793 90.5993C79.3341 90.7542 79.4212 90.9643 79.4212 91.1833C79.4212 91.4024 79.3341 91.6125 79.1793 91.7673C79.0244 91.9222 78.8143 92.0092 78.5953 92.0092Z" fill="#1D4580"/>
<path d="M78.596 97.7664H51.9282C51.8142 97.7763 51.6993 97.7623 51.591 97.7254C51.4827 97.6886 51.3832 97.6296 51.2988 97.5522C51.2145 97.4748 51.1472 97.3808 51.1011 97.276C51.055 97.1712 51.0312 97.058 51.0312 96.9436C51.0312 96.8291 51.055 96.7159 51.1011 96.6112C51.1472 96.5064 51.2145 96.4124 51.2988 96.335C51.3832 96.2576 51.4827 96.1986 51.591 96.1618C51.6993 96.1249 51.8142 96.1109 51.9282 96.1207H78.596C78.71 96.1109 78.8248 96.1249 78.9331 96.1618C79.0415 96.1986 79.141 96.2576 79.2253 96.335C79.3096 96.4124 79.377 96.5064 79.423 96.6112C79.4691 96.7159 79.4929 96.8291 79.4929 96.9436C79.4929 97.058 79.4691 97.1712 79.423 97.276C79.377 97.3808 79.3096 97.4748 79.2253 97.5522C79.141 97.6296 79.0415 97.6886 78.9331 97.7254C78.8248 97.7623 78.71 97.7763 78.596 97.7664Z" fill="#1D4580"/>
<path d="M78.596 103.529H51.9282C51.8142 103.539 51.6993 103.525 51.591 103.488C51.4827 103.451 51.3832 103.392 51.2988 103.315C51.2145 103.238 51.1472 103.143 51.1011 103.039C51.055 102.934 51.0312 102.821 51.0312 102.706C51.0312 102.592 51.055 102.479 51.1011 102.374C51.1472 102.269 51.2145 102.175 51.2988 102.098C51.3832 102.02 51.4827 101.961 51.591 101.924C51.6993 101.888 51.8142 101.874 51.9282 101.883H78.596C78.71 101.874 78.8248 101.888 78.9331 101.924C79.0415 101.961 79.141 102.02 79.2253 102.098C79.3096 102.175 79.377 102.269 79.423 102.374C79.4691 102.479 79.4929 102.592 79.4929 102.706C79.4929 102.821 79.4691 102.934 79.423 103.039C79.377 103.143 79.3096 103.238 79.2253 103.315C79.141 103.392 79.0415 103.451 78.9331 103.488C78.8248 103.525 78.71 103.539 78.596 103.529Z" fill="#1D4580"/>
<path d="M155.265 29.283H128.627C128.513 29.2929 128.399 29.2789 128.29 29.242C128.182 29.2052 128.082 29.1462 127.998 29.0688C127.914 28.9914 127.846 28.8974 127.8 28.7926C127.754 28.6878 127.73 28.5746 127.73 28.4602C127.73 28.3457 127.754 28.2325 127.8 28.1278C127.846 28.023 127.914 27.929 127.998 27.8516C128.082 27.7742 128.182 27.7152 128.29 27.6783C128.399 27.6415 128.513 27.6275 128.627 27.6373H155.295C155.409 27.6275 155.524 27.6415 155.632 27.6783C155.741 27.7152 155.84 27.7742 155.925 27.8516C156.009 27.929 156.076 28.023 156.122 28.1278C156.168 28.2325 156.192 28.3457 156.192 28.4602C156.192 28.5746 156.168 28.6878 156.122 28.7926C156.076 28.8974 156.009 28.9914 155.925 29.0688C155.84 29.1462 155.741 29.2052 155.632 29.242C155.524 29.2789 155.409 29.2929 155.295 29.283H155.265Z" fill="#1D4580"/>
<path d="M155.264 35.0459H128.627C128.518 35.0459 128.411 35.0245 128.311 34.983C128.21 34.9415 128.119 34.8807 128.043 34.804C127.966 34.7273 127.905 34.6362 127.864 34.536C127.822 34.4358 127.801 34.3284 127.801 34.2199C127.801 34.1115 127.822 34.0041 127.864 33.9039C127.905 33.8037 127.966 33.7126 128.043 33.6359C128.119 33.5593 128.21 33.4984 128.311 33.4569C128.411 33.4154 128.518 33.394 128.627 33.394H155.294C155.514 33.394 155.724 33.4811 155.878 33.6359C156.033 33.7908 156.12 34.0009 156.12 34.2199C156.12 34.439 156.033 34.6491 155.878 34.804C155.724 34.9589 155.514 35.0459 155.294 35.0459H155.264Z" fill="#1D4580"/>
<path d="M155.265 40.8031H128.627C128.513 40.8129 128.399 40.7989 128.29 40.7621C128.182 40.7252 128.082 40.6662 127.998 40.5888C127.914 40.5114 127.846 40.4174 127.8 40.3126C127.754 40.2079 127.73 40.0947 127.73 39.9802C127.73 39.8658 127.754 39.7526 127.8 39.6478C127.846 39.543 127.914 39.449 127.998 39.3716C128.082 39.2942 128.182 39.2352 128.29 39.1984C128.399 39.1615 128.513 39.1475 128.627 39.1574H155.295C155.409 39.1475 155.524 39.1615 155.632 39.1984C155.741 39.2352 155.84 39.2942 155.925 39.3716C156.009 39.449 156.076 39.543 156.122 39.6478C156.168 39.7526 156.192 39.8658 156.192 39.9802C156.192 40.0947 156.168 40.2079 156.122 40.3126C156.076 40.4174 156.009 40.5114 155.925 40.5888C155.84 40.6662 155.741 40.7252 155.632 40.7621C155.524 40.7989 155.409 40.8129 155.295 40.8031H155.265Z" fill="#1D4580"/>
<path d="M155.264 46.5659H128.627C128.518 46.5659 128.411 46.5445 128.311 46.503C128.21 46.4615 128.119 46.4007 128.043 46.324C127.966 46.2473 127.905 46.1562 127.864 46.056C127.822 45.9558 127.801 45.8484 127.801 45.74C127.801 45.6315 127.822 45.5241 127.864 45.4239C127.905 45.3237 127.966 45.2327 128.043 45.156C128.119 45.0793 128.21 45.0184 128.311 44.9769C128.411 44.9354 128.518 44.9141 128.627 44.9141H155.294C155.514 44.9141 155.724 45.0011 155.878 45.156C156.033 45.3109 156.12 45.5209 156.12 45.74C156.12 45.959 156.033 46.1691 155.878 46.324C155.724 46.4789 155.514 46.5659 155.294 46.5659H155.264Z" fill="#1D4580"/>
<path d="M155.265 52.3226H128.627C128.513 52.3324 128.399 52.3185 128.29 52.2816C128.182 52.2447 128.082 52.1857 127.998 52.1083C127.914 52.031 127.846 51.9369 127.8 51.8321C127.754 51.7274 127.73 51.6142 127.73 51.4997C127.73 51.3853 127.754 51.2721 127.8 51.1673C127.846 51.0626 127.914 50.9685 127.998 50.8911C128.082 50.8138 128.182 50.7548 128.29 50.7179C128.399 50.681 128.513 50.667 128.627 50.6769H155.295C155.409 50.667 155.524 50.681 155.632 50.7179C155.741 50.7548 155.84 50.8138 155.925 50.8911C156.009 50.9685 156.076 51.0626 156.122 51.1673C156.168 51.2721 156.192 51.3853 156.192 51.4997C156.192 51.6142 156.168 51.7274 156.122 51.8321C156.076 51.9369 156.009 52.031 155.925 52.1083C155.84 52.1857 155.741 52.2447 155.632 52.2816C155.524 52.3185 155.409 52.3324 155.295 52.3226H155.265Z" fill="#1D4580"/>
<path d="M155.265 58.0858H128.627C128.513 58.0956 128.399 58.0817 128.29 58.0448C128.182 58.0079 128.082 57.9489 127.998 57.8715C127.914 57.7941 127.846 57.7001 127.8 57.5953C127.754 57.4906 127.73 57.3774 127.73 57.2629C127.73 57.1485 127.754 57.0353 127.8 56.9305C127.846 56.8257 127.914 56.7317 127.998 56.6543C128.082 56.577 128.182 56.518 128.29 56.4811C128.399 56.4442 128.513 56.4302 128.627 56.4401H155.295C155.409 56.4302 155.524 56.4442 155.632 56.4811C155.741 56.518 155.84 56.577 155.925 56.6543C156.009 56.7317 156.076 56.8257 156.122 56.9305C156.168 57.0353 156.192 57.1485 156.192 57.2629C156.192 57.3774 156.168 57.4906 156.122 57.5953C156.076 57.7001 156.009 57.7941 155.925 57.8715C155.84 57.9489 155.741 58.0079 155.632 58.0448C155.524 58.0817 155.409 58.0956 155.295 58.0858H155.265Z" fill="#1D4580"/>
<path d="M155.264 63.8486H128.627C128.518 63.8486 128.411 63.8272 128.311 63.7857C128.21 63.7442 128.119 63.6834 128.043 63.6067C127.966 63.53 127.905 63.439 127.864 63.3388C127.822 63.2385 127.801 63.1311 127.801 63.0227C127.801 62.9142 127.822 62.8068 127.864 62.7066C127.905 62.6064 127.966 62.5154 128.043 62.4387C128.119 62.362 128.21 62.3011 128.311 62.2596C128.411 62.2181 128.518 62.1968 128.627 62.1968H155.294C155.514 62.1968 155.724 62.2838 155.878 62.4387C156.033 62.5936 156.12 62.8036 156.12 63.0227C156.12 63.2417 156.033 63.4518 155.878 63.6067C155.724 63.7616 155.514 63.8486 155.294 63.8486H155.264Z" fill="#1D4580"/>
<path d="M155.485 67.7153H127.961V99.2897H155.485V67.7153Z" fill="#3C8AFF"/>
<path opacity="0.6" d="M155.485 67.7153H127.961V99.2897H155.485V67.7153Z" fill="white"/>
<path d="M34.9546 119.303C34.2271 119.031 33.6374 118.481 33.3151 117.774C32.9927 117.068 32.9641 116.262 33.2355 115.534L41.4946 93.4548C41.6292 93.0933 41.8336 92.7618 42.0963 92.4793C42.359 92.1968 42.6747 91.9688 43.0255 91.8083C43.3763 91.6478 43.7553 91.558 44.1408 91.5439C44.5263 91.5299 44.9108 91.592 45.2724 91.7265C45.6339 91.8611 45.9654 92.0656 46.2479 92.3282C46.5304 92.5909 46.7584 92.9067 46.9189 93.2575C47.0794 93.6083 47.1692 93.9873 47.1832 94.3728C47.1973 94.7583 47.1352 95.1428 47.0007 95.5043L38.7415 117.584C38.6069 117.946 38.4019 118.278 38.1384 118.561C37.8748 118.844 37.5579 119.072 37.2059 119.231C36.8539 119.391 36.4737 119.48 36.0874 119.492C35.701 119.504 35.316 119.44 34.9546 119.303Z" fill="white" stroke="#1D4580" stroke-width="0.75" stroke-linecap="round" stroke-linejoin="round"/>
<path d="M44.4616 97.4316L39.8242 109.618" stroke="#1D4580" stroke-width="0.75" stroke-linecap="round" stroke-linejoin="round"/>
<path d="M22.3877 152.951C21.7469 152.713 21.1594 152.35 20.6589 151.884C20.1583 151.418 19.7544 150.858 19.4704 150.236C19.1863 149.614 19.0276 148.942 19.0033 148.258C18.979 147.575 19.0896 146.893 19.3287 146.252L31.1179 114.727C31.6046 113.433 32.5855 112.385 33.8447 111.815C35.1039 111.244 36.5382 111.197 37.8322 111.683C39.1262 112.17 40.1738 113.151 40.7446 114.41C41.3154 115.669 41.3626 117.104 40.8759 118.398L29.0623 149.893C28.5796 151.181 27.6066 152.226 26.356 152.799C25.1053 153.372 23.6787 153.427 22.3877 152.951Z" fill="#1D4580" stroke="#1D4580" stroke-width="0.75" stroke-linecap="round" stroke-linejoin="round"/>
<path d="M66.1487 36.8219C60.2712 34.624 53.8739 34.2183 47.7658 35.6562C41.6577 37.0941 36.1132 40.3109 31.8333 44.8999C27.5535 49.4889 24.7306 55.244 23.7215 61.4374C22.7125 67.6308 23.5626 73.9843 26.1644 79.6945C28.7663 85.4047 33.003 90.2151 38.3388 93.5175C43.6746 96.8199 49.8698 98.4658 56.141 98.2473C62.4122 98.0287 68.4778 95.9554 73.5707 92.2896C78.6636 88.6237 82.5551 83.53 84.7531 77.6525C87.6989 69.7708 87.3938 61.0419 83.905 53.3851C80.4162 45.7283 74.0293 39.7705 66.1487 36.8219ZM45.8435 91.1118C40.9842 89.2936 36.7732 86.0753 33.7429 81.864C30.7126 77.6526 28.9991 72.6372 28.8192 67.452C28.6392 62.2668 30.0008 57.1447 32.7318 52.7333C35.4628 48.322 39.4405 44.8195 44.1621 42.6687C48.8836 40.518 54.1369 39.8156 59.2576 40.6504C64.3783 41.4851 69.1365 43.8196 72.9305 47.3585C76.7245 50.8974 79.3839 55.4819 80.5725 60.5322C81.7611 65.5826 81.4254 70.8719 79.608 75.7315C77.1692 82.2478 72.2422 87.5287 65.9104 90.413C59.5786 93.2972 52.3606 93.5486 45.8435 91.1118Z" fill="#1D4580" stroke="#1D4580" stroke-width="0.75" stroke-linecap="round" stroke-linejoin="round"/>
<path d="M33.7617 56.9008C35.0347 54.0939 36.8516 51.5673 39.1072 49.4671C41.3628 47.3669 44.0125 45.7348 46.9029 44.665" stroke="#1D4580" stroke-width="0.75" stroke-linecap="round" stroke-linejoin="round"/>
<path d="M31.6641 66.6158C31.6577 64.2361 32.0167 61.8694 32.7286 59.5986" stroke="#1D4580" stroke-width="0.75" stroke-linecap="round" stroke-linejoin="round"/>
<path d="M24.9587 73.0885C23.379 65.8121 24.49 58.2097 28.0859 51.6897C31.6818 45.1697 37.5189 40.1739 44.5159 37.6278C51.513 35.0816 59.1957 35.1577 66.1409 37.8419C73.0861 40.5262 78.8231 45.6366 82.2892 52.2265" stroke="white" stroke-miterlimit="10"/>
<path d="M85.6026 62.8716C86.4994 70.2027 84.7306 77.6119 80.6189 83.7474C76.5073 89.8829 70.3269 94.3357 63.2053 96.2934C56.0837 98.2511 48.4956 97.5832 41.8255 94.4116C35.1553 91.24 29.8478 85.776 26.8711 79.0166" stroke="white" stroke-miterlimit="10"/>
<path d="M83.5234 54.8877C84.3221 56.8342 84.9187 58.8576 85.3037 60.926" stroke="white" stroke-miterlimit="10"/>
</svg>
