<svg width="24" height="24" viewBox="0 0 24 24" fill="none" xmlns="http://www.w3.org/2000/svg">
<rect y="2.18359" width="24" height="21.8182" rx="4" fill="#C4DCFF"/>
<path d="M0 6.18359C0 3.97445 1.79086 2.18359 4 2.18359H20C22.2091 2.18359 24 3.97445 24 6.18359V8.72905H0V6.18359Z" fill="#3C8AFF"/>
<path fill-rule="evenodd" clip-rule="evenodd" d="M11.4537 10.9102C10.55 10.9102 9.81738 11.6428 9.81738 12.5465V14.1829H8.18129C7.27755 14.1829 6.54492 14.9155 6.54492 15.8192C6.54492 16.723 7.27755 17.4556 8.18129 17.4556H9.81738V19.092C9.81738 19.9957 10.55 20.7283 11.4537 20.7283C12.3575 20.7283 13.0901 19.9957 13.0901 19.092V17.4556H14.7267C15.6305 17.4556 16.3631 16.723 16.3631 15.8192C16.3631 14.9155 15.6305 14.1829 14.7267 14.1829H13.0901V12.5465C13.0901 11.6428 12.3575 10.9102 11.4537 10.9102Z" fill="#3C8AFF"/>
<rect x="5.45312" width="3.27273" height="5.45455" rx="1.63636" fill="#C4DCFF"/>
<rect x="15.2734" width="3.27273" height="5.45455" rx="1.63636" fill="#C4DCFF"/>
</svg>
