<svg width="24" height="22" viewBox="0 0 24 22" fill="none" xmlns="http://www.w3.org/2000/svg">
<circle cx="12" cy="5" r="5" fill="#3C8AFF"/>
<path fill-rule="evenodd" clip-rule="evenodd" d="M0 20V19H0.0941189C0.227725 18.293 0.5027 17.5996 0.913445 16.9385C1.5165 15.9679 2.40041 15.086 3.51472 14.3431C4.62902 13.6003 5.95189 13.011 7.4078 12.609C8.86371 12.2069 10.4241 12 12 12C13.5759 12 15.1363 12.2069 16.5922 12.609C18.0481 13.011 19.371 13.6003 20.4853 14.3431C21.5996 15.086 22.4835 15.9679 23.0866 16.9385C23.4973 17.5996 23.7723 18.293 23.9059 19H24V20V21C24 21.5523 23.5523 22 23 22H1C0.447716 22 0 21.5523 0 21V20Z" fill="#C4DCFF"/>
</svg>
