<svg width="26" height="28" viewBox="0 0 26 28" fill="none" xmlns="http://www.w3.org/2000/svg">
<path d="M11.9911 0.404412C12.0882 0.311663 12.2036 0.238077 12.3307 0.187869C12.4577 0.137661 12.5939 0.111816 12.7315 0.111816C12.869 0.111816 13.0053 0.137661 13.1323 0.187869C13.2594 0.238077 13.3748 0.311663 13.4719 0.404412C14.0178 0.926285 16.4169 3.29264 18.6863 6.38603C20.9243 9.43561 23.1895 13.3895 23.1895 17.0446C23.1895 20.5901 21.9827 23.3489 20.0187 25.2213C18.063 27.0877 15.4318 28 12.7315 28C10.0312 28 7.39997 27.0877 5.44432 25.2213C3.4803 23.3489 2.27344 20.5921 2.27344 17.0446C2.27344 13.3895 4.53865 9.43561 6.77667 6.38803C8.3437 4.2637 10.0874 2.26272 11.9911 0.404412Z" fill="white"/>
<path d="M1.40234 15.5715H8.16032L10.148 10.5698L13.7257 20.1564L15.7134 15.5715H24.0615" stroke="#A74FFE" stroke-width="1.93072" stroke-linecap="round" stroke-linejoin="round"/>
</svg>
