<svg width="375" height="402" viewBox="0 0 375 402" fill="none" xmlns="http://www.w3.org/2000/svg">
<path d="M232.068 84.7009C100.184 -28.4636 9.0711 -4.28499 -20 21.9499V343.15C-10.4278 328.615 19.5651 297.416 62.959 288.908C117.201 278.272 145.931 294.593 214 326.5C268.455 352.026 327.5 361.5 395.858 370V128.308C315.027 163.193 267 114.675 232.068 84.7009Z" fill="#E2EDFF"/>
<path d="M76.786 341.023C44.4532 319.751 23.6071 337.832 17.2257 349.532C8.71707 373.994 26.7979 389.948 37.4336 383.566C48.0694 377.185 53.3873 386.757 71.4681 399.52C89.5489 412.283 117.202 367.612 76.786 341.023Z" fill="#E2EDFF"/>
<path d="M328.854 59.1753C309.284 57.4736 294.465 47.8305 289.501 43.2216C262.28 29.3952 275.675 79.3833 311.836 86.8283C347.998 94.2733 353.316 61.3025 328.854 59.1753Z" fill="#E2EDFF"/>
<path d="M225.174 229.252H228.862C229.407 229.259 229.949 229.153 230.451 228.94C230.954 228.727 231.407 228.412 231.781 228.015C232.156 227.618 232.444 227.148 232.627 226.634C232.81 226.12 232.884 225.573 232.845 225.029L231.198 200.733C231.094 199.592 230.573 198.53 229.734 197.751C228.894 196.971 227.797 196.529 226.652 196.51H222.95C222.406 196.507 221.867 196.616 221.367 196.83C220.867 197.045 220.417 197.36 220.044 197.756C219.672 198.152 219.385 198.621 219.202 199.133C219.019 199.646 218.943 200.19 218.98 200.733L220.627 225.029C220.728 226.171 221.249 227.234 222.088 228.014C222.928 228.794 224.028 229.235 225.174 229.252Z" fill="#407BFF"/>
<path d="M228.101 272.635H231.804C232.348 272.64 232.888 272.532 233.389 272.319C233.89 272.105 234.341 271.79 234.714 271.393C235.087 270.996 235.373 270.526 235.556 270.013C235.738 269.5 235.812 268.955 235.773 268.412L234.126 244.116C234.022 242.975 233.501 241.913 232.661 241.134C231.822 240.354 230.725 239.912 229.579 239.893H225.849C225.305 239.889 224.767 239.998 224.267 240.213C223.767 240.427 223.317 240.743 222.944 241.139C222.571 241.535 222.285 242.004 222.101 242.516C221.918 243.028 221.843 243.573 221.88 244.116L223.527 268.412C223.628 269.558 224.153 270.626 224.998 271.407C225.844 272.187 226.95 272.625 228.101 272.635Z" fill="#407BFF"/>
<path d="M166.338 164.388C182.624 162.473 198.826 163.754 215.085 166.908C217.794 167.433 220.265 168.808 222.141 170.833C224.016 172.858 225.198 175.427 225.515 178.169C227.275 193.737 229.288 228.633 221.433 280.688L154.879 275.057C154.753 265.612 161.467 222.58 155.921 177.929C155.694 176.353 155.785 174.748 156.189 173.207C156.593 171.667 157.301 170.223 158.272 168.961C159.243 167.698 160.457 166.643 161.842 165.858C163.227 165.073 164.756 164.573 166.338 164.388Z" fill="white"/>
<path d="M205.09 177.732L202.711 182.49C202.6 182.73 202.423 182.934 202.202 183.079C201.98 183.223 201.723 183.302 201.458 183.307L198.882 183.448C198.422 183.467 197.97 183.328 197.601 183.053L193.167 179.745L198.643 175.762L205.09 177.732Z" fill="#263238"/>
<path d="M198.798 182.081C199.737 181.646 200.801 181.562 201.797 181.842C203.894 189.232 206.188 210.446 206.428 219.849C200.065 238.387 197.982 240.26 197.982 240.26L194.758 217.948C194.758 217.948 198.376 195.13 198.798 182.081Z" fill="#263238"/>
<path d="M180.429 132.291C181.949 141.469 183.244 158.234 176.657 164.16C181.485 169.228 187.805 175.098 198.644 175.759C209.483 176.421 207.808 168.918 205.063 164.906C194.942 162.204 195.435 154.659 197.419 147.606L180.429 132.291Z" fill="#FFB573"/>
<path d="M180.429 132.291C181.949 141.469 183.244 158.234 176.657 164.16C181.485 169.228 187.805 175.098 198.644 175.759C209.483 176.421 207.808 168.918 205.063 164.906C194.942 162.204 195.435 154.659 197.419 147.606L180.429 132.291Z" fill="black" fill-opacity="0.25"/>
<path d="M173.896 163.358C174.663 163.027 175.46 162.768 176.275 162.584C176.474 162.531 176.686 162.545 176.876 162.624C177.067 162.703 177.227 162.842 177.331 163.02C178.372 164.794 181.554 172.719 198.643 175.76C195.827 177.421 192.097 182.573 190.492 185.05C185.368 182.39 172.038 174.437 173.305 164.147C173.331 163.977 173.398 163.816 173.501 163.678C173.605 163.541 173.74 163.431 173.896 163.358Z" fill="#F5F5F5"/>
<path d="M204.963 165.33C204.927 165.17 204.931 165.004 204.976 164.846C205.021 164.688 205.104 164.543 205.219 164.426C205.334 164.308 205.476 164.222 205.633 164.173C205.79 164.124 205.956 164.116 206.117 164.148C206.709 164.263 207.292 164.418 207.863 164.613C207.995 164.664 208.118 164.735 208.229 164.824C209.538 166.034 216.674 176.338 209.988 184.672C208.58 182.405 203.724 177.267 198.642 175.761C203.457 173.593 205.821 169.553 204.963 165.33Z" fill="#F5F5F5"/>
<path opacity="0.2" d="M187.356 138.543L197.406 147.608C196.922 149.246 196.583 150.923 196.393 152.619C192.508 151.958 187.285 147.552 187.004 143.47C186.813 141.82 186.933 140.149 187.356 138.543Z" fill="black"/>
<path d="M200.784 104.547C209.455 107.94 210.018 115.062 209.229 122.847C208.441 130.631 199.967 125.479 198.081 120.608C196.195 115.738 188.776 99.8455 200.784 104.547Z" fill="#263238"/>
<path d="M173.123 120.075C175.53 132.336 176.332 139.614 183.342 145.258C193.914 153.704 208.23 146.413 209.496 133.772C210.637 122.384 206.512 104.211 193.886 100.664C191.132 99.8531 188.214 99.7749 185.421 100.437C182.628 101.099 180.056 102.478 177.959 104.439C175.862 106.399 174.313 108.873 173.465 111.615C172.617 114.357 172.499 117.273 173.123 120.075Z" fill="#FFB573"/>
<path d="M173.123 120.075C175.53 132.336 176.332 139.614 183.342 145.258C193.914 153.704 208.23 146.413 209.496 133.772C210.637 122.384 206.512 104.211 193.886 100.664C191.132 99.8531 188.214 99.7749 185.421 100.437C182.628 101.099 180.056 102.478 177.959 104.439C175.862 106.399 174.313 108.873 173.465 111.615C172.617 114.357 172.499 117.273 173.123 120.075Z" fill="black" fill-opacity="0.25"/>
<path d="M173.63 130.223C183.948 130.772 181.767 124.916 179.894 121.552C178.022 118.188 181.837 112.628 179.345 109.742C183.794 111.516 188.481 110.052 194.435 105.913C199.052 102.69 204.838 115.57 210.469 109.109C215.789 103.013 210.849 93.8214 198.067 92.3434C185.286 90.8654 182.963 99.9025 174.573 99.1001C166.184 98.2978 169.098 105.209 170.745 106.617C163.706 107.082 159.863 113.81 173.63 130.223Z" fill="#263238"/>
<path d="M172.363 107.475C170.749 106.59 169.401 105.289 168.458 103.708C167.515 102.126 167.012 100.322 167 98.4805C164.213 103.365 164.509 108.911 172.363 107.475Z" fill="#263238"/>
<path d="M199.109 133.167C197.987 133.361 196.838 133.326 195.73 133.065C194.622 132.804 193.578 132.321 192.662 131.646C192.634 131.62 192.612 131.588 192.597 131.553C192.582 131.518 192.574 131.48 192.574 131.442C192.574 131.404 192.582 131.366 192.597 131.331C192.612 131.296 192.634 131.264 192.662 131.238C192.717 131.186 192.79 131.156 192.866 131.156C192.942 131.156 193.015 131.186 193.07 131.238C194.096 131.966 195.278 132.445 196.521 132.638C197.765 132.831 199.036 132.732 200.235 132.35C200.311 132.331 200.392 132.341 200.462 132.377C200.532 132.413 200.586 132.474 200.615 132.547C200.637 132.622 200.629 132.702 200.592 132.771C200.555 132.839 200.492 132.89 200.418 132.913C199.99 133.037 199.552 133.121 199.109 133.167Z" fill="#263238"/>
<path d="M170.632 133.981C172.56 136.465 175.385 138.093 178.501 138.514C182.597 139.049 183.963 135.234 182.245 131.673C180.683 128.463 176.615 124.325 172.842 125.437C169.07 126.549 168.267 130.884 170.632 133.981Z" fill="#FFB573"/>
<path d="M170.632 133.981C172.56 136.465 175.385 138.093 178.501 138.514C182.597 139.049 183.963 135.234 182.245 131.673C180.683 128.463 176.615 124.325 172.842 125.437C169.07 126.549 168.267 130.884 170.632 133.981Z" fill="black" fill-opacity="0.25"/>
<path d="M191.617 120.805C191.744 121.804 192.391 122.565 193.025 122.494C193.658 122.424 194.095 121.551 193.954 120.538C193.813 119.524 193.18 118.778 192.546 118.848C191.913 118.919 191.477 119.806 191.617 120.805Z" fill="#263238"/>
<path d="M203.106 119.906C203.232 120.92 203.88 121.666 204.513 121.595C205.147 121.525 205.583 120.652 205.442 119.653C205.302 118.653 204.668 117.893 204.035 117.964C203.401 118.034 202.965 118.85 203.106 119.906Z" fill="#263238"/>
<path d="M199.865 121.088C201.561 123.693 203.596 126.06 205.918 128.126C204.426 129.689 201.343 129.266 201.343 129.266L199.865 121.088Z" fill="#FFB573"/>
<path d="M199.865 121.088C201.561 123.693 203.596 126.06 205.918 128.126C204.426 129.689 201.343 129.266 201.343 129.266L199.865 121.088Z" fill="black" fill-opacity="0.35"/>
<path opacity="0.4" d="M210.368 120.158C210.579 121.763 208.961 123.1 206.722 123.382C204.484 123.663 202.415 122.439 202.218 120.834" fill="#407BFF"/>
<path opacity="0.4" d="M197.062 121.65C197.372 123.241 195.81 124.677 193.614 125.099C191.418 125.521 189.264 124.395 188.968 122.819" fill="#407BFF"/>
<path d="M192.742 125.536C192.995 125.55 193.249 125.55 193.502 125.536C194.584 125.407 195.601 124.95 196.416 124.227C196.772 123.923 197.049 123.538 197.226 123.105C197.402 122.671 197.472 122.202 197.429 121.736C198.144 121.425 198.905 121.234 199.682 121.173C200.463 120.978 201.28 120.978 202.061 121.173C202.258 122.89 204.397 124.072 206.79 123.777C207.873 123.659 208.891 123.206 209.704 122.482C210.058 122.176 210.334 121.791 210.511 121.358C210.687 120.925 210.758 120.456 210.718 119.99L210.042 120.075C210.07 120.435 210.012 120.796 209.873 121.129C209.733 121.462 209.516 121.757 209.24 121.989C208.531 122.613 207.645 123.002 206.706 123.101C204.679 123.369 202.877 122.425 202.694 121.018C202.595 120.23 200.963 120.286 199.611 120.455C198.26 120.624 196.655 121.004 196.796 121.778C196.826 122.138 196.768 122.5 196.628 122.833C196.489 123.166 196.271 123.461 195.994 123.692C195.276 124.308 194.393 124.7 193.455 124.82C192.517 124.94 191.565 124.783 190.715 124.368C190.387 124.215 190.101 123.986 189.88 123.699C189.66 123.413 189.511 123.077 189.448 122.721V122.383L172.078 124.621L172.162 125.297L188.885 123.143C189.006 123.535 189.206 123.898 189.473 124.21C189.739 124.523 190.066 124.777 190.433 124.959C191.145 125.336 191.937 125.534 192.742 125.536Z" fill="#263238"/>
<path d="M187.195 116.385C187.095 116.385 186.997 116.356 186.913 116.301C186.776 116.221 186.676 116.091 186.634 115.938C186.592 115.786 186.611 115.623 186.688 115.484C187.124 114.665 187.756 113.967 188.527 113.451C189.298 112.936 190.185 112.619 191.108 112.528C191.266 112.52 191.421 112.575 191.54 112.68C191.658 112.786 191.731 112.933 191.741 113.091C191.749 113.246 191.696 113.397 191.593 113.513C191.491 113.629 191.347 113.7 191.192 113.71C190.462 113.796 189.763 114.059 189.157 114.476C188.552 114.893 188.057 115.452 187.716 116.104C187.662 116.193 187.586 116.267 187.494 116.316C187.402 116.366 187.299 116.39 187.195 116.385Z" fill="#263238"/>
<path d="M206.824 114.796C206.726 114.805 206.628 114.791 206.537 114.754C206.446 114.717 206.366 114.659 206.303 114.584C205.848 113.988 205.259 113.507 204.584 113.18C203.91 112.852 203.168 112.687 202.418 112.698C202.34 112.706 202.261 112.698 202.187 112.675C202.112 112.653 202.043 112.615 201.982 112.566C201.922 112.516 201.872 112.455 201.836 112.386C201.8 112.317 201.777 112.241 201.77 112.163C201.76 112.087 201.766 112.01 201.786 111.937C201.806 111.863 201.841 111.794 201.888 111.733C201.935 111.673 201.994 111.623 202.061 111.586C202.127 111.548 202.201 111.524 202.277 111.516C203.222 111.491 204.161 111.688 205.016 112.092C205.872 112.495 206.621 113.093 207.204 113.838C207.304 113.958 207.353 114.113 207.34 114.268C207.326 114.424 207.252 114.568 207.133 114.669C207.041 114.735 206.935 114.778 206.824 114.796Z" fill="#263238"/>
<path d="M286.229 184.992L291.102 181.522C291.893 180.949 292.837 180.701 293.772 180.823C294.706 180.945 295.575 181.428 296.228 182.191L299.536 186.115C299.893 186.538 300.168 187.04 300.345 187.588C300.523 188.136 300.598 188.719 300.568 189.301C300.537 189.884 300.4 190.453 300.166 190.973C299.933 191.494 299.606 191.955 299.208 192.328L296.847 194.603C294.793 196.562 292.398 198.015 289.814 198.868L282.681 201.242L277.997 195.555C276.57 189.626 286.229 184.992 286.229 184.992Z" fill="#FFB573"/>
<path d="M210 182.085C211.829 186.912 213.618 191.4 215.564 195.987C217.511 200.574 219.483 205.105 221.665 209.607C223.846 214.109 226.171 218.583 228.81 223.071C230.116 225.301 231.566 227.531 233.211 229.776C234.981 232.25 236.996 234.507 239.22 236.508C240.689 237.805 242.309 238.887 244.04 239.726C244.589 239.952 245.098 240.177 245.699 240.375L246.613 240.643C247.073 240.765 247.54 240.855 248.011 240.911C249.603 241.105 251.215 240.981 252.766 240.544C254.704 239.958 256.546 239.048 258.226 237.849C259.483 237.001 260.684 236.057 261.818 235.026C265.587 231.47 269.062 227.564 272.202 223.354C275.246 219.402 278.119 215.436 280.875 211.385C283.631 207.335 286.283 203.355 289 199.106L274.553 189.029C269.994 196.981 264.95 204.596 259.453 211.823C256.927 215.17 254.143 218.282 251.133 221.124C250.55 221.639 249.934 222.111 249.291 222.535C248.808 222.888 248.324 223.029 248.664 222.902C249.123 222.766 249.604 222.737 250.075 222.817C250.265 222.836 250.453 222.874 250.636 222.93H250.741C250.806 222.93 250.806 222.93 250.819 222.93C250.522 222.721 250.239 222.49 249.97 222.239C248.778 221.069 247.697 219.774 246.744 218.372C245.634 216.763 244.523 214.956 243.465 213.079C241.303 209.176 239.332 205.153 237.561 201.026C235.732 196.792 233.969 192.558 232.336 188.154C230.704 183.751 229.149 179.276 227.83 175L210 182.085Z" fill="#407BFF"/>
<g opacity="0.6">
<path d="M209.688 183.322C211.529 188.141 213.33 192.621 215.29 197.201C217.249 201.78 219.234 206.303 221.43 210.798C223.626 215.293 225.967 219.76 228.623 224.241C229.938 226.467 231.397 228.693 233.054 230.934C234.835 233.404 236.863 235.658 239.102 237.655C240.581 238.95 242.212 240.03 243.954 240.868C244.507 241.093 245.019 241.319 245.624 241.516L246.545 241.784C247.008 241.906 247.478 241.995 247.952 242.051C249.554 242.245 251.177 242.121 252.738 241.685C254.689 241.1 256.544 240.192 258.234 238.994C259.5 238.147 260.708 237.205 261.85 236.176C265.645 232.625 269.143 228.726 272.303 224.523C275.367 220.577 278.26 216.618 281.034 212.574C283.809 208.53 286.478 204.556 289.213 200.315L274.67 190.254C270.081 198.193 265.003 205.795 259.47 213.011C256.927 216.353 254.125 219.459 251.094 222.296C250.507 222.811 249.888 223.282 249.24 223.705C248.754 224.058 248.267 224.199 248.609 224.072C249.071 223.935 249.556 223.907 250.029 223.987C250.22 224.006 250.41 224.044 250.594 224.1H250.7C250.765 224.1 250.765 224.1 250.779 224.1C250.48 223.891 250.194 223.66 249.924 223.409C248.724 222.242 247.636 220.949 246.676 219.549C245.558 217.942 244.441 216.139 243.376 214.265C241.199 210.368 239.215 206.351 237.432 202.231C235.592 198.004 233.816 193.777 232.173 189.381C230.529 184.984 228.964 180.518 227.636 176.248L209.688 183.322Z" fill="white"/>
</g>
<path d="M174.108 160.525C179.387 170.379 198.179 207.921 200.46 231.091C208.779 209.976 206.963 163.27 206.963 163.27C212.892 163.848 218.708 165.27 224.235 167.493C226.016 168.225 227.56 169.435 228.695 170.991C229.831 172.546 230.514 174.385 230.668 176.305C232.288 200.472 231.524 224.739 228.387 248.757C222.546 294.224 221.05 311.441 221.05 311.441C221.05 311.441 183.101 316.742 147.205 309.169C151.583 274.414 154.064 262.411 154.204 246.814C154.373 226.741 153.909 187.496 153.275 171.111C153.169 168.797 153.894 166.522 155.319 164.697C156.744 162.872 158.775 161.616 161.045 161.158C165.351 160.36 169.745 160.147 174.108 160.525Z" fill="#407BFF"/>
<path opacity="0.7" d="M173.245 160.527C178.478 170.359 197.109 207.818 199.37 230.937C207.618 209.869 205.818 163.266 205.818 163.266C211.696 163.843 217.462 165.262 222.942 167.48C224.708 168.21 226.238 169.418 227.364 170.97C228.49 172.522 229.166 174.357 229.319 176.272C230.926 200.386 230.169 224.6 227.059 248.564C221.267 293.931 222.942 313.049 222.942 313.049C222.942 313.049 177.113 318.338 141.525 310.782C145.866 276.104 153.371 262.188 153.511 246.626C153.678 226.597 153.218 187.424 152.59 171.075C152.458 168.837 153.115 166.624 154.445 164.826C155.775 163.027 157.693 161.759 159.861 161.244C164.267 160.374 168.772 160.133 173.245 160.527Z" fill="white"/>
<path d="M188.509 278.407H231.414C232.281 278.368 233.111 278.049 233.781 277.498C234.451 276.947 234.925 276.194 235.131 275.352L249.475 208.672C249.58 208.308 249.597 207.924 249.524 207.552C249.452 207.18 249.293 206.831 249.059 206.532C248.825 206.234 248.524 205.996 248.181 205.837C247.837 205.677 247.46 205.602 247.082 205.617H204.19C203.322 205.653 202.488 205.971 201.815 206.521C201.142 207.072 200.667 207.827 200.46 208.672L186.116 275.352C186.011 275.716 185.994 276.1 186.066 276.472C186.139 276.844 186.298 277.193 186.532 277.491C186.765 277.79 187.066 278.028 187.41 278.187C187.754 278.346 188.131 278.422 188.509 278.407Z" fill="white"/>
<path d="M189.842 278.969H233.48C234.362 278.928 235.207 278.603 235.889 278.043C236.572 277.482 237.055 276.716 237.266 275.859L251.864 208.052C251.968 207.68 251.983 207.289 251.908 206.911C251.833 206.532 251.669 206.177 251.43 205.874C251.191 205.57 250.884 205.328 250.534 205.166C250.184 205.004 249.8 204.927 249.414 204.941H205.777C204.895 204.982 204.05 205.307 203.367 205.868C202.685 206.429 202.202 207.195 201.991 208.052L187.407 275.859C187.3 276.229 187.282 276.62 187.355 276.999C187.429 277.377 187.591 277.733 187.829 278.037C188.067 278.341 188.373 278.584 188.723 278.746C189.073 278.908 189.457 278.985 189.842 278.969Z" fill="#407BFF"/>
<path d="M184.848 240.709L195.701 240.3C197.006 240.256 198.306 240.486 199.516 240.976L205.147 243.228C205.675 243.438 206.156 243.751 206.56 244.151C206.964 244.55 207.283 245.027 207.499 245.553C207.714 246.078 207.822 246.642 207.814 247.21C207.807 247.778 207.685 248.339 207.455 248.859L205.203 253.729C204.749 254.674 203.983 255.433 203.034 255.879C202.085 256.325 201.012 256.431 199.995 256.179L193.787 254.63C193.787 254.63 182.132 253.701 181.709 247.592L184.848 240.709Z" fill="#FFB573"/>
<path d="M154.879 166.893C152.19 171.116 149.727 174.972 147.305 179.111C144.884 183.249 142.505 187.346 140.267 191.625C138.029 195.904 135.903 200.324 133.975 205.054C132.974 207.531 132.118 210.064 131.413 212.641C130.505 215.782 130.088 219.044 130.174 222.312V222.861C130.169 222.955 130.169 223.049 130.174 223.142C130.174 223.649 130.315 224.156 130.414 224.663C130.512 225.169 130.639 225.563 130.78 226.07C130.92 226.577 131.075 226.844 131.23 227.239C131.768 228.456 132.459 229.601 133.285 230.645C134.435 232.082 135.743 233.385 137.184 234.53C139.398 236.274 141.752 237.833 144.223 239.19C148.568 241.566 153.042 243.699 157.624 245.58C162.058 247.466 166.478 249.184 170.926 250.803C175.374 252.421 179.752 253.984 184.383 255.532L189.746 237.796C185.523 236.642 181.216 235.22 177.007 233.784C172.798 232.348 168.561 230.744 164.563 229.069C160.64 227.448 156.814 225.601 153.105 223.536C151.54 222.669 150.047 221.675 148.643 220.566C148.274 220.286 147.942 219.96 147.657 219.595C147.779 219.732 147.874 219.889 147.939 220.06C147.939 220.186 148.009 220.271 148.08 220.426C148.135 220.591 148.177 220.76 148.206 220.932C148.265 221.149 148.303 221.37 148.319 221.594C148.319 221.678 148.319 221.692 148.319 221.664V221.566C148.417 220.23 148.677 218.911 149.093 217.638C149.656 215.795 150.323 213.986 151.092 212.219C152.813 208.323 154.759 204.53 156.92 200.859C159.116 197.087 161.452 193.314 163.958 189.598C166.464 185.882 169.025 182.18 171.601 178.801L154.879 166.893Z" fill="#407BFF"/>
<g opacity="0.7">
<path d="M154.879 166.893C152.19 171.116 149.727 174.972 147.305 179.111C144.884 183.249 142.505 187.346 140.267 191.625C138.029 195.904 135.903 200.324 133.975 205.054C132.974 207.531 132.118 210.064 131.413 212.641C130.505 215.782 130.088 219.044 130.174 222.312V222.861C130.169 222.955 130.169 223.049 130.174 223.142C130.174 223.649 130.315 224.156 130.414 224.663C130.512 225.169 130.639 225.563 130.78 226.07C130.92 226.577 131.075 226.844 131.23 227.239C131.768 228.456 132.459 229.601 133.285 230.645C134.435 232.082 135.743 233.385 137.184 234.53C139.398 236.274 141.752 237.833 144.223 239.19C148.568 241.566 153.042 243.699 157.624 245.58C162.058 247.466 166.478 249.184 170.926 250.803C175.374 252.421 179.752 253.984 184.383 255.532L189.746 237.796C185.523 236.642 181.216 235.22 177.007 233.784C172.798 232.348 168.561 230.744 164.563 229.069C160.64 227.448 156.814 225.601 153.105 223.536C151.54 222.669 150.047 221.675 148.643 220.566C148.274 220.286 147.942 219.96 147.657 219.595C147.779 219.732 147.874 219.889 147.939 220.06C147.939 220.186 148.009 220.271 148.08 220.426C148.135 220.591 148.177 220.76 148.206 220.932C148.265 221.149 148.303 221.37 148.319 221.594C148.319 221.678 148.319 221.692 148.319 221.664V221.566C148.417 220.23 148.677 218.911 149.093 217.638C149.656 215.795 150.323 213.986 151.092 212.219C152.813 208.323 154.759 204.53 156.92 200.859C159.116 197.087 161.452 193.314 163.958 189.598C166.464 185.882 169.025 182.18 171.601 178.801L154.879 166.893Z" fill="white"/>
</g>
<path d="M169.122 215.739C169.216 215.738 169.308 215.713 169.389 215.666C169.471 215.619 169.539 215.553 169.587 215.472C169.628 215.411 169.656 215.341 169.67 215.269C169.684 215.196 169.683 215.121 169.667 215.049C169.652 214.977 169.621 214.908 169.578 214.848C169.536 214.788 169.481 214.736 169.418 214.698L167.222 213.29C165.172 211.998 163.563 210.113 162.608 207.886C161.653 205.659 161.397 203.194 161.873 200.818L166.293 178.437C166.616 176.763 167.495 175.248 168.786 174.136C170.078 173.023 171.707 172.379 173.41 172.308C175.113 172.236 176.79 172.741 178.171 173.741C179.551 174.741 180.554 176.177 181.017 177.817L187.281 199.763C187.965 202.082 187.927 204.555 187.173 206.853C186.419 209.151 184.984 211.165 183.058 212.629L180.975 214.205C180.857 214.297 180.781 214.431 180.763 214.579C180.744 214.727 180.785 214.876 180.876 214.993C180.92 215.051 180.975 215.099 181.038 215.136C181.101 215.172 181.171 215.195 181.243 215.204C181.315 215.213 181.388 215.208 181.458 215.189C181.528 215.17 181.593 215.137 181.65 215.092L183.621 213.529C185.738 211.935 187.32 209.735 188.157 207.221C188.994 204.707 189.047 201.998 188.308 199.453L182.03 177.508C181.491 175.634 180.339 173.995 178.757 172.855C177.175 171.715 175.256 171.139 173.308 171.22C171.36 171.302 169.495 172.035 168.014 173.303C166.532 174.571 165.52 176.299 165.139 178.212L160.718 200.607C160.197 203.203 160.476 205.896 161.519 208.329C162.562 210.763 164.32 212.822 166.56 214.233L168.77 215.641C168.819 215.68 168.876 215.709 168.936 215.726C168.997 215.743 169.06 215.748 169.122 215.739Z" fill="#263238"/>
<path d="M165.744 178.899L181.552 178.237C181.626 178.234 181.699 178.216 181.766 178.184C181.833 178.152 181.893 178.108 181.942 178.053C181.992 177.998 182.03 177.934 182.055 177.864C182.08 177.794 182.091 177.72 182.087 177.646C182.073 177.499 182.005 177.363 181.895 177.264C181.786 177.165 181.643 177.111 181.496 177.111L165.702 177.773C165.628 177.777 165.556 177.795 165.489 177.826C165.422 177.858 165.362 177.903 165.312 177.958C165.262 178.012 165.224 178.077 165.199 178.146C165.174 178.216 165.163 178.29 165.167 178.364C165.169 178.437 165.185 178.51 165.216 178.577C165.246 178.643 165.289 178.704 165.343 178.753C165.397 178.803 165.46 178.842 165.529 178.867C165.598 178.892 165.671 178.903 165.744 178.899Z" fill="#263238"/>
<path d="M173.433 172.341C173.579 172.338 173.718 172.279 173.822 172.178C173.927 172.076 173.989 171.938 173.996 171.792C173.996 168.977 174.869 164.092 177.501 163.023C177.574 162.998 177.641 162.959 177.698 162.908C177.755 162.856 177.801 162.794 177.833 162.724C177.865 162.654 177.883 162.579 177.885 162.502C177.886 162.425 177.872 162.349 177.844 162.277C177.815 162.206 177.771 162.142 177.717 162.088C177.662 162.034 177.597 161.992 177.525 161.964C177.453 161.936 177.377 161.923 177.3 161.926C177.223 161.929 177.148 161.948 177.079 161.981C173.179 163.586 172.856 170.934 172.856 171.835C172.855 171.983 172.912 172.126 173.015 172.233C173.117 172.34 173.257 172.404 173.405 172.412L173.433 172.341Z" fill="#263238"/>
<path d="M221.784 191.472H221.896C222.042 191.441 222.169 191.354 222.251 191.231C222.332 191.107 222.362 190.956 222.333 190.81C220.475 181.562 212.789 166.964 206.018 162.657C205.956 162.619 205.888 162.593 205.816 162.581C205.744 162.57 205.671 162.572 205.6 162.589C205.529 162.606 205.462 162.637 205.404 162.68C205.345 162.723 205.296 162.778 205.258 162.84C205.217 162.9 205.189 162.968 205.175 163.04C205.161 163.112 205.163 163.185 205.178 163.256C205.194 163.328 205.224 163.395 205.267 163.454C205.31 163.513 205.364 163.563 205.427 163.6C211.972 167.739 219.433 181.9 221.235 191.007C221.258 191.136 221.325 191.254 221.425 191.338C221.526 191.423 221.652 191.47 221.784 191.472Z" fill="#263238"/>
<path d="M217.17 192.92C218.043 195.158 219.985 196.509 221.393 195.932C222.8 195.355 223.349 193.117 222.477 190.823C221.604 188.528 219.661 187.233 218.254 187.824C216.846 188.415 216.283 190.682 217.17 192.92Z" fill="white"/>
<path d="M180.007 214.726C180.007 215.767 180.655 216.598 181.345 216.57C182.034 216.542 182.569 215.669 182.527 214.613C182.485 213.557 181.879 212.727 181.19 212.769C180.5 212.811 179.965 213.67 180.007 214.726Z" fill="white"/>
<path d="M167.873 215.231C167.873 216.272 168.506 217.103 169.21 217.075C169.914 217.047 170.421 216.174 170.378 215.118C170.336 214.062 169.745 213.246 168.971 213.274C168.197 213.302 167.831 214.217 167.873 215.231Z" fill="white"/>
<path d="M77.0619 165.044C77.0619 165.044 69.9284 167.504 77.1989 182.744C84.4694 197.984 89.5814 205.583 89.5814 205.583C89.5814 205.583 90.8491 209.106 87.8957 209.571C84.9423 210.037 78.494 208.831 77.0893 212.388C75.6297 216.081 78.2473 219.672 83.654 222.907C89.0606 226.141 100.662 233.665 101.704 234.35C102.745 235.035 103.759 236.673 101.772 237.311C99.7848 237.948 85.2164 239.078 86.162 245.972C87.1077 252.866 103.663 259.389 105.493 260.15C107.323 260.911 107.706 261.678 107.549 262.672C107.391 263.665 102.437 263.576 98.2978 264.042C94.1589 264.508 89.4444 265.824 90.3284 269.757C91.2123 273.691 100.888 282.16 124.865 285.169L136.069 285.854L142.373 276.521C154.763 255.771 154.023 242.943 151.487 239.812C148.952 236.68 145.005 239.62 142.072 242.553C139.139 245.486 136.165 249.46 135.274 248.987C134.383 248.514 134.027 247.706 134.541 245.828C135.055 243.951 140.091 226.888 135.226 221.892C130.361 216.897 120.507 227.717 118.78 228.868C117.053 230.019 116.389 228.183 116.491 226.991C116.594 225.798 117.8 211.977 118.547 205.748C119.294 199.519 118.102 195.222 114.292 194.098C110.626 193.016 107.61 198.834 105.424 200.876C103.239 202.918 101.244 199.752 101.244 199.752C101.244 199.752 98.4075 191.049 90.8628 175.939C83.3182 160.829 76.918 165.105 76.918 165.105" fill="#EBEBEB"/>
<path d="M136.522 288.512C131.04 277.39 121.59 257.463 113.401 240.4C105.213 223.338 97.7845 207.899 92.3436 196.75L85.8885 183.559L84.1342 179.968C83.9424 179.564 83.7916 179.283 83.6888 179.029C83.586 178.776 83.5449 178.707 83.5449 178.707C83.5449 178.707 83.6066 178.81 83.7162 179.015L84.1959 179.934L86.0118 183.497C87.5811 186.587 89.8218 191.083 92.5628 196.64C98.0449 207.762 105.528 223.187 113.717 240.25C121.905 257.312 131.307 277.253 136.748 288.402" fill="#E0E0E0"/>
<path d="M86.0391 214.438C86.3042 214.493 86.5634 214.573 86.8134 214.677C87.3068 214.856 88.0126 215.123 88.8692 215.465C90.6028 216.151 92.9807 217.172 95.5641 218.337L102.197 221.338L104.205 222.236C104.463 222.327 104.709 222.449 104.938 222.599C104.67 222.55 104.408 222.472 104.157 222.366C103.664 222.188 102.965 221.92 102.101 221.564C100.381 220.879 97.9899 219.817 95.427 218.652L88.7801 215.692L86.7654 214.808C86.5071 214.719 86.2625 214.594 86.0391 214.438Z" fill="#E0E0E0"/>
<path d="M105.726 221.898C105.637 221.864 107.514 216.889 109.913 210.784C112.311 204.678 114.332 199.771 114.401 199.771C114.47 199.771 112.612 204.781 110.214 210.886C107.816 216.992 105.815 221.933 105.726 221.898Z" fill="#E0E0E0"/>
<path d="M117.143 248.672C117.276 248.428 117.434 248.199 117.615 247.987L118.986 246.206C120.151 244.698 121.727 242.608 123.419 240.244C125.112 237.88 126.544 235.687 127.579 234.077L128.806 232.185C128.938 231.937 129.102 231.707 129.292 231.5C129.194 231.759 129.07 232.006 128.922 232.24C128.662 232.706 128.278 233.378 127.785 234.193C126.805 235.824 125.386 238.044 123.673 240.415C121.96 242.786 120.363 244.856 119.157 246.322C118.547 247.055 118.047 247.638 117.691 248.035C117.532 248.267 117.348 248.481 117.143 248.672Z" fill="#E0E0E0"/>
<path d="M97.8262 245.842C98.0814 245.816 98.3385 245.816 98.5937 245.842L100.649 246.061C102.397 246.266 104.809 246.568 107.502 246.924C110.195 247.281 112.566 247.61 114.3 247.884L116.355 248.213C116.61 248.238 116.861 248.293 117.102 248.377C116.848 248.4 116.592 248.389 116.342 248.343L114.286 248.123C112.545 247.925 110.133 247.623 107.475 247.267C104.816 246.911 102.411 246.582 100.67 246.308L98.6142 245.979C98.3469 245.966 98.0822 245.92 97.8262 245.842Z" fill="#E0E0E0"/>
<path d="M104.883 270.757C105.21 270.739 105.539 270.755 105.863 270.805L108.515 271.079C110.755 271.326 113.846 271.689 117.258 272.114C120.671 272.539 123.762 272.936 125.989 273.244L128.634 273.628C128.959 273.656 129.281 273.718 129.593 273.813C129.265 273.825 128.937 273.807 128.613 273.758L125.961 273.484C123.72 273.244 120.63 272.881 117.217 272.456C113.805 272.031 110.721 271.634 108.487 271.326L105.849 270.942C105.522 270.908 105.199 270.846 104.883 270.757Z" fill="#E0E0E0"/>
<path d="M129.025 273.574C129.189 273.264 129.382 272.971 129.601 272.697C130.033 272.101 130.595 271.327 131.266 270.374C132.637 268.414 134.597 265.694 136.645 262.638C138.694 259.581 140.476 256.765 141.751 254.716L143.258 252.29C143.433 251.986 143.63 251.695 143.847 251.42C143.721 251.748 143.563 252.062 143.375 252.359C143.053 252.955 142.573 253.805 141.956 254.846C140.736 256.902 138.982 259.766 136.933 262.829C134.884 265.892 132.924 268.592 131.451 270.525C130.725 271.484 130.122 272.258 129.697 272.779C129.497 273.063 129.272 273.329 129.025 273.574Z" fill="#E0E0E0"/>
<path d="M258.152 251.851C240.768 243.265 234.107 223.427 231.942 205.021C231.578 201.944 230.756 198.772 231.798 195.873C232.839 192.975 235.957 190.617 238.89 191.488C241.33 192.214 242.721 194.701 244.317 196.695C246.463 199.348 249.313 201.343 252.54 202.452C254.637 203.137 257.145 203.418 258.906 202.068C261.318 200.211 261.079 196.517 260.592 193.482L257.892 176.474C257.412 173.438 256.933 170.306 257.44 167.305C257.947 164.304 259.626 161.275 262.394 160.028C265.163 158.78 268.993 159.897 270.062 162.769C270.501 163.968 270.446 165.29 270.747 166.537C271.049 167.785 271.823 169.093 273.077 169.278C274.331 169.464 275.435 168.401 276.202 167.373C278.875 163.831 280.403 159.548 281.794 155.313C283.185 151.078 284.535 146.754 286.844 142.978C289.153 139.203 292.717 135.948 297.034 135.036C301.351 134.125 306.401 136.112 308.155 140.217C309.91 144.322 308.073 149.064 305.874 152.949C302.622 158.713 298.553 163.975 293.792 168.573C292.936 169.395 292.011 170.293 291.819 171.471C291.463 173.602 293.69 175.322 295.793 175.686C298.178 176.097 300.59 175.487 303.016 175.405C305.442 175.322 308.155 175.973 309.389 178.077C311.109 180.996 309.005 184.649 306.771 187.177C302.294 192.248 296.977 196.509 291.051 199.772C288.934 200.93 286.693 202.006 285.131 203.884C283.569 205.761 282.89 208.626 284.309 210.599C285.727 212.573 288.626 212.84 290.901 212.052C293.176 211.264 295.081 209.667 297.184 208.489C301.125 206.275 306.566 205.748 309.793 208.941C311.911 211.051 312.568 214.334 312.109 217.294C311.65 220.254 310.218 222.975 308.642 225.517C303.16 234.425 295.533 242.025 286.351 246.863C277.168 251.701 268.322 253.907 258.152 251.851Z" fill="#F5F5F5"/>
<path d="M261.135 239.647C262.659 229.211 264.78 218.872 267.487 208.68C268.195 205.966 268.88 203.289 269.543 200.649C270.228 198.011 270.913 195.4 271.742 192.885C273.337 188.057 275.199 183.321 277.32 178.7C279.315 174.273 281.363 170.148 283.31 166.304C285.256 162.46 287.154 158.917 289.018 155.758C291.937 150.758 295.251 145.999 298.926 141.525C300.222 139.942 301.263 138.743 301.983 137.941C302.332 137.564 302.599 137.256 302.805 137.037C302.894 136.93 302.993 136.831 303.1 136.742C303.026 136.862 302.941 136.974 302.846 137.078L302.065 138.017C301.38 138.846 300.365 140.073 299.098 141.662C295.512 146.183 292.266 150.963 289.388 155.964C287.558 159.129 285.687 162.679 283.755 166.523C281.823 170.368 279.794 174.5 277.821 178.919C275.726 183.529 273.883 188.248 272.298 193.056C271.475 195.557 270.804 198.155 270.112 200.793C269.419 203.431 268.741 206.117 268.056 208.824C265.353 219.001 263.221 229.321 261.669 239.736" fill="#E0E0E0"/>
<path d="M271.927 192.824C271.715 192.426 271.549 192.005 271.434 191.57C271.146 190.754 270.749 189.562 270.324 188.082C269.433 185.114 268.343 180.982 267.158 176.432C265.972 171.882 264.828 167.764 263.896 164.824C263.43 163.351 263.046 162.165 262.766 161.343C262.601 160.919 262.484 160.477 262.416 160.027C262.653 160.409 262.846 160.816 262.992 161.24C263.334 162.035 263.78 163.207 264.294 164.667C265.328 167.586 266.541 171.69 267.72 176.261C268.899 180.832 269.92 184.833 270.721 187.951C271.091 189.356 271.407 190.535 271.653 191.487C271.791 191.922 271.883 192.37 271.927 192.824Z" fill="#E0E0E0"/>
<path d="M309.911 179.57C309.413 179.754 308.899 179.894 308.376 179.988C307.39 180.235 305.957 180.578 304.196 181.057C300.674 181.989 295.857 183.442 290.608 185.285C285.359 187.129 280.685 189.006 277.341 190.466C275.669 191.151 274.326 191.795 273.394 192.213C272.925 192.46 272.434 192.665 271.928 192.823C272.358 192.511 272.817 192.24 273.298 192.015C274.203 191.535 275.518 190.856 277.184 190.096C280.493 188.54 285.16 186.601 290.423 184.744C294.918 183.142 299.493 181.769 304.128 180.632C305.903 180.208 307.355 179.947 308.363 179.748C308.872 179.638 309.39 179.579 309.911 179.57Z" fill="#E0E0E0"/>
<path d="M261.505 238.832C261.377 238.699 261.264 238.552 261.169 238.394C260.929 238.037 260.634 237.606 260.285 237.078C259.517 235.941 258.462 234.255 257.181 232.158C254.611 227.964 251.246 222.064 247.621 215.5C243.996 208.935 240.687 203.014 238.213 198.773L235.266 193.763L234.471 192.393C234.367 192.238 234.284 192.07 234.225 191.893C234.358 192.023 234.473 192.17 234.567 192.331L235.451 193.64C236.212 194.784 237.274 196.47 238.555 198.567C241.125 202.754 244.49 208.661 248.115 215.225C251.74 221.79 255.043 227.711 257.523 231.952L260.47 236.962C260.785 237.51 261.045 237.962 261.265 238.332C261.369 238.486 261.45 238.655 261.505 238.832Z" fill="#E0E0E0"/>
<path d="M310.911 214.211C310.759 214.324 310.596 214.421 310.424 214.499C310.04 214.697 309.568 214.944 308.992 215.232L303.702 217.884C299.241 220.125 293.108 223.284 286.337 226.792C279.567 230.301 273.379 233.398 268.884 235.543C266.63 236.619 264.773 237.468 263.512 238.03L262.038 238.668C261.869 238.753 261.689 238.817 261.504 238.859C261.65 238.737 261.814 238.637 261.99 238.565L263.423 237.832L268.706 235.18C273.174 232.946 279.307 229.78 286.077 226.271C292.847 222.763 299.015 219.645 303.53 217.521C305.785 216.445 307.642 215.595 308.896 215.033L310.376 214.396C310.545 214.309 310.725 214.247 310.911 214.211Z" fill="#E0E0E0"/>
<path d="M101.087 44.2198C102.471 44.0331 103.878 44.1287 105.224 44.5008C106.571 44.873 107.827 45.514 108.919 46.3852C111.089 48.1463 112.824 50.3831 113.99 52.9225C116.381 57.7193 116.731 63.9414 116.327 69.3069C110.406 68.4503 105.815 63.2424 103.649 60.4603C100.223 56.0541 96.7283 46.022 101.1 44.1855" fill="#F5F5F5"/>
<path d="M125.503 73.8852C124.416 72.7667 123.645 71.3811 123.266 69.8686C122.887 68.3561 122.914 66.7702 123.344 65.2716C123.803 63.7811 124.554 62.3968 125.552 61.1992C126.551 60.0016 127.778 59.0146 129.162 58.2957C130.423 57.6105 131.951 57.1239 133.274 57.6721C133.881 57.9641 134.4 58.4137 134.775 58.9742C135.149 59.5346 135.367 60.1854 135.405 60.8586C135.462 62.2099 135.162 63.5524 134.534 64.7508C132.581 68.924 129.93 72.6106 125.496 73.8852" fill="#F5F5F5"/>
<path d="M127.736 87.1783C127.168 86.1363 126.709 85.0387 126.365 83.9028C125.936 82.673 125.655 81.3962 125.529 80.0996C125.328 78.5294 125.229 76.9477 125.235 75.3645C125.252 72.4505 125.989 69.5858 127.379 67.025C127.813 66.2654 128.325 65.5534 128.908 64.9007C129.339 64.4485 129.593 64.2155 129.627 64.2566C129.661 64.2977 128.75 65.305 127.749 67.2306C126.514 69.7703 125.86 72.5539 125.838 75.3783C125.832 76.9372 125.915 78.4951 126.084 80.0448C126.184 81.3077 126.414 82.5569 126.77 83.7726C127.172 84.8836 127.495 86.0217 127.736 87.1783Z" fill="#E0E0E0"/>
<path d="M104.438 51.5859C104.85 52.0232 105.224 52.4955 105.554 52.9976C106.24 53.9295 107.226 55.2863 108.426 56.972C110.817 60.3503 114.079 65.058 117.546 70.3413C121.014 75.6246 124.015 80.5036 126.112 84.0464C127.167 85.828 127.996 87.2876 128.552 88.3018C128.867 88.8151 129.14 89.3537 129.367 89.9121C128.984 89.4464 128.644 88.9464 128.353 88.4183L125.749 84.2656C123.563 80.7572 120.5 75.9261 117.039 70.6428L108.076 57.2393L105.335 53.1278C104.989 52.6428 104.688 52.1266 104.438 51.5859Z" fill="#E0E0E0"/>
<path d="M120.905 79.305C118.377 77.2031 115.384 75.7337 112.175 75.0187C108.966 74.3037 105.633 74.3636 102.451 75.1935C100.834 75.6321 99.0248 76.564 98.833 78.2086C98.6411 79.8532 100.149 81.2169 101.629 81.9981C104.739 83.5825 108.249 84.2107 111.716 83.8034C115.183 83.3961 118.452 81.9715 121.111 79.7093" fill="#F5F5F5"/>
<path d="M106.371 78.1116C106.663 77.9886 106.973 77.9145 107.289 77.8923C107.892 77.7827 108.763 77.6799 109.852 77.5771C112.699 77.2991 115.572 77.5477 118.329 78.3103C119.847 78.774 121.28 79.4823 122.57 80.4072C123.605 81.1728 124.528 82.0793 125.311 83.1002C125.849 83.777 126.32 84.5045 126.716 85.2725C126.89 85.5403 127.019 85.8341 127.1 86.1427C126.99 86.2044 126.367 85.0052 124.983 83.3675C123.183 81.2389 120.801 79.6814 118.13 78.8859C115.435 78.153 112.641 77.8545 109.852 78.0019C108.695 78.108 107.533 78.1446 106.371 78.1116Z" fill="#E0E0E0"/>
<path d="M276.876 67.2952L271.087 86.8778C270.552 88.6852 271.584 90.5836 273.392 91.1179L292.974 96.9074C294.782 97.4417 296.68 96.4097 297.214 94.6024L303.004 75.0197C303.538 73.2123 302.506 71.314 300.699 70.7797L281.116 64.9902C279.309 64.4558 277.41 65.4878 276.876 67.2952Z" fill="#455A64"/>
<path d="M292.991 88.8174C293 88.7385 293.016 88.6605 293.039 88.5844L293.204 87.9471L293.855 85.5625L296.212 77.1133L296.301 77.2778L281.13 72.9607L281.328 72.851V72.899V73.0018L281.274 73.2005L281.157 73.5911L280.917 74.3723C280.766 74.8931 280.616 75.407 280.472 75.9141L279.547 78.9361C278.978 80.889 278.437 82.7598 277.936 84.5072L277.834 84.329L288.729 87.5291L291.833 88.4611L292.669 88.7146L292.964 88.8174L292.69 88.7558L291.874 88.5433L288.777 87.6936L277.751 84.61L277.607 84.5689L277.649 84.4249C278.149 82.6776 278.676 80.8068 279.238 78.847C279.519 77.8671 279.8 76.8598 280.095 75.8387C280.239 75.3316 280.39 74.8177 280.533 74.2969L280.76 73.5157L280.876 73.1183L280.931 72.9264V72.8236V72.7757L281.136 72.666L296.294 77.0379L296.424 77.079L296.39 77.2092C295.349 80.7314 294.485 83.6506 293.875 85.7269C293.574 86.7137 293.341 87.5017 293.19 88.0636C293.108 88.3103 293.046 88.5091 292.998 88.6667C292.999 88.717 292.997 88.7673 292.991 88.8174Z" fill="#FAFAFA"/>
<path d="M286.905 71.98C287.369 72.0426 287.827 72.1411 288.276 72.2747C289.125 72.4939 290.331 72.816 291.764 73.2135H291.839V73.2957C292.051 74.1111 292.284 74.9951 292.524 75.9271L292.6 76.2012L292.325 76.1189L290.886 75.7078C288.495 75.0225 286.329 74.3852 284.753 73.9056L284.555 73.8439L284.705 73.7068C285.98 72.5351 286.837 71.8567 286.898 71.9594C286.898 71.9594 286.693 72.1239 286.336 72.4528L284.863 73.8782L284.815 73.6794C286.412 74.1043 288.584 74.7073 290.982 75.3926L292.421 75.8106L292.216 76.0024L291.531 73.3711L291.633 73.4739C290.208 73.0558 289.016 72.6858 288.207 72.4254C287.761 72.3162 287.325 72.1672 286.905 71.98Z" fill="#FAFAFA"/>
<path d="M289.895 82.738C289.895 82.738 290.059 82.4639 290.251 81.9294C290.512 81.1748 290.512 80.3543 290.251 79.5996C290.051 78.9872 289.685 78.4424 289.194 78.026C288.703 77.6096 288.105 77.3379 287.468 77.2414C286.832 77.1449 286.18 77.2273 285.588 77.4794C284.995 77.7316 284.484 78.1435 284.112 78.6692C283.74 79.1949 283.521 79.8137 283.481 80.4565C283.44 81.0993 283.579 81.7408 283.881 82.3093C284.184 82.8778 284.639 83.351 285.195 83.676C285.751 84.0009 286.386 84.165 287.03 84.1497C287.83 84.1321 288.601 83.8501 289.223 83.3479C289.662 82.9916 289.84 82.7175 289.867 82.738C289.84 82.8124 289.8 82.8818 289.751 82.9436C289.623 83.1274 289.473 83.2953 289.305 83.4439C288.683 84.0135 287.88 84.3459 287.037 84.3827C286.41 84.4097 285.785 84.279 285.222 84.0025C284.658 83.7259 284.172 83.3124 283.81 82.7997C283.374 82.1888 283.135 81.4598 283.124 80.7097C283.103 79.9045 283.344 79.1142 283.809 78.457C284.275 77.7998 284.941 77.3111 285.708 77.0642C286.182 76.9054 286.683 76.8436 287.181 76.8823C287.679 76.9211 288.165 77.0597 288.608 77.2898C289.052 77.52 289.445 77.837 289.764 78.222C290.082 78.607 290.32 79.0522 290.463 79.5311C290.709 80.336 290.665 81.2012 290.34 81.9774C290.254 82.1862 290.144 82.384 290.011 82.5667C289.956 82.6901 289.901 82.7449 289.895 82.738Z" fill="#FAFAFA"/>
<path d="M109.443 105.508L80.6493 111.67C78.2919 112.175 76.7899 114.495 77.2944 116.852L83.4566 145.646C83.9611 148.003 86.2811 149.505 88.6385 149.001L117.432 142.838C119.789 142.334 121.291 140.014 120.787 137.656L114.624 108.863C114.12 106.506 111.8 105.004 109.443 105.508Z" fill="#CA95FE"/>
<path d="M93.8434 118.517C94.0803 118.591 94.3097 118.687 94.5286 118.804L96.4474 119.723H96.5227L96.4816 119.805C95.8512 120.977 95.0083 122.546 93.9941 124.396L93.953 124.218L103.3 130.214L103.026 130.276C103.821 128.905 104.664 127.473 105.527 125.979L105.609 125.849L105.753 125.883C106.946 126.179 108.097 126.623 109.179 127.206C110.362 127.785 111.343 128.707 111.996 129.851C112.144 130.158 112.246 130.486 112.297 130.824L112.373 131.338L112.332 131.858C112.305 132.204 112.226 132.543 112.099 132.866C112.003 133.195 111.87 133.513 111.701 133.811C111.056 135.065 110.005 136.062 108.72 136.641C107.429 137.213 105.99 137.362 104.609 137.066C103.939 136.926 103.291 136.696 102.683 136.381C102.08 136.066 101.559 135.696 101.004 135.353L94.7479 131.358L89.0946 127.726L87.7858 126.89C87.3482 126.63 86.9373 126.327 86.5592 125.986C86.196 125.657 85.9018 125.259 85.6936 124.816C85.4854 124.372 85.3673 123.892 85.3463 123.402C85.3344 122.571 85.5136 121.749 85.87 120.998C86.2265 120.247 86.7506 119.588 87.402 119.072C88.3747 118.281 89.576 117.825 90.8283 117.77C91.6071 117.729 92.386 117.848 93.117 118.119C93.3049 118.189 93.4881 118.272 93.6652 118.366C93.729 118.392 93.7889 118.426 93.8434 118.469C92.8934 118.068 91.8645 117.89 90.8351 117.948C89.6359 118.03 88.4938 118.491 87.5733 119.263C86.9692 119.762 86.4858 120.391 86.1594 121.103C85.833 121.815 85.6722 122.592 85.6889 123.375C85.709 123.831 85.8214 124.278 86.0193 124.689C86.2171 125.1 86.4964 125.467 86.8401 125.767C87.2089 126.09 87.6082 126.377 88.0324 126.623L89.3413 127.445L95.0152 131.036L101.285 135.011C101.833 135.353 102.375 135.73 102.93 136.018C103.501 136.308 104.11 136.518 104.739 136.641C106.021 136.912 107.357 136.773 108.556 136.244C109.741 135.706 110.708 134.78 111.297 133.62C111.451 133.339 111.575 133.043 111.667 132.736C111.781 132.446 111.853 132.141 111.879 131.831L111.92 131.372L111.852 130.926C111.808 130.627 111.718 130.335 111.585 130.063C110.974 129 110.06 128.144 108.96 127.603C107.913 127.037 106.798 126.604 105.643 126.315L105.87 126.212L103.341 130.495L103.231 130.673L103.067 130.563L93.8434 124.478L93.7337 124.41L93.7954 124.3L96.3788 119.757V119.873L94.5286 118.914C94.2894 118.801 94.0601 118.668 93.8434 118.517Z" fill="#FAFAFA"/>
<path d="M103.635 123.422C103.263 122.443 103.005 121.425 102.867 120.386C102.607 119.369 102.466 118.325 102.449 117.275C102.818 118.258 103.075 119.278 103.217 120.318C103.473 121.333 103.614 122.375 103.635 123.422Z" fill="#FAFAFA"/>
<path d="M106.177 119.682C105.179 120.075 104.14 120.357 103.08 120.525C102.036 120.8 100.965 120.966 99.8867 121.018C100.886 120.627 101.924 120.347 102.984 120.182C104.027 119.897 105.098 119.729 106.177 119.682Z" fill="#FAFAFA"/>
<path d="M256.879 55.8418H213.523V119.413H256.879V55.8418Z" fill="#F5F5F5"/>
<path d="M256.873 119.413C256.873 119.413 256.873 119.303 256.873 119.098C256.873 118.892 256.873 118.591 256.873 118.2C256.873 117.398 256.873 116.234 256.873 114.719C256.873 111.67 256.873 107.236 256.825 101.631C256.825 90.4338 256.777 74.5633 256.743 55.8422L256.907 56.0067H213.558L213.736 55.8285C213.736 79.7438 213.736 101.816 213.695 119.399L213.558 119.256L245.08 119.331L253.81 119.365H256.105C256.626 119.365 256.9 119.365 256.9 119.365H256.14H253.871L245.169 119.399L213.551 119.475H213.407V119.331C213.407 101.747 213.407 79.6753 213.373 55.76V55.6641H213.551H256.9H257.065V55.8696C257.065 74.6319 257.003 90.5366 256.983 101.782C256.983 107.366 256.983 111.793 256.941 114.801C256.941 116.302 256.941 117.46 256.941 118.228C256.941 118.611 256.941 118.913 256.941 119.112C256.941 119.31 256.873 119.413 256.873 119.413Z" fill="#263238"/>
<path d="M217.616 116.987C216.582 116.504 215.709 115.735 215.099 114.771C214.489 113.807 214.167 112.689 214.172 111.548C214.177 110.407 214.508 109.292 215.127 108.333C215.746 107.375 216.626 106.614 217.664 106.14C218.065 106.003 218.426 105.768 218.712 105.454C219.096 104.947 218.945 104.235 218.959 103.597C219.013 102.77 219.372 101.992 219.967 101.415C220.562 100.837 221.351 100.501 222.18 100.473L231.944 104.31V114.589L217.616 116.987Z" fill="#263238"/>
<path d="M214.045 119.242C214.045 119.242 221.302 113.534 230.21 112.191C239.118 110.848 249.061 112.191 249.061 112.191C251.774 112.693 254.396 113.601 256.839 114.884L256.887 119.386L247.293 119.352L214.045 119.242Z" fill="#A74FFE"/>
<path d="M252.776 71.7741C251.844 69.1907 247.431 66.9774 245.005 65.6822C241.38 63.7567 238.091 64.3117 236.097 66.1619C232.321 63.2016 227.388 60.4058 222.79 61.7694C218.192 63.1331 214.567 68.0121 215.588 72.7335C216.177 75.4745 218.185 77.9277 218.164 80.7578C218.164 82.6834 217.191 84.4513 216.437 86.2398C215.684 88.0283 215.128 90.0704 215.91 91.8315C216.643 93.4692 218.356 94.4491 219.336 95.943C220.117 97.1764 220.336 98.684 220.85 100.055C222.769 105.119 228.909 107.784 234.213 106.708C239.517 105.632 243.806 101.466 246.184 96.594C248.562 91.7218 249.199 86.1987 249.309 80.7921" fill="#263238"/>
<path d="M249.103 113.725L248.918 75.604L232.883 70.7181C231.714 70.5576 230.524 70.635 229.386 70.9457C228.247 71.2564 227.183 71.794 226.258 72.5262C225.332 73.2584 224.564 74.1701 224 75.2065C223.436 76.2429 223.087 77.3827 222.974 78.5574C222.398 84.4643 221.919 91.8924 222.488 96.374C223.605 105.166 230.272 106.488 230.272 106.488C230.272 106.488 230.217 109.75 230.149 113.567C230.108 115.636 230.749 117.661 231.971 119.33H247.273C248.467 117.705 249.108 115.741 249.103 113.725Z" fill="#FFBE9D"/>
<path d="M249.103 113.725L248.918 75.604L232.883 70.7181C231.714 70.5576 230.524 70.635 229.386 70.9457C228.247 71.2564 227.183 71.794 226.258 72.5262C225.332 73.2584 224.564 74.1701 224 75.2065C223.436 76.2429 223.087 77.3827 222.974 78.5574C222.398 84.4643 221.919 91.8924 222.488 96.374C223.605 105.166 230.272 106.488 230.272 106.488C230.272 106.488 230.217 109.75 230.149 113.567C230.108 115.636 230.749 117.661 231.971 119.33H247.273C248.467 117.705 249.108 115.741 249.103 113.725Z" fill="black" fill-opacity="0.2"/>
<path d="M235.691 79.491C235.801 79.8268 237.014 79.7103 238.432 79.9227C239.851 80.1351 240.975 80.56 241.173 80.2722C241.263 80.1351 241.071 79.8199 240.618 79.4841C240.017 79.0719 239.327 78.8067 238.604 78.7098C237.882 78.5982 237.144 78.6616 236.452 78.8948C235.924 79.0867 235.691 79.3402 235.691 79.491Z" fill="#263238"/>
<path d="M224.556 80.1628C224.762 80.4437 225.605 80.1628 226.612 80.1628C227.619 80.1628 228.448 80.4095 228.668 80.1628C228.757 80.0257 228.633 79.7448 228.27 79.4775C227.784 79.1473 227.21 78.9707 226.622 78.9707C226.035 78.9707 225.46 79.1473 224.974 79.4775C224.597 79.7448 224.467 80.0257 224.556 80.1628Z" fill="#263238"/>
<path d="M230.272 106.51C234.395 106.651 238.48 105.673 242.092 103.68C242.092 103.68 238.961 109.929 230.23 108.833L230.272 106.51Z" fill="#FFBE9D"/>
<path d="M230.272 106.51C234.395 106.651 238.48 105.673 242.092 103.68C242.092 103.68 238.961 109.929 230.23 108.833L230.272 106.51Z" fill="black" fill-opacity="0.3"/>
<path d="M235.383 89.3524C235.386 89.4366 235.423 89.5161 235.484 89.5737C235.546 89.6314 235.627 89.6626 235.712 89.6608C235.797 89.6572 235.877 89.621 235.936 89.5597C235.994 89.4984 236.027 89.4167 236.027 89.3318C236.027 89.2464 235.993 89.1645 235.933 89.1041C235.872 89.0437 235.79 89.0098 235.705 89.0098C235.619 89.0098 235.538 89.0437 235.477 89.1041C235.417 89.1645 235.383 89.2464 235.383 89.3318V89.3524Z" fill="#FFBE9D"/>
<path d="M235.383 89.3524C235.386 89.4366 235.423 89.5161 235.484 89.5737C235.546 89.6314 235.627 89.6626 235.712 89.6608C235.797 89.6572 235.877 89.621 235.936 89.5597C235.994 89.4984 236.027 89.4167 236.027 89.3318C236.027 89.2464 235.993 89.1645 235.933 89.1041C235.872 89.0437 235.79 89.0098 235.705 89.0098C235.619 89.0098 235.538 89.0437 235.477 89.1041C235.417 89.1645 235.383 89.2464 235.383 89.3318V89.3524Z" fill="black" fill-opacity="0.3"/>
<path d="M226.291 88.0769C226.284 88.1227 226.287 88.1694 226.3 88.2138C226.313 88.2582 226.335 88.2993 226.365 88.3343C226.396 88.3693 226.433 88.3974 226.475 88.4166C226.517 88.4359 226.563 88.4459 226.609 88.4459C226.655 88.4459 226.701 88.4359 226.743 88.4166C226.785 88.3974 226.823 88.3693 226.853 88.3343C226.883 88.2993 226.905 88.2582 226.918 88.2138C226.931 88.1694 226.935 88.1227 226.928 88.0769C226.924 87.9921 226.888 87.9119 226.827 87.8532C226.765 87.7944 226.684 87.7616 226.599 87.7617C226.517 87.7652 226.44 87.7997 226.382 87.8583C226.325 87.9168 226.292 87.995 226.291 88.0769Z" fill="#FFBE9D"/>
<path d="M226.291 88.0769C226.284 88.1227 226.287 88.1694 226.3 88.2138C226.313 88.2582 226.335 88.2993 226.365 88.3343C226.396 88.3693 226.433 88.3974 226.475 88.4166C226.517 88.4359 226.563 88.4459 226.609 88.4459C226.655 88.4459 226.701 88.4359 226.743 88.4166C226.785 88.3974 226.823 88.3693 226.853 88.3343C226.883 88.2993 226.905 88.2582 226.918 88.2138C226.931 88.1694 226.935 88.1227 226.928 88.0769C226.924 87.9921 226.888 87.9119 226.827 87.8532C226.765 87.7944 226.684 87.7616 226.599 87.7617C226.517 87.7652 226.44 87.7997 226.382 87.8583C226.325 87.9168 226.292 87.995 226.291 88.0769Z" fill="black" fill-opacity="0.3"/>
<path d="M224.549 88.9823C224.552 89.0665 224.589 89.1459 224.65 89.2036C224.712 89.2612 224.794 89.2925 224.878 89.2906C224.963 89.2906 225.045 89.2567 225.106 89.1963C225.166 89.1359 225.2 89.054 225.2 88.9686C225.2 88.8831 225.166 88.8012 225.106 88.7408C225.045 88.6804 224.963 88.6465 224.878 88.6465C224.834 88.6465 224.791 88.6552 224.75 88.6722C224.71 88.6891 224.673 88.714 224.643 88.7452C224.612 88.7765 224.588 88.8136 224.572 88.8543C224.556 88.895 224.548 88.9385 224.549 88.9823Z" fill="#FFBE9D"/>
<path d="M224.549 88.9823C224.552 89.0665 224.589 89.1459 224.65 89.2036C224.712 89.2612 224.794 89.2925 224.878 89.2906C224.963 89.2906 225.045 89.2567 225.106 89.1963C225.166 89.1359 225.2 89.054 225.2 88.9686C225.2 88.8831 225.166 88.8012 225.106 88.7408C225.045 88.6804 224.963 88.6465 224.878 88.6465C224.834 88.6465 224.791 88.6552 224.75 88.6722C224.71 88.6891 224.673 88.714 224.643 88.7452C224.612 88.7765 224.588 88.8136 224.572 88.8543C224.556 88.895 224.548 88.9385 224.549 88.9823Z" fill="black" fill-opacity="0.3"/>
<path d="M223.967 87.6593C223.968 87.7232 223.989 87.7853 224.026 87.8376C224.062 87.8899 224.114 87.9301 224.174 87.9529C224.233 87.9758 224.299 87.9804 224.361 87.966C224.423 87.9517 224.48 87.9191 224.524 87.8724C224.568 87.8258 224.596 87.7671 224.607 87.704C224.617 87.6408 224.608 87.576 224.582 87.5179C224.555 87.4597 224.512 87.4108 224.457 87.3775C224.402 87.3441 224.339 87.3277 224.275 87.3304C224.191 87.3339 224.112 87.3704 224.054 87.4319C223.996 87.4934 223.965 87.575 223.967 87.6593Z" fill="#FFBE9D"/>
<path d="M223.967 87.6593C223.968 87.7232 223.989 87.7853 224.026 87.8376C224.062 87.8899 224.114 87.9301 224.174 87.9529C224.233 87.9758 224.299 87.9804 224.361 87.966C224.423 87.9517 224.48 87.9191 224.524 87.8724C224.568 87.8258 224.596 87.7671 224.607 87.704C224.617 87.6408 224.608 87.576 224.582 87.5179C224.555 87.4597 224.512 87.4108 224.457 87.3775C224.402 87.3441 224.339 87.3277 224.275 87.3304C224.191 87.3339 224.112 87.3704 224.054 87.4319C223.996 87.4934 223.965 87.575 223.967 87.6593Z" fill="black" fill-opacity="0.3"/>
<path d="M236.899 90.7146C236.9 90.7566 236.909 90.798 236.926 90.8364C236.943 90.8747 236.968 90.9093 236.998 90.938C237.029 90.9667 237.065 90.9891 237.104 91.0036C237.144 91.0182 237.186 91.0248 237.228 91.023C237.292 91.0215 237.354 91.0011 237.406 90.9643C237.458 90.9274 237.498 90.8758 237.521 90.8161C237.544 90.7563 237.549 90.6911 237.534 90.6288C237.52 90.5664 237.487 90.5098 237.441 90.466C237.394 90.4223 237.335 90.3934 237.272 90.3831C237.209 90.3728 237.144 90.3816 237.086 90.4082C237.028 90.4349 236.979 90.4783 236.946 90.5328C236.912 90.5874 236.896 90.6507 236.899 90.7146Z" fill="#FFBE9D"/>
<path d="M236.899 90.7146C236.9 90.7566 236.909 90.798 236.926 90.8364C236.943 90.8747 236.968 90.9093 236.998 90.938C237.029 90.9667 237.065 90.9891 237.104 91.0036C237.144 91.0182 237.186 91.0248 237.228 91.023C237.292 91.0215 237.354 91.0011 237.406 90.9643C237.458 90.9274 237.498 90.8758 237.521 90.8161C237.544 90.7563 237.549 90.6911 237.534 90.6288C237.52 90.5664 237.487 90.5098 237.441 90.466C237.394 90.4223 237.335 90.3934 237.272 90.3831C237.209 90.3728 237.144 90.3816 237.086 90.4082C237.028 90.4349 236.979 90.4783 236.946 90.5328C236.912 90.5874 236.896 90.6507 236.899 90.7146Z" fill="black" fill-opacity="0.3"/>
<path d="M238.049 89.3927C238.052 89.4563 238.073 89.5177 238.111 89.5691C238.148 89.6204 238.2 89.6595 238.26 89.6813C238.32 89.7031 238.385 89.7067 238.447 89.6916C238.509 89.6765 238.565 89.6435 238.608 89.5966C238.651 89.5497 238.679 89.4911 238.689 89.4281C238.699 89.3652 238.69 89.3008 238.663 89.2431C238.636 89.1853 238.593 89.1368 238.538 89.1037C238.484 89.0705 238.421 89.0543 238.357 89.0569C238.272 89.0622 238.193 89.1001 238.135 89.1627C238.078 89.2253 238.047 89.3077 238.049 89.3927Z" fill="#FFBE9D"/>
<path d="M238.049 89.3927C238.052 89.4563 238.073 89.5177 238.111 89.5691C238.148 89.6204 238.2 89.6595 238.26 89.6813C238.32 89.7031 238.385 89.7067 238.447 89.6916C238.509 89.6765 238.565 89.6435 238.608 89.5966C238.651 89.5497 238.679 89.4911 238.689 89.4281C238.699 89.3652 238.69 89.3008 238.663 89.2431C238.636 89.1853 238.593 89.1368 238.538 89.1037C238.484 89.0705 238.421 89.0543 238.357 89.0569C238.272 89.0622 238.193 89.1001 238.135 89.1627C238.078 89.2253 238.047 89.3077 238.049 89.3927Z" fill="black" fill-opacity="0.3"/>
<path d="M232.773 69.3821C235.114 67.7292 237.875 66.7745 240.737 66.6289C243.598 66.4834 246.442 67.1529 248.939 68.5598C253.907 71.4859 256.613 75.707 256.874 82.6692V91.5432C256.613 95.5862 257.477 97.9298 255.503 98.615C252.762 99.547 250.707 106.92 248.363 106.406C245.478 104.166 245.43 102.857 245.327 98.2724C245.218 93.3454 243.737 87.4865 245.67 84.3138C239.297 82.4156 234.212 76.3169 233.239 69.389" fill="#263238"/>
<path d="M223.822 61.4959C223.822 61.5439 224.576 61.5439 225.748 61.8111C226.069 61.8816 226.385 61.9732 226.693 62.0852C227.052 62.1981 227.405 62.3308 227.749 62.4827C228.533 62.8408 229.279 63.277 229.976 63.7846C230.664 64.3037 231.298 64.8914 231.867 65.5389C232.114 65.8472 232.367 66.1351 232.552 66.4297C232.744 66.6958 232.92 66.9727 233.08 67.2589C233.683 68.3005 233.902 69.0268 233.943 69.0063C233.909 68.8351 233.859 68.6676 233.793 68.506C233.732 68.3064 233.657 68.1117 233.567 67.9236C233.459 67.6725 233.338 67.4277 233.203 67.1903C233.049 66.8951 232.877 66.6091 232.689 66.3338C232.498 66.0323 232.251 65.7376 232.004 65.4155C230.875 64.0673 229.443 63.0059 227.824 62.3182C227.473 62.1672 227.114 62.0346 226.748 61.9208C226.431 61.8218 226.108 61.7395 225.782 61.6741C225.513 61.6154 225.241 61.5719 224.967 61.5439C224.762 61.5134 224.556 61.4974 224.35 61.4959C224.175 61.4779 223.998 61.4779 223.822 61.4959Z" fill="#455A64"/>
<path d="M218.733 94.9284L218.671 94.8598L218.486 94.6474C218.243 94.3878 218.015 94.1156 217.801 93.8319C217.437 93.3957 217.155 92.8963 216.972 92.3587C216.868 92.0242 216.831 91.6727 216.862 91.3239C216.904 90.9357 217.025 90.5601 217.218 90.2207C217.716 89.4534 218.268 88.7229 218.87 88.0347C220.215 86.2359 221.042 84.103 221.261 81.8674C221.357 80.6175 221.357 79.3622 221.261 78.1123C221.158 76.8749 221.229 75.6292 221.474 74.4119C221.743 73.3465 222.242 72.3529 222.935 71.5006C223.629 70.6484 224.501 69.958 225.489 69.4781C226.308 69.0851 227.194 68.8525 228.1 68.7928C229.421 68.6925 230.746 68.9282 231.951 69.4781C232.275 69.634 232.588 69.8102 232.89 70.0057L233.123 70.1565C233.178 70.1565 233.205 70.2113 233.205 70.2044C232.836 69.8864 232.426 69.6191 231.985 69.4095C230.779 68.8135 229.437 68.5442 228.093 68.6284C227.164 68.6784 226.253 68.9113 225.414 69.3136C224.404 69.8049 223.514 70.5098 222.804 71.3795C222.094 72.2492 221.582 73.2628 221.302 74.3502C221.044 75.5842 220.968 76.8493 221.076 78.1054C221.173 79.3457 221.184 80.5913 221.11 81.8332C220.895 84.0361 220.09 86.1403 218.781 87.9251C218.178 88.6212 217.629 89.361 217.136 90.1384C216.936 90.4976 216.812 90.8942 216.773 91.3034C216.746 91.6675 216.793 92.0333 216.91 92.3792C217.103 92.9255 217.399 93.4301 217.78 93.8662C218.082 94.2294 218.342 94.4898 218.513 94.6611L218.719 94.8598L218.733 94.9284Z" fill="#455A64"/>
<path d="M224.57 85.5282C224.7 85.679 225.564 85.0691 226.763 85.0965C227.962 85.1239 228.819 85.7406 228.97 85.5967C229.12 85.4528 228.901 85.2678 228.524 84.98C228.012 84.6069 227.396 84.4032 226.763 84.3975C226.137 84.3806 225.522 84.5656 225.009 84.9252C224.632 85.1993 224.502 85.4597 224.57 85.5282Z" fill="#263238"/>
<path d="M236.857 85.7258C236.994 85.8697 237.851 85.2598 239.057 85.2872C240.263 85.3146 241.113 85.9382 241.263 85.7943C241.414 85.6504 241.195 85.4585 240.811 85.1707C240.298 84.8017 239.683 84.6006 239.05 84.5951C238.424 84.5758 237.808 84.761 237.296 85.1228C236.919 85.3969 236.789 85.6573 236.857 85.7258Z" fill="#263238"/>
<path d="M232.313 92.9831C231.683 92.7722 231.029 92.6409 230.367 92.5925C230.059 92.5582 229.771 92.4897 229.723 92.2773C229.704 91.9597 229.783 91.644 229.949 91.3727C230.25 90.6327 230.566 89.8583 230.901 89.0497C232.231 85.7468 233.197 83.0264 233.06 82.9715C232.923 82.9167 231.744 85.5549 230.415 88.8647C230.1 89.6802 229.791 90.4545 229.497 91.2014C229.296 91.5671 229.233 91.9924 229.318 92.4006C229.36 92.5099 229.426 92.6082 229.512 92.6878C229.597 92.7674 229.7 92.8263 229.812 92.8597C229.982 92.9069 230.156 92.9345 230.333 92.942C230.988 93.0395 231.654 93.0533 232.313 92.9831Z" fill="#263238"/>
<path d="M232.767 95.8959C233.001 95.6124 233.304 95.3932 233.647 95.2589C233.99 95.1247 234.361 95.0798 234.726 95.1284C234.995 95.1553 235.254 95.2366 235.49 95.3674C235.726 95.4982 235.932 95.6757 236.097 95.889C236.253 96.0921 236.344 96.3383 236.356 96.5944C236.368 96.8504 236.302 97.1041 236.165 97.3212C235.969 97.5345 235.713 97.6838 235.431 97.7498C235.149 97.8157 234.853 97.7954 234.582 97.6913C234.017 97.482 233.499 97.1603 233.061 96.7456C232.927 96.6472 232.813 96.5239 232.725 96.3824C232.68 96.3156 232.656 96.2369 232.656 96.1563C232.656 96.0757 232.68 95.997 232.725 95.9302" fill="#CA95FE"/>
<path d="M235.836 93.8868C235.644 93.8868 235.616 95.1751 234.465 96.0796C233.314 96.9842 231.943 96.8128 231.93 96.9979C231.93 97.0801 232.231 97.2583 232.821 97.2857C233.585 97.3114 234.334 97.069 234.938 96.6004C235.515 96.1458 235.893 95.485 235.993 94.7571C236.069 94.2431 235.925 93.88 235.836 93.8868Z" fill="#263238"/>
<path d="M256.435 80.2301C256.11 80.3364 255.774 80.4076 255.434 80.4426C254.508 80.5769 253.574 80.6411 252.638 80.6344C249.536 80.6245 246.477 79.907 243.693 78.5367C240.91 77.1664 238.476 75.1793 236.576 72.7266C236.002 71.9899 235.485 71.2111 235.027 70.3968C234.851 70.1049 234.702 69.7975 234.582 69.4785C234.795 69.7457 234.985 70.0299 235.151 70.3282C235.646 71.1077 236.188 71.856 236.775 72.569C238.699 74.9404 241.114 76.8667 243.853 78.2153C246.593 79.5639 249.593 80.3027 252.645 80.3809C253.56 80.4108 254.475 80.3856 255.386 80.3055C255.733 80.2525 256.084 80.2273 256.435 80.2301Z" fill="#455A64"/>
<path d="M254.036 99.7256C254.036 99.7256 254.42 99.2665 255.016 98.3551C255.841 97.0857 256.396 95.6607 256.647 94.1682C256.983 91.9446 256.545 89.6732 255.407 87.7337C254.746 86.595 253.879 85.5889 252.851 84.7665C251.725 83.9079 250.463 83.2453 249.116 82.8067C247.746 82.3064 246.375 81.9296 245.039 81.4362C243.772 80.9732 242.564 80.3614 241.441 79.6134C239.55 78.3364 237.922 76.708 236.645 74.8166C235.773 73.5477 235.081 72.164 234.589 70.7051C234.452 70.3122 234.338 69.9118 234.246 69.5059C234.209 69.3642 234.181 69.2199 234.164 69.0742C234.205 69.0742 234.335 69.6498 234.719 70.6572C236.045 74.2035 238.461 77.2383 241.62 79.3256C242.727 80.0514 243.916 80.6447 245.162 81.0936C246.451 81.5732 247.842 81.9501 249.24 82.4641C250.623 82.9287 251.918 83.6237 253.07 84.5198C254.13 85.3732 255.018 86.4195 255.688 87.6035C256.851 89.6064 257.277 91.9526 256.894 94.2367C256.618 95.7554 256.015 97.1959 255.126 98.4579C254.89 98.8008 254.629 99.126 254.345 99.4309C254.253 99.5399 254.149 99.6387 254.036 99.7256Z" fill="#455A64"/>
<path d="M230.272 106.51C230.272 106.51 230.114 106.592 229.813 106.654C229.377 106.733 228.933 106.765 228.49 106.75C227.025 106.653 225.609 106.181 224.379 105.379C223.133 104.591 222.137 103.464 221.507 102.131C221.32 101.733 221.173 101.318 221.069 100.891C221.016 100.734 220.995 100.569 221.007 100.404C221.069 100.404 221.226 101.09 221.733 102.021C222.399 103.268 223.376 104.321 224.57 105.078C225.766 105.831 227.119 106.3 228.524 106.448C229.586 106.578 230.265 106.448 230.272 106.51Z" fill="#455A64"/>
<path d="M246.833 27.0891L149.006 27C146.204 26.9982 143.43 27.5488 140.841 28.6203C138.253 29.6917 135.901 31.2631 133.92 33.2444C131.94 35.2257 130.369 37.5781 129.298 40.1669C128.228 42.7558 127.678 45.5304 127.681 48.3319L127.633 293.598C127.638 299.244 129.884 304.658 133.877 308.651C137.87 312.644 143.284 314.89 148.93 314.895L246.764 314.95C249.562 314.952 252.334 314.402 254.92 313.333C257.505 312.264 259.855 310.695 261.835 308.717C263.815 306.74 265.385 304.391 266.457 301.806C267.529 299.221 268.081 296.451 268.082 293.652L268.13 48.3867C268.128 42.7388 265.884 37.3227 261.89 33.329C257.897 29.3353 252.48 27.0909 246.833 27.0891ZM261.6 290.082C261.597 292.042 261.208 293.982 260.456 295.791C259.703 297.6 258.601 299.244 257.213 300.627C255.826 302.011 254.179 303.107 252.367 303.854C250.555 304.601 248.614 304.983 246.654 304.98L149.02 304.925C147.06 304.924 145.119 304.537 143.309 303.786C141.498 303.035 139.853 301.935 138.468 300.549C137.083 299.162 135.984 297.516 135.235 295.705C134.486 293.894 134.101 291.953 134.102 289.993L134.15 50.6001C134.149 48.6393 134.534 46.6976 135.284 44.886C136.035 43.0744 137.135 41.4284 138.521 40.0422C139.908 38.6561 141.555 37.5569 143.367 36.8076C145.179 36.0583 147.12 35.6735 149.081 35.6753H172.38C173.625 35.7041 174.809 36.2248 175.672 37.1236C176.535 38.0224 177.007 39.2263 176.985 40.4721V43.8983C176.963 45.1441 177.435 46.348 178.298 47.2468C179.16 48.1456 180.344 48.6663 181.59 48.6951H218.593C219.841 48.6699 221.027 48.1505 221.892 47.2511C222.757 46.3517 223.229 45.1458 223.205 43.8983V40.4721C223.181 39.2258 223.653 38.0209 224.516 37.1217C225.379 36.2224 226.564 35.7023 227.81 35.6753H246.778C248.738 35.6825 250.678 36.0759 252.487 36.833C254.295 37.5901 255.937 38.6961 257.318 40.0878C258.698 41.4796 259.792 43.1297 260.535 44.944C261.278 46.7583 261.656 48.7013 261.648 50.6618L261.6 290.082Z" fill="#263238"/>
<path d="M226.349 251.221H175.586V273.82H226.349V251.221Z" fill="#263238"/>
<path d="M261.606 251.221H217.942C217.942 260.849 209.719 268.681 199.687 268.681C189.655 268.681 181.439 260.849 181.439 251.221H134.156V290.383C134.158 294.335 135.728 298.126 138.52 300.922C141.313 303.719 145.101 305.294 149.054 305.301L246.688 305.356C248.649 305.357 250.591 304.973 252.403 304.223C254.215 303.474 255.862 302.375 257.248 300.989C258.635 299.603 259.735 297.957 260.485 296.145C261.235 294.333 261.621 292.392 261.62 290.431L261.606 251.221Z" fill="#3C8AFF"/>
<path d="M186.597 276.188V284.675H185.979V276.821H183.914V276.263L186.597 276.188Z" fill="white"/>
<path d="M188.754 280.438C188.754 277.785 190.126 276.127 192.07 276.127C194.015 276.127 195.402 277.785 195.402 280.438C195.402 283.092 194.03 284.735 192.07 284.735C190.111 284.735 188.754 283.092 188.754 280.438ZM194.784 280.438C194.784 278.072 193.684 276.7 192.07 276.7C190.457 276.7 189.372 278.072 189.372 280.438C189.372 282.805 190.472 284.162 192.07 284.162C193.668 284.162 194.784 282.851 194.784 280.438Z" fill="white"/>
<path d="M196.715 278.811C196.702 278.737 196.705 278.662 196.725 278.59C196.744 278.518 196.779 278.451 196.827 278.393C196.876 278.336 196.936 278.29 197.003 278.259C197.071 278.227 197.145 278.211 197.22 278.211C197.294 278.211 197.368 278.227 197.436 278.259C197.504 278.29 197.564 278.336 197.612 278.393C197.66 278.451 197.695 278.518 197.714 278.59C197.734 278.662 197.737 278.737 197.725 278.811C197.737 278.885 197.734 278.96 197.714 279.032C197.695 279.105 197.66 279.172 197.612 279.229C197.564 279.286 197.504 279.332 197.436 279.363C197.368 279.395 197.294 279.411 197.22 279.411C197.145 279.411 197.071 279.395 197.003 279.363C196.936 279.332 196.876 279.286 196.827 279.229C196.779 279.172 196.744 279.105 196.725 279.032C196.705 278.96 196.702 278.885 196.715 278.811ZM196.715 284.208C196.702 284.134 196.705 284.059 196.725 283.987C196.744 283.915 196.779 283.848 196.827 283.79C196.876 283.733 196.936 283.687 197.003 283.656C197.071 283.624 197.145 283.608 197.22 283.608C197.294 283.608 197.368 283.624 197.436 283.656C197.504 283.687 197.564 283.733 197.612 283.79C197.66 283.848 197.695 283.915 197.714 283.987C197.734 284.059 197.737 284.134 197.725 284.208C197.737 284.282 197.734 284.357 197.714 284.429C197.695 284.501 197.66 284.568 197.612 284.626C197.564 284.683 197.504 284.729 197.436 284.76C197.368 284.792 197.294 284.808 197.22 284.808C197.145 284.808 197.071 284.792 197.003 284.76C196.936 284.729 196.876 284.683 196.827 284.626C196.779 284.568 196.744 284.501 196.725 284.429C196.705 284.357 196.702 284.282 196.715 284.208Z" fill="white"/>
<path d="M199.156 280.438C199.156 277.785 200.528 276.127 202.488 276.127C204.448 276.127 205.805 277.785 205.805 280.438C205.805 283.092 204.433 284.735 202.488 284.735C200.543 284.735 199.156 283.092 199.156 280.438ZM205.186 280.438C205.186 278.072 204.086 276.7 202.488 276.7C200.89 276.7 199.774 278.072 199.774 280.438C199.774 282.805 200.89 284.162 202.488 284.162C204.086 284.162 205.186 282.851 205.186 280.438Z" fill="white"/>
<path d="M214.233 282.323H212.439V284.675H211.79V282.323H206.951V281.871L211.564 276.188H212.258L207.735 281.781H211.79V279.7H212.378V281.781H214.172L214.233 282.323Z" fill="white"/>
<path d="M158.942 269.512H150.211C148.527 269.512 147.162 270.877 147.162 272.561V281.291C147.162 282.975 148.527 284.341 150.211 284.341H158.942C160.626 284.341 161.991 282.975 161.991 281.291V272.561C161.991 270.877 160.626 269.512 158.942 269.512Z" fill="#FAFAFA"/>
<path d="M247.086 283.326H238.863C238.01 283.324 237.191 282.984 236.588 282.38C235.984 281.777 235.644 280.958 235.643 280.105V271.882C235.644 271.029 235.985 270.211 236.588 269.609C237.192 269.006 238.01 268.668 238.863 268.668H247.086C247.939 268.668 248.757 269.006 249.361 269.609C249.965 270.211 250.305 271.029 250.307 271.882V280.105C250.305 280.958 249.965 281.777 249.362 282.38C248.758 282.984 247.94 283.324 247.086 283.326ZM238.863 269.004C238.101 269.004 237.37 269.306 236.831 269.844C236.291 270.383 235.987 271.113 235.985 271.875V280.098C235.987 280.861 236.291 281.592 236.83 282.131C237.37 282.67 238.101 282.974 238.863 282.976H247.086C247.85 282.976 248.582 282.673 249.121 282.133C249.661 281.593 249.964 280.861 249.964 280.098V271.875C249.963 271.113 249.659 270.383 249.119 269.844C248.579 269.306 247.848 269.004 247.086 269.004H238.863Z" fill="white"/>
<path d="M157.277 274.514H151.871C151.689 274.514 151.515 274.586 151.386 274.714C151.258 274.843 151.186 275.017 151.186 275.199V278.776C151.186 278.958 151.258 279.132 151.386 279.26C151.515 279.389 151.689 279.461 151.871 279.461H152.33V281.037L154.153 279.461H157.277C157.459 279.461 157.633 279.389 157.762 279.26C157.891 279.132 157.963 278.958 157.963 278.776V275.219C157.965 275.128 157.95 275.036 157.917 274.951C157.883 274.865 157.833 274.787 157.769 274.722C157.706 274.656 157.629 274.603 157.545 274.568C157.46 274.532 157.369 274.514 157.277 274.514ZM152.858 277.666C152.751 277.667 152.647 277.637 152.558 277.579C152.469 277.52 152.4 277.437 152.358 277.339C152.317 277.241 152.306 277.133 152.326 277.029C152.347 276.924 152.398 276.829 152.473 276.753C152.548 276.678 152.644 276.627 152.748 276.607C152.852 276.586 152.961 276.598 153.058 276.639C153.156 276.68 153.24 276.75 153.298 276.839C153.356 276.928 153.387 277.032 153.385 277.138C153.385 277.278 153.33 277.412 153.231 277.511C153.132 277.61 152.998 277.666 152.858 277.666ZM154.502 277.666C154.396 277.666 154.293 277.634 154.205 277.575C154.116 277.516 154.048 277.432 154.008 277.334C153.967 277.236 153.957 277.128 153.979 277.025C154 276.921 154.051 276.825 154.127 276.751C154.202 276.676 154.298 276.626 154.402 276.606C154.506 276.586 154.614 276.598 154.712 276.64C154.809 276.681 154.892 276.751 154.95 276.839C155.008 276.928 155.038 277.032 155.037 277.138C155.035 277.279 154.978 277.413 154.878 277.512C154.778 277.61 154.643 277.666 154.502 277.666ZM156.263 277.666C156.157 277.666 156.054 277.634 155.966 277.575C155.878 277.516 155.809 277.432 155.769 277.334C155.729 277.236 155.718 277.128 155.74 277.025C155.761 276.921 155.812 276.825 155.888 276.751C155.963 276.676 156.059 276.626 156.163 276.606C156.267 276.586 156.375 276.598 156.473 276.64C156.57 276.681 156.653 276.751 156.711 276.839C156.769 276.928 156.799 277.032 156.798 277.138C156.796 277.279 156.739 277.413 156.639 277.512C156.539 277.61 156.404 277.666 156.263 277.666Z" fill="#3C8AFF"/>
<path d="M241.09 277.891C241.048 277.89 241.008 277.873 240.978 277.844C240.948 277.815 240.929 277.776 240.926 277.734C240.515 274.308 243.064 273.232 243.091 273.225C243.132 273.209 243.178 273.209 243.219 273.225C243.259 273.242 243.292 273.274 243.31 273.314C243.32 273.335 243.326 273.357 243.327 273.38C243.328 273.403 243.324 273.425 243.316 273.447C243.307 273.468 243.295 273.487 243.278 273.503C243.262 273.519 243.243 273.532 243.221 273.54C243.125 273.581 240.885 274.547 241.261 277.7C241.264 277.722 241.263 277.744 241.257 277.766C241.25 277.787 241.24 277.807 241.226 277.825C241.212 277.842 241.194 277.856 241.175 277.866C241.155 277.877 241.133 277.883 241.111 277.885L241.09 277.891Z" fill="white"/>
<path d="M241.091 277.892C241.041 277.889 240.994 277.867 240.96 277.83L239.884 276.563C239.868 276.547 239.855 276.527 239.846 276.506C239.837 276.485 239.832 276.462 239.832 276.439C239.832 276.416 239.837 276.393 239.846 276.372C239.855 276.351 239.868 276.332 239.884 276.316C239.917 276.286 239.96 276.27 240.004 276.27C240.049 276.27 240.091 276.286 240.124 276.316L241.063 277.426L241.892 276.323C241.908 276.306 241.926 276.293 241.947 276.284C241.967 276.275 241.99 276.271 242.012 276.271C242.035 276.271 242.057 276.275 242.078 276.284C242.098 276.293 242.117 276.306 242.132 276.323C242.15 276.336 242.165 276.353 242.177 276.373C242.188 276.392 242.196 276.413 242.199 276.436C242.202 276.458 242.201 276.481 242.195 276.502C242.19 276.524 242.18 276.545 242.166 276.563L241.207 277.83C241.191 277.85 241.172 277.867 241.149 277.879C241.127 277.89 241.102 277.897 241.077 277.899L241.091 277.892Z" fill="white"/>
<path d="M242.789 278.782C242.755 278.782 242.721 278.771 242.693 278.751C242.665 278.732 242.643 278.704 242.631 278.672C242.615 278.631 242.615 278.586 242.632 278.545C242.648 278.504 242.68 278.471 242.72 278.453C242.816 278.412 245.057 277.439 244.68 274.294C244.677 274.271 244.679 274.248 244.685 274.226C244.691 274.205 244.701 274.184 244.715 274.166C244.729 274.148 244.747 274.133 244.767 274.122C244.786 274.111 244.808 274.104 244.831 274.102C244.876 274.099 244.92 274.113 244.955 274.141C244.99 274.169 245.014 274.208 245.023 274.253C245.427 277.679 242.878 278.755 242.85 278.768L242.789 278.782Z" fill="white"/>
<path d="M243.914 275.712C243.876 275.713 243.84 275.701 243.811 275.678C243.774 275.65 243.75 275.61 243.744 275.565C243.737 275.52 243.749 275.474 243.776 275.438L244.736 274.17C244.751 274.149 244.77 274.132 244.793 274.12C244.815 274.109 244.84 274.102 244.866 274.102C244.916 274.104 244.962 274.127 244.996 274.163L246.072 275.431C246.103 275.463 246.121 275.506 246.121 275.551C246.121 275.596 246.103 275.639 246.072 275.671C246.039 275.703 245.995 275.72 245.949 275.72C245.903 275.72 245.859 275.703 245.825 275.671L244.887 274.561L244.057 275.657C244.04 275.678 244.018 275.694 243.993 275.703C243.967 275.713 243.94 275.716 243.914 275.712Z" fill="white"/>
<path d="M154.466 72.2129C160.037 72.2129 164.553 67.6968 164.553 62.126C164.553 56.5551 160.037 52.0391 154.466 52.0391C148.895 52.0391 144.379 56.5551 144.379 62.126C144.379 67.6968 148.895 72.2129 154.466 72.2129Z" fill="#EBEBEB"/>
<path d="M153.924 65.0724C153.878 65.0703 153.834 65.0507 153.801 65.0176L151.169 62.2765C151.14 62.2437 151.123 62.201 151.123 62.1566C151.123 62.1123 151.14 62.0695 151.169 62.0367L153.801 59.2957C153.834 59.2639 153.878 59.2461 153.924 59.2461C153.97 59.2461 154.014 59.2639 154.048 59.2957C154.064 59.3117 154.077 59.3308 154.086 59.352C154.095 59.3732 154.1 59.396 154.1 59.419C154.1 59.4421 154.095 59.4649 154.086 59.4861C154.077 59.5072 154.064 59.5264 154.048 59.5424L151.533 62.1875L154.048 64.8394C154.064 64.8554 154.077 64.8745 154.086 64.8957C154.095 64.9169 154.1 64.9397 154.1 64.9627C154.1 64.9858 154.095 65.0086 154.086 65.0297C154.077 65.0509 154.064 65.0701 154.048 65.0861C154.006 65.0948 153.963 65.09 153.924 65.0724Z" fill="#263238"/>
<path d="M158.496 62.2977H151.294C151.249 62.2977 151.205 62.2797 151.173 62.2475C151.141 62.2154 151.123 62.1718 151.123 62.1264C151.125 62.0815 151.143 62.0389 151.175 62.0071C151.207 61.9754 151.249 61.9568 151.294 61.9551H158.496C158.542 61.9551 158.585 61.9731 158.618 62.0053C158.65 62.0374 158.668 62.081 158.668 62.1264C158.668 62.1718 158.65 62.2154 158.618 62.2475C158.585 62.2797 158.542 62.2977 158.496 62.2977Z" fill="#263238"/>
<path d="M246.304 230.052C250.977 230.814 254.147 235.22 253.385 239.893C252.623 244.566 248.218 247.736 243.545 246.974C238.872 246.212 235.701 241.807 236.463 237.134C237.225 232.461 241.631 229.29 246.304 230.052Z" fill="#A74FFE" stroke="#F5F5F5"/>
<path d="M244.913 240.532C244.48 240.532 244.064 240.361 243.757 240.055C243.451 239.749 243.277 239.334 243.275 238.901V235.331C243.275 234.897 243.448 234.48 243.755 234.173C244.062 233.866 244.479 233.693 244.913 233.693C245.347 233.693 245.764 233.866 246.071 234.173C246.378 234.48 246.551 234.897 246.551 235.331V238.901C246.549 239.334 246.376 239.749 246.069 240.055C245.762 240.361 245.346 240.532 244.913 240.532ZM244.913 234.043C244.571 234.043 244.242 234.178 244 234.42C243.757 234.661 243.62 234.989 243.618 235.331V238.901C243.618 239.245 243.754 239.574 243.997 239.817C244.24 240.06 244.57 240.196 244.913 240.196C245.257 240.196 245.586 240.06 245.829 239.817C246.072 239.574 246.208 239.245 246.208 238.901V235.331C246.208 234.988 246.072 234.658 245.829 234.415C245.586 234.172 245.257 234.036 244.913 234.036V234.043Z" fill="white"/>
<path d="M244.914 241.682C244.488 241.706 244.062 241.637 243.666 241.479C243.27 241.322 242.912 241.08 242.619 240.771C241.96 239.903 241.65 238.82 241.748 237.735C241.753 237.69 241.775 237.648 241.811 237.619C241.846 237.59 241.891 237.576 241.937 237.581C241.982 237.585 242.024 237.608 242.053 237.643C242.082 237.679 242.095 237.724 242.091 237.769C242.008 238.758 242.285 239.744 242.872 240.545C243.137 240.818 243.458 241.031 243.813 241.168C244.167 241.306 244.548 241.364 244.928 241.34C245.307 241.357 245.685 241.295 246.039 241.158C246.393 241.021 246.715 240.812 246.984 240.545C247.619 239.757 247.952 238.768 247.922 237.756C247.922 237.711 247.939 237.669 247.97 237.637C248.001 237.605 248.043 237.586 248.087 237.584C248.109 237.583 248.132 237.587 248.153 237.595C248.174 237.603 248.194 237.614 248.21 237.63C248.227 237.645 248.24 237.663 248.249 237.684C248.259 237.704 248.264 237.726 248.265 237.749C248.302 238.853 247.934 239.933 247.23 240.785C246.928 241.087 246.566 241.323 246.167 241.477C245.768 241.632 245.341 241.702 244.914 241.682Z" fill="white"/>
<path d="M244.914 244.19C244.868 244.19 244.825 244.172 244.792 244.14C244.76 244.108 244.742 244.065 244.742 244.019V241.511C244.742 241.466 244.76 241.422 244.792 241.39C244.825 241.358 244.868 241.34 244.914 241.34C244.959 241.34 245.003 241.358 245.035 241.39C245.067 241.422 245.085 241.466 245.085 241.511V244.019C245.085 244.065 245.067 244.108 245.035 244.14C245.003 244.172 244.959 244.19 244.914 244.19Z" fill="white"/>
<path d="M199.687 266.394C208.497 266.394 215.64 259.251 215.64 250.441C215.64 241.631 208.497 234.488 199.687 234.488C190.877 234.488 183.734 241.631 183.734 250.441C183.734 259.251 190.877 266.394 199.687 266.394Z" fill="#2C68BF"/>
<path d="M198.268 246.028C197.955 245.779 197.591 245.602 197.202 245.509C196.813 245.416 196.409 245.409 196.017 245.489C195.626 245.568 195.256 245.733 194.934 245.97C194.613 246.208 194.347 246.513 194.156 246.864C193.973 247.198 193.911 247.585 193.981 247.96C194.051 248.335 194.249 248.674 194.54 248.92C196.006 250.359 199.083 253.244 200.419 254.498C200.78 254.841 201.214 255.1 201.689 255.253C202.163 255.406 202.666 255.45 203.16 255.382C203.548 255.325 203.919 255.19 204.252 254.984C204.584 254.777 204.871 254.504 205.093 254.182C206.607 252.127 202.989 250.496 202.989 250.496L201.406 252.154L197.719 248.598L199.337 246.816L198.268 246.028Z" fill="white"/>
</svg>
