<svg width="10" height="10" viewBox="0 0 10 10" fill="none" xmlns="http://www.w3.org/2000/svg">
<path d="M5.30009 9.34944C6.53171 9.34944 7.71289 8.86018 8.58377 7.98929C9.45466 7.1184 9.94392 5.93722 9.94392 4.7056C9.94392 3.47398 9.45466 2.2928 8.58377 1.42192C7.71289 0.551027 6.53171 0.0617676 5.30009 0.0617676C4.06846 0.0617676 2.88729 0.551027 2.0164 1.42192C1.14551 2.2928 0.65625 3.47398 0.65625 4.7056C0.65625 5.93722 1.14551 7.1184 2.0164 7.98929C2.88729 8.86018 4.06846 9.34944 5.30009 9.34944V9.34944ZM4.71961 3.83488C4.71961 4.31552 4.45955 4.7056 4.13913 4.7056C3.8187 4.7056 3.55865 4.31552 3.55865 3.83488C3.55865 3.35425 3.8187 2.96416 4.13913 2.96416C4.45955 2.96416 4.71961 3.35425 4.71961 3.83488ZM3.1436 5.61521C3.21027 5.57673 3.28949 5.5663 3.36384 5.58622C3.43819 5.60614 3.50158 5.65478 3.54007 5.72144C3.71834 6.03045 3.97488 6.28704 4.28386 6.46538C4.59283 6.64371 4.94334 6.73749 5.30009 6.73728C5.65683 6.73749 6.00734 6.64371 6.31631 6.46538C6.62529 6.28704 6.88183 6.03045 7.0601 5.72144C7.07902 5.68817 7.10433 5.65896 7.13458 5.63551C7.16483 5.61206 7.19942 5.59482 7.23636 5.58479C7.2733 5.57477 7.31186 5.57214 7.34982 5.57708C7.38778 5.58201 7.42438 5.5944 7.45753 5.61354C7.49068 5.63268 7.51972 5.65819 7.54297 5.68859C7.56622 5.719 7.58322 5.7537 7.59301 5.79071C7.60279 5.82771 7.60516 5.86629 7.59997 5.90421C7.59479 5.94214 7.58215 5.97866 7.56279 6.01168C7.33358 6.40893 7.00376 6.7388 6.60655 6.96808C6.20933 7.19736 5.75873 7.31797 5.30009 7.31776C4.84145 7.31797 4.39084 7.19736 3.99363 6.96808C3.59641 6.7388 3.26659 6.40893 3.03738 6.01168C2.99889 5.94502 2.98846 5.8658 3.00838 5.79145C3.0283 5.7171 3.07694 5.6537 3.1436 5.61521ZM6.46104 4.7056C6.14062 4.7056 5.88056 4.31552 5.88056 3.83488C5.88056 3.35425 6.14062 2.96416 6.46104 2.96416C6.78147 2.96416 7.04152 3.35425 7.04152 3.83488C7.04152 4.31552 6.78147 4.7056 6.46104 4.7056Z" fill="white"/>
</svg>
