<svg width="36" height="47" viewBox="0 0 36 47" fill="none" xmlns="http://www.w3.org/2000/svg">
<path d="M10.5365 0.175782C9.16266 0.175782 7.95697 1.08059 7.5773 2.39457L1.05613 25.0839C0.925061 25.5395 0.902239 26.0193 0.989465 26.4852C1.07669 26.9512 1.27158 27.3906 1.55877 27.7689C1.84596 28.1472 2.2176 28.454 2.6444 28.6651C3.0712 28.8762 3.54148 28.9859 4.01819 28.9855H7.69033L4.29932 42.4711C3.53417 45.5111 7.31645 47.5916 9.50466 45.3382L34.6503 19.8135L34.6619 19.802C36.5168 17.88 35.1836 14.5835 32.4389 14.5835H25.0076L28.6653 4.22723L28.6711 4.20418C28.8254 3.74403 28.8676 3.25398 28.794 2.77446C28.7204 2.29493 28.5332 1.83967 28.2479 1.44621C27.9625 1.05275 27.5872 0.732364 27.1528 0.511477C26.7185 0.29059 26.2375 0.175529 25.7496 0.175782H10.5365Z" fill="#FDFDFD"/>
</svg>
