<svg width="132" height="163" viewBox="0 0 132 163" fill="none" xmlns="http://www.w3.org/2000/svg">
<path d="M75.707 122.359V46.3374H74.5891V122.359H75.707Z" fill="#E6E6E6"/>
<path d="M109.752 46.3374H74.5859V47.6171H109.752V46.3374Z" fill="#E6E6E6"/>
<path d="M106.114 199.557H12.9555C11.2324 199.572 9.52474 199.264 7.93983 198.652C6.35492 198.041 4.92708 197.139 3.74611 196.005C2.56514 194.87 1.65658 193.527 1.07762 192.059C0.498661 190.591 0.261809 189.031 0.381963 187.477L11.7031 12.3784C11.9613 9.12835 13.5584 6.0841 16.1786 3.84731C18.7988 1.61052 22.2515 0.343931 25.8544 0.297845H119.034C120.757 0.283458 122.465 0.591665 124.05 1.20308C125.635 1.8145 127.062 2.7159 128.243 3.85058C129.424 4.98526 130.333 6.32867 130.912 7.79629C131.491 9.26392 131.728 10.824 131.608 12.3784L120.251 187.477C119.993 190.725 118.398 193.767 115.781 196.004C113.164 198.24 109.714 199.508 106.114 199.557Z" fill="#3C8AFF"/>
<path opacity="0.3" d="M106.114 199.557H12.9555C11.2324 199.572 9.52474 199.264 7.93983 198.652C6.35492 198.041 4.92708 197.139 3.74611 196.005C2.56514 194.87 1.65658 193.527 1.07762 192.059C0.498661 190.591 0.261809 189.031 0.381963 187.477L11.7031 12.3784C11.9613 9.12835 13.5584 6.0841 16.1786 3.84731C18.7988 1.61052 22.2515 0.343931 25.8544 0.297845H119.034C120.757 0.283458 122.465 0.591665 124.05 1.20308C125.635 1.8145 127.062 2.7159 128.243 3.85058C129.424 4.98526 130.333 6.32867 130.912 7.79629C131.491 9.26392 131.728 10.824 131.608 12.3784L120.251 187.477C119.993 190.725 118.398 193.767 115.781 196.004C113.164 198.24 109.714 199.508 106.114 199.557Z" fill="white"/>
<path d="M105.56 196.051H14.9915C13.7809 196.062 12.581 195.846 11.4673 195.416C10.3535 194.987 9.35004 194.354 8.51995 193.557C7.68987 192.76 7.05115 191.817 6.64396 190.786C6.23678 189.755 6.06995 188.659 6.15397 187.566L17.4751 13.2296C17.6565 10.9516 18.7735 8.81735 20.6065 7.24621C22.4395 5.67506 24.8559 4.7806 27.381 4.73859H117.95C119.161 4.7289 120.361 4.94581 121.474 5.37569C122.588 5.80558 123.592 6.43914 124.422 7.23657C125.252 8.03399 125.89 8.97805 126.297 10.0094C126.704 11.0408 126.871 12.1371 126.787 13.2296L115.466 187.566C115.285 189.844 114.167 191.977 112.334 193.547C110.501 195.118 108.085 196.011 105.56 196.051Z" fill="#3C8AFF"/>
<path d="M104.588 195.116H14.0188C12.8079 195.126 11.6079 194.909 10.4941 194.479C9.38033 194.049 8.37693 193.416 7.54695 192.619C6.71698 191.821 6.07837 190.877 5.67125 189.846C5.26414 188.814 5.09732 187.718 5.18129 186.626L16.5024 12.2886C16.6839 10.0107 17.8008 7.87644 19.6338 6.30529C21.4668 4.73414 23.8832 3.83968 26.4083 3.79767H116.977C118.188 3.78798 119.388 4.00489 120.502 4.43477C121.616 4.86466 122.619 5.49822 123.449 6.29565C124.279 7.09308 124.918 8.03713 125.325 9.06848C125.732 10.0998 125.899 11.1962 125.815 12.2886L114.494 186.626C114.312 188.903 113.195 191.038 111.362 192.609C109.529 194.18 107.113 195.074 104.588 195.116Z" fill="white"/>
<path opacity="0.1" d="M101.938 188.635H17.4754C16.7271 188.641 15.9854 188.507 15.2971 188.241C14.6088 187.976 13.9886 187.584 13.4756 187.091C12.9626 186.599 12.5679 186.015 12.3162 185.378C12.0645 184.74 11.9612 184.063 12.013 183.388L16.7678 110.667C16.8793 109.256 17.5721 107.934 18.7093 106.963C19.8465 105.991 21.3453 105.441 22.9095 105.421H107.337C108.085 105.415 108.827 105.549 109.515 105.814C110.203 106.08 110.823 106.471 111.336 106.964C111.849 107.457 112.244 108.04 112.496 108.677C112.748 109.315 112.851 109.992 112.799 110.667L108.08 183.388C107.968 184.799 107.275 186.121 106.138 187.092C105.001 188.064 103.502 188.614 101.938 188.635Z" fill="#3C8AFF"/>
<path opacity="0.1" d="M83.1793 16.7297H58.563C58.2955 16.732 58.0304 16.6843 57.7843 16.5894C57.5382 16.4946 57.3164 16.3548 57.133 16.1787C56.9495 16.0026 56.8084 15.7941 56.7184 15.5662C56.6285 15.3384 56.5916 15.0962 56.6101 14.8549C56.6491 14.3489 56.897 13.8746 57.3046 13.5261C57.7123 13.1777 58.2498 12.9805 58.8107 12.9737H83.4199C83.6904 12.9677 83.9593 13.0129 84.2093 13.1065C84.4593 13.2001 84.6849 13.3401 84.8715 13.5172C85.0581 13.6944 85.2016 13.905 85.2928 14.1354C85.3841 14.3657 85.4209 14.6108 85.4011 14.8549C85.3617 15.3636 85.1106 15.8399 84.6983 16.1877C84.286 16.5356 83.7432 16.7293 83.1793 16.7297Z" fill="#3C8AFF"/>
<path opacity="0.1" d="M92.9739 86.9148C108.132 73.6032 109.167 52.3327 95.2854 39.4058C81.4037 26.4789 57.8623 26.7908 42.7041 40.1023C27.5459 53.4139 26.5111 74.6844 40.3927 87.6113C54.2743 100.538 77.8157 100.226 92.9739 86.9148Z" fill="#3C8AFF"/>
<path d="M41.8169 85.7643C38.7196 82.7824 36.3371 79.2539 34.8188 75.4001C33.3004 71.5463 32.679 67.4503 32.9935 63.3691H33.7011C33.3945 67.3626 34.003 71.3704 35.4884 75.1414C36.9738 78.9124 39.3041 82.3655 42.3334 85.2844L41.8169 85.7643Z" fill="#3C8AFF"/>
<path d="M102.681 63.6441L101.973 63.6057C102.166 60.787 101.928 57.9577 101.266 55.1979L101.973 55.0571C102.65 57.8757 102.888 60.7659 102.681 63.6441Z" fill="#3C8AFF"/>
<path d="M99.2142 49.6314C97.4824 46.157 95.0053 43.0281 91.9262 40.4261C88.8472 37.824 85.2276 35.8006 81.2773 34.4731L81.525 33.8716C85.5656 35.2264 89.2676 37.2949 92.4151 39.9568C95.5627 42.6186 98.0928 45.8203 99.8581 49.3754L99.2142 49.6314Z" fill="#3C8AFF"/>
<path d="M89.7404 83.9039C102.95 72.3033 103.853 53.7681 91.7577 42.5043C79.662 31.2405 59.1478 31.5135 45.938 43.114C32.7282 54.7146 31.825 73.2498 43.9207 84.5136C56.0165 95.7774 76.5306 95.5044 89.7404 83.9039Z" fill="#3C8AFF"/>
<path d="M64.2381 67.4833C65.7947 67.1698 66.5235 65.9669 66.8561 64.5976C66.8915 64.4504 66.9198 64.3096 66.9481 64.1689V64.0409C67.0329 63.4702 67.0801 62.8954 67.0896 62.3196C65.5826 62.1848 64.183 61.5534 63.1575 60.5457C62.1319 59.5381 61.552 58.2245 61.5281 56.8552C61.45 54.1399 62.1161 51.4494 63.4668 49.0233C63.119 49.0645 62.7895 49.1881 62.5116 49.3816C62.4847 49.4002 62.4537 49.4132 62.4207 49.4198C62.3878 49.4264 62.3536 49.4265 62.3206 49.42C62.2592 49.4104 62.2038 49.3809 62.1649 49.3368C62.1273 49.2888 62.1114 49.2295 62.1206 49.1712C62.1299 49.1128 62.1634 49.0599 62.2144 49.0233C62.6544 48.7226 63.1913 48.5607 63.7428 48.5626C63.8489 48.409 63.948 48.2491 64.0541 48.1019C63.6013 48.1019 63.1626 48.1019 62.738 48.1019C63.205 45.1458 69.4953 42.6631 73.7832 44.9026C75.6936 45.2481 78.8494 47.718 78.8494 47.718C78.9126 49.2912 78.863 50.8664 78.7008 52.4338C78.4177 55.1084 77.7173 58.2501 76.012 60.0033C76.4362 59.1065 76.5924 58.1246 76.4649 57.156C76.0561 57.5215 75.5487 57.7839 74.9931 57.9174C74.7915 58.3095 74.5548 58.6862 74.2856 59.0436C73.6204 61.7886 73.1464 65.4422 74.1582 67.5473C75.0709 67.5985 75.9554 67.6753 76.7974 67.7585L77.0026 67.7905C77.5582 67.4953 78.0923 67.1683 78.6017 66.8115C84.9698 62.3324 78.2125 57.0728 79.8046 52.2546C81.3966 47.4365 80.0522 45.6065 75.7007 45.4529C77.505 42.8486 66.0424 38.6895 61.0045 46.771C56.4407 54.0974 54.9689 57.7574 56.6105 63.4842C57.2275 65.3559 58.6257 66.937 60.5092 67.8929C60.8299 67.8135 61.1561 67.7537 61.4856 67.7137C62.3843 67.6369 63.3182 67.5473 64.2381 67.4833Z" fill="#263238"/>
<path d="M54.3407 78.7451C54.0811 78.3296 53.8449 77.9025 53.6332 77.4653C53.152 78.7451 52.678 80.0248 52.218 81.3045C51.7794 82.4563 51.3619 83.608 50.9232 84.7086L50.2651 86.2634L49.9821 86.9033C49.8831 87.0761 49.9821 86.9737 49.9821 87.0249C49.6805 87.3426 49.3464 87.6339 48.9845 87.8951C48.9066 87.9655 48.8076 88.0295 48.7227 88.0934C50.6805 89.2876 52.787 90.2691 54.9988 91.0176C55.0483 88.0934 55.4446 85.0541 55.8691 84.2415C53.3219 82.6418 53.7039 80.9206 54.3407 78.7451Z" fill="#FFC3BD"/>
<path d="M56.8175 70.1133L56.6406 70.3372C56.6972 70.2605 56.7609 70.1901 56.8246 70.1197L56.8175 70.1133Z" fill="#263238"/>
<path d="M55.1812 74.4005C55.1708 72.992 55.6429 71.6151 56.5326 70.459C55.176 72.3889 54.0607 74.4491 53.207 76.6017C53.207 76.6017 53.3344 76.9408 53.6033 77.4719C53.815 77.909 54.0511 78.3362 54.3108 78.7516C54.8154 77.3431 55.1081 75.8796 55.1812 74.4005Z" fill="#263238"/>
<path d="M79.849 83.6847C79.0103 82.5701 78.2652 81.4001 77.6202 80.1847C77.4079 80.287 77.1886 80.3894 76.9621 80.479C74.8394 78.4506 73.0281 76.8126 73.0281 76.8126C70.3818 71.8217 72.0162 68.9807 77.0329 67.8225C77.8114 67.9674 78.5545 68.2384 79.2263 68.6224C78.5648 68.2016 77.8042 67.9257 77.0046 67.8161L76.7994 67.7841C75.9574 67.701 75.0729 67.6242 74.1602 67.573C74.3583 68.0401 69.8157 73.9716 66.9642 74.9122C65.7967 72.2504 62.5207 72.0712 62.5207 72.0712C62.5207 72.0712 59.464 71.5017 58.5158 73.2422C59.1385 69.6461 62.9664 67.7521 64.2401 67.4834C63.3202 67.5538 62.3862 67.6434 61.4876 67.7457C61.1581 67.7857 60.8319 67.8456 60.5112 67.9249C59.0551 68.2861 57.764 69.057 56.8247 70.126C56.7611 70.1964 56.6974 70.2668 56.6408 70.3436L56.5347 70.4652C55.6449 71.6213 55.1728 72.9982 55.1832 74.4067C55.1187 75.8825 54.8355 77.3437 54.3412 78.7514C53.7044 80.9013 53.3223 82.6481 55.82 84.2478C55.3955 85.0604 54.9992 88.087 54.9497 91.0239C58.4661 92.2028 62.188 92.801 65.9382 92.79C70.7402 92.7834 75.4844 91.8429 79.849 90.0321C79.7274 87.6504 79.7487 85.2645 79.9127 82.8849C79.8915 83.1408 79.8632 83.4224 79.849 83.6847Z" fill="#263238"/>
<path d="M62.5195 72.071C62.5195 72.071 65.7956 72.2501 66.9631 74.912C69.7933 73.9394 74.3571 68.0399 74.159 67.5728C74.159 67.5728 67.7131 70.4009 62.5195 72.071Z" fill="white"/>
<path d="M64.2555 67.4834C62.9819 67.7585 59.1539 69.6525 58.5312 73.2422C59.4794 71.5017 62.5361 72.0712 62.5361 72.0712C61.5455 68.7055 64.2555 67.4834 64.2555 67.4834Z" fill="white"/>
<path d="M74.2855 59.0693C73.6704 59.8761 72.8926 60.5708 71.9929 61.1169C71.6145 61.3631 71.2119 61.5773 70.7901 61.7568C69.8631 63.1021 68.4809 64.1411 66.8489 64.7193V64.6105C66.5164 65.9798 65.7875 67.17 64.2309 67.4963C64.2309 67.4963 61.5209 68.7249 62.4974 72.0905C67.698 70.4205 74.1369 67.6115 74.1369 67.6115C73.1463 65.4744 73.6203 61.8143 74.2855 59.0693Z" fill="#FFC3BD"/>
<path d="M66.8711 64.5913C66.9065 64.4441 66.9348 64.3034 66.9631 64.1626C66.9348 64.2842 66.9065 64.4441 66.8711 64.5913Z" fill="#263238"/>
<path opacity="0.2" d="M66.8711 64.5913C66.9065 64.4441 66.9348 64.3034 66.9631 64.1626C66.9348 64.2842 66.9065 64.4441 66.8711 64.5913Z" fill="black"/>
<path d="M67.1259 62.3135C67.1164 62.8892 67.0692 63.464 66.9844 64.0347C67.0724 63.4643 67.1197 62.8894 67.1259 62.3135Z" fill="#263238"/>
<path opacity="0.2" d="M67.1259 62.3135C67.1164 62.8892 67.0692 63.464 66.9844 64.0347C67.0724 63.4643 67.1197 62.8894 67.1259 62.3135Z" fill="black"/>
<path d="M70.7932 61.7246C69.6535 62.2184 68.3851 62.4176 67.128 62.3005C67.1218 62.8764 67.0746 63.4513 66.9865 64.0217V64.1497C66.9865 64.2905 66.9299 64.4312 66.8945 64.5784V64.6872C68.5109 64.1019 69.8773 63.0636 70.7932 61.7246Z" fill="#FFC3BD"/>
<path opacity="0.2" d="M70.7932 61.7246C69.6535 62.2184 68.3851 62.4176 67.128 62.3005C67.1218 62.8764 67.0746 63.4513 66.9865 64.0217V64.1497C66.9865 64.2905 66.9299 64.4312 66.8945 64.5784V64.6872C68.5109 64.1019 69.8773 63.0636 70.7932 61.7246Z" fill="black"/>
<path d="M70.7905 61.7248C71.2123 61.5454 71.615 61.3312 71.9934 61.085C72.8931 60.5389 73.6709 59.8442 74.2859 59.0374C74.5552 58.68 74.7918 58.3034 74.9935 57.9113C74.859 57.9113 74.7246 57.9752 74.5972 57.988C73.4156 58.084 73.083 56.8811 73.6208 55.8061C73.8028 55.4426 74.0411 55.1044 74.3284 54.8015C74.0196 53.888 74.0952 52.9035 74.5406 52.0373C73.4651 50.041 72.3259 48.1982 72.2198 46.8608C69.5723 47.6009 66.8247 48.0078 64.0545 48.0702C63.9483 48.2173 63.8493 48.3773 63.7432 48.5309C63.983 48.53 64.2217 48.5624 64.4507 48.6269C64.4806 48.6368 64.5079 48.652 64.5312 48.6716C64.5545 48.6912 64.5733 48.7147 64.5864 48.7409C64.5996 48.7671 64.6069 48.7954 64.6079 48.8241C64.6089 48.8529 64.6035 48.8815 64.5922 48.9084C64.5698 48.963 64.5248 49.0076 64.4667 49.0327C64.4086 49.0578 64.3419 49.0614 64.2809 49.0428C64.0266 48.973 63.7582 48.9555 63.4955 48.9916C62.163 51.4197 61.514 54.1077 61.6063 56.8171C61.6302 58.1864 62.2101 59.4999 63.2357 60.5076C64.2612 61.5152 65.6608 62.1466 67.1678 62.2815C68.4089 62.3975 69.6614 62.205 70.7905 61.7248ZM69.2126 49.1579C69.598 49.2265 69.9592 49.3788 70.2649 49.6017C70.5706 49.8247 70.8117 50.1116 70.9674 50.4377C70.9948 50.4914 70.9984 50.5525 70.9773 50.6085C70.9562 50.6645 70.9122 50.711 70.8542 50.7384C70.7953 50.7604 70.7291 50.7604 70.6702 50.7384C70.6384 50.7305 70.609 50.716 70.5844 50.696C70.5598 50.676 70.5408 50.6511 70.5287 50.6232C70.4002 50.3648 70.2043 50.1385 69.9578 49.9635C69.7113 49.7886 69.4217 49.6702 69.1136 49.6186C69.0498 49.6092 68.9924 49.5781 68.9529 49.5318C68.9135 49.4854 68.8951 49.4273 68.9013 49.3691C68.9042 49.3363 68.9151 49.3045 68.9331 49.276C68.9511 49.2474 68.9758 49.2228 69.0055 49.2039C69.0353 49.185 69.0692 49.1722 69.105 49.1664C69.1408 49.1607 69.1775 49.1622 69.2126 49.1707V49.1579ZM68.965 52.3189C69.0831 52.3991 69.1704 52.5107 69.2148 52.6381C69.2593 52.7654 69.2585 52.9022 69.2126 53.0291C69.1348 53.4002 68.8518 53.669 68.5829 53.6114C68.314 53.5538 68.1584 53.2275 68.2362 52.8563C68.2752 52.6682 68.3823 52.4972 68.5405 52.3701C68.3199 52.2645 68.1472 52.0924 68.0522 51.8838L68.965 52.3189ZM63.1629 52.0501C63.201 51.865 63.3055 51.6963 63.4601 51.5702C63.2432 51.4594 63.0737 51.2859 62.979 51.0775L63.9059 51.5062C64.02 51.5893 64.1044 51.7011 64.1485 51.8275C64.1925 51.9539 64.1943 52.0892 64.1535 52.2165C64.0686 52.5876 63.7927 52.8563 63.5238 52.8052C63.2549 52.754 63.0851 52.434 63.1629 52.0629V52.0501ZM64.8045 55.1599C64.5421 55.1739 64.2796 55.1359 64.0351 55.0486C63.7907 54.9613 63.5703 54.8267 63.3894 54.6544C64.147 54.0336 64.8086 53.3234 65.3564 52.5428L64.8045 55.1599ZM66.1701 56.8747C66.1387 56.8671 66.1117 56.849 66.0946 56.824C66.0775 56.799 66.0716 56.7691 66.0781 56.7403C66.0849 56.7124 66.1036 56.6881 66.13 56.6725C66.1565 56.6569 66.1887 56.6514 66.2196 56.6571C66.7303 56.7566 67.2597 56.7459 67.765 56.6258C68.2702 56.5057 68.7371 56.2797 69.1277 55.9661C69.1389 55.9556 69.1522 55.9472 69.167 55.9413C69.1817 55.9355 69.1976 55.9323 69.2137 55.932C69.2298 55.9317 69.2458 55.9343 69.2608 55.9396C69.2758 55.9449 69.2895 55.9528 69.3011 55.9629C69.3127 55.973 69.322 55.985 69.3285 55.9983C69.3349 56.0117 69.3384 56.026 69.3388 56.0406C69.3391 56.0552 69.3362 56.0696 69.3304 56.0832C69.3245 56.0968 69.3158 56.1091 69.3046 56.1196C68.6468 56.6673 67.7786 56.9612 66.8847 56.9387C66.6455 56.9368 66.4067 56.9197 66.1701 56.8875V56.8747Z" fill="#FFC3BD"/>
<path d="M75.4961 54.0464C75.1989 53.4066 74.8593 52.7219 74.5126 52.082C74.0671 52.9482 73.9915 53.9327 74.3003 54.8462C74.6141 54.4891 75.0266 54.2132 75.4961 54.0464Z" fill="#263238"/>
<path d="M68.5274 52.3891C68.3692 52.5162 68.2622 52.6873 68.2232 52.8754C68.1453 53.2465 68.301 53.5856 68.5699 53.6304C68.8388 53.6752 69.1218 53.4193 69.1996 53.0481C69.2455 52.9212 69.2462 52.7844 69.2018 52.6571C69.1574 52.5297 69.0701 52.4181 68.952 52.3379C68.8923 52.3791 68.8217 52.4055 68.7472 52.4145C68.6728 52.4234 68.597 52.4147 68.5274 52.3891Z" fill="#263238"/>
<path d="M64.1762 52.2356C64.217 52.1084 64.2152 51.973 64.1711 51.8466C64.1271 51.7203 64.0427 51.6085 63.9285 51.5254C63.8672 51.566 63.7959 51.5925 63.7206 51.6026C63.6454 51.6126 63.5686 51.6059 63.4969 51.583C63.3423 51.7091 63.2378 51.8777 63.1997 52.0629C63.1219 52.434 63.2776 52.7731 63.5464 52.8243C63.8153 52.8755 64.0559 52.6068 64.1762 52.2356Z" fill="#263238"/>
<path d="M63.8918 51.5254L62.9648 51.0967C63.0596 51.3051 63.229 51.4786 63.446 51.5894C63.5202 51.6136 63.6 51.6205 63.678 51.6093C63.7559 51.5981 63.8295 51.5692 63.8918 51.5254Z" fill="#263238"/>
<path d="M63.3984 54.6863C63.5794 54.8586 63.7998 54.9932 64.0442 55.0805C64.2886 55.1678 64.5512 55.2058 64.8136 55.1917L65.3726 52.5747C64.8226 53.3557 64.1585 54.0659 63.3984 54.6863Z" fill="#ED847E"/>
<path d="M69.2931 55.9659C69.2693 55.9452 69.2376 55.9336 69.2046 55.9336C69.1716 55.9336 69.1399 55.9452 69.1162 55.9659C68.7271 56.2776 68.2626 56.5025 67.76 56.6225C67.2575 56.7425 66.7308 56.7543 66.2222 56.6569C66.1913 56.6512 66.1591 56.6568 66.1326 56.6723C66.1061 56.6879 66.0875 56.7122 66.0807 56.7401C66.0742 56.7689 66.0801 56.7989 66.0972 56.8238C66.1143 56.8488 66.1413 56.8669 66.1727 56.8745C66.4066 56.9107 66.6431 56.932 66.8803 56.9385C67.7741 56.961 68.6423 56.6671 69.3001 56.1195C69.3201 56.0976 69.3304 56.0698 69.3291 56.0415C69.3278 56.0131 69.315 55.9862 69.2931 55.9659Z" fill="#263238"/>
<path d="M75.4969 54.0464C75.0274 54.2132 74.615 54.4891 74.3011 54.8462C74.0138 55.1491 73.7756 55.4873 73.5936 55.8508C73.0558 56.9258 73.3884 58.1287 74.57 58.0327C74.6974 58.0327 74.8318 57.9815 74.9663 57.9559C75.5219 57.8225 76.0292 57.56 76.438 57.1945C76.2899 56.1103 75.9731 55.0504 75.4969 54.0464Z" fill="#FFC3BD"/>
<path d="M72.3566 45.933C72.399 45.0116 72.9792 44.7876 73.7717 44.9284C69.4838 42.6633 63.1936 45.1459 62.7266 48.1277C63.1511 48.1277 63.5898 48.1277 64.0426 48.1277C66.8129 48.0654 69.5605 47.6584 72.208 46.9184C72.1669 46.5838 72.2179 46.2453 72.3566 45.933Z" fill="#263238"/>
<path d="M72.3553 45.9329C72.2213 46.2374 72.1703 46.5666 72.2067 46.8927C72.3129 48.2492 73.452 50.092 74.5275 52.0691C74.8743 52.709 75.2351 53.3489 75.5111 54.0335C75.9872 55.0376 76.304 56.0974 76.4521 57.1816C76.5797 58.1502 76.4235 59.1322 75.9993 60.029C77.7045 58.2758 78.405 55.1341 78.6881 52.4595C78.8503 50.8921 78.8999 49.3168 78.8366 47.7437C78.8366 47.7437 75.6809 45.2738 73.7704 44.9283C72.978 44.7875 72.3978 45.0115 72.3553 45.9329Z" fill="#263238"/>
<path d="M69.1278 49.6118C69.4359 49.6634 69.7255 49.7817 69.972 49.9567C70.2185 50.1316 70.4143 50.358 70.5429 50.6164C70.5549 50.6442 70.574 50.6692 70.5986 50.6891C70.6231 50.7091 70.6525 50.7237 70.6844 50.7316C70.7433 50.7536 70.8095 50.7536 70.8684 50.7316C70.9263 50.7042 70.9704 50.6577 70.9915 50.6017C71.0126 50.5457 71.009 50.4845 70.9816 50.4309C70.8259 50.1048 70.5848 49.8179 70.2791 49.5949C69.9733 49.372 69.6122 49.2196 69.2268 49.1511C69.1622 49.1439 69.0969 49.1599 69.0453 49.1959C68.9936 49.2318 68.9597 49.2847 68.9509 49.3431C68.9376 49.3998 68.9484 49.459 68.9811 49.5088C69.0139 49.5586 69.0663 49.5954 69.1278 49.6118Z" fill="#263238"/>
<path d="M64.2406 49.0744C64.3016 49.093 64.3683 49.0894 64.4264 49.0643C64.4845 49.0392 64.5295 48.9947 64.5519 48.94C64.5632 48.9132 64.5686 48.8845 64.5676 48.8558C64.5666 48.827 64.5593 48.7988 64.5461 48.7726C64.533 48.7464 64.5142 48.7228 64.4909 48.7032C64.4676 48.6837 64.4402 48.6685 64.4104 48.6585C64.1814 48.594 63.9427 48.5617 63.7028 48.5625C63.1514 48.5606 62.6145 48.7225 62.1745 49.0232C62.1235 49.0598 62.0899 49.1128 62.0807 49.1711C62.0715 49.2294 62.0873 49.2887 62.125 49.3368C62.1639 49.3808 62.2192 49.4104 62.2806 49.4199C62.3137 49.4264 62.3478 49.4263 62.3808 49.4197C62.4138 49.4131 62.4448 49.4001 62.4717 49.3815C62.7496 49.188 63.0791 49.0644 63.4269 49.0232C63.6989 48.9832 63.9774 49.0007 64.2406 49.0744Z" fill="#263238"/>
<path d="M68.5258 52.3891C68.5954 52.4147 68.6711 52.4234 68.7456 52.4145C68.8201 52.4055 68.8906 52.3791 68.9504 52.3379L68.0234 51.9092C68.1233 52.1176 68.3012 52.2875 68.5258 52.3891Z" fill="#263238"/>
<path d="M79.8499 83.6846C79.8499 83.4223 79.8924 83.1407 79.9065 82.872C79.5103 82.3025 79.107 81.7266 78.6895 81.1571L77.8758 80.063L77.6211 80.1846C78.2661 81.4 79.0112 82.57 79.8499 83.6846Z" fill="#263238"/>
<path opacity="0.2" d="M79.8499 83.6846C79.8499 83.4223 79.8924 83.1407 79.9065 82.872C79.5103 82.3025 79.107 81.7266 78.6895 81.1571L77.8758 80.063L77.6211 80.1846C78.2661 81.4 79.0112 82.57 79.8499 83.6846Z" fill="black"/>
<path d="M81.9489 88.9825V89.0849C84.771 87.7059 87.3707 85.9835 89.6755 83.966C89.2891 82.9338 88.8354 81.9232 88.317 80.9394C87.6305 79.6014 86.8677 78.2964 86.0316 77.0299C85.324 75.9293 84.574 74.8799 83.8027 73.8306C83.0951 75.1679 81.0857 78.3864 77.8945 80.0436L78.7082 81.1378C79.1257 81.7073 79.529 82.2832 79.9252 82.8526C80.272 83.3517 80.6328 83.8572 80.9229 84.3563C81.4677 85.2201 81.9772 86.0903 82.3381 86.9157L82.2673 87.3509C82.1824 87.8819 82.0762 88.4258 81.9489 88.9825Z" fill="#FFC3BD"/>
<path d="M73.0283 76.8128C73.0283 76.8128 74.8397 78.4509 76.9624 80.4792C77.1888 80.3896 77.4081 80.2873 77.6204 80.1849L77.8751 80.0633C81.0662 78.4061 83.0616 75.1876 83.7833 73.8503C83.9885 73.4727 84.0946 73.2424 84.0946 73.2424C84.0946 73.2424 82.0427 70.171 79.2266 68.6226C78.5547 68.2386 77.8116 67.9677 77.0331 67.8228C72.0165 68.9809 70.382 71.8219 73.0283 76.8128Z" fill="#263238"/>
<path d="M106.954 12.6278H116.924C117.196 12.6237 117.457 12.5274 117.654 12.3581C117.852 12.1887 117.973 11.9585 117.992 11.7128C118.001 11.5958 117.983 11.4784 117.939 11.3679C117.895 11.2575 117.827 11.1565 117.738 11.0711C117.649 10.9858 117.541 10.9181 117.422 10.8721C117.302 10.8262 117.174 10.8031 117.044 10.8042H107.067C106.796 10.8083 106.536 10.9036 106.339 11.0717C106.141 11.2397 106.02 11.4683 105.999 11.7128C105.989 11.8309 106.006 11.9496 106.05 12.0613C106.094 12.1729 106.163 12.275 106.253 12.3612C106.343 12.4473 106.452 12.5155 106.572 12.5614C106.693 12.6073 106.823 12.63 106.954 12.6278Z" fill="#3C8AFF"/>
<path d="M106.75 15.7695H116.72C116.992 15.7653 117.253 15.6691 117.45 15.4997C117.648 15.3304 117.768 15.1002 117.788 14.8545C117.798 14.7369 117.78 14.6188 117.737 14.5076C117.694 14.3964 117.625 14.2946 117.536 14.2086C117.447 14.1225 117.339 14.0542 117.219 14.0079C117.099 13.9616 116.97 13.9383 116.84 13.9395H106.87C106.597 13.9421 106.334 14.0376 106.135 14.2071C105.936 14.3767 105.814 14.6077 105.795 14.8545C105.787 14.9722 105.806 15.09 105.85 15.2008C105.895 15.3116 105.964 15.413 106.054 15.4987C106.143 15.5844 106.251 15.6526 106.371 15.6992C106.49 15.7458 106.62 15.7697 106.75 15.7695Z" fill="#3C8AFF"/>
<path d="M26.0948 15.7695H36.0645C36.3375 15.7655 36.5991 15.6694 36.798 15.5002C36.9969 15.331 37.1188 15.1007 37.14 14.8545C37.1487 14.7366 37.1305 14.6184 37.0863 14.5071C37.0422 14.3959 36.9731 14.2942 36.8834 14.2083C36.7937 14.1224 36.6853 14.0541 36.5651 14.0079C36.4449 13.9616 36.3154 13.9383 36.1847 13.9395H26.2151C25.9423 13.9422 25.6806 14.0379 25.4825 14.2076C25.2844 14.3773 25.1645 14.6083 25.1467 14.8545C25.1379 14.9718 25.156 15.0896 25.1997 15.2003C25.2434 15.3111 25.3119 15.4125 25.4008 15.4984C25.4898 15.5842 25.5972 15.6525 25.7166 15.6992C25.836 15.7458 25.9648 15.7698 26.0948 15.7695Z" fill="#3C8AFF"/>
<path d="M106.543 18.9052H116.534C116.808 18.9026 117.07 18.8071 117.269 18.6376C117.469 18.468 117.59 18.237 117.61 17.9902C117.617 17.8725 117.598 17.7547 117.554 17.6439C117.509 17.5331 117.44 17.4317 117.351 17.346C117.261 17.2603 117.153 17.1921 117.034 17.1455C116.914 17.0989 116.785 17.075 116.654 17.0752H106.664C106.391 17.0792 106.129 17.1753 105.93 17.3445C105.731 17.5137 105.609 17.744 105.588 17.9902C105.579 18.1081 105.598 18.2263 105.642 18.3375C105.686 18.4488 105.755 18.5505 105.845 18.6364C105.934 18.7223 106.043 18.7906 106.163 18.8368C106.283 18.8831 106.413 18.9064 106.543 18.9052Z" fill="#3C8AFF"/>
<path d="M93.4414 133.703H33.1283C32.0019 133.712 30.8856 133.511 29.8494 133.111C28.8132 132.712 27.8797 132.123 27.1075 131.381C26.3353 130.64 25.7411 129.762 25.3623 128.802C24.9835 127.843 24.8283 126.823 24.9064 125.807C25.0761 123.683 26.12 121.694 27.8321 120.232C29.5441 118.771 31.8 117.942 34.1543 117.911H94.4674C95.5938 117.901 96.7102 118.103 97.7463 118.502C98.7825 118.902 99.716 119.491 100.488 120.233C101.26 120.974 101.855 121.852 102.234 122.812C102.612 123.771 102.768 124.791 102.689 125.807C102.52 127.931 101.476 129.92 99.7637 131.381C98.0516 132.843 95.7958 133.671 93.4414 133.703Z" fill="white"/>
<path d="M92.0691 154.927H31.7489C30.6225 154.934 29.5065 154.732 28.4708 154.331C27.4351 153.93 26.502 153.341 25.7301 152.599C24.9582 151.857 24.3641 150.979 23.985 150.02C23.6059 149.06 23.4499 148.041 23.527 147.024C23.7017 144.904 24.7478 142.92 26.4594 141.462C28.1709 140.004 30.4239 139.179 32.7749 139.148H93.0951C94.2214 139.138 95.3378 139.34 96.374 139.739C97.4101 140.139 98.3437 140.728 99.1159 141.469C99.8881 142.211 100.482 143.089 100.861 144.048C101.24 145.008 101.395 146.027 101.317 147.044C101.142 149.165 100.096 151.15 98.3851 152.609C96.6737 154.067 94.4207 154.894 92.0691 154.927Z" fill="white"/>
<path d="M90.6875 176.145H30.3744C29.248 176.154 28.1317 175.953 27.0955 175.553C26.0593 175.154 25.1258 174.565 24.3536 173.823C23.5813 173.081 22.9871 172.203 22.6083 171.244C22.2296 170.285 22.0743 169.265 22.1525 168.249C22.3221 166.124 23.3657 164.135 25.0776 162.672C26.7895 161.209 29.0454 160.379 31.4004 160.346H91.7135C92.8402 160.338 93.9568 160.54 94.9929 160.94C96.0291 161.34 96.9626 161.93 97.7347 162.672C98.5068 163.414 99.1009 164.293 99.4796 165.253C99.8583 166.212 100.014 167.232 99.9355 168.249C99.7658 170.373 98.7218 172.362 97.0098 173.823C95.2977 175.285 93.0419 176.113 90.6875 176.145Z" fill="white"/>
<path d="M37.8139 128.637C39.6502 127.024 39.7771 124.449 38.0973 122.885C36.4176 121.321 33.5673 121.36 31.7311 122.972C29.8948 124.585 29.7679 127.16 31.4477 128.724C33.1274 130.289 35.9777 130.249 37.8139 128.637Z" fill="#3C8AFF"/>
<path d="M34.2372 143.179L34.8316 145.208C34.8659 145.319 34.94 145.417 35.0424 145.487C35.1448 145.556 35.2697 145.593 35.3976 145.592H37.7538C37.8867 145.593 38.0155 145.633 38.1206 145.707C38.2257 145.78 38.3012 145.883 38.3357 145.999C38.3702 146.115 38.3618 146.238 38.3116 146.349C38.2615 146.461 38.1724 146.554 38.0581 146.615L36.0698 147.895C35.9568 147.963 35.8702 148.061 35.822 148.176C35.7737 148.291 35.7664 148.416 35.8009 148.535L36.3953 150.563C36.4305 150.68 36.4253 150.803 36.3804 150.917C36.3354 151.031 36.2529 151.129 36.144 151.199C36.0351 151.269 35.9051 151.307 35.7716 151.307C35.638 151.308 35.5075 151.272 35.3976 151.203L33.5721 149.923C33.4685 149.858 33.3449 149.822 33.2183 149.822C33.0917 149.822 32.9681 149.858 32.8645 149.923L30.8763 151.203C30.7721 151.278 30.6431 151.319 30.5099 151.32C30.3768 151.321 30.2472 151.281 30.142 151.207C30.0367 151.134 29.9619 151.03 29.9296 150.913C29.8972 150.796 29.9092 150.673 29.9635 150.563L30.8196 148.535C30.8722 148.425 30.8826 148.302 30.8493 148.186C30.816 148.07 30.7408 147.968 30.6357 147.895L28.8102 146.615C28.7097 146.537 28.6383 146.433 28.6057 146.317C28.5731 146.201 28.581 146.078 28.6282 145.966C28.6754 145.854 28.7596 145.758 28.8695 145.691C28.9793 145.624 29.1093 145.589 29.2418 145.592H31.598C31.7315 145.592 31.862 145.555 31.9719 145.486C32.0819 145.418 32.1662 145.321 32.2136 145.208L33.0414 143.179C33.0791 143.062 33.1577 142.959 33.2655 142.886C33.3733 142.813 33.5045 142.773 33.6393 142.773C33.7741 142.773 33.9053 142.813 34.0131 142.886C34.1209 142.959 34.1996 143.062 34.2372 143.179Z" fill="#3C8AFF"/>
<path d="M33.5108 163.815L35.8953 166.099H34.3457C34.2197 166.1 34.0948 166.078 33.9788 166.033C33.8629 165.988 33.7584 165.923 33.672 165.84C33.5856 165.757 33.5191 165.658 33.4767 165.551C33.4344 165.444 33.417 165.33 33.4258 165.216L33.5108 163.815ZM32.881 162.247L32.782 163.776L32.69 165.178C32.6777 165.382 32.7109 165.586 32.7875 165.778C32.864 165.971 32.9825 166.147 33.1357 166.297C33.2914 166.446 33.4791 166.564 33.6872 166.644C33.8953 166.725 34.1194 166.766 34.3457 166.764H37.5863L36.4259 165.645L34.0485 163.36L32.881 162.247Z" fill="white"/>
<path opacity="0.2" d="M91.4172 124.969H46.2814C46.0988 124.97 45.9178 124.937 45.7497 124.872C45.5817 124.807 45.4303 124.712 45.3048 124.592C45.1793 124.472 45.0826 124.33 45.0205 124.174C44.9585 124.019 44.9325 123.854 44.9441 123.689C44.974 123.344 45.1451 123.022 45.4238 122.785C45.7026 122.549 46.0689 122.415 46.4512 122.409H91.5799C91.7626 122.408 91.9436 122.441 92.1116 122.506C92.2796 122.57 92.4311 122.666 92.5565 122.786C92.682 122.906 92.7788 123.048 92.8408 123.203C92.9029 123.359 92.9289 123.524 92.9172 123.689C92.889 124.033 92.7194 124.355 92.4419 124.592C92.1643 124.829 91.7988 124.963 91.4172 124.969Z" fill="#3C8AFF"/>
<path opacity="0.2" d="M82.8648 129.217H46.0146C45.8317 129.218 45.6504 129.186 45.482 129.121C45.3136 129.056 45.1617 128.961 45.0357 128.841C44.9097 128.721 44.8123 128.579 44.7494 128.423C44.6865 128.268 44.6596 128.103 44.6702 127.938C44.7001 127.593 44.8712 127.271 45.15 127.034C45.4287 126.797 45.795 126.663 46.1774 126.658H83.0275C83.2108 126.656 83.3925 126.688 83.5614 126.752C83.7303 126.817 83.8826 126.912 84.0088 127.032C84.135 127.152 84.2324 127.295 84.2949 127.451C84.3574 127.606 84.3836 127.772 84.3719 127.938C84.3404 128.282 84.1689 128.603 83.8905 128.84C83.6121 129.076 83.2466 129.211 82.8648 129.217Z" fill="#3C8AFF"/>
<path opacity="0.2" d="M89.9318 147.863H77.4786C77.0958 147.867 76.7285 148 76.4494 148.237C76.1704 148.474 75.9998 148.797 75.9715 149.143C75.9598 149.307 75.9858 149.473 76.0479 149.628C76.1099 149.783 76.2067 149.926 76.3321 150.046C76.4576 150.166 76.6091 150.261 76.7771 150.326C76.9451 150.391 77.1261 150.423 77.3088 150.422H89.762C90.1448 150.418 90.512 150.285 90.7911 150.048C91.0702 149.811 91.2408 149.488 91.2691 149.143C91.2808 148.978 91.2547 148.812 91.1927 148.657C91.1306 148.502 91.0339 148.36 90.9084 148.24C90.7829 148.119 90.6315 148.024 90.4634 147.959C90.2954 147.894 90.1144 147.862 89.9318 147.863Z" fill="#3C8AFF"/>
<path opacity="0.2" d="M70.1979 147.863H44.8033C44.4205 147.867 44.0532 148 43.7742 148.237C43.4951 148.474 43.3245 148.797 43.2962 149.143C43.2834 149.308 43.3087 149.473 43.3704 149.629C43.432 149.785 43.5288 149.927 43.6544 150.048C43.7801 150.168 43.932 150.263 44.1005 150.328C44.269 150.392 44.4505 150.425 44.6335 150.422H70.0352C70.4175 150.417 70.7838 150.283 71.0626 150.046C71.3413 149.81 71.5124 149.487 71.5423 149.143C71.554 148.977 71.5278 148.811 71.4653 148.656C71.4028 148.5 71.3054 148.357 71.1792 148.237C71.053 148.117 70.9007 148.022 70.7318 147.957C70.5629 147.893 70.3812 147.861 70.1979 147.863Z" fill="#3C8AFF"/>
<path opacity="0.2" d="M81.9296 143.627H45.0723C44.6895 143.631 44.3223 143.764 44.0432 144.001C43.7641 144.238 43.5935 144.561 43.5652 144.907C43.5536 145.072 43.5796 145.237 43.6416 145.392C43.7037 145.548 43.8004 145.69 43.9259 145.81C44.0514 145.93 44.2028 146.025 44.3709 146.09C44.5389 146.155 44.7199 146.188 44.9025 146.186H81.7527C82.135 146.181 82.5013 146.047 82.7801 145.81C83.0588 145.574 83.2299 145.251 83.2598 144.907C83.2714 144.742 83.2456 144.578 83.184 144.423C83.1224 144.268 83.0262 144.126 82.9015 144.006C82.7768 143.886 82.6262 143.79 82.459 143.725C82.2918 143.66 82.1116 143.627 81.9296 143.627Z" fill="#3C8AFF"/>
<rect x="0.441926" y="0.490464" width="23.7221" height="23.7221" rx="11.8611" transform="matrix(0.999914 0.0130896 -0.0908064 0.995869 86.9821 33.4279)" fill="#2C68BF" stroke="white" stroke-width="0.972218"/>
<path d="M94.0175 47.1265L96.949 49.6316L103.197 43.4931" stroke="white" stroke-width="1.20135" stroke-linecap="round" stroke-linejoin="round"/>
</svg>
