<svg width="25" height="24" viewBox="0 0 25 24" fill="none" xmlns="http://www.w3.org/2000/svg">
<path d="M16.501 17.0566L18.5677 14.9892C18.846 14.7142 19.1982 14.5259 19.5814 14.4473C19.9646 14.3686 20.3625 14.403 20.7265 14.5461L23.2453 15.5522C23.6132 15.7016 23.9287 15.9566 24.152 16.2851C24.3753 16.6136 24.4964 17.0009 24.5 17.3981V22.013C24.4979 22.2833 24.4411 22.5502 24.3331 22.7979C24.2251 23.0456 24.0681 23.2689 23.8715 23.4543C23.675 23.6397 23.443 23.7834 23.1895 23.8767C22.936 23.9701 22.6662 24.0111 22.3965 23.9974C4.74704 22.8991 1.18579 7.94686 0.512287 2.22441C0.481022 1.9434 0.509588 1.65895 0.596104 1.38977C0.68262 1.1206 0.825125 0.872797 1.01425 0.662676C1.20337 0.452554 1.43481 0.284873 1.69337 0.170663C1.95192 0.0564526 2.23171 -0.0016975 2.51434 3.77211e-05H6.97052C7.36817 0.00121524 7.75637 0.121379 8.0852 0.345073C8.41403 0.568768 8.66845 0.885763 8.81573 1.25529L9.82136 3.77501C9.96921 4.1378 10.0069 4.53614 9.92982 4.92025C9.8527 5.30436 9.66415 5.65723 9.38774 5.93478L7.32111 8.00224C7.32111 8.00224 8.51127 16.0598 16.501 17.0566Z" fill="#3C8AFF"/>
</svg>
