<svg width="10" height="21" viewBox="0 0 10 21" fill="none" xmlns="http://www.w3.org/2000/svg">
<path d="M1.34111 3.28135C1.34111 2.41109 1.68972 1.57646 2.31024 0.961087C2.93077 0.345713 3.77238 0 4.64993 0C5.52749 0 6.3691 0.345713 6.98962 0.961087C7.61015 1.57646 7.95875 2.41109 7.95875 3.28135V13.191C8.59714 13.8372 9.02895 14.6559 9.20006 15.5444C9.37116 16.4329 9.27393 17.3518 8.92056 18.1857C8.5672 19.0197 7.97342 19.7316 7.21369 20.2323C6.45396 20.7329 5.5621 21 4.64993 21C3.73776 21 2.8459 20.7329 2.08617 20.2323C1.32644 19.7316 0.732664 19.0197 0.379298 18.1857C0.0259313 17.3518 -0.0712965 16.4329 0.0998061 15.5444C0.270909 14.6559 0.702725 13.8372 1.34111 13.191V3.28135ZM4.64993 1.31254C4.1234 1.31254 3.61843 1.51997 3.24612 1.88919C2.8738 2.25842 2.66464 2.75919 2.66464 3.28135V13.7646L2.44361 13.9615C1.94407 14.4045 1.59195 14.9875 1.43385 15.6333C1.27575 16.2792 1.31911 16.9574 1.55821 17.5782C1.7973 18.199 2.22085 18.7333 2.77281 19.1102C3.32478 19.487 3.97912 19.6888 4.64927 19.6888C5.31941 19.6888 5.97376 19.487 6.52572 19.1102C7.07768 18.7333 7.50124 18.199 7.74033 17.5782C7.97943 16.9574 8.02279 16.2792 7.86469 15.6333C7.70658 14.9875 7.35447 14.4045 6.85493 13.9615L6.63522 13.7646V3.28135C6.63522 2.75919 6.42606 2.25842 6.05375 1.88919C5.68143 1.51997 5.17646 1.31254 4.64993 1.31254Z" fill="white"/>
</svg>
