<svg width="290" height="290" viewBox="0 0 290 290" fill="none" xmlns="http://www.w3.org/2000/svg">
<path d="M136.98 129.783L151.528 141.906L144.254 147.968V123.722L151.528 129.783L136.98 141.906" stroke="#3C8AFF" stroke-width="2.42464" stroke-linecap="round" stroke-linejoin="round"/>
<circle cx="145.5" cy="144.5" r="144.5" fill="#E2EDFF"/>
<mask id="mask0_2670_27406" style="mask-type:alpha" maskUnits="userSpaceOnUse" x="0" y="1" width="289" height="289">
<circle cx="144.5" cy="145.5" r="144.5" fill="#BBBBBB"/>
</mask>
<g mask="url(#mask0_2670_27406)">
<path d="M204.309 392.505L84.1603 392.567C79.5145 392.569 75.0582 390.726 71.771 387.443C68.4838 384.16 66.6349 379.706 66.6308 375.061L66.4922 104.409C66.4902 101.787 67.0048 99.1902 68.0066 96.7668C69.0085 94.3435 70.478 92.1413 72.3311 90.286C74.1843 88.4307 76.3848 86.9587 78.8069 85.954C81.2291 84.9494 83.8255 84.4318 86.4477 84.4308L204.379 84.3691C209.077 84.3691 213.582 86.2355 216.905 89.5575C220.227 92.8796 222.093 97.3853 222.093 102.083L222.239 374.591C222.235 379.343 220.344 383.9 216.982 387.259C213.62 390.618 209.062 392.505 204.309 392.505Z" fill="#3C8AFF"/>
<path d="M69.0722 368.807L68.9336 108.183C68.9438 102.541 71.1917 97.1339 75.1841 93.1473C79.1765 89.1607 84.5872 86.9206 90.2292 86.9186L198.317 86.8569C201.115 86.8549 203.887 87.4042 206.473 88.4734C209.058 89.5426 211.408 91.1108 213.388 93.0884C215.368 95.066 216.939 97.4142 218.011 99.999C219.083 102.584 219.635 105.354 219.636 108.153L219.775 368.776C219.777 371.574 219.227 374.345 218.158 376.931C217.089 379.517 215.521 381.867 213.543 383.847C211.566 385.827 209.217 387.397 206.633 388.469C204.048 389.541 201.277 390.094 198.479 390.095L90.391 390.156C87.5885 390.157 84.8133 389.606 82.2243 388.533C79.6353 387.46 77.2834 385.887 75.3032 383.904C73.3229 381.92 71.7533 379.566 70.6841 376.976C69.6149 374.385 69.0672 371.609 69.0722 368.807Z" fill="#2C68BF"/>
<path d="M199.472 90.3921H178.523C177.535 90.3917 176.574 90.7111 175.782 91.3025C174.991 91.8939 174.412 92.7255 174.133 93.6731L172.423 99.5419C172.114 100.603 171.469 101.536 170.584 102.198C169.699 102.861 168.623 103.218 167.517 103.216H121.106C120.001 103.216 118.925 102.86 118.04 102.199C117.154 101.538 116.506 100.609 116.192 99.5496L114.474 93.6808C114.196 92.7334 113.617 91.902 112.825 91.3117C112.034 90.7214 111.072 90.4041 110.084 90.4075H89.1198C84.707 90.3993 80.4715 92.144 77.3446 95.2578C74.2178 98.3717 72.4555 102.6 72.4453 107.013L72.5839 369.354C72.591 371.538 73.0283 373.7 73.8709 375.716C74.7135 377.731 75.9448 379.561 77.4946 381.101C79.0444 382.641 80.8823 383.861 82.9034 384.69C84.9245 385.52 87.0892 385.943 89.2739 385.936L199.603 385.882C204.016 385.89 208.251 384.145 211.378 381.031C214.505 377.918 216.267 373.689 216.278 369.277L216.139 106.943C216.117 102.541 214.35 98.3263 211.226 95.2238C208.102 92.1214 203.875 90.3839 199.472 90.3921Z" fill="#FAFAFA"/>
<path d="M133.5 153.84L148.12 143.09L140.38 137.5V159L148.12 153.41L133.5 142.66M153.28 145.24C153.28 145.24 155 146.1 155 148.25C155 150.4 153.28 151.26 153.28 151.26" stroke="#2C68BF" stroke-width="2.58" stroke-linecap="round" stroke-linejoin="round"/>
<path d="M66.4927 121.954C66.2496 121.954 66.0165 122.051 65.8446 122.223C65.6727 122.394 65.5762 122.628 65.5762 122.871V131.474C65.5762 131.594 65.5999 131.712 65.6461 131.823C65.6922 131.934 65.7599 132.034 65.8451 132.119C65.9303 132.203 66.0314 132.27 66.1425 132.315C66.2537 132.361 66.3727 132.383 66.4927 132.382V121.954Z" fill="#455A64"/>
<path d="M166.397 228.694H122.037C118.965 228.692 116.019 227.47 113.847 225.297C111.675 223.124 110.455 220.178 110.455 217.105C110.455 210.711 115.643 205.523 124.604 205.523H168.964C172.811 205.523 177.999 210.711 177.999 217.105C177.999 218.628 177.698 220.136 177.115 221.543C176.532 222.95 175.677 224.228 174.6 225.304C173.522 226.381 172.243 227.234 170.836 227.815C169.428 228.397 167.92 228.696 166.397 228.694Z" fill="#3C8AFF"/>
<path d="M174.615 218.748C175.425 213.779 172.054 209.094 167.085 208.284C162.116 207.474 157.431 210.845 156.621 215.814C155.811 220.783 159.182 225.468 164.151 226.278C169.12 227.088 173.805 223.717 174.615 218.748Z" fill="white"/>
<path d="M166.397 199.25H122.037C118.965 199.25 116.019 198.03 113.847 195.858C111.675 193.686 110.455 190.74 110.455 187.668C110.455 184.596 111.675 181.649 113.847 179.476C116.019 177.303 118.965 176.081 122.037 176.08H166.397C169.47 176.08 172.418 177.301 174.591 179.474C176.764 181.647 177.985 184.595 177.985 187.668C177.983 190.74 176.762 193.686 174.589 195.858C172.416 198.03 169.469 199.25 166.397 199.25Z" fill="#999999"/>
<path d="M121.592 196.642C126.627 196.642 130.708 192.561 130.708 187.527C130.708 182.492 126.627 178.411 121.592 178.411C116.558 178.411 112.477 182.492 112.477 187.527C112.477 192.561 116.558 196.642 121.592 196.642Z" fill="white"/>
<path d="M158.477 187.308C158.477 186.011 159.372 185.367 160.274 185.367C161.184 185.367 162.079 186.011 162.079 187.308C162.079 188.605 161.184 189.249 160.274 189.249C159.372 189.249 158.477 188.605 158.477 187.308ZM157.544 187.308C157.544 189.075 158.864 190.114 160.274 190.114C161.685 190.114 163.012 189.075 163.012 187.308C163.012 185.549 161.685 184.51 160.274 184.51C158.864 184.51 157.544 185.549 157.544 187.308ZM164.883 190V187.831H167.067V186.989H164.883V185.48H167.317V184.623H163.973V190H164.883ZM169.104 190V187.831H171.288V186.989H169.104V185.48H171.538V184.623H168.194V190H169.104Z" fill="white" fill-opacity="0.7"/>
<path d="M121.299 217.308C121.299 216.011 122.194 215.367 123.096 215.367C124.006 215.367 124.901 216.011 124.901 217.308C124.901 218.605 124.006 219.249 123.096 219.249C122.194 219.249 121.299 218.605 121.299 217.308ZM120.366 217.308C120.366 219.075 121.686 220.114 123.096 220.114C124.507 220.114 125.834 219.075 125.834 217.308C125.834 215.549 124.507 214.51 123.096 214.51C121.686 214.51 120.366 215.549 120.366 217.308ZM131.307 220V214.623H130.397V218.438L127.955 214.623H126.794V220H127.704V215.928L130.359 220H131.307Z" fill="white" fill-opacity="0.7"/>
</g>
</svg>
