<svg width="18" height="24" viewBox="0 0 18 24" fill="none" xmlns="http://www.w3.org/2000/svg">
<path d="M4.98926 2.16285e-07C4.2752 2.16285e-07 3.64852 0.470291 3.45117 1.15326L0.061662 12.9465C-0.00646521 13.1833 -0.0183276 13.4327 0.0270098 13.6749C0.0723471 13.9171 0.173645 14.1455 0.322918 14.3421C0.472192 14.5387 0.665361 14.6982 0.887198 14.8079C1.10903 14.9176 1.35348 14.9747 1.60125 14.9744H3.50992L1.74738 21.9839C1.34968 23.564 3.31559 24.6454 4.45296 23.4741L17.5229 10.2071L17.5289 10.2011C18.4931 9.20213 17.8001 7.48872 16.3735 7.48872H12.511L14.4121 2.10583L14.4151 2.09385C14.4953 1.85467 14.5172 1.59996 14.479 1.35072C14.4408 1.10147 14.3435 0.864841 14.1951 0.660331C14.0468 0.455822 13.8517 0.289296 13.626 0.174485C13.4002 0.0596744 13.1502 -0.000131253 12.8966 2.16285e-07H4.98926Z" fill="#FDFDFD"/>
</svg>
