<svg width="28" height="28" viewBox="0 0 28 28" fill="none" xmlns="http://www.w3.org/2000/svg">
<g clip-path="url(#clip0_5463_1645)">
<path d="M13.0791 0.349315C13.5892 -0.116437 14.4108 -0.116439 14.9209 0.349314L27.6092 11.9341C28.4404 12.693 27.8578 14 26.6883 14H1.31172C0.142185 14 -0.440401 12.693 0.390836 11.9341L13.0791 0.349315Z" fill="#6D6D7B"/>
<path d="M3.65234 14H24.348V26C24.348 27.1046 23.4526 28 22.348 28H5.65234C4.54777 28 3.65234 27.1046 3.65234 26V14Z" fill="#E0E0E3"/>
<path d="M10.957 21.8334C10.957 20.7288 11.8525 19.8334 12.957 19.8334H15.044C16.1486 19.8334 17.044 20.7288 17.044 21.8334V28H10.957V21.8334Z" fill="#6D6D7B"/>
</g>
<defs>
<clipPath id="clip0_5463_1645">
<rect width="28" height="28" fill="white"/>
</clipPath>
</defs>
</svg>
