<svg width="28" height="28" viewBox="0 0 28 28" fill="none" xmlns="http://www.w3.org/2000/svg">
    <path fill-rule="evenodd" clip-rule="evenodd" d="M20.8576 14.4092C20.9591 15.3201 21.0168 15.4071 20.9356 16.4187C20.9062 16.7855 20.6967 18.1099 20.7307 18.3409C20.9871 18.5292 21.3387 18.7371 21.5621 18.9452C22.4503 19.7727 22.6811 20.8934 22.661 22.1582C22.6537 22.6132 22.627 23.0495 22.5376 23.4808C22.3497 24.3872 22.5293 23.88 22.6972 24.5355C22.9039 25.3427 22.1732 26.0674 21.369 25.9619C20.6235 25.8642 20.0527 25.0771 20.4719 24.2685C20.7158 23.7981 21.1728 23.6911 21.2592 23.6166C21.4818 23.4246 21.7654 21.0137 21.0039 20.0704C20.7822 19.7957 20.5654 19.6192 20.1937 19.4402C18.0794 18.4219 16.7364 20.0871 16.152 22.0229C15.963 22.6489 16.3434 22.4449 16.4592 22.9889C16.775 24.4728 14.841 24.9692 14.257 23.8538C14.0926 23.54 14.0663 22.9664 14.2748 22.6959C14.6503 22.2089 14.785 22.3417 14.9431 21.9268C15.0803 21.5669 15.1719 21.2194 15.328 20.879C16.9387 17.3659 18.729 18.2094 19.5611 17.941C19.7112 17.4721 19.8265 15.8407 19.7783 15.2983C19.7421 14.8923 19.6795 14.4119 19.5811 14.0326C19.5211 13.8017 19.3691 13.8096 19.1384 13.7413C17.1412 13.1495 15.4958 12.9538 13.2951 13.0089C12.0012 13.0413 10.676 13.2352 9.44742 13.5763C8.79631 13.7571 8.65256 13.736 8.52754 14.0989C8.24361 14.9229 8.11911 15.6201 8.06656 16.5611C8.02434 17.3172 8.00067 18.6165 8.19385 19.284C8.62107 19.3824 9.00715 19.3582 9.43142 19.5246C10.1076 19.7898 10.622 20.3614 10.8366 21.0262C10.9255 21.3016 10.9274 22.0795 10.8442 22.357C10.6274 23.0797 10.1384 23.5563 9.4548 23.8746C9.04413 24.0658 8.64257 24.0474 8.14208 24.0254C7.46091 23.9954 6.72752 23.3975 6.42128 22.8499C6.06028 22.2043 6.06346 21.0824 6.45982 20.5029C7.19816 19.4233 7.14889 20.2303 6.95973 19.1021C6.79741 18.134 6.84776 16.6289 6.96721 15.6605C7.01587 15.2663 7.15139 14.7848 7.16801 14.4219C6.8636 14.4914 6.14936 14.9188 5.88293 15.0794C5.23813 15.4683 5.26041 15.5008 4.74475 15.8717C4.35344 16.1532 4.0685 16.4896 3.74848 16.8045C3.4374 17.1106 3.18102 17.4792 2.92542 17.8771C2.37158 18.739 2.06489 19.5909 2.02645 20.8062C1.97025 22.5846 2.01965 24.645 2.02892 26.4693C2.0323 27.1338 2.98594 27.9171 3.42445 27.9815L14.0056 27.9857C14.3014 27.9857 24.4652 28.0291 24.6622 27.9647C25.2087 27.7862 25.9826 27.0831 25.9815 26.4078C25.9784 24.5207 26.0242 22.6599 25.982 20.7624C25.9241 18.1568 24.1443 16.3767 22.1115 15.0661C21.8803 14.917 21.1307 14.4868 20.8576 14.4093L20.8576 14.4092Z" fill="#6D6D7B"/>
    <circle cx="14" cy="6" r="6" fill="#E0E0E3"/>
</svg>

