<svg width="24" height="24" viewBox="0 0 24 24" fill="none" xmlns="http://www.w3.org/2000/svg">
<path d="M6 3V6H1C0.734784 6 0.48043 6.10536 0.292893 6.29289C0.105357 6.48043 0 6.73478 0 7V20C0 21.0609 0.421427 22.0783 1.17157 22.8284C1.92172 23.5786 2.93913 24 4 24H20C21.0609 24 22.0783 23.5786 22.8284 22.8284C23.5786 22.0783 24 21.0609 24 20V7C24 6.73478 23.8946 6.48043 23.7071 6.29289C23.5196 6.10536 23.2652 6 23 6H18V3C18 2.20435 17.6839 1.44129 17.1213 0.87868C16.5587 0.316071 15.7956 0 15 0H9C8.20435 0 7.44129 0.316071 6.87868 0.87868C6.31607 1.44129 6 2.20435 6 3ZM9 2H15C15.2652 2 15.5196 2.10536 15.7071 2.29289C15.8946 2.48043 16 2.73478 16 3V6H8V3C8 2.73478 8.10536 2.48043 8.29289 2.29289C8.48043 2.10536 8.73478 2 9 2ZM7 14V10H11V14H7ZM7 20V16H11V20H7ZM17 14H13V10H17V14ZM13 20V16H17V20H13Z" fill="#6D6D7B"/>
</svg>
