<svg width="24" height="19" viewBox="0 0 24 19" fill="none" xmlns="http://www.w3.org/2000/svg">
<path d="M1.96994 9.48713C1.96994 12.2535 3.09557 14.7337 4.90802 16.5652L3.87779 17.5955C1.81732 15.5064 0.539062 12.6446 0.539062 9.48713C0.539062 6.32965 1.81732 3.46788 3.87779 1.37879L4.90802 2.40903C3.09557 4.24056 1.96994 6.73029 1.96994 9.48713ZM20.5714 9.48713C20.5713 11.7642 19.6666 13.948 18.0564 15.558C16.4461 17.1681 14.2623 18.0725 11.9852 18.0724C9.70808 18.0723 7.52431 17.1676 5.91425 15.5574C4.3042 13.9471 3.39975 11.7633 3.39987 9.48617C3.4 7.20908 4.30469 5.02531 5.91493 3.41526C7.52516 1.8052 9.70903 0.900752 11.9861 0.900879C14.2632 0.901005 16.447 1.8057 18.057 3.41593C19.6671 5.02616 20.5715 7.21004 20.5714 9.48713ZM5.30867 9.48713C5.30867 9.90685 5.35637 10.3075 5.42314 10.7081C5.59485 10.5269 5.74747 10.441 6.05273 10.441C6.54877 10.441 6.63462 10.6414 7.00665 11.1183C7.37868 11.5953 8.02735 12.3489 9.01943 12.3489C10.002 12.3489 10.6602 11.5953 11.0322 11.1183C11.2802 10.794 11.4042 10.6128 11.6141 10.5174C11.7095 10.4697 11.824 10.441 11.9861 10.441C12.4631 10.441 12.568 10.6414 12.94 11.1183C13.3121 11.5953 13.9703 12.3489 14.9528 12.3489C15.9449 12.3489 16.5936 11.5953 16.9656 11.1183C17.3376 10.6414 17.4235 10.441 17.9195 10.441C18.2248 10.441 18.3774 10.5269 18.5491 10.7081C18.6159 10.3075 18.6636 9.90685 18.6636 9.48713C18.6636 5.80499 15.6683 2.80968 11.9861 2.80968C8.30398 2.80968 5.30867 5.80499 5.30867 9.48713ZM20.0945 1.37879L19.0642 2.40903C20.8767 4.24056 22.0023 6.73029 22.0023 9.48713C22.0023 12.2535 20.8767 14.7337 19.0642 16.5652L20.0945 17.5955C22.1549 15.5064 23.4332 12.6446 23.4332 9.48713C23.4332 6.32965 22.1549 3.46788 20.0945 1.37879Z" fill="white"/>
</svg>
