<svg width="340" height="220" viewBox="0 0 340 220" fill="none" xmlns="http://www.w3.org/2000/svg">
<rect x="0.5" y="0.5" width="339" height="219" rx="19.5" fill="white" stroke="#E5E5E5"/>
<path opacity="0.4" d="M21.7498 173.91H21.1798C21.0098 174.66 20.3198 175.29 19.3698 175.37V175.89C20.0498 175.88 20.8298 175.48 21.1398 175.06V181H21.7498V173.91ZM27.8471 173.91H22.7971V174.48H27.1871C26.2371 175.39 24.3471 177.42 23.9871 181H24.6271C24.9871 177.7 26.5071 175.78 27.8471 174.54V173.91ZM28.6568 176.72C28.6568 177.01 28.8868 177.24 29.1768 177.24C29.4768 177.24 29.7068 177.01 29.7068 176.72C29.7068 176.43 29.4768 176.19 29.1768 176.19C28.8868 176.19 28.6568 176.43 28.6568 176.72ZM28.6568 180.52C28.6568 180.81 28.8868 181.04 29.1768 181.04C29.4768 181.04 29.7068 180.81 29.7068 180.52C29.7068 180.23 29.4768 179.99 29.1768 179.99C28.8868 179.99 28.6568 180.23 28.6568 180.52ZM33.0584 173.91H32.4884C32.3184 174.66 31.6284 175.29 30.6784 175.37V175.89C31.3584 175.88 32.1384 175.48 32.4484 175.06V181H33.0584V173.91ZM36.8757 181.13C38.4257 181.13 39.3257 180.26 39.3257 179.17C39.3257 178.28 38.6757 177.6 37.8057 177.37C38.5757 177.16 39.1657 176.5 39.1657 175.68C39.1657 174.59 38.2157 173.78 36.8757 173.78C35.5257 173.78 34.5857 174.59 34.5857 175.68C34.5857 176.51 35.1757 177.16 35.9357 177.37C35.0657 177.6 34.4157 178.28 34.4157 179.17C34.4157 180.26 35.3257 181.13 36.8757 181.13ZM36.8757 177.11C35.8857 177.11 35.1957 176.52 35.1957 175.7C35.1957 174.9 35.8357 174.3 36.8757 174.3C37.9057 174.3 38.5457 174.9 38.5457 175.7C38.5457 176.52 37.8557 177.11 36.8757 177.11ZM36.8757 180.58C35.7257 180.58 35.0457 179.94 35.0457 179.12C35.0457 178.29 35.7057 177.64 36.8757 177.64C38.0357 177.64 38.6957 178.29 38.6957 179.12C38.6957 179.94 38.0157 180.58 36.8757 180.58Z" fill="#2E2E42"/>
<path opacity="0.4" d="M17.2232 192.46C17.2232 190.68 17.8432 189.33 19.2832 189.33C20.7132 189.33 21.3432 190.69 21.3432 192.46C21.3432 194.23 20.7132 195.58 19.2832 195.58C17.8432 195.58 17.2232 194.24 17.2232 192.46ZM16.6132 192.46C16.6132 194.24 17.2732 196.13 19.2832 196.13C21.2832 196.13 21.9532 194.24 21.9532 192.46C21.9532 190.68 21.2832 188.78 19.2832 188.78C17.2732 188.78 16.6132 190.68 16.6132 192.46ZM25.5671 196.13C27.1171 196.13 28.0171 195.26 28.0171 194.17C28.0171 193.28 27.3671 192.6 26.4971 192.37C27.2671 192.16 27.8571 191.5 27.8571 190.68C27.8571 189.59 26.9071 188.78 25.5671 188.78C24.2171 188.78 23.2771 189.59 23.2771 190.68C23.2771 191.51 23.8671 192.16 24.6271 192.37C23.7571 192.6 23.1071 193.28 23.1071 194.17C23.1071 195.26 24.0171 196.13 25.5671 196.13ZM25.5671 192.11C24.5771 192.11 23.8871 191.52 23.8871 190.7C23.8871 189.9 24.5271 189.3 25.5671 189.3C26.5971 189.3 27.2371 189.9 27.2371 190.7C27.2371 191.52 26.5471 192.11 25.5671 192.11ZM25.5671 195.58C24.4171 195.58 23.7371 194.94 23.7371 194.12C23.7371 193.29 24.3971 192.64 25.5671 192.64C26.7271 192.64 27.3871 193.29 27.3871 194.12C27.3871 194.94 26.7071 195.58 25.5671 195.58ZM29.2916 191.72C29.2916 192.01 29.5216 192.24 29.8116 192.24C30.1116 192.24 30.3416 192.01 30.3416 191.72C30.3416 191.43 30.1116 191.19 29.8116 191.19C29.5216 191.19 29.2916 191.43 29.2916 191.72ZM29.2916 195.52C29.2916 195.81 29.5216 196.04 29.8116 196.04C30.1116 196.04 30.3416 195.81 30.3416 195.52C30.3416 195.23 30.1116 194.99 29.8116 194.99C29.5216 194.99 29.2916 195.23 29.2916 195.52ZM32.2232 192.46C32.2232 190.68 32.8432 189.33 34.2832 189.33C35.7132 189.33 36.3432 190.69 36.3432 192.46C36.3432 194.23 35.7132 195.58 34.2832 195.58C32.8432 195.58 32.2232 194.24 32.2232 192.46ZM31.6132 192.46C31.6132 194.24 32.2732 196.13 34.2832 196.13C36.2832 196.13 36.9532 194.24 36.9532 192.46C36.9532 190.68 36.2832 188.78 34.2832 188.78C32.2732 188.78 31.6132 190.68 31.6132 192.46ZM42.8471 188.91H37.7971V189.48H42.1871C41.2371 190.39 39.3471 192.42 38.9871 196H39.6271C39.9871 192.7 41.5071 190.78 42.8471 189.54V188.91Z" fill="#2E2E42"/>
<path opacity="0.4" d="M89.7498 173.91H89.1798C89.0098 174.66 88.3198 175.29 87.3698 175.37V175.89C88.0498 175.88 88.8298 175.48 89.1398 175.06V181H89.7498V173.91ZM95.8471 173.91H90.7971V174.48H95.1871C94.2371 175.39 92.3471 177.42 91.9871 181H92.6271C92.9871 177.7 94.5071 175.78 95.8471 174.54V173.91ZM96.6568 176.72C96.6568 177.01 96.8868 177.24 97.1768 177.24C97.4768 177.24 97.7068 177.01 97.7068 176.72C97.7068 176.43 97.4768 176.19 97.1768 176.19C96.8868 176.19 96.6568 176.43 96.6568 176.72ZM96.6568 180.52C96.6568 180.81 96.8868 181.04 97.1768 181.04C97.4768 181.04 97.7068 180.81 97.7068 180.52C97.7068 180.23 97.4768 179.99 97.1768 179.99C96.8868 179.99 96.6568 180.23 96.6568 180.52ZM101.058 173.91H100.488C100.318 174.66 99.6284 175.29 98.6784 175.37V175.89C99.3584 175.88 100.138 175.48 100.448 175.06V181H101.058V173.91ZM104.876 181.13C106.426 181.13 107.326 180.26 107.326 179.17C107.326 178.28 106.676 177.6 105.806 177.37C106.576 177.16 107.166 176.5 107.166 175.68C107.166 174.59 106.216 173.78 104.876 173.78C103.526 173.78 102.586 174.59 102.586 175.68C102.586 176.51 103.176 177.16 103.936 177.37C103.066 177.6 102.416 178.28 102.416 179.17C102.416 180.26 103.326 181.13 104.876 181.13ZM104.876 177.11C103.886 177.11 103.196 176.52 103.196 175.7C103.196 174.9 103.836 174.3 104.876 174.3C105.906 174.3 106.546 174.9 106.546 175.7C106.546 176.52 105.856 177.11 104.876 177.11ZM104.876 180.58C103.726 180.58 103.046 179.94 103.046 179.12C103.046 178.29 103.706 177.64 104.876 177.64C106.036 177.64 106.696 178.29 106.696 179.12C106.696 179.94 106.016 180.58 104.876 180.58Z" fill="#2E2E42"/>
<path opacity="0.4" d="M85.2232 192.46C85.2232 190.68 85.8432 189.33 87.2832 189.33C88.7132 189.33 89.3432 190.69 89.3432 192.46C89.3432 194.23 88.7132 195.58 87.2832 195.58C85.8432 195.58 85.2232 194.24 85.2232 192.46ZM84.6132 192.46C84.6132 194.24 85.2732 196.13 87.2832 196.13C89.2832 196.13 89.9532 194.24 89.9532 192.46C89.9532 190.68 89.2832 188.78 87.2832 188.78C85.2732 188.78 84.6132 190.68 84.6132 192.46ZM93.5671 196.13C95.1171 196.13 96.0171 195.26 96.0171 194.17C96.0171 193.28 95.3671 192.6 94.4971 192.37C95.2671 192.16 95.8571 191.5 95.8571 190.68C95.8571 189.59 94.9071 188.78 93.5671 188.78C92.2171 188.78 91.2771 189.59 91.2771 190.68C91.2771 191.51 91.8671 192.16 92.6271 192.37C91.7571 192.6 91.1071 193.28 91.1071 194.17C91.1071 195.26 92.0171 196.13 93.5671 196.13ZM93.5671 192.11C92.5771 192.11 91.8871 191.52 91.8871 190.7C91.8871 189.9 92.5271 189.3 93.5671 189.3C94.5971 189.3 95.2371 189.9 95.2371 190.7C95.2371 191.52 94.5471 192.11 93.5671 192.11ZM93.5671 195.58C92.4171 195.58 91.7371 194.94 91.7371 194.12C91.7371 193.29 92.3971 192.64 93.5671 192.64C94.7271 192.64 95.3871 193.29 95.3871 194.12C95.3871 194.94 94.7071 195.58 93.5671 195.58ZM97.2916 191.72C97.2916 192.01 97.5216 192.24 97.8116 192.24C98.1116 192.24 98.3416 192.01 98.3416 191.72C98.3416 191.43 98.1116 191.19 97.8116 191.19C97.5216 191.19 97.2916 191.43 97.2916 191.72ZM97.2916 195.52C97.2916 195.81 97.5216 196.04 97.8116 196.04C98.1116 196.04 98.3416 195.81 98.3416 195.52C98.3416 195.23 98.1116 194.99 97.8116 194.99C97.5216 194.99 97.2916 195.23 97.2916 195.52ZM100.223 192.46C100.223 190.68 100.843 189.33 102.283 189.33C103.713 189.33 104.343 190.69 104.343 192.46C104.343 194.23 103.713 195.58 102.283 195.58C100.843 195.58 100.223 194.24 100.223 192.46ZM99.6132 192.46C99.6132 194.24 100.273 196.13 102.283 196.13C104.283 196.13 104.953 194.24 104.953 192.46C104.953 190.68 104.283 188.78 102.283 188.78C100.273 188.78 99.6132 190.68 99.6132 192.46ZM110.847 188.91H105.797V189.48H110.187C109.237 190.39 107.347 192.42 106.987 196H107.627C107.987 192.7 109.507 190.78 110.847 189.54V188.91Z" fill="#2E2E42"/>
<path opacity="0.4" d="M157.75 173.91H157.18C157.01 174.66 156.32 175.29 155.37 175.37V175.89C156.05 175.88 156.83 175.48 157.14 175.06V181H157.75V173.91ZM163.847 173.91H158.797V174.48H163.187C162.237 175.39 160.347 177.42 159.987 181H160.627C160.987 177.7 162.507 175.78 163.847 174.54V173.91ZM164.657 176.72C164.657 177.01 164.887 177.24 165.177 177.24C165.477 177.24 165.707 177.01 165.707 176.72C165.707 176.43 165.477 176.19 165.177 176.19C164.887 176.19 164.657 176.43 164.657 176.72ZM164.657 180.52C164.657 180.81 164.887 181.04 165.177 181.04C165.477 181.04 165.707 180.81 165.707 180.52C165.707 180.23 165.477 179.99 165.177 179.99C164.887 179.99 164.657 180.23 164.657 180.52ZM169.058 173.91H168.488C168.318 174.66 167.628 175.29 166.678 175.37V175.89C167.358 175.88 168.138 175.48 168.448 175.06V181H169.058V173.91ZM172.876 181.13C174.426 181.13 175.326 180.26 175.326 179.17C175.326 178.28 174.676 177.6 173.806 177.37C174.576 177.16 175.166 176.5 175.166 175.68C175.166 174.59 174.216 173.78 172.876 173.78C171.526 173.78 170.586 174.59 170.586 175.68C170.586 176.51 171.176 177.16 171.936 177.37C171.066 177.6 170.416 178.28 170.416 179.17C170.416 180.26 171.326 181.13 172.876 181.13ZM172.876 177.11C171.886 177.11 171.196 176.52 171.196 175.7C171.196 174.9 171.836 174.3 172.876 174.3C173.906 174.3 174.546 174.9 174.546 175.7C174.546 176.52 173.856 177.11 172.876 177.11ZM172.876 180.58C171.726 180.58 171.046 179.94 171.046 179.12C171.046 178.29 171.706 177.64 172.876 177.64C174.036 177.64 174.696 178.29 174.696 179.12C174.696 179.94 174.016 180.58 172.876 180.58Z" fill="#2E2E42"/>
<path opacity="0.4" d="M153.223 192.46C153.223 190.68 153.843 189.33 155.283 189.33C156.713 189.33 157.343 190.69 157.343 192.46C157.343 194.23 156.713 195.58 155.283 195.58C153.843 195.58 153.223 194.24 153.223 192.46ZM152.613 192.46C152.613 194.24 153.273 196.13 155.283 196.13C157.283 196.13 157.953 194.24 157.953 192.46C157.953 190.68 157.283 188.78 155.283 188.78C153.273 188.78 152.613 190.68 152.613 192.46ZM161.567 196.13C163.117 196.13 164.017 195.26 164.017 194.17C164.017 193.28 163.367 192.6 162.497 192.37C163.267 192.16 163.857 191.5 163.857 190.68C163.857 189.59 162.907 188.78 161.567 188.78C160.217 188.78 159.277 189.59 159.277 190.68C159.277 191.51 159.867 192.16 160.627 192.37C159.757 192.6 159.107 193.28 159.107 194.17C159.107 195.26 160.017 196.13 161.567 196.13ZM161.567 192.11C160.577 192.11 159.887 191.52 159.887 190.7C159.887 189.9 160.527 189.3 161.567 189.3C162.597 189.3 163.237 189.9 163.237 190.7C163.237 191.52 162.547 192.11 161.567 192.11ZM161.567 195.58C160.417 195.58 159.737 194.94 159.737 194.12C159.737 193.29 160.397 192.64 161.567 192.64C162.727 192.64 163.387 193.29 163.387 194.12C163.387 194.94 162.707 195.58 161.567 195.58ZM165.292 191.72C165.292 192.01 165.522 192.24 165.812 192.24C166.112 192.24 166.342 192.01 166.342 191.72C166.342 191.43 166.112 191.19 165.812 191.19C165.522 191.19 165.292 191.43 165.292 191.72ZM165.292 195.52C165.292 195.81 165.522 196.04 165.812 196.04C166.112 196.04 166.342 195.81 166.342 195.52C166.342 195.23 166.112 194.99 165.812 194.99C165.522 194.99 165.292 195.23 165.292 195.52ZM168.223 192.46C168.223 190.68 168.843 189.33 170.283 189.33C171.713 189.33 172.343 190.69 172.343 192.46C172.343 194.23 171.713 195.58 170.283 195.58C168.843 195.58 168.223 194.24 168.223 192.46ZM167.613 192.46C167.613 194.24 168.273 196.13 170.283 196.13C172.283 196.13 172.953 194.24 172.953 192.46C172.953 190.68 172.283 188.78 170.283 188.78C168.273 188.78 167.613 190.68 167.613 192.46ZM178.847 188.91H173.797V189.48H178.187C177.237 190.39 175.347 192.42 174.987 196H175.627C175.987 192.7 177.507 190.78 178.847 189.54V188.91Z" fill="#2E2E42"/>
<path opacity="0.4" d="M225.75 173.91H225.18C225.01 174.66 224.32 175.29 223.37 175.37V175.89C224.05 175.88 224.83 175.48 225.14 175.06V181H225.75V173.91ZM231.847 173.91H226.797V174.48H231.187C230.237 175.39 228.347 177.42 227.987 181H228.627C228.987 177.7 230.507 175.78 231.847 174.54V173.91ZM232.657 176.72C232.657 177.01 232.887 177.24 233.177 177.24C233.477 177.24 233.707 177.01 233.707 176.72C233.707 176.43 233.477 176.19 233.177 176.19C232.887 176.19 232.657 176.43 232.657 176.72ZM232.657 180.52C232.657 180.81 232.887 181.04 233.177 181.04C233.477 181.04 233.707 180.81 233.707 180.52C233.707 180.23 233.477 179.99 233.177 179.99C232.887 179.99 232.657 180.23 232.657 180.52ZM237.058 173.91H236.488C236.318 174.66 235.628 175.29 234.678 175.37V175.89C235.358 175.88 236.138 175.48 236.448 175.06V181H237.058V173.91ZM240.876 181.13C242.426 181.13 243.326 180.26 243.326 179.17C243.326 178.28 242.676 177.6 241.806 177.37C242.576 177.16 243.166 176.5 243.166 175.68C243.166 174.59 242.216 173.78 240.876 173.78C239.526 173.78 238.586 174.59 238.586 175.68C238.586 176.51 239.176 177.16 239.936 177.37C239.066 177.6 238.416 178.28 238.416 179.17C238.416 180.26 239.326 181.13 240.876 181.13ZM240.876 177.11C239.886 177.11 239.196 176.52 239.196 175.7C239.196 174.9 239.836 174.3 240.876 174.3C241.906 174.3 242.546 174.9 242.546 175.7C242.546 176.52 241.856 177.11 240.876 177.11ZM240.876 180.58C239.726 180.58 239.046 179.94 239.046 179.12C239.046 178.29 239.706 177.64 240.876 177.64C242.036 177.64 242.696 178.29 242.696 179.12C242.696 179.94 242.016 180.58 240.876 180.58Z" fill="#2E2E42"/>
<path opacity="0.4" d="M221.223 192.46C221.223 190.68 221.843 189.33 223.283 189.33C224.713 189.33 225.343 190.69 225.343 192.46C225.343 194.23 224.713 195.58 223.283 195.58C221.843 195.58 221.223 194.24 221.223 192.46ZM220.613 192.46C220.613 194.24 221.273 196.13 223.283 196.13C225.283 196.13 225.953 194.24 225.953 192.46C225.953 190.68 225.283 188.78 223.283 188.78C221.273 188.78 220.613 190.68 220.613 192.46ZM229.567 196.13C231.117 196.13 232.017 195.26 232.017 194.17C232.017 193.28 231.367 192.6 230.497 192.37C231.267 192.16 231.857 191.5 231.857 190.68C231.857 189.59 230.907 188.78 229.567 188.78C228.217 188.78 227.277 189.59 227.277 190.68C227.277 191.51 227.867 192.16 228.627 192.37C227.757 192.6 227.107 193.28 227.107 194.17C227.107 195.26 228.017 196.13 229.567 196.13ZM229.567 192.11C228.577 192.11 227.887 191.52 227.887 190.7C227.887 189.9 228.527 189.3 229.567 189.3C230.597 189.3 231.237 189.9 231.237 190.7C231.237 191.52 230.547 192.11 229.567 192.11ZM229.567 195.58C228.417 195.58 227.737 194.94 227.737 194.12C227.737 193.29 228.397 192.64 229.567 192.64C230.727 192.64 231.387 193.29 231.387 194.12C231.387 194.94 230.707 195.58 229.567 195.58ZM233.292 191.72C233.292 192.01 233.522 192.24 233.812 192.24C234.112 192.24 234.342 192.01 234.342 191.72C234.342 191.43 234.112 191.19 233.812 191.19C233.522 191.19 233.292 191.43 233.292 191.72ZM233.292 195.52C233.292 195.81 233.522 196.04 233.812 196.04C234.112 196.04 234.342 195.81 234.342 195.52C234.342 195.23 234.112 194.99 233.812 194.99C233.522 194.99 233.292 195.23 233.292 195.52ZM236.223 192.46C236.223 190.68 236.843 189.33 238.283 189.33C239.713 189.33 240.343 190.69 240.343 192.46C240.343 194.23 239.713 195.58 238.283 195.58C236.843 195.58 236.223 194.24 236.223 192.46ZM235.613 192.46C235.613 194.24 236.273 196.13 238.283 196.13C240.283 196.13 240.953 194.24 240.953 192.46C240.953 190.68 240.283 188.78 238.283 188.78C236.273 188.78 235.613 190.68 235.613 192.46ZM246.847 188.91H241.797V189.48H246.187C245.237 190.39 243.347 192.42 242.987 196H243.627C243.987 192.7 245.507 190.78 246.847 189.54V188.91Z" fill="#2E2E42"/>
<path opacity="0.4" d="M293.75 173.91H293.18C293.01 174.66 292.32 175.29 291.37 175.37V175.89C292.05 175.88 292.83 175.48 293.14 175.06V181H293.75V173.91ZM299.847 173.91H294.797V174.48H299.187C298.237 175.39 296.347 177.42 295.987 181H296.627C296.987 177.7 298.507 175.78 299.847 174.54V173.91ZM300.657 176.72C300.657 177.01 300.887 177.24 301.177 177.24C301.477 177.24 301.707 177.01 301.707 176.72C301.707 176.43 301.477 176.19 301.177 176.19C300.887 176.19 300.657 176.43 300.657 176.72ZM300.657 180.52C300.657 180.81 300.887 181.04 301.177 181.04C301.477 181.04 301.707 180.81 301.707 180.52C301.707 180.23 301.477 179.99 301.177 179.99C300.887 179.99 300.657 180.23 300.657 180.52ZM305.058 173.91H304.488C304.318 174.66 303.628 175.29 302.678 175.37V175.89C303.358 175.88 304.138 175.48 304.448 175.06V181H305.058V173.91ZM308.876 181.13C310.426 181.13 311.326 180.26 311.326 179.17C311.326 178.28 310.676 177.6 309.806 177.37C310.576 177.16 311.166 176.5 311.166 175.68C311.166 174.59 310.216 173.78 308.876 173.78C307.526 173.78 306.586 174.59 306.586 175.68C306.586 176.51 307.176 177.16 307.936 177.37C307.066 177.6 306.416 178.28 306.416 179.17C306.416 180.26 307.326 181.13 308.876 181.13ZM308.876 177.11C307.886 177.11 307.196 176.52 307.196 175.7C307.196 174.9 307.836 174.3 308.876 174.3C309.906 174.3 310.546 174.9 310.546 175.7C310.546 176.52 309.856 177.11 308.876 177.11ZM308.876 180.58C307.726 180.58 307.046 179.94 307.046 179.12C307.046 178.29 307.706 177.64 308.876 177.64C310.036 177.64 310.696 178.29 310.696 179.12C310.696 179.94 310.016 180.58 308.876 180.58Z" fill="#2E2E42"/>
<path opacity="0.4" d="M289.223 192.46C289.223 190.68 289.843 189.33 291.283 189.33C292.713 189.33 293.343 190.69 293.343 192.46C293.343 194.23 292.713 195.58 291.283 195.58C289.843 195.58 289.223 194.24 289.223 192.46ZM288.613 192.46C288.613 194.24 289.273 196.13 291.283 196.13C293.283 196.13 293.953 194.24 293.953 192.46C293.953 190.68 293.283 188.78 291.283 188.78C289.273 188.78 288.613 190.68 288.613 192.46ZM297.567 196.13C299.117 196.13 300.017 195.26 300.017 194.17C300.017 193.28 299.367 192.6 298.497 192.37C299.267 192.16 299.857 191.5 299.857 190.68C299.857 189.59 298.907 188.78 297.567 188.78C296.217 188.78 295.277 189.59 295.277 190.68C295.277 191.51 295.867 192.16 296.627 192.37C295.757 192.6 295.107 193.28 295.107 194.17C295.107 195.26 296.017 196.13 297.567 196.13ZM297.567 192.11C296.577 192.11 295.887 191.52 295.887 190.7C295.887 189.9 296.527 189.3 297.567 189.3C298.597 189.3 299.237 189.9 299.237 190.7C299.237 191.52 298.547 192.11 297.567 192.11ZM297.567 195.58C296.417 195.58 295.737 194.94 295.737 194.12C295.737 193.29 296.397 192.64 297.567 192.64C298.727 192.64 299.387 193.29 299.387 194.12C299.387 194.94 298.707 195.58 297.567 195.58ZM301.292 191.72C301.292 192.01 301.522 192.24 301.812 192.24C302.112 192.24 302.342 192.01 302.342 191.72C302.342 191.43 302.112 191.19 301.812 191.19C301.522 191.19 301.292 191.43 301.292 191.72ZM301.292 195.52C301.292 195.81 301.522 196.04 301.812 196.04C302.112 196.04 302.342 195.81 302.342 195.52C302.342 195.23 302.112 194.99 301.812 194.99C301.522 194.99 301.292 195.23 301.292 195.52ZM304.223 192.46C304.223 190.68 304.843 189.33 306.283 189.33C307.713 189.33 308.343 190.69 308.343 192.46C308.343 194.23 307.713 195.58 306.283 195.58C304.843 195.58 304.223 194.24 304.223 192.46ZM303.613 192.46C303.613 194.24 304.273 196.13 306.283 196.13C308.283 196.13 308.953 194.24 308.953 192.46C308.953 190.68 308.283 188.78 306.283 188.78C304.273 188.78 303.613 190.68 303.613 192.46ZM314.847 188.91H309.797V189.48H314.187C313.237 190.39 311.347 192.42 310.987 196H311.627C311.987 192.7 313.507 190.78 314.847 189.54V188.91Z" fill="#2E2E42"/>
<path d="M18.1242 23.9V19.01H19.3942C20.6242 19.01 21.6342 19.81 21.6342 21.47C21.6342 23.11 20.6142 23.9 19.3842 23.9H18.1242ZM19.4242 25C21.3442 25 22.8842 23.74 22.8842 21.47C22.8842 19.19 21.3642 17.91 19.4342 17.91H16.9242V25H19.4242ZM23.741 23.68C23.741 24.45 24.371 25.15 25.391 25.15C26.181 25.15 26.661 24.75 26.891 24.38C26.891 24.77 26.931 24.97 26.941 25H28.021C28.011 24.95 27.961 24.66 27.961 24.22V21.8C27.961 20.83 27.391 19.98 25.891 19.98C24.691 19.98 23.931 20.73 23.841 21.57L24.901 21.81C24.951 21.32 25.291 20.93 25.901 20.93C26.541 20.93 26.821 21.26 26.821 21.67C26.821 21.84 26.741 21.98 26.461 22.02L25.211 22.21C24.381 22.33 23.741 22.81 23.741 23.68ZM25.611 24.24C25.151 24.24 24.901 23.94 24.901 23.61C24.901 23.21 25.191 23.01 25.551 22.95L26.821 22.76V22.98C26.821 23.93 26.261 24.24 25.611 24.24ZM30.7261 26.97L33.8261 20.13H32.5961L31.2861 23.21L29.8861 20.13H28.5761L30.6561 24.42L29.4861 26.97H30.7261Z" fill="#3C8AFF"/>
<path opacity="0.7" d="M51.6819 24.11L49.7119 17.91H49.0219L47.0619 24.11L45.3119 17.91H44.6519L46.7219 25H47.3819L49.3619 18.74L51.3419 25H52.0319L54.0719 17.91H53.4219L51.6819 24.11ZM55.0141 22.23C55.0741 21.35 55.7141 20.64 56.6041 20.64C57.6041 20.64 58.1741 21.34 58.1941 22.23H55.0141ZM58.2641 23.46C58.0641 24.09 57.5641 24.59 56.7041 24.59C55.7641 24.59 55.0041 23.87 54.9941 22.77V22.73H58.8141C58.8241 22.65 58.8241 22.59 58.8241 22.51C58.8141 21.1 58.0041 20.1 56.5941 20.1C55.4041 20.1 54.3841 21.1 54.3841 22.6C54.3841 24.2 55.4441 25.13 56.7041 25.13C57.8041 25.13 58.5241 24.46 58.7941 23.65L58.2641 23.46ZM60.3656 22.23C60.4256 21.35 61.0656 20.64 61.9556 20.64C62.9556 20.64 63.5256 21.34 63.5456 22.23H60.3656ZM63.6156 23.46C63.4156 24.09 62.9156 24.59 62.0556 24.59C61.1156 24.59 60.3556 23.87 60.3456 22.77V22.73H64.1656C64.1756 22.65 64.1756 22.59 64.1756 22.51C64.1656 21.1 63.3556 20.1 61.9456 20.1C60.7556 20.1 59.7356 21.1 59.7356 22.6C59.7356 24.2 60.7956 25.13 62.0556 25.13C63.1556 25.13 63.8756 24.46 64.1456 23.65L63.6156 23.46ZM69.3472 20.23H68.5172L66.0172 22.75V17.78H65.4172V25H66.0172V23.54L66.8972 22.67L68.6372 25H69.3872L67.3172 22.26L69.3472 20.23Z" fill="#2E2E42"/>
<path opacity="0.7" d="M88.9332 25V17.91H88.0432L85.2232 24.17L82.4032 17.91H81.5032V25H82.1432V18.86L84.9132 25H85.5132L88.2932 18.86V25H88.9332ZM92.6886 25.13C94.0186 25.13 95.0586 24.11 95.0586 22.62C95.0586 21.12 94.0186 20.11 92.6886 20.11C91.3486 20.11 90.3186 21.12 90.3186 22.62C90.3186 24.11 91.3586 25.13 92.6886 25.13ZM90.9286 22.62C90.9286 21.37 91.7486 20.65 92.6886 20.65C93.6286 20.65 94.4486 21.37 94.4486 22.62C94.4486 23.86 93.6286 24.59 92.6886 24.59C91.7486 24.59 90.9286 23.86 90.9286 22.62ZM96.9322 22.15C96.9322 21.34 97.4422 20.65 98.2622 20.65C99.1822 20.65 99.5522 21.24 99.5522 21.99V25H100.152V21.89C100.152 20.91 99.5822 20.11 98.4622 20.11C97.7322 20.11 97.1722 20.48 96.9122 20.99V20.23H96.3322V25H96.9322V22.15ZM102.624 18.72H102.044V19.53C102.044 20.02 101.844 20.23 101.374 20.23H101.014V20.77H102.024V23.71C102.024 24.58 102.504 25.05 103.274 25.05C103.564 25.05 103.784 25 103.864 24.96V24.43C103.774 24.47 103.604 24.51 103.434 24.51C102.894 24.51 102.624 24.23 102.624 23.65V20.77H103.864V20.23H102.624V18.72ZM105.536 22.13C105.536 21.35 106.056 20.64 106.866 20.64C107.766 20.64 108.156 21.23 108.156 21.98V25H108.756V21.88C108.756 20.9 108.196 20.1 107.066 20.1C106.326 20.1 105.786 20.5 105.536 20.98V17.78H104.936V25H105.536V22.13Z" fill="#2E2E42"/>
<rect x="254" y="13" width="71" height="23" rx="11.5" fill="#F2F2F2"/>
<path opacity="0.7" d="M269.384 28.13C270.834 28.13 271.814 27.25 271.814 25.64V20.91H271.174V25.61C271.174 26.86 270.544 27.55 269.384 27.55C268.224 27.55 267.594 26.86 267.594 25.61V20.91H266.954V25.64C266.954 27.26 267.944 28.13 269.384 28.13ZM274.094 25.15C274.094 24.34 274.604 23.65 275.424 23.65C276.344 23.65 276.714 24.24 276.714 24.99V28H277.314V24.89C277.314 23.91 276.744 23.11 275.624 23.11C274.894 23.11 274.334 23.48 274.074 23.99V23.23H273.494V28H274.094V25.15ZM279.465 28V23.23H278.865V28H279.465ZM278.665 21.25C278.665 21.54 278.885 21.75 279.165 21.75C279.445 21.75 279.665 21.54 279.665 21.25C279.665 20.96 279.445 20.75 279.165 20.75C278.885 20.75 278.665 20.96 278.665 21.25ZM282.033 21.72H281.453V22.53C281.453 23.02 281.253 23.23 280.783 23.23H280.423V23.77H281.433V26.71C281.433 27.58 281.913 28.05 282.683 28.05C282.973 28.05 283.193 28 283.273 27.96V27.43C283.183 27.47 283.013 27.51 282.843 27.51C282.303 27.51 282.033 27.23 282.033 26.65V23.77H283.273V23.23H282.033V21.72ZM284.234 23.72C284.234 24.01 284.464 24.24 284.754 24.24C285.054 24.24 285.284 24.01 285.284 23.72C285.284 23.43 285.054 23.19 284.754 23.19C284.464 23.19 284.234 23.43 284.234 23.72ZM284.234 27.52C284.234 27.81 284.464 28.04 284.754 28.04C285.054 28.04 285.284 27.81 285.284 27.52C285.284 27.23 285.054 26.99 284.754 26.99C284.464 26.99 284.234 27.23 284.234 27.52Z" fill="#2E2E42"/>
<path opacity="0.7" d="M292.064 20.91V28H294.684C296.004 28 296.884 27.18 296.884 26.04C296.884 25.2 296.364 24.55 295.614 24.35C296.224 24.13 296.664 23.57 296.664 22.82C296.664 21.71 295.864 20.91 294.504 20.91H292.064ZM293.254 23.91V21.93H294.314C295.044 21.93 295.464 22.32 295.464 22.92C295.464 23.51 295.044 23.91 294.344 23.91H293.254ZM293.254 26.98V24.92H294.514C295.254 24.92 295.664 25.35 295.664 25.96C295.664 26.59 295.194 26.98 294.474 26.98H293.254ZM299.338 24.17V21.97H300.588C301.348 21.97 301.808 22.4 301.808 23.08C301.808 23.75 301.348 24.17 300.588 24.17H299.338ZM300.768 25.23C302.128 25.23 303.028 24.32 303.028 23.07C303.028 21.83 302.128 20.91 300.768 20.91H298.138V28H299.338V25.23H300.768ZM311.934 28V20.91H310.304L308.034 26.32L305.734 20.91H304.134V28H305.304V22.8L307.494 28H308.534L310.744 22.78V28H311.934Z" fill="#2E2E42"/>
<path d="M15.5 101L62.5 66L114.5 116L179.5 100L207 66H252.5H309" stroke="#3C8AFF" stroke-linecap="round"/>
<path d="M15.5 126L68 130L114.5 141H164L209 130L252.5 91H309" stroke="#3C8AFF" stroke-linecap="round"/>
<circle cx="63" cy="67" r="4" fill="#3C8AFF"/>
<circle cx="67" cy="130" r="4" fill="#3C8AFF"/>
<circle cx="115" cy="116" r="4" fill="#3C8AFF"/>
<circle cx="115" cy="141" r="4" fill="#3C8AFF"/>
<circle cx="180" cy="99" r="4" fill="#3C8AFF"/>
<circle cx="166" cy="141" r="4" fill="#3C8AFF"/>
<circle cx="207" cy="66" r="4" fill="#3C8AFF"/>
<circle cx="209" cy="130" r="4" fill="#3C8AFF"/>
<circle cx="258" cy="66" r="4" fill="#3C8AFF"/>
<circle cx="258" cy="91" r="4" fill="#3C8AFF"/>
<circle cx="309" cy="66" r="4" fill="#3C8AFF"/>
<circle cx="309" cy="91" r="4" fill="#3C8AFF"/>
</svg>
