<svg width="18" height="14" viewBox="0 0 18 14" fill="none" xmlns="http://www.w3.org/2000/svg">
<path d="M0 2.33333C0 1.71449 0.237053 1.121 0.65901 0.683417C1.08097 0.245833 1.65326 0 2.25 0H15.75C16.3467 0 16.919 0.245833 17.341 0.683417C17.7629 1.121 18 1.71449 18 2.33333V8.16667H0V2.33333ZM12.9375 3.5C12.7883 3.5 12.6452 3.56146 12.5398 3.67085C12.4343 3.78025 12.375 3.92862 12.375 4.08333V5.25C12.375 5.40471 12.4343 5.55308 12.5398 5.66248C12.6452 5.77187 12.7883 5.83333 12.9375 5.83333H15.1875C15.3367 5.83333 15.4798 5.77187 15.5852 5.66248C15.6907 5.55308 15.75 5.40471 15.75 5.25V4.08333C15.75 3.92862 15.6907 3.78025 15.5852 3.67085C15.4798 3.56146 15.3367 3.5 15.1875 3.5H12.9375ZM0 10.5V11.6667C0 12.2855 0.237053 12.879 0.65901 13.3166C1.08097 13.7542 1.65326 14 2.25 14H15.75C16.3467 14 16.919 13.7542 17.341 13.3166C17.7629 12.879 18 12.2855 18 11.6667V10.5H0Z" fill="#3C8AFF"/>
</svg>
