<svg width="227" height="218" viewBox="0 0 227 218" fill="none" xmlns="http://www.w3.org/2000/svg">
<path d="M22.4078 137.95L15.2925 138.102L11.6834 138.161C10.4804 138.189 9.26652 138.161 8.05806 138.194H7.8142V137.95L7.78711 131.886V131.615H8.05806L15.2329 131.648C17.6227 131.648 20.0125 131.713 22.4078 131.74H22.5541V131.886C22.5541 132.916 22.5053 133.94 22.4836 134.948L22.4078 137.95ZM22.4078 137.95L22.3319 134.888C22.3319 133.875 22.2669 132.878 22.256 131.886L22.4078 132.032C20.0125 132.032 17.6227 132.119 15.2329 132.125L8.05806 132.157L8.32902 131.886L8.2965 137.95L8.05806 137.706C9.23942 137.706 10.4154 137.706 11.6021 137.739L15.1679 137.798L22.4078 137.95Z" fill="#EBEBEB"/>
<path d="M30.426 145.597L23.3108 145.748L19.7017 145.808C18.4987 145.835 17.2848 145.808 16.0763 145.84H15.8379V145.597V139.533V139.262H16.1088L23.2837 139.294C25.6735 139.294 28.0687 139.359 30.4585 139.386H30.6049V139.533C30.6049 140.562 30.5615 141.586 30.5344 142.594L30.426 145.597ZM30.426 145.597L30.3502 142.535C30.3502 141.521 30.2906 140.524 30.2797 139.533L30.426 139.679C28.0362 139.706 25.641 139.766 23.2512 139.771L16.0763 139.804L16.3473 139.533L16.3039 145.597L16.0655 145.353C17.2468 145.353 18.4282 145.353 19.6096 145.385L23.1753 145.445L30.426 145.597Z" fill="#EBEBEB"/>
<path d="M209.335 143.183L202.226 143.334L198.617 143.394C197.408 143.421 196.194 143.394 194.986 143.426H194.747V143.183L194.715 137.119V136.848H194.986L202.161 136.88C204.556 136.88 206.946 136.945 209.335 136.972H209.487V137.119C209.487 138.148 209.438 139.172 209.417 140.18L209.335 143.183ZM209.335 143.183L209.26 140.121C209.26 139.107 209.2 138.11 209.189 137.119L209.335 137.265C206.946 137.292 204.556 137.352 202.161 137.357L194.986 137.39L195.257 137.119L195.23 143.183L194.986 142.939C196.167 142.939 197.349 142.939 198.535 142.971L202.101 143.031L209.335 143.183Z" fill="#EBEBEB"/>
<path d="M209.335 7.03948L202.226 7.16412L198.617 7.22915C197.408 7.22915 196.194 7.22915 194.986 7.22915H194.747V6.99071L194.715 0.926764V0.650391H194.986L202.161 0.682906C204.556 0.682906 206.946 0.742516 209.335 0.769611H209.487V0.915926C209.487 1.94013 209.438 2.96433 209.417 3.9777L209.335 7.03948ZM209.335 7.03948L209.26 3.97228C209.26 2.96434 209.2 1.96723 209.189 0.975536L209.335 1.12185C206.946 1.12185 204.556 1.20855 202.161 1.20855L194.986 1.24107L195.257 0.975536L195.23 7.03948L194.986 6.79562C196.167 6.79562 197.349 6.79562 198.535 6.82272L202.101 6.88774L209.335 7.03948Z" fill="#EBEBEB"/>
<path d="M217.318 14.6858L210.208 14.8321L206.599 14.8971C205.391 14.8971 204.182 14.8971 202.968 14.8971H202.73V14.6587L202.697 8.59473V8.31836H202.968L210.143 8.35088C212.538 8.35088 214.928 8.41048 217.318 8.43758H217.47V8.5839C217.47 9.6081 217.421 10.6323 217.399 11.6457L217.318 14.6858ZM217.318 14.6858L217.242 11.6186C217.242 10.6106 217.182 9.61352 217.172 8.62183L217.318 8.78982C214.928 8.81692 212.538 8.87653 210.143 8.87653L202.968 8.90904L203.239 8.64351L203.228 14.6858L202.984 14.4419C204.171 14.4419 205.347 14.4419 206.534 14.4419L210.1 14.5069L217.318 14.6858Z" fill="#EBEBEB"/>
<path d="M86.0625 47.715L93.1723 47.5633L96.7815 47.5037C97.9899 47.4766 99.2038 47.5037 100.412 47.4766H100.651V47.7204L100.683 53.7844V54.0553H100.412L93.2211 54.0174C90.8259 54.0174 88.4361 53.9578 86.0463 53.9307H85.8945V53.7681C85.8945 52.7385 85.9433 51.7197 85.965 50.7063L86.0625 47.715ZM86.0625 47.715L86.1384 50.7822C86.1384 51.7901 86.198 52.7873 86.2088 53.7789L86.0625 53.6326C88.4523 53.6055 90.8421 53.5459 93.2374 53.5459L100.412 53.508L100.141 53.7789V47.715L100.385 47.9589C99.2038 47.9589 98.0224 47.9589 96.8356 47.9263L93.2699 47.8667L86.0625 47.715Z" fill="#EBEBEB"/>
<path d="M94.066 40.0685L101.176 39.9168L104.785 39.8572C105.993 39.8301 107.207 39.8572 108.416 39.8301H108.654V40.0739L108.687 46.1379V46.4088H108.394L101.219 46.3763C98.8293 46.3763 96.4341 46.3167 94.0443 46.2896H93.8926V46.1433C93.8926 45.1137 93.9359 44.0949 93.963 43.0815L94.066 40.0685ZM94.066 40.0685L94.1419 43.1357C94.1689 44.1437 94.2015 45.1408 94.2123 46.1325L94.066 45.9861C96.4558 45.9861 98.851 45.8994 101.241 45.8994L108.416 45.8615L108.145 46.1325L108.172 40.0685L108.416 40.3124C107.234 40.3124 106.053 40.3124 104.866 40.2799L101.3 40.2203L94.066 40.0685Z" fill="#EBEBEB"/>
<path d="M200.111 97.8848C177.573 97.8848 177.535 129.939 200.111 129.939C222.687 129.939 222.687 97.8848 200.111 97.8848Z" fill="#EBEBEB"/>
<path d="M213.825 116.917C212.622 122.434 208.048 127.214 200.114 127.214C181.381 127.214 181.408 100.611 200.114 100.611H200.483C182.876 100.936 182.963 126.13 200.824 126.13C208.107 126.135 212.443 121.919 213.825 116.917Z" fill="#DBDBDB"/>
<path d="M200.246 104.118C200.395 104.115 200.539 104.169 200.648 104.27C200.757 104.372 200.823 104.511 200.831 104.66V105.554C202.394 105.659 203.896 106.199 205.167 107.114C205.383 107.272 205.508 107.407 205.508 107.629C205.492 107.783 205.417 107.926 205.299 108.026C205.181 108.127 205.029 108.179 204.874 108.171C204.713 108.178 204.555 108.122 204.435 108.014C203.373 107.203 202.107 106.7 200.777 106.562V112.837C204.484 113.552 206.045 114.826 206.045 117.01C206.045 119.378 203.877 121.047 200.826 121.139V122.878C200.826 123.034 200.764 123.183 200.655 123.292C200.545 123.402 200.396 123.464 200.241 123.464C200.085 123.464 199.937 123.402 199.827 123.292C199.717 123.183 199.655 123.034 199.655 122.878V121.117C197.645 120.988 195.727 120.23 194.171 118.95C194.089 118.902 194.021 118.834 193.974 118.753C193.926 118.671 193.901 118.578 193.9 118.484C193.918 118.334 193.99 118.195 194.103 118.095C194.216 117.995 194.362 117.941 194.513 117.942C194.674 117.937 194.83 117.993 194.952 118.099C196.275 119.271 197.942 119.982 199.704 120.126V113.736C196.046 112.999 194.534 111.775 194.534 109.542C194.534 107.309 196.702 105.57 199.655 105.505V104.654C199.664 104.505 199.73 104.365 199.841 104.265C199.951 104.165 200.097 104.112 200.246 104.118ZM199.704 112.598V106.507C197.341 106.551 195.781 107.846 195.781 109.45C195.786 110.967 196.567 111.905 199.71 112.598H199.704ZM200.788 113.959V120.12C203.227 120.071 204.814 118.782 204.814 117.085C204.809 115.546 203.953 114.609 200.783 113.959H200.788Z" fill="#DBDBDB"/>
<path d="M82.8873 14.2085C99.2962 17.151 94.9664 41.4556 78.552 38.5076C62.1377 35.5596 66.4567 11.2605 82.8873 14.2085Z" fill="#DBDBDB"/>
<path d="M81.3457 13.9389C96.9851 16.7405 92.6498 41.0342 76.9833 38.238C61.3168 35.4418 65.6845 11.1264 81.3457 13.9389Z" fill="#EBEBEB"/>
<path d="M69.2539 26.6719C69.3352 31.0071 71.8551 35.2015 77.3825 36.1877C90.3883 38.5234 93.9811 18.3482 81.0025 16.018L80.7478 15.9746C92.919 18.4132 89.4183 37.5046 77.0357 35.2828C71.958 34.3561 69.5194 30.6224 69.2539 26.6719Z" fill="#DBDBDB"/>
<path d="M80.0845 17.7737C80.138 17.7835 80.189 17.8037 80.2346 17.8333C80.2802 17.8629 80.3195 17.9012 80.3502 17.946C80.381 17.9909 80.4025 18.0413 80.4137 18.0945C80.4248 18.1477 80.4253 18.2026 80.4151 18.256L80.2905 18.928C81.3721 19.219 82.342 19.8267 83.0759 20.6729C83.1373 20.7258 83.1849 20.793 83.2142 20.8686C83.2435 20.9443 83.2537 21.0259 83.2438 21.1064C83.2325 21.1654 83.2091 21.2214 83.1752 21.2709C83.1413 21.3205 83.0976 21.3625 83.0468 21.3945C82.9961 21.4265 82.9393 21.4478 82.8799 21.4569C82.8206 21.4661 82.76 21.463 82.7019 21.4478C82.6453 21.4387 82.5911 21.4182 82.5426 21.3874C82.4942 21.3567 82.4525 21.3164 82.4202 21.269C81.8137 20.5299 81.0034 19.9853 80.09 19.7029L79.2066 24.4338C81.6777 25.4525 82.5773 26.6014 82.2684 28.2705C81.9378 30.0642 80.1983 31.0504 78.0741 30.7253L77.8248 32.0421C77.8183 32.0983 77.8004 32.1526 77.7721 32.2016C77.7437 32.2506 77.7056 32.2932 77.6601 32.3267C77.6146 32.3603 77.5626 32.3842 77.5074 32.3968C77.4523 32.4094 77.3951 32.4105 77.3395 32.4001C77.2839 32.3896 77.2311 32.3678 77.1843 32.3361C77.1375 32.3043 77.0977 32.2632 77.0675 32.2154C77.0372 32.1676 77.0172 32.114 77.0086 32.0581C76.9999 32.0022 77.0029 31.9451 77.0173 31.8904L77.2666 30.5573C75.8716 30.1854 74.64 29.3599 73.7659 28.2108C73.7174 28.1593 73.6814 28.0973 73.6607 28.0297C73.6401 27.962 73.6352 27.8905 73.6467 27.8207C73.6726 27.7106 73.7385 27.6141 73.8317 27.55C73.9249 27.4859 74.0386 27.4587 74.1506 27.4739C74.2636 27.4961 74.3642 27.5599 74.4324 27.6527C75.1581 28.6974 76.2194 29.4623 77.44 29.8203L78.3342 25.0028C75.9064 23.9731 75.0285 22.8351 75.3483 21.1606C75.668 19.4861 77.3913 18.4511 79.4613 18.76L79.586 18.1205C79.5936 18.0639 79.6129 18.0095 79.6427 17.9608C79.6725 17.9121 79.7121 17.87 79.7589 17.8374C79.8058 17.8048 79.859 17.7823 79.915 17.7713C79.9711 17.7604 80.0288 17.7612 80.0845 17.7737ZM78.5184 24.1249L79.3801 19.5132C77.7543 19.2423 76.47 20.0172 76.2424 21.2365C76.0148 22.4558 76.4212 23.1928 78.5184 24.1249ZM79.0603 25.2954L78.1933 29.9558C79.8894 30.2376 81.1683 29.4627 81.4068 28.1783C81.6344 27.0132 81.1738 26.195 79.0712 25.2954H79.0603Z" fill="#DBDBDB"/>
<path d="M117.816 109.808L5.65234 99.9355L0.897245 153.961L113.061 163.833L117.816 109.808Z" fill="#EBEBEB"/>
<path d="M117.802 109.831L114.409 109.533L9.04633 100.239L5.64315 99.9355L5.3451 103.328L1.18867 150.555L0.890625 153.958L4.28296 154.256L109.657 163.534L113.044 163.832L117.807 109.804L117.802 109.831ZM109.955 160.163L4.58643 150.859L8.74828 103.631L114.106 112.914L109.955 160.163Z" fill="#DBDBDB"/>
<path d="M65.6903 133.918C66.5809 123.8 60.2698 114.978 51.5941 114.214C42.9184 113.451 35.1634 121.034 34.2727 131.153C33.3821 141.272 39.6932 150.094 48.3689 150.857C57.0446 151.621 64.7997 144.037 65.6903 133.918Z" fill="#DBDBDB"/>
<path d="M24.4167 129.182C24.3406 130.014 24.0196 130.805 23.4944 131.455C22.9691 132.104 22.2631 132.584 21.4655 132.832C20.6679 133.081 19.8145 133.088 19.0131 132.852C18.2116 132.616 17.4981 132.148 16.9627 131.506C16.4272 130.865 16.0938 130.079 16.0046 129.249C15.9154 128.418 16.0744 127.579 16.4615 126.839C16.8485 126.099 17.4463 125.489 18.1793 125.089C18.9124 124.688 19.7477 124.513 20.58 124.587C21.1339 124.636 21.6728 124.794 22.1656 125.051C22.6584 125.309 23.0956 125.661 23.452 126.088C23.8084 126.515 24.0771 127.008 24.2426 127.539C24.4082 128.07 24.4673 128.628 24.4167 129.182Z" fill="#DBDBDB"/>
<path d="M87.9338 131.992C87.8609 132.825 87.5427 133.617 87.0195 134.269C86.4962 134.921 85.7913 135.403 84.994 135.655C84.1967 135.906 83.3427 135.915 82.5401 135.681C81.7375 135.447 81.0223 134.981 80.4849 134.34C79.9476 133.7 79.6122 132.914 79.5212 132.083C79.4302 131.252 79.5877 130.413 79.9738 129.671C80.3598 128.93 80.9571 128.32 81.6901 127.917C82.4231 127.515 83.2588 127.34 84.0916 127.413C85.2084 127.51 86.2405 128.048 86.961 128.906C87.6816 129.765 88.0315 130.875 87.9338 131.992Z" fill="#DBDBDB"/>
<path d="M12.1002 151.52L4.58398 150.858L5.24511 143.348C7.23772 143.523 9.07929 144.482 10.3648 146.014C11.6504 147.547 12.2746 149.527 12.1002 151.52Z" fill="#DBDBDB"/>
<path d="M104.604 150.228L103.943 157.745L96.4375 157.083C96.5227 156.097 96.8017 155.137 97.2584 154.258C97.7151 153.379 98.3407 152.599 99.0992 151.962C99.8577 151.326 100.734 150.845 101.679 150.547C102.624 150.25 103.618 150.141 104.604 150.228Z" fill="#DBDBDB"/>
<path d="M100.57 109.834L108.086 110.495L107.425 118.006C106.438 117.92 105.478 117.64 104.599 117.183C103.721 116.726 102.941 116.1 102.304 115.341C101.667 114.582 101.186 113.705 100.889 112.76C100.591 111.815 100.483 110.821 100.57 109.834Z" fill="#DBDBDB"/>
<path d="M8.08008 111.141L8.74662 103.625L16.2575 104.286C16.1716 105.274 15.8918 106.234 15.4342 107.113C14.9765 107.993 14.35 108.773 13.5905 109.41C12.8309 110.046 11.9533 110.527 11.0077 110.824C10.0622 111.121 9.06731 111.229 8.08008 111.141Z" fill="#DBDBDB"/>
<path d="M51.3811 118.728C51.5805 118.749 51.764 118.846 51.8925 119C52.0211 119.154 52.0845 119.352 52.0693 119.552L51.9609 120.815C53.9973 121.156 55.8847 122.1 57.38 123.524C57.503 123.609 57.6023 123.723 57.6687 123.857C57.7351 123.991 57.7663 124.139 57.7593 124.288C57.7348 124.498 57.6293 124.69 57.4654 124.824C57.3015 124.957 57.0921 125.022 56.8814 125.004C56.6722 124.988 56.4774 124.891 56.3395 124.733C55.0958 123.48 53.5108 122.62 51.7821 122.262L51.0072 131.105C55.7163 132.542 57.5805 134.519 57.3095 137.608C57.0115 140.957 53.9931 143.076 50.0317 142.854L49.815 145.32C49.8147 145.425 49.7925 145.53 49.7498 145.627C49.7072 145.723 49.6449 145.81 49.5669 145.881C49.489 145.953 49.3971 146.007 49.297 146.041C49.197 146.075 49.0909 146.088 48.9856 146.079C48.8803 146.07 48.778 146.039 48.6852 145.989C48.5924 145.938 48.5111 145.869 48.4465 145.785C48.3818 145.702 48.3352 145.606 48.3096 145.503C48.284 145.401 48.2799 145.294 48.2976 145.19L48.5198 142.691C45.891 142.262 43.4826 140.963 41.6809 139.001C41.5808 138.917 41.5025 138.81 41.4525 138.689C41.4025 138.569 41.3823 138.438 41.3937 138.307C41.4194 138.102 41.5219 137.913 41.6806 137.779C41.8394 137.646 42.0427 137.577 42.2499 137.587C42.4587 137.604 42.6529 137.701 42.7919 137.858C44.3116 139.64 46.3965 140.847 48.6986 141.277L49.4898 132.271C44.8457 130.813 43.0357 128.9 43.3175 125.768C43.5993 122.635 46.5689 120.387 50.4544 120.63L50.5574 119.433C50.5753 119.231 50.6716 119.044 50.8256 118.913C50.9795 118.781 51.1789 118.715 51.3811 118.728ZM49.6253 130.65L50.384 122.023C47.3168 121.817 45.1329 123.475 44.9324 125.746C44.7427 127.919 45.6369 129.339 49.6253 130.672V130.65ZM50.8446 132.699L50.0805 141.418C53.2452 141.635 55.4562 139.982 55.6676 137.581C55.8627 135.424 54.871 133.999 50.8446 132.72V132.699Z" fill="#EBEBEB"/>
<path d="M190.305 46.6796L77.7188 45.0879L76.9521 99.3165L189.538 100.908L190.305 46.6796Z" fill="#EBEBEB"/>
<path d="M190.289 46.6904L186.88 46.6417L81.1215 45.1406L77.7074 45.0918L77.6587 48.5004L76.9921 95.9064L76.9434 99.3204L80.352 99.3692L186.116 100.87L189.519 100.919L190.294 46.6904H190.289ZM186.165 97.4617L80.4007 95.9552L81.0727 48.5492L186.837 50.0557L186.165 97.4617Z" fill="#DBDBDB"/>
<path d="M149.368 73.8815C149.512 63.7247 142.569 55.3912 133.86 55.2681C125.152 55.145 117.976 63.2789 117.832 73.4357C117.689 83.5925 124.632 91.926 133.34 92.0491C142.049 92.1722 149.225 84.0383 149.368 73.8815Z" fill="#DBDBDB"/>
<path d="M107.385 72.1053C107.373 72.9414 107.113 73.7552 106.639 74.4438C106.164 75.1323 105.496 75.6646 104.719 75.9734C103.942 76.2822 103.091 76.3535 102.273 76.1784C101.456 76.0033 100.708 75.5896 100.126 74.9897C99.5434 74.3897 99.152 73.6305 99.001 72.8081C98.8501 71.9856 98.9466 71.1369 99.2781 70.3692C99.6097 69.6016 100.161 68.9495 100.864 68.4955C101.566 68.0416 102.387 67.8061 103.223 67.8189C103.778 67.8266 104.326 67.9437 104.835 68.1634C105.345 68.3831 105.806 68.7011 106.193 69.0992C106.579 69.4974 106.884 69.9678 107.088 70.4836C107.293 70.9994 107.394 71.5505 107.385 72.1053Z" fill="#DBDBDB"/>
<path d="M168.321 72.9724C168.309 73.8083 168.049 74.6219 167.575 75.3103C167.101 75.9988 166.433 76.5311 165.656 76.84C164.879 77.149 164.028 77.2207 163.211 77.046C162.393 76.8714 161.646 76.4582 161.063 75.8588C160.481 75.2594 160.089 74.5007 159.937 73.6786C159.786 72.8565 159.881 72.0079 160.212 71.2402C160.543 70.4724 161.094 69.82 161.795 69.3653C162.497 68.9107 163.317 68.6743 164.153 68.686C164.708 68.6937 165.256 68.8108 165.766 69.0304C166.276 69.2501 166.738 69.568 167.125 69.966C167.512 70.3641 167.817 70.8344 168.022 71.3503C168.227 71.8661 168.328 72.4174 168.321 72.9724Z" fill="#DBDBDB"/>
<path d="M87.9437 96.0643L80.4004 95.9559L80.5088 88.418C82.5085 88.4465 84.4151 89.268 85.8093 90.7019C87.2035 92.1357 87.9712 94.0645 87.9437 96.0643Z" fill="#DBDBDB"/>
<path d="M186.266 89.9127L186.163 97.4615L178.625 97.3531C178.652 95.3534 179.472 93.4463 180.905 92.0511C182.338 90.6558 184.266 89.8867 186.266 89.9127Z" fill="#DBDBDB"/>
<path d="M179.286 49.9414L186.835 50.0498L186.726 57.5877C185.736 57.5743 184.757 57.3658 183.847 56.9743C182.937 56.5827 182.113 56.0158 181.422 55.3057C180.731 54.5957 180.187 53.7565 179.82 52.8361C179.454 51.9156 179.272 50.932 179.286 49.9414Z" fill="#DBDBDB"/>
<path d="M80.9648 56.0937L81.0732 48.5449L88.6112 48.6533C88.5977 49.6439 88.3893 50.6222 87.9977 51.5323C87.6062 52.4424 87.0392 53.2664 86.3292 53.9573C85.6191 54.6482 84.7799 55.1925 83.8595 55.5591C82.9391 55.9256 81.9555 56.1073 80.9648 56.0937Z" fill="#DBDBDB"/>
<path d="M133.986 59.7833C134.187 59.7889 134.379 59.873 134.52 60.0178C134.66 60.1625 134.739 60.3564 134.739 60.5582V61.8263C136.796 62.015 138.749 62.8153 140.348 64.124C140.476 64.2001 140.584 64.3076 140.659 64.4365C140.735 64.5654 140.777 64.7114 140.781 64.8609C140.773 65.0746 140.68 65.2764 140.524 65.4225C140.368 65.5685 140.16 65.6472 139.947 65.6413C139.841 65.6434 139.737 65.6243 139.639 65.5852C139.541 65.5462 139.452 65.4878 139.378 65.4137C138.046 64.2542 136.403 63.5133 134.652 63.284L134.527 72.1604C139.329 73.2443 141.334 75.0813 141.291 78.1864C141.242 81.5517 138.386 83.8873 134.419 83.9578L134.387 86.4343C134.37 86.6251 134.283 86.8029 134.142 86.9325C134.001 87.0621 133.817 87.1341 133.625 87.1341C133.434 87.1341 133.249 87.0621 133.108 86.9325C132.967 86.8029 132.88 86.6251 132.864 86.4343L132.902 83.9252C130.249 83.6888 127.752 82.5708 125.808 80.7497C125.725 80.6827 125.655 80.5997 125.604 80.5055C125.553 80.4113 125.522 80.3079 125.512 80.2013C125.501 80.0947 125.512 79.9872 125.544 79.885C125.576 79.7827 125.628 79.688 125.697 79.6062C125.766 79.5244 125.851 79.4573 125.947 79.4088C126.042 79.3603 126.146 79.3314 126.253 79.3239C126.36 79.3163 126.467 79.3302 126.569 79.3647C126.67 79.3993 126.763 79.4537 126.843 79.525C128.485 81.1851 130.646 82.2315 132.967 82.4892L133.097 73.4502C128.355 72.3393 126.415 70.5672 126.458 67.3971C126.502 64.2269 129.331 61.7938 133.2 61.7504V60.5474C133.201 60.4456 133.223 60.3451 133.263 60.2516C133.303 60.1581 133.361 60.0735 133.434 60.0026C133.507 59.9316 133.594 59.8757 133.688 59.8381C133.783 59.8005 133.884 59.7818 133.986 59.7833ZM133.119 71.8245L133.243 63.1539C130.165 63.1539 128.111 64.9856 128.079 67.2724C128.046 69.4401 129.043 70.784 133.119 71.8245ZM134.49 73.7807L134.365 82.5325C137.535 82.5325 139.621 80.7009 139.654 78.2948C139.686 76.1055 138.597 74.7562 134.49 73.7807Z" fill="#EBEBEB"/>
<path d="M113.819 217.907C176.329 217.907 227.002 210.226 227.002 200.751C227.002 191.275 176.329 183.594 113.819 183.594C51.3104 183.594 0.636719 191.275 0.636719 200.751C0.636719 210.226 51.3104 217.907 113.819 217.907Z" fill="#EBEBEB"/>
<path d="M181.345 41.889L65.8145 55.3789L72.3118 111.023L187.842 97.5333L181.345 41.889Z" fill="#3C8AFF"/>
<path opacity="0.1" d="M181.345 41.889L65.8145 55.3789L72.3118 111.023L187.842 97.5333L181.345 41.889Z" fill="black"/>
<path opacity="0.1" d="M181.348 41.8457L177.852 42.2575L69.3245 54.9653L65.8184 55.3717L66.2302 58.8724L71.9148 107.514L72.3267 111.02L75.822 110.608L184.355 97.9223L187.85 97.5158L181.358 41.8457H181.348ZM183.949 94.4107L75.4155 107.102L69.7363 58.4606L178.259 45.7854L183.949 94.4107Z" fill="black"/>
<path opacity="0.1" d="M129.114 96.0072C138.05 94.9638 144.307 85.6691 143.09 75.2469C141.874 64.8247 133.643 57.2217 124.707 58.2651C115.771 59.3085 109.514 68.6032 110.731 79.0254C111.948 89.4476 120.178 97.0506 129.114 96.0072Z" fill="black"/>
<path opacity="0.1" d="M99.8455 79.0468C99.9458 79.9038 99.7897 80.7712 99.397 81.5395C99.0042 82.3077 98.3925 82.9422 97.6391 83.3628C96.8857 83.7834 96.0246 83.9711 95.1645 83.9022C94.3044 83.8333 93.4841 83.511 92.8073 82.9758C92.1304 82.4407 91.6275 81.7169 91.362 80.896C91.0965 80.075 91.0805 79.1938 91.3159 78.3637C91.5512 77.5336 92.0275 76.792 92.6844 76.2325C93.3413 75.6731 94.1493 75.3211 95.0063 75.2209C96.1554 75.0866 97.3107 75.4142 98.2182 76.1317C99.1257 76.8492 99.7111 77.8978 99.8455 79.0468Z" fill="black"/>
<path opacity="0.1" d="M162.372 71.7436C162.471 72.6002 162.314 73.467 161.92 74.2344C161.527 75.0018 160.915 75.6355 160.162 76.0552C159.408 76.475 158.547 76.6621 157.688 76.5929C156.828 76.5236 156.009 76.2012 155.332 75.6663C154.656 75.1313 154.153 74.4079 153.888 73.5875C153.622 72.767 153.606 71.8862 153.841 71.0565C154.076 70.2267 154.551 69.4852 155.207 68.9256C155.863 68.3659 156.671 68.0133 157.527 67.9123C158.677 67.778 159.834 68.1062 160.743 68.8247C161.651 69.5432 162.237 70.5931 162.372 71.7436Z" fill="black"/>
<path opacity="0.1" d="M83.1547 106.203L75.4108 107.103L74.5059 99.3696C75.5225 99.2502 76.5527 99.3323 77.5375 99.6111C78.5224 99.8899 79.4428 100.36 80.2459 100.995C81.0491 101.629 81.7194 102.416 82.2185 103.309C82.7176 104.203 83.0357 105.186 83.1547 106.203Z" fill="black"/>
<path opacity="0.1" d="M183.038 86.6836L183.943 94.4112L176.21 95.3162C175.973 93.2665 176.559 91.2066 177.839 89.5883C179.119 87.97 180.989 86.9254 183.038 86.6836Z" fill="black"/>
<path opacity="0.1" d="M170.518 46.6843L178.256 45.7793L179.161 53.5123C178.145 53.6317 177.116 53.5498 176.131 53.2713C175.147 52.9927 174.227 52.523 173.425 51.8889C172.622 51.2548 171.952 50.4689 171.453 49.5758C170.955 48.6828 170.637 47.7002 170.518 46.6843Z" fill="black"/>
<path opacity="0.1" d="M70.6315 66.1986L69.7266 58.4547L77.4596 57.5605C77.6977 59.6111 77.1125 61.6724 75.8323 63.2919C74.5522 64.9114 72.6817 65.9568 70.6315 66.1986Z" fill="black"/>
<path d="M125.435 62.8564C125.642 62.8334 125.849 62.8928 126.013 63.0216C126.176 63.1504 126.282 63.3383 126.308 63.5446L126.459 64.8452C128.593 64.7594 130.704 65.3163 132.518 66.4438C132.66 66.5051 132.784 66.6014 132.879 66.7236C132.974 66.8458 133.036 66.9901 133.06 67.1429C133.081 67.3627 133.014 67.582 132.874 67.7526C132.734 67.9232 132.532 68.0314 132.312 68.0533C132.205 68.07 132.095 68.0646 131.99 68.0376C131.884 68.0106 131.786 67.9625 131.7 67.8961C130.178 66.8889 128.393 66.3518 126.568 66.3517L127.652 75.4612C132.718 75.9218 135.016 77.5367 135.39 80.7231C135.791 84.175 133.185 86.955 129.131 87.5565L129.424 90.0981C129.441 90.3019 129.379 90.5045 129.249 90.6629C129.12 90.8212 128.933 90.9228 128.73 90.9461C128.527 90.9694 128.323 90.9125 128.161 90.7876C127.999 90.6626 127.892 90.4794 127.863 90.2769L127.565 87.7083C124.816 87.8237 122.108 87.0126 119.875 85.4052C119.756 85.3417 119.654 85.2504 119.578 85.1391C119.501 85.0278 119.453 84.8997 119.436 84.7657C119.42 84.5512 119.485 84.3384 119.619 84.1697C119.752 84.001 119.945 83.8887 120.157 83.8553C120.375 83.8275 120.594 83.8858 120.769 84.0179C122.679 85.501 125.039 86.2835 127.457 86.2343L126.373 76.9623C121.366 76.4583 119.144 74.903 118.759 71.6516C118.374 68.4001 120.927 65.5226 124.904 64.9644L124.763 63.7235C124.742 63.5201 124.799 63.3162 124.925 63.1546C125.05 62.9929 125.233 62.8861 125.435 62.8564ZM126.161 75.3203L125.126 66.433C121.978 66.8719 120.114 69.0016 120.39 71.3427C120.65 73.5374 121.848 74.7838 126.161 75.304V75.3203ZM127.83 77.1357L128.876 86.1151C132.128 85.6707 134.019 83.5356 133.726 81.0645C133.466 78.8047 132.166 77.5692 127.83 77.1194V77.1357Z" fill="#3C8AFF"/>
<path d="M218.805 133.938H175.875V155.722H218.805V133.938Z" fill="#3C8AFF"/>
<path d="M213.881 145.943C214.497 143.323 212.873 140.701 210.254 140.085C207.634 139.469 205.012 141.093 204.396 143.713C203.78 146.332 205.405 148.954 208.024 149.57C210.643 150.186 213.265 148.562 213.881 145.943Z" fill="#EBEBEB"/>
<path d="M209.147 147.496C210.619 147.496 211.813 146.303 211.813 144.83C211.813 143.358 210.619 142.164 209.147 142.164C207.674 142.164 206.48 143.358 206.48 144.83C206.48 146.303 207.674 147.496 209.147 147.496Z" fill="#DBDBDB"/>
<path d="M192.851 95.457H62.9121V192.475H192.851V95.457Z" fill="#3C8AFF"/>
<path opacity="0.1" d="M192.851 95.457H62.9121V192.475H192.851V95.457Z" fill="black"/>
<path d="M169.486 46.4784L182.448 105.059C182.794 106.629 182.502 108.273 181.638 109.629C180.773 110.985 179.406 111.943 177.836 112.293L84.9209 132.885C84.1424 133.058 83.3374 133.075 82.5522 132.936C81.767 132.797 81.0169 132.504 80.3449 132.075C79.6729 131.646 79.0922 131.088 78.636 130.434C78.1799 129.78 77.8572 129.042 77.6865 128.263L64.7186 69.6611C64.3959 68.1981 64.6673 66.6668 65.4731 65.4037C66.2789 64.1406 67.5532 63.2492 69.016 62.9252L162.766 42.181C164.226 41.8646 165.753 42.1389 167.012 42.9441C168.271 43.7492 169.16 45.0198 169.486 46.4784Z" fill="#455A64"/>
<path d="M91.9758 68.3929L76.7535 71.7621C75.5262 72.0337 74.7515 73.2488 75.0231 74.4761L77.0478 83.6243C77.3195 84.8516 78.5346 85.6264 79.7619 85.3547L94.9842 81.9856C96.2115 81.714 96.9862 80.4988 96.7146 79.2715L94.6898 70.1233C94.4182 68.896 93.2031 68.1213 91.9758 68.3929Z" fill="#3C8AFF"/>
<path d="M160.026 61.1588L151.133 63.126C150.644 63.2376 150.137 63.2508 149.642 63.1648C149.147 63.0788 148.674 62.8954 148.25 62.6252C147.827 62.355 147.461 62.0033 147.175 61.5907C146.888 61.178 146.686 60.7126 146.581 60.2214C146.47 59.7319 146.456 59.2252 146.542 58.7306C146.628 58.2359 146.81 57.7632 147.08 57.3398C147.35 56.9163 147.701 56.5507 148.113 56.2639C148.525 55.9772 148.99 55.7751 149.481 55.6693L158.379 53.7022C158.868 53.5906 159.376 53.5774 159.871 53.6634C160.365 53.7493 160.838 53.9328 161.262 54.203C161.685 54.4732 162.051 54.8248 162.337 55.2375C162.624 55.6502 162.826 56.1156 162.931 56.6068C163.149 57.5956 162.965 58.6304 162.42 59.4839C161.876 60.3374 161.015 60.9399 160.026 61.1588Z" fill="white"/>
<path d="M79.5591 98.3995L78.86 99.0498C78.8348 99.0759 78.8029 99.0946 78.7679 99.104C78.733 99.1113 78.6968 99.1097 78.6627 99.0993C78.6286 99.0889 78.5977 99.07 78.5728 99.0444C78.5529 99.0261 78.5371 99.0039 78.5262 98.9792C78.5154 98.9545 78.5098 98.9278 78.5098 98.9008C78.5098 98.8738 78.5154 98.8471 78.5262 98.8224C78.5371 98.7977 78.5529 98.7755 78.5728 98.7572L79.5266 97.8468C79.5653 97.8121 79.6155 97.793 79.6675 97.793C79.7194 97.793 79.7696 97.8121 79.8084 97.8468C79.8435 97.8857 79.8645 97.9353 79.868 97.9877L81.0276 103.228C81.039 103.28 81.0294 103.334 81.0009 103.378C80.9725 103.423 80.9276 103.455 80.8759 103.466C80.8236 103.476 80.7695 103.466 80.7242 103.438C80.679 103.41 80.6461 103.366 80.632 103.315L79.5591 98.3995Z" fill="#F8F8F8"/>
<path d="M82.3894 102.778L84.5191 99.7868C84.6425 99.6149 84.7285 99.419 84.7714 99.2117C84.8143 99.0045 84.8133 98.7906 84.7683 98.5838C84.6791 98.1978 84.4413 97.8625 84.1066 97.6505C83.7719 97.4385 83.3672 97.3669 82.98 97.4512C82.6115 97.5297 82.2852 97.7421 82.0642 98.0473L81.8475 98.3616C81.8173 98.4061 81.7706 98.4369 81.7178 98.447C81.6649 98.4572 81.6102 98.446 81.5657 98.4158C81.5211 98.3856 81.4904 98.3389 81.4802 98.2861C81.4701 98.2333 81.4813 98.1785 81.5115 98.134L81.7337 97.8088C82.0134 97.424 82.4237 97.1543 82.8879 97.0502C83.3806 96.9449 83.8948 97.0376 84.3197 97.3084C84.7445 97.5791 85.0458 98.0061 85.1585 98.4971C85.2168 98.758 85.22 99.0283 85.1677 99.2905C85.1155 99.5528 85.009 99.8012 84.855 100.02L83.0288 102.583L85.7383 101.987C85.7915 101.977 85.8462 101.989 85.8908 102.019C85.9354 102.05 85.9663 102.097 85.9768 102.15C85.9881 102.201 85.9785 102.255 85.9501 102.3C85.9217 102.345 85.8767 102.376 85.8251 102.388L82.6603 103.082H82.6278C82.6004 103.09 82.5716 103.091 82.5434 103.087C82.5153 103.082 82.4885 103.071 82.4652 103.054C82.4211 103.026 82.3891 102.982 82.3751 102.931C82.3611 102.88 82.3662 102.826 82.3894 102.778Z" fill="#F8F8F8"/>
<path d="M89.5631 95.956L88.4251 97.7985C88.8812 97.7864 89.327 97.9351 89.6846 98.2184C90.0422 98.5017 90.2888 98.9016 90.3814 99.3483C90.4397 99.6027 90.4463 99.8662 90.4007 100.123C90.3551 100.38 90.2582 100.625 90.1159 100.844C89.832 101.288 89.3839 101.602 88.8695 101.716C88.6165 101.773 88.3546 101.779 88.0995 101.732C87.8444 101.686 87.6013 101.588 87.3847 101.446C87.3615 101.432 87.3413 101.413 87.3254 101.391C87.3095 101.37 87.2982 101.345 87.2921 101.318C87.2861 101.292 87.2854 101.265 87.2901 101.238C87.2948 101.212 87.3049 101.186 87.3196 101.164C87.334 101.14 87.3529 101.12 87.3752 101.104C87.3975 101.088 87.4228 101.077 87.4496 101.071C87.4763 101.065 87.504 101.064 87.531 101.069C87.558 101.074 87.5838 101.084 87.6069 101.099C87.9585 101.319 88.3828 101.393 88.7883 101.304C89.1938 101.215 89.548 100.97 89.7745 100.622C89.8872 100.448 89.964 100.254 90.0003 100.05C90.0366 99.846 90.0317 99.637 89.9858 99.4351C89.894 99.032 89.6464 98.6815 89.2972 98.4602C88.948 98.2389 88.5254 98.1647 88.1217 98.2537C88.0901 98.2593 88.0577 98.2578 88.0268 98.2494C87.9959 98.2409 87.9672 98.2258 87.9428 98.2049C87.9187 98.1906 87.8978 98.1714 87.8813 98.1487C87.8649 98.1259 87.8532 98.1 87.8471 98.0726C87.8411 98.0452 87.8406 98.0169 87.8459 97.9893C87.8512 97.9617 87.862 97.9355 87.8778 97.9123L88.9616 96.1403L86.794 96.6226C86.7673 96.6289 86.7396 96.6299 86.7125 96.6254C86.6854 96.621 86.6595 96.6111 86.6363 96.5965C86.613 96.5818 86.593 96.5627 86.5772 96.5402C86.5615 96.5177 86.5505 96.4922 86.5447 96.4654C86.5383 96.4387 86.5373 96.411 86.5418 96.3839C86.5463 96.3568 86.5562 96.3309 86.5708 96.3077C86.5854 96.2844 86.6046 96.2644 86.6271 96.2487C86.6496 96.2329 86.675 96.2219 86.7019 96.2161L89.3681 95.6254C89.4226 95.6142 89.4795 95.625 89.5262 95.6554C89.5728 95.6859 89.6056 95.7335 89.6173 95.788C89.6256 95.8182 89.6256 95.85 89.6173 95.8801C89.6031 95.908 89.5849 95.9336 89.5631 95.956Z" fill="#F8F8F8"/>
<path d="M95.277 99.066L92.1881 99.7488C92.1668 99.7582 92.1437 99.7631 92.1204 99.7631C92.0971 99.7631 92.074 99.7582 92.0526 99.7488C92.0285 99.7375 92.0069 99.7212 91.9895 99.701C91.972 99.6808 91.959 99.6571 91.9514 99.6315C91.9437 99.6059 91.9415 99.579 91.9449 99.5525C91.9484 99.5261 91.9574 99.5006 91.9713 99.4779L94.3612 94.6386C94.3726 94.6145 94.3889 94.5931 94.409 94.5755C94.429 94.558 94.4525 94.5447 94.4779 94.5366C94.5033 94.5285 94.53 94.5257 94.5566 94.5283C94.5831 94.5309 94.6088 94.539 94.6321 94.5519C94.6674 94.5737 94.6971 94.6033 94.7188 94.6386C94.7188 94.6386 94.7188 94.6386 94.7188 94.6657V94.6928L95.5859 98.6054L95.9652 98.5187C95.9915 98.5122 96.0189 98.511 96.0457 98.5151C96.0725 98.5193 96.0982 98.5287 96.1214 98.5428C96.1445 98.5569 96.1647 98.5754 96.1807 98.5973C96.1966 98.6192 96.2081 98.6441 96.2145 98.6704C96.22 98.6968 96.2201 98.724 96.2148 98.7504C96.2095 98.7768 96.199 98.8019 96.1838 98.8242C96.1687 98.8464 96.1492 98.8654 96.1265 98.8799C96.1038 98.8945 96.0785 98.9043 96.0519 98.9089L95.6726 98.9956L95.8893 99.9764C95.8958 100.028 95.8829 100.079 95.8531 100.121C95.8233 100.163 95.7789 100.193 95.7286 100.203C95.6782 100.214 95.6256 100.206 95.5812 100.18C95.5367 100.154 95.5036 100.112 95.4883 100.063L95.277 99.066ZM95.1903 98.6758L94.4533 95.3377L92.4916 99.2882L95.1903 98.6758Z" fill="#F8F8F8"/>
<path d="M102.56 98.0964C102.537 98.0826 102.517 98.0642 102.501 98.0422C102.485 98.0202 102.474 97.9951 102.469 97.9686C102.463 97.9421 102.463 97.9147 102.468 97.8882C102.474 97.8617 102.485 97.8366 102.501 97.8146C102.515 97.7905 102.534 97.7695 102.557 97.7531C102.58 97.7366 102.606 97.725 102.633 97.7189C102.661 97.7128 102.689 97.7124 102.716 97.7177C102.744 97.7229 102.77 97.7338 102.793 97.7496C103.143 97.9664 103.563 98.0383 103.964 97.9501C104.367 97.8581 104.718 97.6108 104.94 97.2618C105.163 96.9128 105.238 96.4903 105.151 96.0859C105.11 95.8848 105.029 95.694 104.913 95.5248C104.797 95.3555 104.648 95.2113 104.475 95.1006C104.302 94.99 104.109 94.9151 103.907 94.8805C103.704 94.8459 103.497 94.8522 103.297 94.8991C103.095 94.9423 102.904 95.0255 102.735 95.1437C102.565 95.2619 102.421 95.4127 102.311 95.5874C102.297 95.6105 102.279 95.6307 102.257 95.6466C102.235 95.6625 102.21 95.6738 102.184 95.6799C102.158 95.686 102.131 95.6867 102.104 95.6819C102.077 95.6772 102.052 95.6672 102.029 95.6524C102.003 95.6406 101.981 95.6219 101.964 95.5982C101.96 95.5767 101.96 95.5547 101.964 95.5332C101.967 95.5189 101.967 95.5041 101.964 95.4898L101.731 93.1325C101.726 93.1035 101.728 93.0737 101.737 93.0455C101.745 93.0173 101.76 92.9914 101.78 92.9699C101.793 92.9491 101.811 92.9311 101.831 92.9171C101.852 92.9032 101.875 92.8935 101.899 92.8887L104.56 92.3034C104.587 92.2977 104.614 92.2973 104.641 92.3023C104.668 92.3072 104.694 92.3174 104.716 92.3323C104.739 92.3471 104.759 92.3663 104.775 92.3888C104.79 92.4113 104.801 92.4366 104.807 92.4633C104.812 92.49 104.813 92.5175 104.808 92.5443C104.803 92.5712 104.793 92.5968 104.778 92.6197C104.763 92.6426 104.744 92.6623 104.721 92.6778C104.699 92.6932 104.673 92.7041 104.647 92.7098L102.165 93.2517L102.333 94.9967C102.686 94.6704 103.146 94.484 103.627 94.4724C104.108 94.4608 104.576 94.6248 104.945 94.9336C105.314 95.2425 105.557 95.6751 105.63 96.1505C105.703 96.6259 105.6 97.1115 105.34 97.5165C105.051 97.9546 104.605 98.2649 104.094 98.3836C103.832 98.4416 103.561 98.446 103.298 98.3967C103.034 98.3473 102.784 98.2452 102.56 98.0964Z" fill="#F8F8F8"/>
<path d="M107.132 92.9967C107.242 92.5889 107.46 92.2181 107.762 91.9227C108.064 91.6273 108.44 91.4181 108.85 91.3168C108.902 91.3036 108.958 91.3115 109.004 91.3389C109.051 91.3663 109.085 91.4109 109.099 91.4631C109.109 91.5168 109.1 91.5725 109.072 91.6195C109.044 91.6665 108.999 91.7015 108.947 91.7178C108.605 91.8021 108.291 91.9768 108.04 92.2237C107.788 92.4706 107.607 92.7807 107.517 93.1214C107.397 93.52 107.344 93.9356 107.359 94.3515C107.577 93.9621 107.923 93.6607 108.339 93.4991C108.755 93.3374 109.214 93.3257 109.637 93.4659C110.061 93.6061 110.422 93.8894 110.659 94.2672C110.896 94.6449 110.994 95.0935 110.936 95.5358C110.879 95.978 110.668 96.3863 110.342 96.6904C110.016 96.9945 109.594 97.1754 109.149 97.202C108.703 97.2286 108.263 97.0992 107.903 96.8361C107.542 96.573 107.285 96.1927 107.175 95.7605C107.134 95.6383 107.101 95.5133 107.078 95.3865C106.892 94.5983 106.911 93.7758 107.132 92.9967ZM107.565 95.6358C107.575 95.6721 107.589 95.7069 107.609 95.7388C107.614 95.7583 107.614 95.7788 107.609 95.7984C107.741 96.1753 108.014 96.4862 108.371 96.6654C108.728 96.8445 109.141 96.8778 109.522 96.7583C109.903 96.6388 110.223 96.3758 110.413 96.025C110.604 95.6741 110.651 95.2627 110.544 94.8779C110.437 94.4931 110.185 94.1649 109.841 93.9627C109.496 93.7604 109.087 93.7 108.698 93.7942C108.31 93.8884 107.974 94.1298 107.76 94.4673C107.547 94.8049 107.473 95.2123 107.555 95.6033L107.565 95.6358Z" fill="#F8F8F8"/>
<path d="M113.363 96.0033L114.36 90.5354L111.613 91.1586C111.563 91.1655 111.512 91.1534 111.471 91.1247C111.429 91.0959 111.4 91.0527 111.39 91.0035C111.379 90.9543 111.387 90.9029 111.412 90.8593C111.437 90.8158 111.478 90.7833 111.526 90.7684L114.544 90.1019C114.583 90.091 114.625 90.091 114.664 90.1019C114.719 90.1166 114.768 90.1513 114.799 90.1994C114.799 90.2265 114.826 90.2374 114.832 90.2645C114.842 90.3016 114.842 90.3411 114.832 90.3783L113.786 96.1116C113.778 96.1502 113.76 96.1858 113.733 96.2145C113.706 96.2432 113.672 96.2639 113.634 96.2742C113.606 96.2823 113.576 96.2823 113.547 96.2742C113.517 96.2698 113.488 96.259 113.461 96.2427C113.435 96.2264 113.413 96.2048 113.396 96.1793C113.378 96.1538 113.366 96.125 113.361 96.0947C113.355 96.0644 113.356 96.0333 113.363 96.0033Z" fill="#F8F8F8"/>
<path d="M117.801 89.3286C118.052 89.2721 118.314 89.2965 118.549 89.3982C118.785 89.5 118.983 89.6739 119.113 89.8949C119.244 90.1159 119.301 90.3727 119.277 90.6283C119.252 90.8839 119.147 91.1251 118.977 91.3174C119.408 91.3933 119.799 91.6162 120.084 91.9482C120.369 92.2802 120.53 92.7007 120.54 93.1381C120.55 93.5755 120.407 94.0027 120.137 94.347C119.867 94.6912 119.486 94.9313 119.059 95.0262C118.632 95.1211 118.185 95.065 117.795 94.8674C117.405 94.6699 117.095 94.3432 116.919 93.9429C116.742 93.5425 116.71 93.0934 116.827 92.672C116.945 92.2506 117.205 91.8829 117.563 91.6317C117.391 91.5507 117.24 91.4314 117.122 91.283C117.004 91.1345 116.921 90.9609 116.88 90.7755C116.845 90.6199 116.841 90.459 116.868 90.3019C116.896 90.1449 116.954 89.9947 117.039 89.8602C117.125 89.7257 117.237 89.6095 117.367 89.5183C117.498 89.427 117.646 89.3626 117.801 89.3286ZM118.977 94.6447C119.266 94.5809 119.53 94.4329 119.734 94.2194C119.939 94.0059 120.076 93.7365 120.128 93.4452C120.179 93.1539 120.143 92.8539 120.024 92.583C119.906 92.3122 119.709 92.0826 119.46 91.9235C119.21 91.7643 118.919 91.6827 118.624 91.6889C118.328 91.6951 118.041 91.7888 117.798 91.9583C117.556 92.1277 117.369 92.3653 117.261 92.6409C117.154 92.9165 117.131 93.2178 117.194 93.5067C117.235 93.6992 117.314 93.8816 117.426 94.0433C117.539 94.205 117.682 94.3429 117.848 94.4487C118.014 94.5546 118.199 94.6265 118.393 94.6601C118.587 94.6938 118.785 94.6885 118.977 94.6447ZM118.24 91.3174C118.452 91.2683 118.635 91.1377 118.751 90.954C118.867 90.7703 118.905 90.5484 118.858 90.3365C118.811 90.126 118.683 89.9426 118.501 89.8267C118.319 89.7109 118.099 89.672 117.888 89.7188C117.677 89.7655 117.494 89.8939 117.378 90.0758C117.262 90.2577 117.224 90.4782 117.27 90.6888C117.317 90.8999 117.445 91.0842 117.627 91.2018C117.808 91.3194 118.028 91.3609 118.24 91.3174Z" fill="#F8F8F8"/>
<path d="M127.941 87.0844C128.403 86.9799 128.888 87.0499 129.302 87.2809C129.716 87.512 130.03 87.8878 130.184 88.3362C130.184 88.3362 130.184 88.3362 130.184 88.3687C130.228 88.5259 130.271 88.683 130.309 88.8565C130.495 89.6459 130.48 90.4695 130.266 91.2517C130.152 91.6586 129.932 92.0282 129.63 92.3232C129.327 92.6181 128.952 92.828 128.542 92.9316C128.517 92.9398 128.49 92.9425 128.464 92.9397C128.438 92.9369 128.412 92.9286 128.389 92.9154C128.366 92.9021 128.346 92.8841 128.331 92.8626C128.315 92.8412 128.304 92.8167 128.298 92.7907C128.291 92.7644 128.289 92.7368 128.292 92.7097C128.296 92.6826 128.305 92.6564 128.318 92.6327C128.332 92.609 128.35 92.5882 128.372 92.5716C128.394 92.555 128.418 92.5429 128.445 92.536C128.787 92.451 129.101 92.2761 129.354 92.0294C129.606 91.7827 129.788 91.473 129.881 91.1325C130 90.7338 130.051 90.318 130.033 89.9023C129.876 90.1841 129.652 90.4222 129.38 90.5951C129.109 90.7679 128.798 90.87 128.476 90.8919C128.155 90.9138 127.833 90.8549 127.541 90.7206C127.248 90.5862 126.993 90.3807 126.8 90.1228C126.607 89.8649 126.482 89.5627 126.436 89.2439C126.39 88.9252 126.424 88.5999 126.536 88.2978C126.648 87.9957 126.833 87.7264 127.076 87.5144C127.318 87.3025 127.61 87.1546 127.925 87.0844H127.941ZM129.848 88.6289C129.784 88.3349 129.633 88.0667 129.416 87.8582C129.199 87.6496 128.926 87.51 128.629 87.457C128.333 87.404 128.028 87.44 127.752 87.5604C127.476 87.6808 127.242 87.8802 127.08 88.1335C126.917 88.3867 126.833 88.6825 126.839 88.9834C126.844 89.2843 126.939 89.5769 127.11 89.8241C127.282 90.0714 127.523 90.2622 127.803 90.3726C128.083 90.483 128.389 90.5079 128.683 90.4442C128.879 90.4018 129.065 90.3212 129.229 90.207C129.394 90.0927 129.534 89.9471 129.643 89.7784C129.751 89.6098 129.825 89.4214 129.86 89.2241C129.895 89.0269 129.891 88.8246 129.848 88.6289Z" fill="#F8F8F8"/>
<path d="M131.907 89.1972C131.736 88.4975 131.772 87.7634 132.01 87.0837C132.091 86.7944 132.248 86.5324 132.467 86.3258C132.685 86.1191 132.955 85.9756 133.248 85.9105C133.541 85.8454 133.846 85.8612 134.131 85.9561C134.416 86.0511 134.67 86.2217 134.866 86.4497C135.368 86.9684 135.714 87.6183 135.863 88.3247C136.026 89.026 135.985 89.7596 135.744 90.4381C135.672 90.7334 135.518 91.0027 135.301 91.2152C135.084 91.4278 134.811 91.5751 134.514 91.6406C134.218 91.7061 133.908 91.687 133.622 91.5856C133.335 91.4841 133.083 91.3044 132.893 91.0667C132.387 90.5544 132.044 89.9039 131.907 89.1972ZM132.308 89.1104C132.434 89.737 132.737 90.3143 133.181 90.7741C133.326 90.9531 133.518 91.0881 133.736 91.1639C133.954 91.2397 134.188 91.2534 134.413 91.2033C134.639 91.1532 134.845 91.0414 135.01 90.8804C135.175 90.7194 135.292 90.5156 135.348 90.2918C135.551 89.6862 135.585 89.0369 135.446 88.4134C135.308 87.79 135.002 87.2161 134.562 86.7531C134.417 86.5741 134.225 86.4391 134.007 86.3633C133.789 86.2875 133.554 86.2739 133.329 86.324C133.104 86.3741 132.898 86.4859 132.733 86.6469C132.567 86.8079 132.45 87.0117 132.395 87.2354C132.185 87.8389 132.155 88.4902 132.308 89.1104Z" fill="#F8F8F8"/>
<path d="M137.992 85.47L137.293 86.1203C137.268 86.1463 137.236 86.1651 137.201 86.1745C137.166 86.1818 137.13 86.1802 137.096 86.1697C137.062 86.1593 137.031 86.1404 137.006 86.1148C136.987 86.0962 136.971 86.0738 136.961 86.0492C136.951 86.0245 136.945 85.998 136.945 85.9712C136.945 85.9445 136.951 85.918 136.961 85.8933C136.971 85.8686 136.987 85.8463 137.006 85.8276L137.96 84.9172C137.997 84.8802 138.048 84.8594 138.101 84.8594C138.153 84.8594 138.204 84.8802 138.241 84.9172C138.277 84.9561 138.298 85.0058 138.301 85.0581L139.461 90.2984C139.472 90.3501 139.462 90.4042 139.434 90.4489C139.406 90.4935 139.361 90.5252 139.309 90.5368C139.257 90.5467 139.204 90.5365 139.16 90.5083C139.115 90.4801 139.083 90.436 139.071 90.3851L137.992 85.47Z" fill="#F8F8F8"/>
<path d="M140.846 89.8484L142.975 86.8517C143.099 86.6809 143.185 86.4859 143.228 86.2795C143.271 86.0731 143.27 85.86 143.225 85.6541C143.144 85.291 142.929 84.9718 142.623 84.7599C142.454 84.6381 142.26 84.5539 142.055 84.5127C141.851 84.4716 141.64 84.4746 141.436 84.5215C141.07 84.598 140.745 84.8086 140.526 85.1122L140.304 85.4265C140.29 85.4501 140.272 85.4705 140.249 85.4862C140.227 85.502 140.202 85.5129 140.175 85.518C140.149 85.5232 140.121 85.5225 140.095 85.516C140.068 85.5096 140.043 85.4975 140.022 85.4807C140 85.4666 139.98 85.4479 139.966 85.426C139.951 85.4041 139.941 85.3793 139.936 85.3533C139.932 85.3272 139.933 85.3006 139.939 85.2749C139.945 85.2492 139.957 85.2252 139.973 85.2043L140.19 84.8792C140.47 84.4943 140.88 84.2246 141.344 84.1205C141.837 84.0152 142.351 84.108 142.776 84.3787C143.201 84.6494 143.502 85.0764 143.615 85.5674C143.673 85.8283 143.676 86.0986 143.624 86.3608C143.572 86.6231 143.465 86.8715 143.311 87.0901L141.485 89.6534L144.195 89.0573C144.248 89.0477 144.303 89.0594 144.347 89.0898C144.392 89.1202 144.423 89.1669 144.433 89.2198C144.444 89.2716 144.435 89.3257 144.406 89.3703C144.378 89.415 144.333 89.4466 144.281 89.4583L141.106 90.1627H141.073C141.048 90.1748 141.02 90.181 140.992 90.181C140.964 90.181 140.936 90.1748 140.911 90.1627C140.885 90.1474 140.862 90.1267 140.845 90.1022C140.827 90.0776 140.815 90.0496 140.809 90.02C140.802 89.9904 140.803 89.9598 140.809 89.9303C140.815 89.9008 140.828 89.8729 140.846 89.8484Z" fill="#F8F8F8"/>
<path d="M152.884 81.9475L151.746 83.79C152.129 83.7847 152.505 83.8901 152.83 84.0935C153.16 84.3058 153.42 84.6112 153.577 84.971C153.734 85.3309 153.781 85.7292 153.712 86.1157C153.643 86.5022 153.461 86.8597 153.19 87.1431C152.918 87.4264 152.568 87.623 152.185 87.708C151.932 87.765 151.67 87.7703 151.415 87.7238C151.16 87.6772 150.917 87.5797 150.7 87.4371C150.677 87.4232 150.657 87.4048 150.641 87.383C150.625 87.3612 150.614 87.3363 150.608 87.31C150.602 87.2837 150.601 87.2564 150.606 87.2298C150.61 87.2032 150.62 87.1779 150.635 87.1553C150.65 87.1319 150.668 87.1116 150.691 87.0957C150.713 87.0797 150.738 87.0684 150.765 87.0623C150.792 87.0563 150.82 87.0556 150.847 87.0604C150.874 87.0652 150.899 87.0754 150.922 87.0902C151.139 87.2299 151.388 87.3137 151.645 87.3343C151.902 87.3549 152.16 87.3117 152.397 87.2084C152.633 87.1051 152.841 86.9449 153 86.7422C153.16 86.5395 153.267 86.3005 153.312 86.0464C153.357 85.7923 153.338 85.531 153.258 85.2858C153.178 85.0406 153.038 84.819 152.852 84.6407C152.665 84.4625 152.437 84.3331 152.189 84.2641C151.94 84.1951 151.678 84.1886 151.426 84.2452C151.395 84.2512 151.362 84.2499 151.331 84.2415C151.3 84.233 151.272 84.2176 151.248 84.1965C151.201 84.1654 151.168 84.1177 151.156 84.0632C151.144 84.0087 151.154 83.9516 151.183 83.9038L152.266 82.1264L150.099 82.6141C150.044 82.6253 149.987 82.6146 149.941 82.5841C149.894 82.5537 149.861 82.506 149.849 82.4515C149.843 82.4248 149.842 82.3971 149.847 82.37C149.851 82.3429 149.861 82.317 149.875 82.2938C149.89 82.2706 149.909 82.2505 149.932 82.2348C149.954 82.219 149.98 82.208 150.007 82.2022L152.673 81.617C152.699 81.6106 152.727 81.6096 152.754 81.6141C152.781 81.6186 152.807 81.6284 152.83 81.6431C152.854 81.6577 152.874 81.6768 152.889 81.6993C152.905 81.7219 152.916 81.7473 152.922 81.7741C152.93 81.8043 152.93 81.8361 152.922 81.8663C152.913 81.895 152.901 81.9224 152.884 81.9475Z" fill="#F8F8F8"/>
<path d="M158.596 85.0579L155.507 85.7407H155.48C155.438 85.7565 155.391 85.7565 155.35 85.7407C155.325 85.7292 155.304 85.7129 155.286 85.6929C155.269 85.6728 155.256 85.6493 155.248 85.6239C155.239 85.5986 155.237 85.5718 155.239 85.5452C155.242 85.5187 155.25 85.493 155.263 85.4697L157.658 80.6305C157.67 80.6069 157.687 80.5859 157.707 80.5689C157.727 80.552 157.751 80.5393 157.776 80.5317C157.801 80.5241 157.828 80.5217 157.854 80.5247C157.881 80.5277 157.906 80.536 157.929 80.5492C157.964 80.5689 157.994 80.5968 158.016 80.6305C158.015 80.6413 158.015 80.6522 158.016 80.663L158.883 84.5756L159.262 84.4889C159.288 84.4832 159.315 84.4826 159.341 84.4873C159.367 84.492 159.392 84.5018 159.415 84.5161C159.437 84.5305 159.456 84.5491 159.472 84.5709C159.487 84.5927 159.498 84.6173 159.503 84.6433C159.509 84.6693 159.509 84.6961 159.505 84.7223C159.5 84.7485 159.49 84.7735 159.476 84.7959C159.462 84.8182 159.443 84.8376 159.421 84.8528C159.399 84.868 159.375 84.8787 159.349 84.8844L158.97 84.9657L159.181 85.9466C159.186 85.9726 159.187 85.9994 159.182 86.0255C159.177 86.0516 159.167 86.0765 159.152 86.0987C159.138 86.1209 159.119 86.1399 159.097 86.1547C159.075 86.1696 159.05 86.1799 159.024 86.185C158.998 86.1914 158.971 86.1925 158.945 86.1882C158.919 86.184 158.894 86.1745 158.872 86.1603C158.85 86.1461 158.83 86.1275 158.816 86.1057C158.801 86.0838 158.79 86.0592 158.785 86.0333L158.596 85.0579ZM158.509 84.6623L157.766 81.3241L155.81 85.2638L158.509 84.6623Z" fill="#F8F8F8"/>
<path d="M160.992 85.1667C160.969 85.1519 160.949 85.1327 160.934 85.1102C160.919 85.0877 160.908 85.0623 160.902 85.0356C160.897 85.0088 160.897 84.9813 160.902 84.9545C160.907 84.9277 160.917 84.9022 160.933 84.8795C160.964 84.833 161.011 84.8004 161.066 84.7882C161.12 84.7761 161.177 84.7855 161.225 84.8145C161.573 85.0354 161.994 85.1094 162.396 85.0204C162.799 84.9284 163.15 84.6811 163.372 84.3321C163.594 83.9831 163.67 83.5606 163.582 83.1562C163.541 82.9551 163.461 82.7643 163.344 82.5951C163.228 82.4258 163.08 82.2816 162.907 82.1709C162.734 82.0603 162.541 81.9854 162.338 81.9508C162.136 81.9162 161.929 81.9225 161.729 81.9694C161.528 82.0128 161.337 82.096 161.169 82.2142C161 82.3324 160.857 82.4832 160.748 82.6577C160.734 82.681 160.715 82.7013 160.693 82.7173C160.67 82.7332 160.645 82.7446 160.618 82.7506C160.592 82.7567 160.564 82.7573 160.537 82.7525C160.51 82.7477 160.484 82.7376 160.461 82.7227C160.436 82.7091 160.414 82.6907 160.396 82.6685C160.392 82.647 160.392 82.625 160.396 82.6035C160.399 82.5892 160.399 82.5745 160.396 82.5601L160.163 80.2028C160.158 80.173 160.16 80.1423 160.168 80.1132C160.177 80.0841 160.191 80.0573 160.212 80.0348C160.241 79.9959 160.283 79.969 160.331 79.959L162.992 79.3737C163.018 79.368 163.046 79.3676 163.073 79.3726C163.1 79.3775 163.125 79.3877 163.148 79.4026C163.171 79.4174 163.191 79.4366 163.206 79.4591C163.222 79.4816 163.233 79.5069 163.238 79.5336C163.244 79.5603 163.244 79.5878 163.239 79.6146C163.235 79.6415 163.224 79.6671 163.209 79.69C163.195 79.7129 163.175 79.7326 163.153 79.7481C163.13 79.7636 163.105 79.7745 163.078 79.7801L160.597 80.3221L160.765 82.0616C161.023 81.8263 161.339 81.6636 161.68 81.5901C161.933 81.531 162.194 81.5235 162.449 81.5682C162.705 81.6129 162.948 81.7089 163.165 81.8502C163.387 81.9876 163.578 82.1692 163.726 82.3836C163.874 82.5981 163.977 82.8408 164.027 83.0966C164.085 83.3495 164.093 83.6115 164.049 83.8673C164.006 84.1232 163.911 84.3678 163.772 84.5869C163.483 85.0249 163.037 85.3352 162.526 85.4539C162.264 85.5119 161.993 85.5163 161.73 85.467C161.466 85.4176 161.215 85.3155 160.992 85.1667Z" fill="#F8F8F8"/>
<path d="M165.565 80.0672C165.677 79.659 165.895 79.2881 166.198 78.9927C166.501 78.6973 166.878 78.4883 167.289 78.3873C167.34 78.374 167.394 78.3814 167.439 78.4078C167.485 78.4341 167.518 78.4774 167.532 78.5282C167.544 78.5827 167.535 78.6397 167.507 78.6879C167.479 78.7361 167.434 78.772 167.381 78.7883C167.039 78.8722 166.726 79.0461 166.474 79.292C166.223 79.5379 166.042 79.8468 165.95 80.1865C165.831 80.587 165.778 81.0044 165.793 81.422C165.923 81.1803 166.103 80.9695 166.322 80.804C166.541 80.6385 166.793 80.5221 167.061 80.4628C167.431 80.3814 167.816 80.4105 168.169 80.5465C168.523 80.6825 168.828 80.9195 169.048 81.2278C169.267 81.5362 169.391 81.9023 169.404 82.2806C169.417 82.6589 169.319 83.0327 169.121 83.3554C168.923 83.6781 168.634 83.9354 168.291 84.0954C167.948 84.2553 167.566 84.3108 167.191 84.2549C166.817 84.199 166.467 84.0342 166.186 83.781C165.904 83.5278 165.704 83.1974 165.609 82.831C165.567 82.7088 165.535 82.5839 165.511 82.4571C165.329 81.6685 165.347 80.8467 165.565 80.0672ZM166.004 82.7063C166.01 82.7427 166.023 82.7777 166.042 82.8093C166.047 82.8288 166.047 82.8494 166.042 82.8689C166.174 83.2459 166.447 83.5568 166.804 83.7359C167.161 83.915 167.574 83.9484 167.955 83.8289C168.336 83.7094 168.656 83.4464 168.847 83.0955C169.038 82.7446 169.084 82.3333 168.978 81.9484C168.871 81.5636 168.618 81.2354 168.274 81.0332C167.93 80.831 167.52 80.7705 167.132 80.8647C166.744 80.9589 166.407 81.2003 166.194 81.5379C165.98 81.8754 165.907 82.2828 165.988 82.6738L166.004 82.7063Z" fill="#F8F8F8"/>
<path d="M133.334 102.137L83.582 113.148L84.1231 115.593L133.875 104.581L133.334 102.137Z" fill="#A6A6A6"/>
<path d="M120.006 110.78L84.7832 118.576L85.3242 121.021L120.547 113.225L120.006 110.78Z" fill="#A6A6A6"/>
<path d="M142.335 57.2452L117.525 62.7363L118.066 65.1808L142.876 59.6897L142.335 57.2452Z" fill="#A6A6A6"/>
<path d="M184.598 107.4H71.166V140.603H184.598V107.4Z" fill="#3C8AFF"/>
<path opacity="0.3" d="M184.598 107.4H71.166V140.603H184.598V107.4Z" fill="black"/>
<path d="M181.456 106.572L181.613 166.572C181.616 168.181 180.98 169.727 179.846 170.868C178.711 172.01 177.17 172.655 175.56 172.663L80.3956 172.906C79.5983 172.909 78.8085 172.754 78.0713 172.45C77.334 172.147 76.6639 171.701 76.0991 171.138C75.5344 170.575 75.0862 169.907 74.7801 169.171C74.474 168.434 74.3161 167.645 74.3154 166.848L74.1582 106.875C74.1561 106.133 74.3002 105.398 74.5823 104.712C74.8645 104.025 75.2791 103.402 75.8025 102.876C76.3259 102.35 76.9479 101.932 77.6327 101.647C78.3176 101.361 79.0521 101.214 79.7941 101.212L175.788 100.914C176.532 100.912 177.269 101.057 177.957 101.34C178.645 101.624 179.27 102.04 179.797 102.566C180.323 103.091 180.741 103.716 181.026 104.403C181.31 105.091 181.457 105.828 181.456 106.572Z" fill="#DBDBDB"/>
<path d="M166.125 158.155C166.128 159.26 165.804 160.341 165.193 161.262C164.581 162.182 163.711 162.901 162.691 163.327C161.672 163.752 160.549 163.866 159.464 163.654C158.38 163.441 157.383 162.912 156.599 162.133C155.815 161.354 155.28 160.36 155.062 159.277C154.843 158.194 154.95 157.07 155.37 156.048C155.79 155.026 156.504 154.151 157.421 153.535C158.338 152.918 159.417 152.587 160.522 152.584C161.256 152.582 161.983 152.724 162.661 153.003C163.34 153.282 163.957 153.692 164.477 154.209C164.998 154.726 165.411 155.341 165.694 156.018C165.977 156.695 166.123 157.421 166.125 158.155Z" fill="#A6A6A6"/>
<path d="M173 158.133C173.003 159.238 172.679 160.319 172.068 161.24C171.456 162.161 170.586 162.879 169.566 163.305C168.547 163.731 167.424 163.845 166.339 163.632C165.255 163.42 164.258 162.891 163.474 162.112C162.69 161.333 162.155 160.339 161.937 159.255C161.718 158.172 161.825 157.049 162.245 156.027C162.665 155.004 163.379 154.13 164.296 153.513C165.213 152.897 166.292 152.566 167.397 152.563C168.878 152.56 170.3 153.145 171.351 154.189C172.401 155.233 172.995 156.652 173 158.133Z" fill="#3C8AFF"/>
<path d="M101.052 111.43L85.4615 111.471C84.2045 111.474 83.1882 112.496 83.1915 113.753L83.216 123.122C83.2193 124.379 84.241 125.395 85.498 125.392L101.089 125.351C102.346 125.348 103.362 124.326 103.359 123.069L103.334 113.7C103.331 112.443 102.309 111.426 101.052 111.43Z" fill="#3C8AFF"/>
<path d="M169.093 118.889L159.978 118.916C159.477 118.92 158.981 118.825 158.517 118.637C158.053 118.448 157.631 118.169 157.275 117.816C156.919 117.464 156.637 117.044 156.444 116.582C156.252 116.119 156.152 115.624 156.152 115.123C156.148 114.622 156.243 114.125 156.432 113.661C156.621 113.197 156.899 112.775 157.252 112.419C157.605 112.064 158.024 111.781 158.487 111.589C158.949 111.396 159.445 111.297 159.946 111.297L169.061 111.27C169.562 111.265 170.058 111.36 170.522 111.549C170.986 111.738 171.408 112.016 171.764 112.369C172.12 112.722 172.402 113.141 172.595 113.604C172.787 114.066 172.887 114.562 172.887 115.063C172.891 115.564 172.796 116.061 172.607 116.525C172.419 116.989 172.14 117.411 171.787 117.766C171.434 118.122 171.015 118.404 170.552 118.597C170.09 118.79 169.594 118.889 169.093 118.889Z" fill="white"/>
<path d="M82.5104 138.089L81.6867 138.576C81.6574 138.595 81.6239 138.606 81.5892 138.609C81.5534 138.61 81.5179 138.602 81.4865 138.584C81.455 138.567 81.4287 138.542 81.4104 138.511C81.3961 138.488 81.3868 138.463 81.3829 138.436C81.379 138.41 81.3807 138.382 81.3878 138.356C81.3949 138.33 81.4074 138.306 81.4243 138.285C81.4412 138.264 81.4623 138.247 81.4862 138.235L82.6134 137.547C82.6598 137.523 82.7135 137.517 82.7638 137.531C82.8142 137.545 82.8572 137.578 82.8843 137.622C82.9122 137.668 82.9218 137.722 82.9114 137.774V143.139C82.9114 143.165 82.9063 143.192 82.8962 143.216C82.8861 143.24 82.8713 143.262 82.8527 143.281C82.8341 143.3 82.812 143.314 82.7877 143.324C82.7633 143.334 82.7373 143.34 82.7109 143.34C82.6582 143.338 82.608 143.317 82.5707 143.279C82.5334 143.242 82.5118 143.192 82.5104 143.139V138.089Z" fill="#F8F8F8"/>
<path d="M84.3602 142.977L87.0698 140.506C87.3644 140.237 87.5402 139.862 87.5585 139.464C87.5768 139.065 87.4361 138.676 87.1673 138.381C86.8985 138.087 86.5237 137.911 86.1254 137.893C85.727 137.874 85.3377 138.015 85.043 138.284L84.7612 138.544C84.743 138.564 84.7208 138.58 84.696 138.591C84.6713 138.601 84.6446 138.607 84.6176 138.607C84.5906 138.607 84.5639 138.601 84.5392 138.591C84.5145 138.58 84.4923 138.564 84.474 138.544C84.4543 138.526 84.4385 138.504 84.4277 138.48C84.4169 138.456 84.4113 138.43 84.4113 138.403C84.4113 138.376 84.4169 138.35 84.4277 138.326C84.4385 138.302 84.4543 138.28 84.474 138.262L84.7558 137.997C85.1099 137.678 85.569 137.5 86.0456 137.498C86.3103 137.496 86.5725 137.551 86.8145 137.658C87.0565 137.766 87.2728 137.924 87.4491 138.121C87.7758 138.467 87.9563 138.925 87.9531 139.4C87.9544 139.667 87.9002 139.931 87.7938 140.175C87.6874 140.42 87.5313 140.639 87.3353 140.82L84.9997 142.933H87.8067C87.8338 142.934 87.8604 142.94 87.8852 142.951C87.9099 142.962 87.9322 142.978 87.9508 142.998C87.9694 143.017 87.984 143.04 87.9937 143.066C88.0034 143.091 88.008 143.118 88.0073 143.145C88.0059 143.197 87.9843 143.248 87.947 143.285C87.9097 143.322 87.8595 143.344 87.8067 143.345H84.5228C84.4946 143.348 84.4663 143.343 84.44 143.333C84.4137 143.323 84.3901 143.307 84.3711 143.286C84.3499 143.266 84.3327 143.243 84.3207 143.217C84.3086 143.19 84.3019 143.162 84.3009 143.133C84.2999 143.105 84.3046 143.076 84.3148 143.049C84.325 143.022 84.3404 142.998 84.3602 142.977Z" fill="#F8F8F8"/>
<path d="M92.8116 137.839L91.3051 139.389C91.7531 139.476 92.1565 139.717 92.4455 140.07C92.7345 140.424 92.8908 140.867 92.8874 141.323C92.8889 141.584 92.8384 141.842 92.7388 142.083C92.6393 142.324 92.4927 142.543 92.3076 142.727C91.9358 143.1 91.431 143.311 90.9041 143.312C90.6451 143.313 90.3885 143.262 90.1494 143.162C89.9103 143.063 89.6934 142.916 89.5114 142.732C89.4906 142.714 89.474 142.691 89.4626 142.666C89.4512 142.641 89.4453 142.614 89.4453 142.586C89.4453 142.558 89.4512 142.531 89.4626 142.506C89.474 142.48 89.4906 142.458 89.5114 142.44C89.5305 142.42 89.5533 142.405 89.5784 142.394C89.6035 142.384 89.6305 142.379 89.6577 142.379C89.6849 142.379 89.7118 142.384 89.7369 142.394C89.7621 142.405 89.7848 142.42 89.804 142.44C90.0936 142.724 90.482 142.885 90.8878 142.889C91.2932 142.878 91.6798 142.716 91.9716 142.434C92.1173 142.288 92.2326 142.115 92.3107 141.924C92.3889 141.734 92.4283 141.529 92.4268 141.323C92.424 140.91 92.2577 140.514 91.9643 140.223C91.6709 139.931 91.2742 139.768 90.8607 139.768C90.8282 139.766 90.7965 139.757 90.7675 139.742C90.7386 139.727 90.7131 139.707 90.6927 139.681C90.6726 139.662 90.6565 139.639 90.6455 139.613C90.6346 139.588 90.6289 139.56 90.6289 139.532C90.6289 139.504 90.6346 139.477 90.6455 139.451C90.6565 139.426 90.6726 139.402 90.6927 139.383L92.1396 137.882H89.9015C89.852 137.874 89.8069 137.849 89.7743 137.81C89.7418 137.772 89.7239 137.724 89.7239 137.673C89.7239 137.623 89.7418 137.575 89.7743 137.536C89.8069 137.498 89.852 137.473 89.9015 137.465H92.6111C92.6657 137.465 92.7181 137.487 92.7567 137.525C92.7953 137.564 92.817 137.616 92.817 137.671C92.8262 137.701 92.8262 137.733 92.817 137.763C92.8196 137.788 92.8177 137.814 92.8116 137.839Z" fill="#F8F8F8"/>
<path d="M97.7243 142.099H94.5596C94.514 142.101 94.4692 142.086 94.435 142.055C94.4134 142.039 94.3954 142.019 94.3822 141.996C94.369 141.973 94.3609 141.947 94.3583 141.92C94.3557 141.894 94.3588 141.867 94.3674 141.842C94.3759 141.816 94.3897 141.793 94.4079 141.773L97.7785 137.557C97.7948 137.537 97.8152 137.519 97.8385 137.506C97.8617 137.494 97.8872 137.486 97.9136 137.483C97.94 137.481 97.9666 137.484 97.9918 137.492C98.017 137.5 98.0403 137.513 98.0603 137.53C98.0922 137.558 98.1164 137.594 98.1308 137.633C98.1308 137.633 98.1308 137.633 98.1308 137.666V137.693V141.698H98.5264C98.5795 141.698 98.6305 141.719 98.6681 141.756C98.7058 141.794 98.7269 141.845 98.7269 141.898C98.7269 141.951 98.7058 142.002 98.6681 142.04C98.6305 142.077 98.5795 142.099 98.5264 142.099H98.1308V143.101C98.1229 143.149 98.0981 143.193 98.0609 143.225C98.0237 143.256 97.9764 143.274 97.9276 143.274C97.8787 143.274 97.8315 143.256 97.7942 143.225C97.757 143.193 97.7322 143.149 97.7243 143.101V142.099ZM97.7243 141.698V138.278L94.9715 141.703L97.7243 141.698Z" fill="#F8F8F8"/>
<path d="M110.599 138.701C110.795 138.327 111.088 138.011 111.447 137.787C111.806 137.563 112.219 137.439 112.642 137.428C112.695 137.426 112.746 137.445 112.785 137.48C112.825 137.516 112.849 137.565 112.853 137.617C112.853 137.673 112.833 137.726 112.796 137.767C112.759 137.809 112.708 137.834 112.653 137.84C112.298 137.85 111.952 137.956 111.652 138.147C111.353 138.338 111.11 138.606 110.951 138.923C110.75 139.288 110.611 139.684 110.539 140.094C110.835 139.76 111.238 139.54 111.679 139.471C112.12 139.403 112.571 139.49 112.955 139.718C113.338 139.946 113.63 140.301 113.781 140.721C113.931 141.141 113.93 141.6 113.778 142.02C113.626 142.439 113.333 142.793 112.949 143.019C112.565 143.246 112.113 143.332 111.673 143.261C111.232 143.191 110.83 142.97 110.535 142.635C110.24 142.3 110.071 141.873 110.057 141.427C110.049 141.301 110.049 141.174 110.057 141.048C110.037 140.232 110.224 139.425 110.599 138.701ZM110.463 141.373C110.46 141.409 110.46 141.445 110.463 141.481C110.467 141.501 110.467 141.521 110.463 141.541C110.489 141.94 110.669 142.312 110.965 142.581C111.261 142.849 111.65 142.992 112.049 142.979C112.449 142.966 112.827 142.798 113.105 142.511C113.383 142.224 113.538 141.84 113.538 141.441C113.538 141.041 113.383 140.657 113.105 140.37C112.827 140.083 112.449 139.915 112.049 139.902C111.65 139.889 111.261 140.032 110.965 140.301C110.669 140.569 110.489 140.942 110.463 141.34V141.373Z" fill="#F8F8F8"/>
<path d="M116.056 142.971L118.224 137.839H115.406C115.353 137.838 115.303 137.816 115.265 137.779C115.228 137.741 115.206 137.691 115.205 137.638C115.205 137.586 115.225 137.536 115.262 137.499C115.298 137.461 115.348 137.439 115.4 137.438H118.489C118.529 137.424 118.573 137.424 118.614 137.438C118.666 137.464 118.706 137.508 118.727 137.563C118.73 137.586 118.73 137.61 118.727 137.633C118.728 137.672 118.716 137.709 118.695 137.741L116.446 143.123C116.43 143.159 116.405 143.19 116.372 143.212C116.34 143.234 116.301 143.246 116.262 143.247C116.235 143.255 116.207 143.255 116.181 143.247C116.129 143.225 116.087 143.185 116.064 143.134C116.041 143.082 116.038 143.024 116.056 142.971Z" fill="#F8F8F8"/>
<path d="M121.804 137.395C122.126 137.393 122.436 137.519 122.666 137.746C122.895 137.972 123.026 138.281 123.029 138.603C123.027 138.795 122.982 138.984 122.895 139.155C122.809 139.326 122.684 139.475 122.53 139.589C122.935 139.756 123.269 140.058 123.476 140.444C123.683 140.83 123.75 141.276 123.664 141.705C123.579 142.135 123.348 142.521 123.01 142.799C122.671 143.077 122.247 143.229 121.809 143.229C121.371 143.229 120.947 143.077 120.609 142.799C120.27 142.521 120.039 142.135 119.954 141.705C119.869 141.276 119.936 140.83 120.142 140.444C120.349 140.058 120.684 139.756 121.088 139.589C120.937 139.474 120.813 139.325 120.729 139.153C120.644 138.982 120.6 138.794 120.601 138.603C120.6 138.445 120.631 138.288 120.691 138.141C120.751 137.994 120.839 137.861 120.951 137.749C121.063 137.637 121.196 137.547 121.342 137.487C121.488 137.426 121.645 137.395 121.804 137.395ZM121.804 142.814C122.1 142.814 122.389 142.726 122.635 142.561C122.881 142.397 123.073 142.163 123.186 141.889C123.299 141.615 123.328 141.314 123.27 141.024C123.212 140.734 123.069 140.467 122.859 140.258C122.65 140.049 122.383 139.907 122.092 139.85C121.802 139.793 121.501 139.824 121.228 139.938C120.954 140.052 120.721 140.244 120.558 140.491C120.394 140.738 120.307 141.027 120.308 141.323C120.304 141.523 120.341 141.721 120.416 141.906C120.49 142.091 120.602 142.26 120.743 142.401C120.884 142.542 121.052 142.653 121.237 142.728C121.422 142.802 121.62 142.839 121.82 142.835L121.804 142.814ZM121.804 139.41C122.021 139.406 122.229 139.317 122.382 139.162C122.534 139.007 122.621 138.799 122.622 138.581C122.619 138.422 122.569 138.266 122.478 138.135C122.387 138.003 122.259 137.902 122.11 137.843C121.962 137.783 121.799 137.769 121.643 137.802C121.486 137.835 121.343 137.913 121.231 138.027C121.119 138.14 121.042 138.285 121.012 138.442C120.981 138.598 120.997 138.761 121.058 138.909C121.12 139.056 121.223 139.183 121.355 139.272C121.488 139.361 121.644 139.409 121.804 139.41Z" fill="#F8F8F8"/>
<path d="M132.193 137.367C132.666 137.364 133.124 137.535 133.479 137.848C133.834 138.161 134.061 138.594 134.117 139.064C134.114 139.078 134.114 139.093 134.117 139.107C134.117 139.262 134.117 139.43 134.117 139.611C134.135 140.421 133.949 141.222 133.575 141.941C133.375 142.313 133.082 142.627 132.723 142.85C132.365 143.074 131.954 143.199 131.532 143.215C131.505 143.216 131.478 143.212 131.453 143.203C131.428 143.194 131.405 143.18 131.385 143.162C131.365 143.143 131.349 143.122 131.338 143.097C131.327 143.073 131.321 143.046 131.32 143.019C131.32 142.965 131.341 142.912 131.378 142.872C131.415 142.831 131.466 142.807 131.521 142.803C131.876 142.791 132.221 142.685 132.52 142.494C132.82 142.303 133.062 142.036 133.222 141.719C133.427 141.356 133.566 140.96 133.634 140.548C133.454 140.754 133.231 140.917 132.981 141.029C132.732 141.14 132.461 141.196 132.187 141.193C131.677 141.193 131.188 140.991 130.827 140.63C130.466 140.269 130.264 139.78 130.264 139.269C130.264 138.759 130.466 138.27 130.827 137.909C131.188 137.548 131.677 137.346 132.187 137.346L132.193 137.367ZM133.726 139.286C133.728 138.983 133.639 138.687 133.472 138.435C133.304 138.183 133.066 137.987 132.787 137.87C132.508 137.754 132.2 137.722 131.903 137.781C131.607 137.839 131.334 137.984 131.12 138.198C130.905 138.411 130.759 138.684 130.7 138.98C130.64 139.277 130.67 139.584 130.786 139.864C130.901 140.143 131.097 140.382 131.349 140.551C131.6 140.719 131.896 140.808 132.198 140.808C132.399 140.81 132.598 140.772 132.784 140.696C132.969 140.62 133.138 140.508 133.28 140.366C133.422 140.224 133.535 140.056 133.611 139.871C133.688 139.685 133.727 139.486 133.726 139.286Z" fill="#F8F8F8"/>
<path d="M135.617 140.283C135.596 139.562 135.784 138.85 136.159 138.234C136.301 137.97 136.511 137.75 136.769 137.596C137.026 137.442 137.32 137.361 137.619 137.361C137.919 137.361 138.213 137.442 138.47 137.596C138.727 137.75 138.938 137.97 139.08 138.234C139.452 138.85 139.648 139.555 139.648 140.274C139.648 140.994 139.452 141.699 139.08 142.315C138.946 142.588 138.738 142.819 138.48 142.98C138.222 143.141 137.924 143.226 137.619 143.226C137.315 143.226 137.017 143.141 136.758 142.98C136.5 142.819 136.292 142.588 136.159 142.315C135.784 141.705 135.596 140.998 135.617 140.283ZM136.029 140.283C136.016 140.921 136.187 141.549 136.522 142.093C136.623 142.304 136.782 142.482 136.98 142.606C137.178 142.731 137.407 142.797 137.641 142.797C137.875 142.797 138.104 142.731 138.302 142.606C138.5 142.482 138.659 142.304 138.76 142.093C139.09 141.546 139.264 140.921 139.264 140.283C139.264 139.645 139.09 139.019 138.76 138.473C138.658 138.263 138.5 138.086 138.302 137.963C138.105 137.839 137.876 137.774 137.644 137.774C137.411 137.774 137.182 137.839 136.985 137.963C136.788 138.086 136.629 138.263 136.527 138.473C136.19 139.013 136.018 139.64 136.034 140.277L136.029 140.283Z" fill="#F8F8F8"/>
<path d="M142.362 137.936L141.539 138.418C141.51 138.439 141.476 138.452 141.441 138.456C141.405 138.456 141.369 138.447 141.338 138.429C141.307 138.411 141.281 138.385 141.262 138.353C141.247 138.331 141.237 138.305 141.233 138.278C141.229 138.252 141.23 138.224 141.237 138.198C141.244 138.172 141.257 138.147 141.275 138.127C141.292 138.106 141.314 138.089 141.338 138.077L142.46 137.389C142.507 137.364 142.562 137.359 142.613 137.373C142.664 137.387 142.708 137.42 142.736 137.465C142.764 137.51 142.773 137.564 142.763 137.616V142.981C142.763 143.035 142.742 143.086 142.705 143.123C142.667 143.161 142.616 143.182 142.563 143.182C142.51 143.182 142.459 143.161 142.421 143.123C142.384 143.086 142.362 143.035 142.362 142.981V137.936Z" fill="#F8F8F8"/>
<path d="M144.211 142.819L146.921 140.353C147.145 140.149 147.302 139.882 147.372 139.588C147.442 139.293 147.421 138.984 147.312 138.702C147.203 138.419 147.011 138.176 146.761 138.005C146.511 137.833 146.216 137.741 145.913 137.741C145.538 137.741 145.175 137.877 144.894 138.126L144.612 138.386C144.594 138.406 144.572 138.421 144.547 138.432C144.522 138.443 144.496 138.449 144.469 138.449C144.442 138.449 144.415 138.443 144.39 138.432C144.366 138.421 144.343 138.406 144.325 138.386C144.305 138.368 144.29 138.346 144.279 138.322C144.268 138.298 144.262 138.271 144.262 138.245C144.262 138.218 144.268 138.192 144.279 138.168C144.29 138.143 144.305 138.122 144.325 138.104L144.607 137.833C144.962 137.517 145.421 137.341 145.897 137.34C146.4 137.341 146.883 137.541 147.24 137.896C147.597 138.251 147.8 138.733 147.804 139.237C147.805 139.503 147.751 139.767 147.645 140.012C147.538 140.256 147.382 140.476 147.186 140.656L144.851 142.775H147.614C147.641 142.776 147.668 142.782 147.693 142.793C147.718 142.804 147.74 142.82 147.759 142.839C147.777 142.859 147.792 142.882 147.801 142.907C147.811 142.933 147.816 142.959 147.815 142.987C147.814 143.039 147.792 143.089 147.755 143.127C147.717 143.164 147.667 143.186 147.614 143.187H144.33C144.302 143.189 144.274 143.185 144.248 143.175C144.221 143.165 144.198 143.148 144.179 143.127C144.143 143.082 144.126 143.024 144.132 142.966C144.138 142.909 144.167 142.856 144.211 142.819Z" fill="#F8F8F8"/>
<path d="M157.662 137.671L156.156 139.226C156.604 139.311 157.009 139.552 157.298 139.906C157.588 140.259 157.743 140.704 157.738 141.161C157.74 141.422 157.69 141.68 157.591 141.921C157.491 142.163 157.344 142.381 157.158 142.564C156.975 142.749 156.757 142.896 156.517 142.996C156.277 143.096 156.02 143.148 155.76 143.148C155.5 143.148 155.242 143.096 155.002 142.996C154.762 142.896 154.545 142.749 154.362 142.564C154.342 142.545 154.327 142.522 154.317 142.497C154.306 142.472 154.301 142.445 154.301 142.418C154.301 142.391 154.306 142.364 154.317 142.339C154.327 142.314 154.342 142.291 154.362 142.272C154.381 142.252 154.403 142.236 154.428 142.225C154.454 142.214 154.481 142.208 154.508 142.208C154.536 142.208 154.563 142.214 154.588 142.225C154.613 142.236 154.636 142.252 154.654 142.272C154.944 142.555 155.333 142.715 155.738 142.716C156.144 142.709 156.531 142.549 156.822 142.266C157.037 142.048 157.182 141.771 157.242 141.471C157.301 141.17 157.272 140.859 157.156 140.575C157.041 140.291 156.846 140.047 156.594 139.873C156.342 139.699 156.044 139.602 155.738 139.595C155.706 139.596 155.673 139.59 155.644 139.575C155.615 139.561 155.589 139.54 155.57 139.513C155.531 139.474 155.509 139.42 155.509 139.364C155.509 139.308 155.531 139.255 155.57 139.215L157.017 137.714H154.784C154.757 137.715 154.73 137.71 154.704 137.7C154.678 137.69 154.655 137.675 154.635 137.656C154.616 137.637 154.6 137.614 154.589 137.588C154.579 137.563 154.573 137.536 154.573 137.508C154.572 137.481 154.577 137.453 154.587 137.428C154.597 137.402 154.612 137.379 154.632 137.359C154.651 137.339 154.674 137.324 154.699 137.313C154.724 137.302 154.752 137.297 154.779 137.297H157.489C157.516 137.296 157.543 137.301 157.569 137.311C157.595 137.321 157.618 137.336 157.638 137.355C157.657 137.375 157.673 137.397 157.684 137.423C157.694 137.448 157.7 137.475 157.7 137.503C157.709 137.533 157.709 137.565 157.7 137.595C157.697 137.624 157.684 137.651 157.662 137.671Z" fill="#F8F8F8"/>
<path d="M162.588 141.93H159.401C159.379 141.933 159.356 141.931 159.335 141.925C159.313 141.918 159.293 141.907 159.277 141.892C159.255 141.876 159.237 141.856 159.224 141.833C159.211 141.809 159.203 141.784 159.2 141.757C159.198 141.73 159.201 141.704 159.209 141.678C159.218 141.653 159.232 141.63 159.25 141.61L162.62 137.394C162.636 137.372 162.656 137.354 162.68 137.341C162.703 137.328 162.729 137.32 162.755 137.317C162.782 137.315 162.809 137.318 162.834 137.326C162.859 137.335 162.882 137.349 162.902 137.367C162.931 137.396 162.953 137.431 162.967 137.47C162.967 137.47 162.967 137.47 162.967 137.502V137.529V141.534H163.357C163.411 141.534 163.462 141.555 163.499 141.593C163.537 141.63 163.558 141.681 163.558 141.735C163.558 141.788 163.537 141.839 163.499 141.876C163.462 141.914 163.411 141.935 163.357 141.935H162.967V142.938C162.967 142.964 162.962 142.991 162.951 143.016C162.941 143.04 162.926 143.063 162.907 143.081C162.887 143.1 162.865 143.115 162.84 143.124C162.815 143.134 162.788 143.139 162.761 143.138C162.708 143.137 162.658 143.115 162.621 143.078C162.584 143.041 162.562 142.99 162.561 142.938L162.588 141.93ZM162.588 141.529V138.109L159.808 141.556L162.588 141.529Z" fill="#F8F8F8"/>
<path d="M164.897 142.549C164.878 142.529 164.862 142.507 164.852 142.481C164.841 142.456 164.836 142.429 164.836 142.402C164.836 142.375 164.841 142.348 164.852 142.323C164.862 142.298 164.878 142.275 164.897 142.256C164.937 142.216 164.992 142.194 165.049 142.194C165.105 142.194 165.16 142.216 165.2 142.256C165.345 142.4 165.516 142.515 165.705 142.593C165.894 142.671 166.096 142.712 166.3 142.712C166.505 142.712 166.707 142.671 166.896 142.593C167.085 142.515 167.256 142.4 167.401 142.256C167.544 142.114 167.659 141.946 167.737 141.76C167.815 141.574 167.855 141.374 167.856 141.172C167.859 140.967 167.82 140.763 167.743 140.573C167.666 140.383 167.552 140.211 167.407 140.066C167.262 139.921 167.089 139.806 166.899 139.729C166.709 139.652 166.506 139.614 166.3 139.617C166.098 139.618 165.899 139.66 165.713 139.739C165.527 139.818 165.358 139.933 165.217 140.077C165.198 140.098 165.176 140.115 165.151 140.126C165.125 140.138 165.098 140.143 165.07 140.143C165.043 140.143 165.015 140.138 164.99 140.126C164.965 140.115 164.942 140.098 164.924 140.077C164.899 140.063 164.88 140.04 164.87 140.012C164.868 140.003 164.868 139.994 164.87 139.985C164.864 139.964 164.864 139.942 164.87 139.92C164.87 139.92 164.87 139.893 164.87 139.877L165.146 137.52C165.146 137.49 165.154 137.462 165.168 137.436C165.182 137.41 165.203 137.389 165.228 137.373C165.245 137.355 165.266 137.341 165.289 137.332C165.313 137.322 165.338 137.318 165.363 137.319H168.073C168.103 137.314 168.134 137.316 168.163 137.324C168.193 137.332 168.22 137.347 168.243 137.367C168.267 137.387 168.285 137.411 168.298 137.439C168.311 137.467 168.318 137.497 168.318 137.528C168.318 137.558 168.311 137.589 168.298 137.616C168.285 137.644 168.267 137.669 168.243 137.689C168.22 137.709 168.193 137.723 168.163 137.731C168.134 137.74 168.103 137.741 168.073 137.736H165.531L165.325 139.476C165.624 139.3 165.965 139.206 166.312 139.204C166.659 139.203 167 139.293 167.302 139.466C167.603 139.638 167.853 139.888 168.026 140.188C168.2 140.489 168.29 140.83 168.289 141.177C168.293 141.438 168.245 141.696 168.147 141.937C168.049 142.178 167.904 142.397 167.72 142.581C167.346 142.95 166.842 143.158 166.317 143.161C166.051 143.159 165.788 143.104 165.545 142.999C165.301 142.894 165.08 142.741 164.897 142.549Z" fill="#F8F8F8"/>
<path d="M170.447 138.548C170.642 138.172 170.934 137.855 171.294 137.63C171.653 137.405 172.066 137.281 172.49 137.27C172.542 137.269 172.593 137.29 172.631 137.326C172.67 137.362 172.693 137.412 172.696 137.465C172.697 137.519 172.678 137.572 172.641 137.612C172.605 137.652 172.555 137.677 172.5 137.681C172.146 137.693 171.8 137.799 171.501 137.99C171.202 138.181 170.959 138.448 170.799 138.765C170.598 139.131 170.457 139.526 170.382 139.936C170.677 139.599 171.08 139.377 171.522 139.306C171.964 139.235 172.416 139.32 172.802 139.546C173.188 139.773 173.482 140.127 173.635 140.548C173.788 140.968 173.79 141.429 173.639 141.851C173.489 142.272 173.197 142.628 172.813 142.857C172.428 143.086 171.976 143.174 171.534 143.106C171.092 143.038 170.687 142.818 170.39 142.483C170.092 142.149 169.921 141.721 169.905 141.274C169.896 141.146 169.896 141.018 169.905 140.889C169.886 140.076 170.072 139.271 170.447 138.548ZM170.311 141.215C170.308 141.251 170.308 141.287 170.311 141.323C170.314 141.343 170.314 141.363 170.311 141.383C170.337 141.781 170.517 142.154 170.813 142.422C171.109 142.691 171.498 142.834 171.897 142.821C172.296 142.808 172.675 142.64 172.953 142.353C173.231 142.066 173.386 141.682 173.386 141.282C173.386 140.883 173.231 140.499 172.953 140.212C172.675 139.925 172.296 139.757 171.897 139.744C171.498 139.731 171.109 139.874 170.813 140.142C170.517 140.411 170.337 140.783 170.311 141.182V141.215Z" fill="#F8F8F8"/>
<path d="M134.252 153.222L83.2969 153.355L83.3034 155.859L134.259 155.726L134.252 153.222Z" fill="#A6A6A6"/>
<path d="M119.385 158.825L83.3105 158.92L83.3171 161.424L119.392 161.329L119.385 158.825Z" fill="#A6A6A6"/>
<path d="M152.627 111.291L127.217 111.357L127.223 113.861L152.633 113.794L152.627 111.291Z" fill="#A6A6A6"/>
<path d="M184.598 118.043H71.166V173.637H184.598V118.043Z" fill="#3C8AFF"/>
<path opacity="0.2" d="M184.598 118.043H71.166V173.637H184.598V118.043Z" fill="black"/>
<path d="M184.598 127.922H71.166V183.516H184.598V127.922Z" fill="#3C8AFF"/>
<path opacity="0.3" d="M184.598 127.922H71.166V183.516H184.598V127.922Z" fill="black"/>
<path d="M184.598 138.109H71.166V183.521H184.598V138.109Z" fill="#3C8AFF"/>
<path opacity="0.2" d="M184.598 138.109H71.166V183.521H184.598V138.109Z" fill="black"/>
<path d="M181.097 209.295L62.9121 192.496V95.4941L66.7055 98.3012C68.5256 99.6553 70.676 100.496 72.932 100.734L181.097 112.293V209.295Z" fill="#3C8AFF"/>
<path d="M63.078 99.6317L62.7441 100.059L63.5978 100.726L63.9317 100.299L63.078 99.6317Z" fill="white"/>
<path d="M173.427 116.63L171.259 116.386L171.319 115.844L173.487 116.088L173.427 116.63ZM169.601 116.202L167.434 115.958L167.493 115.416L169.661 115.66L169.601 116.202ZM165.775 115.774L163.608 115.53L163.667 114.988L165.835 115.237L165.775 115.774ZM161.949 115.346L159.782 115.102L159.841 114.56L162.009 114.804L161.949 115.346ZM158.124 114.917L155.956 114.674L156.016 114.132L158.183 114.375L158.124 114.917ZM154.33 114.489L152.163 114.245L152.222 113.704L154.39 113.947L154.33 114.489ZM150.504 114.067L148.337 113.817L148.396 113.275L150.564 113.519L150.504 114.067ZM146.679 113.639L144.511 113.395L144.571 112.853L146.738 113.097L146.679 113.639ZM142.853 113.21L140.685 112.967L140.745 112.425L142.912 112.668L142.853 113.21ZM139.032 112.782L136.865 112.538L136.924 111.997L139.092 112.24L139.032 112.782ZM135.206 112.354L133.039 112.11L133.104 111.568L135.271 111.812L135.206 112.354ZM131.381 111.926L129.213 111.682L129.272 111.14L131.44 111.384L131.381 111.926ZM127.555 111.498L125.387 111.254L125.447 110.712L127.614 110.956L127.555 111.498ZM123.729 111.075L121.561 110.826L121.621 110.284L123.788 110.528L123.729 111.075ZM119.887 110.669L117.719 110.425L117.779 109.883L119.946 110.127L119.887 110.669ZM116.061 110.241L113.893 109.997L113.953 109.455L116.12 109.699L116.061 110.241ZM112.235 109.813L110.067 109.569L110.127 109.027L112.295 109.276L112.235 109.813ZM108.409 109.385L106.241 109.141L106.301 108.599L108.469 108.843L108.409 109.385ZM104.605 108.935L102.437 108.691L102.497 108.149L104.664 108.393L104.605 108.935ZM100.784 108.507L98.6168 108.263L98.6818 107.721L100.849 107.965L100.784 108.507ZM96.9585 108.084L94.7909 107.835L94.8505 107.293L97.0182 107.537L96.9585 108.084ZM93.1327 107.656L90.9651 107.412L91.0247 106.87L93.1923 107.114L93.1327 107.656ZM89.3068 107.228L87.1392 106.984L87.1988 106.442L89.3664 106.686L89.3068 107.228ZM85.5135 106.8L83.3458 106.556L83.4055 106.014L85.5731 106.263L85.5135 106.8ZM81.6876 106.372L79.52 106.128L79.5796 105.586L81.7472 105.83L81.6876 106.372ZM77.8617 105.943L75.6941 105.7L75.7537 105.158L77.9213 105.402L77.8617 105.943ZM74.0359 105.515L72.7353 105.374C72.4318 105.336 72.1338 105.293 71.8357 105.239L71.9333 104.697C72.2205 104.746 72.5077 104.789 72.7949 104.822L74.0955 104.968L74.0359 105.515ZM70.2046 104.833C69.4918 104.601 68.7994 104.311 68.1345 103.965L68.3892 103.483C69.0252 103.816 69.6888 104.094 70.3726 104.312L70.2046 104.833ZM66.6714 103.082C66.4925 102.952 66.3137 102.822 66.1294 102.687L64.9102 101.733L65.2407 101.305L66.46 102.258C66.628 102.388 66.8014 102.513 66.9748 102.638L66.6714 103.082Z" fill="white"/>
<path d="M176.45 117.745H175.908V116.906L175.068 116.808L175.128 116.271L176.45 116.418V117.745Z" fill="white"/>
<path d="M176.45 202.19H175.908V199.996H176.45V202.19ZM176.45 198.348H175.908V196.154H176.45V198.348ZM176.45 194.512H175.908V192.317H176.45V194.512ZM176.45 190.675H175.908V188.48H176.45V190.675ZM176.45 186.833H175.908V184.665H176.45V186.833ZM176.45 182.996H175.908V180.801H176.45V182.996ZM176.45 179.159H175.908V176.965H176.45V179.159ZM176.45 175.317H175.908V173.15H176.45V175.317ZM176.45 171.481H175.908V169.286H176.45V171.481ZM176.45 167.644H175.908V165.449H176.45V167.644ZM176.45 163.807H175.908V161.607H176.45V163.807ZM176.45 159.965H175.908V157.797H176.45V159.965ZM176.45 156.128H175.908V153.934H176.45V156.128ZM176.45 152.292H175.908V150.097H176.45V152.292ZM176.45 148.449H175.908V146.282H176.45V148.449ZM176.45 144.613H175.908V142.418H176.45V144.613ZM176.45 140.776H175.908V138.581H176.45V140.776ZM176.45 136.934H175.908V134.766H176.45V136.934ZM176.45 133.097H175.908V130.902H176.45V133.097ZM176.45 129.261H175.908V127.066H176.45V129.261ZM176.45 125.424H175.908V123.229H176.45V125.424ZM176.45 121.582H175.908V119.414H176.45V121.582Z" fill="white"/>
<path d="M176.452 205.23L175.064 205.024L175.146 204.488L175.91 204.602V203.832H176.452V205.23Z" fill="white"/>
<path d="M173.428 204.787L171.261 204.467L171.337 203.925L173.504 204.245L173.428 204.787ZM169.635 204.245L167.467 203.925L167.549 203.383L169.716 203.703L169.635 204.245ZM165.842 203.703L163.674 203.383L163.755 202.842L165.923 203.161L165.842 203.703ZM162.048 203.161L159.881 202.842L159.962 202.3L162.13 202.619L162.048 203.161ZM158.255 202.619L156.087 202.3L156.163 201.758L158.331 202.077L158.255 202.619ZM154.462 202.077L152.294 201.758L152.37 201.216L154.537 201.536L154.462 202.077ZM150.668 201.536L148.501 201.216L148.582 200.674L150.75 200.994L150.668 201.536ZM146.875 200.994L144.707 200.674L144.789 200.132L146.956 200.452L146.875 200.994ZM143.082 200.452L140.914 200.132L140.995 199.59L143.163 199.91L143.082 200.452ZM139.288 199.91L137.121 199.59L137.202 199.048L139.369 199.373L139.288 199.91ZM135.495 199.368L133.327 199.048L133.403 198.506L135.571 198.826L135.495 199.368ZM131.701 198.826L129.534 198.506L129.615 197.964L131.783 198.284L131.701 198.826ZM127.908 198.284L125.74 197.964L125.822 197.422L127.989 197.742L127.908 198.284ZM124.115 197.742L121.947 197.422L122.028 196.881L124.196 197.206L124.115 197.742ZM120.321 197.2L118.154 196.881L118.235 196.339L120.403 196.658L120.321 197.2ZM116.528 196.658L114.36 196.339L114.436 195.797L116.604 196.122L116.528 196.658ZM112.735 196.116L110.567 195.797L110.643 195.255L112.811 195.575L112.735 196.116ZM108.941 195.575L106.774 195.255L106.855 194.713L109.023 195.033L108.941 195.575ZM105.148 195.033L102.98 194.713L103.062 194.171L105.229 194.491L105.148 195.033ZM101.355 194.491L99.187 194.171L99.2683 193.629L101.436 193.954L101.355 194.491ZM97.5613 193.949L95.3937 193.629L95.4695 193.087L97.6372 193.407L97.5613 193.949ZM93.768 193.407L91.6003 193.087L91.6816 192.545L93.8492 192.87L93.768 193.407ZM89.9746 192.865L87.807 192.545L87.8883 192.003L90.0559 192.323L89.9746 192.865ZM86.1813 192.323L84.0136 192.003L84.0949 191.461L86.2625 191.787L86.1813 192.323ZM82.3879 191.781L80.2203 191.461L80.3016 190.92L82.4692 191.239L82.3879 191.781ZM78.5946 191.239L76.4269 190.92L76.5028 190.378L78.6704 190.703L78.5946 191.239ZM74.8012 190.697L72.6336 190.378L72.7149 189.836L74.8825 190.155L74.8012 190.697ZM71.0079 190.155L68.8402 189.836L68.9215 189.294L71.0891 189.619L71.0079 190.155ZM67.2145 189.614L65.0469 189.294L65.1282 188.752L67.2958 189.072L67.2145 189.614Z" fill="white"/>
<path d="M62.9488 187.816L62.8691 188.352L63.9412 188.511L64.0208 187.975L62.9488 187.816Z" fill="white"/>
<path d="M165.86 165.579C168.46 165.579 170.569 163.177 170.569 160.214C170.569 157.252 168.46 154.85 165.86 154.85C163.259 154.85 161.15 157.252 161.15 160.214C161.15 163.177 163.259 165.579 165.86 165.579Z" fill="#EBEBEB"/>
<path d="M168.05 160.215C167.996 160.637 167.822 161.034 167.547 161.359C167.273 161.684 166.911 161.923 166.505 162.048C166.098 162.172 165.664 162.177 165.255 162.061C164.846 161.945 164.479 161.714 164.198 161.395C163.917 161.076 163.734 160.682 163.671 160.262C163.608 159.841 163.667 159.411 163.842 159.024C164.017 158.636 164.3 158.308 164.657 158.077C165.014 157.846 165.43 157.723 165.856 157.723C166.476 157.764 167.055 158.05 167.467 158.517C167.878 158.984 168.088 159.594 168.05 160.215Z" fill="#DBDBDB"/>
<path d="M155.093 183.153C177.561 187.185 171.627 220.464 149.132 216.427C126.638 212.389 132.593 179.116 155.093 183.153Z" fill="#3C8AFF"/>
<path opacity="0.2" d="M155.093 183.153C177.561 187.185 171.627 220.464 149.132 216.427C126.638 212.389 132.593 179.116 155.093 183.153Z" fill="black"/>
<path d="M152.984 182.775C174.395 186.617 168.456 219.895 147.023 216.048C125.591 212.2 131.535 178.949 152.984 182.775Z" fill="#3C8AFF"/>
<path opacity="0.1" d="M152.984 182.775C174.395 186.617 168.456 219.895 147.023 216.048C125.591 212.2 131.535 178.949 152.984 182.775Z" fill="black"/>
<path opacity="0.1" d="M136.42 200.197C136.534 206.126 139.986 211.87 147.524 213.203C165.32 216.4 170.246 188.774 152.477 185.566C152.363 185.566 152.249 185.523 152.13 185.512C168.793 188.844 164.014 214.986 147.047 211.941C140.127 210.738 136.788 205.622 136.42 200.197Z" fill="black"/>
<g opacity="0.1">
<path d="M151.846 189.055C151.99 189.092 152.115 189.184 152.192 189.312C152.269 189.44 152.292 189.592 152.258 189.738L152.03 190.653C153.486 191.14 154.763 192.049 155.699 193.265C155.779 193.342 155.838 193.439 155.87 193.545C155.902 193.651 155.907 193.764 155.883 193.872C155.841 194.025 155.741 194.154 155.604 194.232C155.467 194.31 155.304 194.331 155.152 194.29C155.074 194.276 155.001 194.246 154.936 194.201C154.872 194.156 154.818 194.097 154.778 194.029C154.01 192.968 152.947 192.156 151.721 191.694L150.123 198.083C153.412 199.682 154.55 201.334 153.992 203.583C153.385 206.006 150.925 207.209 148.031 206.591L147.587 208.368C147.551 208.512 147.459 208.636 147.332 208.712C147.205 208.788 147.053 208.811 146.909 208.775C146.766 208.739 146.642 208.647 146.566 208.52C146.49 208.393 146.467 208.241 146.503 208.097L146.953 206.293C145.077 205.672 143.464 204.441 142.368 202.798C142.314 202.736 142.274 202.663 142.25 202.585C142.225 202.507 142.217 202.424 142.226 202.343C142.235 202.261 142.261 202.182 142.301 202.111C142.342 202.04 142.397 201.978 142.463 201.929C142.529 201.88 142.604 201.845 142.684 201.827C142.763 201.808 142.846 201.806 142.927 201.821C143.008 201.836 143.084 201.867 143.152 201.913C143.22 201.959 143.278 202.018 143.322 202.088C144.23 203.569 145.619 204.696 147.256 205.279L148.882 198.777C145.63 197.151 144.547 195.558 145.088 193.276C145.63 190.995 148.112 189.71 150.914 190.339L151.131 189.472C151.144 189.394 151.175 189.321 151.22 189.256C151.265 189.191 151.323 189.137 151.392 189.097C151.46 189.058 151.536 189.033 151.614 189.026C151.693 189.018 151.772 189.028 151.846 189.055ZM149.18 197.606L150.735 191.374C148.508 190.865 146.72 191.824 146.308 193.471C145.923 195.021 146.411 196.165 149.18 197.606ZM149.836 199.232L148.264 205.534C150.562 206.076 152.377 205.106 152.811 203.367C153.201 201.811 152.643 200.652 149.836 199.248V199.232Z" fill="black"/>
</g>
<path d="M100.515 0C77.9774 0 77.9395 32.0538 100.515 32.0538C123.091 32.0538 123.091 0 100.515 0Z" fill="#3C8AFF"/>
<path opacity="0.1" d="M100.515 0C77.9774 0 77.9395 32.0538 100.515 32.0538C123.091 32.0538 123.091 0 100.515 0Z" fill="black"/>
<path opacity="0.1" d="M114.217 19.0326C113.014 24.5437 108.446 29.3288 100.507 29.3288C81.7731 29.3288 81.8056 2.72656 100.507 2.72656H100.875C83.2742 3.05171 83.3609 28.245 101.222 28.245C108.511 28.2504 112.851 24.0344 114.217 19.0326Z" fill="black"/>
<g opacity="0.1">
<path d="M100.65 6.23287C100.799 6.22983 100.943 6.28461 101.052 6.38568C101.162 6.48676 101.227 6.62624 101.236 6.77478V7.66893C102.799 7.77144 104.301 8.31234 105.571 9.22962C105.788 9.38677 105.912 9.51683 105.912 9.77152C105.896 9.92576 105.821 10.0679 105.703 10.1686C105.585 10.2694 105.433 10.3212 105.278 10.3134C105.118 10.3176 104.961 10.2616 104.839 10.1563C103.776 9.34665 102.511 8.84431 101.181 8.70397V14.9359C104.888 15.6512 106.449 16.9193 106.449 19.1086C106.449 21.4713 104.281 23.1458 101.23 23.2379V24.9774C101.23 25.1327 101.169 25.2815 101.059 25.3913C100.949 25.501 100.8 25.5627 100.645 25.5627C100.49 25.5627 100.341 25.501 100.231 25.3913C100.121 25.2815 100.06 25.1327 100.06 24.9774V23.2108C98.0472 23.0847 96.126 22.326 94.5702 21.0432C94.4911 20.9933 94.4254 20.9247 94.3791 20.8434C94.3328 20.7621 94.3072 20.6707 94.3047 20.5772C94.3208 20.4277 94.3918 20.2896 94.5039 20.1894C94.616 20.0893 94.7613 20.0344 94.9116 20.0353C95.0728 20.0283 95.2304 20.0847 95.3506 20.1924C96.6772 21.3622 98.3458 22.073 100.109 22.2191V15.8355C96.4506 15.0985 94.9387 13.8683 94.9387 11.6411C94.9387 9.41387 97.1063 7.66892 100.06 7.6039V6.76936C100.068 6.62033 100.135 6.48058 100.245 6.38022C100.356 6.27987 100.501 6.22695 100.65 6.23287ZM100.109 14.7137V8.62268C97.7404 8.66604 96.1797 9.96119 96.1797 11.5652C96.1851 13.0826 96.9655 14.0201 100.114 14.7137H100.109ZM101.192 16.0739V22.23C103.631 22.1866 105.213 20.8915 105.213 19.1953C105.208 17.6563 104.357 16.7188 101.187 16.0739H101.192Z" fill="black"/>
</g>
<path d="M16.5704 56.0717C32.9793 59.0197 28.6441 83.3242 12.2351 80.3762C-4.17385 77.4283 0.134314 53.1237 16.5704 56.0717Z" fill="#3C8AFF"/>
<path opacity="0.2" d="M16.5704 56.0717C32.9793 59.0197 28.6441 83.3242 12.2351 80.3762C-4.17385 77.4283 0.134314 53.1237 16.5704 56.0717Z" fill="black"/>
<path d="M15.0323 55.7954C30.6664 58.6025 26.3311 82.8908 10.6971 80.1C-4.93695 77.3091 -0.634204 52.9883 15.0323 55.7954Z" fill="#3C8AFF"/>
<path opacity="0.1" d="M15.0323 55.7954C30.6664 58.6025 26.3311 82.8908 10.6971 80.1C-4.93695 77.3091 -0.634204 52.9883 15.0323 55.7954Z" fill="black"/>
<path opacity="0.1" d="M2.92969 68.5195C3.01639 72.8548 5.53626 77.0491 11.0583 78.0354C24.0641 80.3656 27.6515 60.1904 14.6782 57.8656L14.4235 57.8223C26.5894 60.2608 23.0941 79.3522 10.7115 77.125C5.63922 76.22 3.20064 72.4809 2.92969 68.5195Z" fill="black"/>
<g opacity="0.1">
<path d="M13.7673 59.6376C13.8735 59.6587 13.9674 59.7202 14.0291 59.8092C14.0908 59.8982 14.1154 60.0077 14.0979 60.1145L13.9733 60.8136C15.0549 61.1046 16.0248 61.7123 16.7587 62.5585C16.8208 62.6107 16.8684 62.678 16.8968 62.754C16.9253 62.8299 16.9337 62.9119 16.9212 62.9921C16.9099 63.0509 16.8866 63.1068 16.8526 63.1561C16.8187 63.2055 16.7748 63.2472 16.7239 63.2788C16.673 63.3104 16.6161 63.3311 16.5568 63.3395C16.4975 63.348 16.437 63.3441 16.3793 63.328C16.3226 63.3212 16.2681 63.3021 16.2194 63.2722C16.1708 63.2423 16.1292 63.2022 16.0975 63.1546C15.4884 62.4172 14.6792 61.8715 13.7673 61.5831L12.884 66.3139C15.3497 67.3381 16.2547 68.4816 15.9458 70.1561C15.6098 71.9498 13.8703 72.9361 11.746 72.6109L11.5022 73.9277C11.482 74.0355 11.4199 74.1309 11.3295 74.1929C11.239 74.2549 11.1277 74.2784 11.0199 74.2583C10.9121 74.2382 10.8167 74.1761 10.7547 74.0856C10.6927 73.9952 10.6692 73.8838 10.6893 73.776L10.9386 72.4429C9.54478 72.0685 8.31512 71.2411 7.44327 70.091C7.39336 70.0416 7.35638 69.9807 7.33559 69.9136C7.3148 69.8465 7.31083 69.7753 7.32405 69.7063C7.34879 69.5966 7.41369 69.5002 7.50596 69.436C7.59824 69.3718 7.7112 69.3445 7.82261 69.3595C7.87883 69.3679 7.93276 69.3877 7.98118 69.4174C8.0296 69.4472 8.07151 69.4865 8.1044 69.5329C8.82942 70.5782 9.891 71.3433 11.112 71.7005L12.0116 66.8884C9.57839 65.8587 8.70592 64.7207 9.02023 63.0408C9.33453 61.3609 11.0686 60.3313 13.1387 60.6456L13.2579 60.0061C13.2634 59.9468 13.2814 59.8894 13.3109 59.8376C13.3404 59.7859 13.3806 59.741 13.4289 59.7061C13.4772 59.6712 13.5323 59.6471 13.5907 59.6352C13.6491 59.6234 13.7093 59.6243 13.7673 59.6376ZM12.2012 65.9888L13.0574 61.3555C11.4317 61.0791 10.1474 61.8595 9.91979 63.0788C9.69219 64.298 10.1149 65.0567 12.2012 65.9888ZM12.7431 67.1593L11.8761 71.8197C13.5722 72.1015 14.8511 71.3266 15.095 70.0423C15.3172 68.8772 14.8566 68.0535 12.7485 67.1593H12.7431Z" fill="black"/>
</g>
</svg>
