<svg width="329" height="69" viewBox="0 0 329 69" fill="none" xmlns="http://www.w3.org/2000/svg">
<rect width="329" height="69" rx="7" fill="#F2F2F2"/>
<path d="M52.984 20.584V19.492H46.12V20.584H48.964V28H50.14V20.584H52.984ZM55.1896 24.604C55.2136 23.752 55.6696 23.08 56.5336 23.08C57.5416 23.08 57.8776 23.728 57.8776 24.532V28H59.0056V24.34C59.0056 23.056 58.3216 22.06 56.9416 22.06C56.2816 22.06 55.6096 22.288 55.1896 22.9V19.312H54.0616V28H55.1896V24.604ZM61.5318 24.52C61.5798 23.776 62.1558 23.044 63.1038 23.044C64.1238 23.044 64.6638 23.692 64.6878 24.52H61.5318ZM64.8558 26.02C64.6398 26.668 64.1718 27.184 63.2358 27.184C62.2638 27.184 61.5198 26.464 61.4958 25.432H65.8398C65.8518 25.36 65.8638 25.216 65.8638 25.072C65.8638 23.272 64.8678 22.048 63.0918 22.048C61.6398 22.048 60.3318 23.284 60.3318 25.096C60.3318 27.052 61.6878 28.18 63.2358 28.18C64.5798 28.18 65.5038 27.376 65.8278 26.356L64.8558 26.02ZM71.4318 28V19.312H70.3038V28H71.4318ZM75.8226 27.172C74.8626 27.172 74.0226 26.452 74.0226 25.108C74.0226 23.776 74.8626 23.056 75.8226 23.056C76.7826 23.056 77.6226 23.776 77.6226 25.108C77.6226 26.452 76.7826 27.172 75.8226 27.172ZM75.8226 22.048C74.0946 22.048 72.8706 23.356 72.8706 25.108C72.8706 26.872 74.0946 28.18 75.8226 28.18C77.5506 28.18 78.7746 26.872 78.7746 25.108C78.7746 23.356 77.5506 22.048 75.8226 22.048ZM79.8578 26.452C79.8578 27.364 80.6138 28.18 81.7898 28.18C82.8218 28.18 83.3978 27.628 83.6498 27.22C83.6498 27.64 83.6858 27.856 83.7098 28H84.8138C84.7898 27.856 84.7418 27.556 84.7418 27.052V24.16C84.7418 23.032 84.0698 22.048 82.3418 22.048C81.0938 22.048 80.0978 22.816 79.9778 23.92L81.0578 24.172C81.1298 23.5 81.5738 23.008 82.3658 23.008C83.2418 23.008 83.6138 23.476 83.6138 24.04C83.6138 24.244 83.5178 24.424 83.1698 24.472L81.6098 24.7C80.6138 24.844 79.8578 25.42 79.8578 26.452ZM81.9458 27.232C81.3698 27.232 81.0098 26.824 81.0098 26.392C81.0098 25.876 81.3698 25.6 81.8498 25.528L83.6138 25.264V25.528C83.6138 26.788 82.8698 27.232 81.9458 27.232ZM87.6271 24.664C87.6271 23.788 88.0831 23.08 88.9711 23.08C89.9791 23.08 90.3151 23.728 90.3151 24.532V28H91.4431V24.34C91.4431 23.056 90.7591 22.06 89.3791 22.06C88.7071 22.06 88.0231 22.336 87.6031 23.056V22.228H86.4991V28H87.6271V24.664ZM99.4893 22.228L97.9893 26.572L96.6933 22.228H95.4573L97.3533 28H98.5413L100.041 23.608L101.577 28H102.741L104.613 22.228H103.425L102.153 26.572L100.653 22.228H99.4893ZM106.869 28V22.228H105.753V28H106.869ZM105.501 20.044C105.501 20.488 105.861 20.848 106.305 20.848C106.761 20.848 107.121 20.488 107.121 20.044C107.121 19.588 106.761 19.228 106.305 19.228C105.861 19.228 105.501 19.588 105.501 20.044ZM109.916 28V19.312H108.788V28H109.916ZM112.963 28V19.312H111.835V28H112.963ZM118.998 28V27.16C119.358 27.784 120.018 28.156 120.87 28.156C122.586 28.156 123.558 26.8 123.558 25.084C123.558 23.404 122.658 22.06 120.906 22.06C119.946 22.06 119.274 22.528 118.998 23.044V19.312H117.882V28H118.998ZM122.406 25.084C122.406 26.332 121.734 27.148 120.702 27.148C119.706 27.148 118.986 26.332 118.986 25.084C118.986 23.836 119.706 23.056 120.702 23.056C121.746 23.056 122.406 23.836 122.406 25.084ZM125.727 24.52C125.775 23.776 126.351 23.044 127.299 23.044C128.319 23.044 128.859 23.692 128.883 24.52H125.727ZM129.051 26.02C128.835 26.668 128.367 27.184 127.431 27.184C126.459 27.184 125.715 26.464 125.691 25.432H130.035C130.047 25.36 130.059 25.216 130.059 25.072C130.059 23.272 129.063 22.048 127.287 22.048C125.835 22.048 124.527 23.284 124.527 25.096C124.527 27.052 125.883 28.18 127.431 28.18C128.775 28.18 129.699 27.376 130.023 26.356L129.051 26.02ZM134.079 28.312C134.223 29.548 135.303 30.46 136.743 30.46C138.915 30.46 139.635 29.032 139.635 27.568V22.228H138.519V23.032C138.231 22.456 137.631 22.12 136.743 22.12C135.159 22.12 134.091 23.368 134.091 24.928C134.091 26.56 135.207 27.724 136.743 27.724C137.607 27.724 138.231 27.304 138.507 26.776V27.604C138.507 28.852 137.955 29.476 136.743 29.476C135.867 29.476 135.255 28.864 135.171 28.06L134.079 28.312ZM136.911 26.776C135.891 26.776 135.243 26.056 135.243 24.928C135.243 23.812 135.915 23.08 136.911 23.08C137.883 23.08 138.555 23.812 138.555 24.928C138.555 26.044 137.883 26.776 136.911 26.776ZM142.553 28V22.228H141.437V28H142.553ZM141.185 20.044C141.185 20.488 141.545 20.848 141.989 20.848C142.445 20.848 142.805 20.488 142.805 20.044C142.805 19.588 142.445 19.228 141.989 19.228C141.545 19.228 141.185 19.588 141.185 20.044ZM149.416 22.228H148.204L146.548 26.68L144.904 22.228H143.632L145.972 28H147.112L149.416 22.228ZM151.051 24.52C151.099 23.776 151.675 23.044 152.623 23.044C153.643 23.044 154.183 23.692 154.207 24.52H151.051ZM154.375 26.02C154.159 26.668 153.691 27.184 152.755 27.184C151.783 27.184 151.039 26.464 151.015 25.432H155.359C155.371 25.36 155.383 25.216 155.383 25.072C155.383 23.272 154.387 22.048 152.611 22.048C151.159 22.048 149.851 23.284 149.851 25.096C149.851 27.052 151.207 28.18 152.755 28.18C154.099 28.18 155.023 27.376 155.347 26.356L154.375 26.02ZM157.951 24.664C157.951 23.788 158.407 23.08 159.295 23.08C160.303 23.08 160.639 23.728 160.639 24.532V28H161.767V24.34C161.767 23.056 161.083 22.06 159.703 22.06C159.031 22.06 158.347 22.336 157.927 23.056V22.228H156.823V28H157.951V24.664ZM167.678 28V27.16C168.038 27.784 168.698 28.156 169.55 28.156C171.266 28.156 172.238 26.8 172.238 25.084C172.238 23.404 171.338 22.06 169.586 22.06C168.626 22.06 167.954 22.528 167.678 23.044V19.312H166.562V28H167.678ZM171.086 25.084C171.086 26.332 170.414 27.148 169.382 27.148C168.386 27.148 167.666 26.332 167.666 25.084C167.666 23.836 168.386 23.056 169.382 23.056C170.426 23.056 171.086 23.836 171.086 25.084ZM177.42 27.304C177.42 27.544 177.444 27.868 177.468 28H178.548C178.524 27.796 178.488 27.388 178.488 26.932V22.228H177.36V25.708C177.36 26.584 176.904 27.184 175.992 27.184C175.044 27.184 174.684 26.488 174.684 25.696V22.228H173.556V25.864C173.556 27.172 174.372 28.18 175.716 28.18C176.388 28.18 177.108 27.904 177.42 27.304ZM181.925 20.404H180.893V21.34C180.893 21.844 180.629 22.228 180.005 22.228H179.693V23.248H180.797V26.416C180.797 27.46 181.421 28.06 182.405 28.06C182.789 28.06 183.077 27.988 183.173 27.952V26.992C183.077 27.016 182.873 27.04 182.729 27.04C182.141 27.04 181.925 26.776 181.925 26.248V23.248H183.173V22.228H181.925V20.404ZM189.191 20.404H188.159V21.34C188.159 21.844 187.895 22.228 187.271 22.228H186.959V23.248H188.063V26.416C188.063 27.46 188.687 28.06 189.671 28.06C190.055 28.06 190.343 27.988 190.439 27.952V26.992C190.343 27.016 190.139 27.04 189.995 27.04C189.407 27.04 189.191 26.776 189.191 26.248V23.248H190.439V22.228H189.191V20.404ZM193.072 24.604C193.096 23.752 193.552 23.08 194.416 23.08C195.424 23.08 195.76 23.728 195.76 24.532V28H196.888V24.34C196.888 23.056 196.204 22.06 194.824 22.06C194.164 22.06 193.492 22.288 193.072 22.9V19.312H191.944V28H193.072V24.604ZM199.415 24.52C199.463 23.776 200.039 23.044 200.987 23.044C202.007 23.044 202.547 23.692 202.571 24.52H199.415ZM202.739 26.02C202.523 26.668 202.055 27.184 201.119 27.184C200.147 27.184 199.403 26.464 199.379 25.432H203.723C203.735 25.36 203.747 25.216 203.747 25.072C203.747 23.272 202.751 22.048 200.975 22.048C199.523 22.048 198.215 23.284 198.215 25.096C198.215 27.052 199.571 28.18 201.119 28.18C202.463 28.18 203.387 27.376 203.711 26.356L202.739 26.02ZM208.859 25.096C208.859 23.908 209.531 23.068 210.563 23.068C211.595 23.068 212.219 23.884 212.219 25.072C212.219 26.26 211.583 27.16 210.551 27.16C209.471 27.16 208.859 26.284 208.859 25.096ZM212.231 27.22C212.231 27.568 212.267 27.868 212.291 28H213.383C213.371 27.904 213.323 27.484 213.323 26.932V19.312H212.207V23.044C212.015 22.576 211.463 22.072 210.443 22.072C208.811 22.072 207.707 23.464 207.707 25.096C207.707 26.812 208.751 28.156 210.443 28.156C211.343 28.156 211.955 27.676 212.231 27.124V27.22ZM215.973 24.52C216.021 23.776 216.597 23.044 217.545 23.044C218.565 23.044 219.105 23.692 219.129 24.52H215.973ZM219.297 26.02C219.081 26.668 218.613 27.184 217.677 27.184C216.705 27.184 215.961 26.464 215.937 25.432H220.281C220.293 25.36 220.305 25.216 220.305 25.072C220.305 23.272 219.309 22.048 217.533 22.048C216.081 22.048 214.773 23.284 214.773 25.096C214.773 27.052 216.129 28.18 217.677 28.18C219.021 28.18 219.945 27.376 220.269 26.356L219.297 26.02ZM222.873 28V19.312H221.745V28H222.873ZM225.908 28V22.228H224.792V28H225.908ZM224.54 20.044C224.54 20.488 224.9 20.848 225.344 20.848C225.8 20.848 226.16 20.488 226.16 20.044C226.16 19.588 225.8 19.228 225.344 19.228C224.9 19.228 224.54 19.588 224.54 20.044ZM232.771 22.228H231.559L229.903 26.68L228.259 22.228H226.987L229.327 28H230.467L232.771 22.228ZM234.407 24.52C234.455 23.776 235.031 23.044 235.979 23.044C236.999 23.044 237.539 23.692 237.563 24.52H234.407ZM237.731 26.02C237.515 26.668 237.047 27.184 236.111 27.184C235.139 27.184 234.395 26.464 234.371 25.432H238.715C238.727 25.36 238.739 25.216 238.739 25.072C238.739 23.272 237.743 22.048 235.967 22.048C234.515 22.048 233.207 23.284 233.207 25.096C233.207 27.052 234.563 28.18 236.111 28.18C237.455 28.18 238.379 27.376 238.703 26.356L237.731 26.02ZM243.383 22.168C243.323 22.156 243.167 22.132 243.011 22.132C242.423 22.132 241.703 22.348 241.283 23.236V22.228H240.179V28H241.307V25.108C241.307 23.836 241.943 23.332 242.891 23.332C243.047 23.332 243.215 23.344 243.383 23.368V22.168ZM246.201 30.412L249.957 22.228H248.745L247.017 26.212L245.217 22.228H243.921L246.405 27.364L244.965 30.412H246.201ZM257.294 22.228L255.794 26.572L254.498 22.228H253.262L255.158 28H256.346L257.846 23.608L259.382 28H260.546L262.418 22.228H261.23L259.958 26.572L258.458 22.228H257.294ZM264.674 28V22.228H263.558V28H264.674ZM263.306 20.044C263.306 20.488 263.666 20.848 264.11 20.848C264.566 20.848 264.926 20.488 264.926 20.044C264.926 19.588 264.566 19.228 264.11 19.228C263.666 19.228 263.306 19.588 263.306 20.044ZM267.721 28V19.312H266.593V28H267.721ZM270.768 28V19.312H269.64V28H270.768ZM276.803 28V27.16C277.163 27.784 277.823 28.156 278.675 28.156C280.391 28.156 281.363 26.8 281.363 25.084C281.363 23.404 280.463 22.06 278.711 22.06C277.751 22.06 277.079 22.528 276.803 23.044V19.312H275.687V28H276.803ZM280.211 25.084C280.211 26.332 279.539 27.148 278.507 27.148C277.511 27.148 276.791 26.332 276.791 25.084C276.791 23.836 277.511 23.056 278.507 23.056C279.551 23.056 280.211 23.836 280.211 25.084ZM283.532 24.52C283.58 23.776 284.156 23.044 285.104 23.044C286.124 23.044 286.664 23.692 286.688 24.52H283.532ZM286.856 26.02C286.64 26.668 286.172 27.184 285.236 27.184C284.264 27.184 283.52 26.464 283.496 25.432H287.84C287.852 25.36 287.864 25.216 287.864 25.072C287.864 23.272 286.868 22.048 285.092 22.048C283.64 22.048 282.332 23.284 282.332 25.096C282.332 27.052 283.688 28.18 285.236 28.18C286.58 28.18 287.504 27.376 287.828 26.356L286.856 26.02ZM48.076 50.28V47.22C48.388 47.736 49.06 48.156 49.948 48.156C51.64 48.156 52.636 46.824 52.636 45.108C52.636 43.428 51.712 42.096 49.984 42.096C49.048 42.096 48.364 42.552 48.052 43.128V42.228H46.96V50.28H48.076ZM51.484 45.108C51.484 46.296 50.824 47.148 49.78 47.148C48.748 47.148 48.064 46.296 48.064 45.108C48.064 43.956 48.748 43.092 49.78 43.092C50.836 43.092 51.484 43.956 51.484 45.108ZM53.7133 46.452C53.7133 47.364 54.4693 48.18 55.6453 48.18C56.6773 48.18 57.2533 47.628 57.5053 47.22C57.5053 47.64 57.5413 47.856 57.5653 48H58.6693C58.6453 47.856 58.5973 47.556 58.5973 47.052V44.16C58.5973 43.032 57.9253 42.048 56.1973 42.048C54.9493 42.048 53.9533 42.816 53.8333 43.92L54.9133 44.172C54.9853 43.5 55.4293 43.008 56.2213 43.008C57.0973 43.008 57.4693 43.476 57.4693 44.04C57.4693 44.244 57.3733 44.424 57.0253 44.472L55.4653 44.7C54.4693 44.844 53.7133 45.42 53.7133 46.452ZM55.8013 47.232C55.2253 47.232 54.8653 46.824 54.8653 46.392C54.8653 45.876 55.2253 45.6 55.7053 45.528L57.4693 45.264V45.528C57.4693 46.788 56.7253 47.232 55.8013 47.232ZM61.4705 48V42.228H60.3545V48H61.4705ZM60.1025 40.044C60.1025 40.488 60.4625 40.848 60.9065 40.848C61.3625 40.848 61.7225 40.488 61.7225 40.044C61.7225 39.588 61.3625 39.228 60.9065 39.228C60.4625 39.228 60.1025 39.588 60.1025 40.044ZM64.0617 45.096C64.0617 43.908 64.7337 43.068 65.7657 43.068C66.7977 43.068 67.4217 43.884 67.4217 45.072C67.4217 46.26 66.7857 47.16 65.7537 47.16C64.6737 47.16 64.0617 46.284 64.0617 45.096ZM67.4337 47.22C67.4337 47.568 67.4697 47.868 67.4937 48H68.5857C68.5737 47.904 68.5257 47.484 68.5257 46.932V39.312H67.4097V43.044C67.2177 42.576 66.6657 42.072 65.6457 42.072C64.0137 42.072 62.9097 43.464 62.9097 45.096C62.9097 46.812 63.9537 48.156 65.6457 48.156C66.5457 48.156 67.1577 47.676 67.4337 47.124V47.22ZM76.3484 43.248V42.228H74.9564V41.316C74.9564 40.524 75.4724 40.332 75.8684 40.332C76.1564 40.332 76.3004 40.38 76.3604 40.404V39.396C76.3124 39.36 76.0724 39.276 75.6884 39.276C74.6444 39.276 73.7924 39.972 73.7924 41.256V42.228H72.7244V43.248H73.7924V48H74.9564V43.248H76.3484ZM79.7953 47.172C78.8353 47.172 77.9953 46.452 77.9953 45.108C77.9953 43.776 78.8353 43.056 79.7953 43.056C80.7553 43.056 81.5953 43.776 81.5953 45.108C81.5953 46.452 80.7553 47.172 79.7953 47.172ZM79.7953 42.048C78.0673 42.048 76.8433 43.356 76.8433 45.108C76.8433 46.872 78.0673 48.18 79.7953 48.18C81.5233 48.18 82.7473 46.872 82.7473 45.108C82.7473 43.356 81.5233 42.048 79.7953 42.048ZM87.3945 42.168C87.3345 42.156 87.1785 42.132 87.0225 42.132C86.4345 42.132 85.7145 42.348 85.2945 43.236V42.228H84.1905V48H85.3185V45.108C85.3185 43.836 85.9545 43.332 86.9025 43.332C87.0585 43.332 87.2265 43.344 87.3945 43.368V42.168ZM87.3986 47.232C87.3986 47.7 87.7586 48.06 88.2266 48.06C88.6946 48.06 89.0666 47.7 89.0666 47.232C89.0666 46.764 88.6946 46.392 88.2266 46.392C87.7586 46.392 87.3986 46.764 87.3986 47.232Z" fill="#1F1F1F" fill-opacity="0.7"/>
<circle cx="23" cy="26" r="10" fill="#666666"/>
<circle cx="1" cy="1" r="1" transform="matrix(-1 0 0 1 24 29)" fill="white"/>
<rect x="22" y="20" width="2" height="8" rx="1" fill="white"/>
</svg>
