<svg width="215" height="215" viewBox="0 0 215 215" fill="none" xmlns="http://www.w3.org/2000/svg">
<rect width="215" height="215" rx="107.5" fill="#E2EDFF"/>
<mask id="mask0_734_8301" style="mask-type:alpha" maskUnits="userSpaceOnUse" x="0" y="0" width="215" height="215">
<rect width="215" height="215" rx="107.5" fill="white"/>
</mask>
<g mask="url(#mask0_734_8301)">
<path d="M113.705 174.36V98.3379H112.587V174.36H113.705Z" fill="#E6E6E6"/>
<path d="M147.754 98.3379H112.588V99.6176H147.754V98.3379Z" fill="#E6E6E6"/>
<path d="M144.114 251.557H50.9555C49.2324 251.571 47.5247 251.263 45.9398 250.652C44.3549 250.04 42.9271 249.139 41.7461 248.004C40.5651 246.869 39.6566 245.526 39.0776 244.058C38.4987 242.591 38.2618 241.031 38.382 239.476L49.7031 64.378C49.9613 61.1279 51.5584 58.0836 54.1786 55.8468C56.7988 53.61 60.2515 52.3434 63.8544 52.2974H157.034C158.757 52.283 160.465 52.5912 162.05 53.2026C163.635 53.814 165.062 54.7154 166.243 55.8501C167.424 56.9848 168.333 58.3282 168.912 59.7958C169.491 61.2634 169.728 62.8235 169.608 64.378L158.251 239.476C157.993 242.724 156.398 245.767 153.781 248.003C151.164 250.24 147.714 251.508 144.114 251.557Z" fill="#3C8AFF"/>
<path opacity="0.3" d="M144.114 251.557H50.9555C49.2324 251.571 47.5247 251.263 45.9398 250.652C44.3549 250.04 42.9271 249.139 41.7461 248.004C40.5651 246.869 39.6566 245.526 39.0776 244.058C38.4987 242.591 38.2618 241.031 38.382 239.476L49.7031 64.378C49.9613 61.1279 51.5584 58.0836 54.1786 55.8468C56.7988 53.61 60.2515 52.3434 63.8544 52.2974H157.034C158.757 52.283 160.465 52.5912 162.05 53.2026C163.635 53.814 165.062 54.7154 166.243 55.8501C167.424 56.9848 168.333 58.3282 168.912 59.7958C169.491 61.2634 169.728 62.8235 169.608 64.378L158.251 239.476C157.993 242.724 156.398 245.767 153.781 248.003C151.164 250.24 147.714 251.508 144.114 251.557Z" fill="white"/>
<path d="M143.562 248.051H52.9935C51.7829 248.062 50.5829 247.846 49.4692 247.416C48.3555 246.987 47.352 246.354 46.5219 245.557C45.6918 244.76 45.0531 243.817 44.6459 242.786C44.2387 241.755 44.0719 240.659 44.1559 239.566L55.477 65.2296C55.6585 62.9516 56.7755 60.8174 58.6084 59.2462C60.4414 57.6751 62.8579 56.7806 65.383 56.7386H155.952C157.163 56.7289 158.363 56.9458 159.476 57.3757C160.59 57.8056 161.594 58.4391 162.424 59.2366C163.254 60.034 163.892 60.978 164.299 62.0094C164.706 63.0408 164.873 64.1371 164.789 65.2296L153.468 239.566C153.287 241.844 152.169 243.977 150.336 245.547C148.503 247.118 146.087 248.011 143.562 248.051Z" fill="#3C8AFF"/>
<path d="M142.586 247.116H52.0169C50.8059 247.126 49.6059 246.909 48.4921 246.479C47.3784 246.049 46.375 245.415 45.545 244.618C44.715 243.821 44.0764 242.877 43.6693 241.845C43.2622 240.814 43.0954 239.717 43.1793 238.625L54.5004 64.2882C54.6819 62.0102 55.7989 59.8759 57.6319 58.3048C59.4648 56.7337 61.8813 55.8392 64.4064 55.7972H154.975C156.186 55.7875 157.386 56.0044 158.5 56.4343C159.614 56.8642 160.617 57.4977 161.447 58.2952C162.277 59.0926 162.916 60.0366 163.323 61.068C163.73 62.0993 163.897 63.1957 163.813 64.2882L152.492 238.625C152.31 240.903 151.193 243.037 149.36 244.608C147.527 246.18 145.111 247.074 142.586 247.116Z" fill="white"/>
<path opacity="0.1" d="M139.94 240.634H55.4774C54.729 240.64 53.9874 240.506 53.2991 240.241C52.6107 239.975 51.9906 239.584 51.4776 239.091C50.9646 238.598 50.5698 238.015 50.3181 237.377C50.0664 236.74 49.9632 236.062 50.0149 235.387L54.7698 162.667C54.8813 161.256 55.574 159.934 56.7112 158.962C57.8484 157.991 59.3473 157.441 60.9115 157.42H145.339C146.087 157.414 146.829 157.548 147.517 157.814C148.205 158.079 148.825 158.471 149.338 158.964C149.851 159.456 150.246 160.04 150.498 160.677C150.749 161.314 150.853 161.992 150.801 162.667L146.081 235.387C145.97 236.798 145.277 238.12 144.14 239.092C143.003 240.063 141.504 240.614 139.94 240.634Z" fill="#3C8AFF"/>
<path opacity="0.1" d="M121.181 68.7292H96.565C96.2975 68.7315 96.0323 68.6838 95.7862 68.589C95.5401 68.4941 95.3184 68.3543 95.1349 68.1782C94.9515 68.0021 94.8104 67.7936 94.7204 67.5657C94.6304 67.3379 94.5935 67.0957 94.6121 66.8544C94.6511 66.3484 94.899 65.8741 95.3066 65.5256C95.7142 65.1772 96.2518 64.98 96.8126 64.9732H121.422C121.692 64.9672 121.961 65.0124 122.211 65.106C122.461 65.1997 122.687 65.3396 122.873 65.5168C123.06 65.694 123.204 65.9045 123.295 66.1349C123.386 66.3653 123.423 66.6103 123.403 66.8544C123.364 67.3631 123.113 67.8394 122.7 68.1873C122.288 68.5352 121.745 68.7288 121.181 68.7292Z" fill="#3C8AFF"/>
<path opacity="0.1" d="M130.974 138.915C146.132 125.603 147.167 104.333 133.285 91.4058C119.404 78.4789 95.8623 78.7908 80.7041 92.1023C65.5459 105.414 64.5111 126.684 78.3927 139.611C92.2743 152.538 115.816 152.226 130.974 138.915Z" fill="#3C8AFF"/>
<path d="M79.8169 137.764C76.7196 134.782 74.3371 131.254 72.8188 127.4C71.3004 123.546 70.679 119.45 70.9935 115.369H71.7011C71.3945 119.363 72.003 123.37 73.4884 127.141C74.9738 130.912 77.3041 134.365 80.3334 137.284L79.8169 137.764Z" fill="#3C8AFF"/>
<path d="M140.681 115.644L139.973 115.605C140.166 112.787 139.928 109.957 139.266 107.197L139.973 107.057C140.65 109.875 140.888 112.765 140.681 115.644Z" fill="#3C8AFF"/>
<path d="M137.214 101.631C135.482 98.1565 133.005 95.0276 129.926 92.4256C126.847 89.8235 123.228 87.8001 119.277 86.4726L119.525 85.8711C123.566 87.2259 127.268 89.2945 130.415 91.9563C133.563 94.6181 136.093 97.8199 137.858 101.375L137.214 101.631Z" fill="#3C8AFF"/>
<path d="M127.74 135.902C140.95 124.302 141.853 105.767 129.758 94.5028C117.662 83.239 97.1478 83.512 83.938 95.1125C70.7282 106.713 69.825 125.248 81.9207 136.512C94.0165 147.776 114.531 147.503 127.74 135.902Z" fill="#3C8AFF"/>
<path d="M102.24 119.483C103.797 119.169 104.525 117.966 104.858 116.597C104.893 116.45 104.922 116.309 104.95 116.168V116.04C105.035 115.47 105.082 114.895 105.092 114.319C103.585 114.184 102.185 113.553 101.159 112.545C100.134 111.538 99.5539 110.224 99.5301 108.855C99.452 106.139 100.118 103.449 101.469 101.023C101.121 101.064 100.791 101.188 100.514 101.381C100.487 101.4 100.456 101.413 100.423 101.419C100.39 101.426 100.356 101.426 100.323 101.42C100.261 101.41 100.206 101.38 100.167 101.336C100.129 101.288 100.113 101.229 100.123 101.171C100.132 101.112 100.165 101.059 100.216 101.023C100.656 100.722 101.193 100.56 101.745 100.562C101.851 100.409 101.95 100.249 102.056 100.101C101.603 100.101 101.165 100.101 100.74 100.101C101.207 97.1453 107.497 94.6626 111.785 96.9021C113.696 97.2476 116.851 99.7175 116.851 99.7175C116.915 101.291 116.865 102.866 116.703 104.433C116.42 107.108 115.719 110.25 114.014 112.003C114.438 111.106 114.594 110.124 114.467 109.155C114.058 109.521 113.551 109.783 112.995 109.917C112.793 110.309 112.557 110.686 112.288 111.043C111.622 113.788 111.148 117.442 112.16 119.547C113.073 119.598 113.957 119.675 114.799 119.758L115.005 119.79C115.56 119.495 116.094 119.168 116.604 118.811C122.972 114.332 116.215 109.072 117.807 104.254C119.399 99.436 118.054 97.606 113.703 97.4524C115.507 94.8482 104.044 90.6891 99.0064 98.7705C94.4426 106.097 92.9709 109.757 94.6124 115.484C95.2295 117.355 96.6277 118.937 98.5112 119.892C98.8319 119.813 99.1581 119.753 99.4876 119.713C100.386 119.636 101.32 119.547 102.24 119.483Z" fill="#263238"/>
<path d="M92.3407 130.745C92.0811 130.329 91.8449 129.902 91.6332 129.465C91.152 130.745 90.678 132.024 90.218 133.304C89.7794 134.456 89.3619 135.608 88.9232 136.708L88.2651 138.263L87.9821 138.903C87.8831 139.076 87.9821 138.973 87.9821 139.024C87.6805 139.342 87.3464 139.633 86.9845 139.895C86.9066 139.965 86.8076 140.029 86.7227 140.093C88.6805 141.287 90.787 142.269 92.9988 143.017C93.0483 140.093 93.4446 137.054 93.8691 136.241C91.3219 134.641 91.7039 132.92 92.3407 130.745Z" fill="#FFC3BD"/>
<path d="M94.8175 122.113L94.6406 122.337C94.6972 122.26 94.7609 122.19 94.8246 122.12L94.8175 122.113Z" fill="#263238"/>
<path d="M93.1831 126.401C93.1727 124.992 93.6448 123.615 94.5346 122.459C93.178 124.389 92.0626 126.449 91.209 128.602C91.209 128.602 91.3363 128.941 91.6052 129.472C91.8169 129.909 92.0531 130.336 92.3128 130.752C92.8173 129.343 93.1101 127.88 93.1831 126.401Z" fill="#263238"/>
<path d="M117.849 135.684C117.01 134.569 116.265 133.399 115.62 132.184C115.408 132.286 115.189 132.388 114.962 132.478C112.839 130.45 111.028 128.812 111.028 128.812C108.382 123.821 110.016 120.98 115.033 119.822C115.811 119.966 116.554 120.237 117.226 120.621C116.565 120.201 115.804 119.925 115.005 119.815L114.799 119.783C113.957 119.7 113.073 119.623 112.16 119.572C112.358 120.039 107.816 125.971 104.964 126.911C103.797 124.249 100.521 124.07 100.521 124.07C100.521 124.07 97.464 123.501 96.5158 125.241C97.1385 121.645 100.966 119.751 102.24 119.482C101.32 119.553 100.386 119.642 99.4876 119.745C99.1581 119.785 98.8319 119.845 98.5112 119.924C97.0551 120.285 95.764 121.056 94.8247 122.125C94.7611 122.195 94.6974 122.266 94.6408 122.343L94.5347 122.464C93.6449 123.62 93.1728 124.997 93.1832 126.406C93.1187 127.881 92.8355 129.343 92.3412 130.75C91.7044 132.9 91.3223 134.647 93.82 136.247C93.3955 137.059 92.9992 140.086 92.9497 143.023C96.4661 144.202 100.188 144.8 103.938 144.789C108.74 144.782 113.484 143.842 117.849 142.031C117.727 139.649 117.749 137.264 117.913 134.884C117.891 135.14 117.863 135.421 117.849 135.684Z" fill="#263238"/>
<path d="M100.52 124.07C100.52 124.07 103.796 124.25 104.963 126.911C107.793 125.939 112.357 120.039 112.159 119.572C112.159 119.572 105.713 122.4 100.52 124.07Z" fill="white"/>
<path d="M102.254 119.482C100.98 119.758 97.152 121.652 96.5293 125.241C97.4774 123.501 100.534 124.07 100.534 124.07C99.5435 120.705 102.254 119.482 102.254 119.482Z" fill="white"/>
<path d="M112.287 111.068C111.672 111.875 110.895 112.57 109.995 113.116C109.616 113.362 109.214 113.576 108.792 113.756C107.865 115.101 106.483 116.14 104.851 116.718V116.61C104.518 117.979 103.79 119.169 102.233 119.495C102.233 119.495 99.5229 120.724 100.499 124.09C105.7 122.42 112.139 119.611 112.139 119.611C111.148 117.473 111.622 113.813 112.287 111.068Z" fill="#FFC3BD"/>
<path d="M104.873 116.591C104.908 116.444 104.937 116.303 104.965 116.162C104.937 116.284 104.908 116.444 104.873 116.591Z" fill="#263238"/>
<path opacity="0.2" d="M104.873 116.591C104.908 116.444 104.937 116.303 104.965 116.162C104.937 116.284 104.908 116.444 104.873 116.591Z" fill="black"/>
<path d="M105.126 114.312C105.116 114.888 105.069 115.463 104.984 116.034C105.072 115.463 105.12 114.888 105.126 114.312Z" fill="#263238"/>
<path opacity="0.2" d="M105.126 114.312C105.116 114.888 105.069 115.463 104.984 116.034C105.072 115.463 105.12 114.888 105.126 114.312Z" fill="black"/>
<path d="M108.791 113.725C107.652 114.218 106.383 114.418 105.126 114.3C105.12 114.876 105.073 115.451 104.985 116.022V116.15C104.985 116.29 104.928 116.431 104.893 116.578V116.687C106.509 116.102 107.875 115.064 108.791 113.725Z" fill="#FFC3BD"/>
<path opacity="0.2" d="M108.791 113.725C107.652 114.218 106.383 114.418 105.126 114.3C105.12 114.876 105.073 115.451 104.985 116.022V116.15C104.985 116.29 104.928 116.431 104.893 116.578V116.687C106.509 116.102 107.875 115.064 108.791 113.725Z" fill="black"/>
<path d="M108.792 113.723C109.214 113.544 109.617 113.33 109.995 113.084C110.895 112.537 111.673 111.843 112.288 111.036C112.557 110.679 112.794 110.302 112.995 109.91C112.861 109.91 112.727 109.974 112.599 109.987C111.418 110.083 111.085 108.88 111.623 107.805C111.805 107.441 112.043 107.103 112.33 106.8C112.022 105.887 112.097 104.902 112.543 104.036C111.467 102.039 110.328 100.197 110.222 98.8594C107.574 99.5994 104.827 100.006 102.056 100.069C101.95 100.216 101.851 100.376 101.745 100.529C101.985 100.529 102.224 100.561 102.453 100.625C102.483 100.635 102.51 100.651 102.533 100.67C102.556 100.69 102.575 100.713 102.588 100.739C102.602 100.766 102.609 100.794 102.61 100.823C102.611 100.851 102.605 100.88 102.594 100.907C102.572 100.962 102.527 101.006 102.469 101.031C102.411 101.056 102.344 101.06 102.283 101.041C102.029 100.972 101.76 100.954 101.497 100.99C100.165 103.418 99.516 106.106 99.6082 108.816C99.6321 110.185 100.212 111.498 101.238 112.506C102.263 113.514 103.663 114.145 105.17 114.28C106.411 114.396 107.663 114.204 108.792 113.723ZM107.215 101.156C107.6 101.225 107.961 101.377 108.267 101.6C108.573 101.823 108.814 102.11 108.969 102.436C108.997 102.49 109 102.551 108.979 102.607C108.958 102.663 108.914 102.71 108.856 102.737C108.797 102.759 108.731 102.759 108.672 102.737C108.64 102.729 108.611 102.715 108.586 102.695C108.562 102.675 108.543 102.65 108.531 102.622C108.402 102.363 108.206 102.137 107.96 101.962C107.713 101.787 107.424 101.669 107.116 101.617C107.052 101.608 106.994 101.577 106.955 101.53C106.915 101.484 106.897 101.426 106.903 101.368C106.906 101.335 106.917 101.303 106.935 101.275C106.953 101.246 106.978 101.221 107.007 101.202C107.037 101.183 107.071 101.171 107.107 101.165C107.143 101.159 107.179 101.161 107.215 101.169V101.156ZM106.967 104.317C107.085 104.398 107.172 104.509 107.217 104.637C107.261 104.764 107.26 104.901 107.215 105.028C107.137 105.399 106.854 105.668 106.585 105.61C106.316 105.552 106.16 105.226 106.238 104.855C106.277 104.667 106.384 104.496 106.542 104.369C106.322 104.263 106.149 104.091 106.054 103.882L106.967 104.317ZM101.165 104.049C101.203 103.864 101.307 103.695 101.462 103.569C101.245 103.458 101.076 103.284 100.981 103.076L101.908 103.505C102.022 103.588 102.106 103.7 102.15 103.826C102.194 103.952 102.196 104.088 102.155 104.215C102.071 104.586 101.795 104.855 101.526 104.804C101.257 104.753 101.087 104.433 101.165 104.061V104.049ZM102.806 107.158C102.544 107.172 102.282 107.134 102.037 107.047C101.793 106.96 101.572 106.825 101.391 106.653C102.149 106.032 102.811 105.322 103.358 104.541L102.806 107.158ZM104.172 108.873C104.141 108.866 104.114 108.848 104.097 108.823C104.079 108.798 104.074 108.768 104.08 108.739C104.087 108.711 104.106 108.687 104.132 108.671C104.158 108.655 104.191 108.65 104.222 108.656C104.732 108.755 105.262 108.744 105.767 108.624C106.272 108.504 106.739 108.278 107.13 107.965C107.141 107.954 107.154 107.946 107.169 107.94C107.184 107.934 107.2 107.931 107.216 107.931C107.232 107.93 107.248 107.933 107.263 107.938C107.278 107.943 107.291 107.951 107.303 107.961C107.315 107.971 107.324 107.984 107.33 107.997C107.337 108.01 107.34 108.025 107.341 108.039C107.341 108.054 107.338 108.068 107.332 108.082C107.326 108.095 107.318 108.108 107.307 108.118C106.649 108.666 105.781 108.96 104.887 108.937C104.647 108.935 104.409 108.918 104.172 108.886V108.873Z" fill="#FFC3BD"/>
<path d="M113.496 106.046C113.199 105.407 112.859 104.722 112.513 104.082C112.067 104.948 111.991 105.933 112.3 106.846C112.614 106.489 113.027 106.213 113.496 106.046Z" fill="#263238"/>
<path d="M106.527 104.389C106.369 104.516 106.262 104.687 106.223 104.875C106.145 105.246 106.301 105.586 106.57 105.63C106.839 105.675 107.122 105.419 107.2 105.048C107.245 104.921 107.246 104.784 107.202 104.657C107.157 104.53 107.07 104.418 106.952 104.338C106.892 104.379 106.822 104.405 106.747 104.414C106.673 104.423 106.597 104.415 106.527 104.389Z" fill="#263238"/>
<path d="M102.176 104.236C102.217 104.108 102.215 103.973 102.171 103.847C102.127 103.72 102.043 103.608 101.929 103.525C101.867 103.566 101.796 103.593 101.721 103.603C101.645 103.613 101.569 103.606 101.497 103.583C101.342 103.709 101.238 103.878 101.2 104.063C101.122 104.434 101.278 104.773 101.546 104.824C101.815 104.875 102.056 104.607 102.176 104.236Z" fill="#263238"/>
<path d="M101.894 103.524L100.967 103.096C101.062 103.304 101.231 103.478 101.448 103.588C101.522 103.613 101.602 103.62 101.68 103.608C101.758 103.597 101.831 103.568 101.894 103.524Z" fill="#263238"/>
<path d="M101.398 106.686C101.579 106.858 101.8 106.993 102.044 107.08C102.289 107.167 102.551 107.205 102.814 107.191L103.373 104.574C102.823 105.355 102.159 106.065 101.398 106.686Z" fill="#ED847E"/>
<path d="M107.291 107.966C107.267 107.945 107.236 107.934 107.203 107.934C107.17 107.934 107.138 107.945 107.114 107.966C106.725 108.278 106.261 108.502 105.758 108.622C105.256 108.743 104.729 108.754 104.22 108.657C104.189 108.651 104.157 108.657 104.131 108.672C104.104 108.688 104.086 108.712 104.079 108.74C104.072 108.769 104.078 108.799 104.095 108.824C104.112 108.849 104.139 108.867 104.171 108.874C104.405 108.911 104.641 108.932 104.878 108.938C105.772 108.961 106.64 108.667 107.298 108.119C107.318 108.098 107.328 108.07 107.327 108.041C107.326 108.013 107.313 107.986 107.291 107.966Z" fill="#263238"/>
<path d="M113.497 106.045C113.027 106.212 112.615 106.488 112.301 106.845C112.014 107.148 111.776 107.486 111.594 107.849C111.056 108.924 111.388 110.127 112.57 110.031C112.697 110.031 112.832 109.98 112.966 109.954C113.522 109.821 114.029 109.559 114.438 109.193C114.29 108.109 113.973 107.049 113.497 106.045Z" fill="#FFC3BD"/>
<path d="M110.357 97.9315C110.399 97.0101 110.979 96.7862 111.772 96.9269C107.484 94.6618 101.194 97.1445 100.727 100.126C101.151 100.126 101.59 100.126 102.043 100.126C104.813 100.064 107.56 99.657 110.208 98.9169C110.167 98.5824 110.218 98.2439 110.357 97.9315Z" fill="#263238"/>
<path d="M110.355 97.9319C110.221 98.2364 110.17 98.5656 110.207 98.8917C110.313 100.248 111.452 102.091 112.528 104.068C112.874 104.708 113.235 105.348 113.511 106.033C113.987 107.037 114.304 108.096 114.452 109.181C114.58 110.149 114.423 111.131 113.999 112.028C115.705 110.275 116.405 107.133 116.688 104.458C116.85 102.891 116.9 101.316 116.837 99.7427C116.837 99.7427 113.681 97.2728 111.77 96.9273C110.978 96.7865 110.398 97.0105 110.355 97.9319Z" fill="#263238"/>
<path d="M107.13 101.611C107.438 101.662 107.727 101.781 107.974 101.956C108.22 102.131 108.416 102.357 108.545 102.615C108.557 102.643 108.576 102.668 108.601 102.688C108.625 102.708 108.655 102.723 108.686 102.731C108.745 102.753 108.811 102.753 108.87 102.731C108.928 102.703 108.972 102.657 108.993 102.601C109.015 102.545 109.011 102.484 108.984 102.43C108.828 102.104 108.587 101.817 108.281 101.594C107.975 101.371 107.614 101.219 107.229 101.15C107.164 101.143 107.099 101.159 107.047 101.195C106.996 101.231 106.962 101.284 106.953 101.342C106.94 101.399 106.95 101.458 106.983 101.508C107.016 101.558 107.068 101.594 107.13 101.611Z" fill="#263238"/>
<path d="M102.239 101.074C102.3 101.093 102.366 101.089 102.424 101.064C102.483 101.039 102.528 100.995 102.55 100.94C102.561 100.913 102.567 100.885 102.566 100.856C102.565 100.827 102.557 100.799 102.544 100.773C102.531 100.746 102.512 100.723 102.489 100.703C102.466 100.684 102.438 100.668 102.408 100.659C102.179 100.594 101.941 100.562 101.701 100.563C101.149 100.561 100.612 100.722 100.173 101.023C100.122 101.06 100.088 101.113 100.079 101.171C100.07 101.229 100.085 101.289 100.123 101.337C100.162 101.381 100.217 101.41 100.279 101.42C100.312 101.426 100.346 101.426 100.379 101.42C100.412 101.413 100.443 101.4 100.47 101.382C100.748 101.188 101.077 101.064 101.425 101.023C101.697 100.983 101.975 101.001 102.239 101.074Z" fill="#263238"/>
<path d="M106.528 104.388C106.597 104.414 106.673 104.422 106.748 104.413C106.822 104.405 106.893 104.378 106.952 104.337L106.025 103.908C106.125 104.117 106.303 104.287 106.528 104.388Z" fill="#263238"/>
<path d="M117.848 135.684C117.848 135.422 117.89 135.14 117.905 134.871C117.508 134.302 117.105 133.726 116.688 133.157L115.874 132.062L115.619 132.184C116.264 133.4 117.009 134.57 117.848 135.684Z" fill="#263238"/>
<path opacity="0.2" d="M117.848 135.684C117.848 135.422 117.89 135.14 117.905 134.871C117.508 134.302 117.105 133.726 116.688 133.157L115.874 132.062L115.619 132.184C116.264 133.4 117.009 134.57 117.848 135.684Z" fill="black"/>
<path d="M119.951 140.982V141.084C122.773 139.705 125.373 137.983 127.677 135.965C127.291 134.933 126.837 133.923 126.319 132.939C125.632 131.601 124.87 130.296 124.034 129.029C123.326 127.929 122.576 126.879 121.805 125.83C121.097 127.167 119.088 130.386 115.896 132.043L116.71 133.137C117.128 133.707 117.531 134.283 117.927 134.852C118.274 135.351 118.635 135.857 118.925 136.356C119.47 137.22 119.979 138.09 120.34 138.915L120.269 139.35C120.184 139.881 120.078 140.425 119.951 140.982Z" fill="#FFC3BD"/>
<path d="M111.028 128.812C111.028 128.812 112.84 130.45 114.962 132.479C115.189 132.389 115.408 132.287 115.62 132.184L115.875 132.063C119.066 130.406 121.062 127.187 121.783 125.85C121.988 125.472 122.095 125.242 122.095 125.242C122.095 125.242 120.043 122.171 117.227 120.622C116.555 120.238 115.812 119.967 115.033 119.822C110.016 120.98 108.382 123.821 111.028 128.812Z" fill="#263238"/>
<path d="M144.956 64.6283H154.926C155.198 64.6242 155.459 64.5279 155.656 64.3586C155.854 64.1892 155.975 63.959 155.994 63.7133C156.003 63.5963 155.985 63.4789 155.941 63.3684C155.897 63.258 155.829 63.157 155.74 63.0716C155.65 62.9863 155.543 62.9186 155.424 62.8726C155.304 62.8267 155.176 62.8036 155.046 62.8047H145.069C144.798 62.8088 144.538 62.9041 144.341 63.0721C144.143 63.2402 144.022 63.4688 144.001 63.7133C143.991 63.8314 144.008 63.9501 144.052 64.0617C144.096 64.1734 144.165 64.2755 144.255 64.3617C144.345 64.4478 144.454 64.516 144.574 64.5619C144.695 64.6078 144.825 64.6305 144.956 64.6283Z" fill="#3C8AFF"/>
<path d="M144.75 67.7695H154.72C154.992 67.7653 155.253 67.6691 155.45 67.4997C155.648 67.3304 155.768 67.1002 155.788 66.8545C155.798 66.7369 155.78 66.6188 155.737 66.5076C155.694 66.3964 155.625 66.2946 155.536 66.2086C155.447 66.1225 155.339 66.0542 155.219 66.0079C155.099 65.9616 154.97 65.9383 154.84 65.9395H144.87C144.597 65.9421 144.334 66.0376 144.135 66.2071C143.936 66.3767 143.814 66.6077 143.795 66.8545C143.787 66.9722 143.806 67.09 143.85 67.2008C143.895 67.3116 143.964 67.413 144.054 67.4987C144.143 67.5844 144.251 67.6526 144.371 67.6992C144.49 67.7458 144.62 67.7697 144.75 67.7695Z" fill="#3C8AFF"/>
<path d="M64.0948 67.7695H74.0645C74.3375 67.7655 74.5991 67.6694 74.798 67.5002C74.9969 67.331 75.1188 67.1007 75.14 66.8545C75.1487 66.7366 75.1305 66.6184 75.0863 66.5071C75.0422 66.3959 74.9731 66.2942 74.8834 66.2083C74.7937 66.1224 74.6853 66.0541 74.5651 66.0079C74.4449 65.9616 74.3154 65.9383 74.1847 65.9395H64.2151C63.9423 65.9422 63.6806 66.0379 63.4825 66.2076C63.2844 66.3773 63.1645 66.6083 63.1467 66.8545C63.1379 66.9718 63.156 67.0896 63.1997 67.2003C63.2434 67.3111 63.3119 67.4125 63.4008 67.4984C63.4898 67.5842 63.5972 67.6525 63.7166 67.6992C63.836 67.7458 63.9648 67.7698 64.0948 67.7695Z" fill="#3C8AFF"/>
<path d="M144.545 70.9042H154.536C154.81 70.9016 155.072 70.8061 155.271 70.6366C155.471 70.4671 155.592 70.236 155.612 69.9892C155.619 69.8716 155.6 69.7537 155.556 69.6429C155.511 69.5321 155.442 69.4308 155.353 69.345C155.263 69.2593 155.155 69.1911 155.036 69.1445C154.916 69.0979 154.787 69.074 154.656 69.0742H144.666C144.392 69.0783 144.131 69.1743 143.932 69.3435C143.733 69.5127 143.611 69.743 143.59 69.9892C143.581 70.1071 143.6 70.2254 143.644 70.3366C143.688 70.4478 143.757 70.5495 143.847 70.6354C143.936 70.7214 144.045 70.7896 144.165 70.8358C144.285 70.8821 144.415 70.9054 144.545 70.9042Z" fill="#3C8AFF"/>
<path d="M131.441 185.702H71.1283C70.0019 185.712 68.8856 185.51 67.8494 185.111C66.8132 184.711 65.8797 184.122 65.1075 183.381C64.3353 182.639 63.7411 181.761 63.3623 180.802C62.9835 179.842 62.8283 178.823 62.9064 177.806C63.0761 175.683 64.12 173.694 65.8321 172.232C67.5441 170.77 69.8 169.942 72.1543 169.91H132.467C133.594 169.901 134.71 170.102 135.746 170.502C136.783 170.901 137.716 171.49 138.488 172.232C139.26 172.974 139.855 173.852 140.234 174.811C140.612 175.77 140.768 176.79 140.689 177.806C140.52 179.93 139.476 181.919 137.764 183.381C136.052 184.843 133.796 185.671 131.441 185.702Z" fill="white"/>
<path d="M130.069 206.926H69.7489C68.6225 206.933 67.5065 206.731 66.4708 206.33C65.4351 205.93 64.502 205.34 63.7301 204.598C62.9582 203.856 62.3641 202.978 61.985 202.019C61.6059 201.059 61.4499 200.04 61.527 199.024C61.7017 196.903 62.7478 194.919 64.4594 193.461C66.1709 192.003 68.4239 191.178 70.7749 191.147H131.095C132.221 191.137 133.338 191.339 134.374 191.738C135.41 192.138 136.344 192.727 137.116 193.468C137.888 194.21 138.482 195.088 138.861 196.047C139.24 197.007 139.395 198.027 139.317 199.043C139.142 201.164 138.096 203.149 136.385 204.608C134.674 206.066 132.421 206.893 130.069 206.926Z" fill="white"/>
<path d="M128.689 228.144H68.3764C67.25 228.154 66.1336 227.952 65.0975 227.553C64.0613 227.153 63.1277 226.564 62.3555 225.823C61.5833 225.081 60.9891 224.203 60.6103 223.244C60.2315 222.284 60.0763 221.264 60.1544 220.248C60.324 218.124 61.3677 216.134 63.0796 214.671C64.7915 213.208 67.0474 212.379 69.4023 212.346H129.715C130.842 212.337 131.959 212.539 132.995 212.94C134.031 213.34 134.965 213.93 135.737 214.672C136.509 215.414 137.103 216.292 137.482 217.252C137.86 218.212 138.016 219.232 137.937 220.248C137.768 222.372 136.724 224.361 135.012 225.823C133.3 227.285 131.044 228.113 128.689 228.144Z" fill="white"/>
<path d="M75.8139 180.635C77.6502 179.023 77.7771 176.447 76.0973 174.883C74.4176 173.319 71.5673 173.358 69.7311 174.971C67.8948 176.583 67.7679 179.159 69.4477 180.723C71.1274 182.287 73.9777 182.248 75.8139 180.635Z" fill="#3C8AFF"/>
<path d="M72.2392 195.179L72.8335 197.208C72.8678 197.319 72.942 197.417 73.0443 197.487C73.1467 197.556 73.2716 197.593 73.3996 197.592H75.7558C75.8887 197.593 76.0175 197.633 76.1226 197.707C76.2276 197.78 76.3032 197.883 76.3377 197.999C76.3722 198.115 76.3637 198.238 76.3136 198.349C76.2634 198.461 76.1744 198.554 76.06 198.615L74.0718 199.895C73.9588 199.963 73.8721 200.061 73.8239 200.176C73.7757 200.291 73.7683 200.416 73.8029 200.535L74.3972 202.563C74.4325 202.68 74.4273 202.803 74.3823 202.917C74.3374 203.031 74.2549 203.129 74.1459 203.199C74.037 203.269 73.907 203.307 73.7735 203.307C73.64 203.308 73.5094 203.272 73.3996 203.203L71.574 201.923C71.4704 201.858 71.3469 201.822 71.2203 201.822C71.0936 201.822 70.9701 201.858 70.8665 201.923L68.8782 203.203C68.774 203.278 68.645 203.319 68.5119 203.32C68.3787 203.321 68.2491 203.281 68.1439 203.207C68.0387 203.134 67.9639 203.03 67.9315 202.913C67.8992 202.796 67.9111 202.673 67.9654 202.563L68.8216 200.535C68.8742 200.425 68.8846 200.302 68.8513 200.186C68.8179 200.07 68.7428 199.968 68.6376 199.895L66.8121 198.615C66.7116 198.537 66.6402 198.433 66.6076 198.317C66.5751 198.201 66.5829 198.078 66.6301 197.966C66.6773 197.854 66.7616 197.758 66.8714 197.691C66.9812 197.624 67.1112 197.589 67.2437 197.592H69.5999C69.7335 197.592 69.8639 197.555 69.9739 197.486C70.0838 197.418 70.1681 197.321 70.2155 197.208L71.0434 195.179C71.081 195.062 71.1596 194.959 71.2675 194.886C71.3753 194.813 71.5064 194.773 71.6413 194.773C71.7761 194.773 71.9072 194.813 72.0151 194.886C72.1229 194.959 72.2015 195.062 72.2392 195.179Z" fill="#3C8AFF"/>
<path d="M71.5088 215.814L73.8933 218.098H72.3437C72.2177 218.099 72.0928 218.077 71.9769 218.032C71.8609 217.987 71.7565 217.922 71.67 217.839C71.5836 217.756 71.5171 217.657 71.4748 217.55C71.4324 217.443 71.4151 217.329 71.4239 217.215L71.5088 215.814ZM70.8791 214.246L70.78 215.775L70.688 217.177C70.6758 217.381 70.709 217.585 70.7855 217.777C70.8621 217.97 70.9805 218.146 71.1338 218.296C71.2895 218.445 71.4772 218.563 71.6853 218.643C71.8934 218.724 72.1175 218.765 72.3437 218.764H75.5844L74.424 217.644L72.0466 215.359L70.8791 214.246Z" fill="white"/>
<path opacity="0.2" d="M129.417 176.968H84.2814C84.0988 176.969 83.9178 176.936 83.7497 176.871C83.5817 176.806 83.4303 176.711 83.3048 176.591C83.1793 176.471 83.0826 176.329 83.0205 176.173C82.9585 176.018 82.9325 175.853 82.9441 175.688C82.974 175.343 83.1451 175.021 83.4238 174.784C83.7026 174.548 84.0689 174.414 84.4512 174.408H129.58C129.763 174.407 129.944 174.44 130.112 174.505C130.28 174.569 130.431 174.665 130.557 174.785C130.682 174.905 130.779 175.047 130.841 175.202C130.903 175.358 130.929 175.523 130.917 175.688C130.889 176.032 130.719 176.354 130.442 176.591C130.164 176.828 129.799 176.962 129.417 176.968Z" fill="#3C8AFF"/>
<path opacity="0.2" d="M120.863 181.218H84.0127C83.8297 181.219 83.6484 181.186 83.4801 181.121C83.3117 181.057 83.1598 180.961 83.0338 180.841C82.9078 180.721 82.8103 180.579 82.7474 180.424C82.6846 180.269 82.6576 180.103 82.6683 179.938C82.6982 179.593 82.8693 179.271 83.148 179.034C83.4267 178.798 83.7931 178.664 84.1754 178.658H121.026C121.209 178.656 121.391 178.688 121.559 178.753C121.728 178.817 121.881 178.912 122.007 179.033C122.133 179.153 122.23 179.295 122.293 179.451C122.355 179.607 122.382 179.773 122.37 179.938C122.338 180.282 122.167 180.604 121.889 180.84C121.61 181.076 121.245 181.211 120.863 181.218Z" fill="#3C8AFF"/>
<path opacity="0.2" d="M127.932 199.863H115.479C115.096 199.867 114.729 200.001 114.449 200.238C114.17 200.475 114 200.798 113.971 201.143C113.96 201.308 113.986 201.473 114.048 201.629C114.11 201.784 114.207 201.926 114.332 202.046C114.458 202.166 114.609 202.262 114.777 202.326C114.945 202.391 115.126 202.424 115.309 202.423H127.762C128.145 202.419 128.512 202.285 128.791 202.048C129.07 201.811 129.241 201.488 129.269 201.143C129.281 200.978 129.255 200.813 129.193 200.658C129.131 200.502 129.034 200.36 128.908 200.24C128.783 200.12 128.631 200.025 128.463 199.96C128.295 199.895 128.114 199.862 127.932 199.863Z" fill="#3C8AFF"/>
<path opacity="0.2" d="M108.198 199.861H82.8033C82.4205 199.865 82.0532 199.999 81.7742 200.236C81.4951 200.473 81.3245 200.796 81.2962 201.141C81.2834 201.306 81.3087 201.472 81.3704 201.628C81.432 201.783 81.5288 201.926 81.6544 202.046C81.7801 202.167 81.932 202.262 82.1005 202.326C82.269 202.391 82.4505 202.423 82.6335 202.421H108.035C108.417 202.416 108.784 202.281 109.063 202.045C109.341 201.808 109.512 201.486 109.542 201.141C109.554 200.976 109.528 200.81 109.465 200.654C109.403 200.498 109.305 200.356 109.179 200.236C109.053 200.116 108.901 200.02 108.732 199.956C108.563 199.891 108.381 199.859 108.198 199.861Z" fill="#3C8AFF"/>
<path opacity="0.2" d="M119.93 195.627H83.0723C82.6895 195.631 82.3223 195.764 82.0432 196.001C81.7641 196.238 81.5935 196.561 81.5652 196.907C81.5536 197.072 81.5796 197.237 81.6416 197.392C81.7037 197.548 81.8004 197.69 81.9259 197.81C82.0514 197.93 82.2028 198.025 82.3709 198.09C82.5389 198.155 82.7199 198.188 82.9025 198.186H119.753C120.135 198.181 120.501 198.047 120.78 197.81C121.059 197.574 121.23 197.251 121.26 196.907C121.271 196.742 121.246 196.578 121.184 196.423C121.122 196.268 121.026 196.126 120.902 196.006C120.777 195.886 120.626 195.79 120.459 195.725C120.292 195.66 120.112 195.627 119.93 195.627Z" fill="#3C8AFF"/>
<rect x="0.441926" y="0.490464" width="23.7221" height="23.7221" rx="11.8611" transform="matrix(0.999914 0.0130896 -0.0908064 0.995869 124.982 85.4279)" fill="#2C68BF" stroke="white" stroke-width="0.972218"/>
<path d="M132.016 99.1261L134.947 101.631L141.195 95.4926" stroke="white" stroke-width="1.20135" stroke-linecap="round" stroke-linejoin="round"/>
</g>
</svg>
