 <svg width="12" height="13" viewBox="0 0 12 13" fill="none" xmlns="http://www.w3.org/2000/svg">
<path d="M6 12.7734C7.5913 12.7734 9.11742 12.1413 10.2426 11.0161C11.3679 9.89086 12 8.36474 12 6.77344C12 5.18214 11.3679 3.65602 10.2426 2.5308C9.11742 1.40558 7.5913 0.773438 6 0.773438C4.4087 0.773438 2.88258 1.40558 1.75736 2.5308C0.632141 3.65602 0 5.18214 0 6.77344C0 8.36474 0.632141 9.89086 1.75736 11.0161C2.88258 12.1413 4.4087 12.7734 6 12.7734ZM5.25 5.64844C5.25 6.26944 4.914 6.77344 4.5 6.77344C4.086 6.77344 3.75 6.26944 3.75 5.64844C3.75 5.02744 4.086 4.52344 4.5 4.52344C4.914 4.52344 5.25 5.02744 5.25 5.64844ZM3.21375 7.94869C3.29988 7.89896 3.40223 7.88549 3.4983 7.91123C3.59436 7.93696 3.67627 7.99981 3.726 8.08594C3.95633 8.48519 4.28779 8.81671 4.687 9.04713C5.0862 9.27754 5.53907 9.39871 6 9.39844C6.46093 9.39871 6.9138 9.27754 7.313 9.04713C7.71221 8.81671 8.04367 8.48519 8.274 8.08594C8.29844 8.04295 8.33115 8.00521 8.37023 7.97491C8.40932 7.94461 8.45401 7.92234 8.50174 7.90938C8.54947 7.89643 8.59929 7.89304 8.64833 7.89941C8.69737 7.90579 8.74467 7.9218 8.7875 7.94653C8.83033 7.97125 8.86784 8.00421 8.89788 8.0435C8.92792 8.08278 8.9499 8.12762 8.96254 8.17543C8.97518 8.22324 8.97824 8.27309 8.97154 8.32208C8.96484 8.37108 8.94851 8.41827 8.9235 8.46094C8.62734 8.9742 8.20121 9.4004 7.68799 9.69664C7.17478 9.99288 6.59258 10.1487 6 10.1484C5.40742 10.1487 4.82522 9.99288 4.31201 9.69664C3.79879 9.4004 3.37266 8.9742 3.0765 8.46094C3.02677 8.37481 3.0133 8.27245 3.03904 8.17639C3.06478 8.08032 3.12762 7.99842 3.21375 7.94869ZM7.5 6.77344C7.086 6.77344 6.75 6.26944 6.75 5.64844C6.75 5.02744 7.086 4.52344 7.5 4.52344C7.914 4.52344 8.25 5.02744 8.25 5.64844C8.25 6.26944 7.914 6.77344 7.5 6.77344Z" fill="white"/>
</svg>
