<svg width="12" height="14" viewBox="0 0 12 14" fill="none" xmlns="http://www.w3.org/2000/svg">
<path d="M5.38824 14C5.30854 13.9999 5.22946 13.987 5.15454 13.9618C5.01001 13.9128 4.88743 13.8204 4.80642 13.6992C4.72541 13.5781 4.69067 13.4352 4.70774 13.2936L5.23702 8.78184H1.18841C1.06353 8.78201 0.940967 8.75069 0.833871 8.69124C0.726776 8.63178 0.639199 8.54644 0.580544 8.44438C0.52189 8.34232 0.494375 8.2274 0.500955 8.11195C0.507535 7.9965 0.54796 7.8849 0.61789 7.78912L6.04124 0.280061C6.12702 0.162549 6.25274 0.0749326 6.39844 0.031122C6.54414 -0.0126885 6.70148 -0.0101821 6.84547 0.0382434C6.98389 0.0858197 7.10208 0.173397 7.18255 0.288009C7.26302 0.402621 7.30149 0.538175 7.29226 0.674604L6.76298 5.21822H10.8116C10.9365 5.21805 11.059 5.24937 11.1661 5.30882C11.2732 5.36828 11.3608 5.45362 11.4195 5.55568C11.4781 5.65774 11.5056 5.77266 11.499 5.88811C11.4925 6.00356 11.452 6.11516 11.3821 6.21094L5.95876 13.72C5.89571 13.8064 5.8107 13.8771 5.71123 13.9259C5.61175 13.9747 5.50083 14.0002 5.38824 14Z" fill="white"/>
</svg>
